<svg xmlns="http://www.w3.org/2000/svg" viewBox="0 0 495 784" width="495" height="784">
	<style>
		tspan { white-space:pre }
		.shp0 { fill: #fcfcfc } 
		.shp1 { fill: #211d83 } 
	</style>
	<g >
		<path class="shp0" d="M-3 5C-3 10.67 -2.63 13.81 -2 13.5C-1.45 13.23 -0.51 11.76 0.1 10.25C0.7 8.74 1.27 6.98 1.35 6.35C1.43 5.71 1.91 4.81 2.41 4.35C2.95 3.85 3.02 4.12 2.59 5C2.18 5.83 2.58 5.6 3.47 4.5C4.36 3.4 5.76 1.6 6.59 0.5C7.42 -0.6 7.85 -0.94 7.55 -0.25C7.21 0.53 7.56 0.81 8.5 0.5C9.39 0.2 9.69 -0.51 9.25 -1.24C8.75 -2.06 8.92 -2.23 9.75 -1.74C10.44 -1.33 12.01 -1.68 13.25 -2.51C15.33 -3.9 14.82 -4.01 6.25 -4.01L-3 -4" />
		<path class="shp1" d="M13.25 -2.51C12.01 -1.68 10.44 -1.33 9.75 -1.74C8.92 -2.23 8.75 -2.06 9.25 -1.24C9.69 -0.51 9.39 0.2 8.51 0.49C7.58 0.79 7.23 0.51 7.58 -0.26C7.89 -0.94 7.42 -0.6 6.53 0.5C5.64 1.6 4.24 3.4 3.41 4.5C2.58 5.6 2.23 5.83 2.61 5C3.03 4.12 2.94 3.84 2.41 4.33C1.91 4.79 1.48 5.47 1.45 5.83C1.42 6.2 1.03 7.63 0.58 9C0.13 10.38 -0.85 12.17 -1.6 13C-2.74 14.26 -2.92 75.23 -2.73 393.29C-2.53 728.78 -2.33 772.17 -1 772.92C0.01 773.5 0.2 774.23 -0.41 775.14C-0.96 775.96 -0.96 776.21 -0.41 775.78C0.09 775.38 1.74 776.85 3.25 779.03C4.76 781.21 6.45 783 7 783C7.55 783 7.77 783.45 7.5 784C7.23 784.55 7.68 784.77 8.5 784.5C9.32 784.23 10.79 784.9 11.75 786.01C13.49 788.01 14.37 788.02 247.25 788.01L481 788C488.36 782.59 490.88 781.36 491.33 781.76C491.79 782.17 492.04 782.05 491.89 781.5C491.74 780.95 492.84 778.02 494.32 775L497.03 769.5C497.01 182.44 496.66 12.02 496.25 12.04C495.84 12.06 494.83 10.6 494.01 8.79C493.19 6.98 492.63 5.16 492.76 4.75C492.89 4.34 492.55 4.23 492 4.5C491.45 4.77 490.77 4.1 490.5 3C490.23 1.9 489.55 1.23 489 1.5C488.45 1.77 487.77 1.1 487.5 0C487.13 -1.48 487.59 -2.12 489.25 -2.46C490.49 -2.71 492.4 -3.11 493.5 -3.35C494.6 -3.58 492.91 -3.82 489.75 -3.88C485.07 -3.98 483.91 -3.67 483.49 -2.25C483.01 -0.59 482.89 -0.59 481.24 -2.22C479.6 -3.85 465.79 -3.95 247.5 -3.98C42.37 -4.01 15.24 -3.84 13.25 -2.51Z" />
		<path class="shp0" d="M493.5 -3.35C492.4 -3.11 490.49 -2.71 489.25 -2.46C487.59 -2.12 487.13 -1.48 487.5 0C487.77 1.1 488.45 1.77 489 1.5C489.55 1.23 490.23 1.9 490.5 3C490.77 4.1 491.45 4.77 492 4.5C492.55 4.23 492.89 4.34 492.76 4.75C492.63 5.16 493.19 6.98 494.01 8.79C494.83 10.6 495.84 12.06 496.25 12.04C496.66 12.02 497 8.4 497 4C497 -0.4 496.66 -3.95 496.25 -3.88C495.84 -3.82 494.6 -3.58 493.5 -3.35ZM18 7.02C14.61 7.58 12.7 8.65 10.25 11.38L7 15L6.93 769.5C10.47 774.04 12.96 775.95 14.75 776.68C17.41 777.76 59.55 778 248 778C448.2 778 478.42 777.81 481.25 776.53C483.04 775.72 485.5 773.36 486.72 771.28L488.93 767.5C489.01 28.3 488.95 17.4 487.14 14C486.11 12.08 483.75 9.6 481.89 8.5C478.53 6.52 476.61 6.5 250.5 6.39C125.1 6.33 20.48 6.62 18 7.02Z" />
		<path class="shp1" d="M21.46 17.01C20.33 17.49 18.78 18.93 18.01 20.19C16.8 22.17 16.63 76.23 16.81 393L17.02 763.5L21.5 768.05C394.86 768.01 472.68 767.66 474 767C475.1 766.45 476.46 764.54 477.02 762.75C477.7 760.57 478.03 638.32 478.02 392.25C478 68.05 477.82 24.59 476.5 21.5C475.68 19.58 474.1 17.55 473 17C471.68 16.34 394.54 16.02 247.25 16.06C120.76 16.1 22.61 16.51 21.46 17.01Z" />
		<path class="shp0" d="M44.94 27.49L41.5 30.98L60.5 31.5C65.15 40.31 66.95 43.34 67.5 43.91C68.18 44.62 69.62 42.79 72 38.23L75.5 31.5L96.5 31.5L103.26 44.5C106.09 40.63 107.71 37.78 108.7 35.68C109.69 33.58 111.4 31.65 112.5 31.38C113.6 31.12 118.32 31.04 123 31.2L131.5 31.5C136.93 42 138.72 45.04 139 45.02C139.28 45.01 141.07 41.96 143 38.25L146.5 31.5L167.35 31.5C173.35 42.78 174.82 44.61 175.5 43.91C176.05 43.34 177.85 40.31 179.5 37.18L182.5 31.5L203.23 31.5C209.42 43.2 210.74 44.84 211.3 43.87C211.75 43.12 213.43 40.14 215.05 37.25L218 32C238.83 32 239.03 32.04 240.89 34.75C241.92 36.26 243.5 39.3 244.39 41.5C245.28 43.7 246.34 45.12 246.75 44.66C247.16 44.2 249.1 41.05 251.05 37.66L254.6 31.5C269.25 31.11 273.96 31.33 274.52 31.75C275.08 32.16 276.88 35.04 278.52 38.15C280.16 41.25 281.95 43.88 282.5 43.98C283.05 44.08 284.85 41.54 286.5 38.33L289.5 32.5L311 32C315.57 40.14 317.28 43.17 317.76 44C318.42 45.14 319.47 43.94 322.15 39L325.68 32.5L347.2 32.5C352.08 42.14 353.86 44.84 354.31 44.72C354.75 44.6 356.55 41.8 358.31 38.5L361.5 32.5L383 32C386.1 37.81 387.45 40.74 388 42.25C388.55 43.76 389.45 45 390 45C390.55 45 392.46 42.07 394.25 38.48L397.5 31.96L418.5 31.96C423.93 42.05 425.73 44.98 426 44.98C426.27 44.98 428.07 42.05 430 38.47L433.5 31.96C447.84 31.99 452.01 31.66 452.02 31.25C452.03 30.84 450.57 29.04 448.77 27.27L445.5 24.03L48.39 24M30.96 41.93L23.56 49.85L23.96 735.5C34.84 747.51 38.45 750.77 39 750.5C39.55 750.23 43.6 742.58 48 733.5L56 717C51.91 708.09 48.07 700.1 44.83 693.5C41.59 686.9 39.3 681.16 39.72 680.74C40.15 680.32 45.22 680.1 51 680.24L61.5 680.5C66.15 689.41 67.72 692 68 692.01C68.28 692.02 69.96 689.09 71.75 685.51L75 679L97 679C102.04 689.09 103.84 692.02 104.25 692.01C104.66 692.01 106.46 689.08 108.25 685.5L111.5 679.01L132.5 678.92C137.93 689.08 139.72 692.02 140 692.01C140.28 692 141.96 689.07 143.75 685.5L147 679L168.5 679C173.93 689.07 175.72 692 176 692C176.28 692 178.07 689.07 180 685.5L183.5 679L204.5 679.02L211.75 692.5L219 679L240.5 679.5C245.45 688.8 247.25 691.62 247.69 691.76C248.14 691.91 249.96 689.09 251.75 685.51L255 679L276.5 679.5C281.15 688.54 282.89 691.24 283.36 691.33C283.83 691.42 285.67 688.8 287.46 685.5L290.7 679.5C308 679.07 311.32 679.37 312.07 680.25C312.66 680.94 314.57 684.12 316.32 687.33L319.5 693.16L327 679L348 679C352.79 688.69 354.47 691.82 354.84 692.21C355.2 692.61 357.07 690.02 359 686.46L362.5 680L383.5 679.98L390.76 693.5L398.5 678.91L419 679L426.5 692.94L433.5 680.02C453.14 680 455 680.26 455 681.5C455 682.33 451.4 690.2 447 699C442.6 707.8 439 715.67 439 716.5C439 717.33 442.6 725.42 447 734.5C451.4 743.58 455.37 750.89 455.82 750.75C456.27 750.61 459.62 747.35 463.28 743.5L469.92 736.5L470 50C459.54 38.36 456.05 34.98 455.5 34.97C454.95 34.96 450.71 42.73 446.07 52.23L437.64 69.5C451.09 96.24 455 104.68 455 105.5C455 106.76 453.2 106.96 443.82 106.75L432.63 106.5C427.88 96.85 426.27 94.03 426 94.01C425.73 93.98 423.93 97.14 422 101.03L418.5 108.09L397.5 107.5L390.26 93.5L383 107L361 107L354.25 93.5L347 108L325.7 107.5C320.9 98.38 319.1 95.68 318.61 95.62C318.12 95.55 316.32 98.1 314.61 101.28L311.5 107.07L289.5 107.04C284.85 97.55 283.16 94.61 282.75 94.4C282.34 94.18 280.43 97.15 278.5 101L275 108C259.89 107.98 255.05 107.64 254.49 107.23C253.94 106.83 252.19 104.03 250.6 101C249.02 97.97 247.45 95.16 247.11 94.74C246.77 94.31 244.93 96.9 243 100.49L239.5 107.01L218 107C213.43 98.86 211.75 95.87 211.3 95.11C210.73 94.12 209.48 95.65 207 100.4L203.5 107.08L181.64 106.5C176.88 96.81 175.28 94 175 93.99C174.72 93.99 173.04 96.91 171.25 100.49L168 107L145.54 106.5C141.25 97.59 139.66 94.8 139.25 94.55C138.84 94.3 137.04 97 135.25 100.55L132 107L110.5 106.5C105.85 96.77 104.14 94.07 103.69 94.22C103.25 94.38 101.45 97.2 99.69 100.5L96.5 106.5L75 107L68.3 93.5L61.5 106.5C42.92 106.93 39.84 106.66 39.42 105.75C39.11 105.06 42.72 96.85 47.44 87.5C52.17 78.15 56.03 70.05 56.01 69.5C56 68.95 52.16 60.74 47.49 51.25C42.82 41.76 38.86 34 38.68 34C38.51 34 35.03 37.57 30.96 41.93ZM184.64 35.75C184.39 36.16 178.79 47.3 172.19 60.49C165.59 73.69 160.15 85.39 160.1 86.49C160.04 87.6 161.17 90.75 162.61 93.5C164.05 96.25 165.61 98.95 166.08 99.5C166.58 100.09 173.37 87.33 182.71 68.26C191.39 50.52 198.28 35.77 198 35.48C197.72 35.18 194.71 34.96 191.3 34.97C187.89 34.99 184.89 35.34 184.64 35.75ZM61.21 68.25C52.3 85.99 45 100.84 45 101.25C45 101.66 48.15 102 52 102L59 102L92 36L77.41 36M96.24 68.79C87.29 86.78 79.98 101.84 79.99 102.25C79.99 102.66 83.15 103 87 103L94 103C118.99 52.24 126.41 37.16 126.62 36.75C126.83 36.34 123.74 36.02 119.75 36.04L112.5 36.08M132.09 68.5C123.24 86.38 116 101.45 116 102C116 102.56 118.74 102.99 122.25 102.98C125.69 102.98 128.95 102.64 129.5 102.23C130.05 101.83 132.15 98.13 134.17 94C136.19 89.88 143.5 75.14 150.42 61.25L163 36L148.18 36M203.49 68.99C194.41 87.14 186.99 102.22 186.99 102.49C187 102.77 190.15 103 194 103L201 103C226.57 51.85 234 36.78 234 36.5C234 36.22 230.85 36 227 36L220 36M239.62 69C230.48 87.15 223 102.22 223 102.5C223 102.78 226.26 102.99 230.25 102.97L237.5 102.95L270.5 36L256.24 36M275.49 68.99C266.41 87.14 258.99 102.22 258.99 102.49C259 102.77 262.15 103 266 103L273 103C298.57 51.85 306 36.78 306 36.5C306 36.22 302.85 36 299 36L292 36M311.65 69C302.49 87.15 295 102.22 295 102.5C295 102.78 298.26 102.89 302.25 102.75L309.5 102.5C334.56 52.13 341.87 37.16 341.91 36.75C341.96 36.34 338.92 36 335.15 36L328.29 36M347.49 68.99C338.41 87.14 330.99 102.22 330.99 102.49C331 102.77 334.15 103 338 103L345 103C369.83 53.01 377.03 37.94 377.02 37.25C377.01 36.38 375.02 36 370.5 36L364 36M383.5 68.32C374.7 86.02 367.39 100.83 367.25 101.25C367.11 101.66 370.38 102 374.5 102L382 102C387.24 90.76 394.44 75.91 401.38 61.75L414 36L399.5 36.15M418.69 69.5L402 103L416.5 103.03C442.46 51.86 449.66 36.76 449.25 36.47C448.84 36.18 445.55 35.96 441.94 35.97L435.39 36M82.67 63.5L80 69L85.75 80.5C89.82 72.36 91 69.33 91 68.5C91 67.67 89.99 64.97 88.75 62.48C87.51 60 86.24 57.97 85.92 57.98C85.6 57.99 84.13 60.47 82.67 63.5ZM153.54 63.75L150.79 69.5L156.5 81.22C159.01 77.56 160.48 74.81 161.37 72.75C162.96 69.1 162.93 68.86 160.25 63.49C158.74 60.45 157.23 57.98 156.9 57.99C156.56 57.99 155.06 60.59 153.54 63.75ZM189.54 63.75L186.79 69.5L192.75 81.5L198.89 69.5C194.71 60.56 193.23 57.97 192.9 57.98C192.56 57.99 191.06 60.59 189.54 63.75ZM225.24 63.51L222.5 69.01L228.72 81.5L234.78 69.5C230.3 60.59 228.77 58 228.49 58C228.21 58 226.75 60.48 225.24 63.51ZM261.31 63.75L258.37 69.5C262.73 77.64 264.34 79.99 264.75 79.97C265.16 79.96 266.51 77.93 267.75 75.47C268.99 73.01 270 70.33 270 69.5C270 68.67 268.88 65.75 267.5 63C266.13 60.25 264.83 58 264.62 58C264.41 58 262.92 60.59 261.31 63.75ZM297.57 62.72C296.11 65.59 294.93 68.62 294.95 69.47C294.98 70.31 296.13 73.25 297.5 76C298.88 78.75 300.34 80.82 300.75 80.61C301.16 80.4 302.58 78.03 303.9 75.36C306.22 70.64 306.24 70.37 304.67 66C303.78 63.53 302.42 60.6 301.64 59.5C300.3 57.6 300.1 57.76 297.57 62.72ZM369.12 63.75L366 70C370 77.36 371.47 79.84 371.83 80.25C372.2 80.66 373.78 78.41 375.35 75.25L378.21 69.5L372.25 57.5M405.12 63.75L402 70C406.26 78.55 407.73 81.03 408 81.04C408.27 81.04 409.78 78.45 411.35 75.27L414.21 69.5L408.25 57.5M118.09 63.25C116.95 65.59 116.02 68.06 116.01 68.75C116.01 69.44 117.17 72.36 118.59 75.25C120.64 79.4 121.39 80.18 122.15 79C122.68 78.17 123.99 75.59 125.06 73.25L127 69C123.13 61.25 121.58 59 121.07 59C120.56 59 119.22 60.91 118.09 63.25ZM334.15 62.25C333.05 64.04 331.86 66.63 331.49 68C331.03 69.72 331.65 72.21 333.49 76L336.17 81.5C339.13 76.85 340.44 74.04 341 72.25C341.84 69.52 341.6 68.2 339.5 64C338.13 61.25 336.81 59 336.57 59C336.33 59 335.24 60.46 334.15 62.25Z" />
		<path class="shp1" d="M109.5 116.57C107.98 118.02 107.86 139.35 107.93 393.57C107.99 637 108.17 669.17 109.5 670.5C110.82 671.82 127.23 672.01 244.75 672.04C352.95 672.08 378.74 671.84 379.74 670.79C380.71 669.77 380.98 611.32 380.99 393.5C381 173.92 380.75 117.24 379.75 116.21C378.74 115.16 352.95 114.92 244.82 114.96C124.7 115 110.98 115.16 109.5 116.57ZM31.5 116.67C31.04 117.03 30.74 122.21 30.83 128.17L31 139C43.16 146.15 43.39 146.42 41.5 147.73C40.4 148.49 37.36 150.44 34.75 152.06L30 155C29.92 173.64 30.22 175.77 31.59 177C32.52 177.82 35.35 179.63 37.89 181C40.43 182.38 42.46 183.96 42.4 184.5C42.35 185.05 39.87 186.87 36.9 188.54L31.5 191.57L31.5 215.5C42.78 222.22 43.09 222.6 41.37 223.81C40.34 224.53 37.36 226.44 34.75 228.06L30 231L30 252C35.04 255.69 38.08 257.55 40 258.51C43.49 260.25 43.49 260.26 41.37 261.88C40.2 262.77 37.17 264.74 34.62 266.25L30 269L30.5 290.5C40.14 296.7 42.95 298.73 42.96 299C42.97 299.27 40.28 301.07 36.97 303L30.96 306.5L31.03 329.5C40.28 334.93 42.99 336.73 43.02 337C43.05 337.27 40.36 339.19 37.04 341.25L31 345L31.04 367.5L44.5 375.18L31.5 382.55L31 406C39.74 411.04 42.44 412.84 42.64 413.25C42.84 413.66 42.44 414.38 41.75 414.85C41.06 415.31 38.48 416.78 36 418.1C33.52 419.42 31.17 420.95 30.77 421.5C30.36 422.05 30.02 426.89 30.02 432.25C30 441.11 30.21 442.19 32.25 444.02C33.49 445.13 36.41 447.04 38.75 448.27C41.09 449.5 43 450.84 43 451.25C43 451.66 40.28 453.69 36.96 455.75L30.92 459.5L31.02 481.5C40.3 487.31 42.83 489.34 42.63 489.75C42.42 490.16 39.72 492.08 36.61 494L30.97 497.5L31 520C39.52 524.65 42.22 526.34 42.48 526.75C42.74 527.16 40.27 529.19 36.98 531.25L31 535L31 558C40.3 562.65 43.21 564.34 43.46 564.75C43.71 565.16 41.12 567.08 37.71 569.02L31.5 572.54L31 596C39.74 601.04 42.44 602.84 42.64 603.25C42.84 603.66 42.44 604.38 41.75 604.85C41.06 605.31 38.48 606.78 36 608.1C33.52 609.42 31.17 610.95 30.77 611.5C30.36 612.05 30.02 616.89 30.02 622.25C30 630.41 30.3 632.28 31.83 633.75C32.84 634.71 35.77 636.74 38.33 638.25C40.9 639.76 42.77 641.45 42.5 642C42.23 642.55 39.52 644.35 36.5 646L31 649C31 668.89 31.29 671.1 32.5 671.5C33.33 671.77 38.39 669.56 43.75 666.58C49.11 663.6 56.42 659.58 60 657.63L66.5 654.09C81.22 662.09 88.42 666.12 92 668.21C95.58 670.3 99.06 672.01 99.75 672C100.68 672 101.01 668.96 101.04 660.25L101.08 648.5C96.76 646.54 94.22 644.96 92.65 643.73L89.79 641.5L102 634L102.08 610.5C96.98 608.29 94.26 606.83 92.75 605.83C91.24 604.82 90.16 603.66 90.36 603.25C90.56 602.84 93.26 601.04 96.36 599.25L102 596C102 573.11 101.97 572.98 99.25 570.97C97.74 569.85 96.05 568.97 95.5 569.01C94.95 569.05 93.38 568.23 92 567.18L89.5 565.27C95.7 561.53 98.4 559.95 99.5 559.36C100.71 558.71 101.77 556.75 102.19 554.39C102.57 552.25 102.92 548.25 102.95 545.5C102.99 542.75 102.76 539.15 102.45 537.5C101.99 535.12 100.72 533.88 96.27 531.5C93.18 529.85 90.66 528.05 90.65 527.5C90.65 526.95 93.22 524.92 96.36 523L102.08 519.5L102.08 497.5C92.72 491.69 90 489.77 90 489.5C90 489.23 92.7 487.42 96 485.5L102 482L102 459C92.73 453.19 90.26 451.16 90.52 450.75C90.78 450.34 93.47 448.65 96.5 447L102 444L101.99 420.5C93.17 415.85 90.47 414.05 90.3 413.5C90.13 412.95 92.58 411.1 95.75 409.39L101.5 406.27L102 382C93.09 377.55 90.36 375.86 90.2 375.38C90.03 374.9 92.51 373.12 95.7 371.43C100.91 368.67 101.57 367.96 102.19 364.43C102.57 362.27 102.92 358.25 102.95 355.5C102.99 352.75 102.76 349.15 102.44 347.5C101.97 345.11 100.66 343.84 95.93 341.25C92.67 339.46 90.22 337.55 90.5 337C90.78 336.45 93.47 334.65 96.5 333L102 330L102 307C92.78 301.19 90.19 299.16 90.3 298.74C90.41 298.32 92.97 296.5 96 294.68L101.5 291.38L102 268C92.69 262.96 89.99 261.16 89.99 260.75C90 260.34 92.7 258.43 96 256.5L102 253L102 230C95.41 226.68 92.48 224.99 91.22 224.11C88.95 222.5 88.96 222.49 95.22 218.98L101.5 215.45C101.95 199.99 101.87 194.6 101.62 193.5C101.34 192.3 98.62 190.15 94.82 188.12L88.5 184.73C94.22 181.45 97.26 179.71 98.94 178.75L102 177L102 154L88.5 146.7C94.22 143.44 97.26 141.71 98.94 140.75L102 139C102 119.11 101.71 116.9 100.5 116.5C99.67 116.22 96.64 117.26 93.75 118.8C90.86 120.34 87.6 122.11 86.5 122.73C85.4 123.35 80.34 126.14 75.25 128.93L66 134C50.11 125.24 42.8 121.2 39.5 119.37C36.2 117.54 33.24 116.04 32.92 116.02C32.6 116.01 31.96 116.3 31.5 116.67ZM391.22 127.67L391.5 139.34C398.48 143.02 401.09 144.63 401.82 145.29C402.88 146.26 401.9 147.2 396.82 150.09L390.5 153.68L390 177C399.3 181.65 402.22 183.34 402.48 183.75C402.74 184.16 400.38 186.07 397.23 188L391.5 191.5L391 215C401.79 221.7 402.8 222.74 401.79 223.65C401.08 224.28 398.14 225.97 395.25 227.4L390 230L390 253C400.07 258.43 403 260.23 403 260.5C403 260.77 400.28 262.69 396.96 264.75L390.92 268.5L390.92 290.5C400.28 296.31 403 298.23 403 298.5C403 298.77 400.07 300.69 396.49 302.75L389.97 306.5L390 329C400.07 334.43 403 336.23 403 336.5C403 336.77 400.07 338.69 396.49 340.75L389.97 344.5L390 367C400.07 372.43 402.84 374.34 402.64 374.75C402.44 375.16 399.74 376.96 396.64 378.75L391 382C390.94 402.79 391.21 404.75 392.72 406.13C393.7 407.03 396.41 408.72 398.75 409.88C401.09 411.05 403 412.34 402.99 412.75C402.99 413.16 400.18 415.09 396.74 417.03L390.5 420.57L390 443C399.69 448.58 402.61 450.38 402.75 450.6C402.89 450.82 400.41 452.63 397.25 454.63C394.09 456.63 391.17 458.77 390.77 459.38C390.36 460 390.02 465.11 390.02 470.75L390 481L403.5 489.08L390.5 496.77L390 520C400.07 525.42 402.89 527.18 402.75 527.4C402.61 527.62 399.69 529.42 396.25 531.4L390 535L390 558C400.07 563.42 403 565.23 403 565.5C403 565.77 400.86 567.06 398.25 568.36C395.64 569.66 392.71 571.46 391.75 572.36C390.3 573.72 390 575.79 390 584.5L390 595C395.04 598.83 396.95 599.97 397.5 599.99C398.05 600.02 399.63 600.87 401 601.87L403.5 603.69C395.75 608.29 392.71 609.94 391.75 610.32C390.22 610.91 390 612.48 390 622.5L390 634C398.14 638.57 401.12 640.25 401.88 640.7C402.86 641.27 401.52 642.56 397.13 645.25L391 649C391 669.04 391.32 672 392.25 671.99C392.94 671.98 399.8 668.42 407.5 664.08C415.2 659.73 422.85 655.88 424.5 655.5C426.98 654.94 428.97 655.7 436 659.88C440.68 662.66 444.73 664.94 445 664.94C445.27 664.93 448.2 666.53 451.5 668.48C454.8 670.43 458.29 672.02 459.25 672.01C460.81 672 461 670.78 461 660.5L461 649C451.64 643.19 448.94 641.39 448.96 641.25C448.98 641.11 451.93 639.42 455.5 637.5L462 634L462 611C451.93 605.58 449 603.77 449 603.5C449 603.23 450.91 602.05 453.25 600.88C455.59 599.72 458.3 598.03 459.28 597.13C460.79 595.76 461.07 593.78 461.07 584.5C461.07 575.22 460.79 573.24 459.28 571.87C458.3 570.97 455.48 569.25 453 568.04C449.14 566.16 448.71 565.66 450 564.56C450.82 563.85 453.52 562.2 456 560.89C458.48 559.57 460.83 558.05 461.23 557.5C461.64 556.95 461.98 551.89 461.98 546.25C462 537.77 461.7 535.72 460.25 534.36C459.29 533.46 456.25 531.6 453.5 530.22C449.07 528 448.71 527.59 450.33 526.61C451.33 526 454.26 524.14 456.83 522.49L461.5 519.47L461.5 496.78L449.09 489.5C457.16 484.23 460.07 481.98 460.77 481.1C461.61 480.04 462.03 476.04 462.02 469.25L462 459C452.75 453.19 450.05 451.16 450.03 450.75C450.01 450.34 451.46 449.26 453.25 448.35C455.04 447.43 457.75 445.75 459.27 444.6C462.02 442.52 462.04 442.38 462.02 431.25L462 420C452.64 414.96 449.94 413.16 449.96 412.75C449.98 412.34 451.8 411.1 454 410C456.2 408.9 458.9 407.1 460 406C461.73 404.27 462 402.64 462.03 393.75C462.06 385.15 461.78 383.25 460.28 381.92C459.3 381.05 456.25 379.06 453.5 377.5C449.6 375.29 448.83 374.47 450 373.78C450.82 373.29 453.86 371.57 456.75 369.95L462 367L461.5 343.75C452.98 339.21 450.05 337.51 449.5 337.04C448.89 336.52 451.17 334.77 455.25 332.59L462 329L462 306L449.11 298.5L461.5 290.5C461.91 272.74 461.6 269.07 460.74 268.11C460.06 267.35 457.02 265.38 454 263.73L448.5 260.75L462 253L462 230C453.86 225.43 450.88 223.75 450.13 223.3C449.15 222.73 450.14 221.76 453.63 219.86C456.31 218.42 459.29 216.5 460.25 215.61C461.7 214.27 462 212.22 462 203.5C462 194.79 461.7 192.72 460.25 191.36C459.29 190.46 456.36 188.66 453.75 187.36C451.14 186.06 449 184.78 449 184.5C449 184.22 451.93 182.43 455.5 180.5L462 177L462 154C451.07 147.68 449.36 146.18 450.08 145.5C450.66 144.95 453.25 143.37 455.82 142L460.5 139.5C460.96 117.86 460.76 116 459.5 116C458.68 116 451.7 119.6 444 124C436.3 128.4 428.99 132.28 427.75 132.62C426.17 133.05 423.11 131.94 417.5 128.88C413.1 126.49 407.7 123.5 405.5 122.24C403.3 120.98 399.59 119.06 397.25 117.97C394.91 116.89 392.54 116 391.97 116C391.3 116 391.04 120.13 391.22 127.67Z" />
		<path class="shp0" d="M442.46 129.15C434.78 133.62 425.13 139.16 421 141.46C416.88 143.77 409.45 147.99 404.5 150.85C399.55 153.71 395.16 156.04 394.75 156.03C394.34 156.01 394 159.6 394 164L394 172C400.59 168.25 407.45 164.42 413.5 161.07C419.55 157.73 429.59 152.18 435.8 148.75C442.02 145.31 449.44 141.15 452.3 139.49L457.5 136.49C457.91 125.65 457.67 122.17 457.23 121.76C456.79 121.36 450.14 124.68 442.46 129.15ZM34 129C34 135.19 34.26 136.15 36.25 137.35C37.49 138.09 46.38 143.12 56 148.54C65.63 153.96 77.78 160.83 83 163.8C88.22 166.78 92.95 169.55 93.5 169.95C94.05 170.36 95.29 170.98 96.25 171.34C97.82 171.93 98 171.21 98.02 164.25C98.04 156.5 98.04 156.5 94.77 154.78C92.97 153.84 89.03 151.64 86 149.9C82.97 148.15 76.67 144.6 72 142C67.33 139.4 60.13 135.34 56 132.97C51.88 130.61 45.69 127.17 42.25 125.33C38.81 123.5 35.55 122 35 122C34.43 122 34 125 34 129ZM148.5 140.91C146.85 141.31 144.21 142.43 142.64 143.39C141.07 144.36 138.78 146.58 137.56 148.32C136.33 150.07 134.8 153.07 134.15 155C133.25 157.65 132.97 215.14 132.97 393L132.98 627.5C137.78 636.84 139.81 639.06 143.5 641.37L148.5 644.5C302.58 644.9 337.85 644.63 340.25 644C342.31 643.45 346.04 641.09 348.54 638.75C351.44 636.04 353.61 632.87 354.55 630C355.83 626.09 356.02 594.87 356.04 392C356.05 176.79 355.92 158.19 354.39 154.5C353.48 152.3 351.78 149.23 350.62 147.67C349.45 146.12 346.93 143.87 345 142.67L341.5 140.5C194.25 140.25 150.15 140.51 148.5 140.91Z" />
		<path class="shp1" d="M152.5 156.38C150.85 157.09 148.94 158.88 148.25 160.34C147.26 162.44 147 211.09 147 393L147 623L154 630C330.24 629.94 332.58 629.89 335.75 627.97C337.54 626.89 339.45 625.1 340 624C340.66 622.68 341 543.67 341 393C341 242.67 340.66 163.14 340 161.5C339.45 160.13 337.54 158.1 335.75 157C332.57 155.05 330.72 155.01 244 155.04C173.64 155.07 154.88 155.34 152.5 156.38Z" />
		<path class="shp0" d="M61.09 162.07C58.29 163.68 56.16 165.34 56.36 165.75C56.55 166.16 58.91 167.74 61.61 169.26L66.5 172.02C73.92 167.74 76.17 166.15 76.29 165.73C76.4 165.3 74.18 163.65 71.34 162.05L66.18 159.14M453 161.32C451.07 162.6 444.55 166.38 438.5 169.71C432.45 173.05 423.45 178.07 418.5 180.87C413.55 183.67 406 187.89 401.73 190.23L393.96 194.5C393.99 205.74 394.34 208.99 394.75 208.97C395.16 208.95 402.48 205.05 411 200.3C419.52 195.54 430.55 189.41 435.5 186.67C440.45 183.93 447.53 180.07 451.24 178.09L457.99 174.5C458 162.49 457.66 159 457.25 159C456.84 158.99 454.93 160.04 453 161.32ZM420.25 162.02C415.5 164.72 415.17 165.13 416.75 166.32C417.71 167.05 420.19 168.62 422.25 169.82L426 172L437.5 165.23C428.98 160.45 426.27 159.06 426 159.05C425.73 159.05 423.14 160.38 420.25 162.02ZM34 167L34 174C40.59 178.1 43.17 179.56 44 179.9C44.83 180.23 49.55 182.72 54.5 185.42C59.45 188.13 65.41 191.62 67.75 193.17C70.09 194.73 72.34 195.99 72.75 195.99C73.16 195.98 75.53 197.24 78 198.78C80.47 200.33 85.99 203.48 90.25 205.8L98 210L98.03 194.5C49.96 167.76 35.55 160 35 160C34.43 160 34 163 34 167ZM60.36 200.43L54.5 203.71L66 210C77.21 203.85 77.4 203.62 75.5 202.27C74.4 201.48 71.86 200.01 69.86 198.99L66.22 197.14M420.09 200.1C417.11 201.79 414.75 203.35 414.84 203.58C414.93 203.81 417.48 205.35 420.5 207L426 210C434.52 205.35 437 203.78 437 203.5C437 203.22 434.64 201.66 431.75 200.03C428.86 198.4 426.27 197.06 426 197.05C425.73 197.05 423.07 198.42 420.09 200.1ZM452.46 199.79C450.28 201.21 439.73 207.31 429 213.36C418.27 219.4 406.13 226.22 402 228.52L394.5 232.7C394.1 244.12 394.4 247 395 247C395.55 247 402.64 243.33 410.75 238.84C418.86 234.36 432.7 226.75 441.5 221.93L457.5 213.17C457.91 201.8 457.67 198.21 457.22 197.86C456.78 197.5 454.63 198.37 452.46 199.79ZM33.99 205.25C33.98 212.11 34.13 212.59 36.74 214.15C38.26 215.07 41.98 217.12 45 218.71C48.03 220.31 54.78 224.03 60 226.98C65.22 229.94 72.65 234.13 76.5 236.31C80.35 238.49 86.65 242.02 90.5 244.16C94.35 246.3 97.61 248.04 97.75 248.03C97.89 248.01 98 244.51 98.01 240.25L98.01 232.5C90.7 228.63 77.31 221.27 63.54 213.65C49.77 206.03 38.05 199.38 37.5 198.88C36.95 198.38 35.94 197.97 35.25 197.98C34.37 198 34 200.13 33.99 205.25ZM454 237.15C452.07 238.34 446.68 241.41 442 243.99C437.32 246.57 428.77 251.38 423 254.68C417.23 257.98 408.9 262.61 404.5 264.98C400.1 267.34 395.92 269.78 395.21 270.39C394.39 271.09 393.92 273.9 393.93 278C393.94 281.57 394.18 284.84 394.47 285.25C394.76 285.66 397.81 284.36 401.25 282.35C404.69 280.34 411.32 276.58 416 273.99C420.68 271.4 430.35 265.98 437.5 261.94C444.65 257.9 452.19 253.78 454.25 252.8L458 251C458 238.6 457.89 235 457.75 235C457.61 235.01 455.93 235.97 454 237.15ZM34.01 243.25L34.02 250.5C41.37 254.46 50.92 259.82 60 264.98C69.08 270.14 77.85 275 79.5 275.79C82.16 277.07 82.9 277.05 86 275.59C87.92 274.68 90.85 272.91 92.5 271.64L95.5 269.34C72.25 256.46 61.45 250.47 56.5 247.71C51.55 244.95 44.91 241.19 41.75 239.35C38.59 237.51 35.55 236 35 236C34.42 236 34 239.08 34.01 243.25ZM59.5 238.88L54.5 241.72C65.87 247.93 66.07 247.96 69.25 246.35C71.04 245.45 73.54 243.98 74.81 243.1L77.12 241.5C69.67 237.26 66.83 236.03 66 236.03C65.17 236.03 62.25 237.31 59.5 238.88ZM419.25 239.02L415 242L426 248C434.52 243.35 437 241.77 437 241.5C437 241.23 434.98 239.88 432.5 238.5C430.02 237.13 426.99 236.01 425.75 236.02C424.51 236.03 421.59 237.38 419.25 239.02ZM34 281.5L34 289C44.46 294.38 48.63 296.6 50 297.41C51.38 298.22 55.87 300.82 59.99 303.19C64.11 305.56 68.68 308.18 70.15 309C71.62 309.82 75.45 311.92 78.66 313.65C81.87 315.39 87.2 318.41 90.5 320.38C93.8 322.34 96.84 323.73 97.25 323.47C97.66 323.21 97.98 319.74 97.96 315.75L97.93 308.5C49.16 281.76 34.77 274 34.5 274C34.23 274 34 277.38 34 281.5ZM59.7 276.77C55.92 278.92 55.17 279.74 56.2 280.63C56.91 281.25 59.53 282.74 62 283.95L66.5 286.14C74.63 281.77 77 280.16 77 279.75C77 279.34 74.75 277.88 72 276.5C69.25 275.13 66.44 274.01 65.75 274.02C65.06 274.03 62.34 275.26 59.7 276.77ZM419.75 276.55C417.14 277.9 415.18 279.34 415.39 279.75C415.6 280.16 418.08 281.63 420.89 283L426 285.5C433.92 281.63 436.4 280.16 436.61 279.75C436.82 279.34 434.75 277.88 432 276.5C429.25 275.13 426.44 274.02 425.75 274.05C425.06 274.07 422.36 275.2 419.75 276.55ZM431.82 287.5C426.7 290.43 416.31 296.41 408.75 300.78L395 308.74C394.19 320.29 394.38 323 395 323C395.55 323 402.19 319.56 409.75 315.36C417.31 311.15 426.43 306.05 430 304.01C433.57 301.98 440.32 298.17 445 295.54C449.68 292.92 453.85 290.48 454.27 290.13C454.69 289.79 452.67 288.15 449.77 286.5C446.88 284.85 443.75 283.2 442.83 282.83C441.75 282.41 437.83 284.07 431.82 287.5ZM421 313.66C418.52 314.98 416.13 316.39 415.68 316.78C415.23 317.18 417.37 318.96 420.43 320.75L426 324C433.75 320.13 436.23 318.55 436.5 318C436.77 317.45 434.52 315.65 431.5 314C428.48 312.35 425.89 311.06 425.75 311.13C425.61 311.21 423.48 312.35 421 313.66ZM60 314.9L54.5 317.71C58.38 320.14 61.08 321.6 63 322.53C66.41 324.16 66.64 324.14 71.75 321.6C74.64 320.17 77 318.55 77 318C77 317.45 74.75 315.88 72 314.5C69.25 313.13 66.66 312.02 66.25 312.05C65.84 312.07 63.03 313.36 60 314.9ZM435.5 323.34C432.2 325.14 425.68 328.87 421 331.62C416.32 334.36 408.79 338.72 404.25 341.31C399.71 343.89 395.55 346 395 346C394.42 346 394 349.33 394 354C394 361.97 394.01 362 396.25 360.85C397.49 360.22 401.88 357.82 406 355.5C410.13 353.19 415.52 350.18 418 348.81C420.48 347.44 430.05 342.09 439.28 336.91C450.32 330.72 455.63 327.23 454.78 326.71C454.08 326.27 450.91 324.59 447.75 322.96C444.59 321.33 441.89 320.01 441.75 320.02C441.61 320.04 438.8 321.53 435.5 323.34ZM46 322.62C44.08 323.47 41.15 325.09 39.5 326.22L36.5 328.27C44.25 332.43 50.78 336.05 56 338.99C61.22 341.93 71.13 347.47 78 351.29C84.88 355.12 92.08 359.3 94 360.58C95.92 361.86 97.84 362.71 98.25 362.46C98.66 362.21 98.99 358.96 98.98 355.25C98.98 351.54 98.64 348.05 98.23 347.5C97.83 346.95 96.6 346.02 95.5 345.43C94.4 344.84 92.15 343.62 90.5 342.73C88.85 341.84 79.29 336.59 69.25 331.06C59.21 325.53 50.66 321.02 50.25 321.04C49.84 321.06 47.92 321.77 46 322.62ZM455.45 349.94C454.93 350.46 447.52 354.8 439 359.58C430.48 364.36 418.77 370.89 413 374.1C407.23 377.3 400.59 381.07 398.25 382.46L394 385C393.96 395.46 394.18 398.84 394.47 399.25C394.76 399.66 396.69 398.86 398.75 397.47C400.81 396.08 402.84 394.95 403.25 394.97C403.66 394.99 405.91 393.8 408.25 392.33C410.59 390.86 414.98 388.36 418 386.78C421.02 385.19 426.2 382.3 429.5 380.35C432.8 378.4 439.77 374.53 445 371.75C450.23 368.97 455.29 366.2 456.25 365.6C457.68 364.7 458.01 363.05 458 356.75C458 352.49 457.64 349 457.2 349C456.76 349 455.97 349.42 455.45 349.94ZM420.84 351.86C418.28 353.31 415.92 354.84 415.59 355.25C415.27 355.66 417.48 357.35 420.5 359L426 362C433.73 357.74 435.96 356.03 435.94 355.45C435.93 354.87 433.8 353.31 431.21 351.97C428.62 350.64 426.27 349.47 426 349.39C425.73 349.3 423.4 350.41 420.84 351.86ZM34 357.25L33.99 364.5C40.97 368.76 43.23 370 43.5 370C43.77 370 55.59 376.59 69.75 384.65C83.91 392.7 96.06 399.45 96.75 399.65C97.67 399.91 98 398.02 98 392.5C98 385.09 97.96 384.98 94.75 383.1C92.96 382.05 88.58 379.63 85 377.72C81.42 375.81 75.13 372.33 71 370C66.88 367.67 57.7 362.55 50.61 358.63C43.53 354.71 37.56 351.16 37.36 350.75C37.16 350.34 36.33 350 35.5 350C34.3 350 34 351.47 34 357.25ZM60.75 352.87C58.14 354.32 56 355.84 56 356.25C56 356.66 57.91 358.12 60.25 359.48C62.59 360.84 65.29 361.97 66.25 361.98C67.21 361.99 70.03 360.88 72.5 359.5C74.97 358.13 76.99 356.66 76.99 356.25C76.98 355.84 74.73 354.26 71.99 352.75C69.24 351.24 66.66 350.05 66.25 350.12C65.84 350.18 63.36 351.42 60.75 352.87ZM420.25 390.01C417.36 391.65 415.19 393.34 415.41 393.75C415.64 394.16 418.23 395.8 421.16 397.38L426.5 400.27L437.5 393.76C428.59 388.52 425.89 387 425.75 387.01C425.61 387.01 423.14 388.36 420.25 390.01ZM35.27 395.63L35.07 403.5C63.99 419.77 76.24 426.68 80.95 429.34C85.65 432.01 91.41 435.27 93.75 436.59L98 439L96.6 422.89C85.67 416.69 77.1 411.82 70.5 408.08C63.9 404.34 53.78 398.69 48 395.53C42.22 392.36 37.04 389.32 36.48 388.77C35.79 388.08 35.4 390.29 35.27 395.63ZM60.76 390.81C58.16 392.29 56.02 393.84 56.01 394.25C56.01 394.66 58.36 396.33 61.25 397.96L66.5 400.92C74.25 396.4 76.61 394.73 76.75 394.3C76.89 393.86 74.75 392.26 72 390.75C69.25 389.24 66.66 388.03 66.25 388.06C65.84 388.09 63.37 389.33 60.76 390.81ZM453.5 389.37C452.4 390.13 447.11 393.29 441.75 396.38C436.39 399.47 431.77 402 431.5 402C431.23 402 427.74 403.96 423.75 406.35C419.76 408.74 411.42 413.58 405.22 417.1L393.94 423.5C393.99 434.74 394.11 438.01 394.25 438.03C394.39 438.05 403.95 432.82 415.5 426.41C427.05 420 441.34 412.11 447.25 408.88L458 403C458 390.17 457.64 388 456.75 387.99C456.06 387.99 454.6 388.61 453.5 389.37ZM34 433.5L34 441C42.91 446.04 45.95 447.69 46.5 447.91C47.05 448.14 52.67 451.26 59 454.84C65.33 458.42 73.2 462.82 76.5 464.63L82.5 467.91C91.64 462.94 94.44 461.05 94.61 460.5C94.79 459.95 90.11 456.84 84.21 453.58C78.32 450.32 67.88 444.52 61 440.68C54.13 436.84 45.46 431.96 41.75 429.85C38.04 427.73 34.77 426 34.5 426C34.23 426 34 429.38 34 433.5ZM60.28 429.34L55.06 432.5L66.5 438.83C73.47 434.83 75.95 433.33 76.5 432.91C77.07 432.48 75.11 430.82 72 429.09C68.97 427.4 66.28 426.05 66 426.1C65.72 426.14 63.15 427.6 60.28 429.34ZM438 436.49C427.82 442.24 414.45 449.77 408.28 453.22C402.1 456.68 397.04 459.73 397.02 460C397 460.27 399.58 461.95 402.74 463.72C405.91 465.49 409.06 466.95 409.75 466.97C410.44 466.99 421.59 461.04 434.54 453.75L458.08 440.5C458.02 429.26 457.66 426.01 457.25 426.01C456.84 426.02 448.18 430.73 438 436.49ZM419.71 428.8L414.91 431.5C418.47 433.98 420.96 435.45 422.75 436.35C425.84 437.92 426.21 437.9 430.25 435.88C432.59 434.71 435.09 433.25 435.8 432.63C436.83 431.74 436.08 430.92 432.3 428.77C429.66 427.26 426.82 426.05 426 426.07C425.18 426.09 422.34 427.32 419.71 428.8ZM34.32 464.76C33.96 465.08 33.74 468.63 33.83 472.67C33.92 476.7 34.34 479.99 34.75 479.99C35.16 479.98 43.83 484.64 54 490.33C64.17 496.03 74.64 501.89 77.25 503.35L82 506C92.08 500.58 95.01 498.66 95.02 498.25C95.03 497.84 93.11 496.5 90.77 495.28C88.42 494.07 84.03 491.66 81 489.94C77.97 488.22 71.45 484.54 66.5 481.76C61.55 478.98 55.25 475.47 52.5 473.97C49.75 472.47 44.68 469.65 41.23 467.71C37.78 465.77 34.67 464.45 34.32 464.76ZM60.45 467.13C57.25 468.72 54.71 470.25 54.81 470.52C54.92 470.78 57.59 472.3 60.75 473.89L66.5 476.78C77.18 471.47 78.17 470.61 77 469.87C76.17 469.35 73.43 467.86 70.89 466.57L66.28 464.22M419.75 466.78C417.14 468.28 415 469.73 414.99 470C414.98 470.27 417.4 471.85 420.36 473.5L425.74 476.5C434.46 471.85 437 470.27 437 470C437 469.73 434.75 468.26 432 466.75C429.25 465.24 426.44 464.01 425.75 464.03C425.06 464.04 422.36 465.28 419.75 466.78ZM453.5 465.64C451.85 466.51 448.93 468.22 447 469.46C445.07 470.69 438.77 474.33 433 477.54C427.23 480.74 416.65 486.66 409.5 490.69C402.35 494.71 395.95 498.37 395.28 498.82C394.5 499.33 394.07 502.15 394.11 506.56C394.14 510.38 394.34 513.73 394.55 514C394.77 514.27 399.57 511.84 405.22 508.59C410.88 505.34 420.9 499.62 427.5 495.87C434.1 492.12 439.84 489.05 440.25 489.03C440.66 489.01 443.36 487.53 446.25 485.73C449.14 483.93 452.74 481.9 454.25 481.23C456.92 480.04 457 479.76 457 472C457 467.6 456.89 464.02 456.75 464.04C456.61 464.06 455.15 464.78 453.5 465.64ZM61.12 505.03C58.15 506.69 55.79 508.26 55.87 508.52C55.94 508.78 57.91 510.12 60.25 511.48C62.59 512.84 65.29 513.97 66.25 513.98C67.21 513.99 70.03 512.88 72.5 511.5C74.97 510.13 77 508.77 77 508.5C77 508.23 74.75 506.65 72 505C69.25 503.35 66.89 502 66.75 502.01C66.61 502.01 64.08 503.37 61.12 505.03ZM420.04 504.77C417.04 506.22 414.68 507.77 414.79 508.21C414.91 508.64 417.25 510.13 420 511.5C422.75 512.88 425.56 513.99 426.25 513.98C426.94 513.97 429.75 512.67 432.5 511.08L437.5 508.2C428.98 503.41 426.27 502.04 426 502.07C425.73 502.1 423.04 503.31 420.04 504.77ZM35 510.5C35 514.63 35.34 517.99 35.75 517.99C36.16 517.98 43.7 522.08 52.5 527.09C61.3 532.11 68.95 536.56 69.5 536.98C70.05 537.41 75 540.15 80.5 543.08C86 546.01 91.96 549.44 93.75 550.7C95.54 551.97 97.45 552.77 98 552.5C98.55 552.23 99 548.85 99 545L99 538C92.41 533.86 87.8 531.21 84.5 529.44C81.2 527.67 75.35 524.53 71.5 522.46C67.65 520.38 63.26 517.86 61.75 516.84C60.24 515.83 58.78 515 58.5 515C58.22 515 53.16 512.3 47.25 509.01C41.34 505.71 36.16 503.01 35.75 503.01C35.34 503 35 506.38 35 510.5ZM437 513.34C434.52 514.58 428.23 518.07 423 521.11C417.77 524.15 408.92 529.24 403.33 532.42L393.17 538.21C392.99 548.51 393.29 551.83 393.72 552.24C394.15 552.65 394.95 552.59 395.5 552.11C396.05 551.64 401.23 548.65 407 545.49C412.77 542.32 419.3 538.83 421.5 537.74C423.7 536.64 426.63 534.97 428 534.02C429.38 533.08 432.98 530.95 436 529.3C439.02 527.64 444.54 524.65 448.25 522.64C451.96 520.64 455 518.77 455 518.5C455 518.23 452.19 516.44 448.75 514.52C445.31 512.61 442.27 511.06 442 511.08C441.73 511.09 439.48 512.11 437 513.34ZM34.21 547.61L34.5 555.22C46.13 561.46 53.78 565.76 59 568.79C64.22 571.82 69.85 574.99 71.5 575.82C73.15 576.66 78.78 579.8 84 582.8C89.22 585.81 94.51 588.88 95.75 589.63L98 591L98 575C90.25 570.35 87.66 568.99 87.25 568.98C86.84 568.96 79.53 564.97 71 560.1C62.47 555.24 50.89 548.73 45.25 545.63C39.61 542.53 34.76 540 34.46 540C34.16 540 34.05 543.43 34.21 547.61ZM60.75 542.87C58.14 544.32 56.12 545.89 56.25 546.37C56.39 546.84 58.86 548.53 61.75 550.12L67 553C74.75 548.35 76.99 546.66 76.99 546.25C76.98 545.84 74.73 544.26 71.99 542.75C69.24 541.24 66.66 540.05 66.25 540.12C65.84 540.18 63.36 541.42 60.75 542.87ZM453.5 541.88C451.85 542.89 441.73 548.67 431 554.7C420.27 560.74 408.35 567.4 404.5 569.49C400.65 571.59 396.71 573.8 395.75 574.4C394.34 575.28 393.99 576.92 394 582.75C394 588.11 394.33 589.93 395.28 589.75C395.99 589.61 405.32 584.58 416.03 578.56C426.74 572.55 440.45 564.84 446.5 561.43L457.5 555.24C457.92 543.43 457.7 540.01 457.27 540.02C456.85 540.03 455.15 540.86 453.5 541.88ZM420.75 542.55C418.14 543.9 415.77 545.45 415.5 546C415.23 546.55 417.48 548.35 420.5 550L426 553C433.75 548.35 435.98 546.64 435.96 546.2C435.93 545.76 433.8 544.31 431.21 542.97C428.62 541.64 426.27 540.45 426 540.32C425.73 540.2 423.36 541.2 420.75 542.55ZM60.75 581.07C58.14 582.68 56.16 584.34 56.36 584.75C56.55 585.16 58.91 586.74 61.61 588.25L66.5 591C74.64 586.35 77 584.77 77 584.5C77 584.23 74.86 582.64 72.25 580.99C69.64 579.33 67.05 578.01 66.5 578.06C65.95 578.1 63.36 579.46 60.75 581.07ZM453 580.3C451.07 581.59 442.07 586.83 433 591.94C423.93 597.06 413.13 603.18 409 605.54C404.88 607.91 399.8 610.67 397.73 611.67L393.96 613.5L394 629C404.46 623.34 408.85 620.91 410.5 619.95C412.15 618.98 415.3 617.2 417.5 615.98C419.7 614.75 427.35 610.52 434.5 606.58C441.65 602.63 449.22 598.52 451.32 597.45C453.43 596.38 455.56 595.05 456.07 594.5C456.58 593.95 456.88 590.01 456.75 585.73L456.5 577.97M420.33 580.81C418.04 582.29 415.9 583.84 415.58 584.25C415.26 584.66 417.48 586.35 420.5 588L426 591C433.73 586.74 435.97 585.05 435.97 584.5C435.97 583.95 433.73 582.26 430.99 580.75C428.24 579.24 425.66 578.03 425.25 578.06C424.84 578.1 422.62 579.34 420.33 580.81ZM34.98 586.25L34.97 593.5C55.53 605.03 67.8 611.94 75.5 616.3C83.2 620.66 91.41 625.3 93.75 626.61L98 629L98.08 613.5C88.33 608.2 81 604.1 75.5 600.98C70 597.85 63.03 593.94 60 592.3C56.97 590.65 50.34 586.99 45.25 584.15C40.16 581.32 35.77 579 35.5 579C35.23 579 34.99 582.26 34.98 586.25ZM34.21 623.67L34.5 631.35C40.7 634.67 48.35 638.92 55.5 642.94C62.65 646.95 68.95 650.59 69.5 651.03C70.05 651.47 76.13 655.02 83 658.92C89.88 662.82 96.06 666 96.75 666C97.66 666 97.93 663.95 97.75 658.43C97.52 651.52 97.28 650.75 95 649.49C93.63 648.73 80.13 641.29 65 632.95C49.88 624.61 37.05 617.37 36.5 616.87C35.95 616.38 35.14 615.97 34.71 615.98C34.27 615.99 34.05 619.45 34.21 623.67ZM60.94 619.16C55.74 622.11 55.59 622.31 57.5 623.7C58.6 624.5 61.08 625.99 63 627L66.5 628.84C74.74 623.93 76.76 622.22 76.31 621.88C75.87 621.54 73.45 620.1 70.94 618.67L66.38 616.07M420.12 619.03C417.15 620.69 414.79 622.26 414.87 622.52C414.94 622.78 417.36 624.34 420.25 625.98L425.5 628.96C433.62 624.73 435.83 623.05 435.65 622.5C435.47 621.95 433.43 620.26 431.11 618.75C428.79 617.24 426.58 616 426.2 616.01C425.81 616.01 423.08 617.37 420.12 619.03ZM452 618.86C449.52 620.43 436.7 627.82 423.5 635.28C410.3 642.75 398.25 649.46 396.72 650.18C394.05 651.45 393.94 651.79 393.97 658.75C393.99 663.87 394.37 666 395.25 666C395.94 666.01 402.35 662.65 409.5 658.56C416.65 654.46 430.48 646.69 440.24 641.3L457.98 631.5C457.99 619.49 457.66 616.01 457.25 616.01C456.84 616.02 454.48 617.3 452 618.86ZM149.15 683.75C148.65 684.71 141.1 699.82 132.37 717.32C123.64 734.81 116.95 749.34 117.5 749.6C118.05 749.86 121.29 749.94 124.71 749.78L130.92 749.5C156.56 697.96 163.66 682.76 163.25 682.47C162.84 682.18 159.7 681.96 156.28 681.97C151.38 681.99 149.86 682.37 149.15 683.75ZM185.23 683.25C184.68 683.94 182.77 687.65 180.99 691.5C179.2 695.35 173.81 706.38 169 716L160.26 733.5L167.33 748.5C191.27 700.45 198.62 685.49 199.11 684.25C199.98 682.05 199.85 682 193.11 682C188.8 682 185.85 682.47 185.23 683.25ZM75.72 687.25C74.39 689.59 68.1 701.85 61.75 714.5C55.41 727.15 49.03 739.75 47.58 742.5C46.14 745.25 44.96 748.06 44.98 748.75C44.99 749.63 47.08 750 52 750L59 750C79.33 708.54 86.76 693.46 88.62 689.75L92 683L78.16 683M100.81 708.25L88.24 733.5C93.77 744.73 95.47 747.1 95.99 746.5C96.46 745.95 103.73 731.77 112.15 715C120.57 698.23 127.58 684.16 127.73 683.75C127.88 683.34 124.71 683 120.69 683L113.39 683M204.36 715.98C195.14 734.11 187.69 749.19 187.8 749.48C187.91 749.76 191.26 749.99 195.25 749.98L202.5 749.96C227.3 699.45 234.61 684.39 234.75 683.89C234.89 683.4 231.88 683 228.06 683L221.12 683M240.91 715.65C231.88 733.61 224.39 748.69 224.25 749.15C224.11 749.62 227.38 750 231.5 750C238.35 750 239.08 749.81 239.88 747.75C240.37 746.51 247.57 731.77 255.9 715C264.22 698.23 271.02 684.16 271.02 683.75C271.01 683.34 267.92 683 264.16 683L257.31 683M276.49 715.99C267.41 734.14 259.99 749.44 259.99 749.99C260 750.57 262.91 751.01 266.75 751.03L273.5 751.06C299.46 699.09 307 683.77 307 683.5C307 683.23 303.85 683 300 683L293 683M312.89 715.98C303.87 734.12 296.73 749.21 297 749.51C297.27 749.81 300.43 750.05 304 750.04L310.5 750.03L343.5 683L329.28 683M364.67 683.75C364.43 684.16 356.87 699.25 347.87 717.27C338.87 735.29 331.73 750.27 332 750.55C332.27 750.83 335.43 751.06 339 751.06L345.5 751.06C371.46 699.09 379 683.77 379 683.5C379 683.23 375.87 683 372.05 683C368.23 683 364.9 683.34 364.67 683.75ZM384.21 715.5C375.29 733.38 368 748.45 368 749C368 749.56 370.94 750.01 374.75 750.03L381.5 750.06C406.69 699.64 414 684.55 414 684C414 683.43 411.07 683 407.21 683L400.41 683M419.19 716.79C410.22 734.78 402.91 749.84 402.94 750.25C402.97 750.66 406.22 750.89 410.15 750.75C415.27 750.57 417.52 750.08 418.11 749C418.55 748.17 425.92 733.33 434.48 716C443.04 698.67 450.03 684.39 450.02 684.25C450.01 684.11 446.74 684.02 442.75 684.04L435.5 684.09M118.62 710.75L115.84 716.5C120.23 725.43 121.72 728.03 122 728.03C122.28 728.03 123.74 725.55 125.25 722.51L128 717C123.74 707.64 122.25 704.94 121.96 704.96C121.66 704.98 120.16 707.59 118.62 710.75ZM154.58 710.75L151.82 716.5C156.22 725.45 157.72 728.04 158 728.04C158.28 728.03 159.78 725.43 161.34 722.26L164.18 716.5C159.78 707.55 158.24 704.97 157.92 704.98C157.6 704.99 156.09 707.59 154.58 710.75ZM190.54 710.75L187.79 716.5L193.75 728.5L199.8 716.5C196.09 707.59 194.63 705 194.15 705C193.68 705 192.06 707.59 190.54 710.75ZM226.55 710.75L223.76 716.5C226.58 722.7 227.87 725.31 228.45 726.29C229.38 727.87 229.82 727.55 232.25 723.54C233.76 721.04 235 718.1 235 717C235 715.9 233.88 712.75 232.5 710C231.13 707.25 229.85 705 229.67 705C229.48 705 228.08 707.59 226.55 710.75ZM298.68 709.84C297.15 712.64 295.93 715.62 295.95 716.47C295.98 717.31 297.13 720.25 298.5 723C300.28 726.56 301.36 727.75 302.25 727.12C302.94 726.64 304.33 724.05 305.35 721.37C306.94 717.18 307.02 716.08 305.9 713.5C305.19 711.85 303.89 709.2 303.02 707.62L301.45 704.74M405.4 710.99L402.5 716.97C406.38 724.91 407.84 727.4 408.25 727.61C408.66 727.82 410.13 725.75 411.5 723C412.88 720.25 413.99 717.44 413.98 716.75C413.97 716.06 412.89 713.14 411.59 710.25C410.28 707.36 409.01 705 408.75 705C408.5 705 406.99 707.69 405.4 710.99ZM82.51 711.25L79.91 716.5C83.85 725.41 85.34 728.01 85.75 728.01C86.16 728.02 87.76 725.43 89.3 722.26L92.11 716.5C88.15 708.36 86.58 706 86.06 706C85.54 706 83.94 708.36 82.51 711.25ZM262.51 711C260.4 715.2 260.16 716.52 261 719.25C261.56 721.04 262.87 723.85 263.92 725.5L265.83 728.5C269.84 720.36 271 717.33 271 716.5C271 715.67 269.99 712.97 268.75 710.48C267.51 708 266.17 705.97 265.76 705.98C265.36 705.99 263.9 708.25 262.51 711ZM334.32 711.45L331.5 717C335.76 725.52 337.34 727.82 337.75 727.61C338.16 727.4 339.63 724.92 341 722.11L343.5 717C339.63 709.08 338.19 706.58 337.82 706.34C337.44 706.1 335.87 708.4 334.32 711.45ZM369.67 711.5L367 717C371.26 725.55 372.73 728.03 373 728.03C373.27 728.03 374.74 725.55 376.25 722.51L379 717C374.74 708.45 373.24 705.98 372.92 705.99C372.6 705.99 371.13 708.48 369.67 711.5ZM135.98 747.79L132.5 754.5C115.62 754.91 112.07 754.6 111.14 753.74C110.39 753.06 108.7 750.14 107.39 747.25C106.08 744.36 104.66 741.99 104.25 741.97C103.84 741.95 102.6 743.84 101.5 746.16C100.4 748.49 98.76 751.43 97.85 752.69C96.3 754.85 95.53 755 85.6 755L75 755C69.96 744.91 68.28 741.98 68 741.99C67.72 742 66.13 744.59 64.46 747.75L61.43 753.5C46.37 753.89 41.99 754.34 41.97 754.75C41.96 755.16 42.97 756.5 44.22 757.73L46.5 759.96C446.11 760.07 446.51 760.07 449.25 758.03C450.76 756.92 451.77 755.55 451.5 755C451.22 754.45 447.07 753.99 442.25 753.99L433.5 753.98C427.5 742.77 426.59 741.77 425.66 742.83C425.02 743.56 423.32 746.48 421.89 749.33L419.28 754.5L397.64 754.5C392.88 744.86 391.14 742.16 390.69 742.28C390.25 742.4 388.45 745.2 386.69 748.5L383.5 754.5L362.5 754.5C357.55 745.2 355.75 742.39 355.31 742.26C354.86 742.13 353.1 744.83 351.39 748.26L348.28 754.5L326.86 754.5C321.71 745.2 319.9 742.5 319.51 742.5C319.11 742.5 317.49 745.09 315.9 748.25L313 754L290.5 754.06C285.85 745.23 284.05 742.63 283.5 742.58C282.95 742.54 281.04 745.31 279.25 748.75L276 755C260.89 754.98 256 754.64 255.38 754.23C254.76 753.83 252.85 750.69 251.13 747.25C249.41 743.81 247.81 741.11 247.58 741.25C247.34 741.39 245.77 744.31 244.08 747.75L241 754L219 754L211.75 740.5C208.89 745.15 207.26 748.21 206.28 750.31L204.5 754.11L182.75 753.5C178.62 745.75 177.03 742.83 176.55 742C175.89 740.87 174.86 742.16 172.34 747.25L169 754L146.57 753.5C142.64 745.5 141.04 742.7 140.48 742.12C139.78 741.4 138.37 743.18 135.98 747.79ZM-2.88 778.75L-3 788C10.98 788 12.88 787.68 12.54 786.75C12.28 786.06 11.38 785.16 10.54 784.75C9.69 784.34 8.44 784.33 7.75 784.74C6.92 785.23 6.75 785.06 7.25 784.24C7.66 783.56 7.55 783 7 783C6.45 783 4.76 781.21 3.25 779.03C1.74 776.85 0.13 775.38 -0.32 775.78C-0.77 776.18 -0.89 775.71 -0.57 774.75C-0.26 773.79 -0.45 773 -1 773C-1.55 773 -2.17 772.21 -2.38 771.25C-2.6 770.29 -2.82 773.66 -2.88 778.75ZM494.09 775.5C492.77 778.25 491.8 780.95 491.93 781.5C492.06 782.05 491.79 782.18 491.33 781.79C490.88 781.39 488.48 782.52 486 784.29L481.5 787.5C493.13 787.89 496.61 787.89 496.75 787.75C496.89 787.61 496.89 783.67 496.75 779L496.5 770.5" />
	</g>
</svg>