<svg version="1" xmlns="http://www.w3.org/2000/svg" width="500" height="792" viewBox="0 0 5000 7920"><path d="M0 3960V0h5000v7920H0V3960z"/><g fill="#fff"><path d="M0 3960V0h5000v7920H0V3960zm4539 3543c73-55 83-100 79-383-3-179-5-198-25-237-38-69-104-105-167-89-37 9-87 56-107 101-16 35-19 69-19 273 0 209 2 237 19 270 34 68 80 94 150 88 24-2 55-13 70-23zm-4227 7c30 0 94-69 107-115 6-24 11-129 11-256v-217l-27-52c-71-134-234-114-278 34-11 37-15 103-15 260 0 230 7 263 63 315 26 24 81 42 105 35 8-2 23-4 34-4zm4497-1c24-9 31-16 29-33-2-16-11-22-36-24l-33-3 1-297v-324c0-32-28-38-54-12-14 13-16 60-16 360v344h39c21 0 52-5 70-11zm-4196-10c30-8 37-15 37-34 0-21-5-25-30-25h-30v-651l-32 3-33 3-3 358-2 357h27c16 0 45-5 66-11zm2979-741c64-27 113-84 134-154 32-111-10-210-118-279-15-9-25-21-22-26s23 4 46 19c58 38 163 44 231 12 60-28 113-90 132-154 19-62 19-90 1-150-39-129-173-207-294-171-58 17-143 88-162 135-20 48-29 22-19-54 9-71 27-136 60-214 10-23 19-45 19-47 0-3-56-6-125-8-108-2-124 0-119 13 46 108 74 221 73 293 0 37-2 40-12 22-7-11-34-43-62-71-63-66-131-85-222-64-74 16-152 90-172 163-31 110 11 225 103 282 42 25 62 31 126 33 67 4 83 1 128-22 65-33 67-19 3 27-91 66-127 194-82 292 20 44 87 110 129 126 78 30 146 29 224-3zm-1990-11c125-74 167-208 102-328-25-46-81-99-117-112-7-2-9-8-4-12 4-5 20 1 35 12s51 26 80 33c246 58 412-248 233-428-117-117-299-87-387 64-14 24-27 44-29 44s-1-26 2-57c6-73 37-193 63-243 11-22 20-44 20-49 0-6-52-11-125-13-69-2-125-2-125-1s9 23 21 50c11 26 27 72 35 102 15 58 30 201 21 201-3 0-17-20-32-45-118-202-421-131-442 104-10 103 41 196 131 244 58 31 173 30 234-2 24-12 46-21 48-18 2 2-21 25-52 52-31 26-65 67-75 89-36 80-16 200 44 264 22 24 82 58 127 73 47 16 146 3 192-24zm3000-84c24-24 32-42 36-82 4-49 3-52-37-92-22-23-33-38-23-34 77 32 120 26 168-22 30-29 34-40 34-84 0-58-20-99-60-123-54-31-139-14-174 36-9 12-18 19-21 16-8-7 14-95 31-130 8-15 14-29 14-33 0-3-29-5-65-5s-65 4-65 9 7 28 15 51 15 59 15 78c0 36 0 36-16 14-36-52-115-67-171-32-117 71-56 252 81 238 22-3 49-8 59-12 9-5 2 7-17 26-42 42-53 91-32 141 22 55 68 79 139 74 49-3 63-8 89-34zm-4115 7c51-30 66-62 61-122-4-42-11-57-37-80-36-32-41-46-9-24 12 9 41 16 64 16 114 0 172-131 98-220-52-61-140-58-199 6l-25 27v-27c0-14 9-52 20-83 11-32 20-59 20-60 0-2-29-3-64-3h-64l19 61c10 33 19 73 19 87-1 27-1 27-18 7-31-37-66-55-105-55-136 0-182 161-67 238 35 24 85 26 133 7 9-4 1 9-18 28-31 31-35 41-35 85 0 35 6 57 22 77 42 54 127 71 185 35zm2100-647c51-21 104-74 129-128 41-87 27-176-39-251-22-25-52-51-68-60-17-8-27-19-25-23 3-5 31 5 62 20 94 48 198 37 274-29 52-44 81-101 87-174 16-168-147-311-306-268-50 13-132 85-161 140l-19 35-1-51c0-56 39-202 70-264 11-22 20-41 20-42 0-2-58-3-129-3l-130-1 16 36c42 97 68 216 61 280l-3 35-22-42c-43-79-120-123-217-123-83 0-166 53-209 134-30 57-30 165 0 221 27 51 78 100 125 119 60 25 159 21 218-9 56-28 69-15 16 16-65 38-116 126-116 200 0 182 194 305 367 232zm1019-796c60-30 86-58 113-117 47-104 13-230-80-297-66-47-62-58 7-21 206 112 426-87 348-314-45-133-221-203-338-134-46 27-116 101-116 122 0 7-5 16-12 20-31 20 21-226 67-316 8-16 15-30 15-32s-58-3-128-3h-128l27 65c33 82 49 155 49 227v55l-32-48c-56-82-138-122-232-110-205 24-284 287-129 427 73 66 183 82 277 41 27-12 51-22 55-22 3 0-18 21-47 46-95 83-124 184-82 282 28 64 95 127 159 147 63 20 146 13 207-18zm-2011-1c55-25 110-81 131-132 21-50 18-140-7-190-19-41-75-100-115-122-10-6-16-13-13-16 3-4 28 6 55 21 64 37 167 39 229 6 157-83 183-305 50-421-71-63-170-80-251-43-47 21-108 81-135 131l-18 35v-40c-1-54 32-189 64-260 14-32 24-59 23-61-7-7-248-8-248-1 0 4 7 24 16 45 32 74 44 129 50 217l6 90-22-40c-31-56-43-68-102-100-122-67-280-9-334 121-20 48-17 151 5 199 21 46 69 98 115 123 49 27 180 24 230-6 42-25 66-20 26 6-75 48-130 140-130 218 0 40 24 108 50 141s87 77 125 91c55 19 145 14 200-12zm2005-1546c-33-65-61-184-58-246l3-57 32 50c45 69 111 104 196 104 73 0 120-17 165-62 64-63 91-149 72-228-37-153-180-233-325-182-33 12-69 24-80 27-21 6-14-2 58-56 15-12 39-42 54-68 36-60 38-156 6-218-58-109-190-165-307-130-65 20-107 51-146 107-72 106-43 241 69 324 61 45 55 57-12 21-106-56-208-39-293 48-128 132-84 338 89 411 105 44 232-6 298-118l31-52-5 71c-6 82-29 169-63 236-13 26-24 50-24 52 0 6 240 13 252 8 5-2-1-21-12-42zm-1984 25c-53-117-80-226-74-301l3-39 27 46c96 163 330 155 421-16 30-56 30-164 0-221-28-52-90-108-138-124-53-18-160-8-212 19-58 29-54 11 6-32 151-109 127-334-43-413-95-44-220-26-290 42-121 117-102 297 42 386 53 32 27 38-34 7-127-64-269-17-331 108-52 108-31 228 54 303 128 113 300 75 386-85l16-30 1 55c0 69-22 155-59 237-16 34-28 63-26 65 9 9 255 2 251-7zm973-849c-29-76-53-202-47-249 3-28 4-28 38 25 115 175 382 129 430-74 29-118-22-226-134-285-49-26-160-23-219 6-46 22-82 20-43-3 85-50 136-131 136-217 0-140-109-243-255-242-112 0-202 57-241 149-20 47-17 141 5 189 17 38 76 100 117 123 10 6 15 14 11 18-4 5-16 3-25-4-128-90-297-48-366 90-30 60-36 156-12 212 50 119 199 187 307 139 60-27 104-66 137-121 18-32 28-41 30-30 6 33-26 185-53 248-14 36-29 72-31 80-4 13 14 15 119 16l124 1-28-71zm1024-676c-3-8-19-51-34-94-40-115-55-305-17-216 33 77 137 140 230 140 73-1 161-60 201-135 30-56 30-164 0-221-65-122-205-168-332-109-57 27-83 24-41-4 56-37 84-68 106-116 63-134-9-289-155-331-169-50-330 62-332 230-1 88 50 171 137 222 10 7 16 15 12 19-3 4-28-6-55-22-41-24-59-28-118-28-52 1-80 6-110 22-86 45-134 128-135 228 0 224 253 332 410 175 20-20 44-54 55-75 19-39 20-40 23-13 5 43-24 180-53 250-15 35-29 70-31 78-4 13 14 15 121 15 108 0 124-2 118-15zm-1999-9c-34-80-57-177-61-256l-4-90 19 40c42 86 122 135 219 135 137-1 233-100 233-240 0-99-46-177-132-221-57-29-169-26-230 6-62 33-68 18-10-25 111-83 141-207 76-317-50-85-139-128-250-121-113 7-202 86-225 198-20 94 15 174 103 240 61 45 52 56-15 19-174-96-389 53-362 251 10 70 60 148 118 184 117 72 262 31 338-96l31-53-5 80c-5 76-35 183-70 251l-16 31h125c112 1 125-1 118-16zm2985-467c-10-29-19-68-19-86v-32l34 33c47 45 107 53 156 19 44-30 60-61 60-117 0-37-5-49-40-83-39-39-42-40-93-36-28 3-61 9-72 13-14 6-11 1 8-14 55-45 70-106 42-162-50-95-203-91-250 7-23 49-13 98 30 141 18 18 29 33 25 33-5 0-12-4-15-10-3-5-30-10-59-10-59 0-96 21-121 70-69 134 110 257 212 146l33-36v28c-1 15-9 52-20 82s-19 58-20 61c0 3 29 6 64 7h64l-19-54zm-4059 37c0-5-7-28-15-51s-15-58-15-77v-35l28 30c52 55 136 56 184 2 96-105-11-259-144-207l-40 16 35-34c60-59 61-132 2-184-41-36-91-47-138-32-96 32-122 151-47 215 35 29 40 44 8 22-51-36-143-11-178 47-54 89 8 197 113 197 46 0 54-4 89-40l38-41v28c-1 15-9 53-20 83s-19 58-20 63c0 4 27 7 60 7s60-4 60-9zm4234-695c64-49 71-76 74-317 4-243-2-282-52-336-79-86-222-45-255 74-14 49-14 437-1 485 31 112 149 159 234 94zm-4188 8c21-10 45-35 62-63l27-46 3-235c3-228 2-236-20-279-33-64-68-86-133-86-63 0-98 22-132 81-22 37-23 49-23 279s1 242 23 280c44 77 119 104 193 69zm3854-345V347l-37 6c-61 8-93 24-93 47 0 16 7 20 30 20 36 0 33-29 30 357-1 149 1 276 5 282 3 6 19 11 36 11h29V709zM274 999c3-34 6-194 6-355V350l-37 1c-60 2-88 13-91 36-2 17 4 23 27 28l31 7v638h29c27 0 28-2 35-61z"/><path d="M4417 7469c-42-25-47-56-47-307 0-231 1-240 23-272 12-18 30-38 39-44 26-16 69 4 92 44 20 33 21 51 21 270 0 205-2 239-18 267-26 49-69 66-110 42zM218 7441l-33-29-3-219c-2-120-1-237 3-260 16-109 122-140 161-48 11 26 14 88 14 260 0 242-6 277-51 309-33 23-54 20-91-13zM4651 1014c-45-32-51-67-51-306 0-246 7-280 63-306 37-18 76 1 99 48 16 30 18 65 18 255 0 194-3 225-19 262-28 61-66 77-110 47zM472 997c-36-38-42-81-42-287 1-219 7-265 45-297 53-46 117-16 135 63 8 36 4 397-6 460-11 73-88 108-132 61z"/></g></svg>