<svg version="1" xmlns="http://www.w3.org/2000/svg" width="500" height="792" viewBox="0 0 5000 7920"><path d="M0 3960V0h5000v7920H0V3960z"/><path d="M0 3960V0h5000v7920H0V3960zm507 3505c21-9 46-23 56-33 26-23 55-82 59-118 3-25 0-29-21-29-20 0-27 8-38 42-51 151-263 123-263-35 0-70 49-150 161-261 139-138 189-204 189-247v-34l-207 2-208 3v75c0 73 1 75 25 75 22 0 25-5 28-45 2-24 9-48 15-52 7-4 67-8 135-8 100 0 122 3 122 15 0 18-39 65-167 196-137 141-182 242-154 345 26 97 163 153 268 109zm4114-5c43-22 72-62 91-123 9-31 9-40-2-47-19-11-50 6-50 28 0 28-37 80-69 97-60 30-141 13-174-39-9-13-19-43-23-65-11-71 37-151 180-300 142-147 166-179 166-219 0-29-2-30-47-34-27-2-120-4-208-3h-160l-3 71c-2 54 1 74 12 84 28 22 46 5 46-44 0-61 13-66 154-66 106 0 116 2 116 18 0 17-131 169-225 262-86 85-123 246-73 320 50 75 181 104 269 60zM489 6632c69-37 89-125 43-189l-20-28 47 3c56 3 88-12 118-57 40-59 25-145-33-185-53-37-135-23-182 32l-23 27 6-45c3-24 14-63 25-87l19-43H352l19 61c10 33 19 73 19 87v26l-16-22c-53-76-190-64-225 20-48 117 63 221 186 173 15-6 14-2-7 16-34 31-48 60-48 101 0 98 117 159 209 110zm4096-2c65-40 81-125 34-184l-20-26h54c40 0 61-6 81-21 103-81 54-239-75-239-42 0-55 5-89 36-39 36-40 36-40 12 0-23 18-89 35-130 6-16 0-18-59-18-36 0-66 3-66 8 1 4 9 32 20 62s19 66 20 79c0 24-1 24-36-10-31-30-41-34-89-34s-58 4-89 34c-88 86-27 229 94 219 25-3 54-8 65-12 15-6 14-3-7 15-36 33-48 60-48 110 0 35 6 47 39 80 35 35 43 39 91 39 35 0 63-7 85-20zm-1977-86c124-62 173-204 112-323-18-36-75-93-116-117-10-7-16-15-12-19s19 2 35 13c124 86 303 34 366-107 27-60 27-152 0-211-45-102-165-164-269-141-65 15-135 66-170 126-14 25-28 45-31 45s-2-30 2-67c8-75 37-178 66-235 11-21 19-41 19-45s-57-8-126-8c-107 0-124 2-120 15 3 8 16 46 30 83 25 64 51 226 39 237-3 3-8-2-11-10-2-8-28-38-57-66-40-40-63-54-104-64-89-21-174 4-238 72-43 44-63 96-63 161 0 96 37 166 113 214 34 22 57 27 122 31 72 3 85 1 129-23 51-27 79-25 36 4-91 60-132 128-133 220-1 99 66 193 162 227 63 23 160 18 219-12zm-12-4286c-28-63-56-188-55-245 0-34 2-36 12-19 56 90 134 138 226 138 93 0 160-38 206-117 72-122 24-279-105-345-58-29-159-27-227 5-29 13-53 20-53 15 0-4 22-24 49-43 131-95 133-286 3-384-141-107-358-42-407 121-18 59-18 74-4 131 13 50 74 127 120 151 17 8 27 19 24 25-4 5-17 2-33-9-113-79-277-43-349 77-39 65-49 124-33 191 34 141 197 229 324 176 45-19 113-81 136-125l19-36 1 55c0 65-30 181-66 252l-26 51 69-5c37-3 95-3 128 1 33 3 61 3 63 0 1-3-9-30-22-61zM519 1670c-10-28-19-67-19-87 0-37 0-37 16-15 22 32 66 52 114 52 83 0 144-99 110-180-26-63-108-94-175-66l-39 16 36-34c40-39 56-94 39-137-12-34-63-76-100-84-65-14-146 33-166 96-12 38 5 88 43 125l37 37-32-17c-64-32-149-7-180 54-28 56-9 141 39 172 59 39 118 30 176-25l34-32-8 40c-3 22-15 61-24 88l-18 47h136l-19-50zm4070-2c-10-29-18-66-19-82v-30l28 27c88 85 222 32 222-87 0-80-56-131-138-124-26 3-56 8-67 13-12 5-5-6 17-26 45-43 58-96 34-145-47-99-210-98-252 1-20 49-18 77 10 118l24 35-32-5c-21-3-49 2-78 15-105 46-102 200 4 240 53 21 105 8 145-35 28-29 33-31 33-15 0 11-9 49-20 84-11 34-20 64-20 66 0 1 29 2 63 2h64l-18-52zM645 950c0-73-1-75-25-75-23 0-25 5-30 50l-5 50-132 3c-109 2-133 0-133-12 0-16 120-154 205-236 126-122 158-282 74-368-50-51-161-67-234-33-48 22-69 44-90 94-22 54-20 77 8 77 19 0 26-8 36-39 12-43 57-87 97-97 43-11 96 4 127 35 23 22 31 41 35 80 7 81-28 139-179 297-71 74-138 149-149 167-20 32-26 68-13 81 4 3 97 5 207 4l201-3v-75zm4075 5c0-58-3-77-15-81-26-10-45 16-45 62v44h-135c-76 0-135-4-135-9 0-15 45-67 162-188 113-117 152-178 164-260 9-64-3-110-42-153-28-31-47-41-92-51-114-23-209 26-242 125-26 80 19 91 54 13 12-29 34-60 48-69 93-61 208-1 208 108 0 79-47 153-183 289-118 117-157 170-157 211v34h410v-75z" fill="#fff"/></svg>