<svg version="1" xmlns="http://www.w3.org/2000/svg" width="500" height="792" viewBox="0 0 5000 7920"><path d="M0 3960V0h5000v7920H0V3960z"/><path d="M0 3960V0h5000v7920H0V3960zm622 3671c6-5 47-295 48-334 0-4-10-11-22-16-18-7-31-1-62 25-69 60-145 64-211 12-87-68-85-236 4-311 40-33 69-41 124-34 34 4 50 14 82 51 39 44 52 47 84 20 2-2-6-19-19-37-76-111-240-122-335-23-132 136-78 385 92 425 49 12 108 4 176-24 16-7 17-3 12 31-3 22-9 66-13 99-6 55-9 60-32 62-14 1-73 5-132 8l-108 7v54l153-4c83-2 155-7 159-11zm4070 0c9-8 49-332 42-342-10-17-61-9-80 12-48 53-137 66-194 27-58-40-74-71-78-151-3-65 0-77 27-123 38-65 82-88 155-81 45 4 55 10 91 50 32 37 43 44 58 36 28-16 20-44-26-86-110-102-276-68-350 71-29 55-31 193-3 246 24 46 64 88 101 108 39 20 139 19 189-2 21-10 39-16 41-14 3 3-8 85-21 166l-5 32h-83c-152 0-198 14-183 53 4 10 38 12 158 9 85-2 157-7 161-11zM499 6812c37-20 71-72 71-109 0-36-18-72-52-105l-33-30 32 16c65 32 131 16 170-43 48-71 19-166-62-196-56-22-103-8-145 43-29 35-30 35-30 12 0-14 11-55 24-92l23-68h-65c-57 0-63 2-57 18 13 33 35 126 35 147 0 17-4 16-25-11-66-84-193-65-225 33-15 44-5 87 32 128 36 42 100 56 147 32 17-9 31-14 31-12s-16 19-35 38c-29 29-35 42-35 79 0 106 106 170 199 120zm4068 1c89-42 97-159 16-222l-28-22 34 17c55 26 118 14 158-30 82-89 8-238-111-223-32 4-49 15-80 49l-38 43 7-45c4-25 16-65 26-89s19-45 19-46c0-2-29-5-65-7-36-1-65-1-65 2s9 30 20 60 19 71 20 90v35l-30-37c-90-109-245-34-219 105 13 74 92 122 164 99l36-10-31 34c-61 70-25 184 65 207 39 9 67 7 102-10zm-3007-84c60-27 98-64 126-124 41-87 28-175-39-251-22-25-52-51-68-60-17-8-27-19-24-24s31 5 63 22c52 27 63 30 129 26 57-4 81-11 113-32 202-133 128-447-110-464-103-7-174 34-230 132l-30 51v-55c0-72 22-164 59-244l29-65-124-3c-108-3-124-1-120 12 2 8 17 49 32 90 20 56 28 99 31 170 4 94 4 94-12 60-72-158-273-193-392-68-114 118-68 331 84 395 18 7 63 13 101 13 55 0 79-5 117-25 50-27 77-24 35 4-53 35-94 78-111 116-23 50-24 143-3 193 51 124 218 188 344 131zm2037 15c51-10 125-74 156-134 24-46 28-65 25-111-6-82-42-146-105-188-68-45-59-58 13-20 139 73 305 4 349-145 19-63 19-90-1-155-30-104-122-173-230-174-92-1-162 45-218 143l-26 45v-51c0-62 29-178 63-256l26-58h-109c-59 0-116-3-126-7-19-7-20-13 21 105 27 77 45 187 37 229-4 22-7 20-32-24-81-141-272-159-380-37-44 51-60 93-60 161 1 98 51 182 135 226 56 29 164 29 223-2 61-31 72-22 18 16-67 48-99 102-104 178-2 35 1 79 7 98 42 125 171 191 318 161zm-983-2133c-44-105-74-224-74-297 0-39 15-46 24-10 9 35 81 103 131 122 65 25 150 16 211-22 159-98 147-346-20-429-69-35-163-35-231 0-47 23-80 25-41 1 155-91 183-270 60-393-57-58-97-73-189-73-104 0-193 57-233 150-23 53-20 147 6 197 24 46 84 109 113 118 11 4 19 11 19 16 0 12 4 13-64-21-98-50-196-38-274 33-83 77-108 191-63 292 86 196 328 206 437 19 14-24 28-44 31-44 19 0-33 233-67 300-11 22-20 43-20 47s56 8 125 9c111 0 125-2 119-15zM1580 2495c0-1-14-39-31-86-25-66-32-105-36-179-3-87-3-92 10-65 87 187 351 192 437 8 60-128 0-285-129-341-58-24-158-19-219 12-29 15-52 22-52 16 0-5 12-16 28-24 75-39 125-123 125-212 0-141-110-245-258-245-105 0-186 47-230 134-53 106-21 234 77 307 26 19 45 36 43 38s-28-7-56-22c-40-20-68-26-113-26-78 1-130 24-182 83-137 155-44 403 158 424 95 10 195-52 246-152l21-40 1 51c0 62-31 187-65 262-14 30-25 55-25 56 0 0 56 1 125 1h125zm2080-2c0-2-12-31-26-65s-32-95-40-135c-24-126-15-200 14-118 16 44 89 108 140 123 97 29 181 5 249-71 123-141 54-363-127-407-60-14-118-6-182 26-55 28-65 16-13-16 74-46 115-119 115-207 0-66-17-109-66-163-43-48-74-65-139-80-106-24-231 34-283 130-20 38-23 56-20 121 4 89 31 141 103 191 24 17 42 35 39 40s-14 2-23-6c-31-28-90-46-153-46-82 0-151 38-197 106-37 56-45 95-39 179 7 78 42 135 110 182 119 79 264 38 346-97l32-54v39c0 59-25 165-55 237-15 35-29 70-31 78-4 13 14 15 120 16 70 0 126-1 126-3zM520 1848c-27-63-31-165-4-116 8 15 28 35 44 43 112 58 229-55 175-168-30-65-118-97-178-66-19 10-18 8 5-17 39-42 52-85 39-127-37-111-192-132-251-34-35 56-23 116 32 169 23 21 25 26 8 14-14-9-45-16-72-16-41 0-54 5-85 33-31 29-37 41-41 89-4 50-2 58 27 91 62 70 141 70 202-1l31-37-5 46c-4 25-15 66-26 92l-20 47h138l-19-42zm4100 33c0-5-6-24-14-42-17-44-28-129-16-129 5 0 12 9 15 21 15 48 109 74 165 46 34-17 70-74 70-109 0-44-29-98-64-120-23-14-44-18-84-15-51 4-52 3-32-15 10-10 24-36 30-58 13-49-3-94-49-133-42-35-124-38-165-6-66 52-72 135-14 196 27 29 29 33 10 23-13-6-43-12-67-12-76 0-125 52-125 132 0 56 26 96 77 121 56 27 93 19 145-33l40-40-7 43c-4 24-16 64-26 88s-19 45-19 47 29 4 65 4 65-4 65-9zM529 1190c121-61 171-225 109-357-51-109-158-150-278-108-23 8-44 15-46 15-7 0-4-48 7-125l11-75h67c36 0 97-3 134-7 66-6 68-7 65-32l-3-26-155 4c-85 1-158 5-161 7-4 2-9 27-12 56-7 70-26 226-32 261-4 23 0 29 22 38 22 8 30 6 52-14 48-44 75-57 119-57 142 0 217 169 136 308-28 47-85 81-137 82-44 0-94-28-118-66-23-38-23-38-50-24-25 14-24 31 3 65 53 67 189 95 267 55zm4086 1c90-41 139-124 139-236 0-184-138-288-304-230-24 8-45 13-48 11-5-5 17-176 24-188 3-4 36-8 73-8s96-3 130-6c59-7 62-8 59-33l-3-26-155 3c-85 2-158 7-161 10-3 4-13 75-23 157-10 83-20 158-22 167-4 13 3 21 21 28 23 9 32 6 62-21 19-16 46-35 60-40 156-59 281 139 188 298-28 46-59 67-117 78-50 9-121-23-143-64-17-35-19-35-46-21-26 14-24 30 9 68 58 69 172 92 257 53z" fill="#fff"/></svg>