<svg version="1" xmlns="http://www.w3.org/2000/svg" width="500" height="792" viewBox="0 0 5000 7920"><path d="M0 3960V0h5000v7920H0V3960z"/><g fill="#fff"><path d="M0 3960V0h5000v7920H0V3960zm535 3601c56-25 101-81 122-149 14-45 18-94 18-227 0-157-2-174-24-222-62-139-249-177-351-72-53 55-74 122-67 212 11 131 77 211 183 223 52 7 105-11 163-53l24-17-5 71c-9 121-68 194-158 197-51 1-89-27-118-88-20-40-26-46-45-40-31 9-31 8-13 62 16 47 49 87 91 110 32 18 135 14 180-7zm4058 3c55-19 117-83 135-141 7-21 17-90 23-154 14-140 1-260-34-329-54-105-223-147-318-80-37 27-80 100-90 153s6 158 32 208c29 58 88 92 163 97 56 3 66 0 120-32l59-36-6 67c-8 77-39 148-80 177-20 15-44 21-82 21-62 0-88-18-117-82-15-34-24-43-43-43-30 0-33 23-10 77 21 50 42 72 90 94 49 23 97 24 158 3zM521 6737c40-27 66-89 55-132-4-16-23-44-42-62-40-38-40-39 10-18 76 32 164-23 173-108 16-137-149-200-237-90l-23 28 8-50c4-27 13-65 21-84s13-35 12-36c-2-2-31-5-66-7-54-4-62-2-56 11 17 42 34 107 34 133v30l-26-31c-78-93-224-37-224 87 0 38 5 50 40 84 38 38 42 40 92 36 29-2 61-8 71-12 9-5 2 7-17 26-44 44-53 80-35 132 19 54 67 86 129 86 32 0 58-7 81-23zm4079-5c14-10 33-35 44-56 16-32 17-44 7-76-6-21-25-50-41-64-38-32-38-41 0-21 84 44 190-23 190-121 0-42-37-95-83-118-52-25-101-15-144 31-32 33-33 34-33 10 0-22 18-89 35-129 6-16 0-18-57-18h-65l18 53c10 28 18 67 19 86v33l-40-36c-35-31-47-36-90-36-61 0-107 35-119 91-24 106 74 191 177 156l40-14-33 31c-38 36-50 71-41 119 7 36 46 79 86 96 33 14 99 5 130-17zm-2979-79c167-85 179-316 20-413-37-23-52-40-33-40 4 0 29 11 56 25 91 46 228 24 293-46 57-63 81-195 49-273-51-122-207-189-321-137-44 20-119 95-137 139l-12 27-4-36c-6-64 28-192 84-314 3-6-42-10-121-11-111-1-125 1-119 15 52 128 85 279 69 318-6 15-9 14-22-12-43-84-123-134-214-135-137 0-239 102-239 241 0 189 199 303 373 213 58-30 66-10 10 25-125 78-150 241-54 352 76 90 214 116 322 62zm1984 3c59-27 118-88 135-141 32-97-12-223-96-274-24-14-44-32-44-38 0-16-5-18 64 17 198 101 407-81 346-301-14-48-84-127-135-150-48-22-142-25-189-5-48 20-104 73-131 125l-24 46v-45c-1-65 23-168 57-249l30-70-125-3c-107-3-123-1-119 12 3 8 17 49 32 90 18 52 28 103 31 165l5 90-34-54c-125-203-437-120-438 118 0 107 47 189 135 230 65 30 163 29 233-4 64-30 67-20 8 23-67 47-99 101-104 177-5 78 10 126 56 177 79 87 203 113 307 64zM1620 4625c0-2-9-24-20-50-40-92-74-295-50-295 6 0 10 6 10 13 0 29 63 96 112 121 125 62 267 15 324-109 57-121 8-265-110-328-59-31-174-31-234 1-56 30-63 23-15-14 79-60 112-120 113-205 0-146-135-261-287-246-111 11-201 89-224 194-22 95 22 198 106 251 22 15 42 27 44 29s1 6-2 10c-4 3-30-6-57-21-99-54-228-31-301 51-44 51-62 99-62 168-1 141 107 254 241 255 91 0 160-42 224-140l29-45-6 65c-8 83-29 167-60 237-14 31-25 56-25 57s56 2 125 3 125 0 125-2zm1984-50c-40-88-59-184-55-275 2-25 2-25 18 5 88 168 320 179 418 21 27-44 30-58 30-131s-3-87-30-131c-46-73-109-108-204-112-66-3-82 0-125 23-27 14-51 23-55 19-3-3 3-11 13-18 188-111 183-351-9-442-73-35-165-33-236 4-151 79-180 261-61 380 26 26 56 52 67 58 11 7 17 15 13 19-3 4-28-6-55-22-41-24-59-28-118-28-85 1-138 25-187 87-47 60-58 89-58 161 1 181 171 305 328 237 54-23 124-90 144-138l12-27 4 28c6 45-26 186-59 256-16 35-29 66-29 70 0 3 58 6 128 6h129l-23-50zM1616 2416c-55-123-80-227-74-301l3-39 31 51c106 170 367 141 429-47 71-215-150-405-354-304-28 15-54 24-57 21-3-2 18-21 46-42 74-55 105-113 105-200 0-58-5-78-28-117-66-114-221-161-342-104-59 27-118 88-135 141-33 99 12 221 103 282 57 38 46 53-15 18-155-88-349 13-365 192-13 149 82 267 225 280 93 9 190-45 233-128 11-22 22-39 26-39 16 0-9 154-37 231-17 46-33 91-36 99-5 14 12 16 121 17 91 1 125-2 121-11zm1988-41c-34-74-54-161-54-233v-64l33 48c136 203 439 110 439-135 0-187-196-304-365-219-52 26-70 18-24-11 77-47 117-120 117-210 0-111-72-203-184-236-62-19-90-19-152 0-92 27-163 108-179 202-14 87 50 212 125 243 29 12 36 21 25 32-3 3-31-8-61-24-167-84-358 32-357 216 0 203 205 329 367 225 40-25 60-48 114-125 10-16 11-8 6 51-7 75-35 177-65 237-11 21-19 41-19 45s58 8 128 8h129l-23-50zM530 1825c-5 0-40-135-40-152v-25l28 30c16 17 47 36 69 42 36 11 46 10 79-6 53-27 77-64 77-119s-23-90-77-118c-32-17-45-18-83-10l-44 10 19-21c67-73 52-165-33-206-67-32-118-25-167 25-52 52-48 124 10 182l37 36-32-17c-90-45-193 18-193 119 0 51 28 97 73 118 63 30 124 15 166-40l20-28 1 26c0 14-9 52-20 84s-20 61-20 64 29 6 65 6h65zm4078-57c-10-27-18-64-18-84v-36l35 30c94 83 223 21 212-101-7-80-74-131-157-119l-34 5 21-27c86-109-38-257-170-203-85 36-103 150-33 214 40 37 39 40-6 17-71-37-168 16-184 100-9 50 26 119 70 140 61 29 141 13 166-34 31-59 28 28-5 105-8 21-15 38-15 39s31 2 68 2h69l-19-48zM547 1148c77-23 141-150 129-253-12-109-47-170-116-205-78-39-144-32-218 21l-45 33 6-69c12-128 73-205 163-205 52 0 106 41 120 92 8 28 14 33 39 33 26 0 30-3 27-25-7-54-46-113-92-138-38-20-56-23-112-20-87 5-140 40-181 118-57 112-61 403-8 514 50 103 162 143 288 104zm4111-12c96-50 141-208 96-339-44-129-198-178-311-98l-46 33 6-72c11-130 69-200 167-200 34 0 48 6 76 34 19 19 37 48 40 65 6 26 11 31 35 31 23 0 29-4 29-22-1-40-37-105-76-134-34-26-45-29-115-29s-81 3-121 30c-61 43-94 109-108 219-16 114-8 295 15 358 19 54 84 118 137 136 41 14 139 7 176-12z"/><path d="M377 7248c-58-34-81-91-75-186 5-90 23-124 79-153 47-23 116-25 148-3 55 39 88 176 60 251-22 59-95 113-151 113-13 0-40-10-61-22zM4465 7251c-65-29-101-115-90-215 9-75 34-112 93-138 109-49 193 16 208 161 6 51 3 64-20 107-15 27-39 58-53 68-29 21-107 31-138 17zM405 1103c-69-17-119-144-95-242 14-58 66-116 117-130 73-20 150 30 173 114 16 58 7 161-18 195-36 49-116 78-177 63zM4455 1064c-54-58-70-176-34-252 68-140 245-117 278 37 11 51 1 143-18 180-21 38-74 61-140 61-54 0-65-3-86-26z"/></g></svg>