<svg version="1" xmlns="http://www.w3.org/2000/svg" width="500" height="792" viewBox="0 0 5000 7920"><path d="M0 3960V0h5000v7920H0V3960z"/><g fill="#fff"><path d="M0 3960V0h5000v7920H0V3960zm558 3580c57-32 85-74 90-135 4-58-20-104-76-141l-32-22 34-23c108-74 123-215 32-305-118-119-328-82-390 68-40 96-8 176 103 255 3 2-12 17-32 34-112 92-82 232 62 286 53 20 159 11 209-17zm4050 15c72-31 112-86 112-157 0-50-26-99-67-124-15-10-30-19-32-21-2-1 17-21 42-43 116-103 96-260-42-332-110-58-251-26-312 70-58 92-47 176 33 254l48 47-34 26c-139 106-43 295 150 295 36 0 81-7 102-15zm-43-819c51-22 77-69 72-131-4-42-10-54-42-82-38-33-38-46-1-18 27 21 95 19 129-4 99-65 79-209-32-241-48-13-89-2-127 37-33 33-34 33-34 10 0-22 18-89 35-129 6-16 0-18-58-18h-65l19 61c10 33 19 72 19 86 0 25 0 25-40-11-32-29-48-36-81-36-82 0-129 47-129 129 0 39 6 56 26 80 40 48 128 62 172 28 7-5 15-7 18-4s-4 11-16 17c-30 16-60 69-60 108 0 50 24 87 72 111 51 25 76 26 123 7zm-4058-16c37-22 63-67 63-107 0-34-31-88-60-103-35-19-17-21 28-3 39 15 45 15 88-2 54-21 84-62 84-118 0-50-23-93-63-117-59-36-123-22-176 40l-22 25 7-45c3-25 14-64 24-87l18-41-64-4c-35-2-64 0-64 3 0 4 7 26 15 49s15 60 15 82v40l-26-31c-48-57-132-62-184-10-55 55-52 138 7 189 32 29 41 31 87 28 28-3 60-8 71-13 12-5 4 6-17 26-45 43-56 90-34 142 29 71 133 100 203 57zm1092-76c74-31 136-113 147-198 11-81-38-179-113-223-40-23-56-43-34-43 5 0 30 12 57 27 117 66 273 14 337-112 67-134-11-308-156-350-65-19-109-15-167 15-41 21-114 97-125 129-3 12-10 19-15 16-19-11 18-198 56-284 13-29 24-56 24-60 0-3-56-6-123-6h-124l25 55c31 70 52 168 52 245v59l-32-54c-83-137-259-160-370-49-116 116-94 297 47 384 43 27 57 30 124 30 60 0 85-5 119-23 65-34 72-21 13 22-74 55-106 114-106 196 1 124 75 210 210 244 31 7 114-3 154-20zm1996 2c59-28 108-76 129-128 23-54 20-143-5-195-21-44-92-113-116-113-7 0-13-7-13-15 0-19-5-20 64 15 127 65 274 15 335-115 45-96 15-240-63-300-133-102-307-59-383 93l-18 37-3-27c-7-61 28-197 85-325 4-10-21-13-105-13-61 0-118-3-128-7-14-5-16-3-9 13 36 83 65 190 70 264 7 91 3 93-37 21-24-44-92-88-154-101-176-37-325 135-272 312 16 56 88 133 143 154 61 23 169 15 220-16 40-25 64-18 27 9-94 66-132 127-132 208 0 70 15 114 56 161 77 90 204 118 309 68zm-990-1100c96-44 153-140 142-240-3-30-12-67-20-83-19-36-73-90-110-109-15-8-25-19-22-24s31 4 61 21c128 67 279 16 340-115 26-57 31-126 12-188-15-51-82-126-133-149-48-22-142-25-189-5-46 19-104 72-129 120l-22 41-3-41c-4-53 21-158 57-245l29-69h-106c-59 0-118-3-130-7l-24-6 22 42c32 64 60 186 60 260l-1 66-25-48c-64-123-236-162-351-78-21 15-51 51-67 80-25 47-28 60-24 131 3 68 7 84 33 121 17 24 50 57 73 74 37 25 55 30 117 33 63 4 82 0 131-22 54-25 92-27 49-2-11 6-43 34-71 62-40 40-54 62-64 103-29 120 31 234 150 285 55 24 156 20 215-8zm-988-943c-4-10-18-52-33-93-19-53-28-101-32-165l-4-90 24 45c73 135 249 168 364 67 60-53 83-104 84-185 0-73-15-114-59-165-71-80-202-104-302-54-61 30-73 19-19-17s97-97 111-160c9-44 9-62-4-107-51-175-261-241-414-130-83 60-117 192-74 286 19 43 84 111 113 121 17 5 26 24 11 24-3 0-30-12-60-26-165-81-353 35-353 218 0 78 15 120 62 173 53 60 105 84 180 85 91 0 167-45 216-128 26-46 27-46 30-19 6 46-27 187-59 256-16 35-29 65-29 67s53 5 118 7c64 1 121 4 126 5 4 1 6-6 3-15zm1999-3c-2-8-17-46-31-85-20-51-28-94-31-160l-5-90 20 35c65 118 202 162 319 104 85-42 134-124 134-224 0-62-31-138-74-177-70-66-192-82-287-38-30 14-56 23-58 21-3-2 16-19 40-38 170-126 145-353-46-433-43-18-134-20-189-3-51 15-126 82-149 133-51 111-6 238 111 316 14 9 22 20 18 24s-19-2-35-12c-92-64-223-53-307 25-45 43-76 117-76 188 0 185 189 306 350 224 40-20 120-104 120-126 0-7 5-16 12-20 8-5 9 10 4 58-8 85-30 165-61 229-14 29-25 55-25 58s57 6 126 6c107 0 124-2 120-15zM2603 3456c-32-77-53-175-53-246v-54l33 54c77 130 244 160 355 64 63-54 86-105 86-189 0-83-21-132-83-188-69-63-184-76-278-32-64 29-69 17-11-22 119-80 142-246 50-354-118-138-352-114-433 44-59 115-12 263 101 322 17 9 30 20 30 25 0 14-1 14-65-20-167-88-364 31-365 221 0 116 80 219 194 250 100 27 219-34 276-141l19-35 1 51c0 64-31 187-64 253-14 28-26 52-26 53 0 2 58 3 129 4h128l-24-60zm-973-1041c0-3-7-22-16-43-30-71-54-167-60-242-6-80-1-82 38-11 23 42 91 88 149 100 193 42 350-162 265-344-59-128-211-178-344-114-42 21-75 18-38-3 41-23 100-85 117-123 23-49 25-139 4-188-22-53-62-95-117-123-165-83-357 10-383 186-12 87 42 194 119 235 34 18 47 35 27 35-5 0-28-11-52-24-100-55-209-39-290 43-84 83-99 197-42 304 48 88 131 132 234 125 84-6 140-48 217-164 10-16 11-9 6 41-8 86-30 171-64 242l-29 62 122 4c67 1 125 4 130 5 4 1 7 0 7-3zm1996-15c-3-8-17-47-31-87-29-83-51-221-37-235 6-6 14 3 22 22 18 44 92 105 145 120 95 27 205-11 258-87 37-54 47-86 47-154 0-65-29-136-72-176-70-65-200-82-293-38-54 25-76 23-35-4 110-73 153-161 129-270-14-69-61-128-128-163-43-23-66-28-122-28-113 0-190 45-235 136-22 46-26 64-22 121 5 81 37 138 105 184 62 43 53 53-14 18-52-28-66-30-129-27-88 4-154 41-196 108-107 173 11 396 208 394 93-1 163-47 218-144l26-45v37c0 55-27 173-56 242-14 33-28 68-30 76-4 13 14 15 121 15 108 0 125-2 121-15zm1004-594c0-2-6-21-13-42-15-42-30-124-23-124 2 0 20 16 39 35 31 31 41 35 87 35s56-4 85-33c19-19 37-46 41-60 25-100-73-190-174-159l-35 11 27-28c41-42 51-93 29-139-38-78-135-106-204-59-63 42-78 117-36 179l24 34-51-3c-63-5-105 18-130 71-65 137 120 261 218 146 13-16 26-27 29-24 6 7-10 77-28 121-8 20-15 37-15 39s29 4 65 4 65-2 65-4zm-4094-35c-15-27-38-141-29-141 2 0 16 13 29 30 73 86 211 38 221-77 9-105-84-167-192-127-15 5-11-2 12-25 62-63 51-147-26-198-120-81-268 60-188 178l23 34-48-3c-129-10-196 149-98 232 62 52 134 44 191-22l31-35-7 44c-4 24-16 65-26 92l-19 47h141l-15-29zm4117-662c47-13 115-72 134-116 35-85 2-197-72-243-41-26-43-33-11-48 13-6 35-26 49-44 106-139-64-311-254-258-155 43-197 196-80 290l41 33-30 18c-41 26-87 92-95 139-15 87 61 204 149 229 43 13 124 13 169 0zm-4068-18c22-10 53-31 69-47 85-86 74-233-23-302l-38-27 47-45c63-59 73-108 38-178-35-71-99-107-192-107-90 0-117 8-161 47-88 77-87 176 4 248l41 33-29 18c-86 52-120 171-75 259 18 36 73 86 114 103 50 22 156 21 205-2z"/><path d="M353 7500c-92-56-79-176 23-222 100-44 204 18 204 120 0 45-26 84-70 107-41 21-118 19-157-5zM370 7199c-90-38-129-153-77-229 39-58 71-75 142-75 49 0 70 5 91 21 94 70 98 192 7 261-39 30-120 41-163 22zM4445 7516c-140-62-92-246 65-246 148 0 198 175 68 239-50 24-90 26-133 7zM4422 7193c-41-20-82-88-82-137 0-75 67-150 144-161 58-9 130 24 164 75 30 45 28 130-6 177-42 60-148 82-220 46zM4520 1068c-76-20-129-106-114-185 9-50 66-110 116-124 111-30 208 44 208 159 0 106-102 179-210 150zM4495 681c-70-43-92-108-57-170 65-119 274-78 274 54 0 102-129 171-217 116zM427 1055c-52-18-83-49-103-102-15-37-15-50-4-85 26-89 120-143 202-119 152 46 166 236 23 302-47 22-67 23-118 4zM410 672c-71-35-99-116-61-178 37-61 144-84 208-44 152 92 13 303-147 222z"/></g></svg>