<svg version="1" xmlns="http://www.w3.org/2000/svg" width="500" height="792" viewBox="0 0 5000 7920"><path d="M0 3960V0h5000v7920H0V3960z"/><g fill="#fff"><path d="M0 3960V0h5000v7920H0V3960zm542 3630c73-21 136-112 145-210 6-63-16-157-48-201-24-34-113-79-153-79-37 0-112 33-143 62-13 12-25 20-27 17-9-11 15-155 32-187 54-105 198-110 245-9 9 19 17 40 17 47 0 6 11 10 28 8 23-3 27-7 24-32-2-16-12-46-22-67-56-109-219-121-317-23-63 64-77 120-77 324-1 197 8 234 69 295 60 61 138 79 227 55zm4086-5c111-47 160-187 117-333-20-67-53-104-116-132-67-28-120-21-190 26l-52 35 7-72c12-132 62-197 155-201 53-2 88 23 119 83 16 32 28 44 45 44 19 0 22-5 20-40-5-79-86-145-179-145-95 0-177 59-209 150-37 105-42 338-10 446 35 118 179 186 293 139zm-3018-746c160-72 201-267 80-387-17-18-46-40-62-48-22-11-27-19-19-27 7-7 16-6 29 6 48 44 144 59 223 35 51-15 114-69 142-122 30-58 31-174 0-231-77-145-266-179-377-69-16 16-42 49-58 73l-28 45v-50c0-61 29-179 63-255l24-56h-124c-111-1-124 1-117 16 44 105 84 297 67 324-3 5-16-10-29-33-28-50-55-75-109-100-48-23-141-26-188-7-193 81-194 371-2 453 61 26 151 22 219-9 31-14 56-22 56-17 0 4-22 24-49 43-88 64-126 188-85 285 51 124 218 188 344 131zm2005-3c125-58 176-202 114-321-22-44-86-106-120-117-7-2-9-10-5-16 5-9 15-7 35 8 44 31 81 42 143 41 97 0 169-45 215-135 85-165-35-366-219-366-76 0-155 48-207 126l-31 47v-54c0-61 30-181 60-240 11-21 20-42 20-46s-56-8-124-9h-123l19 43c30 69 58 191 58 257v61l-26-45c-36-64-53-80-109-106-162-76-339 36-340 216 0 121 76 216 191 240 64 13 111 7 170-22 65-32 72-17 13 28-121 90-143 238-51 345 75 87 211 115 317 65zm-3105-71c48-25 70-62 70-117 0-44-4-54-35-85-19-19-27-32-18-27 10 4 38 9 63 12 116 10 181-126 104-217-50-59-134-59-193 1l-31 32v-26c0-23 18-89 35-130 6-16 0-18-60-18s-66 2-60 18c18 44 35 108 35 135v30l-21-27c-88-112-266-29-228 108 22 81 103 115 194 81 16-6 14-2-7 16-34 31-48 60-48 101 0 94 113 158 200 113zm4076-5c43-21 74-67 74-110 0-30-25-75-55-98-33-26-32-34 3-16 38 20 91 17 129-6 75-45 84-148 19-207-31-28-43-33-87-33-48 0-55 3-92 42l-40 42 6-48c4-26 16-68 26-92l20-44h-140l17 31c8 17 18 57 21 88l5 56-24-27c-30-34-59-48-100-48-45 0-78 19-105 59-43 64-19 152 51 185 42 20 67 20 111 2 41-18 45-12 10 16-38 29-58 75-51 113 12 62 73 114 135 115 14 0 44-9 67-20zm-961-1446c50-23 110-95 125-149 29-103-13-213-101-267-65-41-53-54 17-17 128 67 279 16 340-115 78-167-40-357-222-357-93 0-174 53-223 146l-21 40v-45c0-69 26-176 60-248 17-36 29-66 28-68-5-5-248-9-248-4 0 3 10 30 21 60 33 84 48 158 49 230v65l-21-40c-29-58-85-103-147-121-70-21-124-12-193 29-97 58-141 193-97 298 22 51 77 109 123 130 63 29 168 26 229-7 50-27 79-23 36 5-114 75-159 177-126 284 46 152 220 223 371 151zm-2033 14c51-15 126-82 149-133 50-109-11-278-111-310-11-3-20-13-20-21 0-18 7-18 38 4 94 65 236 50 314-34 59-64 86-185 57-261-58-155-247-215-374-119-19 15-51 51-71 79l-36 52 6-74c6-75 45-207 72-249 9-13 14-25 12-27-2-1-60-5-129-7l-126-5 23 53c35 79 54 164 54 240v69l-21-43c-36-72-131-132-209-132-89 0-184 62-221 144-21 47-25 130-8 187 40 133 210 198 348 134 57-27 82-24 43 4-98 69-132 124-132 214 0 102 50 178 145 223 56 27 133 31 197 12zm1038-753c0-1-13-38-30-82-31-85-56-241-41-256 4-4 14 6 21 22 16 39 78 96 127 117 54 23 149 14 206-19 74-44 117-121 117-213 0-144-102-244-251-244-52 0-76 6-114 25-50 27-77 24-35-4 89-59 131-127 132-216 1-105-77-209-176-236-22-6-70-9-107-7-80 4-145 40-193 106-26 37-31 54-34 117-6 107 28 170 128 236 14 9 22 20 18 25-5 4-17-1-27-10-45-41-146-57-225-35-50 14-124 82-149 138-43 97-11 233 71 301 124 103 298 60 379-93 23-43 28-18 14 73-12 75-32 142-62 204-11 22-19 42-19 45s56 6 125 6h125zm-1000-763c0-5-14-46-31-93-24-64-32-105-35-174-2-49-1-83 2-75 21 48 68 99 114 124 97 53 216 33 288-50 45-50 62-100 62-175-1-181-195-293-363-209-64 32-68 20-9-23 52-39 95-107 106-170 16-88-48-202-138-250-56-29-185-31-236-3-49 26-98 74-122 121-28 53-28 147 0 201 20 39 79 100 118 122 10 6 16 13 13 17-4 3-27-5-53-19-65-35-122-41-188-22-110 32-179 125-179 241 0 76 16 119 68 175 48 54 103 79 171 80 92 0 171-49 223-137l29-48v40c0 77-30 184-87 312-4 9 25 13 114 16 65 1 121 4 126 5 4 1 7-2 7-6zm1988-39c-36-82-58-176-58-248l1-70 25 48c30 57 87 101 154 117 85 20 169-8 230-76 44-51 62-98 62-165 0-97-48-175-137-222-59-31-164-30-227 2-27 14-50 22-53 19s18-23 47-44c132-99 140-272 16-378-119-102-301-78-392 52-38 54-48 149-22 217 16 41 94 126 126 137 8 3 12 8 9 12s-30-6-58-21c-130-67-288-8-346 130-21 51-19 146 4 199s83 111 136 134c43 17 127 20 166 5 49-19 109-72 139-123l30-53v38c0 62-30 187-61 255-16 36-29 66-29 68s53 5 118 7c64 1 122 4 129 5 8 1 5-15-9-45zM1640 2282c0-4-4-12-9-17-25-27-63-165-67-245-4-72-3-82 8-66 64 96 133 139 223 139 181 0 293-190 211-357-30-62-78-102-145-123-57-18-137-10-192 18-60 30-70 17-16-20 134-92 152-259 39-372-49-49-121-79-187-79-93 0-195 63-234 143-27 55-28 146-2 202 17 38 76 100 117 123 10 6 16 13 12 17-3 4-26-4-50-18-57-33-108-41-174-27-115 24-194 125-194 248 0 82 25 137 87 192 119 104 289 71 374-73l31-52-6 75c-5 77-45 215-71 253-8 12-15 25-15 29s55 9 123 11c67 1 125 4 130 5 4 1 7-2 7-6zm2000 3c0-3-9-24-21-46-30-60-59-184-59-253l1-61 17 32c83 154 269 187 387 68 32-31 49-59 60-100 64-219-153-395-357-289-61 31-63 11-5-31 132-96 141-267 19-377-49-45-100-62-177-62-133 1-237 90-252 214-11 94 37 187 122 240 19 12 33 26 29 31-3 5-17 1-32-9-48-32-82-42-145-42-79 1-131 24-183 83-46 52-64 102-64 173 0 92 68 193 152 228 46 20 138 21 182 2 48-20 104-73 131-125l24-46 1 51c0 61-31 187-64 260l-25 53 117 4c64 1 123 4 130 5 6 1 12 0 12-3zM545 1823c-18-44-35-109-35-134v-29l34 38c32 34 38 37 91 37s59-3 91-37c28-31 34-45 34-83 0-57-21-100-60-120-34-18-102-20-133-4-16 8-12 1 13-25 31-33 35-43 35-91 0-46-4-58-30-85-39-41-93-57-144-42-98 30-130 134-66 211l24 28-38-10c-52-14-108 7-139 53-20 29-23 44-20 88 7 76 45 113 123 120 55 4 56 4 97-39l41-43-7 48c-4 26-16 68-26 92l-19 44h70c64 0 70-2 64-17zm4074-35c-10-29-18-69-19-88 0-34 0-34 16-12 22 32 67 52 115 52 35 0 48-6 80-39 35-35 39-44 39-88 0-98-92-159-185-123l-27 10 31-30c84-84 23-220-99-220-124 0-182 130-98 218 24 26 27 32 11 23-12-6-43-11-69-11-41 0-51 5-85 39-35 35-39 44-39 90 0 44 5 56 35 90 26 28 47 41 75 46 44 7 70-3 118-48 28-27 32-28 32-11 0 10-11 49-24 87l-23 67h134l-18-52zM569 1143c90-55 128-189 119-423-4-105-7-123-33-176-21-41-43-68-73-89-40-27-51-30-127-30-78 0-86 2-122 31-58 46-93 123-93 205 0 120 40 198 122 240 60 31 124 25 192-16l59-35-5 69c-7 97-36 154-94 182-79 38-146 10-185-77-16-36-22-41-45-36-24 4-25 8-19 41 25 135 177 192 304 114zm4044 26c47-13 102-60 127-109 44-86 59-362 27-472-31-104-109-162-217-161-74 1-123 25-165 80-47 62-62 132-46 223 14 78 40 124 90 157 78 53 157 50 236-8 35-27 40-28 44-12 6 31-19 148-40 181-40 66-128 91-191 55-17-11-38-38-51-66-19-40-26-47-47-45-21 3-25 7-22 33 13 115 127 180 255 144z"/><path d="M377 7508c-39-41-57-95-57-167 0-61 16-97 64-139 61-53 134-51 189 6 36 38 47 73 47 150 0 118-46 173-150 180-58 4-61 3-93-30zM4468 7529c-34-20-70-97-75-162-6-73 15-127 67-170 47-40 95-45 149-16 65 35 86 82 85 183-2 87-15 113-74 154-36 24-120 30-152 11zM390 841c-52-28-80-88-80-175 0-84 19-130 69-163 42-28 124-31 160-7 38 27 71 110 71 180 0 134-115 221-220 165zM4494 851c-25-12-50-33-65-57-21-33-24-51-24-124 1-48 6-95 13-107 38-69 147-103 208-65 78 49 105 209 50 292-17 26-43 49-69 61-52 23-62 23-113 0z"/></g></svg>