<svg version="1" xmlns="http://www.w3.org/2000/svg" width="500" height="792" viewBox="0 0 5000 7920"><path d="M0 3960V0h5000v7920H0V3960z" fill="#db0003"/><g fill="#fff"><path d="M0 3960V0h5000v7920H0V3960zm4512 3610c44-13 93-66 107-117s14-437 0-488c-7-24-29-57-54-82-38-39-47-43-90-43-61 0-109 29-138 84-21 38-22 56-25 270-3 191-1 236 12 271 19 49 61 92 102 105 39 11 44 11 86 0zm-4127-40c19-19 40-49 46-68 7-21 12-124 13-266 1-228 1-232-23-274-72-124-220-113-275 20-13 30-16 82-16 266 0 216 1 230 23 272 32 65 78 93 145 88 43-4 59-11 87-38zm231 29c36-9 44-16 44-34 0-17-7-24-30-28l-30-6v-641h-60l-1 98c0 53-3 209-5 346-3 137-3 255 0 262 6 17 23 17 82 3zm4195-1c31-9 39-16 39-35s-5-23-30-23h-30l-2-322-3-323-32-3-33-3v721h26c15 0 44-5 65-12zm-3229-858c167-209 298-373 314-391 12-13-1-33-99-155-61-77-165-210-230-297-65-86-121-157-126-157-4 0-62 71-129 158-66 86-170 218-230 292-107 131-110 136-93 157 9 12 115 144 235 293 176 219 221 269 231 258 7-7 64-78 127-158zm2178-101c118-148 221-278 229-289 12-18 6-28-65-116-97-118-364-464-371-481-8-19-26-16-40 6-18 29-262 342-358 460-47 57-85 107-85 110s88 114 196 246 212 261 232 288c20 26 39 47 42 47 3-1 102-122 220-271zm-3302 97c12-18 65-86 117-152 52-65 95-122 95-127 0-9-224-292-239-301-5-3-63 62-130 145l-120 152 55 71c31 39 86 110 122 159 37 48 69 87 72 87s15-15 28-34zm4103-23c23-32 78-102 121-156l79-97-103-126c-57-70-113-138-126-153l-22-26-36 40c-58 64-204 252-204 263 0 5 39 58 88 119 48 60 100 128 116 151s32 42 36 42 27-26 51-57zm-1834-854c122-151 222-280 222-287 1-7-52-79-117-160s-166-211-226-289c-59-79-111-143-116-143-4 0-64 73-132 162-67 89-171 220-231 291l-107 129 33 42c19 22 95 118 171 211 75 94 164 205 199 247 34 43 67 76 72 74 6-1 110-126 232-277zm-1042-776c149-187 224-287 219-295-5-7-47-60-94-118-48-58-148-187-224-287-76-101-139-183-141-183s-43 53-92 118c-107 143-178 233-289 368-76 92-84 106-72 122 65 89 452 562 458 560 4-2 110-130 235-285zm2085 12c121-151 223-281 226-289 3-7-44-74-104-148s-162-205-227-292c-65-86-123-155-129-153-5 2-68 80-140 173-71 93-173 222-227 287l-99 119 23 28c351 437 443 550 449 550 4 0 106-124 228-275zM1654 3554c88-110 162-201 166-204 17-15 90-114 90-123 0-5-44-64-97-131-54-66-157-199-229-293l-132-173-49 63c-27 34-78 100-113 147-77 102-277 347-291 355-5 4-9 13-9 20 0 8 104 143 232 301l231 287 21-25c12-14 93-115 180-224zm2142-61c107-133 197-249 200-257 4-9-39-70-113-163-66-81-167-212-226-290-59-79-111-143-115-143s-63 73-131 161c-68 89-171 217-228 286-56 68-103 128-103 133s104 139 232 296l232 287 29-34c15-19 116-143 223-276zm-1254-506c18-24 70-88 115-143 122-148 295-367 299-379 3-6-46-74-108-151-62-78-165-209-228-292-63-84-118-152-121-152-4 0-61 71-127 158-66 86-170 217-231 291l-111 133 29 37c17 20 101 124 188 231l203 252c25 31 48 57 52 57 4 1 22-18 40-42zm-847-1004l227-283-129-162c-72-90-174-221-228-293-54-71-101-131-105-133-4-1-64 71-133 160-69 90-173 221-231 292l-106 128 41 51c189 239 425 526 431 524 3-1 108-129 233-284zm2061 37c108-135 209-261 225-282l29-36-142-179c-79-98-183-231-232-295-49-65-92-116-96-113-4 2-36 42-70 87-133 175-158 207-273 345-82 99-116 147-110 156 21 36 458 567 465 565 4-2 95-113 204-248zm928-319l115-145-45-55c-25-31-79-100-120-153-41-54-79-98-84-98s-36 35-68 78c-33 42-85 108-116 146s-56 72-56 77c0 16 244 309 251 302l123-152zm-4069 0c101-127 114-146 103-162-11-15-170-220-219-282-15-19-18-17-79 64-35 46-90 117-123 156l-59 73 118 149c66 83 124 149 131 148s64-67 128-146zm-26-576c39-20 78-69 91-113 5-20 10-134 10-252 0-204-1-218-22-260-28-54-62-80-117-87-57-8-110 18-143 68-23 35-26 51-32 186-12 281 2 382 61 435 42 38 105 48 152 23zm4181-7c18-13 43-41 54-63 19-37 21-59 24-275 3-228 2-236-20-280-17-33-35-51-68-68-73-38-141-19-194 52-20 26-21 43-24 274-3 240-2 248 20 292 44 86 137 116 208 68zm-4487-65c4-43 7-202 7-354V422l-27-5c-39-7-97 16-101 41-3 16 3 21 25 24l28 3 3 323 2 322h29c28 0 28 0 34-77zm4162-278V425l-25-3c-13-2-41 1-62 7-31 10-38 17-38 36 0 21 5 25 30 25h30v641l33-3 32-3V775z"/><path d="M4443 7520c-13-5-32-24-43-42-18-30-20-51-20-260 0-234 4-265 42-305 41-44 101-20 127 50 17 45 14 460-3 502-11 26-61 68-78 64-2 0-13-4-25-9zM247 7509c-42-25-47-56-47-301 0-208 2-237 19-268 36-68 110-67 141 3 17 37 20 67 20 251 0 132-4 223-12 248-19 64-74 94-121 67zM482 1067c-13-13-27-39-32-58-13-44-13-424 0-468 22-79 93-106 141-55 24 25 24 28 27 252 2 125 0 241-3 259s-17 46-31 63c-32 37-71 40-102 7zM4643 1068c-39-42-45-90-41-318 3-188 5-220 21-243 38-58 103-60 137-4 18 29 20 51 20 265 0 211-2 236-20 271-28 57-80 69-117 29z"/></g></svg>