<svg version="1" xmlns="http://www.w3.org/2000/svg" width="500" height="792" viewBox="0 0 5000 7920"><path d="M0 3960V0h5000v7920H0V3960z" fill="#db0003"/><path d="M0 3960V0h5000v7920H0V3960zm4670 3622c29-22 65-84 74-128 6-26 4-32-12-36-26-7-38 1-45 33-15 58-80 109-142 109-65 0-125-63-125-132 0-74 46-144 195-298 139-143 155-165 155-205v-33l-142-7c-79-4-172-5-208-3l-65 3v80c0 79 0 80 25 80 22 0 25-5 28-45 2-25 7-48 11-52 8-9 250-13 258-5 11 12-27 58-144 178-88 91-130 143-148 181-74 163-14 295 140 310 47 5 117-10 145-30zm-4123-1c51-24 95-86 97-138 1-28-3-38-16-41-12-2-24 13-44 53-21 46-34 61-68 76-51 23-65 23-116 3-49-20-73-61-74-124 0-66 49-146 151-244 132-128 196-209 197-254l1-37-207-3-208-2v79c0 64 3 80 16 85 27 10 44-13 44-59 0-30 5-45 16-49 24-9 242-7 248 2 8 14-25 56-144 179-136 141-171 198-178 293-3 53 0 74 16 106 25 48 40 62 89 80 54 19 131 17 180-5zm4030-863c21-29 75-99 121-156 46-56 82-107 80-112-7-22-241-300-252-300-6 0-17 10-25 22-7 12-58 76-112 143s-99 127-99 134 26 45 58 84c32 40 86 109 121 155 34 45 64 82 66 82s21-24 42-52zm-4047-68c41-52 93-119 117-148 24-30 43-57 43-60 0-13-232-297-245-300-7-2-66 63-131 143-110 137-117 148-104 168 40 66 234 307 240 300 4-4 40-51 80-103zm2142-100c68-85 163-203 211-262s87-112 87-118-53-77-118-158-166-211-225-289c-58-78-110-144-116-147-5-3-59 59-120 139-61 79-165 210-231 291-66 80-120 149-120 153s50 70 111 147c61 76 132 166 158 198 46 60 144 180 182 226l21 24 18-24c10-14 74-95 142-180zm-107-4138c58-70 360-447 393-489l33-43-118-147c-66-82-170-214-232-295-62-82-115-148-119-148-4 1-50 58-102 128-52 69-153 196-224 282-71 85-131 160-133 167-3 7 13 34 34 60 22 26 51 62 64 79 91 117 361 444 367 444 4 0 21-17 37-38zM634 1730c64-80 116-148 116-151 0-4-25-37-55-74s-83-105-116-151c-34-46-67-84-73-84-7 0-23 15-36 33-13 17-66 84-117 148s-93 120-93 123c0 12 243 307 250 304 4-2 60-68 124-148zm4041 48c44-56 97-123 118-149l37-47-81-99c-45-54-99-124-122-155-22-32-45-58-51-58s-28 24-48 53c-20 28-73 97-117 152s-81 102-81 105c0 12 243 300 253 300 7-1 48-47 92-102zm74-628c14-8 25-102 16-132-8-22-34-31-51-17-8 6-14 30-14 54v43l-122 4c-68 3-127 1-132-3-14-12 17-52 143-183 130-135 163-189 169-278 6-76-2-101-44-148-28-31-47-41-89-50-117-24-217 28-245 128-15 56-13 64 16 60 20-2 29-12 40-43 24-70 89-106 167-91 43 8 72 40 86 92 22 81-20 155-179 319-64 66-126 134-138 152-21 30-29 82-15 97 10 9 376 6 392-4zm-4061-77c-3-76-4-78-28-78-23 0-25 5-30 50l-5 50-132 3c-74 1-133-1-133-6 0-17 42-65 155-182 70-71 123-135 139-168 87-173 8-314-176-312-24 1-59 9-78 18-42 21-89 85-97 135-5 34-4 37 19 37 19 0 28-9 45-49 26-63 61-86 130-86 46 0 57 4 84 32 26 26 33 42 37 85 7 83-26 136-183 298-73 75-140 151-149 168-17 32-21 64-9 75 3 4 98 7 210 7h204l-3-77z" fill="#fff"/></svg>