<svg version="1" xmlns="http://www.w3.org/2000/svg" width="500" height="792" viewBox="0 0 5000 7920"><path d="M0 3960V0h5000v7920H0V3960z" fill="#db0003"/><g fill="#fff"><path d="M0 3960V0h5000v7920H0V3960zm565 3387c66-122 121-236 123-254l3-32-128-3-128-3v-150l38-3c34-3 37-6 37-33v-29H300v30c0 27 3 30 30 30h30v160h-46c-44 0-45 1-42 28 3 24 7 27 46 30l42 3v449h85l120-223zm4091-21c73-133 124-238 122-250-3-20-10-21-130-24l-128-3v-159h35c32 0 35-2 35-30v-30h-211l3 28c2 21 9 28 31 30 27 3 27 4 27 82v79l-42 3c-38 3-43 6-43 28s5 25 43 28c31 2 42 8 43 20 1 9 2 22 4 27 1 6 3 99 3 208l2 198 41-3 41-3 124-229zM535 6623c39-50 91-118 117-151l48-60-122-151c-67-83-127-151-132-151-6 1-64 68-130 151l-118 149 54 68c30 37 85 107 122 155 38 48 73 86 80 84 6-2 43-44 81-94zm4071 5c38-51 93-121 122-157 29-35 51-68 50-72-8-22-242-299-251-298-16 1-237 283-237 302 0 8 7 20 15 27 9 7 63 75 121 151 58 77 107 139 108 139 2 0 35-41 72-92zm-3154 73c2-6 26-38 55-73 28-35 128-161 223-280l171-218-128-158c-70-88-174-220-231-295-56-76-107-137-112-137s-63 71-129 158c-65 86-168 218-229 292l-111 134 33 41c17 22 90 112 162 200 71 88 162 202 202 253 71 89 87 103 94 83zm2182-43c19-24 79-99 133-168s141-178 192-243c51-64 91-123 88-130s-50-68-105-135c-56-67-158-196-227-287s-129-165-133-164c-4 0-54 64-112 142-58 77-157 204-221 282-63 77-119 147-123 153-6 11 183 259 338 443 17 20 51 62 76 93s48 56 52 56 23-19 42-42zM1674 2122c120-151 215-279 212-285-2-7-60-80-128-163s-170-213-227-288-105-136-107-136c-1 0-51 64-110 143-86 114-261 333-342 429-13 15 5 40 179 255 288 356 280 347 294 331 7-7 110-136 229-286zm1947 246c18-24 39-50 46-58 210-257 373-472 367-482-4-7-55-71-114-143-58-71-144-179-190-240-114-150-151-195-160-195-4 0-55 64-113 141-59 78-159 207-224 286-65 80-118 150-118 155 0 11 456 576 466 577 3 1 21-18 40-41zM615 1700c63-79 114-148 113-152-3-8-193-250-226-287l-23-26-17 24c-9 14-63 83-119 155-57 71-103 132-103 135 0 13 243 302 251 299 5-2 61-68 124-148zm4074-25c107-136 109-140 93-161-83-109-214-274-226-283-11-9-21-2-52 41-21 29-73 97-116 151s-78 103-78 108c0 6 55 78 121 160 100 124 124 148 135 137 7-7 62-76 123-153zM640 1100c0-27-3-30-30-30h-30V911l43-3c34-2 43-7 45-25 3-19-3-23-42-28l-46-7V410h-86l-46 83C292 773 250 855 250 881v29h250v160h-35c-32 0-35 2-35 30v30h210v-30zm4029 14c24-5 31-12 31-30 0-17-6-23-27-26-28-3-28-3-28-83v-80l43-3c37-3 42-6 42-28s-4-24-45-24h-45V390h-85l-85 157c-47 86-102 188-122 226-21 38-38 80-38 93 0 23 1 23 128 26l127 3 3 78c3 71 1 77-17 77-37 0-51 12-51 41v29h69c38 0 83-3 100-6z"/><path d="M438 7413c-3-10-4-79-4-153l1-135 88-3c48-1 87 0 87 3 0 8-160 305-165 305-1 0-5-8-7-17zM4520 7272v-162h181l-47 88c-71 133-106 195-121 217-11 17-13-5-13-143zM330 848c0-10 68-141 134-258l31-55 3 77c2 42 2 114 0 159l-3 81-82 4c-56 2-83 0-83-8zM4400 825c0-8 25-63 56-123 79-149 98-182 107-182 8 0 10 281 1 304s-164 24-164 1z"/></g></svg>