<svg version="1" xmlns="http://www.w3.org/2000/svg" width="500" height="792" viewBox="0 0 5000 7920"><path d="M0 3960V0h5000v7920H0V3960z" fill="#db0003"/><g fill="#fff"><path d="M0 3960V0h5000v7920H0V3960zm583 3453c54-30 87-76 94-132 7-48-14-88-67-133l-40-35 40-32c52-42 80-97 80-158-2-121-94-202-231-203-217 0-316 237-153 367l37 30-45 45c-58 57-69 105-40 171 48 107 203 146 325 80zm4045 2c64-19 116-67 132-122 17-57-6-121-61-165l-39-31 34-23c21-14 45-46 62-79 22-46 26-64 21-106-17-139-167-223-319-177-23 7-59 30-82 54-97 97-85 222 31 313l26 21-41 36c-110 93-65 238 88 285 41 12 93 10 148-6zM513 6538c25-35 77-103 116-152s71-92 71-97-21-35-47-67c-27-32-79-97-118-145-38-47-74-86-80-86-5 0-63 67-128 150l-118 150 93 117c52 64 107 134 122 155 16 20 32 37 36 37 5 0 28-28 53-62zm1022-81c50-67 152-200 228-295 87-108 135-177 131-185-4-6-44-57-88-111-45-54-92-113-106-130-117-146-265-321-271-321-9 0-248 297-417 517l-43 56 108 134c60 73 165 206 233 295 69 90 127 163 130 163 3-1 46-56 95-123zm3064 64c23-33 75-101 117-152 41-51 73-96 72-100-6-15-234-288-244-292-9-5-233 265-241 290-2 6 34 57 79 114 46 58 99 126 118 152 19 25 40 47 46 47s30-27 53-59zm-904-74c49-67 152-200 229-295 97-121 135-176 129-185-29-38-291-359-371-454-52-62-98-111-102-108-5 3-36 42-70 86-34 45-68 89-76 98-31 38-268 338-286 364l-20 27 144 179c79 98 183 231 232 295s92 116 95 116c3-1 46-56 96-123zM2626 5338c59-79 146-190 193-248s103-126 123-152l38-46-211-259c-116-142-224-271-239-287l-28-28-80 98c-193 237-372 465-372 475 0 6 41 61 91 122 50 62 152 192 227 289 75 98 140 178 144 178s56-64 114-142zM1551 4278c63-84 137-180 164-213 99-118 175-217 175-226 0-5-36-53-79-107-131-161-290-354-329-401-20-24-38-48-40-52-12-29-20-21-313 351-157 199-159 201-159 214 0 7 39 60 88 118 108 132 196 244 293 370 41 54 77 98 80 98s57-69 120-152zm2157-10c60-81 160-208 221-283 62-75 114-141 117-148 2-7-11-31-29-52-19-22-89-107-156-190-199-245-275-335-282-335s-211 248-279 339c-19 26-68 88-108 139l-74 92 154 193c85 105 190 238 233 295 43 56 82 101 86 100 4-2 57-69 117-150zM2620 3223c85-114 277-354 337-425 16-18 22-10-230-318-43-52-110-134-149-182-39-49-75-88-79-88-8 0-459 559-459 570 0 3 47 63 105 134 58 70 162 202 231 292s129 162 133 160c4-3 54-67 111-143zM1537 2148c59-79 154-201 212-272 58-70 114-139 124-151 18-24 18-24-110-182-70-87-143-176-161-198s-65-79-104-127c-38-49-74-88-78-88-5 0-77 87-161 193-84 105-159 199-166 207-52 57-132 167-128 177 2 6 55 74 117 150 63 76 165 204 227 286 62 81 114 147 116 147 3 0 53-64 112-142zm2163-23c62-82 143-186 180-230 110-131 160-194 160-200 0-3-28-40-62-82-75-91-226-276-323-396-38-47-75-88-81-91-6-2-56 52-110 121s-104 131-109 137c-9 10-82 101-195 245-44 56-49 66-37 80 59 69 253 312 342 429 60 78 112 141 116 140 3-2 57-70 119-153zM619 1566c98-122 110-141 98-155-37-43-148-182-186-233-24-32-46-58-50-58-3 0-31 33-61 73-30 39-82 106-117 148-35 43-63 82-63 88 0 7 55 77 122 157 99 119 123 143 134 132 7-7 62-76 123-152zm3976 106c16-20 70-88 118-150l89-113-44-53c-24-30-79-99-122-155-44-55-82-101-85-101s-26 29-51 63c-24 34-78 103-118 154-50 62-71 96-65 105 16 27 236 288 242 288 3 0 19-17 36-38zM585 979c56-30 85-58 106-104 38-83 15-173-62-239-42-35-43-38-24-48 37-21 74-69 81-104 15-80-22-144-104-182-46-21-65-24-122-20-115 9-188 65-197 153-7 58 17 108 67 141l41 27-28 23c-15 13-31 23-35 24-4 0-19 20-33 43-27 48-34 123-14 174 15 40 67 92 114 114 57 26 158 25 210-2zm4065-16c74-30 129-110 130-187 0-54-34-120-81-158l-38-31 44-42c75-73 75-157-1-224-90-79-233-78-322 3-78 70-66 180 25 242l32 21-46 38c-54 45-73 86-73 155 0 155 169 249 330 183z"/><path d="M394 7386c-37-17-70-57-79-97-8-36 19-95 57-122 36-27 116-34 154-14 55 29 79 64 79 117 0 38-5 54-25 75-51 54-120 70-186 41zM405 7075c-51-18-102-73-111-120-15-81 41-162 128-186 101-27 200 50 200 156 0 73-38 125-109 151-48 17-58 16-108-1zM4475 7362c-73-47-94-112-53-171 67-98 213-90 263 15 23 49 13 92-30 134-30 29-43 34-92 37-45 3-65 0-88-15zM4474 7051c-137-64-117-263 30-300 77-19 154 17 192 91 21 40 14 120-13 156-47 63-139 86-209 53zM450 953c-109-37-158-113-131-203 12-42 67-96 107-106 43-11 120 2 153 25 78 56 85 179 13 244-36 33-106 52-142 40zM394 561c-46-28-64-59-64-112 0-120 161-171 252-79 30 30 38 45 38 75 0 46-32 100-70 120-41 21-118 19-156-4zM4485 926c-99-44-133-159-71-241 85-111 266-74 297 62 26 120-112 229-226 179zM4500 560c-19-5-49-24-67-44-27-29-33-44-33-81s6-52 34-82c30-33 39-37 93-41 71-5 114 13 143 61 63 103-42 218-170 187z"/></g></svg>