<svg version="1" xmlns="http://www.w3.org/2000/svg" width="500" height="792" viewBox="0 0 5000 7920"><path d="M0 3960V0h5000v7920H0V3960z" fill="#db0003"/><g fill="#fff"><path d="M0 3960V0h5000v7920H0V3960zm4589 3524c18-4 54-27 81-51 77-69 99-170 63-296-18-66-55-110-118-138-65-30-127-21-192 27-17 13-35 24-39 24-13 0 5-130 25-175 23-52 78-85 140-85 31 0 47 7 75 34 20 18 39 47 42 65 6 26 11 31 35 31 34 0 38-20 14-78-33-77-86-112-172-112-65 0-125 24-160 61-58 64-88 213-81 404 4 96 8 120 31 167 48 98 145 144 256 122zm-4048-57c93-49 137-176 105-305-20-82-35-106-94-143-42-27-54-30-109-27-51 3-70 10-108 37-25 18-48 31-51 28-6-6 13-129 25-160 27-69 101-115 166-103 42 8 94 58 102 97 7 35 16 42 43 34s25-31-6-93c-36-72-79-97-164-96-115 1-185 58-217 177-8 29-17 116-20 195-7 165 8 245 58 304 63 77 181 101 270 55zm3040-705c19-26 64-85 100-132 35-47 124-157 196-244 114-138 131-162 119-175-7-9-113-141-236-295-182-228-224-276-235-265-6 8-90 111-185 229-96 118-196 241-223 272l-49 58 109 137c61 76 165 211 232 301 67 89 125 162 129 161 4 0 23-21 43-47zm-2007-134c68-90 172-219 230-288s106-127 106-130c0-13-462-581-470-578-14 5-460 551-460 564 0 3 49 68 108 143 60 75 162 207 227 294 64 86 121 157 126 157 4 0 64-73 133-162zm3089-125c54-68 97-127 95-132-8-21-234-300-243-301-6 0-15 8-21 18-6 9-60 75-119 146-76 90-105 133-99 142 5 7 61 80 124 164l115 151 25-33c14-17 69-87 123-155zM460 6578c13-18 58-75 99-127 42-51 86-106 98-121l23-28-121-151c-67-83-125-151-130-151-11 0-239 281-239 295 0 5 25 42 56 80 31 39 83 107 116 153 33 45 63 82 67 82s18-15 31-32zm3196-1475c54-71 158-201 231-290l134-162-232-291c-128-159-235-290-238-289-8 0-455 550-459 563-1 6 32 54 74 106s143 184 225 293c83 108 154 197 159 197s53-57 106-127zm-2067-50c71-93 175-222 230-288 56-66 100-125 98-132-4-23-450-574-461-570-6 2-114 129-239 282-201 246-226 280-214 294 43 50 218 275 307 396 96 130 140 185 146 185 2 0 61-75 133-167zm1037-738c59-77 164-207 231-288 108-130 122-150 111-165-83-112-451-563-458-560-11 4-460 554-460 563 0 4 51 70 113 148s164 211 226 295c63 84 118 151 122 150 4-2 56-66 115-143zm1066-772c67-87 170-216 230-287 59-72 108-132 108-135 0-7-423-537-449-564-18-18-26-10-237 249-121 147-225 276-232 285-10 15 3 37 105 166 65 82 167 215 228 296 60 81 113 147 117 147s62-71 130-157zm-2208 133a12594.8 12594.8 0 0 1 321-406c78-94 132-167 128-174-4-6-77-99-163-206-85-107-187-235-225-283l-70-89-18 24c-11 13-114 140-231 282-116 142-211 264-210 271 1 6 55 79 120 161 66 82 166 213 224 292 58 78 107 142 109 142s9-6 15-14zm2212-1648c65-84 167-211 227-283 60-71 111-136 114-142 5-12-443-583-457-583-7 0-429 512-450 546-12 20-4 33 106 170 65 82 168 216 229 297 60 81 110 147 111 147s55-69 120-152zm-2116 19c47-61 149-189 228-284 78-96 142-178 142-184 0-5-71-98-158-207-87-108-166-209-177-223-70-91-112-139-122-139s-91 92-173 196c-48 61-245 299-267 324-13 14-23 29-23 35 0 5 43 64 96 130s154 198 226 293c71 94 132 172 136 171 4 0 45-50 92-112zm3130-418c63-77 116-146 118-153s-25-49-60-93c-35-43-88-112-118-151-30-40-57-71-61-70-3 2-59 70-124 152-112 140-118 149-104 171 21 34 223 285 229 285 3 0 57-63 120-141zm-4060-39l118-144-40-50c-21-28-73-96-115-151s-79-104-83-108c-4-5-31 22-61 60-29 37-85 106-123 151-64 77-69 85-56 105 29 47 226 286 233 284 5-1 62-67 127-147zm4018-542c81-38 115-113 131-288 26-298-46-434-231-435-58 0-72 4-109 30-63 44-99 118-99 204 0 127 39 203 124 242 71 32 158 19 212-32 13-13 24-17 28-10 11 17-14 143-36 182-26 47-99 82-148 72-41-8-95-62-103-103-6-26-11-31-29-28-32 4-34 42-6 97 27 53 63 81 115 91 51 9 99 2 151-22zm-4115-12c138-41 183-157 176-444-4-113-7-133-30-177-46-90-142-133-248-111-42 8-60 19-96 57-48 52-65 97-65 180 0 86 24 151 71 193 48 44 77 56 132 56 46 0 114-27 136-53 25-31 34-19 28 36-8 79-27 135-57 167-29 31-100 55-136 46s-82-54-94-91c-9-27-17-35-36-35-30 0-32 34-5 88 24 47 50 70 98 88 49 17 70 17 126 0z"/><path d="M4470 7417c-79-27-118-192-67-282 63-111 200-114 259-5 15 28 19 51 16 117-4 96-20 126-88 161-49 25-69 26-120 9zM356 7369c-68-53-91-183-48-266 44-83 136-116 201-71 65 44 76 69 76 171 0 79-3 96-22 123-45 63-153 85-207 43zM4514 746c-66-29-100-109-89-206 9-77 35-117 92-142 107-47 190 12 209 149 11 86-32 170-103 199-40 17-69 17-109 0zM429 707c-19-12-44-42-57-67-20-39-23-54-17-115 7-86 28-124 85-153 94-49 184-2 210 110 17 69 8 130-25 174-57 74-132 94-196 51z"/></g></svg>