<svg version="1" xmlns="http://www.w3.org/2000/svg" width="500" height="792" viewBox="0 0 5000 7920"><path d="M0 3960V0h5000v7920H0V3960z" fill="#db0003"/><g fill="#fff"><path d="M0 3960V0h5000v7920H0V3960zm484 3603c3-10 32-146 66-303 80-371 77-360 100-360 16 0 20-7 20-30v-30H510v30c0 23 4 30 20 30 23 0 23 0 9 72l-11 56-52 4c-117 7-125 2-141-89-7-42-6-43 20-43 23 0 26-4 23-27-3-28-4-28-85-31l-83-3v31c0 25 4 30 25 30 17 0 26 7 30 23 3 12 22 96 44 187 21 91 53 228 71 305 17 77 33 146 35 153 7 19 63 15 69-5zm4101-15c3-13 26-120 51-238 97-451 87-415 112-418 19-3 23-9 20-30-3-27-4-27-83-27-80 0-80 0-83 28-3 22 1 27 19 27 21 0 21 3 16 56-3 30-10 61-16 68-12 14-139 20-159 7-14-8-43-117-34-126 3-3 16-5 29-5 21 0 24-4 21-27l-3-28h-170l-3 28c-3 23 0 27 23 27 17 0 28 7 33 23 5 12 42 165 83 339l74 318h32c26 0 34-5 38-22zM382 6723c11-10 27-31 35-47l16-30 18 37c35 67 122 88 185 45 42-29 54-56 54-123 0-64-24-133-70-201-45-65-164-184-186-184s-87 59-147 133c-68 86-108 173-114 250-5 61-4 65 27 100 50 57 131 66 182 20zm4088-1c14-10 33-34 42-52l17-33 10 25c12 33 63 75 101 83 40 9 110-25 133-64 37-63 12-180-61-287-49-72-164-184-189-184-23 0-133 117-185 195-46 72-68 139-68 213 0 49 3 58 35 88 51 48 112 54 165 16zM2621 4373c137-133 225-249 288-378 123-250 107-414-49-499-125-68-286-9-335 123-24 64-32 69-43 28-52-188-295-238-425-87-134 157-15 497 270 771 89 86 163 149 175 149 5 0 59-48 119-107zM568 1665c105-111 155-206 156-299 1-58-2-68-28-95-15-16-41-35-57-41-55-23-139 12-160 67l-9 25-23-33c-52-78-136-88-205-24-36 33-37 35-35 102 1 79 18 124 79 209 50 72 159 174 185 174 9 0 53-38 97-85zm4058 13c106-109 146-172 170-263 26-95 14-142-45-182-68-46-164-18-192 56l-10 26-21-36c-23-42-73-69-123-69-51 0-111 56-119 113-8 55 12 131 55 203 38 65 184 214 209 214 8 0 43-28 76-62zM369 1134c38-8 43-40 8-53-23-9-23-11-14-70l10-60 41-6c22-4 61-5 86-3l45 3 12 55c15 64 11 80-17 80-17 0-21 5-18 28 3 26 5 27 68 30 87 4 112-3 108-31-2-14-11-23-26-25-13-2-27-13-31-25-5-12-39-148-75-302-93-391-82-355-116-355-17 0-30 1-30 3 0 1-27 126-61 277-33 151-66 300-72 330-9 41-18 58-34 65-28 12-31 51-5 58 27 7 86 8 121 1zm4109-31c2-16-4-26-21-34-23-11-24-12-13-72l11-62h84c94 0 88-5 105 87 6 33 4 37-16 40-17 2-24 11-26 31l-3 27h90c81 0 91-2 91-18 0-23-19-42-41-42-18 0-25-23-110-385-74-312-65-287-102-283l-32 3-70 330c-63 297-73 331-93 340-21 9-30 44-15 59 4 4 41 5 83 4 69-3 75-5 78-25z"/><path d="M436 7393c-4-21-18-84-32-139-13-56-24-114-24-128 0-25 2-26 65-26 55 0 65 3 65 17 0 31-52 298-60 306-4 5-11-9-14-30zM4506 7270c-20-83-36-158-36-165 0-12 16-15 70-15 49 0 70 4 70 13-1 20-59 309-64 314-2 2-20-64-40-147zM390 871c0-33 61-324 66-318 2 2 14 46 25 98 25 113 49 223 49 226 0 2-31 3-70 3-38 0-70-4-70-9zM4470 856c0-19 50-286 57-306 5-15 68 226 75 285l3 30-67 3c-55 2-68 0-68-12z"/></g></svg>