<svg version="1" xmlns="http://www.w3.org/2000/svg" width="500" height="792" viewBox="0 0 5000 7920"><path d="M0 3960V0h5000v7920H0V3960z" fill="#db0003"/><g fill="#fff"><path d="M0 3960V0h5000v7920H0V3960zm4578 3533c15-10 37-39 50-64 22-43 23-51 20-290l-3-246-28-41c-69-99-185-95-254 9l-27 41-1 247c0 244 0 246 25 289 33 58 80 83 143 79 27-3 60-13 75-24zm265 8c19-8 27-17 27-36 0-21-5-25-30-25h-30v-650h-70v358c0 197 3 362 8 366 8 9 55 3 95-13zm-4493-11c43-12 93-62 109-109 7-21 11-117 11-256 0-216-1-222-25-271-60-120-198-124-262-8-19 36-22 58-26 254-3 126-1 235 5 263 11 55 48 104 93 123 37 16 50 17 95 4zm303-11c30-8 37-15 37-34 0-21-5-25-30-25h-30l-2-322-3-323-32-3-33-3v721h28c15 0 44-5 65-11zm2769-655c52-27 105-88 124-141 10-29 21-53 24-53s13 21 22 48c62 173 253 223 391 102 65-58 81-98 80-202-1-140-49-264-164-418-64-87-197-226-281-294l-48-38-49 41c-27 23-82 77-123 120-201 214-303 406-315 596-7 97 11 141 79 199 73 63 182 80 260 40zm-2163 1c69-21 133-82 157-152 10-29 21-53 24-53s13 23 23 51c38 107 141 177 245 166 88-9 175-73 208-154 18-41 19-163 4-228-20-82-93-224-157-310-68-89-191-218-270-283l-52-43-73 64c-80 70-198 204-266 300-122 174-182 396-137 505 28 66 90 118 164 138 61 17 69 17 130-1zm3508-138c107-39 110-197 6-347-32-48-146-165-175-181-13-7-30 4-77 51-126 124-191 244-191 353 0 59 10 79 54 106 65 41 156 18 187-48l16-31 24 37c23 37 79 74 109 72 8 0 29-6 47-12zm-4140-43c83-62 63-201-51-351-50-66-142-153-162-153-7 0-48 38-92 85-100 106-152 202-159 297-4 41-1 73 6 87 19 35 71 61 121 61 51 0 78-18 109-69l20-35 9 25c6 13 20 34 33 46 52 48 108 50 166 7zm1742-659c56-28 90-69 116-138 20-53 26-51 45 7 13 39 77 119 112 137 9 5 41 14 70 20 71 13 131-2 193-49 69-53 95-106 95-200 0-199-111-403-340-626-65-63-127-119-139-125-19-11-32-1-140 106-141 141-228 256-287 378-54 111-75 189-76 280-1 74 7 99 50 150 33 40 58 56 117 78 62 22 117 16 184-18zm1593-799c73-48 99-96 105-194 10-144-50-291-192-478-56-72-215-232-272-272l-31-22-64 55c-148 129-308 338-368 482-51 122-64 220-44 321 7 36 75 103 129 128 66 31 134 31 200 0 63-30 87-56 123-135l29-63 21 59c57 157 225 212 364 119zm-2665 17c51-23 100-78 121-135 11-29 23-53 27-53s16 24 27 54c35 92 131 161 224 161 72 0 187-76 223-148 18-35 25-151 12-211-27-127-83-234-198-377-92-116-261-274-292-274-21 0-235 221-301 310-71 96-142 236-165 325-8 32-15 94-15 136 0 65 4 82 26 114 74 110 199 149 311 98zm333-1749c192-199 296-396 307-576 7-107 2-128-45-180-77-85-189-110-288-64-57 27-92 67-127 146l-24 53-18-52c-25-69-66-116-128-148-44-22-60-25-114-20-82 6-159 54-200 124-24 42-27 57-27 133 0 99 19 171 74 279 67 134 185 276 343 413l68 59 47-39c26-22 85-80 132-128zm2007 125c133-112 282-296 353-435 59-115 75-176 75-286 0-91-2-99-30-139-56-78-173-124-261-100-72 19-123 65-158 142-31 68-46 85-46 52-1-34-55-117-98-150-106-81-243-62-331 44-38 46-51 89-51 168 1 207 145 450 399 672 46 40 87 73 92 73 4 0 29-18 56-41zm-984-861c216-217 319-389 349-581 16-105 6-155-44-212-49-56-104-85-172-92-102-11-205 60-243 166-17 50-33 66-33 36 0-9-13-42-29-73-77-153-275-175-393-44-50 55-61 98-56 206 8 138 65 267 194 431 96 123 260 275 297 275 11 0 66-47 130-112zm1066-821c159-157 273-325 326-482 10-27 20-91 22-140 5-78 3-96-15-130-26-53-55-78-122-109-63-29-109-32-170-11-81 29-132 87-165 189-7 25-17 13-39-47-61-165-268-204-395-75-55 56-65 83-65 183 0 144 49 267 173 432 57 76 197 219 275 281 47 37 42 40 175-91zm-2207 76c171-151 292-304 368-466 38-80 70-203 70-269 0-89-46-158-133-201-131-64-275-6-329 133-12 33-25 60-28 60s-11-19-18-42c-20-65-48-104-98-137-84-55-181-52-270 10-158 109-130 377 67 639 64 85 293 310 315 310 8 0 33-17 56-37zm-956-357c147-152 213-324 153-400-26-33-70-56-107-56-38 0-90 36-112 77l-17 32-16-35c-33-67-112-92-174-54-50 30-66 62-65 131 1 75 33 147 103 235 51 65 136 144 154 144 5 0 42-33 81-74zm4167-8c96-101 156-212 164-305 5-58 4-62-29-98-29-32-42-38-84-42-59-5-110 22-127 67-12 31-27 40-27 16 0-7-18-30-40-50-63-57-140-48-187 23-62 91-6 246 140 389 47 45 91 82 98 82 8 0 49-37 92-82zM631 1047c19-12 44-42 57-67 22-44 23-52 20-292-3-231-4-248-24-274-52-70-117-89-187-55-29 14-51 35-68 64-24 41-24 46-24 282 0 224 1 243 21 280 42 82 134 110 205 62zm4160 0c48-32 77-80 84-140 4-29 5-142 3-252-3-180-5-203-24-235-64-110-214-106-270 7-17 33-19 66-22 255-4 255 2 284 63 345 37 38 48 43 87 43 30 0 56-7 79-23zM312 738c2-178 1-338-1-357l-3-33-51 6c-28 3-57 12-65 20-20 20-8 46 22 46 37 0 40 34 33 351-3 152-3 280 0 283 4 3 19 6 34 6h28l3-322zm4160 150c3-290-2-532-12-542-5-5-29-3-62 6-45 13-53 18-53 39 0 19 6 25 26 27 25 3 27 7 33 75 3 40 5 153 3 252s-2 210 1 248c4 66 4 67 33 67h29l2-172z"/><path d="M4445 7446c-40-40-47-91-43-320 4-234 10-262 67-286 26-11 35-10 57 5 50 33 55 64 52 327l-3 240-33 29c-39 35-65 37-97 5zM283 7440c-12-5-30-21-40-36-16-25-18-56-21-256-3-210-2-231 17-272 35-79 97-85 141-14 18 30 20 51 20 261 0 244-6 279-51 311-26 18-34 19-66 6zM517 1009c-42-25-47-56-47-301 0-215 2-236 20-266 27-44 59-58 96-41 56 27 64 61 64 289 0 116-5 222-11 244-19 70-73 103-122 75zM4670 992c-38-38-42-75-38-324 3-192 5-209 24-235 26-34 68-52 92-37 9 6 25 23 36 38 19 25 21 44 24 244 3 238-4 289-46 322-34 27-59 25-92-8z"/></g></svg>