<svg version="1" xmlns="http://www.w3.org/2000/svg" width="500" height="792" viewBox="0 0 5000 7920"><path d="M0 3960V0h5000v7920H0V3960z" fill="#db0003"/><g fill="#fff"><path d="M0 3960V0h5000v7920H0V3960zm533 3649c21-5 57-29 81-52 61-58 76-114 83-302 9-234-23-322-134-371-116-51-225-13-286 101-29 53-30 178-4 247 34 88 135 148 217 129 40-9 96-36 105-51 33-54 31 102-2 167-23 44-83 83-129 83-44 0-96-38-119-88-16-34-24-42-45-39-21 2-25 6-22 32 13 115 127 180 255 144zm4123-27c103-53 134-143 134-385 1-163-17-234-71-288-44-44-100-63-177-60-66 2-100 18-145 72-57 66-71 176-37 291 23 80 105 138 196 138 40 0 60-7 103-35l54-36-5 69c-9 123-65 192-154 192-52 0-106-41-126-96-11-31-16-34-38-29-14 4-26 8-27 9-2 1 4 25 12 52 15 52 60 105 105 123 36 16 130 6 176-17zM398 6773c13-8 31-28 40-44 10-16 19-29 22-29 3 1 14 15 25 32s37 40 58 51c33 17 44 18 77 8 21-6 52-27 69-46 26-30 31-44 31-88 0-70-22-136-65-201-37-56-177-196-196-196s-120 104-170 175c-51 72-89 171-89 232 0 102 112 163 198 106zm4097-13c18-11 38-34 45-50l13-31 17 29c43 71 121 93 187 52 105-64 75-231-73-404-35-40-80-83-100-95l-36-21-28 20c-29 21-90 90-144 163-71 96-106 240-72 292 41 62 129 83 191 45zm-3151-38c56-32 112-104 122-160 8-39 15-33 34 25 40 129 198 200 322 145 43-19 96-65 124-107 41-63 33-217-17-345-47-116-111-210-227-332-103-107-215-208-231-208-15 0-192 174-251 246-157 195-230 362-231 526-1 67 3 84 26 123 66 113 212 152 329 87zm2069 8c76-29 132-92 151-174 8-34 19-26 36 28 25 77 112 148 198 162 108 17 248-79 271-185 15-69 14-99-5-184-41-186-229-448-437-606l-57-44-68 60c-84 75-212 219-264 298-77 114-121 213-143 320-28 139-16 198 56 267 76 75 165 94 262 58zM1621 4389c211-212 326-421 336-614 5-79 3-96-15-132-62-121-223-170-340-103-46 27-112 98-112 121 0 4-5 20-11 36l-11 28-19-50c-36-97-133-165-233-165-79 0-182 67-224 144-23 44-22 202 2 271 67 190 232 406 415 546l63 49 32-23c17-12 70-61 117-108zm2069 15c257-249 391-508 365-710-18-146-204-240-342-173-55 26-116 96-132 150l-13 43-29-62c-81-168-270-202-400-72-59 59-73 105-66 215 9 167 107 348 285 532 82 84 197 183 212 183 6 0 59-48 120-106zM1598 2172c134-135 225-258 287-387 52-110 65-161 65-263 0-73-3-84-32-128-61-90-201-133-300-91-58 24-122 95-138 150-14 52-21 51-39-3-28-90-129-160-229-160-89 0-196 69-229 148-9 21-14 67-14 116 1 143 49 258 181 431 97 127 281 304 318 305 8 0 66-53 130-118zm2055 31c88-83 180-191 248-288 96-137 158-320 146-428-15-119-115-207-240-210-104-2-200 66-233 166l-17 50-27-59c-33-71-78-115-143-139-116-43-263 22-311 137-25 59-21 175 10 266 31 95 69 164 147 267 95 125 289 313 325 314 8 1 50-34 95-76zM583 1700c154-164 201-338 110-407-30-23-47-28-89-27-58 0-84 16-112 69l-15 30-14-30c-47-99-183-95-236 6-44 84 18 234 156 372 73 74 90 86 106 78 10-6 52-46 94-91zm4085-20c123-128 187-313 131-384-27-35-70-56-112-56-39 0-97 35-112 68-13 29-23 28-37-3-16-36-89-69-135-60-48 9-99 60-109 109-19 105 92 297 230 398l40 28 35-32c20-18 51-49 69-68zM551 1189c83-28 141-126 141-238 0-76-30-166-65-198-73-67-185-72-266-11-14 10-28 15-32 11-12-12 6-135 25-170 34-67 123-100 183-69 33 16 73 72 73 100 0 11 9 16 30 16 35 0 39-19 15-78-57-136-235-152-338-31-43 50-54 87-69 237-19 193 9 322 85 387 61 53 143 69 218 44zm4105-32c61-31 113-134 114-223 1-124-58-218-156-249-64-20-110-12-174 31l-35 24-3-36c-5-50 14-131 38-164 11-16 41-36 65-46 38-14 52-15 85-5 42 12 90 68 90 104 0 15 7 18 33 15 29-3 32-6 29-33-6-52-50-115-95-136-120-54-260 12-301 140-37 115-39 336-5 456 13 48 80 116 130 133 44 15 147 9 185-11z"/><path d="M400 7278c-19-13-45-39-58-58-21-31-23-44-20-122 3-81 5-89 33-118 38-40 57-50 105-56 64-8 107 17 135 78 63 135 5 282-116 295-35 4-51 0-79-19zM4529 7280c-76-21-119-88-119-188 0-80 19-123 66-156 30-20 51-26 93-26 48 0 57 4 85 34 37 38 56 93 56 161 0 109-92 199-181 175zM435 1133c-58-15-104-98-105-186 0-101 53-175 132-184s143 44 159 133c18 96-13 193-71 221-32 15-89 23-115 16zM4462 1086c-32-28-62-107-62-167 0-132 125-221 220-156 57 37 75 80 75 172 0 68-4 85-23 113-31 43-71 62-131 62-38 0-56-6-79-24z"/></g></svg>