<svg version="1" xmlns="http://www.w3.org/2000/svg" width="500" height="792" viewBox="0 0 5000 7920"><path d="M0 3960V0h5000v7920H0V3960z"/><path d="M0 3960V0h5000v7920H0V3960zm4630 3575c35-18 55-43 79-95 28-60 27-80-2-80-19 0-26 8-36 39-6 22-27 53-46 70-30 26-44 31-89 31-62 0-100-24-122-76-37-89 5-171 176-348 130-134 160-176 160-221v-25h-410v81c0 78 1 80 23 77 19-3 23-11 27-53l5-50 133-3c110-2 132 0 132 12 0 20-36 63-157 187-127 131-158 188-158 296 0 77 13 106 68 147 48 35 158 41 217 11zm-4086-8c40-22 78-80 92-139 5-25 3-28-18-28-19 0-28 10-45 49-61 145-263 110-263-44 0-69 47-141 187-286 135-140 163-179 163-224v-25H249l3 78c3 69 5 77 23 77 17 0 21-8 25-50l5-50 133-3c113-2 132 0 132 13 0 18-43 68-166 195-57 58-103 116-120 150-62 125-36 254 61 296 50 22 153 17 199-9zm-40-888c121-130 176-237 162-313-8-43-65-96-104-96-35 0-88 33-97 59-3 12-10 21-14 21-12 0 7-107 24-141 8-15 15-30 15-34 0-3-29-5-64-5h-64l18 48c33 89 35 179 2 106-15-31-75-58-111-49-37 9-80 53-87 90-8 44 9 100 53 173 44 72 168 212 188 212 7 0 43-32 79-71zm2083-15c341-353 442-628 286-776-35-34-92-58-136-58-18 0-57 12-86 26-54 27-87 66-98 117s-28 24-25-39c5-92 39-202 89-295 2-4-55-6-127-6s-129 3-127 6c25 44 61 137 72 185 19 87 23 168 8 173-7 3-13-3-13-13 0-9-12-37-26-62-30-50-104-92-164-92-82 1-176 78-200 166-28 100 35 276 160 444 66 88 276 310 293 310 6 0 48-39 94-86zm1999 34c114-122 170-212 180-291 5-34 1-49-18-77-34-50-70-65-120-51-28 9-45 23-60 47-11 19-22 34-25 34-9 0 10-97 28-139 10-24 19-45 19-47s-29-4-65-4-65 1-65 3c0 1 9 25 19 52 17 44 26 99 22 130-1 6-8-5-16-23-17-39-74-67-114-57-38 9-80 54-87 92-14 76 43 186 161 312 37 39 73 71 80 71s34-24 61-52zM2590 2258c-41-88-62-176-58-250 3-61 4-62 15-33 39 95 92 136 183 143 50 4 66 0 103-21 51-30 92-87 107-150 23-90-21-222-124-376-64-94-215-267-288-331l-38-32-43 36c-55 45-165 167-234 257-98 130-155 243-174 345-26 141 73 274 202 274 84-1 169-60 184-130 12-53 25-44 25 18 0 73-32 200-65 260-14 24-25 46-25 48s58 4 129 4h130l-29-62zM530 1788c0-2-9-27-20-56s-20-69-20-90c1-35 1-36 13-14 35 61 117 75 166 28 58-56 51-131-22-246-60-92-168-203-191-194-30 12-165 176-197 240-43 86-47 130-17 174 13 19 39 40 60 48 33 13 41 12 75-4 21-11 42-29 48-41 5-13 13-23 17-23 12 0-2 80-23 129-11 24-19 45-19 47s29 4 65 4 65-1 65-2zm4090-3c0-3-9-23-19-44-24-45-40-159-19-127 33 51 57 66 100 66 103-1 140-106 79-224-36-67-106-156-168-210l-44-39-51 49c-115 112-188 233-188 313 0 36 6 49 34 77 54 54 127 46 166-19l20-32v37c0 21-9 61-20 90s-20 56-20 61c0 4 29 7 65 7s65-2 65-5zM648 1013c-3-70-5-78-23-78-17 0-21 8-23 45-2 25-7 49-11 53-11 11-257 15-267 5-10-11 38-71 158-194 112-116 151-178 164-261 15-102-37-183-130-204-86-19-143-5-191 45-59 61-80 159-30 140 6-3 21-27 32-53 24-57 57-82 116-88 86-9 153 58 144 143-8 74-47 133-184 275-135 140-163 179-163 224v25h411l-3-77zm4079 17c2-82-4-102-30-98-19 3-23 11-27 53l-5 50-132 3c-114 2-133 0-133-13 0-17 37-61 170-200 121-126 145-172 145-277 0-61-4-82-21-105-60-83-218-99-293-30-28 26-60 93-61 125 0 39 39 24 55-21 16-48 33-67 72-84 97-40 193 21 193 123 0 69-44 139-166 264-163 168-207 234-177 264 4 3 97 5 207 4l201-3 2-55z" fill="#fff"/></svg>