<svg version="1" xmlns="http://www.w3.org/2000/svg" width="500" height="792" viewBox="0 0 5000 7920"><path d="M0 3960V0h5000v7920H0V3960z"/><path d="M0 3960V0h5000v7920H0V3960zm551 3619c45-23 75-59 90-110 15-50 7-71-28-67-21 2-29 10-33 33-15 71-57 105-130 105-77 0-130-47-130-115 0-73 42-117 130-136 46-10 50-13 50-39s-3-28-51-32c-117-12-179-122-131-231 28-64 71-89 140-84 38 3 59 10 78 28 33 31 54 71 54 103 0 19 7 27 24 32 47 11 57-14 34-89-28-92-140-151-242-128-110 25-171 99-171 207 0 74 32 130 101 173l44 29-30 12c-17 7-46 31-65 53-134 156 72 355 266 256zm4082 15c69-35 107-88 107-149 0-32-3-35-27-35s-30 6-43 47c-18 56-52 83-112 90-55 6-101-15-128-60-25-41-25-81 0-121 23-38 47-52 115-70 42-10 50-16 53-38 3-27-16-38-71-38-16 0-41-7-56-16-112-66-97-243 23-289 44-17 48-17 91 0 46 17 95 72 95 107 0 34 12 48 41 48 27 0 29-3 29-35 0-98-95-185-203-185-126 0-220 89-220 209 0 31 5 67 13 81 18 36 70 89 104 107l30 16-36 18c-135 69-134 238 1 309 46 25 149 27 194 4zm20-944c59-68 117-181 117-227 0-70-48-123-110-123-43 1-78 19-97 51-13 22-14 21-10-27 2-28 11-65 20-84 10-18 17-37 17-41s-29-8-65-8-65 2-65 3c0 2 7 20 15 41 21 49 35 124 24 131-5 3-9 0-9-6s-12-22-26-35c-34-32-100-34-136-5-89 69-47 204 116 377l78 83 42-37c22-21 62-62 89-93zm-4117 10c112-134 151-230 121-303-16-38-59-67-99-67-32 0-85 34-93 59-3 12-10 21-15 21-13 0 0-80 21-129 11-24 19-45 19-47s-29-4-65-4-65 2-65 4 9 23 20 47 19 64 19 89v45l-15-27c-16-31-61-58-94-58-55 0-110 61-110 122 0 69 116 253 209 331l33 27 27-19c15-11 54-52 87-91zm2074 3c277-293 389-529 319-678-41-87-137-146-212-129-78 16-135 62-158 127-18 52-29 46-29-15 0-71 24-168 60-244 17-34 30-63 30-65s-58-4-129-4h-129l23 45c49 98 91 299 66 315-6 3-15-6-21-22-21-57-36-77-78-104-88-56-175-47-247 26-60 60-81 129-65 217 20 106 94 246 203 383 58 72 240 255 253 255 7 0 58-48 114-107zm10-2097c0-6-7-20-16-31-39-52-96-325-67-325 5 0 18 22 29 48 35 81 132 134 217 118 50-9 116-62 145-116 21-40 23-55 19-125-5-96-34-171-114-295-60-92-176-230-272-324-59-58-60-59-85-43-37 25-231 240-288 321-97 137-148 264-148 365 0 103 83 205 177 218 88 12 177-41 209-122 21-57 34-57 34-2 0 69-28 176-64 253l-34 72h129c89 0 129-4 129-12zm-4-2208c-45-69-102-306-78-330 5-5 21 15 38 49 24 46 38 62 78 82 100 51 200 24 263-71 26-38 28-50 28-137 0-92-2-99-42-181-59-122-151-246-285-384l-116-121-87 85c-221 217-355 430-371 589-5 46-2 67 16 109 40 93 135 153 213 136 79-17 149-74 162-134 11-48 25-35 25 23 0 86-30 186-88 300-2 4 55 7 127 7h131l-14-22zM519 1805c-24-54-38-152-21-141 7 4 12 13 12 20 0 39 85 72 134 52 78-32 89-136 25-241-38-64-117-158-168-201l-34-28-69 72c-113 119-168 217-168 300 0 48 54 104 102 104 46 0 74-16 99-55l21-32-6 58c-4 32-13 72-21 87-24 46-20 50 49 50h65l-20-45zm4101 43c0-2-9-27-20-56s-20-71-20-95l1-42 14 32c14 34 59 63 97 63 29 0 78-32 94-62 42-75-18-206-162-355l-65-68-75 78c-169 175-211 307-122 382 26 22 39 26 71 22 39-5 87-40 87-63 0-7 5-16 11-20 17-10 2 91-21 144l-19 42h65c35 0 64-1 64-2zM569 1169c95-53 133-175 85-270-16-31-75-85-103-94-24-7-28-25-7-25 8 0 35-19 61-42 147-135-4-344-208-287-72 20-137 98-137 164 0 24 3 26 32 23 28-3 33-8 39-36 18-90 130-128 210-71 52 37 63 125 22 172-23 26-91 57-125 57-25 0-28 4-28 35 0 35 0 35 46 35 82 0 138 53 150 142 11 84-60 170-139 170-65 0-132-57-146-123-6-30-11-34-40-37l-34-3 7 47c14 108 106 179 218 171 33-3 73-14 97-28zm4054 14c60-31 86-56 106-104 46-106 6-214-98-268l-33-18 31-12c44-19 99-83 107-126 21-112-71-205-201-205-109 0-192 66-198 156-2 37-1 39 31 42 29 3 32 1 32-26 0-55 66-112 130-112 99 0 159 94 116 179-20 37-54 59-116 72-46 10-50 13-50 39s3 28 51 32c86 9 149 75 149 157-1 82-55 148-129 158-69 9-145-52-157-128-6-35-10-39-35-39-27 0-29 3-29 40 0 44 26 105 56 132 53 47 176 63 237 31z" fill="#fff"/></svg>