<svg version="1" xmlns="http://www.w3.org/2000/svg" width="500" height="792" viewBox="0 0 5000 7920"><path d="M0 3960V0h5000v7920H0V3960z"/><path d="M0 3960V0h5000v7920H0V3960zm660 3555c0-62-1-65-24-65-21 0-25 5-28 38l-3 37-90 3c-49 2-118 0-153-3l-62-7 29-37c111-139 227-378 266-543l13-58h-33c-32 0-34 2-45 53-31 136-119 317-237 490-41 60-73 118-73 132 0 22 4 24 53 27 28 2 127 2 220 0l167-3v-64zm4064 59c3-9 6-38 6-65 0-49-1-50-27-47-25 3-28 8-31 42l-3 39-146-7c-81-3-149-8-151-11-2-2 9-21 26-43 94-118 205-334 247-478 33-112 32-116-6-112-30 3-33 6-50 73-30 115-79 224-174 382-32 54-56 83-70 85-13 2-19 10-18 23 1 10-7 31-18 46-10 15-19 41-19 58v31h214c186 0 215-2 220-16zM1654 6520c240-287 294-504 159-632-32-31-91-58-125-58-79 0-169 63-190 131-32 107-39-35-8-150 11-40 32-95 45-122 14-26 25-50 25-53 0-2-58-4-129-4h-129l33 72c36 80 51 132 61 222 7 68-8 96-26 47-30-84-87-131-171-140-44-4-63-1-96 15-46 24-89 71-111 122-22 53-12 170 23 250 55 129 204 330 350 469l66 64 81-79c44-43 108-113 142-154zm1994 126c133-138 223-259 283-381 79-159 80-270 1-357-47-52-80-68-144-68-85 0-136 32-174 109-37 75-49 67-39-27 9-82 39-183 71-239 14-24 22-43 19-43-38-3-248 0-251 3-2 2 8 28 22 57 33 69 64 190 64 252 0 56-14 63-30 14-26-81-94-125-191-126-42 0-65 6-90 23-43 29-96 107-105 155-21 111 61 301 209 487 58 72 230 245 243 245 6 0 57-47 112-104zm944 25c114-124 171-236 154-305-11-46-58-86-101-86-47 0-71 14-95 53l-20 32v-45c0-25 9-65 20-89s20-47 20-52-30-9-66-9c-59 0-65 2-59 18 26 58 46 128 43 151-3 26-3 26-25-11-40-68-134-69-178-2-51 78 4 210 149 362 32 34 65 62 72 62s45-36 86-79zm-4087-2c123-131 182-253 155-323-28-75-111-99-169-50-17 14-31 32-31 40s-4 14-10 14c-15 0 14-145 31-156 5-3 9-11 9-17 0-8-22-12-65-12-36 0-65 3-65 6 0 4 8 26 19 50 22 52 35 129 22 129-5 0-12-9-16-20-20-62-112-80-163-32-58 54-52 132 19 243 43 67 165 199 185 199 6 0 42-32 79-71zm3165-2107c0-1-14-29-30-62-17-33-37-88-45-122-17-72-20-178-5-178 6 0 10 5 10 12 0 34 45 100 83 123 84 48 165 42 233-18 153-134 81-382-204-700-42-47-99-105-125-128l-49-42-80 79c-303 300-433 576-344 728 66 112 174 143 281 81 40-23 85-87 85-120 0-9 6-15 13-12 30 10-3 199-54 298-16 32-29 60-29 61 0 2 59 3 130 3 72 0 130-1 130-3zm-2110-6c0-2-13-30-29-62-16-33-36-89-45-125-16-66-21-160-9-172 3-4 16 16 27 45 15 38 33 60 64 83 39 27 52 30 117 30 66 0 77-3 112-31 48-38 93-124 93-179 0-104-64-249-175-397-75-99-261-298-279-298s-223 213-281 292c-70 95-121 182-146 247-27 70-36 175-19 226 16 47 75 114 117 132 98 40 223-13 256-109 19-55 32-39 29 36-2 72-39 197-74 254l-20 32h131c72 0 131-2 131-4zm1057-1036c-20-34-61-136-72-179-19-78-23-173-7-178 6-3 12 3 12 12 0 60 81 135 161 150 103 19 211-68 233-187 18-97-53-269-180-438-81-108-252-290-272-290-7 0-53 42-104 93-334 339-437 621-281 769 31 30 91 58 124 58 76 0 171-65 190-131 31-101 42 26 13 139-8 31-28 86-44 121-17 35-30 64-30 65 0 0 59 1 130 1 72 0 129-2 127-5zm1050-1153c2-3-7-27-20-54-35-68-55-142-63-230-6-61-4-75 6-71 8 2 17 16 21 30 20 74 98 130 182 131 57 1 97-16 141-60 149-147 44-423-294-773l-91-95-112 115c-132 136-212 240-272 353-96 181-100 294-15 391 56 63 113 82 190 62 67-18 115-56 135-111 22-57 35-58 35-2 0 66-27 174-60 245-16 35-30 67-30 71 0 7 239 5 247-2zm-2110-9c-38-86-61-151-72-206-27-124-14-194 19-107 44 115 197 163 291 91 149-114 121-320-80-588-73-97-261-298-279-298-16 0-168 159-246 257-171 214-241 400-195 518 49 128 166 178 283 119 45-22 56-34 80-85 15-32 30-59 35-59 12 0 8 90-8 164-8 38-28 98-45 134-16 35-30 66-30 68s57 4 126 4c97 0 125-3 121-12zm3063-522c0-2-9-23-19-47-22-50-38-139-25-139 5 0 16 15 24 33 35 75 144 65 184-17 16-34 17-44 7-91-15-69-71-153-162-250l-72-76-54 53c-113 110-193 242-193 316 0 38 33 88 71 107 29 16 35 16 75 0 29-11 47-25 56-46 34-76 31 14-3 106-11 28-19 51-19 53 0 1 29 2 65 2s65-2 65-4zm-4111-47c-23-46-40-171-18-134 40 67 93 89 148 61 107-56 70-212-91-381-44-47-85-85-91-85-17 0-122 114-168 181-76 113-91 208-40 259 16 16 40 32 53 35 36 9 94-19 119-57l21-33-6 52c-3 29-14 73-25 98l-20 45h139l-21-41zm3941-701c49-190 139-376 269-553 36-48 51-78 49-95l-3-25-216-3-217-2-6 22c-3 13-6 42-6 66 0 40 1 42 30 42 28 0 30-3 30-35v-35h309l-76 113c-112 164-209 378-229 505-7 42-6 42 24 42 28 0 32-4 42-42zm-4067-65c43-152 138-339 252-496 35-46 45-69 43-92l-3-30H245l-3 63c-3 60-2 62 22 62 21 0 25-5 28-32l3-33 153-3c83-1 152-1 152 2 0 2-33 53-73 113-114 168-207 376-224 498-6 45-5 45 24 45 28 0 30-3 56-97z" fill="#fff"/></svg>