<svg xmlns="http://www.w3.org/2000/svg" width="500" height="792"><style>.shp0{fill:#fff}.shp1{fill:#000001}.shp2{fill:#db0001}.shp3{fill:#ffd001}.shp4{fill:#0044ba}</style><path class="shp0" d="M0 396v396h500V0H0"/><path class="shp1" d="M39.8 54.6c-.3 19.2-.4 20.7-2.3 22-1.1.8-3.5 1.4-5.3 1.4-2.2 0-3.7-.7-4.7-2.3a9.7 9.7 0 0 1-1.5-4.5c0-1.8-.6-2.2-3-2.2-2 0-3.2.6-3.7 1.8a13.6 13.6 0 0 0 5.7 12c2.9 2 4.5 2.3 9.2 2 5-.3 6.2-.8 9-3.6l3.3-3.2c1.1-32.2 1.3-42 1-42.8-.3-.6-2-1.2-4-1.2h-3.4M24 96.8c-4.2 2.2-6.1 4-8.6 8.2-2.1 3.6-3.5 7.5-4 11-.3 3-.3 7.2 0 9.3a29 29 0 0 0 7.5 14.6c1.5 1.3 4.5 3.2 6.7 4.2a26 26 0 0 0 18.5.4c2.5-.8 6-3 7.7-4.7A38 38 0 0 0 57 132c1.8-3.4 2.3-6.1 2.2-11.5 0-5.2-.6-8.4-2.4-12.5a22.4 22.4 0 0 0-6.4-8.5 32.8 32.8 0 0 0-7.5-4.2c-2-.7-5.8-1.2-8.6-1.3-3.7 0-6.6.8-10.5 2.8z"/><path class="shp0" d="M32 101.2a21 21 0 0 0-6.5 2.5c-1.4 1-3.4 3.8-4.6 6.3-1.8 3.7-2.1 5.8-1.8 12.2.3 5.7 1 8.4 2.4 10.5 1.2 1.5 4.3 3.9 7 5.2 4 1.9 5.9 2.3 9.3 1.7 3-.4 5.3-1.7 8.1-4.3 2.5-2.5 4.3-5.4 5.1-8.3.7-2.6 1-6.8.6-10-.3-3-1.4-6.8-2.4-8.4-1-1.6-2.8-3.7-4.2-4.8-1.4-1-4-2.2-5.7-2.6a20 20 0 0 0-7.2 0z"/><path class="shp1" d="M18.2 176.3l.3 25.2 6.5.5c0-17.5 0-17.5 3.5-20.8 2-1.7 4-3 4.5-3a90 90 0 0 1 9.3 11.8c8.1 11.4 8.3 11.5 12.5 11.8 2.3 0 4.2 0 4.2-.3s-4.5-6.8-10-14.5-10-14.4-10-15c0-.6 4.5-5.2 10-10.3a44 44 0 0 0 9.2-10c-.4-.4-2.5-.7-4.7-.7-3.9 0-4.7.7-15.5 11.5A142.1 142.1 0 0 1 25.7 174c-.4 0-.7-5.2-.7-11.5V151h-7m233.8 4.6c-1.6.2-2.6.8-2.3 1.4.3.6-.2 1-1 1s-4.3 1.3-7.8 3a50.8 50.8 0 0 0-9.4 5.7c-1.7 1.5-6.7 5.5-11 8.8-4.2 3.3-10 8.4-13 11.3a46.6 46.6 0 0 0-8.6 10.2c-1.7 2.2-3.6 4-4.2 4-.6 0-1.7 1.6-2.5 3.5-.8 2-2.2 3.5-3 3.5-.8 0-1.2.3-.8.7.4.5 0 2-.7 3.6-.8 1.5-2 2.7-2.5 2.7-.6 0-1 .6-1 1.3 0 .6-1.7 4.8-4 9.2a65 65 0 0 0-4 9c0 .6-.8 1.9-1.8 3a8.7 8.7 0 0 0-1.9 4.5c0 1.4-.8 5-1.5 8-.8 3-1.7 5-1.9 4.5-.2-.6-3.2-3.1-6.7-5.8a49 49 0 0 0-9.2-6.1 28 28 0 0 0-7-3.2 48 48 0 0 0-14-1.8c-8.3-.1-8.6 0-14.2 3.9-3 2.2-5.5 4.3-5.2 4.8.2.4-.5 1.3-1.6 2-1.1.6-2 1.6-2 2.2 0 .6-1.4 2.5-3.2 4.3-1.8 1.8-2.8 3.3-2.3 3.2.5 0 0 1-1.2 2.2a10.2 10.2 0 0 0-2.2 3 74 74 0 0 0-5.1 13.3c-1 3.3-2.4 9-3 12.5-.5 3.6-1 10-1 14.3 0 5.5.9 10.8 3 19 1.8 6.1 3.4 12.7 3.6 14.4.2 1.8.9 3.3 1.4 3.3.5 0 1.2.8 1.4 1.8l3 7.7c1.5 3.3 3 6.9 3.2 8 .2 1.1 1 2.3 1.7 2.6.6.4.9 1.2.5 1.8-.5.6-.3 1.1.2 1.1s1.2 1.1 1.5 2.5c.4 2 1.4 2.7 4.8 3.6 3.9 1 4.3.9 6-1.3a37 37 0 0 0 5.7-17.6c0-2.6-.7-7.3-1.5-10.4-.8-3.2-1.5-8-1.5-10.8 0-2.8-.4-5.1-1-5.3-.4 0-2.5-8.3-4.5-18.2-2.3-11.1-4-22-4.2-28.5a45.8 45.8 0 0 1 5.4-27.4 18 18 0 0 1 8-6.6c4.6-2.2 6.7-2.6 10.3-2.2 2.5.2 5 1 5.8 1.6 1 .8 1.3.7 1.3-.4 0-1.2.2-1.1 1 .3.5 1 2 1.7 3.4 1.7 1.5 0 3.3 1 4.5 2.5 1.1 1.4 2.6 2.5 3.3 2.5.6 0 1.8.9 2.4 2 .7 1.1 2 2 2.8 2 .8 0 1.7.8 2 1.8a19 19 0 0 0 5.7 5.4c3 2 6 5.1 7 6.8 1 1.6 1.8 3.6 1.8 4.3 0 .6-2 3.7-4.6 6.7-2.6 3-6.3 8-8.3 11-1.9 3-4 7-4.7 9-.8 2.2-1.8 3.4-2.8 3.3-1-.2-1.3.1-.9 1 .4.6.8 2.1 1 3.2 0 1.1 1.5 9.6 3.3 19 2.8 15.6 3 17.5 1.8 22.4a24 24 0 0 1-1.8 5.6c-.3.2-3-.4-6-1.2-4.7-1.4-6.2-1.4-10-.3-2.5.7-5.7 2.6-7.3 4.1-2.2 2.4-2.7 3.8-2.7 8.1 0 3.8.8 6.9 2.8 10.7 1.5 3 6.4 9.3 10.9 14 6.4 6.8 9 10.5 12.2 17.4a57 57 0 0 0 7.3 12c3 3.1 3.6 3.3 8 2.8l4.7-.6a1359.8 1359.8 0 0 1 4.6 34 313 313 0 0 1 1.5 13.8c0 1.1-2 2.6-6.3 4.6a192.7 192.7 0 0 1-34.7 11.4 95.7 95.7 0 0 1-24 2.2c-8.8 0-16.2-.5-18.8-1.3-4-1.1-4.2-1.4-4.2-5 0-2-.9-5.5-2-7.7a15.6 15.6 0 0 0-5.7-6.2 18 18 0 0 0-7.8-2.3c-2.3 0-5.4.9-7.3 2a19 19 0 0 0-5.2 5.3 16 16 0 0 0-2 7.4c0 2.4.7 5.7 1.5 7.3.8 1.6 3 3.9 4.8 5 2 1.3 5 2 8.5 2 4.9 0 5.7.4 13 6.3 4.2 3.4 10.9 7.9 14.7 9.9a94.5 94.5 0 0 0 45.1 10.2l14.2.1a198.6 198.6 0 0 0-12.9 42.5c-1.1 6.3-2.3 17.5-2.7 24.9l-.7 13.3c-4.7 1.9-7 3.8-8.3 5.4-1.2 1.6-2.5 4-2.8 5.4-.3 1.4.1 4.3.8 6.5.9 2.6 2.5 4.7 4.8 6.2a14 14 0 0 0 8 2.4c3 0 5.4-.7 7.3-2 1.5-1.2 3.4-3.6 4.3-5.4 1-1.7 1.6-4.7 1.5-6.5 0-2.8.4-3.5 3.9-5.2 2.2-1.1 6.6-4.6 9.8-7.8 4.2-4 9-11 16.8-23.7l18.6-31c7.5-12.6 7.8-13 8.8-10.3.5 1.6 1 3.3 1 3.8s2.3 5.6 5.1 11.3c2.9 5.6 7 12.9 9.2 16.2a126.5 126.5 0 0 0 25.1 28l8.7 7-1.7 3.5a11.2 11.2 0 0 0-1 7c.3 2 1.8 4.8 3.4 6.3 1.5 1.5 4 3 5.7 3.3 1.6.4 4.4.3 6-.1 1.6-.4 4.2-2 5.8-3.6 2.1-2.3 2.7-3.9 2.7-7.4a14 14 0 0 0-1.9-7.3c-1-1.5-3.2-3.3-5-4L289 596c1.2-11.2 1.4-24 1.4-35.5-.1-12.9-.7-23.8-1.5-28.2-.9-4.5-1-7.1-.4-7l11 7.3a522 522 0 0 0 13.2 9 994.5 994.5 0 0 0 25.3 14.6c3.6 2 10.6 5.1 15.5 7.1 5 2 11.4 4 14.3 4.7 4.9 1 5.2 1.2 5.2 4 0 1.6.8 4.7 1.8 6.7 1 2.3 2.9 4.1 5 5 1.7.7 5 1.3 7.2 1.3 3.1 0 4.8-.7 7.6-3.3 2.8-2.5 3.7-4.2 4-7.7.5-3.6.1-5.2-1.8-8a19 19 0 0 0-5.8-5.3 11 11 0 0 0-6.8-1.3c-3.1.6-3.4.4-11.4-11.1a357.8 357.8 0 0 0-34.2-41c-3.6-3.7-4.7-5.4-3.6-5.6.8-.3 5.8-1.2 11-2.2a122.5 122.5 0 0 0 31-10c3-1.6 8-4.4 11-6.4s7-5 9-6.8c3.1-2.9 3.8-3.1 6.8-2.3 2 .7 4.3.6 6.4 0 1.8-.6 4.3-1.7 5.6-2.5 1.2-.8 2.9-3 3.7-5a19 19 0 0 0 1.5-6.3c0-1.5-1-4.4-2.3-6.5-1.2-2-3.7-4.4-5.4-5.2-1.8-.8-5-1.5-7-1.5-2.4 0-5.2 1-7.6 2.5a11.4 11.4 0 0 0-5 6.6c-1 3.3-2 4.4-4.7 5.5-2 .8-8 2.4-13.5 3.5a181 181 0 0 1-23.5 2.6 299.8 299.8 0 0 1-53-3.3c-4.7-.8-8.8-1.8-9.1-2.2-.4-.4-.3-4 .2-8.2.5-4.1 1.3-13 1.9-19.8a91 91 0 0 1 2.5-16.2c.8-2.2 1.7-4 2-4l3.3 1c1.5.6 3.5.8 4.4.5 1-.3 3-2 4.3-3.8 1.3-1.7 4-6.8 5.8-11.2a136 136 0 0 1 7.6-15c2.4-3.9 5.3-8.1 6.6-9.5 1.2-1.4 3.4-4.8 4.9-7.5 2-3.7 2.6-6.5 2.6-10.8 0-3.1-.7-7-1.5-8.7-.8-1.6-2.4-3.4-3.5-4a12 12 0 0 0-4.5-1 30 30 0 0 0-8.9 3.3l-6.3 3.2a104.6 104.6 0 0 0-3.5-21c-2-5.8-2-6.6-.6-26.5.8-11.3 1.2-21.2 1-22a85.4 85.4 0 0 0-22.7-18.5 155.2 155.2 0 0 0-31-10.9 149 149 0 0 0-13.3-2c-3.6-.4-6.3-1.1-6.6-1.8l-2.1-8.8a190.1 190.1 0 0 1-4.4-33c-.1-4.1.3-10.9.9-15a55 55 0 0 1 3.4-12.5 43 43 0 0 1 5.2-8.4c1.6-1.8 5-4.3 7.4-5.5 3.5-1.6 6.4-2.1 13-2.1 7.4 0 9 .3 13.3 2.8 2.6 1.5 5.8 4.4 7.2 6.4 1.6 2.4 2.8 6 3.3 9.8.4 3.3 1 6.6 1.5 7.3.4.6 1.1 1 1.7.7.6-.3 1-2 1-3.8a41 41 0 0 0-7.3-21.1l-2.7-3.8c-.8-1-3-2.6-5-3.4-2-.8-6.4-1.6-10-1.8-3.6-.3-7.7-.2-9.3 0z"/><path class="shp2" d="M235.3 162.8a166 166 0 0 0-31 25.4 186 186 0 0 0-12.5 13.8l-6 8.5a201.2 201.2 0 0 0-13.2 26.3c-.3 1.2-.2 2.2.4 2.2.6 0 1.7-1.7 2.6-3.8.9-2 3.1-6.7 5-10.4a39 39 0 0 0 3.4-8.3c0-.8.4-1.5 1-1.5s1.7-1.2 2.5-2.8c.8-1.5 1.1-3 .7-3.5-.4-.4 0-.7.8-.7s2.2-1.6 3-3.5c.8-2 2-3.5 2.5-3.5.6 0 2.5-1.8 4.3-4a46.6 46.6 0 0 1 8.6-10.2c2.8-3 8.7-8 13-11.3 4.3-3.3 9.2-7.3 11-8.8a36 36 0 0 1 7.3-4.8c2.4-1 4.3-2.1 4.3-2.4 0-.3-.3-.5-.8-.5-.4 0-3.5 1.7-7 3.8zm14.7-.1l-5.5 2.3c-2.2 1-5.3 3.3-7 5.1a43 43 0 0 0-5.1 8.4A55 55 0 0 0 229 191a108 108 0 0 0 .5 31.5 190.1 190.1 0 0 0 5.1 25.3c.3.7 3 1.4 6.7 1.8 3.4.3 9.3 1.2 13.2 2a150.7 150.7 0 0 1 31 10.9c3.9 2 10.5 6.5 14.7 10.3 4.2 3.7 7.7 7.4 7.7 8.2 0 .8 1.2-.9 2.6-3.8 1.4-2.8 4.4-7.2 6.8-9.7 2.3-2.5 4.6-4.6 5.2-4.6.6 0 2.3 5.6 3.9 12.3 1.5 6.8 4.5 17.5 6.6 23.8a148.2 148.2 0 0 0 15.9 34.5c3.3 5 3.7 6.3 2.8 7.9-.7 1-1.8 2.8-2.4 4a16 16 0 0 0-1.3 6.4c0 2.3.7 5.6 1.5 7.2.8 1.6 3 4 4.8 5.4 1.7 1.3 4.8 2.6 6.7 3 2 .3 5 .1 7-.5 2-.7 4.6-2.1 5.9-3.3 1.2-1.2 3-3.3 3.7-4.9.8-1.5 1.4-4.6 1.4-7a16 16 0 0 0-2-7.4 21 21 0 0 0-5.5-5.6l-3.6-2.2 2.2-31c.6-9.4 1-24.6.7-34-.5-16-.7-17.5-3.6-25.8-1.8-4.8-3.8-9-4.4-9.4-1-.6-1-.3-.4 1.2l4 10.5c2.9 8.2 3 9.1 3.2 27.5a503.7 503.7 0 0 1-3.3 59c-.7 3.3-1.2 3.9-3.8 4.2a6 6 0 0 1-4.9-1.4c-1-1-4-5.5-6.7-10-2.7-4.6-4.9-9-4.9-9.8 0-.8-.7-1.7-1.5-2-.8-.3-1.8-2.3-2.3-4.5-.4-2.2-1-4-1.4-4-.5 0-.7-.3-.6-.8.1-.4-.1-2.5-.6-4.7-.4-2.2-1.2-4.4-1.7-5a10 10 0 0 1-1.3-4l-2-10c-1-3.9-2.2-10-2.7-13.5-.6-3.6-1-7.6-1-9 0-1.4-.4-3.9-1-5.5-.4-1.7-1-5.5-1.4-8.5-.2-3-.7-6.4-1-7.5l-1.4-5.3c-.6-1.7-.8-3.2-.4-3.2.5 0 .3-.5-.4-1.2-.6-.7-1.1-1.5-1.2-1.8l-.7-2.5c-.4-1.1-2-3.7-3.6-5.8-2.6-3.4-3.1-3.7-6.8-3.2-2.2.3-6 1.8-8.3 3.4a68.8 68.8 0 0 0-9.2 8.2c-2.8 3-6.2 7-7.7 8.9-2.6 3.4-2.7 3.4-2.7 1a23 23 0 0 0-1.7-6.5 48 48 0 0 0-5-8.5 28.4 28.4 0 0 1-3.4-5.3c0-.4 1-.2 2.3.4 1.3.7 4.3 1 7.2.6 4-.4 5.7-1.3 8.3-3.9 1.8-1.8 3.7-5 4.2-7.3a14 14 0 0 0-.1-7.5 19 19 0 0 0-3.8-6.3c-1.4-1.5-3.2-2.7-3.9-2.7-.6 0-1.4-1-1.6-2.3-.3-1.2-.7-4.4-1-7.2-.4-2.8-2-7.8-3.6-11.3-1.6-3.4-3.4-6.2-4-6.2-.6 0-1 .2-1 .5s1.1 2.2 2.5 4.3a30.3 30.3 0 0 1 5.2 14.7c.3 2.2.3 4.9 0 6-.6 1.6-1 1.8-2 .7-.6-.7-1.5-4.1-2-7.5-.4-4-1.5-7.5-3.2-10-1.4-2-4.6-5-7.3-6.4a21.6 21.6 0 0 0-12.2-3c-4.1 0-8.2 0-9 .4z"/><path class="shp3" d="M248.2 166.2c-2.4.5-4.9 1.6-5.5 2.4-1 1.2-.8 2 1 3.7 1.3 1.2 2.3 2.9 2.3 3.7 0 1 .7.8 2.3-1 1.2-1.4 3.8-3 5.7-3.8 2.5-.9 4.3-1 6.3-.2 1.8.7 2.9.7 3.2 0 .3-.6 1.6-1 3-1s2.7-.4 3-1c.3-.6-1-1.7-2.8-2.5-1.8-.9-5.6-1.5-8.7-1.4-3 0-7.4.5-9.8 1z"/><path class="shp0" d="M252.5 178.1c-2.4 2.1-3.6 4-3.5 5.8a22 22 0 0 0 2.9 7.6 84 84 0 0 0 10 12.5c4 4.2 7 6.6 6.7 5.5l-1.2-4.5c-.4-1.6.2-4.2 1.5-7.3 1.3-3 3.4-5.5 5.6-7 2-1.2 3.5-2.4 3.5-2.7 0-.3-2.4-2.9-5.5-5.8-3-2.8-6.6-5.6-8-6.2-1.4-.6-3.8-1-5.5-1-1.8 0-4.2 1.1-6.5 3.1z"/><path class="shp3" d="M278.3 194a9.8 9.8 0 0 0-3.6 2.6c-.8 1-1.7 3-2 4.2-.4 1.2 0 3.9.9 6 .8 2 2.3 4.2 3.2 4.8a5 5 0 0 0 3.4.8c1-.2 1.8 0 1.8.6s.8.7 1.8.4c1.4-.6 1.1-1.2-2.2-4.3-2.2-2-4.5-4.6-5.3-5.8-1-2-1-2.7.2-4.8 1-1.6 2.4-2.5 4-2.5 1.4 0 2.5.3 2.5.8 0 .4-.9 1.3-2 2-1.1.6-2 1.5-2 2 0 .4 1.4 1.5 3.2 2.6 1.8 1 4.2 3 5.3 4.2 2 2.3 2 2.3 3.8.3 1-1 1.7-3.5 1.7-5.4a8 8 0 0 0-2-5.5 13.2 13.2 0 0 0-8.8-4c-1 .1-2.7.5-3.9 1z"/><path class="shp0" d="M276.5 198.5c-1 1.8-1.2 3-.5 4.5.9 1.7 1.3 1.8 3 .8 1.4-1 1.6-1.5.7-2-.9-.6-.6-1.4 1-2.8a9 9 0 0 0 2.3-2.5c0-.3-1.1-.5-2.5-.5-1.6 0-3 1-4 2.5z"/><path class="shp1" d="M17.4 210.8c-.4.3-.7 11.7-.6 25.4L17 261l37.5-.5.5-5.5a686.3 686.3 0 0 1-26.8-.9L24 254l.5-15.5h27l.5-6.5c-26.7 0-27 0-27.4-2.3-.1-1.2 0-4.6.3-7.5l.6-5.2H54c0-4.7-.3-6-.8-6l-17.9-.4c-9.4-.2-17.5-.2-17.9.2zM318 213c-2.5.5-5 1.4-5.5 2-.7.8-.2 1 1.8.5 2.3-.5 3.1 0 5.5 3.2a37 37 0 0 1 3.7 5.7l1 2.5c0 .3.4 1 .8 1.8.4.6.5 1.2.2 1.2s0 1.5.6 3.3l1.5 5.2 1 7.5c.2 3 .9 6.8 1.4 8.5.5 1.6.9 4.1.9 5.5 0 1.4.4 5.4 1 9 .6 3.6 1.7 9.6 2.6 13.5.9 3.9 1.8 8.4 2 10a10 10 0 0 0 1.4 4c.5.6 1.3 2.8 1.7 5 .4 2.2.7 4.3.6 4.8-.1.4.1.7.6.7.4 0 1 1.8 1.4 4 .5 2.2 1.5 4.2 2.3 4.5.8.3 1.5 1.2 1.5 2s2.2 5.2 4.9 9.8c2.7 4.5 5.7 9 6.7 10a6 6 0 0 0 4.9 1.4c2.6-.3 3.1-.9 3.8-4.3a503.7 503.7 0 0 0 3.4-59c-.3-18.6-.4-19-3.6-27.9-1.8-5-3.5-9.9-3.7-11-.2-1.1-2.8-4.7-5.8-8s-7.8-7.5-10.7-9.3c-3-1.7-7.3-3.9-9.6-4.7a42 42 0 0 0-9-1.9c-2.7-.2-6.8 0-9.3.5z"/><path class="shp0" d="M307 221c-2.3 2-2.3 2-.3 1a20 20 0 0 1 6-1.3c2.6-.1 3.9.3 5 1.8a41 41 0 0 1 3.2 8.5c1 3.6 2.4 9.4 3 13l1.7 10.5 2.6 14.5c1.1 5.8 2.4 11.4 3 12.5.7 1.7.8 1.7.4-.5-.3-1.4-1.2-8.4-2-15.5-1-7.1-2.3-16.6-3.2-21-.8-4.4-2.2-10.3-3-13-1-2.8-2.7-6.7-4-8.8-2-3.2-2.9-3.7-6.1-3.7-2.3 0-4.8.8-6.3 2zm-8.6 7.3c-2.3 2.3-5.3 6-6.9 8.2l-2.8 4a519.5 519.5 0 0 0 14-16.5l-4.3 4.3z"/><path class="shp3" d="M303.8 228.8c-2.8 2.6-7.7 8.4-11 13a52.5 52.5 0 0 0-6.3 10.7c-.3 1.7 0 2.4.8 2.3.6-.2 1 .4.8 1.2-.2 1.1.2 1.3 1.8.8 1.4-.6 2.4-.3 3.1.7.6.8 1.4 1.3 2 1 .6-.3 1.8.4 2.8 1.4 1 1.1 2 1.7 2.6 1.3.4-.4 1.9.7 3.2 2.3 1.3 1.6 2.3 3.7 2.3 4.5 0 .8.4 1.2.8.8.4-.4 1.3 0 1.8.8.9 1.4 1.2 1.3 2.6-.7.9-1.3 3.6-4.3 6-6.6 2.4-2.4 4.7-4 5.1-3.8.5.3.8 0 .8-.8l-2-13.2c-1.2-6.6-3-14-4-16.3-1.7-3.6-2.4-4.2-5-4.2-2.3 0-4.4 1.2-8.2 4.8z"/><path fill-rule="evenodd" class="shp2" d="M138.3 240.7c2.3.3 4.8 1 5.5 1.7 1 .8 1.3.7 1.3-.4 0-1.2.2-1.1 1 .3.5 1 2 1.7 3.4 1.7 1.5 0 3.3 1 4.5 2.5 1.1 1.4 2.6 2.5 3.3 2.5.6 0 1.8.9 2.4 2 .7 1.1 2 2 2.8 2 .8 0 1.7.8 2 1.8a19 19 0 0 0 5.7 5.4c3 2 6 5.1 7 6.8a13 13 0 0 1 1.8 4.5c0 .8-.4 1.4-.8 1.3-.5-.2-3.5-3.3-6.8-6.9-3.2-3.5-7.7-8-9.9-10a145 145 0 0 0-8-6.4 44 44 0 0 0-8.8-4.7 30 30 0 0 0-8.7-1.8 22 22 0 0 0-7.6 1.6c-2 1-5 3.3-6.6 5.3-1.6 2-3.8 6.7-5 10.6-1.7 5.6-2 8.8-1.6 16 .2 5 2.2 17.6 8.3 47l.6-9.5c.4-5.2 1.3-11 2-13 .8-2 2-4.5 2.9-5.6a20 20 0 0 1 4-3.7c1.4-1 4.3-1.7 6.5-1.7 2.8 0 5.3.8 8.1 2.7 2.3 1.6 5.2 3.7 6.5 4.8 1.3 1.2 3 3 3.7 4.3.6 1.2.9 2.2.4 2.2-.4 0-3-2-5.7-4.4a41.6 41.6 0 0 0-8.8-6c-2-.9-5-1.4-6.4-1-1.6.2-3.8 1.4-5 2.7a27.3 27.3 0 0 0-4.3 9.2c-1.8 6-2 8.5-1.3 18 .5 6 .8 16.9.8 24 0 12.7 0 13.2-3.3 19.8-2.5 5.2-3 7.1-2.2 8.7.5 1.1 1 4 1 6.3 0 2.8-.8 5.4-2.3 7.7-1.3 2-4.1 4.4-6.3 5.4a13.5 13.5 0 0 1-8.4 1.3c-3.5-.5-5.4-1.5-8.3-4.4-2.3-2.4-4-5.1-4.3-7.3-.4-2-.4-5 0-6.8.3-1.7 2.2-4.8 4.1-6.7 2-2 4.8-3.7 6.5-4 1.7-.3 3-.7 3-1 0-.3-3-7.8-6.5-16.8-3.5-8.9-7.6-20.7-9-26.2-2.5-9.2-2.7-11-2.2-23.5.3-7.4 1.3-16.2 2.1-19.5a91 91 0 0 1 14.6-28.3c3.1-3.8 5.5-6 6.3-5.5.9.4.6 1.1-1 2.5-1.3 1-2.3 2.1-2.3 2.6a15 15 0 0 1-3.2 4c-1.8 1.7-3 3.2-2.7 3.2.3 0-.4 1.2-1.5 2.6-1.2 1.4-2 2.8-1.8 3 0 .2-.5 1.9-1.4 3.6a74 74 0 0 0-3.5 9.3c-1 3.3-2.3 9-2.8 12.5-.6 3.6-1 10-1 14.3-.1 5.5.8 10.8 3 19 1.7 6.1 3.3 12.7 3.5 14.4.2 1.8.9 3.3 1.4 3.3.5 0 1.2.8 1.4 1.8l3 7.7c1.5 3.3 3 6.9 3.2 8 .2 1.1 1 2.3 1.7 2.6.6.4.9 1.2.5 1.8-.5.6-.3 1.1.2 1.1s1.2 1.1 1.5 2.5c.4 2 1.4 2.7 4.8 3.6 3.9 1 4.3.9 6-1.3a37 37 0 0 0 5.7-17.6c0-2.6-.7-7.3-1.5-10.4-.8-3.2-1.5-8-1.5-10.8 0-2.8-.4-5.1-1-5.3-.4 0-2.5-8.3-4.5-18.2-2.3-11.1-4-22-4.2-28.5-.4-8 0-12.1 1.2-17 1-3.6 2.9-8.2 4.3-10.3 1.7-2.3 5-4.8 8.5-6.6 4.5-2.3 6.5-2.8 10-2.4zm34 0c.5.5.1 3-.7 5.6-.9 2.6-1.6 5.6-1.6 6.7 0 1.6-.3 1.8-1.3.8-1.2-1-1-2.3.7-7.5 1.2-3.5 2.5-6 3-5.5z"/><path class="shp4" d="M128.5 244.5a27 27 0 0 0-6.3 5.3 39.8 39.8 0 0 0-7 26.7c.2 5 2.2 17.6 4.4 28l3.9 19c1-14.7 1.9-20.6 2.6-22.5.8-2 2-4.5 2.9-5.6a20 20 0 0 1 4-3.7c1.4-1 4.3-1.7 6.5-1.7 2.8 0 5.4.9 8.5 3 2.5 1.6 6 4.3 7.8 6 1.7 1.6 3.6 2.8 4.2 2.5.6-.3 1-1.3 1-2.3 0-1 1.8-4.6 4-8.2 2-3.6 5.9-8.9 8.4-11.8l4.6-5.2a120.9 120.9 0 0 0-22.8-23.2c-3.1-2.3-7.8-5-10.4-6-2.7-1-6.7-1.8-9-1.8-2.4 0-5.7.7-7.3 1.5z"/><path fill-rule="evenodd" class="shp2" d="M237.7 252.7L249 254a117 117 0 0 1 31.3 9.4c3.1 1.4 5.7 3.2 5.7 3.9a5 5 0 0 1-.8 2.3c-.4.6-2.4 1.4-4.4 1.8a8.7 8.7 0 0 0-5.8 3.4 16.7 16.7 0 0 0-2.5 6.2c-.3 2 0 5 .5 6.8.5 1.7.7 3.2.3 3.2-.5 0-3.6-.9-13.3-4l1.8-2.3 2.3-2.7a24 24 0 0 0 2.1-3c1.4-2.1 1.5-3.1.4-7-.7-2.5-2.3-6.3-3.7-8.4a20.3 20.3 0 0 0-4.4-5.2c-1.8-1.2-2.5-.7-7.4 5.4-5.3 6.6-5.3 6.8-4.8 12.2.2 3 .7 6.3 1 7.3.6 1.5 0 1.7-6.3 1.7-3.8 0-7-.1-7-.3a57 57 0 0 1 2.5-5 20 20 0 0 0 2.5-10.2c0-4.5-.4-6-2.5-8a8 8 0 0 0-6-2.5c-2 0-3.7.4-4 1-.3.6-2.6 1-5.3 1-3.1 0-5.4.5-6.8 1.7-1.2 1-2.7 3.3-3.3 5-.7 2.1-.7 3.3-.1 3.3s1.3 1.5 1.6 3.3c.4 1.7 2 5.2 3.6 7.7a24 24 0 0 1 2.6 4.6 538 538 0 0 0-12.3 4c-1.8.8-1.8.6.3-1.6a8.7 8.7 0 0 0 2.2-5.8c0-2.3-.7-3.8-2.8-5.2-1.5-1.1-3.7-2-5-2-1.2 0-4.3-1.1-7-2.5a23.3 23.3 0 0 0-6-2.5c-.6 0-2.4 1-3.8 2.3a7.5 7.5 0 0 0-2.8 5.7c0 2-1 5-2 7s-1.5 4.4-1.2 5.5a13 13 0 0 0 2.5 4.3 7 7 0 0 0 5.6 2.2c2 0 3.8.6 4.2 1.3.3.7-.6 2.3-2.3 3.7-1.6 1.4-5 5.2-7.4 8.5a130 130 0 0 0-10.5 17.5l-6.2-30.5 2.6-4.8c1.4-2.6 3-4.8 3.3-4.7.5 0 1.1-1 1.5-2.3a104.4 104.4 0 0 1 24.3-23.2 92.6 92.6 0 0 1 15-6.8c5-1.7 11.4-3 15.5-3.3 3.8-.2 7-.5 7.2-.7 0-.2 1.9-.2 4 0zm-4.5 10.4c1 .5 2 2 2.4 3.1.3 1.3.2 4.1-.2 6.3s-2.1 6-3.8 8.5c-2.5 3.6-3.7 4.5-6.1 4.5-2.4 0-3.6-.9-6-4.5a26.2 26.2 0 0 1-3.8-8.8c-.5-2.8-.3-4.7.6-5.7.7-1 2.8-1.6 5.2-1.6 2.2 0 5.3-.6 7-1.3 1.8-.8 3.5-1 4.7-.5zm27 3.3c1.5 2.2 3 5.5 3.4 7.1.4 2.4 0 3.5-1.9 5.5-1.3 1.4-3 3.5-3.6 4.8-.6 1.2-2 2.2-3.1 2.2s-2.7-1.1-3.5-2.5c-.8-1.4-1.8-3.7-2.7-8l1.4 2.5c1 1.8 2.3 2.6 4.8 2.8 2.3.2 4.1-.4 5.3-1.5 1-1 1.7-2.9 1.5-4.2a8.3 8.3 0 0 0-3-4.5c-2.4-1.8-3.1-2-5.3-.9-1.4.7-3 2.3-3.4 3.6-.8 1.7-1 1.8-1 .4 0-1 1.4-3.4 3.2-5.4 1.7-2.1 3.6-4.3 4-5 .7-.7 1.9.2 3.8 3z"/><path class="shp3" d="M220.5 269.8c-1 1-1.8 3-1.7 4.3.1 1.3.6 2.8 1 3.4.4.6 1.8 1.1 3.2 1.3 1.4.2 3.7-.6 5.3-1.7 1.5-1.2 2.7-2.9 2.7-3.9s-.7-2.5-1.7-3.4c-1-1-3-1.8-4.4-1.8a7 7 0 0 0-4.4 1.8zm31.4 1a5.3 5.3 0 0 0-2.2 4.8c.1 1.6.8 3.5 1.5 4.1 1 1 2.2 1 4.6.3 1.7-.6 3.9-1.7 4.7-2.5.8-.8 1.5-2.2 1.5-3 0-.8-1.2-2.4-2.8-3.5a10 10 0 0 0-3.8-2c-.7 0-2.2.8-3.5 1.8z"/><path class="shp1" d="M16.8 273.8c-.3 2-.5 13.3-.6 25L16 320c7.2-.5 7.5-.8 7.6-3.5l.2-10.8.2-7.7c10 0 11.5.4 14 2.8a82 82 0 0 1 8.8 11.2c5.5 8.2 5.8 8.5 9.2 8.2 2-.2 3.6-.5 3.8-.8a83.4 83.4 0 0 0-12.1-18.2c-1.8-1.7-3-3.3-2.7-3.5l4.3-2c2-1 4.5-3 5.4-4.4 1-1.6 1.9-4.6 2-6.8.3-2.6-.2-5.2-1.5-7.5a15 15 0 0 0-5.3-5.3c-2.8-1.4-6-1.7-18-1.7H17.2"/><path class="shp2" d="M288.2 271.8c-.7 1.2-1.9 2.2-2.7 2.2-.8 0-3 .7-4.8 1.5-1.7.8-3.7 2.4-4.3 3.7-.8 1.6-.8 4-.2 7.8.8 4.4 1.6 6 4.2 7.8 3 2.2 3.1 2.2 3.9.2.4-1.1 2.3-2.7 4.2-3.5 2.1-1 4-2.6 4.5-4.3.9-2.1.6-4.3-1.3-10.2-2.2-6.9-2.4-7.3-3.5-5.3zm6 .8c0 .5.5 3 1.4 5.4.8 2.5 1.4 6.4 1.2 8.7-.3 3.7-.8 4.5-5 7.2-2.7 1.7-4.8 3.8-4.8 4.6 0 .8 1.2 2.3 2.8 3.2 1.5 1 4.2 3.2 6 5l3.2 3.3a2210.5 2210.5 0 0 1 1.3-31.3c.1-1-1.2-3-2.8-4.4-1.7-1.4-3.1-2.2-3.3-1.7zm-108 4.4c-.7 1.1-1 3-.6 4.3.3 1.4-.2 3.2-1.5 5-1.2 1.5-2.1 3.4-2.1 4.2 0 .8 1 2.2 2.3 3 1.2.9 3 1.3 4 1 1-.3 2.6.4 3.7 1.5 2 2 2.1 2 5 .3 2-1.2 3-2.6 3-4 0-1.3.6-2.6 1.3-3 .7-.5 2-2 3-3.3.8-1.4 1.3-3.2 1-4-.2-.8-2.2-1.8-4.3-2.3-2.2-.4-5.8-1.6-8-2.7s-4.4-2-4.8-2c-.4 0-1.3.9-2 2z"/><path class="shp0" d="M24 283.5c0 7.4 0 7.5 2.8 8.1 1.5.4 6 .4 10.2 0 5.8-.5 8-1.2 9.8-2.9a7.8 7.8 0 0 0 2.3-5.2c0-1.8-1-3.9-2.3-5.2-2-2-3.3-2.3-12.5-2.3H24"/><path class="shp3" d="M279.5 279.8c-1 1-1.8 2.8-1.7 4 .1 1.2.4 2.9.7 3.7.3.9 1.7 1.5 3.5 1.5 1.6 0 4.1-.6 5.5-1.3 1.8-.8 2.6-2 2.5-4 0-1.7-.9-3.3-2.3-4.2a9.5 9.5 0 0 0-4.3-1.5c-1.2 0-3 .8-4 1.8zM188 282c-1.1 1.1-2 2.7-2 3.5 0 .8.4 2.4 1 3.5.6 1.3 2 2 3.8 2 1.5 0 3.7-.7 5-1.5 1.2-.8 2.2-2.5 2.2-3.8 0-1.2-.7-3-1.7-4-1-.9-2.8-1.7-4-1.7a7 7 0 0 0-4.3 2z"/><path class="shp0" d="M222.5 294a79 79 0 0 0-9.5 2.9 75 75 0 0 0-21.3 13.4 74 74 0 0 0-6 6.7 99.3 99.3 0 0 0-12.5 27 99.4 99.4 0 0 0-2.6 13.8c-.3 3.4-.8 6.2-1.1 6.2-.3 0-2.4-1.6-4.8-3.5-2.3-2-5.9-4-8-4.5a9.8 9.8 0 0 0-7.2.5c-2.7 1.2-3.7 2.3-4.5 5.3-.6 2.1-.6 5-.1 6.7a42.5 42.5 0 0 0 8.1 15c2.1 2.8 5.5 8.3 7.6 12.4 2.2 4.2 5.2 8.2 6.9 9.4 1.7 1.1 4.6 2.2 6.5 2.5 2.6.3 4-.1 5.5-1.7 1.1-1.2 2.3-2.2 2.8-2.1.4 0 1 2.1 1.3 4.8.3 2.6 1.2 8 2 12.2a407 407 0 0 1 3 21c.9 7.4 2.3 15 3 17 .9 2 4.3 7.7 7.7 12.8 5.3 8 6.7 9.5 9.7 10.2 2 .5 4 .6 4.5.4.6-.3 1.7 0 2.5.8a41 41 0 0 0 4.5 3.2c1.7 1 4 2.8 5.2 4 1.8 1.7 2 2.6 1.2 4.9-.7 2.2-.6 2.8.8 3.3 1 .3 2 0 2.3-.8.2-.7 1.2-2 2.2-3 1-1 2.6-1.8 3.6-1.8s2.7.7 4 1.5c1.2.8 2.2 2.2 2.2 3 0 1.3.3 1.3 2.2.3 1.7-1 2-2 1.5-4.3-.4-2.1-.1-3.5 1-4.7 1-1 5.9-3.2 10.8-4.8 5-1.7 11.4-4.6 14.3-6.5 2.8-2 6.3-5.2 7.8-7.3 1.4-2 2.5-5 2.5-6.7 0-1.6 1-6.6 2-11 1.2-4.4 2.6-12.7 3.3-18.5a59 59 0 0 1 4-16.5c1.7-3.8 2.6-7.7 2.6-10.8 0-2.6.3-4.7.8-4.7.4 0 1.6.7 2.7 1.6 1.1.8 3.4 1.4 5 1.4 2 0 3.9-.9 5.6-2.7 1.4-1.6 6.5-9.3 11.3-17.3 4.8-8 9.1-16 9.6-18 .6-2 1-5.3 1-7.5s-.7-5-1.5-6.3c-1-1.5-2.5-2.2-4.8-2.2-2 0-5.4 1.4-9.7 4-4.8 3.1-6.9 4-8 3.3-1-.7-1.9-4.3-2.7-11.4a61.1 61.1 0 0 0-9.8-30.3 50.9 50.9 0 0 0-8-9.2c-2.2-1.7-7-4.8-10.5-6.8-3.6-2-10.3-4.4-15-5.6a135.2 135.2 0 0 0-37.5-1z"/><path class="shp1" d="M212.5 327c-1.7.3-4 1.2-5.2 1.8a15.4 15.4 0 0 0-6.3 8.7c0 1 1.5.4 4.8-2.1a47 47 0 0 1 8-5c1.7-.8 4.1-1.4 5.2-1.4 1.1 0 2-.4 2-1s-.7-1-1.5-1-2-.2-2.8-.4c-.6-.2-2.5 0-4.2.3zm38 .2c-2.8 1-2.5 1.2 6 3 6 1.2 10.1 2.7 12.3 4.3 1.7 1.4 3.4 2.4 3.6 2.3.3-.2-.5-1.8-1.7-3.7a17.6 17.6 0 0 0-6-5.2c-2-1-5.4-1.9-7.4-1.8-2.1 0-5.2.5-6.8 1.1z"/><path class="shp3" d="M358.1 342.8c-1.8 1-4 3-4.7 4.4-.8 1.6-1.4 3.6-1.4 4.6 0 1 .7.4 1.5-1.6.8-1.7 3-4.1 4.8-5.3 2.5-1.6 4.3-1.9 8.2-1.5 5 .5 5 .5 2-.9-1.6-.8-3.9-1.4-5-1.4s-3.5.7-5.4 1.7z"/><path class="shp1" d="M358.3 345a13.7 13.7 0 0 0-4.7 5.3 14 14 0 0 0-1.1 5.7c.1 1.4.9 3.5 1.6 4.7.8 1.3 2.5 2.8 3.8 3.5 1.3.7 4 1.3 6.1 1.3 2 0 5-.7 6.5-1.5 1.6-.8 3.6-3.3 4.6-5.5 1-2.2 1.5-4.4 1.2-5-.4-.6-1.1.6-1.7 2.5-.7 2-2.5 4.3-4.6 5.7a14 14 0 0 1-6.5 2.3c-1.6 0-4.5-1-6.3-2-1.7-1.1-3.2-2.4-3.2-3 0-.6 1-.3 2.3.5 1.2.8 4.3 1.5 6.8 1.5 3.7 0 5.2-.5 7.3-2.8 1.5-1.5 3-3.7 3.2-5 .2-1.2.8-2 1.4-1.7.6.3.8-.2.5-1-.3-.8-.7-1.5-1-1.5-.3 0-2.3 1.7-4.5 3.8-2.7 2.5-4.4 3.5-5.5 3-.8-.5-1.5-1.3-1.5-1.8 0-.6.4-1 1-1s2.8-1.7 5-3.8c2.2-2 3.8-3.8 3.5-4-.3 0-2.5 1.5-5 3.6-2.5 2-4.9 3.3-5.3 2.8-.4-.4 1-2.3 3-4.2 2.9-2.5 3.4-3.5 2.3-3.9-.8-.3-2.5-.5-3.8-.5-1.2 0-3.7 1-5.4 2z"/><path class="shp4" d="M365.4 347.4c-2.1 1.9-3.6 3.7-3.1 4 .4.3 2.5-.8 4.7-2.4 2.2-1.6 4-3.4 4-4 0-.6-.4-1-.8-1-.5 0-2.6 1.5-4.8 3.4z"/><path class="shp3" d="M370.4 350c-1 1.1-3.3 2.7-4.9 3.5-2.7 1.3-2.8 1.4-1 2 1.5.6 3-.2 6-3.4 2.2-2.2 3.5-4.1 2.9-4.1-.6 0-2 1-3 2z"/><path class="shp1" d="M211.5 350.5c-1.7 1-3.8 2.7-4.8 3.8-1 1.2-1.8 2.5-1.7 3 0 .4.7.7 1.5.7s2.8-1.1 4.5-2.5a10 10 0 0 1 6.3-2.5c1.7 0 4.3.7 5.7 1.5 1.4.8 4.3 1.4 6.5 1.4h4c-8.1-5-11.7-6.4-14.5-6.6-3-.3-5.6.2-7.5 1.2zm45-.1c-2.2.7-5 1.8-6.3 2.4-1.8 1-2 1.5-1 2.7.7.9 1.8 1.6 2.3 1.6.6 0 1.5-.7 2.2-1.5.7-.9 4.2-1.7 10-2.1 5.9-.5 9.5-.4 11 .4 1.3.6 2.6.9 3 .6.5-.2 0-1.6-1-3-1.6-2.3-2.3-2.5-9-2.4-4 0-9 .6-11.2 1.3z"/><path class="shp4" d="M373.7 353.3c-.3 1.2-1.8 3.4-3.3 5-2.1 2.2-3.6 2.7-7.3 2.7-2.5 0-5.6-.7-6.9-1.5-1.2-.8-2.2-1-2.2-.5 0 .6 1.5 1.9 3.3 3 1.7 1 4.4 2 6 2a14.7 14.7 0 0 0 9.4-4.1c.7-.8 1.7-2.9 2.3-4.6.5-1.8.6-3.5.1-3.8-.4-.3-1 .5-1.4 1.8z"/><path class="shp1" d="M228.8 363.7c-4.7 6-9 11.5-9.3 12.3-.4.8.3 3.6 1.4 6.3 1.4 3.2 3.4 5.6 6.3 7.4a19 19 0 0 0 10.7 3.2c5.6.4 7.3 0 11.1-2 2.5-1.5 5.4-4.1 6.6-6 1.2-1.9 2.4-4.6 2.8-6.1.5-2.4-.6-4.4-8.2-14a49.5 49.5 0 0 0-10.7-11.6c-1.5-.1-4.3 2.7-10.7 10.5z"/><path class="shp2" d="M232.8 366.3l-6.6 8.2c19 .4 24.9.3 25.2 0 .3-.3-2-4.1-5.3-8.5-3.2-4.4-6-8-6.3-8-.3 0-3.4 3.7-7 8.3z"/><path class="shp1" d="M318.1 359.5c-1.9.8-3.3 1.9-3.3 2.4.1.6.9 1.1 1.7 1.1.8 0 1.5.2 1.5.5s-1.6 2.6-3.6 5.3c-2 2.6-4.5 6.5-5.5 8.7-1 2.2-1.8 6-1.8 8.5 0 3-.7 5.4-2 7-1.5 2-1.6 2.5-.4 2.5.9 0 2.8-1.5 4.4-3.3 1.7-1.8 2.9-4.3 2.9-6 0-1.5 1-4.3 2.1-6.2a80 80 0 0 1 6-8c2-2.5 4.3-5.7 4.8-7.3.8-1.8.8-3.3.1-4.7-.6-1.1-1.6-2-2.3-2-.6 0-2.7.7-4.6 1.5z"/><path class="shp2" d="M272.8 364.5a10 10 0 0 0-3.8 3.5 12 12 0 0 0-1 4.5 17.9 17.9 0 0 0 6.4 11.8c1.4 1 4 1.7 5.6 1.7 1.6 0 4.8-.9 7-2s4.6-3.2 5.3-4.6c1-2 1-3.5-.1-7.3-.7-2.5-2.3-5.6-3.5-6.9-1.8-1.8-3.2-2.2-7.7-2.2-3 0-6.7.7-8.3 1.5zm-82.7 2.8A22.6 22.6 0 0 0 182 382c0 2 1 3.9 2.8 5.5 1.5 1.4 3.5 2.8 4.4 3 1 .3 3.6-.5 5.9-1.8 2.8-1.5 4.6-3.6 6.1-6.7 1.6-3.4 2-5.6 1.5-9-.4-3-1.3-5-2.9-6.3a8.4 8.4 0 0 0-4.3-1.7c-1.1 0-3.5 1-5.4 2.3z"/><path class="shp1" d="M154 368.3c0 1.2.9 3.6 2 5.2 1 1.6 3.2 4.6 5 6.5 1.7 2 4.1 5.3 5.4 7.5 1.3 2.2 2.7 5.6 3 7.5.5 2 1.6 4.3 2.5 5.2.9 1 2 1.6 2.3 1.3.5-.3-.5-3.8-2.2-7.8-1.6-4-3.7-8.6-4.7-10.2-.9-1.6-2.7-4.2-4-5.8-1.3-1.5-2-3.1-1.8-3.7.3-.6 1.6-1 3-1s2.7-.4 3-1c.3-.6-1.4-2.1-3.8-3.5a18.5 18.5 0 0 0-7-2.5c-2.1 0-2.7.5-2.7 2.3zm-52 4c0 1.5 1.2 2.9 4 4.4 2.2 1.3 4.7 2.3 5.5 2.3.8 0 1.4-.7 1.3-1.6-.2-1-1.9-2.5-3.8-3.6-2-1-4-2.3-4.5-2.8-.5-.6-1.3-1-1.8-1-.4 0-.7 1-.7 2.3zm161.2 17c-2.7 4-7.1 9.2-9.8 11.6a41.6 41.6 0 0 1-9.4 6.4 15.7 15.7 0 0 1-9 1.4 21 21 0 0 1-8.4-3.4 42.9 42.9 0 0 1-8-9.3 37.8 37.8 0 0 0-7-8.3c-1.4-1-4-1.7-5.5-1.7-1.6 0-3.7.8-4.7 1.8-.9 1-2.4 3-3.2 4.7-1.1 2-1.5 5.4-1.4 11 0 5.3 1.1 12 3.2 20a166 166 0 0 0 6.6 20A73 73 0 0 0 222 468c3 3 7.3 6.4 9.5 7.5 2.2 1 6.3 2 9 2.3 5 .3 5 .3 9.8-4.7 3-3.4 6.6-9 10-16.4a243.4 243.4 0 0 0 14.3-38.2c1.7-6 2.6-11.6 2.6-16.5 0-4.7-.6-9-1.7-11.5-.9-2.2-2.6-5-3.8-6.3-1.2-1.2-2.5-2.2-2.8-2.2-.4 0-3 3.3-5.7 7.3z"/><path class="shp2" d="M265.5 393.6a74.9 74.9 0 0 1-9 10.3 48 48 0 0 1-9 6.5c-2.2 1-5.8 2.1-8 2.4-2.2.3-5.7.2-7.8-.2-2.5-.4-5.4-2.1-9-5.4a63.4 63.4 0 0 1-8.7-10.3 40 40 0 0 0-4.5-6.1c-.5-.4-1.8-.8-2.8-.8-1 0-2.6 1-3.7 2.3a13.2 13.2 0 0 0-2.5 5.7 79 79 0 0 0 1.5 15.5 99.7 99.7 0 0 0 10.9 34.5c2 3.6 6.3 9.8 9.6 13.9 3.3 4 7.8 8.4 10 9.7 2.2 1.3 5.6 2.4 7.5 2.4 2 0 4.5-.7 5.8-1.5a29 29 0 0 0 5.5-6.8c1.8-2.8 5.2-9.7 7.5-15.2l6.6-16.5a198 198 0 0 0 4.8-14.5 63.2 63.2 0 0 0 2.3-18.2c0-7.9-.4-10.6-1.5-11.8-1.4-1.4-2-1-5.5 4.1z"/><path class="shp1" d="M265.3 402c-1.9 4-5.4 9.1-8 11.9-4 4-5.8 5-10.3 6-3 .7-8.7 1.2-12.5 1.2-5.2 0-8.3-.7-12-2.4-2.8-1.3-7-4-9.3-6.3-2.4-2.1-4.3-3.4-4.2-2.9 0 .6 2.6 6 5.8 12 3.2 6 6.4 13 7.1 15.5a55.6 55.6 0 0 0 8 16c1.4 1.8 4 4 5.9 4.7 2.6 1 3.8 1 6.4 0a29.8 29.8 0 0 0 13.9-17.7c1-3.6 2.2-9.2 2.6-12.5.4-4.6 1.4-7.4 4.4-12a63 63 0 0 0 5.4-10.5 28 28 0 0 0 1.5-7.3c0-1.5-.3-2.7-.8-2.7-.4 0-2.2 3.1-4 7z"/><path class="shp2" d="M238.3 424.7c-9.4.2-15.3.7-15.3 1.3 0 .6.3.8.8.6.4-.3 7.6-.5 16-.5 9.4 0 15.2-.5 15.2-1.1 0-.6-.3-.9-.8-.8-.4.1-7.6.4-16 .5z"/><path class="shp0" d="M238.8 425.8A48 48 0 0 0 224 427c0 .6 1.7 2 3.8 3.2a40 40 0 0 0 8.2 3.4c3.6 1 5.3.9 8.5-.2 2.2-.8 5.3-2.7 7-4.3 1.7-1.7 2.8-3.2 2.5-3.3-.3-.2-7.1-.2-15.3 0z"/><path class="shp2" d="M237.3 443.8c-2.4 2.5-3.4 4.4-3.1 6.1.2 1.3 1 2.8 1.8 3.4.8.5 2.7.7 4.3.3 1.5-.3 3.8-1.8 5.2-3.4 1.4-1.5 2.5-3.7 2.5-5 0-1.2-.7-2.9-1.5-3.7a6 6 0 0 0-3.6-1.5c-1.2 0-3.7 1.7-5.6 3.8z"/><path class="shp3" d="M403 451.5c-2 .8-3.3 1.8-3 2 .3.4 2 .2 4-.3s4.9-.7 6.5-.4c2 .3 2.7.1 2-.6a8.2 8.2 0 0 0-3.5-1.6 12 12 0 0 0-6 1z"/><path class="shp4" d="M386 465.1c-3.6 1-11.7 2.6-18 3.5-9.1 1.3-16.2 1.5-34 1-15.8-.4-26.2-1.1-35-2.6l-12.5-2.1c-2.3 3.3-4.6 6.3-6.6 8.9-1.9 2.6-5.6 6-8.2 7.7-2.5 1.6-4.6 3.6-4.7 4.3 0 .6.7 1 1.5.7 1-.4 1.6.4 2 2.3.2 1.6-.2 3.1-1 3.7-.8.6-1.4 1.6-1.5 2.3 0 .6.6 1.2 1.3 1.2.9 0 1 1 .4 4-.5 3-.3 4.3.8 5.3.9.6 1.6 1.6 1.6 2.2 0 .6-.6.4-1.3-.3-.7-.7-1.6-1.2-2-1.2-.5 0-.8.7-.8 1.5s.6 1.7 1.3 2c.6.1.4.4-.6.4s-3.3 1-5.2 2.1c-3.4 2-3.5 2-4.8.2-.6-1-2.6-2.2-4.2-2.6-1.7-.4-3.8-1.5-4.8-2.4-1-1-1.8-2.5-1.7-3.4 0-1-.7-1.8-1.8-1.8a5 5 0 0 1-3-1.2c-1-1-1.2-1-1.2.2 0 .8-.7 2.3-1.7 3.2-1 1-3 1.8-4.3 1.8a7 7 0 0 1-4.5-2l-2-2.1c-1.2 3.3-2.1 3.9-3 3.6-.9-.3-1.5.1-1.5 1 0 .8.4 1.5 1 1.5s1 .4 1 1-1.2.7-2.8.4c-2.1-.5-3.2 0-5.2 2-1.8 2-3 2.6-4 2-.8-.5-2.4-.7-3.5-.6-1.1.2-2.9-.6-4-1.8-1.6-1.6-1.8-2.3-.7-3.3.7-.6 1.2-1.5 1.2-2 0-.4-.7-.5-1.5-.2-1 .3-1.7-.3-2-1.8-.3-1.2-.5-4.1-.5-6.4 0-3.2.4-4.5 1.8-5 1.6-.5 1.6-.6 0-1.2s-1.6-.9-.3-3.6a25 25 0 0 0 1.5-3.3s-.7-.2-1.5-.2-3.2-1-5.3-2c-2-1.2-5.3-3.7-7.2-5.5l-3.5-3.4a196 196 0 0 1-47 14.4c-8.5 1.4-14.4 1.6-26 1.2l-15-.6a103.8 103.8 0 0 0 31.3 15.4c9 2.4 9.2 2.4 8.7.5-.3-1.1 0-2.8.8-3.7.6-.9 1.2-2.8 1.2-4.2 0-2.1.5-2.7 2.8-2.9 1.8-.1 3.1.4 4 1.8.6 1.1 1.9 2 2.7 2 .8 0 2.5.7 3.8 1.5 1.8 1.2 2 1.9 1.2 3.5-.7 1.4-2 2-4.3 2-1.7 0-3.8.6-4.4 1.5-1.2 1.3 0 1.6 9.4 2.1a139.2 139.2 0 0 0 32.6-2.2c.4-.2.7 0 .7.4s-.4 1.1-.9 1.7a203.7 203.7 0 0 0-15.4 33.5 177.7 177.7 0 0 0-6.7 26.5 153.4 153.4 0 0 0-1.3 27.5 50 50 0 0 0 7.6-7 129.4 129.4 0 0 0 22.2-32 221.3 221.3 0 0 1 14.5-23.5c0-.3 3-4.2 6.8-8.8 3.8-4.5 8.1-9.2 9.8-10.5 1.6-1.2 3.3-2.1 3.8-2a90 90 0 0 1 6.5 13.3l8 17.5 6 10.7c2 3.5 4 6.3 4.3 6.3.5 0 1-.9 1.3-2 .3-1.1 1-2 1.5-2 .6 0 .8-1.4.5-3.3-.4-2.2 0-3.7 1-4.7 1.4-1.3 2-1.3 4.3-.1 1.5.7 3.3 2.2 4 3.2.6 1 2.2 1.9 3.4 1.9 1.3 0 3.2.9 4.3 2 1.6 1.7 1.8 2.5.9 3.8-.6 1-2.9 2-5 2.2a32.5 32.5 0 0 0-12.4 5c0 .3 2.1 3.4 4.9 7a82 82 0 0 0 7.2 8.6c1.3 1.2 3.7 3 5.3 4l2.9 1.9c-1-27.1-1.8-39.7-2.4-45.5a263.7 263.7 0 0 0-4.6-30c-.3-1.4-.3-3.7 0-5.3.4-1.5 1.1-2.7 1.7-2.7.6 0 7.5 4.4 15.5 9.8l14.6 9.7c2.6-3.9 3.4-6.6 3.4-8.5 0-3 .3-3.5 2.8-3.8 1.8-.1 3.4.6 5 2.3 1.2 1.3 3.2 2.4 4.4 2.5 1.3 0 3 .7 3.8 1.5.8.8 1.5 2 1.5 2.8 0 .6-.5 1.7-1.2 2.4-.7.6-2.7 1.1-4.3 1-1.7 0-4.2.8-5.8 2.1L313 527a290.4 290.4 0 0 0 44.5 23.1c2.2.6 4.7 1.4 5.5 1.8 1.1.5 1.2.2.5-1-.6-1-3.2-4.1-6-7l-18.9-20.4c-7.7-8.3-18.1-19-23.2-24l-9.2-9c19.6-1 26-1.6 27-1.9 1.6-.5 1.6-1 .6-3-1.1-2.2-1-2.8.5-4.3a4 4 0 0 0 1.3-4 4 4 0 0 1 .9-3.8c1-1 2-1.2 3.3-.6 1 .5 2.6 1.9 3.7 3 1.1 1.2 2.7 2.1 3.5 2.1.8 0 2.3.7 3.2 1.7 1 1 1.8 2.4 1.8 3 0 .7.4 1.3 1 1.3s4.7-1.4 9.3-3c4.5-1.8 12-5.1 16.7-7.6 4.7-2.4 9.9-5.5 11.5-6.8 1.6-1.4 2.7-2.6 2.4-2.9-.3-.2-3.4.4-7 1.4z"/><path class="shp2" d="M81 468.1l-2.5 1c4.7 3.8 6.8 5.1 7.8 5.4 1 .3 1.7 1.2 1.7 2s-.5 1.7-1 2c-.5.3-3-.7-5.3-2.1a22.2 22.2 0 0 1-4.8-3.8c-.4-.7-1.1-.2-1.8 1.1-.6 1.3-1.1 3.2-1.1 4.3 0 1.1.5 3 1.2 4.3.6 1.2 2 3 3.2 4 1.2 1 3.3 2 4.8 2.2 1.6.3 4.5-.3 6.5-1.3a8.7 8.7 0 0 0 5.2-5.7c1.3-3.5 1.3-4.4 0-7.3a12 12 0 0 0-3.4-4.7c-1.1-.6-3.3-1.5-5-1.8-1.7-.3-4.1-.1-5.5.4z"/><path class="shp4" d="M387 471.7a146.1 146.1 0 0 1-31 13.8 166 166 0 0 1-35.7 6.3l-9.3.7a1211.5 1211.5 0 0 1 46.6 49.5l8.5 9.4 3.4 4a82.7 82.7 0 0 1-15.3-4.5 263 263 0 0 1-35-17.7c-5.3-3.2-10.7-6.2-12-6.5-1.2-.4-2.2-1.2-2.2-1.7s-.7-1-1.5-1-1.5-.5-1.5-1-2.1-2-4.8-3.2a34 34 0 0 1-7.2-4.6c-1.4-1.4-5-4.2-8.3-6.3L276 505c0 5 .4 8 1 10 .5 2 1.6 10 2.4 18l2 21c.3 3.6.8 13 1 20.8.6 13 .5 14.2-1.1 14.2-1 0-6-4.3-11-9.5a141 141 0 0 1-14.6-17.8c-3-4.5-7.8-13.4-10.8-19.7a82 82 0 0 0-6.9-13.3c0-.6-1.2-4.2-2.7-8-1.6-3.7-3.4-6.7-4-6.7-.7 0-3.3 2.1-5.8 4.8a147 147 0 0 0-9.9 12.2 558 558 0 0 0-17.1 27 321 321 0 0 1-17.5 26.5c-3.1 3.9-7.7 8.7-10.1 10.8-2.4 2-4.8 3.7-5.4 3.7-.7 0-.7-3.9-.2-11.2a294 294 0 0 1 1.8-17.8 240.2 240.2 0 0 1 8.2-34c1.7-5.2 5.3-13.8 8-19l4.8-9.5a130.4 130.4 0 0 1-53.6-1.1 92.7 92.7 0 0 1-24-9.7 93.6 93.6 0 0 1-9-6.4c-3.7-3-4.2-3.1-6.3-1.8-1.8 1.3-2 1.8-1 3.1.7 1 3.8 3.6 6.8 5.9 3 2.3 8.2 5.7 11.5 7.4 3.3 1.8 9.2 4.3 13 5.7a110 110 0 0 0 15 4c4.4.8 11.4 1.4 15.5 1.4a113.7 113.7 0 0 0 22-2.5l-3 7c-1.8 3.9-4.8 11.3-6.6 16.5a157.9 157.9 0 0 0-8 35.5c-.8 6-1.4 14.7-1.4 19.3 0 5.9.3 8.2 1.3 8.2.6 0 3 1.1 5.2 2.6l4 2.6a55.7 55.7 0 0 0 13.3-9.5c3.2-3.1 9.1-11.5 15.1-21.2a1480.4 1480.4 0 0 0 24.8-41.5c2.2-3.6 4.5-6.5 5.2-6.5.7 0 3.1 4.7 5.5 10.5 2.3 5.8 5.7 13.2 7.6 16.5 1.8 3.3 5.2 8.7 7.4 12a110 110 0 0 0 24.2 26.2c3.8 3 7.8 5.3 8.9 5.3 1.1 0 2.5-.5 3.1-1.2.6-.7 1.4-3.5 1.7-6.3a222.4 222.4 0 0 0 .7-41c-.6-7.7-1.8-17.8-2.6-22.5-.8-4.7-1.3-8.6-1.2-8.7.2-.1 4.4 2.8 9.4 6.5s14.1 10.1 20.4 14.3a270.3 270.3 0 0 0 34.2 19.7A128.4 128.4 0 0 0 373 566c.8 0 2.4-.9 3.5-2l2-2a977 977 0 0 0-14-20 515.2 515.2 0 0 0-29.8-34.5 54.6 54.6 0 0 1-6.7-7.8c0-.4 1.2-.7 2.8-.7a178.7 178.7 0 0 0 31-6.6c4-1.3 9.9-3.8 13.2-5.4a100.2 100.2 0 0 0 20-12.8l3.5-3-4-4"/><path class="shp2" d="M336.5 478.8c.4 1.9.1 3.2-1 4.2-.9.8-1.6 2-1.5 2.8 0 .6.3 1.4.8 1.6.4.3 2.5 0 4.7-.5a112 112 0 0 1 6.8-1.5c1.5-.2 3.1-.6 3.7-.9.6-.3 1-1 1-1.5 0-.6-1.6-1.8-3.6-2.8-2-1-4.2-2.3-4.8-3-.6-.7-2.4-1.3-4-1.2-2.6 0-2.7.2-2.1 2.8z"/><path class="shp3" d="M338.6 480.3l-.6 3c0 .4 1.5.4 3.3 0 1.7-.3 3.4-.7 3.7-1 .3-.1-.6-1.2-2-2.2a12 12 0 0 0-3.1-2c-.4 0-1 1-1.3 2.1zM211.5 485c-3.4.3-4.4.7-3.3 1.3 1.1.4 1.5 1.2 1 2a9 9 0 0 0-.7 3.7c0 1.9-.6 2.6-2.3 2.8-1.2 0-2.2.6-2.2 1.2s.4 1 1 1 1 1.6 1 3.5c0 2.7.5 3.6 2 4 1.2.3 2 1.3 2 2.5 0 1.1-.7 2.3-1.6 2.8-1.4.6-1.4.8 0 2 .9.6 2.3 1 3.3 1 .9-.2 1.8-1.2 2-2.3a6 6 0 0 1 .8-2.5c.3-.3 1.5 0 2.6.8 1 .6 2.8 1 3.9.7 1.1-.3 1.9-1 1.8-1.6-.2-.7-1.3-1.3-2.5-1.3-1.1 0-2.5-.5-3-.9-.4-.4.2-.7 1.4-.7 1.3 0 2.3-.4 2.3-1s-1-1.1-2.3-1.3c-2-.3-2-.4-.4-1.3 1.2-.6 2.2-.4 3.4.7 1 .9 3 2 4.6 2.3 2.1.5 2.7.3 2.7-1.1 0-1.6.2-1.5 2.2.4a8.5 8.5 0 0 0 4.8 2.3c1.4 0 3.3-.7 4.2-1.7 1-1 1.8-2.5 1.8-3.3 0-1.2.2-1.3 1.2-.2a5 5 0 0 0 3 1.2c1 0 2.4 1.3 3.2 3.3.8 1.8 2.4 3.5 3.8 4 1.2.3 2.8.7 3.3.7.6 0 .2-.5-.8-1.2-1-.8-1.7-2.2-1.5-3.3.2-1.1 1.1-2.1 2-2.3 1-.1 2.2.7 2.7 2a6 6 0 0 0 2.5 3c.9.5 1.6 1.5 1.6 2.3 0 .8.4 1.5 1 1.5s1.3-.6 1.7-1.3c.4-.6.6-2.4.5-4-.1-1.8.3-2.7 1.3-2.7.8 0 1.7-1 2-2.3l.5-3c0-.4-.7-.7-1.5-.7s-2-.8-2.8-1.8c-.6-1-1.9-1.8-2.7-2-.8-.2-2-.8-2.5-1.3-.6-.5 0-.6 1.4-.1 2 .5 2.4.4 2-.8-.4-.8-1.5-1.3-2.5-1.1-1.6.3-1.7 0-.6-1.3.7-1 1.8-1.3 2.7-.9 1.3.7 1.4.4.8-1.6-.7-2-1.3-2.2-3.8-1.8-1.7.4-3.5 0-4.3-.6-.7-.7-1.2-.8-1.2-.2 0 .6-1 1.1-2.3 1.2-1.2.1-3.3 1.1-4.7 2.1-2 1.6-2.4 2.7-2.3 5.6.2 2.8-.2 3.8-1.7 4.6-1.6.8-2 .7-2-.5 0-.8-1-2.2-2.3-3a6.6 6.6 0 0 0-5-1 6 6 0 0 0-3.8 2.8c-.8 1.7-1.9 2.2-5.2 2.3-3 .2-3.7 0-2.4-.7 1-.5 1.7-1.3 1.7-1.9 0-.6-1-1-2.2-1-1.8 0-2-.3-1-1.3s1.6-1 3.2 0c1.7 1 2 1 2.5-.2.3-.9-.8-2.6-2.8-4.1a35.4 35.4 0 0 0-5.7-3.8c-1.4-.7-4.7-1-7.5-.6z"/><path class="shp1" d="M205.1 488.3c-.6 1.6-.5 2.3.5 2.4.8.2 1.4.6 1.4 1 0 .5-.5 1.4-1.2 2.2-1 1.1-1 1.3.2.9.8-.3 1.7-1.6 1.8-2.9.2-1.3.8-3 1.3-3.6.6-.9.4-1.5-.6-1.8l-2-.5c-.3 0-1 1-1.4 2.3zm57.2 1.3c1 .2 1.7 1 1.7 1.9 0 .8-.8 1.7-1.8 1.9-1.2.3-1 .4.6.5 1.2 0 2.4-.3 2.7-.9a4 4 0 0 0 0-2.5c-.3-.8-1.5-1.4-2.8-1.4-1.5.1-1.7.2-.4.5z"/><path class="shp2" d="M265.4 492.7c-.1 3.2 0 3.4.7 1.6.5-1.3 1.8-2.3 2.9-2.3 1.1 0 1.9-.6 1.7-1.3-.2-.6-1.4-1.3-2.8-1.5-2.1-.3-2.4.1-2.5 3.5z"/><path class="shp1" d="M439.3 491.8l4.7 7.7c2.3 3.9 5.7 8.6 7.6 10.5l3.4 3.5c-6.3 2.7-8.9 5-10 6.8a16 16 0 0 0-2 7.2c0 2.3.9 5.4 2 7.3 1.1 1.7 3.2 4 4.7 5 2.2 1.4 5.4 1.7 18 2l15.3.2c.4-33.7.4-45.2.3-47.3-.3-3.5-.5-3.7-3.8-3.7H476v22c-11.1 0-12.5-.4-15.1-2.8a65.9 65.9 0 0 1-8.3-11l-5.1-8.3c-6.8 0-8.5.4-8.2.9zm-173 1.4c-.3.7-.2 2 0 3 .4 1 1.4 1.8 2.2 1.8.8 0 1.5-.4 1.5-1s-.4-.8-1-.5c-.6.3-1-.4-1-1.5s.6-2.2 1.3-2.4c.6-.3.4-.5-.6-.5s-2 .5-2.3 1.1zm-122.8.5c-.5.3-.8 1.2-.7 2 .2 1 .8 1 2.7.3 2-.8 2.8-.6 4.3 1a14.1 14.1 0 0 0 8.4 4c.7 0 .2-1-1.2-2-1.4-1.2-3.2-2-4-2-.8 0-2-.9-2.8-2-.6-1.1-2.3-2-3.5-2-1.3 0-2.7.3-3.2.7zm78.5.3c-1.2.8-1 1 .8 1 1.2 0 2.2.3 2.2.8 0 .4-.5 1.3-1.2 2-.7.6-.8 1.2-.3 1.2.6 0 1.6-.6 2.3-1.5 1-1.2 1-1.8 0-3-.7-.9-1.5-1.6-1.8-1.5-.3 0-1.2.5-2 1z"/><path class="shp2" d="M145.6 495.7c-1.2.2-1.4 1-1 3 .5 2 .2 3.2-1 4-.9.7-1.4 1.8-1.1 2.3.3.6 1.8 1 3.3 1 1.5 0 3.2-.4 3.8-1 .5-.4 2.4-1 4.3-1.2 2-.2 3.6-.9 3.8-1.6.2-.7-1.2-1.6-3.2-2.2-2-.6-3.8-1.7-4.3-2.5-.4-.9-1.2-1.7-1.8-1.8-.7-.2-2-.2-2.8 0z"/><path class="shp1" d="M204.1 499.2c0 1.3.2 3.3.4 4.6.3 1.3 1 2 1.8 1.6.6-.3 1.5.2 2 1 .4 1 0 2-1 2.7-1.7 1-1.7 1 0 .5l2.2-.6c.3 0 .5-.7.5-1.5s-.9-2-2-2.8c-1.3-.7-2-2.2-1.9-3.9 0-1.5-.3-3-.9-3.3-.5-.3-1 .4-1 1.7zm-61.6.6c-1 1-1.8 2.4-1.7 3 .1.7.7.9 1.3.4.6-.4 1.4-.2 1.8.4.3.7 1.4.8 2.6.3l2-.8c-3.5-.1-4-.7-3.7-2.6.1-1.4 0-2.5-.1-2.5a9 9 0 0 0-2.2 1.8z"/><path class="shp3" d="M146.5 499.6a9 9 0 0 0-.5 2.4c0 .6 1 .7 2.3.4 1.2-.3 2.5-1 3-1.3.4-.3-.4-1.1-1.8-1.8-2-1-2.6-1-3 .3z"/><path class="shp1" d="M261.5 499.5a4 4 0 0 0 0 2.5c.3.6 1.4 1 2.5 1s2.2-.6 2.4-1.3c.3-.6 0-1.8-.7-2.5s-1.8-1.2-2.5-1.2-1.5.7-1.7 1.5zm100.5 1.6c-2.5 1-5.2 2-6.1 2-1 0-2 .3-2.3.9-.3.6.3 2.5 1.3 4.3 1 1.7 2.4 4.8 3 6.7.5 2 2.4 4.7 4 6.3a9.4 9.4 0 0 0 6.6 2.7c2.6 0 4.2-.8 6-2.8 2.2-2.3 2.8-2.5 4.5-1.5 1.8 1.1 2.2 1 3.4-1.5a22 22 0 0 0 1.8-4.6c.2-1.4-.4-2.1-2.1-2.5-2-.5-2.5-1.2-2.6-4.2 0-2.2-.8-4.5-2-5.8-1.5-1.6-3.1-2.2-6.5-2.1-2.5 0-6.5 1-9 2zm-144 .9c0 .6.5.9 1.1.8.6-.2 1.3.3 1.5 1 .2.6-.3 1.2-1.1 1.2s-1.3.4-1 1c.3.6 1.4.8 2.5.5 1.3-.3 2 0 2 1 0 .8.8 1.7 1.8 2 1 .3 2 .2 2.2-.1.3-.4 0-.8-.8-1-.6-.2-1.2-1-1.2-1.9 0-.9.6-1.3 1.5-1 .8.3 1.3 0 1-.5-.2-.6-1.2-1-2.2-1-1 0-2.5-.6-3.3-1.5-.8-.9-2-1.6-2.8-1.5-.6 0-1.2.4-1.2 1zm38.8 2.1c.7.8 1.2 1.7 1.2 2.1 0 .5-.7.8-1.5.8s-1.7-.8-1.9-1.8c-.3-1.2-.4-1-.5.6 0 1.4.6 2.4 1.9 2.7 1.1.3 2 1 2 1.8 0 .6.5 1.8 1.2 2.5 1 1 1.5 1 2.6-.3.6-.8 1-2.2.7-3a2.3 2.3 0 0 0-2-1.5c-.8 0-1.6-1-1.8-2.2 0-1.2-.9-2.4-1.7-2.6-1.2-.4-1.3-.2-.2 1zm9.8.9c-.4.6-.4 1.9-.1 3 .3 1.1 1.3 2 2.3 2 1-.1 1.1-.4.4-.6-.6-.2-1.2-1-1.2-1.9 0-.8.3-1.5.8-1.5.4 0 1.3.5 2 1.2s1.2.9 1.2.3c0-.6-.5-1.6-1.2-2.3-.7-.7-1.8-1.2-2.5-1.2s-1.4.4-1.8 1zm-52.1 3.7c-.5.3-.8 1-.7 1.5.1.4 1 .5 1.9 0 1.3-.5 1.5-.3 1.1.8-.3.8-1.2 1.4-2 1.2-1-.3-1 0 0 1s1.5 1 3-.4c1.5-1.5 1.5-1.9.2-3.3-.8-.9-1.8-1.6-2-1.5-.4 0-1 .3-1.5.7zm95 2c-.5.3-.7 1.6-.6 2.7.2 1.2.5 1.5.7.9.2-.7.8-1 1.4-.8.6.3 1 0 1-.5s.4-1 1-1 3.5 2 6.5 4.5 5.5 4 5.5 3.5.4-.8 1-.5c.6.3 1 0 1-.5s-.7-1.7-1.5-2.5a6.2 6.2 0 0 0-3.8-1.5c-1.2 0-3.2-1.2-4.4-2.5-1.3-1.4-3.4-2.5-4.6-2.5-1.3 0-2.7.3-3.2.7z"/><path class="shp2" d="M312 513c0 .5-.5.7-1.2.3-.9-.6-1 0-.5 2.2.5 2 .3 3.6-.7 5-1.4 1.8-1.3 2.2.7 4.3l2.2 2.2c4.9-3.6 7.2-4.3 9.3-4.2 2 .1 3.6-.4 4.2-1.3.7-1 .7-1.7 0-2-.6-.3-1 0-1 .5s-2.5-1-5.5-3.5-6-4.5-6.5-4.5a1 1 0 0 0-1 1z"/><path class="shp3" d="M312.6 518.8c-.4 1.5-.5 2.8-.4 2.9l4-1c2.1-.7 3.8-1.4 3.8-1.7 0-.3-1.3-1-2.8-1.8-1.5-.7-3-1.2-3.4-1.2-.3 0-.9 1.2-1.2 2.8z"/><path class="shp0" d="M453.4 522.3c-2.1 1.8-2.8 3.2-2.7 5.8 0 2.4.8 4 2.4 5.2 2 1.5 4.3 1.8 12.6 1.7H476v-15c-19 0-20.1.2-22.6 2.3z"/><path class="shp2" d="M130 532.4c-1.8.7-4 2.1-4.6 3.2a44 44 0 0 0-6 15c-.3 2.1-.2 4.8.4 5.9.7 1.6 2.8 2.3 9.3 3.3 6.3 1 9.7 1 13.7.3 3.8-.8 5.9-1.9 7.7-4.1 1.4-1.6 2.5-4 2.5-5.3 0-1.2-.6-3.1-1.3-4.2-.8-1.1-2.7-2.6-4.3-3.3-2.2-.9-3.2-2.3-4-5.5-.9-2.9-2-4.6-3.8-5.5a12 12 0 0 0-4.3-1.2c-1 0-3.3.6-5.2 1.4z"/><path class="shp1" d="M261 547.2c-.8.7-1.3 1.8-1.2 2.5.1 1 .6 1 2 .2 1.2-.8 2.5-.8 4.4 0 1.6.6 2.8 1.6 2.8 2.1s1.4 1.5 3 2 2.8 1.5 2.5 2c-.3.6.6.9 2 .8 1.4-.2 2.5-.5 2.5-.8 0-.3-.7-1.3-1.7-2.2-1-1-2.8-1.8-4-1.8-1.3 0-2.9-.8-3.6-1.8a11.2 11.2 0 0 0-6.5-4.2c-.4 0-1.4.5-2.2 1.2z"/><path class="shp2" d="M301 549.2l1.5 11.8 1.4 11.5c0 .5 2.2 2 4.8 3.2l10.6 4.8c3.1 1.4 5.9 2.2 6 1.8.3-.5 0-4-.4-7.8l-1.4-11.3-.5-4.2c-17.5-8.8-22-10.5-22-9.8zm-39.3.7c-.4.6-.5 2.2-.2 3.6.3 1.7-.2 3.2-1.5 4.5-1.1 1.1-1.8 2.7-1.5 3.5.3.8 1.3 1.8 2.3 2.2 1 .4 3.2-.3 5.4-1.5 2.1-1.2 5.3-2.2 7-2.2 1.8 0 3.9-.6 4.6-1.5.7-1 .8-1.7.2-2-.6-.3-1.8-.2-2.8.2-1.2.5-1.5.4-1-.5.5-.8-.2-1.6-2-2.3-1.5-.6-3.1-1.7-3.7-2.4a7.4 7.4 0 0 0-3.6-2c-1.5-.4-2.9-.2-3.2.4z"/><path class="shp1" d="M176 551.1c-1.8.6-2.3 1.5-2 3.6.1 1.5.4 2.1.6 1.3.3-.8 1.7-1.6 3.2-1.6a9 9 0 0 1 5.4 2.2c1.6 1.3 3.5 2.4 4.3 2.4.9 0 1.3.6 1 1.5-.3.9.1 1.5 1 1.5.8 0 1.8-.8 2.2-1.8.4-1 0-2.2-1.3-3-1-.7-3-1.2-4.2-1.2-1.2 0-2.4-.6-2.7-1.3-.2-.6-1.5-2-2.9-2.8-1.7-1.1-3.1-1.4-4.7-.8zm269.2 2.1l.3 3.3 30.5.5-.5 15.5-27.5.5.5 6.5 27.5.5c0 8.5-.2 11.7-.5 12.5-.4 1.2-3 1.5-15 1.5H446v7h37l-.5-50.5-37.6-.5"/><path class="shp3" d="M264.2 554.6c-.9 2-1 3.2-.2 3.9.7.7 1.4.6 2.2-.3.7-.6 2-1.2 3-1.2s1.8-.5 1.8-1-.6-1-1.3-1c-.6 0-1.9-.8-2.8-1.7-1.4-1.4-1.6-1.3-2.7 1.3z"/><path class="shp2" d="M175.4 557c.4 1.7-.1 3.3-1.5 5-1 1.4-1.8 3-1.6 3.5.2.5 1.1 1.5 2 2 1.1.7 2.9.4 6.4-1.4 2.6-1.3 5.4-2 6-1.7.7.3 2.2.1 3.3-.4 1.1-.5 2-1.5 2-2 0-.6-.9-.7-2.1-.3-1.7.7-2 .5-1.5-1 .4-1.1 0-1.7-.9-1.7-.8 0-2.7-1-4.3-2.4a8.9 8.9 0 0 0-5.5-2.2c-2.5 0-2.8.4-2.3 2.6z"/><path class="shp3" d="M177.1 560.3l-1.2 3.2c5.1-1.2 7.2-1.5 7.8-1.5.7 0 1.3-.5 1.3-1s-1.5-1.7-3.3-2.5a62 62 0 0 0-3.3-1.5l-1.3 3.3z"/><path class="shp1" d="M172.3 560.5c-1 1.4-1.5 2.9-1 3.3.3.4 1.6-.4 2.7-1.8s2-2.8 2-3.3c0-.4-.4-.7-1-.7-.5 0-1.8 1.1-2.7 2.5zm48.2-.5a8.2 8.2 0 0 0-3.3 3c-.7 1-1.2 3.4-1.2 5 0 2.9-.2 3-3.5 2.5-2.8-.4-4 0-6 2-1.4 1.4-2.5 3.4-2.5 4.5s.6 3.2 1.3 4.6a6.4 6.4 0 0 0 3.7 3.1c1.4.3 4 .3 5.8 0 1.9-.4 3.2-.3 3.2.3 0 .5-.7 2.5-1.6 4.3-.8 1.7-1.2 3.5-.7 3.8.4.4 3.2 1 6 1.3l5.3.6c-1-4.3-1.3-6.4-1.4-7.5 0-1.5.4-2 1.9-1.7l5 .9c2.3.3 3.6-.1 5.3-1.9a8.4 8.4 0 0 0 2.3-5.3c0-1.6-.8-3.7-1.8-4.6-1-1-2.8-2-4-2.3-2-.5-2.2-1.1-1.8-3.6a11 11 0 0 0-.9-5.8c-.7-1.5-2-3-3-3.5a10.6 10.6 0 0 0-8.1.3z"/><path class="shp3" d="M380.2 566.8c-1.7 1.7-3 4.2-3.1 5.6 0 1.4.3 3.5.9 4.6a9.6 9.6 0 0 0 4.3 3.4c1.7.7 4 1.2 5 1 1-.2 1.7-.9 1.7-1.4 0-.5-1.1-2.4-2.5-4a17.6 17.6 0 0 1-2.5-3.5c0-.3.8-.5 1.8-.5s3 1.3 4.7 3c2.2 2.2 3.2 2.7 3.7 1.8.4-.7.8-2.6.8-4.3 0-1.6-.7-4-1.7-5.3-1.2-1.5-3.3-2.5-6-2.9-3.7-.5-4.5-.2-7.1 2.5zm-224.8 37c-1 .2-3 1.4-4.2 2.6a11.2 11.2 0 0 0-2.8 5.1c-.3 1.6 0 3.5.5 4 .7.7 1.9.2 3.6-1.5 1.6-1.6 3-2.2 4-1.8.8.5 1.5 1.3 1.5 1.8s-1.5 2.1-3.3 3.5c-2.6 2-3 2.7-1.7 3.5.8.5 3 1 4.8 1 2.4 0 4.2-.8 6.3-3 2-2 3-4 3-6.3a10 10 0 0 0-1.8-5.5c-1-1.2-3.2-2.6-5-3a14 14 0 0 0-5-.4z"/><path class="shp1" d="M441 610.5c0 .3 4.7 7 10.5 14.8l10.6 14.2c-15.6 14.7-20 19.6-20.1 20.3 0 .8 1.5 1.2 4.3 1.2 4 0 4.7-.5 16.4-12.3l12.3-12.2.5 24 6.5.5v-51h-7v16.5c-6.5 6.5-8.4 7.6-8.8 7l-8.7-12.3-8-11.3c-6.6 0-8.5.3-8.5.6zm14 57a26 26 0 0 0-6.3 4.3 29.8 29.8 0 0 0-5 6.7 35.7 35.7 0 0 0-1.7 22c.9 2.8 2.7 6.7 4.2 8.8 1.7 2.2 5 4.7 8 6.2 3.9 1.8 7 2.5 11.3 2.5 3.6 0 7.6-.8 10-1.9 2.2-1 5.7-3.7 7.8-6a24 24 0 0 0 4.7-7.9c.5-2 1-6.9 1-10.7a25.4 25.4 0 0 0-8-19.9 30.8 30.8 0 0 0-6.8-4.3 31 31 0 0 0-9.4-1.3c-3.5 0-7.9.8-9.8 1.6z"/><path class="shp0" d="M458.3 674c-2.3 1-5 3-6.1 4.6a28 28 0 0 0-3.2 7.4c-.9 3.4-.9 6 0 10.5.6 3.3 1.7 7 2.5 8.3.8 1.2 3 3.1 4.8 4.2 2.1 1.3 5 2 8.7 2 4 0 6.4-.5 9-2.2a18 18 0 0 0 5.3-5.8c1-2 2-6 2.3-9 .4-3.4.2-7-.6-9.5-.7-2.2-2.4-5.3-3.9-6.9-1.4-1.6-4-3.5-5.9-4.2-1.7-.8-4.4-1.4-6-1.4-1.5 0-4.6.9-6.9 2z"/><path class="shp1" d="M460.3 728.5c-1.8.8-4 3-5 4.8-1.6 2.8-1.8 6.1-1.8 24.2v21h7l.4-30.8c0-8.3.4-10 2.1-11.7a8 8 0 0 1 4.8-2 7 7 0 0 1 4.4 1.7c1 1 2 3.3 2.5 5 .4 1.9 1.4 3.3 2 3.3.7 0 2.2-.5 3.3-1 1.8-.9 1.9-1.4 1-5.3-.6-2.3-1.9-5-2.8-6-1-1-3-2.5-4.4-3.3-1.6-.8-4.5-1.4-6.6-1.4-2 0-5.2.7-7 1.5z"/></svg>