<svg version="1" xmlns="http://www.w3.org/2000/svg" width="500" height="792" viewBox="0 0 5000 7920"><path d="M0 3960V0h5000v7920H0V3960z"/><path d="M0 3960V0h5000v7920H0V3960zm581 3649c48-24 86-70 99-121 13-46 4-62-30-56-16 2-27 15-39 48-38 103-173 122-236 34-14-21-18-42-16-88 2-44 59-92 126-106 51-11 55-14 55-39 0-27-3-29-53-33-98-8-153-74-145-173 6-67 35-108 93-131 43-16 47-16 90 0 51 20 78 52 94 114 11 37 15 42 41 42 28 0 30-3 30-35 0-112-109-196-234-181-128 15-210 127-184 250 11 51 64 118 108 136 31 13 41 30 17 30-22 0-93 67-107 100-7 18-10 51-8 81 12 124 172 193 299 128zm4078-14c56-31 93-82 95-133 1-34-1-37-30-40s-32-1-38 37c-16 101-151 135-223 56-39-41-44-92-13-142 23-38 42-49 109-64 47-10 51-13 51-40s-2-29-40-29c-136 0-209-162-120-264 62-70 136-72 202-7 26 27 39 50 44 80 6 40 8 42 38 39s31-5 29-46c-7-155-224-229-350-119-107 94-95 251 26 324l53 32-34 14c-72 30-119 115-104 189 23 116 188 177 305 113zM528 6800c39-24 72-75 72-111 0-14-11-43-25-63s-25-38-25-39 21-1 47 1c127 8 191-141 99-225-31-28-43-33-87-33-46 0-55 4-90 39l-39 39v-29c0-16 9-55 20-86 11-32 20-57 20-58 0 0-30-1-66-1-57-2-64 0-58 15 12 29 34 115 34 135 0 17-5 15-34-13-47-45-107-53-156-19-44 30-60 61-60 117 0 37 5 49 40 83 37 38 42 40 87 35 27-2 59-8 73-12 25-8 25-8-3 14-55 45-70 106-42 162 34 65 128 89 193 49zm4084-14c59-42 75-119 35-177l-23-34 42 3c163 14 202-222 43-261-39-10-95 10-123 43-13 17-27 30-30 30-8 0 6-73 24-122l18-48h-136l19 50c10 28 19 64 19 82v31l-22-20c-72-65-172-53-213 26-57 112 64 233 175 176 38-20 38-11 0 21-16 14-35 43-41 64-10 32-9 44 7 76 29 58 78 87 137 80 26-3 57-12 69-20zm-2010-62c178-60 227-285 89-406-21-18-46-38-57-44-10-7-16-15-12-19s20 2 36 14c101 71 270 38 335-67 81-128 53-282-66-356-122-75-254-42-343 87l-36 52 5-71c6-82 30-169 63-236l24-47-126-3c-69-2-127-1-129 1s5 21 16 43c29 57 59 182 59 247v55l-29-47c-44-69-99-101-181-105-84-5-131 10-183 57-55 49-77 101-77 181 0 82 23 134 80 183 76 65 186 77 279 31 54-27 84-24 41 5-91 60-132 128-132 220 0 56 19 109 54 151 21 26 81 67 113 78 45 16 126 14 177-4zm32-2054c-30-65-64-186-70-247-7-78-1-103 15-61 27 72 109 127 201 135 181 17 315-184 235-350-40-84-107-128-206-135-57-4-75-1-124 22-65 29-86 25-40-8 76-54 113-110 122-184 16-135-87-254-231-269-150-15-286 101-286 243 0 91 38 156 123 211 54 34 39 40-25 10-76-37-117-42-183-23-211 62-250 350-61 461 120 71 275 20 345-113l20-37 1 60c0 65-29 184-60 246-11 21-20 42-20 46s56 8 125 8c110 1 125-1 119-15zm-10-2212c-34-65-55-146-61-228l-5-85 30 47c46 70 101 101 187 106 85 5 146-19 196-76 45-51 59-92 59-169 0-57-5-76-30-120-66-115-211-154-336-91-43 21-77 16-40-6 44-26 100-84 117-121 24-53 24-147 0-201-35-78-144-144-236-144-126 0-239 95-260 217-14 87 50 212 125 243 16 7 30 16 30 21 0 14-22 11-40-6-9-8-44-22-78-30-57-15-68-15-115-1-78 23-130 65-162 130-85 173 30 367 217 366 30 0 71-9 93-19 44-20 119-96 137-139l12-27 4 33c5 49-25 186-58 264l-28 67 122 3c66 2 124 2 128 0 5-2 1-17-8-34zM536 1868c-38-123-42-161-13-126 62 77 190 57 225-34 42-109-60-208-169-165-21 8-39 14-39 13 0-2 16-20 35-40 30-32 35-44 35-85 0-131-173-179-252-70-24 32-26 100-4 134 9 13 16 26 16 28 0 3-23 7-50 9-59 6-103 40-121 95-34 104 77 204 176 157 20-9 43-28 52-40 8-13 19-24 24-24 11 0 0 66-21 123l-18 47h65c63 0 65-1 59-22zm4094 3c0-5-7-28-15-51s-15-59-15-78c0-36 0-36 16-14 69 98 234 42 234-80 0-41-34-97-70-116-26-13-101-12-135 3-12 5-5-6 17-26 45-43 56-90 34-142-23-55-68-79-140-74-53 3-62 7-92 40-43 46-47 106-11 158l23 34-47-3c-65-5-106 18-131 75-24 54-18 99 18 143 38 44 93 56 148 31 24-10 49-29 55-40 7-12 16-21 22-21 13 0 2 63-22 119-11 24-19 45-19 47s29 4 65 4 65-4 65-9zM534 1226c164-69 182-291 29-372l-42-22 48-29c74-46 107-129 80-200-40-105-180-153-295-99-61 28-95 72-102 132l-5 44h37c33 0 36-2 36-29 0-40 43-88 90-102 78-23 170 40 170 115 0 61-54 121-119 132-68 11-72 14-69 42 3 25 8 27 55 32 65 7 101 32 132 93 19 38 22 56 17 92-11 71-78 135-141 135-58 0-119-53-139-121-12-39-17-44-45-47s-31-1-31 25c0 75 43 142 112 176 41 20 137 22 182 3zm4132-32c56-34 91-89 100-157 10-70-30-148-95-188l-50-31 47-32c114-76 118-208 9-283-46-32-142-43-201-23-67 22-121 82-126 140-4 44-1 50 30 50 25 0 30-4 36-35 14-79 97-122 178-94 53 19 81 59 81 114 0 63-47 111-127 127-57 12-59 13-56 43 3 29 5 30 61 36 94 10 142 70 135 169-5 72-33 113-93 136-43 16-47 16-90 0-51-20-81-57-93-112-7-35-12-39-40-42-31-3-32-2-32 32 0 152 186 237 326 150z" fill="#fff"/></svg>