<svg version="1" xmlns="http://www.w3.org/2000/svg" width="500" height="792" viewBox="0 0 5000 7920"><path d="M0 3960V0h5000v7920H0V3960z"/><g fill="#fff"><path d="M0 3960V0h5000v7920H0V3960zm524 3219c77-139 126-240 124-253-3-20-9-21-130-24l-128-3v-158l33-3c27-2 33-8 35-31l3-28-102 3c-98 3-102 4-104 26-1 15 4 22 16 22 44 0 49 9 49 91v79h-45c-41 0-45 2-45 24s5 25 43 28l42 3 3 228 2 227h78l126-231zm4006 161c178-321 210-384 210-410v-30h-260v-159l38-3c32-3 37-7 40-30l3-28h-211v30c0 27 3 30 30 30h30v159l-42 3c-38 3-43 6-43 28s5 25 43 28l42 3v450l42-3c41-3 44-5 78-68zM475 6566c68-29 95-118 55-183l-20-33h50c160 0 184-235 26-264-43-8-89 12-129 57l-28 32 7-45c3-25 14-66 24-92l18-48h-64c-35 0-64 4-64 9s7 28 15 51 15 56 15 73v31l-29-28c-59-56-159-43-201 27-55 89 18 207 119 194 20-3 46-8 59-12 19-6 17-2-12 27-44 44-53 80-35 132 26 75 111 106 194 72zm4095-1c68-35 91-116 51-182l-20-31h42c62 1 105-25 129-79 26-60 18-106-27-149-59-55-130-50-185 12-17 20-33 34-36 32-7-8 15-106 31-137 8-17 15-32 15-36 0-3-29-5-65-5s-65 4-65 9 7 28 15 51 15 56 15 73v31l-29-28c-20-20-43-30-75-33-127-15-196 138-101 225 34 31 41 33 88 30 29-3 61-8 72-13s5 6-17 28c-45 44-56 89-34 140 28 68 125 99 196 62zm-945-85c96-41 149-121 149-225-1-86-52-172-126-211-16-8-28-19-28-24s25 4 56 21c95 50 199 37 280-34 51-45 69-75 84-143 29-129-60-265-193-294-93-21-198 28-257 120-18 28-34 50-37 50-9 0 7-119 23-184 8-32 26-81 40-109 13-28 24-53 24-56s-57-6-126-6c-107 0-124 2-120 15 2 8 16 48 31 89 29 79 47 207 34 231-7 12-8 12-9-3 0-10-24-42-53-71-54-54-106-76-179-76-76 0-181 77-214 156-19 44-18 146 2 192 20 49 70 100 119 123 61 28 163 26 225-6 55-28 60-29 60-15 0 5-20 23-45 40a237 237 0 0 0-105 198c0 34 6 77 13 95 55 129 214 187 352 127zm-2069-6c86-41 137-122 137-219 0-86-51-172-125-211-16-8-28-19-28-24s25 4 56 21c101 53 206 37 291-46 81-79 101-177 56-285-49-121-206-180-320-122-50 26-106 82-123 122-21 51-32 35-25-37 8-75 37-178 66-235 11-21 19-41 19-45s-56-8-125-9c-69 0-125 1-125 3s11 31 25 66c14 34 32 100 40 146 24 136 19 150-28 76-59-92-182-129-285-85-62 27-123 91-140 148-38 126 21 261 135 309 54 22 150 17 212-12 59-28 81-24 41 5-14 11-37 28-52 40-72 55-100 198-57 287 58 120 222 170 355 107zm-3-4282c-30-68-53-169-53-236v-50l29 47c85 133 269 150 377 35 50-52 67-95 67-168 1-98-47-176-135-221-55-28-158-26-225 6-29 13-55 21-57 16-3-4 16-23 42-41 25-19 57-50 69-69 86-128 29-299-121-356-56-22-154-17-211 10-174 84-192 314-33 421 26 18 45 34 42 36-2 3-30-8-60-24-126-63-270-14-335 113-83 164 32 359 212 359 95 0 177-50 222-134l22-41 3 34c6 56-17 164-52 244l-34 76 122 3c66 2 124 2 128 0 4-1-5-28-19-60zm2091 51c-35-80-66-197-70-262-5-82-7-81 41-8 11 17 42 45 69 62 43 26 59 30 121 30s78-4 120-30c142-88 163-272 45-387-77-74-179-89-279-43-57 27-83 24-42-4 166-113 172-322 12-418-137-82-300-38-374 102-33 62-30 156 6 218 25 42 85 98 120 110 7 2 9 8 5 12-3 4-27-5-52-20-61-36-141-44-202-20-58 22-119 76-147 129-29 57-29 165 0 221 45 86 128 138 218 138 89 0 158-43 216-132l29-45v54c0 64-24 165-56 239-13 29-24 55-24 57s46 5 103 7c56 1 113 4 126 5 19 2 22-1 15-15zm960-603c-16-39-34-106-34-128v-26l21 23c86 92 229 39 229-84 0-81-56-130-139-123-25 3-55 8-66 13-12 5-5-6 17-26 42-40 57-93 38-138-38-92-159-113-231-42-46 46-47 101-2 182 2 4-7 4-21 2-36-7-89 13-121 47-22 23-29 41-33 85-4 52-3 56 30 89 61 61 133 60 195-1l36-36-8 49c-4 27-13 64-21 83-8 18-14 36-14 40 0 3 29 6 65 6 55 1 65-1 59-15zm-4074 6c0-2-7-23-15-46s-15-59-15-79c0-36 1-36 18-15 24 31 55 44 99 44 112 0 172-132 96-212-39-41-88-53-140-35-24 8-43 13-43 10 0-2 13-16 30-29 16-14 35-43 41-64 10-32 9-44-7-76-27-54-62-76-122-77-58-1-93 18-122 66-26 43-25 87 4 129l24 35-42-4c-82-8-149 55-148 139 1 51 25 87 76 112 50 25 99 15 144-30 19-19 36-34 37-34 8 0-9 77-25 123l-18 47h64c35 0 64-2 64-4zm88-708c3-25 0-28-28-28h-31l3-82 3-83 43-3c38-3 43-6 40-25-2-18-11-23-45-25l-43-3-2-222-3-222-30-3c-16-1-35 1-41 5-19 14-254 448-254 471 0 21 4 21 128 24l127 3v160l-33 3c-34 3-48 21-38 47 5 13 23 15 103 13l98-3 3-27zm4072 2c0-27-3-30-30-30h-30V751l43-3c37-3 42-6 42-28s-5-25-42-28l-43-3V252l-32-5c-53-7-29-41-234 335-35 64-64 128-64 142v26h124c90 0 125 3 128 13 3 6 4 41 4 77l-1 65-35 5c-29 4-36 10-38 33l-3 27h211v-30z"/><path d="M392 7125l3-170 88-3c62-2 87 1 87 9 0 12-139 273-167 314-12 17-13-4-11-150zM4480 7128v-166l53-4c28-1 71-1 94 2l41 5-85 155c-47 85-89 159-94 165-5 5-9-57-9-157zM339 618c23-40 62-112 88-160 26-49 50-88 55-88 4 0 8 72 8 160v160H298l41-72zM4413 613c91-170 137-247 137-233 1 30 2 246 1 278l-1 32h-179l42-77z"/></g></svg>