<svg version="1" xmlns="http://www.w3.org/2000/svg" width="500" height="792" viewBox="0 0 5000 7920"><path d="M0 3960V0h5000v7920H0V3960z"/><path d="M0 3960V0h5000v7920H0V3960zm4731 3603c0-5 3-34 5-65l5-58h-30c-28 0-31 3-31 34 0 24-5 35-17 38-10 2-79 2-154 0l-136-4 75-112c109-161 202-364 226-498l7-38h-36c-26 0-35 4-35 16 0 38-75 236-124 330-48 90-145 242-182 285-8 8-14 30-14 47v32h220c121 0 220-3 221-7zm-4083-70c3-61 2-63-22-63-21 0-25 5-28 33l-3 32-152 3c-84 1-153 0-153-3s17-29 38-58c121-165 237-406 265-554 6-28 3-33-13-34-11-1-25-2-31-3s-22 37-35 84c-33 114-158 364-239 475-57 79-78 129-61 146 3 2 100 4 218 4h213l3-62zm3919-770c89-42 97-159 16-222l-28-22 32 16c92 44 193-16 193-114 0-88-63-148-144-138-32 4-49 15-78 48-35 38-38 40-38 18 0-13 11-54 23-91l23-66-64-4c-59-3-63-2-57 17 21 64 35 122 35 144 0 25-1 24-30-11-56-68-140-71-194-8-48 58-42 136 14 184 40 33 79 40 129 23l41-15-35 39c-30 33-35 46-35 88 0 101 101 160 197 114zm-4067-22c70-50 76-134 14-196-39-39-39-41 2-20 83 43 184-22 184-118 0-78-58-137-134-137-34 0-46 7-84 47l-45 46 7-49c4-27 16-68 26-91 11-24 18-43 17-43-29-5-127-4-127 1 0 3 6 22 14 40 8 19 17 59 21 89l7 55-31-37c-56-66-134-73-191-17-54 54-49 143 11 194 24 20 41 25 84 25 30 0 57-4 60-10 3-5 12-10 18-10 7 0 0 10-15 23-41 33-61 89-48 136 23 87 135 125 210 72zm3094-66c124-59 177-211 115-330-23-45-85-105-121-118-7-2-10-8-6-12s31 4 60 18c76 37 117 42 183 23 64-19 126-70 155-126 110-215-124-457-328-340-50 29-104 90-117 131-13 39-23 17-18-38 7-78 38-193 68-253l25-49-125-3c-69-2-125-2-125 0s14 43 31 90c23 66 32 110 35 182l5 95-22-40c-49-92-123-138-220-138-147 0-260 145-228 293 15 71 65 139 125 170 65 34 168 34 232 1s72-20 14 21c-209 151-95 461 164 444 33-2 77-11 98-21zm-2009-4c57-25 102-67 128-115 28-54 30-155 3-206-23-45-73-97-110-117-20-11-25-18-17-26 7-7 16-6 30 7 56 51 169 60 249 20 157-78 188-291 60-410-75-71-162-90-246-54-56 24-125 91-147 143l-14 32-1-56c0-69 30-190 64-258 14-28 26-52 26-53 0-2-56-3-125-4-69 0-125 0-125 1s14 39 31 86c25 67 32 104 36 184l4 100-24-51c-57-119-192-166-312-110-171 79-183 330-21 430 71 44 162 48 242 12 54-25 91-27 50-2-41 24-98 81-115 115-60 120-14 260 108 323 66 34 162 38 226 9zm2021-2058c-33-64-57-162-62-248l-5-90 21 37c118 215 414 164 455-79 15-93-47-208-139-255-59-31-156-30-219 1-26 13-51 20-55 16s-1-10 7-13c33-11 100-86 121-134 40-94 12-200-72-272-42-36-118-66-168-66-52 0-131 31-171 67-125 113-114 280 24 383 52 38 47 54-6 21-58-35-128-45-192-26-186 54-246 291-107 425 52 50 103 70 176 70 82 0 154-45 208-129l28-45v49c0 63-25 164-60 242l-28 62 121 4c67 1 125 4 130 5 4 1 1-10-7-25zm-2014-46c-30-75-52-177-52-247v-55l26 45c35 62 52 78 106 106 87 44 196 28 266-39 107-102 105-269-3-365-76-67-194-81-285-33-23 12-45 19-49 16-3-4 3-11 14-17 41-22 111-104 123-144 38-129-20-250-147-307-35-15-59-18-116-15-77 5-126 27-174 78-62 65-80 185-40 266 19 41 75 100 115 122 10 6 16 13 12 17-3 4-27-5-52-20-69-40-146-45-217-12-59 27-113 80-135 133-16 39-18 133-4 185 5 19 26 54 46 77 116 136 307 115 400-44 14-24 28-44 31-44 19 0-34 234-67 300-11 22-20 43-20 47s55 8 123 9h123l-24-59zm1002-1111c-43-107-70-286-44-286 6 0 10 5 10 10 0 23 54 90 93 116 50 33 156 45 209 24 124-50 185-181 146-314-32-109-207-206-270-149-11 9-18 11-18 5 0-18-26-14-71 9-54 27-60 18-12-17 78-59 113-123 114-207 3-222-279-330-441-168-69 69-87 157-54 254 15 43 72 108 119 135 11 6 17 13 14 16-3 4-27-5-52-20-169-94-367 26-367 221 0 171 154 291 312 243 50-15 123-78 150-132 17-32 23-37 26-22 11 49-38 249-73 303-8 12-15 26-15 30s56 8 124 9l123 1-23-61zm-990-1085c-33-82-56-192-52-255l3-51 16 35c59 130 206 181 329 114 171-93 169-344-4-433-65-33-161-34-224-2-59 30-73 22-26-13 78-58 113-122 114-204 1-228-301-329-453-152-84 98-76 231 19 323 21 20 46 40 56 43 18 5 25 24 11 24-5 0-30-11-57-25-61-31-151-34-211-6-52 24-121 99-134 147-28 100 1 209 73 272 49 43 98 62 160 62 90-1 164-50 220-150l26-45v45c0 83-23 167-87 317-4 9 26 13 119 15 67 2 124 3 125 3 1-1-9-29-23-64zm2013 52c-3-10-17-49-31-86-27-72-46-195-36-237 6-24 6-23 20 9 37 89 110 135 215 136 58 0 78-4 116-27 46-27 89-79 108-131 18-47 13-136-9-183-29-58-98-120-152-134-59-17-148-7-197 21-56 31-63 17-11-20 90-65 130-156 110-248-61-272-462-261-506 14-14 90 53 214 133 244 19 7 23 13 15 21-7 7-18 5-39-9-137-96-333-18-373 148-39 162 77 311 241 312 88 0 159-47 213-143l26-45v54c0 68-24 167-60 248l-28 62 106 4c59 1 115 4 126 5 13 1 17-3 13-15zm997-603c-13-29-34-115-34-138 0-22 2-21 34 12 57 57 133 58 184 3 51-54 45-135-13-186-29-25-45-31-81-31-25 0-55 5-67 12-15 7-11 1 10-19 37-34 48-69 40-120-11-68-71-108-151-100-41 4-55 10-83 41-53 57-44 132 22 188 19 17 18 17-23 1-134-51-236 117-133 221 28 27 38 31 87 31 54 0 58-2 94-43l38-43-5 43c-3 24-14 65-24 91-11 26-19 49-19 50s29 2 65 2c54 0 64-3 59-15zm-4070-10c-11-29-34-124-34-142 0-24 17-23 25 1 9 29 88 64 125 56 67-15 119-90 104-151-21-88-110-127-199-89-12 5-5-6 18-28 33-34 37-43 37-89 0-45-4-54-39-89-34-35-44-39-87-39-61 0-92 16-121 59-38 57-25 124 34 171 16 13 21 20 13 17-68-26-86-28-125-15-51 17-85 66-85 122 0 53 17 85 60 114 28 19 44 23 80 19 37-4 51-12 83-47 34-39 37-40 37-19 0 13-11 54-24 92-12 37-21 68-20 70 1 1 30 2 63 2 50 0 60-3 55-15zm3915-732c30-134 145-365 260-523 32-44 51-80 51-97v-28h-440v65c0 62 1 65 24 65 21 0 25-5 28-37l3-38h142c78 0 144 3 147 6s-25 52-63 110c-110 165-201 367-225 497-5 31-4 32 28 32 31 0 33-2 45-52zm-4069 0c37-150 130-343 241-501 47-68 69-107 69-128v-29H259l3 62c3 60 4 63 28 63 22 0 25-5 28-37l3-38h150c82 0 149 2 149 4s-33 53-73 114c-112 167-203 368-223 490-7 42-6 42 24 42 28 0 32-4 42-42z" fill="#fff"/></svg>