<svg version="1" xmlns="http://www.w3.org/2000/svg" width="500" height="792" viewBox="0 0 5000 7920"><path d="M0 3960V0h5000v7920H0V3960z"/><g fill="#fff"><path d="M0 3960V0h5000v7920H0V3960zm553 3595c124-598 132-630 155-633 17-3 22-9 20-25-3-21-8-22-83-22s-80 1-83 23c-3 16 2 22 17 22 29 0 32 10 19 79l-12 61-45 1c-25 0-64 1-85 2-40 2-40 2-53-48-18-71-17-84 12-91 26-6 35-39 13-46-7-2-48-2-91 0-74 3-78 5-75 25 2 15 11 23 30 25 29 3 25-8 143 487 48 202 41 187 78 183 28-3 32-8 40-43zm4054 13c9-12 32-111 117-508 29-139 35-155 54-158 16-2 22-10 22-28 0-23-2-24-80-24-79 0-80 0-80 25 0 18 5 25 20 25 23 0 24 7 9 83l-12 57h-84c-94 0-94 0-108-93-7-46-7-47 19-47 21 0 26-5 26-25 0-25-1-25-85-25s-85 0-85 25c0 20 5 25 24 25 15 0 27 7 30 18 3 9 37 152 76 317 38 165 75 310 80 323 10 24 42 29 57 10zM554 6763c22-10 43-32 57-59 20-37 22-46 11-82-7-23-27-53-45-68-18-16-23-24-12-19 42 18 109 16 141-3 32-20 64-75 64-110 0-58-44-117-98-132-49-13-89-2-128 37-33 33-34 33-34 10 0-22 18-89 35-129 6-16 0-18-59-18-36 0-66 1-66 3 0 1 9 31 20 65 11 35 20 73 20 85 0 20-1 20-27-5-38-35-66-48-104-48-108 0-161 135-85 218 32 34 39 37 88 37 29 0 62-4 73-9 15-6 13-2-8 19-70 67-60 162 21 204 46 25 91 26 136 4zm4093-38c14-9 31-33 40-53 19-47 5-97-39-141l-33-32 39 16c53 22 101 12 142-29 56-56 57-131 3-185-54-55-129-53-186 4-31 31-33 32-33 11s18-89 35-128c6-16 0-18-60-18s-66 2-60 18c18 42 35 107 35 131v26l-23-27c-12-14-32-31-44-37-31-16-89-14-123 4-81 42-79 179 3 221 37 20 111 21 133 3 8-6 17-9 20-6s-4 11-16 17c-29 15-60 69-60 103 0 109 128 166 227 102zM2656 4550c-3-8-16-46-31-84-25-66-51-212-43-237 2-7 16 8 30 33 55 93 172 138 282 107 53-15 138-100 154-155 24-84 9-170-43-239-64-83-212-112-310-60-50 27-77 24-35-4 55-36 80-65 106-117 44-90 26-190-47-263-156-156-427-67-446 147-9 95 48 196 133 234 25 12 32 28 13 28-6 0-24-9-39-20-16-11-53-25-83-31-198-40-360 179-267 361 42 81 133 140 218 140 86 0 169-52 218-136 14-24 28-44 31-44 9 0-7 119-23 183-8 32-26 84-39 114-14 31-25 56-25 57 0 0 56 1 126 1 107 0 124-2 120-15zM549 1800c-10-28-19-64-19-81v-31l31 26c37 31 69 40 111 32 47-9 78-33 94-71 42-101-26-191-137-183-42 3-46 1-34-12 23-25 45-87 39-107-19-58-30-75-59-93-43-27-119-27-163 0-62 38-77 125-31 184l20 25h-43c-79-1-131 37-144 106-25 133 136 212 228 113l28-30v33c-1 30-11 64-35 122-6 15 0 17 63 17h70l-19-50zm4095 11c-9-22-34-123-34-140 0-8 14-1 35 17 46 41 93 49 141 26 53-27 77-64 77-118 0-82-52-131-140-130l-54 1 22-23c29-31 36-101 14-143-17-35-81-70-124-71-14 0-44 9-67 20-73 36-95 117-49 184l25 36-39-6c-78-12-151 50-151 129 0 133 156 185 240 80l23-28-7 48c-4 26-14 63-22 82s-14 38-14 42 30 8 65 9c57 1 65-1 59-15zM415 1140c0-18-6-26-21-28-20-3-21-7-13-50 18-100 10-92 99-92 88 0 91 2 104 73 4 21 10 45 12 52 4 9-4 15-23 17-18 2-29 10-31 22-6 32 1 33 161 27 11-1 17-9 17-25 0-19-6-25-27-28-27-3-28-4-108-338l-80-335-31-3c-19-2-33 2-36 10-3 7-36 160-74 341-59 283-71 327-87 327-20 0-32 23-23 45 5 13 21 15 83 13 76-3 78-4 78-28zm4095-25c0-19-5-25-21-25-20 0-21-3-14-57 11-86 7-83 101-83h83l10 38c21 84 22 92 9 96-44 13-46 16-41 35s13 21 89 21c82 0 84 0 84-24 0-19-6-25-26-28-29-3-21 25-154-540l-32-138h-33c-39 0-25-46-122 408-55 259-59 272-80 272-18 0-23 6-23 25 0 25 1 25 85 25s85 0 85-25z"/><path d="M467 7293c-20-87-37-161-37-165 0-5 32-8 70-8 58 0 70 3 70 16 0 30-52 299-59 307-4 4-24-64-44-150zM4570 7422c0-5-16-77-35-162s-35-155-35-156 19-4 42-7c57-8 98 2 98 22 1 35-54 311-62 311-4 0-8-4-8-8zM416 911c-6-8 49-330 57-338 7-6 79 326 73 335-7 12-123 15-130 3zM4504 863c4-16 17-90 31-167 13-76 27-141 29-143 7-8 76 283 76 321 0 13-12 16-71 16h-71l6-27z"/></g></svg>