<svg xmlns="http://www.w3.org/2000/svg" width="500" height="792"><style>.shp0{fill:#fff}.shp1{fill:#000001}.shp2{fill:#ffd001}.shp3{fill:#db0001}.shp4{fill:#0044ba}</style><path class="shp0" d="M0 396v396h500V0H0"/><path class="shp1" d="M467 20c-6.8.4-7.5.7-7.8 2.8-.1 1.4.5 2.4 1.9 3 1 .4 1.8 1.1 1.6 1.7l-7 12-6.7 11c0-24.2 0-24.5 2.3-24.8 1.6-.1 2.3-1 2.4-3l.3-2.7-19.5.5c-.5 5.2-.2 5.5 2.5 5.5h3v60.5c-5.2 2.2-6 3-5.8 4.8.3 2.1.7 2.2 9.8 2.2h9.5c0-5.4-.5-6-2.3-6.3-2.2-.2-2.2-.4-2-12.5.2-9.3.6-12.2 1.6-12.2.7 0 4.6 5.4 8.7 12 7.1 11.7 7.3 12 5.2 13-1.2.6-2.3 2-2.5 3-.2 1.1.3 2.3 1 2.7.7.4 4.7.8 8.8.8 4.1 0 8-.4 8.8-.8.7-.4 1.2-1.8 1-3.2-.2-1.6-1.1-2.6-2.8-3-2-.5-4.9-4.4-12.9-17.5l-10.4-17c15.4-25 16.3-26 19.4-26.5 3-.4 3.4-.9 3.4-3.5 0-2.3-.5-3-2-3-1.1-.1-5.4 0-9.5.4zM26.6 22c-.4 1.1-.4 2.4-.1 3 .3.6 1.9 1 3.5 1h3l-.5 61.5c-5.4 1-6 1.5-6 3.5 0 2.5 0 2.5 9.5 2.5h9.5c.5-5 0-5.5-2.3-5.8l-2.7-.2c-.6-20.4-.4-22.3 1.2-24.3l1.8-2.3C55.1 80 58.6 86 58.8 86.7c0 .7-.7 1.3-1.8 1.3-1.6 0-2 .6-1.8 2.8l.3 2.7h18c.5-5 .1-5.5-2-5.5s-3.7-1.9-10.3-12.8c-4.3-7-9-14.8-10.5-17.5L48 53c15.2-25.4 16.1-26.5 19.2-27 2.7-.4 3.3-1 3.5-3.3L71 20H52c0 5.2.5 6 1.9 6.3 1.6.2.8 2-5.3 12-7 11.7-7.1 11.8-7.8 8.5a44 44 0 0 1-.7-8.3c0-2.8.3-6.7.5-8.8.3-3 .8-3.8 2.6-4 1.7-.1 2.4-1 2.5-3L46 20c-18 0-19 .2-19.4 2zm61.1 64.3c-.3.6-.5 132.7-.6 293.4 0 277.7 0 292.3 1.7 292.3H254c129.5 0 163.6-.3 164.2-1.3.4-.6.5-75 .3-165.2l-.4-292.3L418 85c-296 0-330 .3-330.3 1.3z"/><path class="shp0" d="M93.4 90.7c-.4.4-.7 44.5-.6 98.2l.2 97.6c11.2-11 17.9-17 22-20.5 4.1-3.4 12.5-9.5 18.5-13.5s15-9.5 20-12.3c5-2.7 11.7-6.1 15-7.5 3.3-1.4 9.3-3.4 13.3-4.6 4-1.2 7.2-2.5 7.2-3.1 0-.6-1.1-1.7-2.5-2.5s-3.4-3-4.5-4.8a15.9 15.9 0 0 1 0-15.4 19 19 0 0 1 5.3-5.3c2.2-1.4 5-2 9-2 4.6 0 5.8-.3 6.2-1.8.2-1 .4-7.3.4-14.2a56 56 0 0 1 2.1-19.5 113 113 0 0 0 3.2-18.5c1-9.9.8-12.3-.6-17.5-1-3.3-3-8.7-4.8-12L196 98l-3.8-7.5c-75.9-.3-98.3 0-98.7.2z"/><path fill-rule="evenodd" class="shp2" d="M202.6 90c3.5 0 6.4.2 6.4.5s-.7 2-1.5 4-2 3.5-2.5 3.5c-.6 0-2-.5-3.3-1.1-1.2-.6-3.2-2.1-4.4-3.3-1.3-1.1-2-2.4-1.7-2.8.3-.5 3.4-.8 7-.8zm15 0c4.2 0 4.5.2 5.9 4 .8 2.2 1.5 4.7 1.5 5.5 0 1.2 1.1 1.4 6.3 1 3.4-.4 6.6-.8 7.2-1 .6 0 1.4-1.7 1.8-3.6a13 13 0 0 1 2-4.7c.7-.8 3.5-1.3 7-1.2 4.5 0 5.8.4 6.3 1.8.3 1 1.3 3.3 2.2 5.2 1.6 3.4 2 3.5 12.6 3.5l2.5-5c2.4-4.6 3-5 6.6-5.3 2.9-.2 4.5.2 5.7 1.5.9 1 2 3.8 2.5 6.2.8 4.4.9 4.5 6.3 5.7l5.8 1.4a49 49 0 0 0 3.7-5.5c2-3 4.7-6.3 6.1-7.3 1.9-1.2 3-1.4 4.1-.7a11 11 0 0 1 2.9 4.5c.7 2 1.3 5.2 1.3 7.3 0 2 .4 3.9.9 4.1.4.2 2.3.7 4.2 1 3.3.7 3.7.5 6.4-3.6 1.5-2.3 4-5.3 5.5-6.5 1.4-1.1 3.4-2.4 4.4-2.7 1.4-.5 1.8.1 2.3 3.2.3 2 .3 5.6 0 8-.4 2.4-.2 4.4.4 4.7.6.3 1 1 1 1.5s-.9 1-2 1-2.7 1.1-3.5 2.5a7.5 7.5 0 0 1-4.3 3c-1.7.4-3.6 0-5-1a5.4 5.4 0 0 1-2.2-4c0-1.7-.8-2.8-2.3-3.4-1.2-.4-3.2-.8-4.4-.7a8.8 8.8 0 0 0-4.5 2.3 10.5 10.5 0 0 1-6 2.5c-2.5.2-4.3-.3-5.7-1.7-1.2-1.1-2.2-2.7-2.2-3.5 0-.8-.3-2-.7-2.7-.4-.7-3.2-1.5-6.2-1.8-5.4-.6-5.5-.6-8.3 3-2 2.6-3.4 3.5-5.7 3.5-1.6 0-4.1-.5-5.5-1-1.7-.7-2.7-2-3-4-.3-1.7-.8-3.2-1.3-3.5-.4-.2-3-.7-5.7-1-5-.6-5-.6-7.5 3.2-1.8 2.8-3.4 4-6 4.4-2 .4-4.8 0-6.8-.8-1.7-.7-3.2-2-3.2-2.8 0-.8-.7-2.2-1.5-3a4.6 4.6 0 0 0-3.8-1l-5.7.9c-2.7.4-3.9 1.3-5 3.6a8.3 8.3 0 0 1-4.5 4c-2 .7-4 .7-5.8 0a6.6 6.6 0 0 1-3.7-4c-.9-2.6-1.4-3-4-2.5-1.7.3-3.2 0-3.5-.5-.3-.5.6-1 2-1a4 4 0 0 0 3.5-2c.6-1.1 1-3 .9-4.3 0-1.2.7-3.3 1.5-4.5 1.3-1.7 2.7-2.2 6.2-2.2zm10.4 0c1.1 0 2 .6 2 1.3 0 .6-.4 1.9-.9 2.7-.5.8-1.4 1.2-2 .8-.6-.5-1.1-1.7-1.1-2.8 0-1.3.7-2 2-2zm8 0c2.8 0 3 .2 2.4 2.8a13 13 0 0 1-1 3.2c-.2.3-1.3-.4-2.4-1.5-1.2-1.1-2-2.6-2-3.3 0-.7 1.3-1.2 3-1.2zm24.8 0c1.3 0 1.8.7 1.8 2.3 0 1.2-.7 2.2-1.6 2.2-.8 0-1.6-1-1.8-2.3-.3-1.6.1-2.2 1.6-2.2zm8.2 0c1.6 0 3 .2 3 .5s-.9 2-2 3.8c-1.8 3.2-1.8 3.2-3 1-.5-1.3-1-3-1-3.8 0-1 1-1.5 3-1.5zm29 0c5 0 9 .2 9 .5s-1.5 2.3-3.3 4.5c-1.7 2.2-3.5 4-4 4-.4 0-1-1.6-1.2-3.5-.3-2-1-3.5-1.8-3.5-.6 0-1.6 1-2.2 2.2-.6 1.2-1.4 2.3-2 2.5-.6.2-1.6-.8-2.3-2.2-.6-1.4-1.2-3-1.2-3.5 0-.6 3.7-1 9-1zm40.3 0c16.3 0 20.6.3 20 1.3l-3.7 5.7c-1.7 2.5-4 5.3-5.1 6.3-1.1 1-2.4 1.7-3 1.7-.6 0-1.3-2.8-1.7-6.2-.4-3.5-1-6.7-1.5-7.1-.4-.5-2.6 0-4.7 1S333 96.4 327 103v-3c0-1.7-.4-3-1-3s-1.6 1.1-2.3 2.5c-.6 1.4-1.5 2.5-2 2.5-.4 0-1.1-2-1.6-4.3-.6-2.3-1.3-5-1.7-6-.7-1.6.7-1.7 20-1.7z"/><path class="shp0" d="M362.4 91.5a86 86 0 0 0-6.5 8 186 186 0 0 0-17.4 28.5 45 45 0 0 0-2.9 7.3c-.4 1.8.1 4.3 1.6 7.4 2 4.5 2.2 6.3 2.2 30.9 0 19.2.4 26.5 1.4 27.8.9 1.2 1.7 1.4 3.2.6 1.1-.6 3.2-1 4.8-1 1.6 0 3.7 1 5.2 2.6 2 2.1 2.5 3.6 2.6 8.7 0 3.4.3 6.8.7 7.4.4.7 1.1 1 1.7.8.6-.3 3.6.2 6.8 1l8.2 2.6c1.4.5 2.7.7 3 .3.3-.3.5-22 .5-48.2 0-44.8.1-48 2-52.2 1-2.5 3.3-7 5-10 1.8-3 4-6.2 4.9-7 1.5-1.3 1.9-1.3 3.8.5a48.4 48.4 0 0 1 10.2 17c1.4 4.4 1.6 11.5 1.8 56 .1 44.8.4 51.2 1.7 52.7.9 1 2.5 1.8 3.6 2 2 .3 2-.3 2.3-72 .2-68.1.1-72.2-1.6-72.3l-24.6-.3c-14 0-23.4.3-24.2.9z"/><path class="shp1" d="M138.5 102.9c-2.2 1-5.2 3.1-6.7 4.7a26.8 26.8 0 0 0-4.3 6.7 25 25 0 0 0-1.5 8 23 23 0 0 0 7 15c1.8 1.4 2 1.8.5 1.1-1.1-.5-5.2-.9-9-.9-6.3 0-7.7.3-11.5 3a27.5 27.5 0 0 0-6.6 7 27 27 0 0 0-3 9.5c-.5 4.7-.2 6.3 2.3 11 1.7 3.4 4.3 6.5 6.8 8.3 2.4 1.6 6 3 9 3.4 4.2.5 6 .2 10.8-2 3.9-1.9 6.6-4 8.4-6.7 1.6-2.2 3-4 3.3-4 .3 0 .2 2.8-.2 6.3a62.3 62.3 0 0 1-6 19.2c-.4.6-.8 1.2-.8 1.5 0 .3 5 .5 11 .5 9.4 0 11-.2 10.4-1.5l-2.6-7c-1.1-3-2.3-8.4-2.6-12l-.6-6.5c5.5 6.2 8.7 8.8 10.8 9.8 2 1 5.7 1.7 8.3 1.7 2.7 0 6.6-.8 8.8-1.8 2.2-1 5.5-3.6 7.3-5.8 1.9-2.3 3.6-6 4.3-8.9.8-3.6.8-6.2 0-9-.5-2.2-2-5.6-3.3-7.5-1.3-2-4.4-4.6-6.8-6a19 19 0 0 0-10.5-2.4c-4.3 0-7.1.7-10 2.3-2.2 1.2-4.1 2-4.3 1.6 0-.3 1.6-1.6 3.8-3a17 17 0 0 0 6.7-8.3c2-4.5 2.5-6.8 2.2-10.8-.3-3.3-1.3-6.4-3-9a26.4 26.4 0 0 0-7.6-6.6 18.8 18.8 0 0 0-10.8-2.8c-3.8 0-7.5.7-10 1.9zm-94.2.5a15 15 0 0 0-5.2 4.5 15.5 15.5 0 0 0-2.2 7.3c-.1 2.4.6 5.5 1.5 7L40 125c-6.2 0-9.4.8-11.1 1.8-1.7 1-4 3.4-5 5.5-1 2-1.9 5-1.9 6.4 0 1.6.9 4.4 1.9 6.3 1 2 3.4 4.3 5.2 5.3a16 16 0 0 0 6.1 1.7c1.6 0 3.8-.5 5-1.1 1.3-.6 3.5-2.3 5-3.8l2.8-2.6c0 4.3-.9 7.9-2 10.8l-1.7 5.3a104 104 0 0 0 13 .8c.4-.2-.2-2.7-1.3-5.4-1.1-2.8-2-6.1-2-7.5V146c4.3 3.6 6.9 5 8.5 5.4 1.7.4 4.5.3 6.5-.3s4.8-2.4 6.5-4.2c2.3-2.3 3-4.2 3.3-7.7a12 12 0 0 0-1.7-8 14.5 14.5 0 0 0-11.8-6.2c-1.6 0-4.1.7-5.8 1.6-2.9 1.5-2.8 1.4.8-2 2.5-2.4 4-4.8 4.3-7.3.5-2.8.2-4.7-1.2-7.2a20 20 0 0 0-4.4-5.3 16.8 16.8 0 0 0-14.6-1.4zm407 .6c-1.8 1.1-4 3.3-4.8 5a19 19 0 0 0-1.7 6.3c0 1.7.4 4.2 1 5.5.7 1.2 1.2 2.4 1.2 2.7 0 .3-1 .5-2.3.5-1.2 0-4 .8-6.2 1.8-3 1.3-4.6 3-6.2 6.3a20.4 20.4 0 0 0-2.3 6.9c0 1.4 1 4.2 2.3 6.3 1.2 2 3.7 4.4 5.4 5.2 1.8.8 4.4 1.5 5.8 1.5 1.4 0 3.5-.5 4.8-1.1 1.2-.6 3.5-2.3 5-3.8l3-2.6a45.4 45.4 0 0 1-4 16c0 .2 3 .5 6.4.7 3.4.2 6.4 0 6.7-.2.3-.3 0-2-.8-4s-1.7-5.5-2-8c-.7-4-.6-4.3.7-2.5.8 1.1 3.2 2.8 5.3 3.8 3.2 1.5 4.6 1.7 7.9.8 2.5-.6 5.2-2.3 7.3-4.5 2.6-3 3.2-4.4 3.2-8.1 0-2.5-.7-5.8-1.5-7.5-.8-1.7-2.9-3.7-4.5-4.5-1.6-.8-4.2-1.6-5.8-1.7-1.5-.1-4 0-5.4.5l-2.8.7c3.1-3.1 4.4-5.1 5-6.5.6-1.4 1-4 1-6 0-2.7-.9-4.4-3.8-7.5-3.4-3.6-4.1-4-9.2-4a16 16 0 0 0-8.8 2z"/><path class="shp3" d="M226 110.1c-2.7 3.1-4.4 4.2-7.5 4.6-3.6.5-4.4.2-8.3-3.3-2.4-2.2-4.3-3.3-4.3-2.7 0 .7 1.4 2.6 3.1 4.3 2.3 2.3 4 3 6.8 3 2 0 5.5-.3 7.6-.8a8 8 0 0 0 6-4c1.2-1.7 2.7-3.2 3.3-3.2.7 0 1.3.7 1.3 1.5s.4 1.5 1 1.5h1.5c.3 0 1.8.7 3.5 1.5s3.6 1.5 4.3 1.5c.6 0 0-.7-1.3-1.4-1.4-.7-3.3-2.5-4.3-4-1.3-2-2.5-2.6-5.4-2.6-3.2 0-4.4.8-7.3 4.1zm31.6 0c-2.3 2.2-3.3 3.9-2.5 3.9.8 0 3-1.5 4.8-3.3 2.7-2.5 3.5-2.9 4-1.7a15 15 0 0 0 3 4c2 2 4 2.8 9.6 3.4 4 .4 8 .3 9.5-.2 1.4-.5 3.3-2.1 4.3-3.6 1-1.4 2-2.6 2.4-2.6.5 0 1.3 1.5 1.8 3.2.6 1.9 2 3.8 3.5 4.5 1.4.6 5.2 1.6 8.5 2 4.5.8 6.7.7 8.8-.4 1.5-.7 2.7-1.8 2.7-2.3 0-.5.7-1 1.5-1s1.7.9 2 2c.3 1.1 2 2.9 3.8 4 1.8 1.1 5 2 7.3 2 2.2 0 4.5-.6 5.2-1.3.7-.6 1.2-1.5 1.2-2 0-.4-1 0-2.3.8a9.2 9.2 0 0 1-4.2 1.5c-1.1 0-3.5-1-5.3-2a10 10 0 0 1-4-4.5c-.4-1.4-1.4-2.8-2.2-3-.8-.3-2.6.3-4 1.2-1.4 1-3.9 2.3-5.5 2.9-2.2.8-4.1.8-6.9 0-2.9-.8-4.5-2-6-4.8-1.2-2-3.2-4-4.6-4.5-2.1-.7-3-.3-6 2.9-3.1 3.3-4 3.7-8.5 3.8-2.9 0-6-.6-7.3-1.5-1.2-.8-2.9-2.8-3.7-4.5-1.1-2.3-2.2-3-4.3-3-1.8 0-4 1.4-6.6 4z"/><path class="shp2" d="M387.3 115c-1.2 2-2 3.7-1.7 4 .2.3 1.4-.4 2.5-1.5s1.9-2.9 1.7-4c-.3-1.7-.6-1.4-2.5 1.5z"/><path class="shp4" d="M393.5 113.6a11555.5 11555.5 0 0 0 .9 169.9c.2 8.3 1 17.3 1.6 20a124 124 0 0 0 2.1 7.5 5.7 5.7 0 0 0 2.9 3.3c2 .7 2 .4 1.8-18.3-.2-12 0-19.2.7-19.5.7-.3.7-.7 0-1-.6-.3-1-10-1-26.3.2-17.5-.2-26-1-26.4-.7-.6-.7-1 0-1.6.8-.4 1.1-8 1-22.2 0-11.8-.4-22-.8-22.8-.4-.6-.4-2.4 0-4 .4-1.5.6-10.8.6-20.7 0-10.3-.6-20-1.2-22.5-.7-2.5-2.2-7-3.4-9.9-1.2-3-2.5-5.5-2.8-5.7-.4-.2-1-.1-1.4.2z"/><path class="shp2" d="M385.1 122.8c-1.8 1.5-3.2 3.3-3 4.1.3 1 1.4.6 4.1-1.7 2.1-1.8 3.8-3.7 3.8-4.2s-.3-1-.8-1c-.4 0-2.2 1.3-4 2.8zm1.9 4.6c-1.4 1.4-3.5 3.6-4.6 5-1.2 1.4-1.6 2.6-1 2.6.6 0 2.8-1.7 5-3.7 2-2.1 3.6-4.4 3.4-5.1-.2-1-1.1-.6-2.8 1.2z"/><path class="shp0" d="M230 130.2c-9 .4-16.6 1-16.7 1l-1 5.7-.8 5.3c5.4-1 9-.8 11.5-.2 2.5.6 5.5 1.1 6.8 1 1.3 0 2.2.6 2.2 1.5 0 .8-.9 2-2 2.5a12 12 0 0 1-4.5 1c-1.4 0-3.3-.4-4.3-.9l-4.4-1.5c-1.9-.4-3.3 0-4.3.9-.8.8-1.5 2.4-1.5 3.5 0 1.5.5 1.8 1.8 1.4 1-.3 3.5-.8 5.7-1 2.2-.1 6.1.3 8.8 1 2.6.6 4.7 1.7 4.7 2.3 0 .7-.6 1.5-1.3 1.7-.6.2-2.3 0-3.7-.6-1.4-.4-2.6-.7-2.7-.6 0 .2 2 1.5 4.8 3l4.9 2.8c-.4-6.8 0-8.4.8-8.7.7-.2 1.6 1.2 2.1 3.4.6 2.5.6 4.8-.2 6.8-.5 1.7-1.9 4.5-2.9 6.3a57.7 57.7 0 0 0-4.8 16c0 .6 1.5 1.8 3.3 2.6 1.7.8 3.8 2 4.4 2.7.7.8 1.4 2.7 1.5 4.3.2 1.6-.2 3-1 3.2-.6.2-1.2-.4-1.2-1.3 0-1-.7-2.6-1.7-3.5-1-1-2.3-1.8-2.8-1.8-.6 0-2-.9-3.3-2a7 7 0 0 1-2.2-5c0-1.7.5-4 1.2-5.3a14 14 0 0 0 1.4-3.7c0-.8 1-3.4 2-5.8 1-2.3 1.6-4.5 1.2-5-.5-.4-1.6 0-2.5 1-1 .8-3.6 1.8-5.8 2.2-2.2.3-5.5.1-7.3-.4-3.2-1-3.2-1-4.3 3.3-.6 2.3-1 8.5-.7 13.7.2 5.2.7 10 1 10.8.6.9 1.4.6 3.3-1 2.2-2 2.6-2.1 4-.8.9.8 1.4 2 1.2 2.5-.2.6-1.2 1-2.3 1-1 0-1.9.6-1.9 1.4 0 .8.7 1.9 1.7 2.5 1.3.9 2.3.5 5.2-2.2 2-1.7 4.7-3.8 6.1-4.4 1.7-.9 2.9-1 3.6-.3.6.6.8 2.2.5 3.8-.4 2-1.5 3-3.8 3.6l-7.3 2.4c-2.6 1-4.6 1.2-5.8.6a13 13 0 0 0-2-.9s-.3 5.7-.3 12.8c0 8.6-.6 14-1.6 16.7l-2.3 6c-.5 1.6-.3 1.5 1.4-.5 1.1-1.4 2.8-5 3.7-8 .8-3 2-6.6 2.6-8 .7-2 1-2.2 1.7-1 .5.8.3 3.7-.4 6.5s-1.5 6.1-2 7.5c-.6 2.2-.6 2.3.8 1 .8-.8 2.2-3.5 3-6 .8-2.5 2-4.6 2.6-4.8.6 0 1.1 1 1 2.6 0 1.5-.6 4-1.4 5.7-.8 1.7-1.3 3.1-1 3.3.3 0 1.4-1.8 2.5-4.3s2.4-4.5 3-4.5c.6 0 1 1.2 1 2.8v2.7c2.6-4 3.4-4.3 4.5-3.5 1 .7 1.7.7 2 0 .3-.6 1.2-1 2-1s1.8 1.2 2.3 2.6c.4 1.5 1.4 3 2.2 3.4 1.2.6 1.4.2 1.3-2.1-.2-1.8.2-3 1-3 .6 0 1.7 1.5 2.4 3.3.6 1.8 2 3.6 3 4 1 .5 2 .7 2 .6.2-.2-.2-1.9-.8-3.8-.7-2.3-.8-3.8-.1-4.5.7-.7 2 .8 3.8 4.5 1.6 3 3.7 5.6 4.7 5.7 1.6.3 1.6 0 .2-2.7-.8-1.7-1.5-4.3-1.5-6 0-1.7.4-3 1-3s1.4 1.7 2 3.8c.5 2 2.1 5 3.5 6.7l2.5 3a68.8 68.8 0 0 1-3.7-10.5l-.6-3.4c-.1-.6.6-1.1 1.6-1.3 1.2-.2 1.7.4 1.7 2 0 1.2 1 4.1 2 6.4 1.1 2.4 2.4 4.5 3 4.8.6.3.3-1-.6-2.8-.9-1.7-1.7-5.6-1.8-8.6 0-3.5.3-5.5 1.1-5.7.9-.3 1.3.8 1.3 3.1a23.3 23.3 0 0 0 6.6 14.7c1.6 1.5 4 3 5.4 3.6a13.4 13.4 0 0 0 11.3-2.5c1.1-1.2 1.8-3.3 1.7-6 0-3.5-.5-4.8-3-6.8a11.3 11.3 0 0 0-5.8-2.5c-1.5 0-3.7 1-5 2.2-1.1 1.3-2.2 3.2-2.2 4.3 0 1.1.9 3.2 2 4.8 1 1.5 2.8 2.7 3.8 2.7a5 5 0 0 0 3.2-1.5c1.4-1.5 1.2-1.6-1.8-1-2.6.4-3.4.1-4.3-1.8a4.6 4.6 0 0 1-.1-4.2c.5-1.1 2.2-2.3 3.8-2.7 1.6-.3 3.6-.3 4.4.2.8.4 1.9 2.3 2.3 4.1.6 2.6.3 4-1.1 5.9-1.5 2-3 2.6-6.6 2.8-3.7.1-5-.2-6.6-2-1.1-1.3-2-3-2-3.8 0-.8-.9-3.3-2-5.5s-2-6-2-8.3c0-2.8.4-4.1 1.3-3.9.6.2 1.4 2.3 1.7 4.8.3 3 1 4.4 2 4.4s1.4-.8 1.3-2l-1-7.5c-.3-3-.2-5.8.3-6.2.5-.4 1.6 2 2.4 5.3.8 3.3 2 6 2.8 6 .8 0 1-.8.3-2.3a45.3 45.3 0 0 1-.1-18.3c.6-.3 1.2.6 1.5 2 .3 1.4.3 2.8 0 3.3-.1.4.3 3.6 1 7.2.8 3.6 2.2 7.2 3 8 1.6 1.3 1.7 1.3 1.1-.5l-1.7-7a66.3 66.3 0 0 1 .7-28c1-6 1.7-14.4 1.8-25 0-14.5-.1-16.5-2.1-21-1.3-2.8-3-5.8-4-6.8-1.5-1.4-5-2-19.8-3.2-9.9-.8-18.2-1.4-18.5-1.3l-17 1zm59.1 2.2c0 .3.5 2 1.3 3.8l2.5 6.3c.5 1.7 1.5 7.5 2.1 13a73 73 0 0 0 1.6 10.5 75.6 75.6 0 0 0-1-19.5c-.7-3.3-2-7.7-3-9.8-.9-2-2-4-2.5-4.3-.5-.3-1-.3-1 0z"/><path class="shp2" d="M383.8 136.5c-2.1 2-3.6 4-3.3 4.5.3.6 1.1.6 2.3-.2 1-.7 3-2.4 4.5-3.8 1.5-1.3 2.7-2.8 2.7-3.3 0-.4-.6-.7-1.3-.7-.6 0-2.9 1.6-5 3.5z"/><path class="shp0" d="M296 135.2c0 .7.7 3.3 1.5 5.8.9 2.5 1.9 7.9 2.2 12a156.5 156.5 0 0 1 .4 19.5c-.1 1.1-.9 4.5-1.8 7.5a70 70 0 0 0-1.7 18c0 10.2.3 13.2 1.7 16l1.8 3.5c-1-7-1.5-11.5-1.7-14.5-.3-3 .6-14 2-24.5 1.3-10.4 2.3-21.5 2.2-24.5a54.8 54.8 0 0 0-5.8-19.7c-.3-.2-.7.2-.7.9zm7.3 5.6c1 3.3 1.9 10.3 2.1 16.7.3 7 0 13.3-.8 17.5-.8 3.6-1.9 9.4-2.5 13-.6 3.6-1 9-1 12s.4 6.4.8 7.5c.6 1.7.9 1.8 1.6.5.4-.8.9-7.1 1-14 .2-6.9.8-15.9 1.4-20 .7-4.1 1.2-12 1.2-17.5 0-7.2-.4-11.5-1.8-15.4-1-3-2.3-5.6-2.8-5.8-.6-.1-.2 2.3.8 5.5zm5.4.4c.7 3 1.5 9.4 1.9 14.3.3 6 0 11.4-1 16.5-.8 4.1-1.7 11.3-2.1 16-.4 4.7-.4 10.4-.1 12.8.3 2.3 1 4 1.6 3.7.6-.3 1-4.2 1-8.8 0-4.5.4-10.7 1-13.7a140.4 140.4 0 0 0 2.1-24c0-3.6-.3-8-.7-10a51 51 0 0 0-2.2-7.8c-1-2.3-2-4.3-2.3-4.2-.3 0 0 2.4.8 5.3zm4.3-3c0 .7.4 1.8 1 2.3.5.6 1.3 5.3 1.6 10.5.4 5.2 1 10.2 1.6 11 .6 1 .8-2.4.5-9-.3-6.1-1-11.7-1.8-13.3-.8-1.5-1.7-2.7-2.1-2.7-.5 0-.8.6-.8 1.3z"/><path class="shp2" d="M383.9 142.7c-3.2 3.4-4 4.8-2.9 5 .8.3 3.2-1.3 5.3-3.4 2-2 3.7-4.4 3.7-5 0-.7-.4-1.3-.9-1.3s-2.8 2.1-5.2 4.7z"/><path class="shp0" d="M320 142.8c.5 2 1 7.5 1 12.2.1 4.7-.1 12.6-.5 17.5-.4 6-.3 8.5.4 7.5.5-.8 1.3-7.3 1.6-14.5.5-9.2.3-14.8-.7-19.4-.7-3.5-1.6-6.5-2-6.7-.5-.2-.4 1.3.2 3.3z"/><path class="shp1" d="M258 140.4c-.3.3-3 .9-6 1.3-3.8.6-5.5 1.3-5.5 2.3 0 .8 1.1 1.9 2.5 2.4 1.8.7 4.2.4 8.5-.9 3.3-1 7.8-1.8 10-1.7 2.2 0 5.4.6 7 1.2 1.9.7 3.4.7 4 .1.6-.6 0-1.6-2-2.8a23 23 0 0 0-10.5-2.1c-4.1-.2-7.7-.1-8 .2z"/><path class="shp0" d="M326 157.5a198.4 198.4 0 0 1-1.6 28.5c-.6 7.4-.3 10.6 1 14.8.9 2.8 2 5.2 2.6 5.2.6 0 1-.3 1-.8 0-.4-.5-1.3-1.2-2-.8-.8-1.6-5.3-2-10.5-.3-5-.2-9.6.3-10.2.4-.6.8-1.9.8-3l.7-16c.3-8.6.2-15-.5-16.5-.7-1.9-1 .7-1 10.5z"/><path class="shp2" d="M384 149.2c-2.6 2.3-4 4.2-3.3 4.5.7.1 3-1.2 5.3-3 2.2-1.7 4-3.8 4-4.4 0-.7-.3-1.3-.8-1.3-.4 0-2.7 1.9-5.2 4.2z"/><path class="shp0" d="M334.8 153.8c.3 3.1.6 6 .8 6.2.2.3.6.3 1 0 .2-.3.2-3 0-6.3-.4-3.1-1-5.7-1.4-5.7-.5 0-.6 2.6-.4 5.8z"/><path class="shp1" d="M254 151.2c-3.6 1-6.4 2.4-6.2 2.9 0 .5 1.3 1.1 2.7 1.4l2.5.5-5.3 6.5c4.5 1.2 8.5 1.8 11.8 2.2 3.3.3 7.6 0 9.5-.6 2-.5 4.5-2 5.8-3.3l2.3-2.3a34.4 34.4 0 0 0-7.6-7.8c-1.1-.5-3.6-1-5.5-1.2-2-.2-6.4.6-10 1.7z"/><path class="shp2" d="M385 154.2c-2.7 2.6-4.3 5.2-4.2 6.3.2 1.7 1 1.3 4.8-2.5 2.9-2.9 4.4-5.2 4.2-6.3-.4-1.5-1.2-1-4.8 2.5z"/><path class="shp0" d="M257.2 156.3c-2.7 2.6-3 3.3-1.7 4 .8.4 2.2.7 3 .7 1 0 1.4-.7 1-2.5-.3-1.4 0-3.2.6-4 .6-.8.9-1.5.7-1.5-.2 0-1.9 1.5-3.6 3.3zm-41 2.2c-.8 1-.9 2-.2 3 .6.8 1.4 1.3 2 1 .6-.3.8-1 .5-1.5-.3-.6 0-1.7.5-2.5.7-1 .6-1.5-.4-1.5-.8 0-1.9.7-2.5 1.5zm8.3 1.6c0 1.6.3 2.9.8 2.9.4 0 1.4-.2 2.2-.5.8-.3 1.5-.9 1.5-1.4 0-.5-1-1.5-2.2-2.3-2.2-1.5-2.3-1.4-2.3 1.3zm43-.8c-.3 1.2-.5 2.3-.3 2.4.2.1 1.3 0 2.6-.3 1.2-.2 2.2-.8 2.3-1.4 0-.5-.9-1.4-2-2-1.6-.8-2-.6-2.6 1.3z"/><path class="shp2" d="M385 161c-2.4 2.3-4.3 4.7-4.2 5.5.1 1 1.6.4 4.7-2.3 2.5-2 4.5-4.5 4.5-5.4 0-1-.1-1.8-.3-1.8-.2 0-2.3 1.8-4.7 4z"/><path class="shp0" d="M207.5 159.5c-.4 1.1-1 9-1.2 17.5-.3 8.5-1 16.3-1.4 17.3-.6 1.1-.3 2.8 1 5 1 1.7 2 4.3 2 5.7.2 1.4.3 4 .2 5.8 0 2.3-1 4-3.3 6.2a14.2 14.2 0 0 1-6.3 3.3 21 21 0 0 1-5 0c-1.1-.2-3.2-1.4-4.8-2.8-2.3-2-2.7-3.3-2.7-7.5 0-4 .5-5.4 2.3-7 1.2-1.2 3.3-2.4 4.7-2.7 1.4-.3 3.8-.2 5.4.3 1.9.6 3.4 2 4.2 3.9 1 2.3 1 3.5 0 5.4-.6 1.3-2.3 3.3-3.8 4.5-2.6 2-2.8 2-5.3.3a5.5 5.5 0 0 1-2.5-4.4c0-1.6.6-3.4 1.5-4 .8-.7 2.3-1.2 3.3-1 1 .1 1.7.9 1.7 1.7 0 .8-.7 1.5-1.5 1.5s-1.5.7-1.5 1.5c0 1 1 1.5 2.5 1.5 2 0 2.6-.6 2.8-2.5.1-1.4-.5-3.3-1.5-4.3a7 7 0 0 0-4.3-1.8c-1.4 0-3 .6-3.8 1.3-.7.7-1.3 3.1-1.3 5.3 0 2.8.6 4.6 2 6 1.4 1.3 3.5 2 6 2s4.7-.7 6-2c1.2-1.1 2.4-3.3 2.8-5 .3-2-.1-4.4-1.3-6.9-1-2.1-3.1-4.5-4.7-5.2-1.5-.8-3.6-1.4-4.7-1.4s-3.6.8-5.6 1.8c-2 1-4.3 3-5 4.4-.8 1.6-1.4 4.5-1.4 6.6 0 2.2.8 4.8 2 6.4a18 18 0 0 0 5.3 4.5c1.7 1 4.8 1.5 6.7 1.4 2-.2 4.6-.9 6-1.6 1.4-.7 4-3 5.8-5.1 2.9-3.4 3.2-4.4 2.8-8.4-.2-2.5-1.2-7.2-2.1-10.5a90.9 90.9 0 0 1-.6-30.8c.7-2.7.7-5.4.2-6.4-.8-1.7-.9-1.7-1.6.2z"/><path class="shp2" d="M384.8 167.5c-2.1 2-3.8 4.2-3.8 5 0 .8.2 1.5.5 1.5s2.3-1.7 4.5-3.8c2.2-2 4-4.3 4-5 0-.6-.3-1.2-.8-1.2-.4 0-2.4 1.6-4.4 3.5z"/><path class="shp1" d="M253.4 167.9c-.2.3.8 1.2 2.1 1.8a13 13 0 0 0 5 1.3c1.4 0 2.4-.4 2.3-.8 0-.5-2.2-1.3-4.6-1.9-2.4-.6-4.6-.8-4.8-.4z"/><path class="shp0" d="M295.7 167.8c-.3.4-.8 2.7-1.2 5.2a422.3 422.3 0 0 1-3 17.3c-.8 4.8-1.5 10.3-1.5 12.2a44.7 44.7 0 0 0 3.7 16.5 27.8 27.8 0 0 0 10.5 11.6 17 17 0 0 0 6.6 1.4c2.1 0 5.5-1.1 8-2.5 2.9-1.7 4.5-3.5 5.2-5.8.6-1.7 1-4.8 1-6.7 0-2-1-5-2-6.8a7.5 7.5 0 0 0-5.3-3.8c-1.7-.3-4.7-.3-6.4 0-2 .3-4.1 1.7-5.3 3.3-1.1 1.6-2 4-2 5.6 0 1.5.7 4 1.5 5.7a9.2 9.2 0 0 0 3.8 4c1.2.4 3.6.5 5.2.1a7.3 7.3 0 0 0 4.2-3.2 13 13 0 0 0 1.3-4.4c0-1.1-.9-2.9-2-4s-2-2.6-2-3.3c0-.6.8-1.2 1.8-1.2s2.5 1 3.4 2.3c1.3 1.6 1.6 3.4 1.3 7-.4 3.5-1.2 5.3-3.3 7.2-1.9 1.7-4 2.5-6.7 2.5-2.5 0-5.7-.9-8.5-2.4a23.8 23.8 0 0 1-6.6-5.3c-1.1-1.5-2.6-5-3.4-7.8a56 56 0 0 1-.8-16.5 77 77 0 0 1 1.7-14.3c.6-1.5 1.2-5.4 1.4-8.7.2-3.3.2-6 0-6 0 0-.4.3-.6.8z"/><path class="shp1" d="M216 170.5c0 .8 1.1 1.7 2.5 2 1.4.3 3.8 0 5.5-.5 1.7-.6 3-1.4 3-2 0-.6-2.5-1-5.5-1-4.2 0-5.5.3-5.5 1.5z"/><path class="shp2" d="M384.9 174.1c-2.4 2.2-4 4.2-3.6 4.4.4.3 1.5 0 2.4-.4 1-.5 2.9-2 4.1-3.3 1.3-1.3 2.2-2.8 2-3.5-.4-.7-2.3.5-5 2.8z"/><path class="shp0" d="M315.6 173.3L314 181a102 102 0 0 0-1 13.8c-.1 5.7.2 7.2 1.4 7.2s1.5-1.5 1.4-7.8c0-4.2.3-11 .6-15 .4-4 .4-7.2 0-7.2-.3 0-.7.6-1 1.3zm19 2.2c-.3 2.2-.5 8.5-.3 14 .1 5.6.8 11 1.5 12.3.6 1.2 1.5 2 2 1.7.4-.2.2-1-.4-1.7-.6-.7-1.4-3.4-1.8-6-.3-2.7-.2-8.4.4-12.8.6-4.8.6-8.7.1-9.8-.7-1.3-1-.9-1.5 2.3z"/><path class="shp2" d="M385 180.5c-2.5 2.4-4.2 4.7-3.8 5 .5.3 2.6-.8 4.8-2.5 2.3-1.8 4-3.8 4-5 0-1.1-.1-2-.3-2-.2 0-2.3 2-4.7 4.5z"/><path class="shp1" d="M249.3 181.6c0 2.6-.3 4.9-.8 5.1-.6.2-2.5-.7-4.3-2.1-1.7-1.4-4.2-2.5-5.4-2.3-1.3 0-2.4 1-2.5 2-.2 1.2.5 1.9 2.4 2.2 1.6.3 4 1.2 5.6 2 2.4 1.3 3 1.3 5.7 0 2.3-1.2 3-2.2 3-4.5 0-1.7-.4-3.9-1-5s-1.4-2-2-2c-.5 0-.9 2-.7 4.6z"/><path class="shp0" d="M329.6 182.3c-.3 2.8-.6 7-.6 9.2 0 2.2.3 5 .5 6.3.3 1.2.8 2.2 1.3 2.2.4 0 .7-5.2.7-11.5a53 53 0 0 0-.6-11.5c-.4 0-1 2.4-1.3 5.3zm-10 .4c-.5.7-1 5.2-1 10 0 4.9.3 9.4.7 10 .4.7 1.4 1.3 2.2 1.3 1 0 1.3-.6.8-1.8-.3-1-.9-6-1.2-11.2-.4-6-1-9-1.5-8.3z"/><path class="shp2" d="M385 187l-5 5.6c-.1.2.3.4 1 .4.9 0 3.2-1.6 5.3-3.5 2.5-2.3 3.6-4.2 3.4-5.6-.3-1.8-1-1.4-4.8 3zm0 6.3c-2.4 2.3-4.4 5-4.3 5.7.2 1 1.6.2 4.5-2.4 2.4-2.2 4.5-4.8 4.8-5.8.3-1 .3-1.8 0-1.8s-2.6 2-5 4.3z"/><path class="shp1" d="M241.1 193.5a5 5 0 0 0-.8 3.2c.1 1.2 1.5 2 4.2 2.4 2.2.4 6 1.6 8.5 2.7 2.7 1.2 6 1.9 8.5 1.7 2.8-.2 4.5-1 5.7-2.7 1-1.3 1.8-3 1.8-3.8 0-.8-.7-2.3-1.7-3.2-1-1-2.3-1.8-2.8-1.8-.6 0-1.6.6-2.3 1.5-.6.8-1 2-.7 2.5.3.7 1 .7 2 0s1.6-.6 2 .5c.3.8 0 2.2-.8 3-.6.9-2.1 1.6-3.2 1.6s-4.7-2-8-4.6c-3.7-2.8-7-4.5-8.6-4.5-1.5 0-3.2.7-3.8 1.5z"/><path class="shp2" d="M384.3 200.5c-2.4 2.5-4 4.7-3.8 5 .3.3 1.1.2 2-.3.7-.4 3-2.2 5-4 1.9-1.7 3.3-3.6 3-4.2-.3-.6-.8-1-1.3-1-.4 0-2.6 2-5 4.5z"/><path class="shp1" d="M232.4 203.5c-2.2 1.3-4.8 2.1-5.9 1.8a4 4 0 0 0-3.5 1.1c-.8 1-1.1 2-.7 2.4.5.4 8 .7 16.5.6 12.5 0 15.6-.4 15.3-1.4-.2-.7-1.4-1.6-2.5-2-1.2-.3-3.3-1.6-4.8-2.8-2-1.6-3.2-2-4.5-1.3-1 .5-2.8.5-4 .1-1.4-.5-3.2-.1-6 1.5z"/><path class="shp2" d="M385 206.2c-2.3 2.4-4 4.8-3.8 5.5.2.6 2.2-.6 4.6-2.8 2.3-2.1 4-4.6 3.9-5.5-.3-1.1-1.5-.3-4.6 2.8z"/><path class="shp0" d="M348 203.7c0 .5.8 1.7 1.8 2.7 1 1 2.2 4 2.9 6.5l1.2 4.6c0-6.6-.3-9.4-.9-10.5a8.2 8.2 0 0 0-3-3c-1-.6-1.9-.7-2-.3zm-5.5 7.6c.8 2 1.5 5.5 1.5 7.7s-.5 5-1.1 6.3l-1.2 2.2c3.9-3.6 4.4-5.1 4.3-9 0-3.8-.6-5.7-2.5-8l-2.5-3"/><path class="shp1" d="M309 212c-1.6 1.5-2.9 3.9-3 5.2a6 6 0 0 0 1.7 4c1 1 2.8 1.8 4 1.8 1.3 0 3-1 3.8-2.3 1-1.3 1.2-2.9.8-4-.5-1-1.5-1.7-2.3-1.5-.9.2-1.4 1.3-1.3 2.6.2 1.2 0 2.2-.4 2.2-.5 0-1.4-.6-2-1.5-.7-.8-1-2.4-.8-3.5.3-1.1 1.6-2.4 3-3 1.4-.6 2.5-1.4 2.5-2 0-.6-.7-1-1.6-1-.8 0-2.8 1.3-4.4 3z"/><path class="shp2" d="M384.6 213.3c-2.5 2.6-4.4 5.1-4.1 5.7.3.6 2.5-1 5-3.5s4.3-5 4.1-5.8c-.2-.7-2.3.8-5 3.6z"/><path class="shp1" d="M229.8 212.2c.1.4 1.1 1.3 2.2 1.8a31.7 31.7 0 0 0 13.5.5c.8-.3 1.5-1 1.5-1.8s-2.4-1.2-8.7-1.3c-4.7 0-8.6.3-8.5.8z"/><path class="shp0" d="M333.1 216c0 3-.7 7.2-1.6 9.3-.8 2-1 3.7-.5 3.7.6 0 1.9-1.3 3-3a13.6 13.6 0 0 0 .6-13c-1.3-2.4-1.4-2.2-1.5 3zm-4.8.3c0 2.3-1 6.2-2.2 8.7a46.6 46.6 0 0 0-2.2 5c0 .3.8-.2 1.7-1 1-.8 2.3-3 3-4.8a24 24 0 0 0 1.5-7.1c0-2.2-.3-4.2-.8-4.5-.5-.3-1 1.3-1 3.7zm11 1.7c0 2.5-.8 6-1.7 8l-1.7 3.5c4.4-4.7 5.1-6.6 5-9.3 0-2-.3-4.4-.8-5.2-.6-1-.9 0-.9 3z"/><path class="shp2" d="M384.9 219.5c-2.4 2.5-4.2 4.7-3.9 5 .3.2 2.6-1.6 5.3-4 2.6-2.5 4.3-4.7 3.8-5-.5-.2-2.8 1.6-5.2 4z"/><path class="shp0" d="M210.1 219c-.7 1.4-1 3-.7 3.8a31.8 31.8 0 0 1-5.8 15 7.1 7.1 0 0 1-4.9 2.2c-1.5 0-3.6-1-4.7-2.3a13 13 0 0 1-2.6-4.2c-.3-1.1 0-2.8.8-3.8s2.7-1.7 4.6-1.7c2 0 3.4.6 3.7 1.5a5 5 0 0 1-.3 3.2c-.4.9-1.6 2-2.7 2.4-1.6.6-1.7.8-.5 1.4a5 5 0 0 0 3 .3c.8-.3 2-1.8 2.7-3.4 1-2.3.9-3.3-.3-5.2-1-1.6-2.4-2.2-4.9-2.2-2 0-4.6.7-6 1.5-1.8 1.1-2.5 2.4-2.5 4.8 0 2.2.8 4 2.7 6 2.2 2.2 3.7 2.8 7 2.7 3.6 0 4.8-.6 7-3.3 1.7-1.8 3.7-6 4.7-9.7 1-3.6 1.6-7.6 1.4-9l-.3-2.5"/><path class="shp2" d="M384.8 224.8c-2 2-3.7 4.5-3.8 5.4 0 1.4 1 1 4.6-2 2.4-2 4.5-4.5 4.4-5.4 0-1-.3-1.8-.8-1.7-.4 0-2.4 1.7-4.4 3.7z"/><path class="shp3" d="M357.4 225.5c-1 1.3-1.7 2.6-1.6 2.7.1.2 1.7.4 3.4.6 2.7.2 3.6-.3 4.6-2.3 1-2.3 1-2.5-1-3l-3-.5c-.3 0-1.4 1.1-2.4 2.5z"/><path class="shp0" d="M348.7 229c-2 2.8-3.7 5.2-3.7 5.5 0 .3-.9 1.7-1.9 3.3a238.6 238.6 0 0 0-17.2 35.4c-1.7 5.1-3.4 10.2-3.9 11.3a144.6 144.6 0 0 0-5.4 21 1349.7 1349.7 0 0 0-1.9 18l.7 16a187.1 187.1 0 0 0 4.6 33.3s.4.2 1 .2.4-2.3-.5-6c-.8-3.3-1.8-9.5-2.3-13.8a268 268 0 0 1-.5-22.2 175.8 175.8 0 0 1 8.6-52 200 200 0 0 1 7.7-18c2.4-4.7 7.8-14.6 12.1-22s7.8-13.8 7.9-14.3c0-.4-.4-.7-.8-.7-.5 0-2.5 2.3-4.5 5z"/><path class="shp3" d="M373.4 228.4c.3.9-.1 2.2-1 2.8-1.4 1.2-1.4 1.4 0 2 .9.5 1.6 1.6 1.6 2.6a4 4 0 0 1-1.2 2.8c-.7.6-2.3 1.4-3.6 1.8-1.4.4-2.8 0-3.7-.9-.8-.8-1.7-1.5-2-1.5-.3 0-.5.9-.5 2 0 1.3-.6 2-1.8 1.7-1-.1-1.8-1.2-2-3-.1-2-.8-2.7-2.2-2.7-1.1 0-2.3-.7-2.8-1.6-.6-1.3-1-1.3-1.9-.2-.6.7-1.9 3-2.7 5L348 243c6.9 3.4 7 3.4 8.3 1.6.6-1 1.8-1.6 2.4-1.3.7.4 1.3 1.4 1.3 2.2 0 .8-.6 1.5-1.3 1.6-.6 0-.3.4.8.9s4 .9 6.3 1c4 0 4.3-.2 7.9-5.8 3-4.5 3.7-6.7 3.7-10.7 0-4.5-.1-5-2.2-5.3-1.8-.3-2.2 0-1.8 1.2z"/><path class="shp2" d="M384 232.4c-2.5 2.4-4 4.6-3.5 5 .6.3 3-1.2 5.3-3.2s4.2-4.3 4.2-5c0-.6-.4-1.2-.8-1.2s-2.8 2-5.2 4.4zm-207 1l-9.8 4.4a15.5 15.5 0 0 0-4.2 2.7c0 .3 1.7-.2 3.8-1.1l6.7-2.7c1.7-.6 5-2.1 7.5-3.3 2.5-1.3 3.8-2.3 3-2.3-.8 0-4 1-7 2.3z"/><path class="shp0" d="M337.5 231.7c-.4.3-.8 1.7-.7 3 .1 1.3.6 2.3 1.2 2.3s1.3-1 1.6-2.3c.3-1.2.2-2.5-.3-3-.5-.4-1.3-.4-1.8 0z"/><path class="shp3" d="M324 233.9c-1.4.3-5 2-8 3.5l-11 6-10.5 5.4c-4.9 2.5-5.5 2.5-28 2.6l-23 .1c-7-4.8-11.6-7.7-14.9-9.4-3.2-1.8-6.1-3-6.5-2.6-.3.3.7 1.6 2.4 2.8a263 263 0 0 0 10.5 7l7.5 4.7c24 .3 31.9.3 33 .1 1.1 0 5.8-.5 10.5-1a56 56 0 0 0 11-1.8c1.4-.6 8.8-4.5 16.5-8.7 7.7-4.2 14.3-7.6 14.8-7.6.4 0 1-.4 1.2-1 .3-.6-.3-1-1.3-.9-1 0-2.8.4-4.2.8z"/><path class="shp2" d="M384.5 238.4c-2.8 2.5-4.7 4.8-4.3 5 .5.4 1.6.2 2.6-.3s3-2.2 4.5-3.8c1.6-1.5 2.7-3.4 2.5-4.1-.2-.9-2.1.3-5.3 3.2zM182 235.7l-11 4.9a192 192 0 0 0-18.5 9.8l-12.5 7.3c-3.1 1.6-3.2 1.8-1.3 2 1.3.2 3.2-.6 4.3-1.7 1.1-1.1 2.7-2 3.5-2a37 37 0 0 0 7.8-2.8c3.4-1.6 8.7-4.8 11.7-7 4.5-3.5 5.7-4 6.5-2.8.6.7 3.7 2.1 7 3a37 37 0 0 1 6.5 2.1c.3.3-1 .5-2.8.5-1.7 0-4.7.6-6.4 1.3-1.8.8-4.8 2.6-6.6 4-1.7 1.5-3.2 3.4-3.2 4.2 0 1 3.1-.1 11-4.3 8.4-4.3 11-6.2 11-7.7 0-1.1-.7-2.8-1.7-3.7-1-1-3.4-1.8-5.6-1.8-2.6 0-3.7-.4-3.7-1.5 0-1 1.3-1.7 3.5-2 2-.3 3.5-1 3.5-1.5 0-.6-.3-1-.8-1l-2.2.7z"/><path class="shp0" d="M327.9 239c-.6 1-1 2.6-1 3.4 0 .9 1.3 2 2.9 2.6 1.5.6 3.3.8 4 .5.6-.3 1.2-1.8 1.1-3.4 0-2.3-.7-3.1-3-4-2.5-.8-3.1-.7-4 .9z"/><path class="shp2" d="M384.4 244.4c-2.7 2.4-4.8 4.9-4.6 5.5 0 .6.5 1 1 1 .4 0 2.6-1.8 5-4 2.3-2.1 4-4.6 3.8-5.4-.2-1-1.7-.3-5.2 2.9zm-228.9-.6l-13 7a69 69 0 0 0-10.3 6.5 9.4 9.4 0 0 0-2.4 3c0 .6 1 .2 2.3-.7L148 250l14-8.5c.2-.2 0-.4-.6-.4-.5 0-3.2 1.3-5.9 2.8zm62.5 0l4.9 6.2c1.8 2.4 3.3 4 3.2 3.7 0-.4-1.7-3.2-3.6-6.2-2-3-4-5.5-4.7-5.5-.9 0-.8.5.2 1.8z"/><path class="shp0" d="M317 245a5.2 5.2 0 0 0 0 4.5c.6 1.4 2 2.8 3.3 3 1.2.4 2.5.3 2.9-.2.4-.4 1-2 1.3-3.3.6-2 .2-2.9-1.6-4.3-1.3-1-3-1.7-3.6-1.7-.7 0-1.7.9-2.3 2z"/><path class="shp2" d="M201 246.3c-3.7 1.8-4.1 2.2-2.3 2.4 1.3.2 3.9-.4 5.8-1.2 2-.8 3.5-2 3.5-2.5 0-.6-.6-1-1.3-1-.6 0-3.2 1-5.7 2.3z"/><path class="shp0" d="M371.8 252.7a105.4 105.4 0 0 0-8.5 17.3 245.1 245.1 0 0 0-9.3 26.5 171 171 0 0 0-2.5 17.3c-.3 2.3-.2 4.2.3 4.2.4 0 1-2.3 1.5-5.2a220.7 220.7 0 0 1 6.9-29.8 165.5 165.5 0 0 1 14.5-32.3c1.3-2 2.2-4.2 2-4.8-.2-.6-2.4 2.5-5 6.8z"/><path class="shp2" d="M385.3 250.3c-2.3 1.7-4.4 3.9-4.8 4.7-.3.8-.3 1.7 0 2 .2.3 2.7-1.4 5.5-3.8 2.7-2.3 5-4.6 5-5.2 0-.6-.3-1-.8-1-.4 0-2.6 1.5-4.9 3.3z"/><path class="shp0" d="M307 250.2c-.8.7-1.3 2.1-1.2 3.3 0 1 1.3 2.6 2.7 3.3a12 12 0 0 0 4 1.2c.8 0 1.7-1 2-2.3.3-1.2.5-2.6.5-3.2 0-.6-1-1.6-2.5-2.3-1.4-.6-2.9-1.2-3.3-1.2-.4 0-1.4.5-2.2 1.2z"/><path class="shp2" d="M192.2 252.1c.2 1.2 1.4 3 2.8 4 1.4 1.1 4.3 2.6 6.5 3.3 3.8 1.4 4 1.4 4.3-.7.1-1.2-.4-3.2-1.3-4.4-.8-1.3-2.4-2.3-3.5-2.3s-2.2-.3-2.4-.8c-.2-.4-1.8-.8-3.6-1-2.7-.2-3 0-2.8 2z"/><path class="shp3" d="M326.4 253.6a55 55 0 0 1-5.9 3.5l-6.5 3.5-12 6.5-7.5 3.8c-22-.7-27-1.2-26.8-1.9.1-.5-.2-1-.7-1a1 1 0 0 0-1 1c0 .6-2 1-4.5 1-2.7 0-4.6-.5-4.9-1.3-.3-1-.8-1-2.5 0-1.1.7-3.3 1.3-4.8 1.3-1.6 0-3.2-.3-3.7-.7-.4-.4-1.4-1-2.2-1-.8-.2-1.4.4-1.4 1.2 0 .8-.6 1.5-1.3 1.5-1 0-1 .3.1 1.2 1 1 8 1.3 29 1.3h27.7c7.8-4.5 12.4-7.3 15.3-9.1 2.8-1.9 5.5-3.4 6-3.4.4 0 3-1.6 6-3.5 2.8-2 5.4-4 5.7-4.5.3-.6.4-1.2.2-1.5-.2-.3-2.1.7-4.3 2.1zm14 1.9a105.5 105.5 0 0 0-7.8 16.8c-.9 2-1.6 4.1-1.6 4.7 0 .6 2 2 4.3 3.1l4.2 2.1c2.5-3.8 3.4-4.2 4.4-3.6.7.5 1 1.7.7 2.6-.4 1 0 1.8.6 2l4.8.2c2 .2 4-.3 4.8-1 .6-.8 1.2-2 1.2-2.6 0-.7 1.9-5.4 4.1-10.3a30 30 0 0 0 3.5-10.8c-.3-1-2-2.4-3.6-3.2-2.4-1.2-3.4-1.3-5-.3-1.7 1-2.3 1-3.2-.1-.6-.9-.7-2-.2-2.8.8-1.2 0-1.4-4-1.1-4.4.3-5 .6-7.1 4.3zm23.6-1.6c1.8 1.4 2.7 1.6 3.2.8.4-.7.5-1.5.2-2-.2-.4-1.6-.7-3.1-.7h-2.8"/><path class="shp2" d="M176.5 257.7c-5.3 2.7-8.8 5.2-8.7 6 .1.7.6 1.3 1.2 1.3s1.2-.7 1.5-1.5c.3-.8 1.7-1.7 3.3-2 1.5-.3 5.3-2 8.4-4a31 31 0 0 0 5.8-4c0-.3-.6-.5-1.3-.4a75 75 0 0 0-10.2 4.6zm207.8-.7c-2.6 2.4-4.1 4.6-3.8 5.5.4 1.2 1.5.6 5-2.3 2.5-2 4.5-4.5 4.5-5.4 0-1-.3-1.8-.8-1.8-.4 0-2.6 1.8-5 4z"/><path class="shp0" d="M233.5 254.7c-.5.3-.8 1.4-.7 2.2a9 9 0 0 0 1.6 3.6c1.4 1.9 1.5 1.7 1.6-2.3 0-2.3-.4-4.2-.8-4.2-.5 0-1.2.3-1.7.7z"/><path class="shp2" d="M211.6 256.6c-1.6.8-2.9 1.9-2.8 2.4.1.6 2.2.3 5-.6 2.6-1 5.1-2 5.6-2.5.6-.5-.2-.9-2-.9a16 16 0 0 0-5.8 1.6z"/><path class="shp0" d="M296.5 255.6c-.4.4-.8 2-.7 3.6.1 1.7 1 3.2 2.2 3.8 1.1.6 2.7 1 3.5 1 .8 0 1.8-1.2 2.1-2.8.4-1.5.2-3.4-.3-4.2-.6-.8-2.1-1.6-3.4-1.8-1.4-.2-2.9 0-3.4.4z"/><path class="shp1" d="M348.1 257.3c-1.3.7-2.6 2.3-2.7 3.5-.4 2-.6 2-2.4 1-1.7-1.1-2.3-1-4.6 1.2-1.8 1.8-2.4 3.1-2 4.8.4 1.4 1.7 2.5 3.6 3 1.7.4 3 1 3 1.2 0 .3-.5 1-1.2 1.7s-1 1.5-.8 1.7c.3.2 1.7.7 3.3 1 2.2.5 2.7.3 2.7-1.4s.5-2 3-1.5c1.6.3 3.9 0 5-.5 1.1-.6 2-1.8 2-2.8 0-1-.6-2.3-1.5-3-1-.7-1.4-2.5-1.3-4.6.2-1.8-.4-4-1.2-5-.8-1-1.7-1.7-2-1.6-.3 0-1.6.6-2.9 1.3z"/><path class="shp2" d="M150 258.2l-3.5 1a34.3 34.3 0 0 0 16.5.8c0-.3-1-1-2.5-1.8-1.4-.6-3.5-1.2-4.8-1.1-1.2 0-3.8.5-5.7 1.1z"/><path class="shp0" d="M240.5 260.8c-1.2 1.7-1.5 3.2-.9 4 .5.8 1.7 2 2.6 2.6 1.2.8 2 .8 3.3-.4.8-.8 1.6-2.4 1.6-3.5s-.8-2.8-1.8-3.7c-1-1-2-1.8-2.5-1.8-.3 0-1.4 1.2-2.3 2.8zm11.2-.2c-.9 1.9-1 3 0 4.2.6 1 1.8 2.1 2.6 2.7 1 .7 2 .6 3.2-.5.9-.8 1.6-2.4 1.6-3.5s-1-2.8-2-3.8c-1.2-1-2.6-1.7-3.1-1.7-.6 0-1.6 1.2-2.3 2.6zm12.8-.8c-1 1-1.8 2.5-1.6 3.3 0 .8.8 2.3 1.7 3.4 1.1 1.6 1.8 1.8 3.2.9 1-.6 1.8-2 2-3 .2-1-.2-3-1-4.2-.7-1.2-1.6-2.2-1.9-2.2-.3 0-1.4.8-2.4 1.8zm11.8-.6c-.6.7-1.3 2-1.6 2.8-.3.9.4 2.6 1.9 4 2.4 2.5 2.4 2.5 3.9.5a8.2 8.2 0 0 0 1.5-3.5c0-.8-.7-2.3-1.7-3.2-1-1-2-1.8-2.4-1.8-.4 0-1.1.6-1.6 1.3zm10.1.9c-1.8 1.9-1.8 2.3-.4 4.7.9 1.5 2.2 2.8 3 3 .8.2 2.1-.7 2.9-2 1.1-2 1-2.7-.3-5-.9-1.6-2-2.8-2.5-2.8-.4 0-1.7 1-2.7 2z"/><path class="shp2" d="M384.6 263.3c-2 1.8-3.5 3.8-3.6 4.4 0 .7.3 1.3.8 1.3.4 0 2.2-1.4 4-3 1.7-1.7 3-3.6 2.8-4.4-.3-1-1.3-.6-4 1.7zm-261.6.4c-.8.3-1.3.9-1.2 1.4.1.5 1.7.6 3.5.3 1.7-.4 3.5-1 4-1.4.4-.4-.5-.7-2-.7s-3.5.2-4.3.4zm34 .2c-2 .6-2.6 1.4-2.8 4.6-.2 3.2.3 4.5 2.4 6.5 2.2 2.1 2.4 2.9 1.5 4.8-.6 1.2-1.9 2.2-2.8 2.2-1 0-2.5-.7-3.3-1.6-.8-.9-2.3-2-3.3-2.5-1.1-.6-2.5-.3-4.3.9-1.4 1-2.7 2.5-3 3.4-.2 1 0 2.7.6 3.8a7.9 7.9 0 0 0 3 3c1.3.7 2.9.7 4.8 0a12 12 0 0 0 4.4-3.3c1.6-2 1.8-2.1 3.5-.5 1.4 1.3 2.1 1.4 3.5.5 1.4-1 2.1-.7 4.2 1.6 1.4 1.5 3.6 2.7 4.8 2.7 1.3 0 3-.5 4-1.2s2-2.5 2.3-4c.3-2 0-3.4-1.5-4.8-1.1-1.1-2.7-2-3.5-2-.8 0-2.8 1.1-4.5 2.5a13.5 13.5 0 0 1-3.8 2.5c-.4 0-1.3-1-2-2.3-1.2-2-1-2.5 1.8-5.2 1.9-1.8 3-4 3-5.5 0-1.4-.5-3.2-1.2-4.1-.7-1-2.2-2-3.3-2.2-1.1-.3-3.1-.2-4.5.2zm36.2 1.2c-2.4 1.2-4.4 2.5-4.3 3 0 .5.9.6 1.8.2a63.3 63.3 0 0 0 9.2-5c.3-.1-.2-.3-1-.3s-3.4 1-5.8 2.1zM173 265c-1 .6-1 1-.3 1s3.6 1.1 6.3 2.5c4.8 2.4 5 2.4 5 .5 0-1.2-1.2-2.6-3-3.5-1.7-.8-3.8-1.5-4.8-1.5s-2.4.5-3.2 1zm34 0c0 .6 1.6 2.6 3.5 4.5 2 2 4.2 3.5 5 3.5 1 0 1.5-1 1.5-2.5 0-1.6-1-3.3-2.8-4.5-1.5-1.1-3.7-2-5-2-1.2 0-2.2.4-2.2 1zm-9.2 2.8c-2 1-4.2 2.3-5 3-1 1-.9 1.2.5 1.2 1 0 3.7-1.1 6.2-2.5s4.5-2.7 4.5-3c0-.3-.6-.5-1.3-.4-.6 0-2.8.8-4.9 1.7zm186.2 1.5c-1.9 1.8-3.3 4-3.2 5 .2 1.4 1.1 1 4.8-2 2.4-2.1 4.3-4.3 4.1-4.8-.2-.6-.8-1.1-1.3-1.3-.6-.1-2.5 1.3-4.4 3z"/><path class="shp3" d="M125.5 268l-7.8 1.3-2.7.7c0 43-.3 63.3-.5 72.8-.4 13.4-.2 17.1.8 16.9.9-.3 1.4-6.2 1.8-23.3.4-12.6.7-31.3.8-41.6 0-15.3.4-19 1.6-20.3.8-.8 4.8-2 8.8-2.6 4-.6 10.3-1.3 14.2-1.4 5.5-.2 7-.6 7.3-1.9.2-1.4-1-1.6-9.6-1.4-5.3.1-12 .5-14.7.9z"/><path class="shp2" d="M375 272.3c0 1.2-.6 2.8-1.5 3.4-.8.7-1.3 1.8-1 2.3.3.6-.2 2.1-1 3.5a11 11 0 0 0-1.5 4.5c0 1.1-.4 2.2-1 2.5-.6.3-1 1.9-1 3.5s-.3 3-.8 3c-.4 0-.6 1.4-.4 3 0 1.6-.1 3-.6 3-.4 0-.7 2.4-.8 5.3 0 2.8-.3 6.4-.7 8-.5 2-.3 2.7.8 2.7s1.6-1.8 2-7.8c.4-4.2 1.8-11 3-15.2 1.4-4.1 2.5-8.5 2.5-9.8 0-1.2.3-2.2.8-2.2.4 0 1.5-2.3 2.4-5.2 1-3 1.5-5.6 1.3-6-.3-.5-1-.8-1.5-.8-.6 0-1 1-1 2.3z"/><path class="shp3" d="M169.5 272.7c-.5.3-.8 1-.7 1.5.1.4 1.7.8 3.4.8 1.8 0 4 .6 4.9 1.3a7 7 0 0 1 2 2.3c.2.6 5.8 4.8 12.4 9.2 6.6 4.4 14.3 10.4 17.1 13.4a115.7 115.7 0 0 1 17.1 24.3 101.6 101.6 0 0 1 6.3 18c0 .8.7 1.5 1.5 1.5 1 0 1.5-1 1.5-3 0-1.6-1.1-6.3-2.5-10.3-1.4-4-4.4-10.5-6.8-14.6a80.3 80.3 0 0 0-15-19.1 141.7 141.7 0 0 0-31.4-22.7 66 66 0 0 0-8.1-3.3c-.5 0-1.2.3-1.7.7z"/><path class="shp2" d="M384.6 275.4c-2 1.7-3.6 3.7-3.6 4.4 0 .6.3 1 .8 1 .4-.2 2.4-1.3 4.4-2.6 2.1-1.2 3.9-2.8 3.9-3.6 0-.8-.3-1.7-.8-2-.6-.2-2.6 1-4.7 2.8zm-191.5-.5c0 .6 1.6 2 3.7 3.1 2 1.1 4 1.8 4.2 1.5.3-.3-.4-1.4-1.5-2.4a13 13 0 0 0-4.2-2.6c-1.2-.4-2.2-.2-2.2.4z"/><path class="shp3" d="M126.9 275.9c-2 .3-4 .8-4.2 1.1-.3.3-.7 11.9-.9 25.8-.3 24.6-.3 25.2 1.5 23l5-6.3c1.8-2.2 6.5-6 10.5-8.5 4.7-3 7.5-5.4 8.2-7.3a9.2 9.2 0 0 1 4-4.2c2.1-1 3.3-2.6 4-5.3l1-4.4c0-.5-2 .1-4.5 1.2-3.2 1.4-5.2 1.8-6.8 1.1-1.2-.4-3.2-2.1-4.5-3.7a10 10 0 0 1-2.2-4.9c0-1.8-.4-2-3.2-1.2-1.8.4-4 .7-5 .7-1.6 0-1.8 1.2-1.8 11.8 0 6.4-.3 14.7-.8 18.5-.4 4.3-1.1 6.7-2 6.7-1 0-1-4.2-.6-19.3.3-10.5.7-19.4.9-19.7.1-.3 3.6-1.2 7.6-2 4-.8 8-2 8.8-2.7 1.3-1 .4-1.2-4.9-1.2-3.6 0-8.1.4-10.1.8z"/><path class="shp2" d="M310 280.7c-5.8 3-11.1 6-11.9 6.7-1 .7-6 1-15.3.9-8.7-.2-13.8 0-13.8.7 0 .6 5.7 1.1 14.6 1.3l14.7.2 17-9.4c3.1-1.7 5.7-3.8 5.7-4.6 0-.8-.1-1.5-.3-1.4 0 0-5 2.5-10.7 5.6zM208 277c-1.3.5-2.3 1.4-2.2 2 .1.6 1.7.4 4-.6l4.1-2c.3-.2-.4-.4-1.5-.3-1 0-3 .4-4.3 1zM104 280.6c-1.2 1.2-1.2 2-.2 4 .7 1.3 1.9 2.4 2.5 2.4.7 0 2-.7 3-1.7 1.6-1.7 1.5-2-.8-4a14.1 14.1 0 0 0-2.8-2.3c-.2 0-1 .7-1.7 1.6zm116 .2c0 1 1 3 2 4.4 1.2 1.6 2.8 2.8 3.6 2.8.8 0 1.5-.8 1.5-1.8s-.6-2.6-1.3-3.7a7.7 7.7 0 0 0-3.7-2.7c-1.7-.5-2.2-.2-2.2 1zm164.3 1.8a14.3 14.3 0 0 0-3.2 4.4c0 .6.2 1 .5 1s2.3-1.5 4.5-3.3c2.2-1.7 4-3.8 4-4.4 0-.7-.6-1.3-1.3-1.2-.6 0-2.7 1.6-4.4 3.5z"/><path class="shp3" d="M328.6 282.8c-.4 1-.5 1.8-.4 2 .2 0 1.7-.2 3.3-.7 3-.8 3-.8.8-2l-2.7-1.1c-.2 0-.7.8-1 1.8z"/><path class="shp2" d="M385.2 287.9c-2.3 2-4.1 4.2-4.1 4.9 0 .6.2 1.2.6 1.2.5 0 1.5-.9 2.4-2 .8-1 2.3-2 3.2-2 1 0 2.1-.8 2.6-1.8s.6-2.2.2-2.8c-.6-.8-2.1 0-5 2.5z"/><path class="shp3" d="M180.2 286.6c.2.9 2.6 2.8 5.4 4.2 2.8 1.5 8.4 5.4 12.5 8.8 4.6 3.8 9.4 9 12.8 14 3 4.3 7.2 11.5 9.2 15.9 2 4.4 4 9.7 4.3 11.8.3 2 1 4 1.6 4.2.6.3 1.3.3 1.8 0 .4-.4 0-3-.7-5.8-.7-2.9-2.6-7.9-4-11.2a95.3 95.3 0 0 0-8.7-14c-3.2-4.4-8.4-10.4-11.4-13.4a115.3 115.3 0 0 0-22.3-16c-.5 0-.7.6-.5 1.5z"/><path class="shp2" d="M247.6 288c-.3.6.2 1.4 1.2 1.9a9 9 0 0 0 4.2.6c1.4-.2 4.6-.4 7.3-.4 2.6 0 4.7-.6 4.7-1.1 0-.6-.9-1.2-2-1.5-1.1-.3-4 0-6.3.6-3 .7-4.5.7-5.2 0-.6-.7-1.5-1.1-2.2-1.1-.7 0-1.5.4-1.8 1zm62.2 2.8c-3.6 2-7.3 4.4-8.2 5.2-1 .8-1.7 2-1.6 2.8 0 .7 3.1-.4 8.2-3 4.4-2.4 8.3-4.8 8.6-5.3.2-.6.2-1.5 0-2.2-.3-.7-2.8.2-7 2.5z"/><path class="shp3" d="M329.4 287.7c-1.2.3-2.5 1.8-3.3 4.1-.8 2-2.2 9.3-3.2 16.2-1.4 9.6-1.5 12.8-.6 13.8.7.6 2.8 1.5 4.7 1.8 3 .5 3.6.3 4.3-1.5.4-1.2 1.4-2.1 2.2-2.1 1 0 1.4.8 1.3 2.5-.2 1.6.1 2.3 1 2a9 9 0 0 1 2.7-.5c.9 0 1.5-1 1.5-2.3 0-1.3 1.8-3.8 4.3-6.2 3.6-3.4 4.3-4.6 4.9-9.5l1.3-9c.6-3.3.4-3.6-3.4-5.8L343 289c-4.5 4.1-5 4.2-5.5 3-.3-.8-.5-2.2-.3-3 .2-1-.6-1.5-2.7-1.6-1.6-.1-4 0-5 .3z"/><path class="shp2" d="M158.5 292.9c-.8 4.1-.7 5.5.3 6 .7.3 1.6.2 2-.4.5-.6.3-3.3-.3-6l-1-5"/><path class="shp3" d="M164 292.2a9 9 0 0 0 1.5 4.6c.8 1.2 2 2.2 2.8 2.2.6 0 2 .7 3 1.7.9 1 1.7 2.6 1.7 3.6s2 2.7 5.6 4.4c3 1.6 7.9 4.9 10.7 7.4 2.9 2.5 6.3 6.5 7.6 9 1.3 2.4 3 6.6 3.7 9.4.8 2.8 1.4 8 1.4 11.5 0 3.6-.8 9.2-1.7 12.5-1 3.3-2.8 8-4 10.5a30.9 30.9 0 0 1-5.3 7c-2.3 2-2.7 3.1-2.4 6.3.4 3.3.7 3.6 2.7 3 1.2-.3 4.6-2 7.4-4a24 24 0 0 1 6.8-3.3 9 9 0 0 0 3.8-1.4c1.2-.8 3.6-3.4 5.3-5.8a37.2 37.2 0 0 0 7.4-21.3c0-3-.7-7.6-1.6-10.3a126.8 126.8 0 0 0-9.8-20.7A93 93 0 0 0 183 293c-3.8-1.9-5-2-7.6-1.1-1.6.6-3.9 1-5 1.1-1.1 0-3-.7-4.2-1.6-2-1.4-2.1-1.4-2.2.8z"/><path class="shp2" d="M384.4 295.1c-2.1 2.2-3.6 4.2-3.1 4.4.4.3 2.5-.6 4.7-2s4-3.1 4.1-4c0-.7-.3-1.6-.9-1.8-.5-.3-2.6 1.3-4.8 3.4zm-280-1.3c-1 1-1.7 2.4-1.6 3 .1.7 1.1 1.6 2.2 2.2 1.4.7 2.5.6 3.5-.3.9-.6 1.6-1.6 1.6-2.2 0-.6-.9-1.8-1.9-2.8-1.8-1.6-2-1.6-3.7.1zm180.6.4c0 .5.4.8 1 .8s1.5 1 2.1 2.3c.8 1.7.7 3-.5 5.4L286 306c5 .5 7.4.5 8.5.3 1.7-.4 2-1.1 1.6-4.6-.2-3 .1-4.7 1.3-6 .9-1 1.6-1.8 1.6-2a49 49 0 0 0-14 .6z"/><path class="shp1" d="M333.5 294.8c-1 1-1.8 3-1.7 4.5.2 2.3-.3 2.7-2.5 3a4.7 4.7 0 0 0-4 2.7c-.8 1.6-.9 3.1-.2 4.3.5 1 1.7 1.7 2.6 1.7 1 0 2.5.4 3.3 1 1.2.7 1.3 1.1.3 2.4-.7.9-1 2-.8 2.6.3.6 1.9 1 3.5 1 2.8 0 3-.3 2.8-3.3-.3-3-.1-3.2 2.7-3 1.6.2 3.6-.2 4.3-1 .7-.6 1.3-2.4 1.2-4 0-1.5-.8-3.2-2-4-1.2-.8-1.8-2.1-1.6-3.8.1-1.7-.5-3.2-1.8-4.3a7.4 7.4 0 0 0-3.2-1.6c-.6 0-2 .8-3 1.8z"/><path class="shp2" d="M230 295.5c0 .8.7 3 1.5 5s2 3.5 2.5 3.5c.6 0 1-1.2 1-2.8 0-1.5-.7-3.7-1.5-5-.8-1.2-2-2.2-2.5-2.2-.6 0-1 .7-1 1.5zm32.8-.3c.7.7 1.2 2.4 1.3 3.8a7 7 0 0 1-1.8 4.3c-1.2 1.2-2.9 1.7-5.1 1.5-1.9-.2-3.5 0-3.8.4-.2.5 2.3.8 5.6.8h6c0-11-.3-12-1.8-12-1.4 0-1.5.2-.4 1.2zm6.2 1c0 1.3-.4 4-.8 6-.7 3.8-.6 3.8 2.3 3.9 2.9 0 3-.1 1.3-1.8-1-1-1.8-2.6-1.8-3.6s.6-2.8 1.3-4.2c1.1-2.2 1-2.5-.5-2.5-1.2 0-1.8.8-1.8 2.3z"/><path class="shp3" d="M281.8 297.7c-1.4 1.4-1.5 2-.5 3 .6.8 1.8 1.3 2.4 1.3a2 2 0 0 0 1.8-1.3c.2-.6-.1-2-.8-3-1.2-1.8-1.3-1.8-3 0z"/><path class="shp2" d="M306.8 299.6c-3.8 1.8-6.6 3.6-6.3 3.9a69.1 69.1 0 0 0 14.5-7.3s-.3-.2-.8-.1c-.4 0-3.7 1.5-7.4 3.4z"/><path class="shp3" d="M251.2 297.9c-.1.6 0 1.8.3 2.6.4 1.2.8 1.3 2.4.3 1.6-1 2.2-1 3.6.2 1.5 1.3 1.8 1.3 2.6 0 .5-.8.9-1.8.9-2.3 0-.4-1.2-.7-2.8-.7a22 22 0 0 1-4.8-.6c-1.2-.4-2.2-.2-2.3.5zm23.2-.2c-.4.4-.7 1.5-.6 2.5.1 1 1 1.8 2.2 1.8 1.3 0 2-.6 2-1.9 0-1-.7-2.1-1.5-2.4-.8-.3-1.7-.3-2.1 0z"/><path class="shp2" d="M384.5 301.4c-1.6 1.3-2.7 2.8-2.3 3.3.4.4 1.9 0 3.3-1s2.5-2.4 2.5-3.2c0-.8-.1-1.5-.3-1.5 0 0-1.6 1-3.2 2.4z"/><path class="shp3" d="M368 302c0 2.4.3 2.5 5 2.3 2.8-.2 5-.8 5-1.3 0-.6-1.8-.9-4-.8-2.8.2-4.4-.2-5-1.2-.8-1.2-1-1-1 1z"/><path class="shp2" d="M152.2 302.7c-1.3 1-2 2-1.5 2.3.4.3 4.8.3 9.7 0 7.1-.4 8.6-.7 7.5-1.7a20 20 0 0 0-7.4-1.8c-5-.5-6.4-.3-8.3 1.2zM306 304c-3 1.8-6.2 3.8-7 4.5-1 1-4 1.4-9.5 1.3h-14.8l-6.7.1v15c5.8.1 12.1.3 17.8.6 9.7.4 10.4.3 15-2.4 2.6-1.5 6-3.4 7.7-4.2 1.6-.8 3.2-2.4 3.4-3.5.4-1.8-.4-1.6-6.5 1.8-3.8 2.1-7.5 3.6-8.1 3.3-.7-.4-1.3-1.7-1.3-3.1 0-1.4.3-3.2.8-4.1.4-1 4.4-3.6 9-6 4.5-2.4 8.2-4.8 8.2-5.4 0-.6-.6-1-1.3-1-.6 0-3.7 1.4-6.7 3.1z"/><path class="shp4" d="M390.5 304.7c-.3 1.5-1.3 4.3-2 6-.9 1.8-1.5 3.5-1.5 3.8 0 .3 1.7.5 3.8.5 2.1 0 4.1-.3 4.5-.8.4-.4 0-2.2-.8-4-.8-2-1.4-4.3-1.4-5.3s-.4-2-1-2.4c-.5-.3-1.2.7-1.6 2.2z"/><path class="shp2" d="M104.5 307.4c-1 .7-1.9 1.7-1.8 2.2a10 10 0 0 0 2.3 2.9l2 2 4.5-4.4c-3.1-3.2-4.2-4.1-4.5-4.1-.3 0-1.4.7-2.5 1.4zm202.4 2.5a38.7 38.7 0 0 0-6 4.4c-.8.9-1.2 1.9-.9 2.2.3.3 3.3-1 6.8-3 3.4-2 6.2-4.2 6.2-5 0-.8-.3-1.5-.8-1.5a32 32 0 0 0-5.3 3zm75.5-.9c-1 1.1-1.6 2.4-1.2 2.8.4.4 1.7-.2 2.8-1.3 1.1-1.1 2-2.3 2-2.8 0-.4-.4-.7-.9-.7-.4 0-1.7.9-2.7 2zm-226.7.3c-.3.6-.5 6.7-.6 13.4 0 7.6.3 12.3.9 12.3.6 0 1.4-.9 2-2 .6-1.1 1.7-2 2.5-2s1.7.7 2 1.5c.3.8 1 1.5 1.5 1.5.6 0 .9-3.2.7-8.3-.2-4.5 0-9.6.4-11.2.3-1.6.3-3.8-.2-4.8-.6-1.2-2-1.7-4.8-1.7-2.2 0-4.1.6-4.4 1.3zm-10.7 2.6c-.6 1-1.2 4-1.1 6.3 0 3 .7 5 2.1 6.3 1.1 1.1 2 2.4 2 3 0 .6-.8 1.8-1.8 2.8-1 1-1.4 2-1 2.5.4.4 1.5 0 2.3-.8 1.3-1.2 1.6-3.4 1.3-11.4-.2-6.3-.7-10-1.4-10.3-.7-.3-1.7.5-2.4 1.6zm27 5.9v7.7c3.4-3.3 4-5.2 4-7.8 0-2-.4-4.6-1-5.7-.6-1.1-1.4-2-2-2-.6 0-1 3.3-1 7.8zm65-6.8c0 .5 1 3 2.2 5.3 1.8 3.3 2.3 3.8 2.6 2.2.2-1.1.1-3-.2-4.3a5.9 5.9 0 0 0-2.5-3.2c-1.4-.8-2-.8-2 0zm16.4 0c.3.6 2 .8 3.6.5 2.1-.4 3.6 0 5 1.5 1.1 1.1 2 3 2 4.3 0 1.2-.7 3-1.7 4-1 .9-3 1.7-4.6 1.7-1.5 0-2.7.4-2.7 1s2.3 1 5 1h5v-15c-9.9 0-12 .4-11.6 1z"/><path class="shp1" d="M271.3 313.8c-.8.7-1.4 2.6-1.4 4 0 1.5.6 3.2 1.3 3.8a25 25 0 0 0 13.3 1 7.4 7.4 0 0 0 3.3-2.6c1-1.6 1-2.6-.3-5-1.5-3-1.7-3-8.1-2.8-4 0-7.2.7-8 1.6z"/><path class="shp3" d="M256 315.4l-2.5 1.4c4.6 2.3 5.9 2.4 6.5 1.7.6-.6.8-1.8.5-2.8-.3-1-.8-1.7-1.3-1.7-.4 0-1.8.7-3.2 1.4zm25.1.5c-.9 1.7-.8 2.4.5 3.4s1.7 1 2.5-.3a5 5 0 0 0 .6-3c0-.7-.7-1.5-1.3-1.7-.7-.2-1.7.5-2.3 1.6zm-7.6.1c-.3.6-.3 1.7 0 2.5s1 1.5 1.6 1.5c.6 0 1.7-.6 2.4-1.3 1-1 1.1-1.5.2-2.5-.7-.7-1.7-1.2-2.4-1.2s-1.4.4-1.8 1z"/><path class="shp2" d="M344.1 320.5c-.6 1.4-1.1 3-1.1 3.8 0 .6.6 1.9 1.5 2.7 1.4 1.3 1.8 1.3 3.8-.6 1.2-1.2 3-2.4 4-2.8 1-.3 1.7-1 1.7-1.6 0-.6-1-.7-2.3-.4-1.6.4-2.6 0-3.4-1.5-.7-1.2-1.7-2.1-2.2-2.1-.5 0-1.4 1.1-2 2.5zm33.3-1.7c-.4.3-.7 1.7-.6 3.1.1 2.3.7 2.7 4.4 3.2a107.3 107.3 0 0 0 23.6-.5c.6-.3 1.2-1.4 1.2-2.4s-.5-2.2-1.2-2.8a41 41 0 0 0-14-1.2c-7 0-13 .3-13.4.6zM104 320.2c-.8.7-1.3 1.9-1.2 2.8 0 .8.7 2 1.4 2.8a5 5 0 0 0 3 1.2c1 0 2.2-.8 2.7-1.8.6-1.2.4-2.3-1-4-1-1.2-2.3-2.2-2.7-2.2-.4 0-1.4.5-2.2 1.2zm259.6.5c-1 1-1.6 2.4-1.4 3.2.2 1 1 .8 2.8-.7 1.8-1.5 2.2-2.4 1.4-3.1-.7-.8-1.5-.7-2.8.6zm-7 1.6c-1 1.2-1.2 2.3-.6 2.4.5.2 1.7-.5 2.5-1.4.8-1 1.4-2.1 1.5-2.6 0-.4-.4-.7-1-.7-.5 0-1.6 1-2.5 2.3zm12.9 0c-.4 1.2-.4 2.4 0 2.7.2.3 1.2.2 2-.3.8-.4 1.5-1.6 1.5-2.7s-.6-2-1.4-2c-.8 0-1.8 1-2.1 2.3zm-64 1.3a80.4 80.4 0 0 1-6.8 4c-2 1-6.4 1.3-16.7 1.1l-14-.2c.5 13.6.6 14 3 14.4 2.4.3 2.4.2.8-1.5-1-1-1.8-3-1.8-4.4 0-1.4.7-3.3 1.7-4.2 1-.9 2.7-1.7 3.8-1.8h3c.6.1 2.5.2 4.3.1 2.5 0 3.5.5 4.4 2.4 1 2 1 3 0 5a7.8 7.8 0 0 1-3.4 3.4c-2 .7-1.4 1 3.2 1.6 3 .4 6.6.5 8 .2a45 45 0 0 0 8.5-4.2c3.3-2 6.4-3.6 6.9-3.8.5 0 .7-.8.5-1.5-.3-.9-2.2-.2-6.4 2.3-3.3 2-6.6 3.3-7.3 3-.6-.3-1.2-1.7-1.2-3.3 0-1.5.4-3.3.8-4 .4-.6 1.8-1.9 3.2-2.7l6.8-3.7c2.3-1.3 4.2-2.9 4.2-3.6 0-.6-.4-1.2-.8-1.2-.5 0-2.6 1.2-4.8 2.6zm2.8 4.2c-1.2 1-3.5 2.5-5.2 3.4-1.7 1-3.1 2.3-3.1 2.8 0 .6.6 1 1.3 1a20 20 0 0 0 5.4-2.8 18 18 0 0 0 4.8-4c.3-.6.1-1.4-.4-1.6-.4-.2-1.7.3-2.8 1.2zm-49 0c-1.8 0-3.3.6-3.3 1.2s.7.8 1.5.5c.8-.3 2.3-.2 3.2.3 1 .4 2.2 2 3 3.7l1.2 3c.5-6 0-7.6-1-8.1-.7-.5-2.9-.8-4.6-.7zm105 5.7c.1 3.6.5 6.5 1 6.5.4 0 1-.7 1.2-1.5.3-.8.5-3.8.5-6.5 0-3.7-.4-5-1.5-5s-1.4 1.4-1.2 6.5zm-232.8-4.3c-3.3.5-6.3 1.5-6.7 2.1-.4.7-.8 1.8-.8 2.4 0 1 1.2 1.2 4.3.8l9.5-1.3 5.3-.7c-3.2-3.5-4.4-4.4-4.8-4.4l-6.8 1.1zm47 .3c-1.1 1-3 1.5-4.2 1.3-1.3-.2-2.1.1-2 .7.2.6 5.5 1.3 11.8 1.7 6.3.4 11.5.6 11.7.5.1-.1 0-1-.3-2s-1.7-2-3.3-2.2l-7.2-1c-3.2-.4-5 0-6.5 1z"/><path class="shp0" d="M350.4 328.6c-.4.3-.4 2.7 0 5.2a916 916 0 0 1 1.8 15.5c.7 5.9 1.5 10.7 1.8 10.7.3 0 .2-2-.2-4.3s-.7-9.2-.7-15.4c0-6.4-.3-11.4-.9-11.7-.5-.3-1.3-.3-1.8 0zm49.1 3.2l-5.5 1.9c-.3.2.3 1 1.2 2 1 1 1.8 2.4 1.8 3 0 1 1.4 1.1 5.3.7 2.8-.3 6-1 7-1.5 1.2-.6 1.6-1.9 1.4-4.1-.2-2.9-.6-3.3-3.2-3.5-1.6 0-5.3.6-8 1.5z"/><path class="shp3" d="M324 331.9c-2.3.6-2.5 1.3-2.8 6.6-.2 3.3.4 10.5 1.2 16 .9 5.6 2 10.3 2.8 10.7.7.4 3.3 1 5.8 1.3 2.5.4 4.7.4 5 0 .3-.2 0-1.1-.8-2-1-1.2-1-1.6 0-2.1s1-.8-.2-1.5c-.8-.5-1.5-1.9-1.5-3.1 0-2-.4-2.3-3.5-2-2.6.3-4-.2-5.5-1.8-1.8-2-1.9-2.4-.5-4.8a7.2 7.2 0 0 1 3.7-3.1c1.7-.5 2-1 1.3-2.1a6 6 0 0 1-1-2.3c0-.4.9-1.6 2-2.7a8 8 0 0 1 4.8-2c1.5 0 3.3.6 4 1.5.7.9 1 2.6.6 4.3-.5 2.2-.4 2.6 1 2 1-.5 2.3-.1 3.6 1.2 1.1 1.1 2 2.7 2 3.5 0 .8-1.2 2.4-2.8 3.5-1.5 1.2-3.3 1.8-4 1.5-.8-.3-1.1.5-1 3 .2 2 .6 3.5 1 3.5.5 0 .8 1.1.8 2.5 0 1.8.5 2.5 2 2.5 1.1 0 3.5-.7 5.3-1.6l3.2-1.5c-2-18.1-2.8-24.3-3-25.4-.3-1.4-2-2.5-5.7-3.7-3-1-5.6-1.8-6-1.8-.5 0-1 .9-1.3 2-.3 1.1-1.2 2-2 2s-1.7-.7-2-1.5a4 4 0 0 1 0-2.5c.3-.6-.5-1-1.8-.9-1.2 0-3.3.4-4.7.8z"/><path class="shp2" d="M104.3 335c-1.7 2-1.7 2.1.4 4.3 2 2 2.4 2 3.8.7.9-.8 1.6-2.2 1.6-3 0-.8-1-2-2-2.7-1.7-1-2.3-.9-3.8.8z"/><path class="shp3" d="M257 335c0 1.1.4 2.2 1 2.5.6.3 1.4-.3 2-1.3.5-1 .6-2 .2-2.5a3 3 0 0 0-2-.7c-.6 0-1.2.9-1.2 2zm16.6-1c-.4.6 0 1.7.6 2.5.7.9 1.5 1.6 1.8 1.5.3 0 1.2-.5 2-1 1.3-.8 1.2-1.1-.5-2.4a8.8 8.8 0 0 0-2.7-1.6c-.4 0-1 .4-1.3 1z"/><path class="shp0" d="M373.8 334.1c-1 .6-3 3-4.5 5.2a56.2 56.2 0 0 0-4 7.2c-.8 1.6-1.3 5.1-1.3 7.8 0 2.6.5 7 1.1 10 .7 3.4 2.2 6.3 4.3 8.5a28 28 0 0 0 5.9 4.8c1.5.8 3 1.4 3.2 1.4.3 0 .3-1.7 0-3.8a173.9 173.9 0 0 1-1.5-20c0-3.7-.3-4.2-2.3-4.2-2.1 0-2.1 0 .6-2.5 1.5-1.4 2.7-2.7 2.7-3a8 8 0 0 0-1.1-2.3c-.7-1-.9-2.6-.5-3.7.7-2 .8-2 2.4.2 1 1.2 3.4 2.5 5.7 2.9 3.9.7 4 .6 2.3-1.2-1-1-1.8-3-1.8-4.1 0-1.8-.8-2.5-3.8-3.3-2-.5-4.1-1-4.7-1-.6 0-1.8.5-2.7 1.1z"/><path class="shp3" d="M280.4 335.3c-.3.6 0 1.8.7 2.5 1.2 1 1.6 1 2.6-.3.7-.8 1-2 .8-2.5-.3-.6-1.1-1-2-1-.8 0-1.7.6-2 1.3z"/><path class="shp2" d="M135.8 336.4c-4.2.6-8 1.5-8.5 2s.2.6 1.7.2a80 80 0 0 1 9.5-1.3c3.8-.3 7.7-1 8.5-1.4 1.1-.6.8-.8-1-.8-1.4 0-6 .6-10.2 1.3z"/><path class="shp3" d="M157.6 338.8c-1.8 2.4-1.8 3-.5 5.2.8 1.4 2.1 2.6 3 2.8.7.1 2.2-1.1 3.2-2.8 1.6-3 1.6-3-.6-5.5-1.2-1.4-2.4-2.5-2.7-2.5-.3 0-1.4 1.3-2.4 2.8z"/><path class="shp2" d="M144 339.7a594.8 594.8 0 0 0-21.5 3c-.5.2-1 1.8-.9 3.6l.3 4.4c0 1 1.6 1.2 5.3.9L140 350c4.1-.5 9.4-.8 11.8-.5 2.3.3 4.2.3 4.2 0s-1.1-1.9-2.5-3.5c-1.8-2.1-2.2-3.4-1.5-4.3.5-.6.7-1.6.2-2-.4-.4-1.6-.7-2.7-.6l-5.5.6zm25 1c0 1-1.2 3.3-2.5 5a35.9 35.9 0 0 0-2.5 3.6s5 .6 11.2 1c6.2.4 12.9 1 14.8 1.2l5.8 1c2 .5 2.2.2 2-4.7-.3-5.2-.3-5.2-4.3-6.4-2.2-.6-8.6-1.4-14.2-1.8-9.4-.6-10.2-.6-10.3 1.1zm137.5.2l-6.5 3.9c-2.9 1.8-5 2.2-11.8 2.2-7.3 0-8.1.2-7.7 1.8.3 1 2 2.1 3.8 2.7 2.3.7 3.3 1.7 3.5 3.5.2 1.6-.6 3.7-2.2 5.8-1.4 1.7-2.3 3.4-1.9 3.6.5.2 3.5.2 6.8.1 4.9-.2 7.2-1 12.5-4 3.6-2 7.2-4.3 8-5 .8-.8 1.2-1.8.8-2.2-.4-.4-2.9.6-5.5 2.2l-7 4.3c-1.3.6-2.6 1-3 .6-.5-.3-.8-2.4-.8-4.6 0-3.2.6-4.4 3-6.4 1.6-1.3 5-3.4 7.5-4.6 2.5-1.2 4.8-2.6 5.2-3.2.4-.6.5-1.4.2-1.9-.2-.4-.7-.6-1.1-.6-.5 0-2.2.9-3.8 1.8z"/><path class="shp0" d="M409 341.5c-.3.2-3.9.9-8 1.4-4.1.5-9.2 1.5-11.3 2.3-2.3.8-3.6 1.9-3.5 2.8.2.8 1 1.6 2 1.7 1 .2 1.8-.3 1.8-1.2 0-.8.4-1.7 1-2 .6-.3 1.4.5 1.9 1.8.7 1.6 1.6 2.1 3.7 2 1.6-.1 5-.6 7.4-1a28 28 0 0 0 5.8-1.6c.6-.4 1.2-2 1.2-3.7 0-1.6-.4-3-.8-3a2 2 0 0 0-1.3.5z"/><path class="shp4" d="M247.1 349.8c-1.4 1.9-3 4-3.3 4.8-.5.9.4 3.2 2.4 6.1l3.3 4.8a73.5 73.5 0 0 0 1-16.6l-.7-2.6"/><path class="shp2" d="M304 349.1c-4 2.2-5.4 3.6-5.2 5 .1 1 .4 1.9.7 1.9.3 0 2.2-1 4.3-2.1l6-3.5c1.2-.8 2.2-2 2.2-2.9 0-.8-.6-1.5-1.3-1.4-.6 0-3.7 1.4-6.7 3zm-199.6-.1c-1.7 1.8-1.7 2.1-.4 3.5.8.9 2.3 1.6 3.3 1.5 1 0 2.1-.8 2.7-1.8.7-1.2.5-2.2-.8-3.4-1-1-2-1.8-2.3-1.8-.3 0-1.5.9-2.5 2z"/><path class="shp4" d="M254.6 350.5c-.3 2.2-.5 5.6-.5 7.5 0 2 .3 4.3.7 5.3.6 1.6 1.2 1.2 3.8-2.5 2.4-3.2 3-4.8 2.3-6.3-.4-1.1-2-3.4-3.3-5l-2.4-3m-28.2 5c0 .3 1.3 3 3 6.3a27.4 27.4 0 0 0 14.3 13.2c1 0 1.9-.3 2.1-.8.3-.4-.2-2-1-3.7a39.5 39.5 0 0 0-13.7-13.6l-4.2-1.9c-.3 0-.5.2-.5.5z"/><path class="shp0" d="M408 351.5c-.3.3-2.8.8-5.5 1-2.8.4-7.1.8-9.7.8-2.5.1-5 .5-5.5 1-.4.3-.2 1.3.4 2.2.7.8 1 2.3.8 3.3-.3 1 .1 2.6.9 3.7 1.2 1.7 1.6 1.8 3 .6.8-.7 1.5-1.2 1.6-1l.6 2.4c.2 1.1 1 2.3 1.6 2.7.7.4 1.6.8 2 .8.5 0 1-1 1-2.2.2-1.3 1-2.4 2-2.5 1.4-.2 1.7.2 1.3 1.7-.3 1.1-.2 2.2.3 2.4.4.3 2.2-.6 4-2 1.7-1.3 3.2-3 3.2-3.9 0-1-.6-1.3-2.3-.8-1.2.3-2.9.7-3.7.7l-6.8-.2c-4-.2-5.3-.6-5.8-2-.3-1-.3-2.4 0-3.2.7-1.3.9-1.3 2 .2.6 1 2.3 1.7 3.9 1.8 2 0 2.8-.5 3-2.2 0-1.2.8-2.3 1.4-2.5.7-.2 1.3.6 1.3 1.7s.4 2.2 1 2.5c.6.3 2.4.3 4 0 2.7-.4 3-.9 3-4 0-2.3-.5-3.5-1.3-3.5s-1.6.2-1.8.5z"/><path class="shp2" d="M154.4 353c-2 .5-2.4.9-1.4 1.3.8.3 10 .8 20.5 1 10.4.3 19.8.7 20.8 1 1 .4 1.7.3 1.7-.3s-2-1.2-4.3-1.5c-2.3-.3-11-.9-19.3-1.3s-16.4-.4-18-.1z"/><path class="shp4" d="M274.6 353c-.4.6-1.3 1-2 1a28.1 28.1 0 0 0-12.6 11.5c-1.1 2.2-1.6 4.3-1.2 4.8.4.4 2 .4 3.7.1 1.6-.3 4-1.3 5-2.2 1.1-1 3.2-3.3 4.7-5.2 1.4-2 2.9-5.2 3.2-7.3.4-2 .4-3.7.2-3.7-.3 0-.8.4-1 1z"/><path fill-rule="evenodd" class="shp2" d="M143.5 354.3l-6 .7-10.3 1.4c-2.5.4-4.2.2-4.2-.4 0-.6 1.5-1.1 3.3-1.3 1.7-.2 6.4-.4 17.2-.4zm17.5 3.3a469.3 469.3 0 0 1 31.7 1.7 7 7 0 0 1 2.7.7c.3.3 0 2-.6 4s-2 4.8-3.2 6.4c-1.9 2.5-2.5 2.8-6.1 2.2-2.2-.4-13.9-1-26-1.2-15.2-.4-22.7-.3-24.3.5-1.7.9-2.8.8-4.7-.4-1.4-.8-3.4-3.3-4.5-5.5s-1.8-4.4-1.5-5c.3-.6 2.4-1.3 4.8-1.6 2.3-.4 7.6-1 11.7-1.4 4.1-.3 13.1-.6 20-.4zm152.5 1.6c.6.7.7 1.2 0 1.4l-7.9 4.3c-4.9 2.8-7.6 5-11.3 11.6l-7.8-8 5.5-.5c4.3-.4 7.1-1.5 13-5.2 5.3-3.4 7.7-4.4 8.5-3.6zM115 363.7c3 .3 5.8.7 6.3 1 .4.1 1 1.8 1.3 3.6.3 1.7.2 3.6-.3 4-.4.4-4.7 1-9.5 1.3-8.5.4-8.8.3-9.3-1.9a13 13 0 0 1 0-4.4c.3-1.4 1.6-2.7 3.3-3.2a25 25 0 0 1 8.2-.4zm198.2.4c.3 0 .6.7.5 1.6-.1 1-2.8 3.2-6 5a35.2 35.2 0 0 1-6.7 3.3c-.6 0-1-.6-1-1.3 0-.6 2.8-2.8 6.3-4.9 3.4-2 6.5-3.7 6.9-3.7z"/><path class="shp4" d="M225.2 372.3l-5.2 4.2c7.3.4 12.9.2 17-.3l7.5-.8a40 40 0 0 1-10.5-5.8c-.8-1-2-1.7-2.5-1.6-.6 0-3.4 2-6.3 4.3zm45.7-2.7c-.8 1-2.8 2.3-4.4 3.1-2.3 1.2-2.7 1.7-1.5 2.3.8.4 5.8 1 11 1.3 9.5.6 9.5.6 6.5-1.2-1.6-1-4.1-3-5.5-4.5-1.4-1.5-3-2.6-3.6-2.6-.7 0-1.8.7-2.5 1.6z"/><path class="shp3" d="M307 374a32.9 32.9 0 0 1-8.1 4c-1 0-3.4 1.7-5.5 3.8-2.2 2-5.1 6.4-6.6 9.5-1.6 3.1-3.1 8.3-3.6 11.4-.6 5.4-.9 5.8-3.4 6-2.3.3-2.8.8-2.8 3a47 47 0 0 0 8 21.8 114.7 114.7 0 0 0 15 19.5 111.5 111.5 0 0 0 20.3 15.8c2 1.2 4 2.2 4.2 2.2.3 0 .5-.6.5-1.3 0-.6-3.3-3-7.3-5.4a87 87 0 0 1-14.5-11.5c-4-4-8.7-9.3-10.3-11.8-1.7-2.5-5-8.7-7.5-13.8-2.4-5-4.7-11-5.1-13.4-.6-3.3-.5-4 .6-3.7.7.2 2.4 3.3 3.6 6.9a111.4 111.4 0 0 0 11.3 22.5 76.1 76.1 0 0 0 6.8 8.7 124.5 124.5 0 0 0 15.4 13c2 1.4 4.9 2.9 6.5 3.4 2.2.8 3.7.7 5.5-.2 1.6-.8 4-1 6.8-.6 2.4.4 4.5.5 4.6.2.2-.3-.3-2-1-3.8-1-2.4-2-3.2-3.9-3.2-2 0-2.7-.7-3.5-3.5-.8-2.9-2-4-6.8-6.4a52.8 52.8 0 0 1-19.6-19.6c-1.4-2.8-3-8-3.7-11.5-1-5.5-.9-7.7.5-14a45.7 45.7 0 0 1 9.9-21.8c3.2-3.6 3.6-4.6 2.9-7-.5-1.5-1.3-2.8-1.8-2.9-.5 0-3.8 1.6-7.4 3.8z"/><path class="shp2" d="M250.6 374c-1.3.8-1.9 2-1.8 4 .1 1.7.8 3 1.4 3.1l2.8.4c.8 0 2-.4 2.8-1 .7-.5 1.3-2 1.2-3.3a4 4 0 0 0-2-3.2c-1.1-.6-2.1-1-2.3-1l-2.1 1zm73.8 1.2c-.2.4.4 1 1.4 1.4 1 .3 10 .5 20 .5 10.2 0 18.7-.3 19-.6.4-.3.3-.8-.1-1.3-.5-.4-9.7-.7-20.4-.8a126 126 0 0 0-20 .8zm-179.7 3.7c-2.6.3-4.7 1-4.7 1.6 0 .6 7.4 1.3 18.7 1.7 10.4.4 19.4.5 20 .3.7-.3 1.3-1 1.3-1.5 0-.6-3.3-1.2-7.3-1.5l-15.2-.8c-4.4-.2-10.2-.1-12.8.2z"/><path class="shp0" d="M126.6 387.8c.6 4.8 1 11 .6 13.7-.5 4.8-.5 5 1.6 4.3 1.3-.5 2.4-.4 2.7.2.3.6-.5 1.5-1.8 2.1a8.6 8.6 0 0 0-2.9 2.3c-.3.6-.2 2.3.3 3.9.5 1.5.7 3 .4 3.4-.2.5-1 .3-1.7-.3s-3-1.3-5-1.5c-3.2-.3-3.5-.2-2.3 1.1.8.8 1.2 2.4.9 3.5-.5 1.7.2 2.2 4.3 3.3 4.1 1 5.1 1 7-.3a22 22 0 0 0 4.8-5.5 60 60 0 0 0 4-7.8c.9-2 1.5-4.8 1.5-6.2a68.3 68.3 0 0 0-3.8-17.8c-.7-1.2-2.9-3.3-5-4.7-2-1.4-4.4-2.5-5.3-2.5-1.4 0-1.4 1-.3 8.8z"/><path class="shp4" d="M262.8 380.2c-.7.4-1 .9-.8 1 .3.3 3.3 1.9 6.8 3.6l6.2 3.2c5-3.8 7.6-5.5 9-6.2l2.5-1.2c-3.9-.4-9-.7-13.7-.8-4.8-.2-9.3 0-10 .4zm-33.8.8l-7.4.5c4.2 2.7 6.3 4.5 7.4 5.8l2 2.2c5-4 7.8-5.9 9.5-6.7l3-1.6a85 85 0 0 0-14.5-.2z"/><path class="shp2" d="M208.4 384.1c-.7 2.3-2.4 4-6.9 6.5-3.3 1.9-7 3.9-8.3 4.4-1.2.6-2.2 1.4-2.2 2 0 .6.7 1 1.5 1s1.7-.3 1.9-.8a46 46 0 0 1 7.5-4.4c4.8-2.6 8.4-3.8 11.1-3.8 2.2 0 4-.3 4-.8 0-.4-1.4-2.2-3.2-4a18.6 18.6 0 0 0-3.9-3.2c-.3 0-1 1.4-1.5 3.1zm-9.5 1c-3 1.8-6.2 3.9-7.1 4.8-1 .9-1.6 2-1.3 2.4.3.4 3-.6 6.3-2.2 3.1-1.6 6.5-3.8 7.4-5 1-1.2 1.4-2.3 1-2.5-.5-.3-3.4.9-6.3 2.6z"/><path class="shp0" d="M183.4 386.5l2 15.5c.8 6.3 1.5 17.1 1.6 24a152.2 152.2 0 0 1-3.6 33.5 149.3 149.3 0 0 1-9 27.5 332.5 332.5 0 0 1-21 39.3c-2 2.8-3.4 5.9-3.2 6.7.3 1 2-.7 5-4.5A122 122 0 0 0 170 503c2.7-5.2 5.7-11.5 6.8-14a177.2 177.2 0 0 0 10.3-34c1.5-8 2-15 2-29.8 0-10.5-.3-19.5-.5-20-.2-.4-1-4.2-1.5-8.4-.6-4.3-1.8-9.3-2.6-11l-1.5-3.3"/><path class="shp2" d="M390.5 384c-7.6.5-8 .6-8.3 3a7 7 0 0 0 1 4.3c.8 1 3.2 2 6.3 2.4 2.8.3 6.2.3 7.8 0a6.3 6.3 0 0 0 3.8-3c.8-1.6.8-2.9-.3-5-.7-1.5-1.5-2.7-1.8-2.6-.3.2-4.1.5-8.5.8zm-77.2 1.3c-.5.6-1.7 3-2.7 5.2-1 2.2-1.6 4.8-1.2 5.8.4 1.2 2.2 2 5.9 2.4a654.6 654.6 0 0 0 55.8-.3c4-.3 8-1 8.9-1.4 1.3-.8 1.2-1.4-.5-5-1.1-2.4-3.1-5-4.5-6-1.6-1-4-1.5-6.5-1.3a557.7 557.7 0 0 1-46.2 0c-5.9-.5-8.4-.3-9 .6zm-156.8.8c-2.4.5-2 .7 2.3.8 2.8 0 5.4-.2 5.6-.6.2-.5-.8-.8-2.3-.9-1.4 0-4 .3-5.6.7z"/><path class="shp4" d="M241 386.4c-1.9.7-4.7 3-6.2 5-1.6 2-3.6 5.2-4.6 7.1-1.1 2.3-1.4 3.8-.7 4.5.7.7 2.8-.2 6.4-2.7 3.5-2.6 6.3-5.6 8.2-9 1.6-3 2.9-5.5 2.9-5.8 0-.3-.6-.5-1.3-.5-.6 0-2.8.7-4.7 1.4zm18 1.3a38.6 38.6 0 0 0 15.8 15.6c2.3 1 4.2 1.4 4.2 1 0-.5-.6-1.5-1.5-2.3-.9-.8-1.6-2-1.5-2.8 0-.6-1.3-2.9-2.8-5a30.8 30.8 0 0 0-13.5-9.2c-1 0-1.2.8-.8 2.7z"/><path class="shp0" d="M97.5 391.5c-1.4 1.4-2.4 2.7-2.3 3 .2.3 4.1.6 8.8.6 5.4.1 9.1.7 10.3 1.5 1 .9 1.9 1 2.2.4.3-.6 0-1.9-.5-3-.8-1.6-1.3-1.8-2.5-.8-.9.7-1.7 1-1.8.8a81 81 0 0 0-1.3-2.5c-.6-1.1-1.9-2.1-2.8-2.3-1-.2-1.8.5-2 1.8-.4 1-1 2-1.6 2-.5 0-1.2-.9-1.5-2-.3-1.1-1-2-1.5-2-.6 0-2.2 1.1-3.5 2.5z"/><path class="shp3" d="M169.5 392c0 1.6.6 3.2 1.3 3.5.7.3 1 1.5.7 3-.5 2.4-.3 2.5 3.3 1.9 3-.5 4-.2 5.7 1.6 1.8 2 1.9 2.3.5 4.8-.9 1.5-2.6 2.8-3.8 3-2 .2-2 .4-1 2.1 1 1.6 1 2.4-.4 4.5-1.4 2-2.7 2.6-5.3 2.6-2.5 0-3.9-.6-5-2.3-.7-1.2-1.1-3-1-4 .4-1.2-.2-1.8-1.7-2-1.1 0-2.6-1-3.2-1.9-.8-1.2-.8-2.3.2-4.2 1-2 2-2.6 4.7-2.6 3 0 3.4-.3 2.9-1.8-.4-1-.8-2.4-.9-3.2l-.9-4.3c-.3-1.5-1.2-2.7-1.8-2.7-.7 0-3 .5-5 1-2.1.6-4 1.7-4.3 2.5-.3.8 0 3 .5 4.8.6 1.7 1.3 7.3 1.6 12.2l.6 9c6.8 3.5 9.7 4.5 10.8 4.5 1.2 0 2.2-.8 2.5-2 .3-1.1 1.2-2 2-2s1.6.6 1.6 1.3v3c0 1 .6 1.7 1.7 1.7 1 0 3.2-.5 5-1.2l3.5-1.3-2-24.5c-.2-2.5-.6-5.2-.8-6-.2-.8-2-1.8-3.7-2.2l-5.8-1.4c-2.2-.5-2.5-.2-2.5 2.5z"/><path class="shp4" d="M245.5 395.3l-3.2 5.2 8.7 9.5c-.2-6.6-.7-11-1.2-14.2l-1-5.7m5.8 11.4c-.4 6.6-.5 12.2-.2 12.5.3.3 1-.9 1.7-2.5a42 42 0 0 1 4-7.3c2.8-4 2.8-4.3 1.1-6a88 88 0 0 1-3.3-3.8c-.8-1-1.8-2.6-2-3.4-.4-.8-1 3.9-1.3 10.5z"/><path class="shp2" d="M213.3 392.8c-5.4.2-7.3.8-13.6 4.6a32 32 0 0 0-7.4 5.5c-.2.6.3 1.1 1 1 .6 0 4-1.7 7.4-4a39 39 0 0 1 7.3-3.9c.6 0 1 2 1 4.5 0 3-.6 5-1.8 6.1a29 29 0 0 1-5.2 3.5c-2 1-4.8 2.9-6.5 4.3-1.7 1.3-2.7 2.7-2.3 3 .5.3 3.6-1 7-2.8 6-3.3 6.7-3.5 18.3-3.7 6.6-.1 12.9-.6 14-1 1.4-.5.6-.8-2.8-.8-3.8 0-4.8-.5-5.2-2.1-.3-1.2-1-1.8-1.8-1.4-.6.3-2.2 0-3.4-.5-1.7-.8-2.3-2-2.4-4.4 0-2.2.7-3.7 2.3-4.8 1.5-1.1 2-2 1.3-2.5-.6-.5-3.8-.8-7.3-.6z"/><path class="shp0" d="M150.4 402.3c.6 3.4 1.2 5.3 1.4 4.2.2-1.1.2-4-.1-6.3-.3-2.3-1-4.2-1.4-4.2-.5 0-.5 2.7.1 6.3z"/><path class="shp3" d="M388.2 428.7c-.1 18-.5 37.2-1 42.7a37.4 37.4 0 0 1-1.7 10.7c-.6.4-4.1 1.3-8 1.8-3.9.6-10.7 1-15.3 1-4.5 0-8.2.4-8.2.9a6 6 0 0 0 1 2.2c.8 1.3 2.9 1.4 13.2.9 6.8-.4 14.5-1.3 17.1-2 3.4-1 5-2 5.3-3.4.3-1.1.3-21 .2-44.4-.2-28.7-.6-42.6-1.4-42.8-.7-.3-1 9.8-1.2 32.4z"/><path class="shp0" d="M105 400.5c0 1.6-.6 2.5-1.5 2.5-.8 0-1.5-.9-1.5-2 0-1.2-.7-2-1.8-2-1 0-2.7.3-4 .5-1.8.4-2.2 1.2-2.2 4v3.5c12-2.5 17-3 18.8-2.6 2 .4 3.6.1 4.2-.6.6-.9.5-2-.4-3.3-1.2-1.8-1.6-1.9-3-.5-1.6 1.3-1.9 1.3-2.7-.3-.5-1-2-1.7-3.4-1.7-2 0-2.5.5-2.5 2.5z"/><path class="shp2" d="M198 404.6c-3 1.8-5.5 4-5.5 4.9 0 .8.4 1.6.8 1.8.5 0 3.5-1.4 6.8-3.3 3.7-2.2 6-4.2 6-5.3 0-1-.7-1.7-1.3-1.6-.7 0-3.8 1.6-6.8 3.5zm113-2.7c2 .5 8.4 1.1 14.5 1.4 7 .4 9.5.3 7-.3-2.2-.4-8.7-1-14.5-1.4-6.7-.3-9.2-.2-7 .3zm52.5.1l-7 .6c12.4.3 15.5 0 15.5-.6s-.3-1-.8-.8l-7.7.8zm32.4 1.3c-.7.6-1.2 1.6-1.1 2.1 0 .6 1 1.9 2.2 2.9 2 1.6 2 1.6 3-.3.6-1.1 1-2.3 1-2.8 0-.4-.9-1.2-2-1.9-1.4-.9-2.2-.9-3.1 0zM306 409c-.1 2.6.3 4.8 1.1 5.5.7.6 5.4 1.6 10.3 2.2 5 .7 11 1.2 13.3 1.2 3.9 0 4.3-.3 5.7-3.5.8-2 2-3.7 2.5-4 .6-.3 1-1 1-1.8s-3.8-1.4-13.8-2c-7.5-.4-15.1-1-16.8-1.3-3.1-.6-3.1-.6-3.3 3.7zm64.9-3c-3 .4-9.2.8-13.8.8-4.5 0-8.2.4-8.2.9 0 .4.9 1.6 2 2.7 1.6 1.5 2 2.7 1.6 4.8l-.6 2.7 20.5-2 10.2-1.2.4-3.3v-4.8c0-1.3-1-1.7-3.4-1.6-1.7.1-5.7.5-8.7 1z"/><path class="shp0" d="M105.5 407.7c-1 .2-1.9 1-1.7 1.9 0 .8-.3 1.4-.8 1.4a1 1 0 0 1-1-1c0-.6-1.5-1-3.3-1-1.7 0-3.8.6-4.5 1.5-.6.8-1 2.3-1 3.3.3 1.1 1.2 1.6 2.8 1.5l8.5-.6a29 29 0 0 0 8-1.5c1.1-.6 3.2-1.3 4.8-1.6 1.6-.4 2.5-1.1 2.2-1.9-.2-.6-1.2-1.5-2.2-2-1.2-.5-2.2-.1-3 1-1.2 1.7-1.4 1.7-2.5 0-.7-.8-2-1.6-2.8-1.6-.8.1-2.4.3-3.5.6z"/><path class="shp3" d="M342 410.3c-1.8 1.8-2 2.7-1.2 5.2a8.2 8.2 0 0 0 2.6 4c1.3.8 2.1.4 3.6-1.5a9 9 0 0 0 2-4c0-.8-1-2.5-2-3.8-1.1-1.2-2.1-2.2-2.3-2.2-.2 0-1.4 1-2.6 2.3z"/><path class="shp0" d="M151.8 409.7c-.3.4-.3 4.7 0 9.5.4 4.7 1 8.4 1.4 8.2a103.8 103.8 0 0 0-.7-18.2c0-.2-.4 0-.7.5z"/><path class="shp2" d="M401.2 410.3c-.6 1-1 2.5-.7 3.4.4 1.2.9 1.5 1.6.8.5-.6.9-2.1.7-3.4-.3-2.2-.4-2.3-1.6-.8z"/><path class="shp3" d="M270.8 417.5a66.2 66.2 0 0 0 11.7 26c3 4.4 7.7 10.5 10.7 13.5a138.4 138.4 0 0 0 32.3 23.4c7 3.5 9.3 4.2 10.3 3.3.7-.7 1.3-1.5 1.2-2 0-.4-1.6-.7-3.5-.7-2.5 0-4.3-.8-6.3-2.8a52.2 52.2 0 0 0-8.7-6.4 134.1 134.1 0 0 1-23.9-19.2 106.4 106.4 0 0 1-15.4-22.6c-1.7-3.6-4-9.2-5-12.5-1-3.3-2.5-6.1-3.3-6.3-1.2-.2-1.2.8-.1 6.3z"/><path class="shp2" d="M200.5 417.8c-4.1 2.3-7.3 4.6-7 5.2.3.6 3.2-.5 6.5-2.5a37 37 0 0 1 7-3.5c.6 0 1 1.7 1 3.8 0 2-.4 4.2-.8 4.8a42 42 0 0 1-7.4 4.7c-3.8 2-6.8 4.1-6.8 4.7 0 .6.3 1 .8 1 .4 0 3-1.4 5.7-3.2 5-3.3 5-3.3 20.5-3.8l15.5-.5c0-13.7-.1-14-2.5-14.4-2.4-.3-2.4-.2-.8 1.5 1 1 1.8 3.4 1.8 5.1 0 2.6-.6 3.7-2.8 5-2 1.2-3 1.3-4.4.4-1.3-.8-2.4-.8-3.8-.1-1.5.8-2.5.6-4-.8-1.3-1-2-2.9-2-4.7 0-1.6.6-3.8 1.3-4.8.8-1 1-1.8.3-1.8-.6-.1-3.2-.3-5.8-.3-3.9 0-6.2.7-12.3 4.1zm39.5-1v3.7c3.1-3.1 4-4.3 4-4.7.1-.4-.8-1.2-1.9-1.8-1.8-1-2-.8-2 2.7zm155.5-.1c-.5.3-.8 1.4-.7 2.2 0 .9 1 2.4 2 3.4 1.6 1.6 1.8 1.6 3.7-.3l2-2c-3.1-3.1-4.5-4-5-4-.7 0-1.5.3-2 .7z"/><path class="shp0" d="M100.5 418.4c-5 1-6.1 1.5-7 3.8-.8 2-.7 3 .5 4.3 1.1 1.3 2.4 1.5 5 1 2-.4 4.7-1.3 6.3-2.1 1.5-.8 3.7-1.4 5-1.4 2.1 0 2.1 0 .4-1.7l-3-3.4c-1-1.3-2.1-1.3-7.2-.5z"/><path class="shp3" d="M220.9 417.7c-.7.3-1.2 1.1-1.1 1.9.1.8.6 1.6 1.2 1.9.6.3 1.8 0 2.8-.4 1.1-.7 2.3-.5 3.4.5 1 .8 2.3 1.2 2.8.9.6-.3 1-1.3 1-2.3 0-1-.2-2-.5-2.4-.3-.4-1.4-.2-2.5.5-1.5.9-2.5 1-4 .1-1-.6-2.4-.9-3.1-.7z"/><path class="shp2" d="M244.6 419.8c-.4 1.5-.3 3 .1 3.5.5.4 1.6.5 2.6.2s1.7-1.3 1.7-2.3a5 5 0 0 0-1.2-3c-.7-.7-1.6-1.2-2-1.2-.3 0-.9 1.2-1.3 2.8zm-107-.3c-.3.8-.6 3.3-.6 5.5s.4 4.2 1 4.5c.6.3 1.7-.2 2.5-1 1.2-1.2 1.3-2.1.5-4.3-.6-1.5-1-3.5-.8-4.4.2-1-.2-1.8-.9-1.8-.6 0-1.4.7-1.7 1.5zm234.9-.4c-2.4.5-2 .7 2 .8a17 17 0 0 0 6.5-.9c1-.6.5-.9-2-.7-2 .1-4.9.5-6.5.8z"/><path class="shp1" d="M102.5 419.7c-.5.3-.8 1.5-.7 2.5.1 1 .9 1.8 1.7 1.8 1 0 1.5-1 1.5-2.5 0-1.4-.4-2.5-.8-2.5-.5 0-1.2.3-1.7.7z"/><path class="shp2" d="M199 424.3c-2.9 1.8-5.5 3.8-5.7 4.4-.2 1 .4 1.1 2 .7 1.2-.4 4-1.9 6-3.3s3.8-3.2 3.7-3.9c0-.6-.1-1.2-.3-1.2l-5.6 3.3zm134.8-2c.7.6 1.2 3.5 1.2 6.4 0 3 .4 5.5 1 5.8.6.3 1-2.2 1-6.5 0-6.6-.1-7-2.3-7-1.8 0-2 .2-1 1.2zm12.4 1.4l-2.1 2.8-4-5a283.8 283.8 0 0 0-.2 25.8c0 .4 2.1.7 4.6.7h4.5c0-8.1.3-14.2.6-18.8.3-4.6.1-8.2-.4-8.2-.4 0-1.8 1.2-3 2.8zM240 426.1c.1 2.8.2 2.9 4.6 2.6 2.5 0 4.5-.5 4.5-1 0-.4-.9-.5-2-.2-1.3.3-3-.4-4.6-2l-2.6-2.4m69.2 1.1c0 .7.5 1.8 1.2 2.5a20 20 0 0 0 7.8 1.4c3.6.2 7 0 7.8-.4.6-.4 1.2-1.1 1.2-1.7 0-.6-2.8-1.4-6.3-2-3.4-.5-7.4-1-9-1-1.5 0-2.7.6-2.7 1.3zm52.8-.5c-5.6.3-5.8.4-5.8 3v2.8c4.1-4.1 5.5-4.7 6.5-4.3.8.5 1.5 1.3 1.5 1.8 0 .6 2 1 4.3 1a41 41 0 0 0 7.6-.7c1.8-.5 3.7-1.6 4.2-2.6.8-1.5.3-1.7-5.9-1.5-3.7 0-9.3.3-12.4.5zm-255 4.5c.1.4 2 .8 4.2.8 2.3 0 3.8-.4 3.5-1-.3-.6-2.2-1-4.2-.8-2 .1-3.6.6-3.5 1z"/><path class="shp3" d="M381 430.6c-2 2.8-2.3 3.7-1.2 4.7.9.9 1.2 6.1 1.2 20 0 18.3 0 18.7-2.3 20.1-1.2.8-4.4 1.6-7.2 1.7-2.8.1-6.5 1-8.3 2-1.7 1-3 2.2-2.6 2.6.3.5 5.3.1 11-.7 5.8-.8 11-2 11.5-2.5a546.3 546.3 0 0 0 .6-51.2c-.2 0-1.4 1.4-2.8 3.3z"/><path class="shp2" d="M157.2 430a9.3 9.3 0 0 1-4 3.2c-2.6 1.1-2.6 1.2-.4 1.5 1.2.2 2.4 1 2.7 1.8.3.8 1.6 1.5 3 1.5 2.2 0 2.5-.5 2.7-3.9.2-2.6-.3-4.3-1.3-5-1.3-1-1.8-.9-2.8.8zm237.8.2c-.8.7-1.3 1.7-1.2 2.3 0 .5 1.3 2.1 2.7 3.5l2.5 2.5c3.1-3.1 4-4.3 4-4.8 0-.4-1-1.6-2.3-2.7-1.2-1.1-2.7-2-3.3-2a5 5 0 0 0-2.4 1.2zm-295.5 1.4c-.4.4-.8 2-.7 3.6.2 1.9.8 2.8 2 2.9l10.2.5c4.7.3 10.4.2 12.8 0 3.9-.6 4.2-.8 4.2-3.6v-3c-19.4 0-25.6-.2-26.3-.5-.7-.3-1.7-.3-2.2.1zm104.3 2.2a256 256 0 0 0-8.3 5c-3.1 1.8-3.7 2.6-2.8 3.5 1 1 1.7.8 3-.4 1-.8 3.6-2.6 5.8-3.8 2.2-1.2 4.6-2 5.3-1.7.6.4 1.2 2 1.2 3.9 0 1.8-.7 3.9-1.7 4.8-1 .9-4.9 3.4-8.7 5.5-3.8 2.1-7 4.2-7.2 4.6-.2.5.3.8 1.1.8s3.6-1.2 6.3-2.6l7.2-4.4c2.1-1.5 4.3-1.6 14.5-1.3 6.6.2 13 .2 14.3-.1 2-.6 2.2-1.2 2.2-8.1 0-7.3 0-7.5-2.5-7.5-1.4 0-2.5.3-2.5.8 0 .4.7 1.1 1.6 1.7.8.6 1.6 2.1 1.9 3.5.3 1.6-.3 3.2-1.5 4.5-1.4 1.5-3.4 2-8 2.3-5.3.2-6.2 0-7.5-2a9 9 0 0 1-1.5-3.8c0-.8 1-2.6 2.5-4 2.1-2.1 2.9-2.3 4.8-1.4 1.2.6 2.8 1 3.4.8.7-.2 1.3-.7 1.3-1.1 0-.5-.8-.9-1.8-1l-9.8-.5c-7.2-.3-8.7 0-12.6 2zm126.6-1.5c-1.5 1.1-1.8 2.5-1.7 6.8.2 3.5.8 5.8 1.8 6.6 1.2 1 1.6 1 2 0 .3-.6.4-4.3.2-8-.3-6.4-.4-6.7-2.3-5.4zm25.6 6.2c0 7.2 0 7.5 2.3 7.3 1.2-.2 2-.6 2-1-.2-.5-.3-3.2-.3-6 0-4.3-.4-5.6-2-6.6-1.9-1.2-2-1-2 6.3zm-224.5-5.8c-.5.3-.8 1.5-.7 2.5.1 1 .7 1.8 1.3 1.8.6 0 1.7-.7 2.5-1.5s1.2-2 .9-2.5c-.3-.6-1.1-1-1.8-1a4 4 0 0 0-2.2.7z"/><path class="shp3" d="M164.5 433.3l-.7 3.7c-.2 1.7-1.4 3-3.5 4-2.8 1.3-3.2 2.1-3.8 6.5-.3 2.8-1 7.3-1.6 10-.6 2.8-.9 5-.7 5.1l4.3 2.8c2.2 1.5 4.3 2.7 4.8 2.6.4 0 1-.9 1.2-2 .3-1.1 1.2-2 2-2 1 0 1.4.8 1.3 2.5-.3 2.3 0 2.5 5 2.5 4.8 0 5.3-.2 6.2-2.8.6-1.5.8-3 .6-3.2-.3-.3 0-1.9.5-3.5a55 55 0 0 0 1.6-9c.3-3.3.8-6.8 1.2-7.7.3-1 .4-3.3.1-5.3-.4-2.7-1-3.6-3-4l-4.3-1c-1.2-.4-1.6 0-1.4 1.3.1 1.2-.5 1.7-2.3 1.7-1.8 0-2.4-.5-2.3-1.8.2-1.2-.4-1.7-2.2-1.7-1.4 0-2.7.6-3 1.3z"/><path class="shp2" d="M240.5 432.7c-.5.3-.8 1.7-.7 3l.2 2.3c3.9-3.9 5-5.2 5-5.5 0-.3-.8-.5-1.8-.5s-2.2.3-2.7.7z"/><path class="shp3" d="M220.4 437.3c-.3.6-.3 2.1 0 3.2.5 1.6.9 1.7 1.8.8.7-.7 2.2-1.3 3.5-1.3 1.3 0 2.5.4 2.8 1 .3.6 1 .8 1.5.5.6-.3 1-1.6 1-3s-.6-2.5-1.3-2.5c-.7 0-1.8.6-2.5 1.3-1 1-1.6 1-3.2 0-1.1-.7-2.2-1.3-2.5-1.3-.3 0-.8.6-1.1 1.3zm24.1-.6c-.5.3-.8 1.5-.7 2.5.1 1 .6 2 1.2 2.3.6.3 1.9 0 3-.5 2-1 2-1 .3-3-1-1.1-2-2-2.4-2-.3 0-1 .3-1.4.7z"/><path class="shp2" d="M262.5 439.5c.4 2.2 1.3 4.7 2 5.5.8.8 1.7 1.3 2 1 .4-.3.4-1.6 0-3a15 15 0 0 0-2.6-5l-2-2.5"/><path class="shp3" d="M374 439.2a54 54 0 0 1-9.4 6.9c-4 2.3-6.3 4.4-7.2 6.6-1 2.2-2.3 3.5-3.9 3.8-1.9.4-2.8 1.4-3.5 4.3-.5 2-1 4.5-1 5.4 0 1.6.3 1.6 2.8-.3 1.5-1 4.3-2.1 6.3-2.2 2.5-.1 4.4.4 5.8 1.8a7.1 7.1 0 0 1 2.1 5.3v3.2c9 0 11.2-.5 11.5-1.3.3-.6.4-9.3.2-19.1l-.3-18"/><path class="shp1" d="M168.2 440.7c.3 2.5 0 2.8-3 3-2.2.2-3.7 1-4.7 2.8-1 1.8-1.2 3-.5 4.5.6 1.1 1.7 2 2.5 2 1.1 0 1.4.7 1 2.8-.3 1.6 0 3.6 1 5 .8 1.2 2 2.2 2.8 2.2.6 0 2.4-.9 4-2 2-1.5 2.6-2.6 2.2-4.5-.4-2-.1-2.5 1.8-2.5 1.3 0 2.8-.6 3.5-1.3.7-.6 1.2-2.3 1.2-3.7 0-1.4-.5-3-1.2-3.8a5.7 5.7 0 0 0-3.6-1.2c-1.6 0-2-.4-1.6-1.8l.7-2.7c.1-.6-1.3-1.1-3-1.3-3.1-.3-3.3-.1-3 2.5z"/><path class="shp0" d="M151 440.3l-.5 3.7-.8 7a128 128 0 0 1-2.7 13 135.5 135.5 0 0 1-16.9 41.5 21.6 21.6 0 0 0-3 6.5c0 1 .6.7 1.9-1a62 62 0 0 0 4-6.5c1.3-2.2 3.5-6.5 5-9.5a257 257 0 0 0 7.3-17c2.4-6.3 4.9-14.2 5.5-17.5.6-3.3 1.3-9.5 1.7-13.8.3-5 .2-7.7-.5-7.7-.5 0-1 .6-1 1.3z"/><path class="shp2" d="M137.5 443.7c-.3 2.1-1 5-1.6 6.6-.7 2-.6 2.8.3 3 1 .3.9 1.1-.3 3.8-1 1.8-2 5.4-2.4 7.9a30.7 30.7 0 0 1-3.3 10l-2 5.3a17 17 0 0 0-1.2 5.2c0 1.4.5 2.3 1 2 .6-.3 1.2-1.9 1.5-3.5.3-1.6.8-3 1.3-3 .4 0 1-1.3 1.4-3 .5-1.6 1.4-3 2-3 .8 0 1.3-1.5 1.4-3.8 0-2 .6-6.2 1.3-9.2.7-3 1.4-8.2 1.7-11.5.2-3.3.7-6.8 1-7.8.2-1 0-2-.5-2.2-.5-.3-1.2 1.1-1.6 3.2zm60.4 0c-2.5 1.6-4.9 3.8-5.3 5-.5 2.1-.2 2 4.7-1.2a35 35 0 0 1 6-3.5c.4 0 .7-.7.7-1.5s-.3-1.5-.8-1.5c-.4 0-2.8 1.3-5.3 2.8z"/><path class="shp4" d="M102.6 442.6c-.5.3-.8 9.5-.8 20.3l.1 30.1.5 69.5c.3 32.5.8 61.3 1.1 64a33.3 33.3 0 0 0 4.9 15.2 12 12 0 0 0 2.6 3.3c.3 0 .5-9 .5-20 0-10.9-.3-20.2-.7-20.7-.5-.4-.3-1.4.2-2 .5-.7.7-2.3.3-3.5a7.6 7.6 0 0 1-.4-3.3 166.5 166.5 0 0 0-.1-26.3c-.4-.6-.3-2.1.2-3.2a4 4 0 0 0 0-3.8c-.6-1.1-.5-2.1.3-3 1-1 1-1.7 0-3.2-.8-1.3-1-2.5-.4-3.3.5-.7 1-20 .9-44.7 0-24-.4-44.2-.9-45-.4-.8-1.6-5.1-2.5-9.5-1-4.4-2.1-8.8-2.6-9.8-.4-1-1.2-1.7-1.6-1.7a3 3 0 0 0-1.6.6zm7 2.1l1.8 8.1 1.1 5.4c3.6-9.8 4.8-13.5 5-14.4.4-1.5-.2-1.8-4.1-1.8-4.6 0-4.7 0-3.9 2.8z"/><path class="shp2" d="M240 444.5c0 2.4.3 2.5 6 2.5 4.2 0 5.8-.3 5.3-1.1-.5-.7-2-.9-4-.5-2.5.5-3.8.1-5.3-1.4l-2-2m155.7 2.8c-1.5 1.5-1.5 2-.2 4 .8 1.2 2 2.2 2.8 2.2.6 0 2-.7 3-1.7 1.6-1.7 1.6-2-.3-4-1.1-1.3-2.4-2.3-2.9-2.3-.4 0-1.5.8-2.4 1.8zM120 447.1c-1.2 1.8-2.1 3.8-2.1 4.3 0 .6.9.1 2-1 1.2-1.1 2.6-2.8 3.1-3.8s.5-2 0-2.3c-.5-.3-1.9 1-3 2.8zm85.9 4.7c-1.3.7-1.3 1 .3 1.5 1.2.4 1.7 1.7 1.7 4.1 0 2-.4 3.7-1 4-.6.3-.8 1-.5 1.5.3.6 3 1 6 1 4.8 0 5.4-.2 4.8-1.8-.4-1-.7-3.4-.8-5.5 0-2.3.6-4.1 1.5-4.7 1-.7-.3-1-4.5-1a24 24 0 0 0-7.5.9zm26.2.4c1 .6 1.7 2.3 1.8 3.7 0 1.4-.7 3.5-1.5 4.8-1.4 2-1.4 2.2.8 2 2-.3 2.2-1 2.4-6 .3-5.7.2-5.8-2.5-5.8-2.4 0-2.5.2-1 1.3zm7.8 1.4c0 2.4.2 2.6 1.2 1.3l2.8-2.8c1.3-1 1-1.2-1.3-1.2s-2.7.4-2.7 2.8zm109.7-2c-.4.3-3.6.5-7.2.4-3.8 0-6.5.3-6.5.9 0 .6 2.8 1.3 6.3 1.6 3.5.3 7.4.1 9-.5 1.5-.6 2.5-1.6 2.2-2.1-.3-.6-1.1-1-1.8-1-.8 0-1.7.3-2 .6zm-231.2 2.8c-1.3 1.3-2.4 3-2.5 3.7 0 .7 1.6-.3 3.5-2.2 2-2 3.5-3.6 3.5-3.8l-1-.2c-.6 0-2.2 1.1-3.5 2.4z"/><path class="shp3" d="M127 453c0 .6 1.3 1 3 1s3.2-.4 3.5-1c.3-.6-1-1-3-1s-3.5.4-3.5 1zm94 .2c-.8.7-1.3 2.5-1.2 4 .2 2.4.4 2.7 2.2 1.8 1.1-.6 2-1.8 2-2.8 0-1-.4-2.3-.8-3-.7-1-1.1-1-2.2 0zm7.2 1.3c-.7.8-1 2.2-.7 3 .3.8 1 1.4 1.8 1.2.6-.2 1.3-1.2 1.5-2.3.2-1 0-2.3-.5-2.7-.5-.4-1.4 0-2.1.8z"/><path class="shp2" d="M195.8 457.4a20.4 20.4 0 0 0-5.8 3.9 73.6 73.6 0 0 0 12.4-6.4c.7-.6.7-.9 0-.8-.5.1-3.5 1.6-6.7 3.3zm73.8-.6c.4 1.5 1.4 3.5 2.3 4.5 1 1.1 2 1.4 2.6.8.7-.7.4-2.2-.8-4.6-1-2-2.4-3.5-3.2-3.5-1.2 0-1.4.7-.9 2.8z"/><path class="shp3" d="M244 456.6c0 .8.4 1.6 1 1.9.6.3 1.9 0 3-.5 1.3-.7 2.2-.7 2.5 0 .3.6 1.4 1 2.5 1 1.3 0 2-.6 1.8-1.7-.3-1.4-1.4-1.8-5.6-2-4.1 0-5.3.2-5.3 1.3z"/><path class="shp2" d="M120.9 458.6c-.8 1-2.3 2-3.4 2.4-1.5.6-2.2 2-2.7 6.1-.4 3-.5 5.6-.3 5.9.3.3 2.2-1 4.4-3 2.1-2 4.2-4.2 4.5-5 .3-.8.4-1.7.1-2-.3-.3-1.9.9-3.5 2.5s-3.3 2.7-3.7 2.3c-.5-.4 0-1.9 1-3.3s2.5-2.9 3.5-3.4a5 5 0 0 0 2.2-2.5c.3-.9.2-1.6-.1-1.6-.4 0-1.3.7-2 1.6zm75.1 3c-4.1 2.5-7.9 4.8-8.3 5.2-.5.4-.7 1.3-.5 2 .2.8 2.2.2 6.3-2 3.3-1.7 7.2-4 8.8-5 1.5-1 2.7-2.5 2.7-3.3 0-.8-.3-1.4-.8-1.4-.4 0-4 2.1-8.2 4.5zm200-3.4c-.8.7-1.3 1.7-1.2 2.3 0 .5 1 1.9 2.1 3 1.8 1.8 2.2 1.8 3.6.5.9-.8 1.6-2.2 1.6-3 0-.8-.6-2-1.3-2.8-.7-.7-1.8-1.2-2.4-1.2a5 5 0 0 0-2.4 1.2zm-52.6 1.8c.3.8.7 3 1 4.8.3 1.7.2 4.1-.4 5.2-.6 1.1-1.4 2-2 2-.6 0-1.9-.9-3-2a8 8 0 0 0-5.3-2c-1.8 0-3.8.6-4.5 1.3-.7.6-1.2 2.3-1.2 3.7 0 1.4.5 3 1.2 3.8.7.7 2.2 1.2 3.3 1.2 1.1 0 3.5-1 5.3-2 1.7-1.1 3.6-2 4.2-2 .6 0 1.4.9 2 2 .8 1.6.4 2.7-2.5 5.8-2 2-3.6 4-3.5 4.4 0 .5.6 1.8 1.3 3 .6 1.3 1.6 2.6 2.2 3 .6.4 2.5.8 4.3.8 2.2 0 3.7-.7 4.7-2.3.8-1.2 1.5-2.9 1.6-3.7 0-.8-1.5-3-3.3-4.7-3.3-3.2-3.3-3.3-1.6-5.8 1-1.4 2.1-2.5 2.6-2.5.4 0 1.6.9 2.7 2 1.1 1 2.7 2.2 3.5 2.4.8.2 3-.3 4.8-1 2.8-1.2 3.2-1.8 3-4.6-.2-2.3-1-3.7-2.8-4.7a7.6 7.6 0 0 0-5.3-.8 10 10 0 0 0-4.4 2.7c-1 1.1-2.7 2-3.8 2-1.9 0-2-.4-1.3-5.5l1-6.6c.2-.6-.7-1.2-2-1.3-1.5 0-2 .4-1.8 1.4zm-82.8 6a183 183 0 0 0 2 7c.8 2.5 2 5.4 2.9 6.5 1.3 1.8 1.4 1.7.5-1.3l-1.9-6c-.4-1.5-1.6-4-2.5-5.7-1.5-2.6-1.6-2.7-1-.5zm-17.1.9c-2.8.3-4.6.9-4 1.2.6.3 4.6.7 9.1.8 6.3.2 8 0 8-1-.2-.9-1.7-1.4-4.2-1.5-2.1 0-6.2.2-8.9.5zm-47.7 5.5c-5.3 2.8-10.5 5.9-11.5 6.8-1 1-1.6 2-1.3 2.3a26 26 0 0 0 7.5-3.5l12.3-6.5c4.8-2.3 6.3-2.5 18.4-2.5 7.7 0 13.6-.4 14.2-1 .7-.7-4-1-14.5-.9l-15.4.1M277 469c0 1.1.8 3.4 1.8 5s2.5 3 3.4 3c1.2 0 1.6.6 1.3 1.5-.3.8 0 1.5.5 1.5.6 0 1-.3 1-.8 0-.4-.4-2.3-1-4.2a13.8 13.8 0 0 0-6.5-8c-.3 0-.5.9-.5 2zm-158.1 3.7c-2.4 1.9-4.5 4-4.7 4.9 0 .8.1 1.4.5 1.4.5 0 2.8-1.7 5.1-3.8 2.4-2 4.2-4.2 4-4.8-.4-.7-2.3.2-5 2.3zm277.6-1.2c-2 1.5-2 1.5.5 4 2.5 2.6 2.5 2.6 4.5.6l2-2c-3.1-3.2-4.2-4.1-4.5-4.1-.3 0-1.4.7-2.5 1.5z"/><path class="shp0" d="M404 478.3c-4.1 4-13.6 11.7-21 17.2a435.7 435.7 0 0 1-16 11.4c-1.4.9-8.1 4.5-15 8.2a344 344 0 0 1-34.3 15.8L315 532c8.9 8.3 9.1 8.8 9.1 14 0 3-.4 6.6-.9 8a14.7 14.7 0 0 1-11.5 8.5 34 34 0 0 1-6.7.3l-2.5-.3c-.9 23.3-1.7 32-2.4 34.5a45.6 45.6 0 0 0-3.9 15.5c-.5 4.4-.8 9.8-.6 12a60 60 0 0 0 5.5 20c1.4 2.8 4.1 7.7 6.1 11s4.1 7.2 4.7 8.8l1.1 2.7h100c0-151.9-.3-196-.8-196-.4 0-4 3.3-8.2 7.3z"/><path class="shp3" d="M152 472.7c-.8.3-1.8 1-2.2 1.7-.4.6-1.7 4-2.9 7.6a70.4 70.4 0 0 1-6.9 15.5 14 14 0 0 0 3.8 2.7c3 1.7 4 1.9 5.4 1 1-.7 2.3-1 2.8-.7.6.3 1 1.4 1 2.5 0 1.7.7 2 4.5 2h4.5a241.9 241.9 0 0 0 11-21.8c1-2.3 1.9-4.4 1.8-4.7-.2-.2-2.6-1.2-5.5-2.2-4.9-1.7-5.1-1.7-5.7 0-.3 1-1.2 1.5-1.8 1.3-.7-.2-1.2-1.3-1-2.5.1-1.6-.3-2.1-2.3-2.1-1.4 0-3-.2-3.8-.4-.6-.3-1.9-.2-2.7.1zm19.8.8c1.2.8 2.9 1.3 3.7 1 .8-.3 1.5-1 1.5-1.5 0-.6-1.7-1-3.8-1-3.6 0-3.6 0-1.4 1.5z"/><path class="shp2" d="M269.1 477.3c1.2 2.3 2.4 3.6 2.6 3 .2-.7-.4-2.7-1.2-4.3-.8-1.6-2-3-2.5-3-.6 0 0 2 1.1 4.3zm20.4-1.9c-1.1.8-1.8 1.7-1.5 2 .3.4 2.2 0 4.3-.9 2-.8 3.7-1.7 3.7-2 0-.3-1-.5-2.3-.5-1.2 0-3.1.6-4.2 1.4zm-171.3 4.4c-2.3 2-4.2 4.3-4.2 5 0 .6.2 1.2.5 1.2s2.5-1.7 5-3.8c2.5-2 4.5-4.3 4.5-5 0-.6-.3-1.2-.8-1.2-.4 0-2.6 1.7-5 3.8zm185.9-1.9c0 .6 1.1 2 2.6 3.1 1.6 1.1 3.5 2 4.3 2 1.2 0 1.2-.2.3-1.2-.6-.7-2.5-2.1-4.1-3.1-1.7-1-3-1.3-3.1-.8z"/><path class="shp1" d="M157.8 479.6c-.7.8-.9 1.5-.4 1.4.7 0 .7.4 0 1-.6.9-1.5.9-3.2 0-1.7-.8-2.6-.6-4.2.8a6 6 0 0 0-2 4c0 1.3.8 2.4 2 2.7 1.8.4 1.9.8.8 3-1.1 2-1 2.8.4 5 1.2 1.6 2.6 2.4 4 2.3 1.4-.2 2.9-1.5 3.8-3.3 1.2-2.3 2-3 4-2.7 1.4.2 3.3-.4 4.3-1.5 1.5-1.6 1.6-2.2.5-4.6-1-2-2-2.7-3.8-2.7-2.1 0-2.3-.1-1.3-1.5.7-.8 1-2 .8-2.5a6.5 6.5 0 0 0-2.4-2c-1.4-.7-2.3-.6-3.3.6z"/><path class="shp2" d="M274.9 481.5c-.8.9-1.2 1.8-.9 2 .3.3 2.2-.2 4.3-1 2-.8 3.7-1.7 3.7-2 0-.3-1.3-.5-2.9-.5-1.6 0-3.5.7-4.2 1.5zm-155 3a12.4 12.4 0 0 1-4.2 3c-1 .3-1.7 1.5-1.7 3 0 1.4.3 2.5.8 2.5.4 0 2.6-2 5-4.3 2.3-2.3 4.2-4.8 4.2-5.4 0-.7-.4-1.3-.8-1.3-.5 0-2 1.1-3.3 2.5z"/><path class="shp3" d="M248.9 482.5c-.3.2-9.7.5-21 .6-20.3.1-20.4.1-25.4 2.9a1070 1070 0 0 0-27.6 16.1c-1.3 1-2 2-1.7 2.3.5.3 5.9-2.3 12-5.8l17.3-9.4c6-3 6-3 28-3.7 12.1-.4 25-.6 28.5-.5 6 .2 6.4 0 5-1.5-1.1-1.2-3.2-1.6-8-1.5-3.7 0-6.9.2-7.1.5z"/><path class="shp2" d="M287 485.2c0 1.3 1 3.5 2.3 5 1.2 1.4 3.4 2.9 5 3.2 2 .5 2.7.2 2.7-.9 0-.8-.4-2.4-1-3.5s-2.8-3-5-4l-4-2m16.4 5.2a136 136 0 0 1-3.4 2.5c-.3.2-.3.5 0 .8.3.3 3.4-.8 7-2.5 6.3-3 6.4-3 2.9-3-2.1 0-4.8.9-6.5 2.2zm16.7-.5c.2 1 1.8 2.4 3.4 3.2 1.7.8 4.6 1.6 6.5 1.7 3.3.2 3.4.2 1.5-1.2a7.4 7.4 0 0 0-3.3-1.4c-.6 0-2.8-1-4.9-2-3.3-1.9-3.6-2-3.2-.3z"/><path class="shp0" d="M246.5 489.8c-1 1-1.8 2.5-1.7 3.3 0 .8 1.2 2.4 2.4 3.6 1.3 1.3 2.8 2.3 3.3 2.2.6 0 1.6-.8 2.2-1.7.7-1 1.3-2.4 1.3-3.2 0-.8-1-2.5-2.2-3.7a10.7 10.7 0 0 0-2.9-2.3c-.3 0-1.4.8-2.4 1.8zm12 0c-1 1-1.8 2.7-1.7 3.8 0 1 1 2.7 2 3.6.9 1 2.1 1.8 2.7 1.8.6 0 1.8-1.3 2.8-3 1.4-2.4 1.5-3.3.4-4.6-.6-1-2-2-2.9-2.5-1.1-.6-2.2-.3-3.4 1z"/><path class="shp2" d="M119 491.6c-2 1.3-3.8 3.1-4.3 4-.4.8-.6 1.6-.5 2 .2.2 2.4-1.2 5-3 2.7-2 4.8-4 4.8-4.6 0-.6-.3-1-.8-1a17 17 0 0 0-4.2 2.6z"/><path class="shp0" d="M212.5 490.6c-.9.8-1.6 1.7-1.6 2l1.6 3.4c.8 1.6 2 3 2.8 3 .6 0 1.9-1 2.7-2.4 1.3-2.3 1.3-2.7-.3-5-1-1.5-2.1-2.6-2.6-2.6s-1.7.7-2.6 1.6zm10.4.3a7 7 0 0 0-1 3c0 .6 1 2.1 2.1 3.4 1.7 1.8 2.4 2 3.8 1 1-.5 1.8-1.8 2-2.7 0-.9-.6-2.7-1.6-4-1-1.4-2.3-2.6-3-2.6-.6 0-1.6.9-2.3 2zm12 .6l-2.4 2.6 5 5c4.9-3.9 5-4.1 3.5-6.7-.8-1.5-2-2.9-2.6-3-.6-.3-2.1.7-3.5 2.1z"/><path class="shp2" d="M307.7 491.4c-2.6 1.1-4.7 2.4-4.7 2.9 0 .4 2.4-.2 5.3-1.3 2.8-1.1 5.6-2.5 6.1-3 .7-.6.5-1-.4-.9-.9 0-3.6 1-6.3 2.3zm-30.6 2.6c1.3 2.2 2.7 4 3.1 4 .5 0 .5-1 .1-2.3-.4-1.2-1.5-3-2.5-4s-2-1.7-2.4-1.7c-.3 0 .5 1.8 1.7 4zm100.4-2.3c-2.2.3-4.4.9-5 1.4-.5.5-.3.9.8.9 1 0 1.7.3 1.7.8 0 .4-3.3 2.8-7.5 5.4-4.1 2.7-7.3 5-7 5.3.3.3 3-1 6.3-2.7 3.1-1.8 7.2-4.7 9-6.5 1.8-1.8 4.1-3.3 5.2-3.3 1.1 0 2.1-.4 2.3-1 .1-.6-.2-1-.8-.8l-5 .5z"/><path class="shp0" d="M200.4 494.3c-.3.6-.4 2.5-.2 4.1.2 2.3 1 3.2 3.3 3.9 2.5.8 3.2.6 4.3-1 .7-1 1.2-2.6 1.2-3.6s-1.4-2.3-3.5-3.2c-2-.8-3.7-1.5-4-1.5-.3 0-.8.6-1 1.3z"/><path class="shp2" d="M118.3 498c-2.4 2.2-4.3 4.7-4.3 5.5 0 .8.3 1.5.8 1.5a23 23 0 0 0 5-4.2 18 18 0 0 0 4.2-5.6c0-.6-.3-1.2-.8-1.2-.4 0-2.6 1.8-5 4z"/><path class="shp0" d="M267.8 496c-.3.8-.3 2.8 0 4.3.5 1.8 1.3 2.7 2.2 2.5.8-.2 1.6-1 1.8-1.8.2-.8-.5-2.6-1.6-4-1.5-2-2-2.2-2.4-1z"/><path fill-rule="evenodd" class="shp2" d="M332.2 495.6c.4.2.7.6.6.8-.2.2-3.8 2.3-8 4.5-4.3 2.3-8 4.1-8.3 4.1-.3 0-.5-.3-.5-.8 0-.4 1.9-2 4.2-3.6 2.4-1.6 5.8-3.5 7.7-4.1 1.9-.7 3.8-1 4.3-.9zm-33 1.2a6 6 0 0 0 3.8 1.2c1.4 0 3.9 1 5.5 2.2 1.6 1.2 3.3 2.7 3.7 3.3.4.5.8 1.6.8 2.3 0 .7-1 1.1-2.5 1-1.4-.2-2.5.2-2.5 1 0 .6-1.7 1.9-3.8 2.8-2 .8-5 1.8-9.7 2.5l2.5-2c1.4-1.2 4-2.4 5.8-2.6 1.7-.3 3.2-1 3.2-1.5 0-.6-.7-1-1.5-1s-2.6-1.2-4-2.8a9.5 9.5 0 0 1-2.6-5.2c0-2 .3-2.3 1.3-1.2zm52.3-.6c1.6 0 4 .3 5 .7 1.2.4 1.6 1 1 1.3-.5.3-3 .4-5.5.2l-6.5-.4c-1.7-.2-1.6-.3.5-1 1.4-.4 3.9-.8 5.5-.8zm-56 .9c.5 0 0 .8-1 1.8-1.1 1-3.7 2.3-5.8 2.7-2.3.4-3.6.4-3.2-.2a31 31 0 0 1 10-4.4zm69.7-.1c1.4 0 1.8.4 1.3 1-.6.4-5 3.2-10 6-5 2.9-9.7 5.7-10.5 6.4-.8.7-5.3 3-10 5.2-5.7 2.7-8.4 3.5-8.7 2.6-.2-.6-1.4-1.2-2.8-1.2s-3.9-1-5.5-2.3c-1.8-1.3-3-3-3-4.5 0-1.2.4-2.2 1-2.2s1.1.4 1.3 1c0 .5 2.2 1.2 4.7 1.5 2.5.3 5.5.9 6.8 1.3 1.2.4 2.5 1.3 2.7 2 .3.8 1.9 0 4.8-2.2A60.9 60.9 0 0 1 357 501c2.4-.7 4.8-1.9 5.2-2.6.4-.7 1.8-1.3 3-1.3zm-89.3 1.4c.6.3 2.6 3.2 4.3 6.4 1.8 3.1 4 6.4 5 7.2 1 .8 1.8 2 1.8 2.5s-1.1-.1-2.5-1.5-4-5-5.8-8a92 92 0 0 1-3.5-6.4c-.2-.5.2-.6.8-.2zm60.4-.3c.4 0 .7.2.7.6 0 .5-1.2 2-2.7 3.4a22.7 22.7 0 0 1-5.8 3.8c-1.6.7-4.3 1-5.8 1-2.6-.4-2-.9 5-4.6 4.3-2.3 8.1-4.2 8.6-4.2z"/><path class="shp0" d="M189.6 501.5c-.3 1.4-.4 3-.1 3.8.2.6 1.5 1.7 2.7 2.4 1.3.6 2.8.8 3.5.5.6-.4 1.4-2 1.7-3.4.4-2.1.2-3-1.2-3.4-1-.3-2.5-1-3.4-1.5l-2.2-.9c-.2 0-.7 1.1-1 2.5z"/><path class="shp2" d="M118.2 504.8c-2.5 2-4.3 4.3-4 5 .2 1 1.9.1 5-2.5 2.7-2 4.8-4.4 4.8-5 0-.7-.3-1.3-.8-1.3-.4 0-2.7 1.8-5 3.8z"/><path class="shp3" d="M224 502l-12.5.5a2220.9 2220.9 0 0 1-34.6 18.6c-1.4.6-2.6 1.5-2.7 2-.1.5.7.4 1.8-.1s3-1 4.3-1c1.2 0 4.9-1.4 8.2-3a998.6 998.6 0 0 0 20.8-11.1l3.7-1.9a188 188 0 0 1 24.8-1.6l22.7-.5c9.7 6.3 12.8 8.1 13.3 8.1.4 0 1.6.9 2.7 2 1.1 1 3 2 4.3 2.4 1.5.4 2.1.2 1.9-.6-.2-.7-2.8-3-5.8-5-3-2.1-7.4-5-9.9-6.5-4.2-2.5-5.3-2.7-17.5-2.7-7.2 0-18.6.1-25.5.4z"/><path class="shp0" d="M180.5 505.1a55 55 0 0 0-.9 4c-.5 2.3-.2 3.1 1.4 3.9 1.1.5 2.7 1 3.5 1 .8 0 2-.8 2.4-1.8a6 6 0 0 0 .5-3.7c-.3-1.1-1.8-2.5-3.5-3.2-1.8-.7-3.2-.7-3.4-.2z"/><path class="shp2" d="M285 506.8c0 .4 1.1 1.8 2.5 3.2 1.4 1.4 2.5 2 2.5 1.5 0-.6-.7-2-1.5-3.3-.8-1.2-2-2.2-2.5-2.2-.6 0-1 .3-1 .8zm-166.7 4c-2.4 2-4.3 4.3-4.3 5 0 .6.2 1.2.5 1.2a34.9 34.9 0 0 0 9.5-8.8c0-.6-.3-1.2-.8-1.2-.4 0-2.6 1.8-5 3.8z"/><path class="shp3" d="M130.8 513.8c-2.6 4-3.8 6.9-3.8 9.5 0 2.3.7 4.3 1.8 5.3 1.6 1.4 1.8 1.3 3-1.5 1-2.5 1-3.4 0-4.6-1-1.3-1-2 .2-4a6.9 6.9 0 0 1 3.5-3 5 5 0 0 1 3.8 1c1.5 1.3 1.8 1.3 2.2-.5.3-1.1 1-2 1.8-2a6 6 0 0 1 2.5.8c.8.4 1 1.4.5 2.5-.6 1.4-.3 2 1.5 2.5 1.3.4 2.5 1.6 2.8 2.7.3 1.2.9 1.6 1.4 1a44 44 0 0 0 2.9-5c1.6-3.2 1.8-4.3.8-5.3a27.4 27.4 0 0 0-7.5-4.2s0 .8.4 1.8c.3 1 .1 2-.5 2.4-.6.5-1.8.2-2.6-.5-1-.8-1.2-1.6-.6-2.2.7-.7 0-1.3-2.2-1.8-1.8-.4-4.3-.7-5.7-.7-2 0-3.4 1.3-6.3 5.8z"/><path class="shp0" d="M170 511.7l-.6 3.6c-.3 2.1.1 3 2.2 4 2.3 1 2.8 1 4-.8a7.8 7.8 0 0 0 1.4-3.8c0-1-.3-1.9-.8-2-.4-.3-2-.7-3.4-1-1.5-.4-2.8-.4-2.9 0z"/><path class="shp2" d="M118 517c-3 2.7-4.2 4.4-3.5 5 .6.6 2.5-.4 5.2-2.8 2.4-2 4.3-4.3 4.3-5 0-.6-.3-1.2-.8-1.2-.4 0-2.7 1.9-5.2 4z"/><path class="shp0" d="M211.8 515.5c-1.9 1-3.1 2.7-3.8 5.3-.5 2-.5 4.4 0 5.2.4.8 1.9 2.5 3.2 3.6a14 14 0 0 0 4.8 2.8c1.7.4 3.4 0 5.3-1.4 2-1.5 2.7-2.8 2.7-5.5 0-2.5-.6-4-2.3-5a9.7 9.7 0 0 0-4.4-1.5c-1.3 0-2.5.5-2.8 1-.3.6.8.9 2.5.8 1.9-.2 3.4.3 4 1.2.5.8 1 2 1 2.8 0 .6-.9 2.1-2 3.2a7.4 7.4 0 0 1-4.5 2c-1.8 0-3-.9-4-3-1-2-1.2-4-.8-5.6a9.5 9.5 0 0 1 4-4.5c1.8-1 3.3-2.1 3.3-2.4 0-.3-.8-.5-1.8-.5s-3 .7-4.4 1.5zm89.7 1c-1.6.8-3.8 3-4.7 4.7-1 1.8-2.2 5.3-2.7 7.8l-1.6 8c-.6 3.2-.5 3.4 1 2 .9-.8 1.6-3 1.5-4.8 0-1.7 1.4-6.1 3-9.7 2.4-5.2 3.6-6.6 5.8-7.1 1.5-.4 3.7-.1 5 .5a8.3 8.3 0 0 1 3.8 8.1c-.3.8-1.7 2.2-3.1 3-2 1.1-3 1.2-4.3.4-1-.6-1.8-2-2-3-.2-1 .4-2.5 1.2-3.1.9-.7 2-1 2.6-.8.7.3.7 1 0 2s-.6 1.7.1 2.3c.6.4 1.5 0 2-.8.4-.8.4-2.1 0-2.9a6 6 0 0 0-2.4-2.2 5 5 0 0 0-3.2-.4c-.8.3-1.8 2-2 3.8-.5 2.5-.1 3.7 1.7 5.5a6.5 6.5 0 0 0 5 2c1.4-.2 3.8-1.3 5.2-2.5 1.4-1.3 2.6-2.9 2.6-3.5 0-.7-.4-2.6-1-4.3-.5-1.6-2-3.8-3.5-4.8-1.4-1-3.5-1.7-4.8-1.7-1.2 0-3.6.7-5.2 1.5zm-63.7 3.1c1.1 2.2 2.5 5.6 3.1 7.6.6 2.1.9 4.3.6 4.8-.3.5-.8 1-1.3 1-.4 0-1.6-2.7-2.7-6-1.1-3.4-3-7.1-4.4-8.3-1.3-1.2-2.2-1.8-2-1.2l2.7 5.5a30 30 0 0 1 2.4 9c.2 3.5 0 4.5-1.2 4.5-1 0-1.7-1.5-2.1-5-.3-2.8-1.3-6.4-2.2-8-1-1.6-2.4-3.9-3.3-5-1-1-2-1.5-2.3-1.2-.3.4 0 1.3.7 2 .7.6 1.2 2.1 1.2 3.2s1.2 4.3 2.6 7c1.4 2.9 2.4 6.3 2.2 8-.2 1.5-.9 3-1.6 3.2-.7.2-1.2-.8-1.3-2.5 0-1.5-.6-4.3-1.4-6.2-1-2.5-1.5-3-2-2-.3.8-.2 4.5.4 8.3.6 3.7.9 7.2.6 7.7-.3.5-.8 1-1.3 1-.4 0-1.3-2.7-2-6-.8-4.1-1.7-6-2.7-6-1 0-1.3.6-1 1.8.4 1 1.1 4.9 1.7 8.7.6 3.9.8 7.8.5 8.8-.4 1-1 1.7-1.4 1.7-.5 0-1.4-4.1-2.1-9.2-.7-5.1-1.9-9.9-2.5-10.6-.7-.7-1.5-1.3-2-1.2-.4 0-.3.8.2 1.8s1.3 4.6 1.9 8.2c.6 3.6.8 9.4.6 13a212.3 212.3 0 0 1-3.3 25.5 98.1 98.1 0 0 0 1.7 31.5c.8 3 2.7 6.8 4.1 8.3 2.5 2.7 3 2.8 16.1 3.6 7.4.4 23 .6 34.5.4a162 162 0 0 0 21.6-1c.4-.4 1-3 1.2-5.8l.5-5c-10.3-.2-15-.4-17-.6-2.2-.3-3.8-1-3.8-1.6 0-.7 1-2 2.3-2.7 1.7-1 3.1-1.2 6.2-.4l7.5 1.5c3.2.5 3.6.3 4.8-2.6.6-1.7 1-3.6.7-4.1-.3-.6-1.6-.4-3.3.5-1.7 1-4.3 1.4-7.2 1-2.5-.2-6-.7-7.8-1.2-1.8-.4-3.2-1.4-3.2-2 0-.7.6-1.5 1.3-1.7.6-.1 2.3 0 3.7.6 1.4.4 2.6.7 2.7.6 0-.2-2-1.5-4.8-3L270 597c.4 6.8 0 8.4-.8 8.6-.7.3-1.6-1.1-2.1-3.4-.6-2.4-.6-4.7.1-6.7.6-1.6 2-4.1 3-5.5 1-1.4 1.8-3.2 1.8-4 0-.8.9-3.8 2-6.5 1.2-2.8 1.9-5.6 1.6-6.3-.3-.6-2.2-1.9-4.1-2.7-2-.8-4.2-2.6-5-4-.8-1.4-1.3-3.2-1-4 .3-.8.8-1.5 1.3-1.5.4 0 1.1 1 1.7 2.2.6 1.3 3 3.3 5.3 4.5 3.8 2 4.2 2.6 4.2 6a46.7 46.7 0 0 1-5 17c-.9 1.2-1.2 2.6-.8 3 .4.4 1.6 0 2.5-.8 1-1 3.6-2 5.8-2.3 2.2-.3 5.5-.1 7.3.4 3 1 3.3.8 4.3-1.8.5-1.5 1.2-6.5 1.4-11.2a60 60 0 0 0-.6-12.5c-1-3.8-1-4-2.7-2.2-1 1-2.8 1.7-4.2 1.5-1.4-.2-2.5-1-2.5-1.8 0-1 .8-1.4 2.3-1.3 1.8.3 2.1-.2 2-2-.2-1.2-1-2.3-2-2.4-1-.2-3.7 1.5-6 3.8-3.1 3-5 4-6.8 3.7-1.7-.2-2.6-1-2.8-2.5-.2-1.9.9-2.8 6-5.4 4.7-2.3 7.2-3 9.8-2.6l3.5.5c-.1-15.7.4-22.7 1.2-25.5.7-3 2.2-6.9 3.3-8.8 1.1-2 2-3.7 2-4 0-.3-.6-.3-1.3 0-.6.2-2.4 3-4 6a28 28 0 0 0-2.7 7.3c0 1-.3 3.2-.7 5-.5 1.8-1.4 3.2-2 3.2-.8 0-1.3-1.5-1.3-4 0-2.2.9-6.4 2-9.3l2-5.2c-3.2 3.9-4.6 7-5 9.3-.7 2.7-1.6 4.2-2.5 4.2-.8 0-1.5-.9-1.5-2 0-1.3-.6-2-1.8-1.8-1.2.2-1.6-.3-1.4-2 0-1.2-.3-2.2-.8-2.2-.6 0-1.2.9-1.5 2-.3 1.1-1.2 2-2 2-1 0-1.3-.6-.9-2.3.6-2.1.6-2.1-1.5.3s-2.2 2.4-3.4.6c-.6-1-2-2.8-3-3.8s-2-1.6-2.4-1.3c-.5.3-.2 1 .5 1.8.7.6 1.2 1.8 1.2 2.5 0 .6-.7 1.2-1.5 1.2s-2.3-1.6-3.3-3.6-2.4-4-3.2-4.5c-.8-.5-1.7-.6-2-.4-.3.3.3 2.2 1.2 4.3 1 2 1.5 4 1 4.6-.4.4-1.3.5-2 .2a2.5 2.5 0 0 1-1.2-2.1c0-.8-.9-2.9-2-4.5s-2.7-3-3.5-3c-1 0-1.3.6-.9 1.8l1.7 4.2c.6 1.4.7 3.4.3 4.5-.8 1.9-.9 1.9-1.8-.5-.6-1.4-2-4.5-3.2-6.8a15 15 0 0 0-4-5.4c-1.7-1-1.7-.8.2 2.9z"/><path class="shp2" d="M329.5 521l-9 3.4c-1.1.4-1.7 1-1.2 1.4a48.7 48.7 0 0 0 16.7-6.4c.8-.8 1.2-1.4 1-1.3-.3 0-3.6 1.3-7.5 2.9zm-211.3 2.8a20 20 0 0 0-4.2 4.5c0 .4.6.7 1.3.7.6 0 2.6-1.3 4.2-2.8 1.7-1.5 3.3-3.5 3.5-4.5.3-1 .3-1.7 0-1.7a33 33 0 0 0-4.8 3.8z"/><path class="shp0" d="M92 594.5V667h50a204.1 204.1 0 0 0 20.3-31.8l7.2-14.3a57.6 57.6 0 0 0-3.6-9.4c-.4-.5-1-3-1.3-5.5a126 126 0 0 0-1.1-7.5c-.3-1.6 0-8.4 1-15 .8-6.6 1.2-14.3 1-17a79 79 0 0 0-1-7.5 9 9 0 0 0-1.5-3.5c-.6-.7-2-.5-4.2.4-2.8 1.1-3.7 1.1-6.1 0a9.8 9.8 0 0 1-4.3-5.4 17 17 0 0 1-1-8.3c.5-3.2.3-4.3-.9-4.7a49.6 49.6 0 0 1-12.3-2.6c-5.5-1.7-6.8-1.9-7.4-.8-.3.8-.4 21.2-.2 45.4.3 30.3.1 45.6-.6 49a44 44 0 0 1-10 19.8l-3.5 3.7c-3.5-3.9-4.5-5.5-4.5-6s-.3-1-.8-1c-.4 0-1.9-2-3.3-4.7-1.5-2.6-3-6.8-3.4-9.3-.4-2.5-.8-27.2-1-55l-.3-50.5c-3.6-2.7-5.3-3.5-6-3.5-1 0-1.2 15.1-1.2 72.5z"/><path class="shp2" d="M118.3 530a18.1 18.1 0 0 0-4.3 5c0 .5.5 1 1 1s2.8-1.7 5-3.8c2.2-2 4-4.3 4-5 0-.6-.3-1.2-.8-1.2-.4 0-2.6 1.8-5 4z"/><path class="shp3" d="M141.7 528.5c-.3 1.7 0 3.3.6 3.7.7.4 1.8.8 2.4.8.7 0 2-1.1 2.8-2.5 1.4-2.4 1.4-2.5-.8-2.5-1.2 0-2.7-.5-3.4-1.2-.9-1-1.2-.6-1.6 1.7z"/><path class="shp0" d="M187 527.1c-1.4.6-3.7 2.5-5.2 4.2-2.2 2.6-2.7 4.2-2.8 8.5 0 4.6.4 5.6 3.5 8.7 2.1 2.1 4.5 3.5 6 3.5 1.4 0 3.5-.5 4.8-1.1 1.2-.6 3.2-2.1 4.5-3.3 1.6-1.5 2.2-3.2 2.2-5.9 0-2-.3-4.4-.8-5.3a9.2 9.2 0 0 0-3.7-3.1c-1.8-1-4.3-1.3-6.3-1-1.8.4-3.3 1.4-3.5 2.3-.2.9-.4 3.1-.5 5-.1 2.3.5 4 1.8 5.4 1.7 1.7 2.3 1.8 4.5.8 1.3-.7 2.6-2.2 2.8-3.3a7 7 0 0 0-.4-3.8c-.5-1-1.3-1.7-1.9-1.7-.6 0-.8 1.3-.5 3 .3 2 0 3-.8 3-.6 0-1.8-.5-2.5-1.2s-1.2-2-1.3-2.8c0-.8.8-2.3 1.8-3.2 1-1 2.8-1.8 4-1.8 1.3 0 3 1 3.8 2.3a9.8 9.8 0 0 1 1.5 4.7c0 1.4-.6 3.3-1.3 4.2a11 11 0 0 1-4.2 2.8c-1.7.6-4.2.9-5.8.5-1.5-.3-3.1-1.4-3.7-2.5a21 21 0 0 1-1-7c0-4.2.4-5.4 2.8-7.5a8.6 8.6 0 0 1 6.2-2.5 22.1 22.1 0 0 1 15.2 8c1.8 2.3 3.3 5.8 4.1 10 1 4.6 1 9.2.5 15.5a97 97 0 0 1-2 13c-.6 2.3-1 10.4-.9 19 .1 8.3.8 17 1.4 19.5a46 46 0 0 0 5 11l-2.3-7.3c-2.3-6.5-2.5-8.7-2.4-22.2a109 109 0 0 1 3-28.5l1-10a53 53 0 0 0-3.1-19.5 22 22 0 0 0-4.9-6.3c-2-1.7-4.7-3.7-6.1-4.2a19.7 19.7 0 0 0-12.5.1zm-8.8 2.1a16.8 16.8 0 0 0-3.2 5.8c-.5 2-1 4.7-1 6.3 0 1.5.3 2.9.8 3.1.4.2.8-1.5.9-3.8a26 26 0 0 1 1.4-7.1c.7-1.6 1.9-3.8 2.7-4.8.8-1 1.2-1.7 1-1.7-.3 0-1.4 1-2.6 2.3zm-6.3.3a17 17 0 0 0-3.1 5.2c-1.1 2.7-1.3 4.7-.7 6.8.5 1.6 1.4 3.5 2 4 .6.7 1-.8 1-4.5-.1-3.3.6-7 1.7-9.3 1-2 1.6-3.7 1.3-3.7a7 7 0 0 0-2.2 1.5zm-6.7.8c-.6.6-1.3 3-1.6 5.2-.3 2.2-.3 3.3 0 2.5l2.4-5.3c.9-2 1.3-3.7 1-3.7-.5 0-1.2.6-1.8 1.3zm-6 4.4c-.7 2.3-.9 5.1-.4 7.2a10 10 0 0 0 2 4.5c1 .9 1 .3 0-2.9-1-2.7-1.2-5.3-.7-7.9.4-2.1.7-4 .6-4.3-.2-.3-.8 1.2-1.5 3.4z"/><path class="shp2" d="M117.7 536.9c-2.3 2-3.8 4-3.2 4.4.5.3 3-1.2 5.3-3.4 2.3-2.1 4.2-4.1 4.2-4.4 0-.3-.5-.5-1-.5-.6 0-3 1.7-5.3 3.9z"/><path class="shp0" d="M301 536.6c-1.6.6-4 2.8-5.4 4.8-1.6 2.2-2.6 5-2.6 7.1 0 2 .7 7 1.6 11.3a107.6 107.6 0 0 1 1 33.2c-.6 4.7-.6 6.2.2 5.5.6-.6 1.6-8.3 2.1-17.5.6-9 1.4-17.4 1.7-18.5.4-1.2-.1-3.1-1.3-5-1.1-1.6-2.3-4.2-2.7-5.8-.3-1.5-.2-4.5.4-6.7.7-2.7 2-4.7 4-6 2-1.3 4.7-2 8-2 4.2 0 5.5.5 8 3 2 2 3 4 3 6 0 1.6-.7 4.4-1.5 6-.8 1.6-2.4 3.5-3.5 4s-3.6 1-5.5 1c-2.7 0-4-.7-5.5-2.8-1.1-1.5-2-4-2-5.5a7 7 0 0 1 1.5-4.2c.8-.8 2.7-1.8 4.3-2.1 1.5-.4 3.4-.2 4.2.3 1 .6 1.5 2.6 1.5 5 0 3.6-.2 3.8-3.3 4-2.6.3-3.1 0-3-1.5.3-1.1 1.1-1.6 2.6-1.5 1.8.3 2.1-.1 1.7-1.7-.3-1.2-1.3-2-2.5-2-1.1 0-2.4.9-3 2a4.2 4.2 0 0 0 0 4 7.9 7.9 0 0 0 3 3c1.4.7 2.7.6 4.5-.5a7.4 7.4 0 0 0 3-4.3c.4-1.5.1-4-.4-5.5-.8-2-2-2.9-4.4-3.3-1.7-.3-4.6-.3-6.2 0-2.2.4-3.4 1.5-4.4 3.8-.9 2-1.2 4.7-.8 6.8.4 2 1.9 4.6 3.7 6.3 2.2 2 4 2.7 7 2.7s4.8-.7 7-2.8c1.8-1.5 3.6-4.3 4.1-6.2.6-2 .8-4.9.4-6.5-.4-1.6-1.2-3.6-1.9-4.4a18 18 0 0 0-18.7-3.5z"/><path class="shp2" d="M118.3 542.3a23.6 23.6 0 0 0-4.3 5c0 .4.6.7 1.3.8.6 0 2.9-1.8 5-4 2-2.3 3.7-4.6 3.7-5.1s-.3-1-.8-1c-.4 0-2.6 2-5 4.3z"/><path class="shp0" d="M203.4 541.6c.2 1.6 1 5 1.6 7.4.7 2.6 1 7.5.6 11.5a359.3 359.3 0 0 1-3.1 26c-.4 2-.2 2.7.5 2 .6-.5 1.4-3.7 2-7l2-12c.5-3.3 1-9.1 1-13 0-3.9-.7-9.1-1.5-11.8-.8-2.6-2-5-2.6-5.3-.6-.5-.8.4-.5 2.2z"/><path class="shp1" d="M258.4 544c-1.6 1.8-1.4 1.8 4.7 1.5 3.5-.1 7 .1 7.9.6.8.4 2 .5 2.8 0 1-.5 1-1-.4-2.1-1-1-4-1.6-7.5-1.7-4.5-.1-6.2.3-7.5 1.7z"/><path class="shp2" d="M118 548.6c-2.5 2-4.4 4.2-4.2 5 0 .8.5 1.4 1 1.4a23 23 0 0 0 5-4.2c2.3-2.4 4.2-4.6 4.2-5 0-.5-.3-.8-.8-.8-.4 0-2.7 1.6-5.2 3.6z"/><path class="shp0" d="M151 546c-.1.8-.2 2.2 0 3 0 .8 1.1 2.3 2.3 3.3 1.2 1 2.5 1.8 3 1.7.4 0-.4-1.2-1.8-2.8a12.6 12.6 0 0 1-2.9-4.7c-.2-1.3-.4-1.4-.6-.5zm49.7 3c-.4.8-.6 5.1-.5 9.5 0 4.4-.2 10.7-.6 14-.4 3.3-1.3 8.7-2 12a91 91 0 0 0 .4 29.5 48 48 0 0 0 2.8 7c1.3 2.4 1.4 2.4.7-1l-1.6-7.5a85 85 0 0 1-1.1-12.5 197 197 0 0 1 2.2-25 68.5 68.5 0 0 0 1.3-22c-.6-3.2-1.2-4.9-1.6-4z"/><path class="shp1" d="M249.7 548.8c-.4.4-.4 1-.2 1.5.3.4 1.8.7 3.5.7 1.9 0 3.5.7 4.3 2 1 1.5 2.3 1.8 6.7 1.8 3 0 6.9-.7 8.5-1.5a8.7 8.7 0 0 1 5-1c1.1.4 2.6 0 3.3-.6.7-.7 1.3-1.7 1.2-2.3 0-.8-4.8-1.2-15.8-1.3-8.8 0-16.2.2-16.5.6z"/><path class="shp2" d="M118.2 554.8c-2.3 2-4.2 4.5-4.2 5.5s.2 1.7.5 1.7 2.5-2 5-4.3c2.4-2.3 4.5-4.8 4.5-5.5 0-.6-.3-1.2-.8-1.2-.4 0-2.6 1.7-5 3.8z"/><path class="shp0" d="M176.8 554c.4 1.4.7 7.5.7 13.5s-.3 17.3-.8 25c-.4 9-.3 15.5.3 18 .6 2.2 1.2 3.8 1.3 3.5.2-.3 0-4.8-.4-10-.4-6.2-.2-13.3.7-20.5.8-6 1.4-14 1.3-17.5 0-4.2-.7-7.9-2-10.5-1-2.2-1.6-2.9-1.2-1.5zm5.7 14.5c0 8.5.3 14.6.6 13.7a112 112 0 0 0 2.5-23.7 8.8 8.8 0 0 0-1.8-4.2c-1-1-1.3 1.7-1.3 14.2zm12-8.8c.1 3.8-.2 8.4-.6 10.3-.5 2-1.2 7.1-1.6 11.5-.5 4.4-.8 13.2-.8 19.5 0 9.6.4 12.3 2.3 16.5 1.2 2.8 2.5 4.8 2.7 4.5.3-.3-.2-2.5-1.2-5a51.3 51.3 0 0 1-1.8-18.5c0-8.2.5-15.5 1.2-17.5.6-2 1.5-6.4 1.9-10 .4-3.6.7-8.3.7-10.5a22 22 0 0 0-.6-5.8c-.4-1-1.1-1.7-1.6-1.7s-.8 3-.7 6.8z"/><path class="shp1" d="M239.8 554.5a9.3 9.3 0 0 0-3.8 4.3c-.9 2.2-.7 3 1 4.7 1.5 1.5 2.4 1.8 3.7 1 .9-.5 1.8-1.7 2.1-2.5.5-1.2 0-1.3-1.6-.8-1.9.7-2.2.5-2-1.5.3-1.7 1-2.3 3.6-2.5 2.4-.1 4.4.8 8.4 3.8 3 2.3 6.4 4 7.8 4 1.4 0 3-.6 3.8-1.5.6-.8 1-2.3 1-3.3-.2-1-1.3-1.7-2.8-1.8a36 36 0 0 1-12.5-4.1 8.5 8.5 0 0 0-4-1.3c-1.1 0-3.2.7-4.8 1.5z"/><path class="shp0" d="M172.5 569c0 7.7.2 14 .5 14s.8-2.1 1.3-4.7c.4-2.7.7-8 .7-11.8 0-3.9-.6-8-1.3-9.2-1-1.8-1.2.3-1.2 11.8zm16.2-4.8l-1.1 14.5c-.3 3-.3 5.3.2 5.3.4 0 1.3-4.1 2.1-9.2s1.5-11.1 1.6-13.3c.1-2.2 0-4.6-.2-5.3-.1-.6-.7-1.2-1.2-1.2s-1.1 4.2-1.4 9.3zm-20.8 3.3l-.3 15.3c0 2.4.1 4.5.4 4.7.3.2.8-2.4 1.3-5.8.4-3.4.7-9.8.7-14.2 0-4.4-.5-8.7-1-9.5-.7-1-1 2-1.1 9.5z"/><path class="shp2" d="M118.1 561.8c-2.4 2-4.2 4.3-4 5 .3 1 2 0 5.2-2.7 2.6-2.3 4.7-4.6 4.7-5.1s-.3-1-.8-1c-.4 0-2.7 1.7-5 3.8z"/><path class="shp1" d="M347.4 563.5l2.5 7.8c1.2 3.1 2.4 8.5 2.7 12l.7 6.2c-4.6-6.2-7.9-9-10.3-10.2a22.1 22.1 0 0 0-9-2.3c-2.5 0-6.3.9-8.5 1.9a23.4 23.4 0 0 0-11.1 11.9 21.8 21.8 0 0 0 .9 17.2c1.3 2.6 4 5.7 6.5 7.5 3.6 2.5 5.6 3 11 3.3 5.2.3 7.6-.1 10.7-1.7 2.2-1.1 4.1-2 4.3-1.8 0 .1-1.6 1.7-3.8 3.5-2.2 1.7-5 5.1-6.1 7.5a23.4 23.4 0 0 0-2.2 9.2c0 3.5.7 6.4 2.4 9.5 1.3 2.4 4.3 5.8 6.7 7.5a17 17 0 0 0 10.5 3.4 25.3 25.3 0 0 0 19.4-7.4 21 21 0 0 0 5.3-13 30 30 0 0 0-1-6.5c-.6-2-2.4-5.2-4-7.3l-3-3.7c5 1.5 7.9 2 9.5 2 1.6 0 5-1 7.5-2 2.5-1.2 5.6-3.1 6.9-4.3 1.2-1.2 3.2-4 4.4-6.2 1.3-2.6 2-5.9 2-9.5 0-3-.7-7-1.5-9a24 24 0 0 0-10.3-10.8c-1.7-1-5.4-1.6-8.5-1.6-3.7 0-6.9.7-9.8 2.2a24.5 24.5 0 0 0-7.4 6.8c-3 4.3-3.3 4.4-3.6 2.3-.2-1.3.4-5.3 1.2-8.9a77.5 77.5 0 0 1 5.6-16.5c0-.3-4.8-.6-10.6-.8-10-.2-10.5-.1-10 1.8z"/><path class="shp2" d="M118.1 567.7c-2.6 2.3-4.1 4.5-4 5.5.3 1.4 1.4.8 5.4-2.7 3.5-3 4.7-4.7 4-5.4-.8-.8-2.3 0-5.4 2.6z"/><path class="shp1" d="M253.1 569.5c-1.4 1-2.3 2.5-2.3 3.8 0 1.2 1 3.3 2 4.7 1.1 1.4 2.3 2.3 2.7 2 .3-.3.2-2-.4-4-.5-2-.7-3.8-.4-4.3.4-.4 1.1-.7 1.7-.7.6 0 2.5 1 4.1 2.5 1.6 1.4 3.5 2.5 4 2.5.6 0 1.6-.6 2.3-1.3.7-.6 1.2-1.8 1.2-2.5 0-.6-1.7-1.6-3.8-2.1l-6.2-1.6c-1.5-.3-3.4 0-4.9 1z"/><path class="shp2" d="M118.3 574.8c-2.4 2-4.3 4.3-4.3 5 0 .6.5 1.2 1 1.2s2.6-1.7 4.5-3.8c2-2 3.5-4.3 3.5-5 0-.6-.1-1.2-.3-1.2l-4.4 3.8zm-.5 6.7c-2.1 2-3.8 4-3.8 4.5s.4 1 1 1a19 19 0 0 0 5-4 29 29 0 0 0 4-4.5c0-.3-.6-.5-1.3-.5-.6 0-2.9 1.6-5 3.5zm.2 6.3c-2.6 2.2-4 4.2-3.7 5 .5.8 2.1-.1 5.2-3 2.5-2.4 4.5-4.6 4.5-5 0-.5-.4-.8-.9-.8a22 22 0 0 0-5.1 3.8z"/><path class="shp0" d="M182 585.3l-.5 11.2c-.3 6 0 12.4.4 14 .6 2 .9-1.6.9-11.3 0-7.8-.2-14.2-.4-14.2s-.4.1-.5.3z"/><path class="shp1" d="M279 586.2c-1.3.6-2.3 1.5-2.2 2 .1.4.8.8 1.4.8.7 0 2-.4 2.8-1 .9-.5 2.1-.5 3 0 .9.5 2.1.5 3 0 1.3-.9 1.3-1.1 0-2a7 7 0 0 0-3.5-1c-1.1.1-3.1.6-4.5 1.2zm-36.5 1c-1.8 1.1-1.6 1.3 2 2 2.2.3 4.4.2 5-.3.6-.5 0-1.2-1.8-1.9l-3-1-2.2 1.2z"/><path class="shp2" d="M117.9 594c-3 2.7-4 4.3-3.4 5 .7.7 2.2-.2 4.8-2.8 2.2-2 3.7-4.2 3.4-4.9-.3-.6-2.2.4-4.8 2.8z"/><path class="shp1" d="M233 593.3c-1.8.7-4 2.2-4.7 3.3-1.2 1.7-1 2.3 1.4 5.3 1.5 1.8 3.6 3.8 4.6 4.2 1 .5 3.2 1.1 5 1.4 1.7.2 6.2-.5 10-1.5 3.7-1.1 6.7-2.5 6.7-3s-1.1-1.2-2.5-1.5l-2.5-.5 5.3-6.5a62 62 0 0 0-12.8-2c-4.4-.4-8.3 0-10.4.8z"/><path class="shp0" d="M202 593.8a131.8 131.8 0 0 0 1 18c.6 3.4 1.5 6.5 2.2 7 .9.5 1-.5.3-4.3-.5-2.8-.8-6.4-.7-8 0-1.6 0-5.4-.3-8.3-.2-2.8-.9-5.2-1.4-5.2-.6 0-1.1.3-1.2.8zm74 .9c-.8.2-1.3.9-1.2 1.4.1.5 1.2 1.5 2.4 2.3 2.2 1.2 2.3 1.2 2.3-1.5 0-1.6-.4-2.9-1-2.8-.6 0-1.6.3-2.4.6zm9.9-.2v1.8c0 .4-.5 1.4-1.1 2.2-1 1.3-1 1.6.2 1.6.8 0 2.2-.7 3-1.6 1.3-1.4 1.3-1.8-.3-3.3-1-1-1.8-1.3-1.8-.7zm-52.4 1.2c-1 .2-1.9.9-1.7 1.4 0 .5 1.1 1.4 2.2 1.9 1.5.8 2.1.6 2.5-.5.3-.8.5-2 .5-2.5s-.3-1-.8-.9l-2.7.6z"/><path class="shp1" d="M448.5 595.8c-.2.4.5 3 1.5 6 1.1 2.8 2 6.1 2 7.2 0 1.9-.2 1.9-3-.5a16.7 16.7 0 0 0-6.7-3.1c-2.7-.4-4.8 0-7.3 1.3-1.9 1-4.5 3.4-5.8 5.3-1.3 2.1-2.2 5-2.2 7.3 0 2 .6 4.9 1.3 6.3.6 1.4 2.8 3.5 4.7 4.6 2.6 1.6 4.8 2 8.6 1.7l5.2-.4a22 22 0 0 0-5.2 8c-.4 1.7-.3 4.5.3 6.5.5 2 2.4 4.7 4 6.3 1.7 1.5 4.8 3 6.9 3.3a16.3 16.3 0 0 0 14.2-5.4c1-1.5 2.2-4.3 2.6-6.2.3-2 0-5-.8-7.1l-1.3-3.6c6.2-1 9-2 10.3-2.8 1.2-.8 3.1-3 4.2-4.8 1.1-1.8 2-5 2-7.2a16 16 0 0 0-2-7.3 15 15 0 0 0-5-4.7 16 16 0 0 0-6-1.5 16 16 0 0 0-6 1.5c-1.6.8-4 2.7-5 4.3-2 2.6-2 2.6-2 .5 0-1.3.9-5.1 2-8.5 1-3.5 1.8-6.3 1.7-6.4l-6.5-.7c-3.5-.3-6.5-.2-6.7.1zm-409.5.7c0 .3.6 2 1.4 3.8a43 43 0 0 1 2 7.7l.8 4.5a37.4 37.4 0 0 0-7-5.4c-1.2-.6-3.7-1.1-5.5-1.1-1.7 0-4.8 1-6.7 2.2a18 18 0 0 0-5.4 6.3c-1.3 2.7-1.7 5-1.2 7.3.3 1.7 1.7 4.6 3.1 6.2 1.5 1.8 4.1 3.4 6.5 4 2.2.5 5.2.7 6.8.4 1.5-.4 3.4-1.2 4.2-1.8.8-.5.3.3-1.1 2-1.5 1.6-3.2 4-3.8 5.1A14 14 0 0 0 32 643c0 1.6.6 4.2 1.4 5.8.7 1.5 2.4 3.4 3.7 4.3 1.3 1 4 2 5.9 2.4 2 .4 5 .3 7-.3s5-2.7 6.8-4.6c2.6-2.9 3.2-4.5 3.2-7.9 0-2.3-.8-5.6-1.8-7.2l-1.9-3c4 .6 6.9.2 9-.4 2.3-.7 4.7-2.5 6.5-4.8a12 12 0 0 0 2.7-8.4c0-3.2-.7-5.6-2-7.5a19.8 19.8 0 0 0-5.5-4.6 10.5 10.5 0 0 0-7-1.3c-2 .3-5.3 2-7.5 3.9l-4 3.3a53.1 53.1 0 0 1 4.5-16.2c0-.3-3.1-.5-7-.5s-7 .2-7 .5z"/><path class="shp2" d="M118.3 600c-2.4 2.2-4.3 4.7-4.3 5.5 0 .8.4 1.5.9 1.5s2.7-2 5-4.3 4.2-4.8 4.1-5.5c0-.6-.3-1.2-.8-1.2-.4 0-2.6 1.8-5 4z"/><path class="shp0" d="M244.5 598.5c.3 1.4 0 3.3-.7 4.3s.5.1 2.5-1.8c2.6-2.5 3.3-3.7 2.4-4.2a7 7 0 0 0-3-.8c-1.3 0-1.6.6-1.2 2.5zm-77.2 1.8c-.1 1.7.2 5.3.7 8 .6 2.6 1.3 4.9 1.8 5 .4.3.4-1.4 0-3.7-.4-2.2-.7-6-.8-8.4 0-2.3-.3-4.2-.8-4.2-.4 0-.8 1.5-1 3.3zm19 6a37 37 0 0 0 1.2 9.5c.8 2.8 2 5.2 2.5 5.2.6 0 .7-1 .4-2.3L189 613c-.5-2-1-5-.9-6.7 0-1.8-.3-3.4-.8-3.7-.5-.3-1 1.3-1 3.7z"/><path class="shp2" d="M118.5 606.8c-2.4 2.3-3.8 4.6-3.7 5.7.2 1.6 1.1 1 4.7-3 2.5-2.8 4.5-5.3 4.5-5.8 0-.4-.4-.7-.8-.7a20 20 0 0 0-4.7 3.8zm-.5 6.5a18.2 18.2 0 0 0-4.2 5c.1.4.8.7 1.5.8.6 0 2.9-1.8 5-4 2-2.3 3.7-4.6 3.7-5.1s-.4-1-.8-1-2.8 2-5.2 4.3z"/><path class="shp1" d="M249.5 610.7c-1.1.3-2.4.9-3 1.3-.6.5-3.3 1.1-6 1.5a21 21 0 0 1-9.3-.6c-3.3-1.1-4.5-1.1-5.5-.2-1 1-.3 1.5 2.8 2.9 2.2.9 6 1.9 8.5 2.1 2.6.3 7.7-.2 12-1.2 4.1-.9 8.2-1.9 9-2.2 1.2-.3 1-.9-1-2.4-1.4-1.1-3.2-2-4-1.8-.8 0-2.4.4-3.5.6z"/><path class="shp2" d="M118.3 620a18.3 18.3 0 0 0-4.3 5c0 .5.3 1 .8 1a22 22 0 0 0 5-3.7c2.3-2 4.2-4.4 4.2-5 0-.7-.3-1.3-.8-1.3-.4 0-2.6 1.8-5 4zm.1 5.8c-2.2 2.2-3.7 4.6-3.6 5.7.1 1.8.6 1.5 3.8-1.5 2-2 4-4.3 4.5-5.3s.5-1.9 0-2.2c-.5-.2-2.6 1.3-4.7 3.3zm-.3 6.5c-1.8 1.7-3.1 3.8-3 4.5.3.8 1.7.1 4.1-2 2-1.8 3.7-3.9 3.8-4.5 0-.7-.4-1.3-.8-1.3a15 15 0 0 0-4.1 3.3z"/><path class="shp3" d="M167 634.7c-2.3 2.6-2.3 2.6-.3 1 1.3-1 4-1.7 6.3-1.7 3 0 4.6.6 6.5 2.8 1.4 1.5 2.6 3.3 2.5 4 0 .6.7 1.4 1.5 1.7.8.3 2.7-.4 4.3-1.5 1.8-1.4 4.5-2.1 8.5-2.3 5.5-.2 6 0 8.8 3 1.6 1.8 2.9 4 2.9 4.8 0 .8 1.2 1.8 2.8 2.1 2.2.6 3.1.1 5.2-2.3 1.4-1.7 3.5-3.5 4.8-4.2 1.2-.6 3.8-1.1 5.7-1.1 2.6 0 4.5.9 7 3.3 2 1.7 3.8 3.9 4 4.7.4 1 1.5 1.4 3.8 1 1.9-.1 4-1.3 5.2-2.8 1.1-1.4 3.3-3.1 5-3.8 2.6-1.2 2.7-1.3.8-1.4-1.3 0-3.5.8-5 1.7-1.6 1-3.3 2.4-3.8 3.2-.6.8-1.6 1.1-2.3.8a2.6 2.6 0 0 1-1.2-2.2c0-.8-2-2.4-4.3-3.5a26 26 0 0 0-11-2c-6.3 0-7 .2-9.8 3-1.6 1.6-3.2 2.8-3.7 2.6-.4-.2-1-1.8-1.4-3.5-.7-2.6-1.5-3.3-5-4.2-2.4-.6-6.6-1.2-9.5-1.3-4 0-5.6.4-7.5 2.1a9.7 9.7 0 0 1-3 2.3c-.5 0-1.4-1.2-2.2-2.8-.7-1.5-3-3.5-5-4.5s-4.7-1.7-6-1.7c-1.2 0-3.3 1.2-4.7 2.7z"/><path class="shp2" d="M117.6 637.8a6 6 0 0 0-1.4 4.2c.3 2.4.4 2.3 2.5-1.3 1.3-2 1.9-4 1.4-4.2-.5-.2-1.6.3-2.5 1.3zm51.7-.1c-.7.3-2 1.8-2.8 3.4-1.1 2.1-2 2.8-3.5 2.4-1.1-.3-2 0-2 .5s.4 1.2 1 1.5c.6.3 1 3.7.8 7.8-.1 4 0 7.8.5 8.5.5 1 1.3.9 3.4-.3 1.6-1 4.6-4 6.8-7.1 4-5.5 4-5.5 8-5 2.2.4 4 .8 4.2 1l.7 5.4c.3 2.8 1.3 6.6 2.1 8.2.8 1.6 2.3 3 3.3 3s3.3-1.8 5.3-4.2a46 46 0 0 0 5-7c1.3-2.7 1.7-2.8 6.4-2.3 2.8.4 5.5.8 6 1 .6.3 1.2 1.5 1.3 2.7 0 1.3.8 4 1.7 6 1.4 3.7 1.7 3.8 6.5 3.8h5c4.1-9 5.6-11 6.8-11 1.4-.1 1.3-.4-.6-1.8-1.3-1-2.3-2.7-2.3-4 0-1.3-.9-2.8-2.4-3.7-1.4-.8-3.7-1.5-5.3-1.5a8 8 0 0 0-4.3 1.2c-.8.7-2.3 2.5-3.2 4-1.3 2.2-2.4 2.8-5 2.7-1.7 0-4.3-.4-5.6-.8-1.5-.4-2.8-1.8-3.5-3.8-.6-1.8-1.7-3.8-2.4-4.5-.7-.8-3-1.2-5.5-1-3.2.1-4.7.8-6.4 3-2.2 2.7-2.2 2.7-6.8 1.2-3.4-1.1-4.5-2-4.5-3.5 0-1.1-1-3-2.2-4.2-1.3-1.3-3-2.2-3.8-2.2-.8 0-2 .3-2.8.6z"/><path class="shp3" d="M279 642a9 9 0 0 0-4 3.5c-.8 1.4-2 2.5-2.8 2.5-.6 0-1.6-1-2-2.3a6 6 0 0 0-2.6-3c-.9-.4-2.8-.7-4.4-.7-2.7 0-2.7 0 1.8 4.5 3.2 3.2 5.3 4.5 7.3 4.5s3.3-1 5.2-4c1.7-2.7 3.6-4.3 5.8-5 2.7-.7 2.8-.8.7-.8-1.4 0-3.6.4-5 .8zm12.5 0c1.1.3 3.2 2.2 4.7 4 1.7 2.1 2.8 2.9 2.8 2 0-.8-.9-2.7-2-4.3-1.4-1.8-2.9-2.7-4.8-2.6-2.3 0-2.4.1-.7.8z"/><path fill-rule="evenodd" class="shp2" d="M286.8 645.1c.6 0 2.3.4 3.7.9 1.5.6 2.9 2.3 3.5 4.3 1 3 1.3 3.1 4 2.5 1.6-.5 3-.5 3 0 0 .4-1.3 1-3 1.5-2.7.6-3 1.2-3.6 5.5-.3 2.6-.8 5.3-1 6-.3.7-2.2 1.2-5.1 1.2-4.5 0-5-.2-6.6-3.5-1-2-1.7-4.2-1.7-5 0-.8-.4-1.7-1-2-.6-.3-1.7.2-2.5 1-.9.9-2 1.2-2.8.7-.6-.4-2.3-.9-3.7-1-1.4-.1-3 .1-3.6.5a29 29 0 0 0-4 8.8l-12.4.5-2.2-4.8a76 76 0 0 1-2.3-5c0-.2-1.6-.4-3.5-.5-2-.2-3.4-.7-3.2-1.2.1-.6 1.8-.9 3.8-.7 3.2.3 3.6 0 5.4-3.7 1.6-3.2 2.7-4.2 5.3-4.7 1.7-.4 4.4-.4 6 0 1.8.4 3.2 1.7 4.2 4.1.8 2 2.3 3.7 3.3 4 1 .1 3.5.2 5.7 0l4.8-.4c.4 0 1.6-1.9 2.8-4 1.1-2.2 2.8-4.1 3.7-4.4l3-.6zM159 651c.3 0 .7 2 .8 4.3 0 2.3.3 5.9 1.1 11.7h-7.5a29 29 0 0 1-7.5-.5 51.1 51.1 0 0 1 9.4-12.8 15 15 0 0 1 3.7-2.7zm18 4.6c.5.2.7 1.5.4 2.9-.3 1.4-.2 2.5.3 2.5.4 0 1.7-1.3 5-5.5l.9 3.9c.4 2.1 1.1 4 1.6 4.2.4.2.7 1 .7 1.9 0 1.3-2 1.5-23.5 1.4l3.8-2c2-1 5.1-3.7 6.8-5.8 1.8-2.2 3.6-3.7 4-3.5zm27.4 2l1 3.7c.6 2 1.6 3.7 2.3 3.7.6 0 2-1.2 4.5-5.5l1.3 3.5c.8 2 1.1 3.6.7 3.8-.3.2-4.2.2-16.4-.3l3.3-4.5m97.9-3c.5 0 2.6.8 4.6 1.9 2.1 1 4.1 2.6 4.6 3.5l.7 2.1c0 .3-3 .5-6.5.5-3.6 0-6.5-.3-6.5-.8l1-4c.7-1.7 1.6-3.2 2-3.2zm-63 2c.5 0 1.1.7 1.4 1.5.3.8.5 2.2.5 3 0 1-1 1.5-2.5 1.5-1.4 0-2.5-.2-2.5-.5s.5-1.6 1.1-3c.7-1.4 1.6-2.5 2-2.5zm31.7 0c.4 0 1.3.9 2 1.8.6 1 1.1 2.3 1.2 3 0 .6-1.1 1.2-2.5 1.2-1.8 0-2.4-.4-2-1.5.3-.8.5-2.2.5-3 0-.8.3-1.5.8-1.5zm-24.7 1c.5 0 1.1.7 1.4 1.5.3.8.5 2 .5 2.5s-.8 1-1.8 1c-1.2 0-1.6-.7-1.3-2.5.1-1.4.7-2.5 1.2-2.5zm34.6 1.5a7.9 7.9 0 0 1 1.3 2.8c0 .4-.9.7-2 .7s-2-.5-2-1 .3-1.8.6-2.8c.6-1.6.8-1.6 2 .3z"/><path class="shp1" d="M432 665c-.7 1.4-.6 2.4.3 3.5.6.9 2 1.6 3 1.5 1 0 2.5 1.5 3.6 3.3l10.5 17.5L458 705l-15 25c-.4.8-2.2 1.7-4.1 2-2.6.4-3.5 1-3.6 2.8-.3 2.1 0 2.2 9.2 2.2 9.5 0 9.5 0 9.5-2.5 0-1.8-.5-2.5-2-2.5-1.1 0-1.9-.3-1.8-.8l4.1-6.7 7.3-11.5 3.3-5.5c.1 15.5.4 21 .6 22.3.4 1.8 0 2.2-2 2.2-1.8 0-2.6.6-3 2.3a7.2 7.2 0 0 0-.2 2.4l8.2.3c4.4 0 8.6.1 9.3 0 .6 0 1.2-1.1 1.2-2.5 0-2-.5-2.5-2.8-2.5h-2.7l.4-60.8c0-.6 1-1.3 2.3-1.5 1.1 0 2.5-1 3-1.9.4-1 .3-2.3-.5-3.3-1-1.2-2.9-1.6-8.7-1.5-4.1 0-8 .4-8.8.8-.7.4-1.2 1.8-1 3.2.2 1.7 1 2.6 2.6 2.8 2.1.2 2.2.5 2.2 12 0 8.3-.3 12-1.2 13-1 1-2.8-1.2-9.3-11.4-6.6-10.3-7.7-12.8-6.5-13.5.8-.5 1.8-.9 2.3-.9.4 0 .6-1.2.4-2.8l-.2-2.7c-16.6-.5-17.6-.3-18.5 1.5zm-409.6.2c-.3.7-.3 2 0 3s1.6 1.8 2.9 1.8c1.8 0 4.1 3.2 12.4 16.8a184 184 0 0 1 10.3 18c0 .6-3 6.3-6.8 12.5a505 505 0 0 0-7.7 13.2c-.7 1.3-2.2 2-4.3 2.3-2.7.2-3.2.6-3 2.5.3 2 .7 2.2 8.8 2.2 7.7 0 8.5-.3 8.8-2 .2-1.3-.4-2.3-1.7-2.8-2-.7-2-.8.8-5 1.6-2.3 5-7.8 7.7-12.2l4.9-8c.8 17.8.9 23.6.8 24.3-.2.6-1.4 1.2-2.8 1.2-1.8 0-2.5.5-2.5 2 0 1.9.7 2 9.5 2s9.5-.1 9.5-2c0-1.4-.7-2-2.3-2-1.2 0-2.7-.4-3.2-1-.6-.5-1-12-.8-31.5L64 670c5-.5 5.5-1 5.8-3.3l.2-2.7H51c0 5.5.4 6 2.5 6H56c0 20.6-.4 24-1.5 25.3-1.4 1.6-2.2.6-9.5-11.3-4.4-7.1-8-13.2-8-13.5 0-.3 1-.6 2.3-.8 1.6-.1 2.2-.9 2.2-2.7 0-2.5-.1-2.5-9.2-2.8-6.8-.2-9.4 0-9.9 1z"/><path class="shp4" d="M55 737.7c2.5.2 6.8.2 9.5 0 2.8-.2.7-.3-4.5-.3s-7.5.1-5 .3zm384 0c2.5.2 6.8.2 9.5 0 2.8-.2.7-.3-4.5-.3s-7.5.1-5 .3zm24.5 0c2.2.2 6 .2 8.5 0s.7-.4-4-.4-6.7.2-4.5.4z"/></svg>