<svg version="1" xmlns="http://www.w3.org/2000/svg" width="500" height="792" viewBox="0 0 5000 7920"><path d="M0 3960V0h5000v7920H0V3960z" fill="#db0003"/><path d="M0 3960V0h5000v7920H0V3960zm4621 3610c46-24 76-61 90-112 13-52 6-68-29-68-25 0-30 5-41 39-6 22-25 51-41 65-97 81-241 3-210-114 14-51 57-86 125-100 51-11 55-13 55-40 0-26-4-30-37-35-21-4-50-9-64-11-53-10-99-81-99-152 0-110 121-188 209-136 33 19 71 73 71 100 0 32 23 56 51 52 21-3 24-7 22-46-3-60-39-119-93-150-37-22-57-27-116-27-61 0-77 4-120 30-132 82-131 273 2 351l45 26-29 17c-49 28-58 35-79 66-32 46-37 97-15 149 49 109 189 154 303 96zm-4099-21c44-23 74-59 89-110 15-50 7-69-31-69-24 0-30 4-30 23 0 36-38 87-77 104-115 48-224-59-169-166 20-37 54-59 115-72 40-8 50-15 54-35 5-29 1-33-55-40-60-9-92-28-119-70-30-50-31-132-2-172 83-113 224-88 258 45 11 43 15 48 44 51 30 3 31 2 31-38 0-146-175-234-319-161-77 40-119 122-107 210 8 60 33 99 89 141l47 35-28 14c-87 44-124 132-91 218 39 104 187 149 301 92zm4116-972c56-70 102-130 102-133 0-10-242-304-250-304-5 0-63 67-129 149l-120 149 100 128c55 71 111 144 126 163l26 34 21-29c12-16 67-86 124-157zM450 6683c19-27 71-94 117-150 46-57 83-106 83-110-1-5-34-48-75-98-41-49-94-116-117-147-24-31-47-57-53-57-12-1-251 289-248 300 7 21 237 309 248 309 6 0 27-21 45-47zm2098-40c38-49 140-176 226-283s156-199 156-205c0-5-46-66-102-135-55-69-157-199-225-290s-128-166-132-168c-4-1-56 62-116 140-60 79-164 209-232 290-68 80-123 150-123 154s33 48 73 98l213 266c78 96 147 185 155 198 8 12 19 22 25 22 7 0 43-39 82-87zm-5-2130c171-209 250-306 324-401 72-91 81-108 70-121-60-70-280-350-356-453-52-70-98-125-103-122-4 3-57 70-118 149s-159 201-218 272-113 136-120 145c-12 15 15 52 220 307 128 160 236 291 239 291 4 0 31-30 62-67zm8-2140c24-32 51-65 59-74 24-26 334-410 342-423 3-6-41-69-98-141-58-71-161-205-231-297-69-93-127-168-129-168s-54 66-116 148c-62 81-167 212-232 291-110 132-118 145-106 164 34 55 445 557 456 557 6 0 31-26 55-57zm2046-546c17-23 68-87 112-142 45-54 81-103 81-108s-28-43-63-86c-35-42-87-109-117-148-30-40-60-73-65-73-6 0-39 37-72 83-34 45-87 111-117 147-31 36-54 71-51 78 11 29 231 292 245 291 8 0 29-19 47-42zM638 1672c40-50 75-97 78-105 2-7-25-51-63-98-37-46-90-114-117-152-28-37-55-67-61-67-5 0-16 9-23 20-7 12-60 79-117 150-58 72-105 133-105 136 0 7 21 33 159 203l84 104 46-50c25-27 79-91 119-141zm3959-487c90-27 153-110 153-204 0-67-52-147-111-171-16-7-29-15-29-19 0-3 20-18 45-33 50-30 85-89 85-140 0-19-10-54-22-78-30-59-106-100-184-100-76 0-152 42-181 100-13 24-23 57-23 72 0 25 3 28 35 28 29 0 35-4 35-20 0-64 86-129 152-116 100 20 140 133 70 198-34 32-57 44-104 52-34 6-38 10-38 36 0 27 3 29 48 36 63 9 96 27 120 66 28 47 34 83 22 128-43 159-245 155-278-6-7-35-11-39-40-42s-32-1-32 26c0 46 20 94 54 130 34 38 62 51 121 62 22 4 43 8 46 9 3 0 28-6 56-14zm-4071-20c91-27 148-104 148-196-1-72-38-139-94-171-22-13-40-25-39-28 0-3 21-18 47-35 97-62 107-179 22-256-71-65-178-75-264-25-47 27-86 89-86 135 0 29 2 31 35 31 29 0 35-4 35-20 0-115 183-152 244-50 23 40 20 80-9 122-24 36-39 43-152 74-7 2-13 15-13 28 0 27 5 29 84 40 69 9 116 72 116 153 0 158-194 210-266 71-8-15-14-36-14-48 0-19-32-40-61-40-17 0-9 76 14 120 25 49 55 74 113 95 51 18 79 18 140 0z" fill="#fff"/></svg>