<svg version="1" xmlns="http://www.w3.org/2000/svg" width="500" height="792" viewBox="0 0 5000 7920"><path d="M0 3960V0h5000v7920H0V3960z" fill="#db0003"/><path d="M0 3960V0h5000v7920H0V3960zm4688 3475c3-2 15-78 27-167 20-147 21-164 7-175-24-19-34-16-87 25-41 32-55 37-100 37-59 0-113-33-142-88-40-75-13-214 52-265 34-27 96-37 139-22 33 11 79 53 88 82 4 10 10 10 31 1 34-16 34-27 1-70-76-100-246-103-335-6-44 46-62 93-67 171-10 155 76 261 214 262 28 0 68-7 87-15 20-8 39-15 43-15 9 0-4 144-16 175-9 24-12 24-137 27l-128 3-3 29-4 29 163-6c89-4 164-9 167-12zm-4129-3l45-7 17-135c28-214 28-203-3-214-23-8-31-6-55 19-53 53-118 68-176 39-53-27-77-55-93-112-21-71-12-128 30-189 38-56 92-80 153-68 36 6 95 54 105 85 4 12 9 13 31 3 34-16 34-33 1-73-65-77-189-98-277-47-57 34-80 63-107 135-43 113-9 245 78 306 61 43 146 47 236 10 18-7 19-3 12 81-3 49-11 94-17 101-8 10-49 14-137 16l-127 3-3 28-3 27 123-1c68 0 143-4 167-7zm3978-858c22-29 146-187 204-260 10-13-226-314-245-313-6 0-31 26-56 57s-78 99-118 150l-74 93 74 92c41 51 96 120 122 155 26 34 51 62 56 62s22-16 37-36zm-4027-87c47-61 100-129 119-150 40-44 38-49-37-138-26-31-75-90-110-132-34-42-66-77-71-77-11 0-241 286-241 300 0 6 28 45 63 88 34 42 86 110 116 150 29 39 58 72 64 72 7 0 50-51 97-113zm1005-48c60-80 163-209 228-288 64-78 117-146 117-151 0-8-56-79-318-406-13-16-49-61-80-101s-62-72-68-73c-7 0-45 42-85 93-40 50-81 101-91 112-37 42-264 328-278 350s-13 26 12 52c41 43 191 235 318 406 63 86 119 154 125 153 5-2 59-68 120-147zm2125 48c74-100 173-226 301-382 36-44 68-85 72-92 7-11-187-260-461-593-2-3-16 11-31 30-14 19-62 77-106 130-45 52-101 122-125 154-24 33-66 87-94 120-28 34-66 79-83 102l-32 40 104 130c57 71 161 204 231 297 71 92 133 167 138 167 6-1 45-47 86-103zM2603 4285c33-44 117-149 186-234 69-84 134-164 144-177 17-22 17-23-40-92-32-39-107-132-168-209-60-76-141-176-179-221-62-75-71-82-82-67-7 10-33 39-58 65-26 27-46 52-46 55 0 6-23 36-102 129-10 12-66 82-124 156-59 74-111 140-116 147-6 7 31 61 113 165 209 261 224 281 285 362l58 79 34-39c19-22 62-75 95-119zM1500 2185c88-118 182-239 189-245 4-3 48-56 100-118l93-112-45-53c-24-28-68-83-98-122-29-38-63-81-75-95s-72-88-134-165c-61-77-115-141-119-143-4-1-59 61-121 139-63 78-121 148-129 157-9 8-41 48-71 87-30 40-75 98-99 129-36 47-43 61-34 75 6 9 55 73 110 141 104 130 213 271 291 377 37 50 49 60 60 50 8-6 45-52 82-102zm2130 33c35-46 84-110 109-143s101-127 168-208c133-161 132-158 77-211-12-12-88-104-170-206-81-102-173-216-203-253s-58-64-62-60-36 45-71 89c-35 45-134 170-220 278-87 107-158 201-158 207s31 48 69 93c80 95 191 237 303 388 44 59 84 108 88 108s35-37 70-82zm1029-617c41-51 87-109 102-130l28-38-60-74c-34-41-88-111-121-156-33-46-64-83-68-83-5 0-28 28-53 62-25 35-79 105-120 157l-76 95 40 50c22 28 79 98 126 155l87 104 20-25c12-14 54-67 95-117zm-4061-22l122-151-26-31c-14-18-59-77-101-132s-86-112-99-127l-23-28-44 53c-24 28-57 70-73 92s-52 68-81 103c-46 55-51 66-41 81 36 50 233 291 238 291 4 0 61-68 128-151zm3975-570c135-37 204-229 134-372-38-76-86-109-167-115-38-3-75 1-106 12-26 9-49 14-52 11-2-2 2-46 9-97l14-93 130-5 130-5 3-27 3-28h-98c-54 0-128 3-164 6l-65 7-18 151c-10 83-20 159-22 168-4 13 3 21 21 28 23 9 32 6 62-21 68-59 137-66 200-20 97 70 101 234 9 321-21 19-40 25-89 28-57 4-66 1-94-22-18-15-35-36-38-46-7-22-26-25-56-10-18 10-18 13-4 40 39 75 159 117 258 89zM505 999c25-7 58-29 87-58 82-82 100-209 44-320-49-95-154-133-265-96-29 9-55 15-57 12-8-8 17-170 28-184 7-9 47-13 134-13h124v-63l-157 7c-87 4-159 9-161 10-2 2-13 79-26 171l-22 167 23 9c19 7 32 2 69-26 53-41 81-50 132-41 82 13 132 84 132 189 0 75-12 107-58 150-59 56-157 54-205-3-14-16-27-35-29-42-4-10-10-10-31-1-31 14-33 30-9 58 67 76 150 101 247 74z" fill="#fff"/></svg>