<svg version="1" xmlns="http://www.w3.org/2000/svg" width="500" height="792" viewBox="0 0 5000 7920"><path d="M0 3960V0h5000v7920H0V3960z" fill="#db0003"/><g fill="#fff"><path d="M0 3960V0h5000v7920H0V3960zm505 3471c56-25 101-81 122-149 22-74 26-376 4-435-32-91-114-146-216-147-75 0-119 21-162 78-55 72-68 168-37 272 40 135 189 188 306 110 42-29 43-29 46-8 7 41-9 123-31 163-28 51-101 90-147 80-44-10-88-51-101-96-11-35-15-38-38-32-36 8-36 8-23 52 15 47 45 87 86 112s137 25 191 0zm4054 9c59-17 109-59 136-114 43-90 58-319 29-447-30-132-130-203-260-183-124 18-200 150-173 298 15 82 42 131 90 163 75 49 169 41 258-24l24-18-7 68c-8 86-30 140-67 172-33 27-86 40-125 31-35-9-84-62-91-98-4-23-11-28-34-28-24 0-29 4-29 25 0 33 31 94 62 121 44 40 119 54 187 34zM471 6553c23-32 77-101 120-154l77-95-122-152c-66-83-126-150-133-149-6 1-64 69-128 150l-117 148 41 52c23 29 76 98 119 154 42 56 82 102 88 102 7 1 31-25 55-56zm4159-101l121-154-95-116c-52-65-109-134-128-155l-33-38-115 145c-63 80-116 151-118 158-1 8 30 54 69 103 39 50 92 118 118 152 25 35 49 62 53 60 4-1 62-71 128-155zm-3121 4c55-74 157-205 226-291 70-86 125-162 122-168-2-7-65-86-138-178-74-91-174-215-224-276-49-62-95-112-101-112-6-1-107 119-224 267-117 147-220 275-228 284-13 16-2 33 120 185 74 92 178 225 232 296 53 70 101 127 106 127 4 0 53-60 109-134zm2161-8c58-78 157-205 220-282 64-78 119-147 124-154 5-8-74-112-225-297-128-157-235-288-239-290-11-7-463 564-457 578 2 6 62 84 133 172 71 89 172 218 224 287 52 70 100 127 105 127 6 0 57-63 115-141zM1526 4283c71-93 145-188 166-213 115-138 168-205 168-213 0-4-37-54-83-110-277-342-380-467-387-467s-15 10-284 348c-111 140-174 227-169 235 4 7 70 91 148 187 77 97 178 226 225 288 46 62 86 112 87 112s59-75 129-167zm2140 15c59-79 146-190 194-248 47-58 103-126 123-151l37-45-208-256c-298-367-270-336-282-315-6 9-33 43-58 75-26 31-126 155-221 274l-172 218 123 152c68 84 173 217 232 296 60 78 112 142 116 142s56-64 116-142zM1526 2140c64-85 166-214 226-286 59-73 108-134 108-137 0-2-72-94-161-203-89-110-193-238-232-286-39-49-73-88-76-88-18 0-462 571-454 583 4 6 70 90 147 187 78 96 177 224 221 282 44 59 85 107 92 105 6-1 65-72 129-157zm2139 12c61-80 163-211 228-289 64-78 117-145 117-148 0-11-461-575-470-575-11 0-461 563-457 572 1 4 47 62 103 130 55 68 158 198 228 291 71 92 131 167 135 167 3-1 56-67 116-148zM585 1590c63-80 115-147 115-150s-28-39-61-80-88-110-120-152c-33-43-63-78-67-78-5 0-26 26-49 58-22 31-75 100-117 152s-76 97-76 101c0 12 242 300 251 297 4-2 60-68 124-148zm4070-7c81-100 115-150 109-158-20-28-218-281-229-293-12-14-16-9-218 249-25 32-35 54-30 63 17 30 234 286 242 286 5 0 62-66 126-147zM550 1021c144-68 158-341 22-436-38-26-52-30-112-30-61 0-73 4-114 32l-46 33v-55c0-77 33-159 73-183 48-29 90-35 129-19 39 17 78 64 78 96 0 17 6 21 30 21 25 0 30-4 30-25 0-35-34-99-66-124-42-33-97-44-157-31-146 31-197 136-197 406 0 175 28 256 105 304 65 40 154 45 225 11zm4033 8c90-25 153-122 151-234-1-128-59-217-159-245-56-16-99-8-159 31-27 16-51 28-53 25-3-3-2-32 2-65 14-120 75-191 163-191 40 0 50 5 83 40 21 21 39 50 41 62 2 17 11 24 31 26 23 3 27 0 27-23 0-55-52-127-109-151-107-45-245 20-285 133-39 111-40 377-1 470 43 101 156 153 268 122z"/><path d="M365 7126c-72-31-103-105-93-222 8-93 69-148 162-147 44 1 54 5 82 36 37 40 54 90 54 159 0 81-39 145-107 174-40 17-59 17-98 0zM4430 7107c-55-37-74-79-73-166 0-93 11-121 59-158 31-23 47-28 97-28 53 0 61 3 87 32 31 34 60 116 60 168 0 17-11 54-25 81-43 87-135 119-205 71zM381 973c-72-36-106-186-61-273 25-48 83-90 127-90 47 0 95 26 123 68 22 31 25 46 25 123 0 103-14 130-85 167-52 26-83 27-129 5zM4431 955c-39-34-66-106-65-177 1-73 36-129 99-160 40-19 48-20 86-9 24 7 55 26 70 42 57 61 63 209 11 270-52 63-147 78-201 34z"/></g></svg>