<svg version="1" xmlns="http://www.w3.org/2000/svg" width="500" height="792" viewBox="0 0 5000 7920"><path d="M0 3960V0h5000v7920H0V3960z" fill="#db0003"/><path d="M0 3960V0h5000v7920H0V3960zm718 3573l3-63h-30c-27 0-30 3-33 38l-3 37-145-4c-80-2-146-4-148-6-1-1 26-45 62-98 112-169 207-378 231-509l7-38h-35c-34 0-37 2-43 38-23 126-119 331-235 503-73 108-90 145-72 163 4 3 104 5 222 4l216-3 3-62zm4080 0l3-63h-31c-27 0-30 3-30 34 0 42-1 42-167 36l-132-5 69-103c108-162 202-373 226-504l6-38h-36c-25 0-36 5-36 14 0 34-56 188-104 291-29 61-89 165-134 232-76 113-92 149-75 167 4 3 104 5 222 4l216-3 3-62zM535 6693c22-31 71-95 109-142s73-91 78-97c9-12-224-309-242-309-12 0-240 283-240 297 0 5 26 42 58 81 32 40 85 107 116 150 32 42 64 77 70 77 6-1 29-26 51-57zm4080-5c27-35 82-105 123-155l74-92-18-25c-82-105-229-276-238-276-6 1-44 42-83 93-40 51-93 117-117 148l-45 55 57 70c31 38 86 109 122 157s68 87 71 87 28-28 54-62zm-2923-228c123-154 224-286 226-293 1-8-39-65-90-128-50-63-152-193-226-289-73-96-137-176-141-178-5-1-54 59-111 135s-159 206-227 290c-68 83-123 156-123 162 0 12 456 581 466 581 1 0 103-126 226-280zm2163-12c124-156 224-286 222-290-1-4-73-96-159-205-87-109-189-240-228-291-40-51-75-92-80-90-4 2-61 73-126 158s-167 215-227 288c-59 73-107 136-105 141 3 9 255 323 396 494 35 42 68 77 73 77s111-127 234-282zM1695 4308c124-156 225-286 225-289 0-4-49-67-108-141-59-73-161-203-226-288s-122-156-126-158c-5-2-57 61-116 140-87 116-275 352-341 429-12 14-1 31 84 136 54 66 159 195 233 287 74 91 138 166 142 166 5 0 109-127 233-282zm2151-3c120-151 220-280 222-287 1-7-46-71-104-143-59-71-160-201-226-287-65-87-122-160-126-162-4-3-58 61-119 142s-166 214-232 295l-121 149 38 46c35 43 146 179 351 431 41 50 80 91 86 91s110-124 231-275zm-1190-915c60-74 162-201 226-282l117-147-117-144c-64-79-169-211-231-295-63-83-119-148-123-146-5 3-57 69-115 147-59 78-158 204-221 280-62 76-115 144-118 151s89 128 205 269c115 141 218 267 228 281s23 25 29 23c7-1 61-63 120-137zm-973-1205c115-143 215-270 224-282 14-21 9-29-124-195-76-95-178-226-227-290-49-65-93-118-97-118s-56 63-115 140c-58 78-160 207-225 288-66 81-118 153-117 159 5 23 452 563 462 560 6-2 105-120 219-262zm2157-17c118-149 218-276 222-282 3-6-33-60-83-121s-153-192-231-293c-107-139-144-180-153-172-7 6-58 70-113 143s-154 199-221 281c-76 93-118 153-113 160 5 6 98 121 208 256s209 257 219 272c11 15 27 27 35 27s112-122 230-271zM649 1743c61-78 111-145 111-150s-24-38-53-74c-29-35-81-101-116-146-35-46-67-83-71-83s-27 26-50 58c-24 31-76 98-117 148-40 50-73 95-73 99 0 17 234 296 245 293 7-2 63-67 124-145zm4015 42c102-129 156-202 156-211 0-5-22-34-48-65-26-30-78-96-117-147-38-50-73-91-77-92-3 0-24 24-45 52-21 29-75 98-120 154l-82 101 121 147c66 80 126 146 133 146 6 0 42-38 79-85zM414 1148c64-230 139-384 283-588 18-25 35-57 39-73l6-27-223 2-224 3-3 58-3 57h31c28 0 30-3 30-35v-35h150c83 0 150 2 150 4 0 3-29 48-65 101-105 155-195 346-226 483-5 24-7 48-4 53 9 13 55 11 59-3zm4062-35c37-169 136-376 266-554 28-39 48-78 48-93v-26h-440l-2 45c-1 25-2 53-2 63-1 11 8 18 26 20 24 3 27 0 30-35l3-38 148-3c97-2 147 1 147 8 0 6-22 41-50 79-101 139-221 400-236 516l-7 45h31c26 0 33-5 38-27z" fill="#fff"/></svg>