<svg version="1" xmlns="http://www.w3.org/2000/svg" width="500" height="792" viewBox="0 0 5000 7920"><path d="M0 3960V0h5000v7920H0V3960z" fill="#db0003"/><g fill="#fff"><path d="M0 3960V0h5000v7920H0V3960zm495 3618c2-7 33-150 69-318 37-168 69-315 71-327 3-15 13-23 25-23 16 0 20-7 20-30v-30H520v30c0 23 4 30 20 30 23 0 23 0 9 73l-12 57H371l-10-37c-23-96-23-93 4-93 21 0 25-5 25-30v-30h-84c-71 0-84 3-88 18-7 27 2 42 27 42 14 0 26 7 29 18 3 9 37 152 75 317 39 165 75 310 81 323 11 24 58 31 65 10zm4088-20c4-13 27-120 52-238 26-118 55-255 66-304 10-49 19-93 19-98s11-13 25-18c18-7 25-17 25-35 0-25-1-25-86-25h-85l3 28c2 19 9 28 24 30 20 3 21 7 13 45-21 96-10 87-102 87h-84l-11-51c-16-69-15-77 11-81 16-2 22-10 22-28 0-25-2-25-88-28l-88-3 3 28c2 19 10 29 23 31 11 2 23 7 27 10 4 4 41 151 82 327 42 176 78 326 81 333 2 6 18 12 34 12 22 0 30-6 34-22zM505 6673c32-43 87-114 123-157 58-71 64-81 52-99-32-52-235-295-242-291-4 3-60 71-124 151-111 139-116 148-103 169s232 304 235 304c1 0 28-35 59-77zm4081-10c27-38 79-106 117-152 37-46 67-87 67-92 0-9-238-303-248-306-8-3-236 283-239 300-2 7 49 77 112 157s115 148 115 153c0 24 33-2 76-60zM2687 4355c87-110 185-232 216-272s57-77 57-83-48-71-107-143c-60-72-161-201-226-287-66-85-124-155-130-155-7 0-70 77-142 171-71 94-171 220-221 280-49 60-93 114-97 121-4 6 36 64 96 136 56 68 163 199 237 291 104 129 137 163 146 153 6-6 83-102 171-212zM528 1827c18-23 69-88 112-144 44-56 80-106 80-111 0-6-46-68-103-139-56-70-111-139-120-153l-18-25-27 35c-15 19-71 90-125 157l-97 122 122 150c68 83 128 150 133 150 6 0 25-19 43-42zm4137-104c60-76 113-144 118-151 7-8-3-28-32-65-23-28-78-98-122-154-44-57-84-103-87-103-4 0-20 19-37 43-16 23-68 89-114 147s-84 110-85 116c-1 13 233 304 244 304 3 0 55-62 115-137zM405 1130c0-18-6-26-23-28-16-3-21-9-18-20 3-9 8-38 11-63l7-47 69-6c95-10 105-5 118 55 16 72 14 79-15 79-22 0-25 4-22 28 3 26 5 27 63 27 96 1 117-4 113-29-2-14-11-22-30-24-25-3-28-8-63-160-20-86-56-236-79-332l-41-175-31-3c-27-3-33 1-38 24-6 24-117 530-133 607-4 18-15 32-29 38-26 9-33 44-11 52 6 2 44 4 82 3 68-1 70-2 70-26zm4063-12c3-23-1-28-18-28-20 0-21-4-14-47 13-91 12-90 105-89l82 1 13 55c18 76 17 80-11 80-20 0-25 5-25 25 0 25 1 25 85 25s85 0 85-25c0-20-5-25-24-25-15 0-27-7-30-17s-35-144-71-298c-93-393-80-355-118-355h-32l-64 303c-82 383-78 367-101 367-14 0-20 7-20 23 0 35 7 38 84 35 69-3 71-4 74-30z"/><path d="M418 7273c-39-179-42-171 50-172 43-1 52 2 52 16 0 30-52 298-60 306-4 4-22-63-42-150zM4541 7428c-1-4-17-78-36-164s-35-160-35-165c0-11 127-12 134-1 2 4-7 68-20 142-23 127-41 204-43 188zM404 897c-5-13 51-315 59-324 9-9 79 315 71 328-9 15-124 11-130-4zM4470 882c-1-32 54-312 60-312 8 0 70 267 70 299 0 12-3 21-7 21-5 1-34 3-65 5-50 4-58 2-58-13z"/></g></svg>