<svg xmlns="http://www.w3.org/2000/svg" width="500" height="792"><style>.shp0{fill:#fff}.shp1{fill:#db0002}.shp2{fill:#000001}.shp3{fill:#ffd001}.shp4{fill:#0044ba}</style><path class="shp0" d="M0 396v396h500V0H0"/><path class="shp1" d="M24.4 35.2c-.3.7-.3 2 0 3 .4 1 1.6 1.8 3.1 1.8H30v62c-5.5 0-6 .4-6 2.5 0 2.5.2 2.5 8.6 2.8 4.7 0 9 0 9.6-.3.5-.3.8-1.4.6-2.5-.2-1-1.4-2.2-2.8-2.5-2.5-.6-2.5-.8-2.8-11.5-.3-9.6 0-11.3 1.6-13.5l1.9-2.5a967.8 967.8 0 0 1 15.5 26.3c.2.4-.7.8-2 1-1.6.1-2.2.9-2.2 2.7 0 1.8.6 2.6 2.3 2.9 1.2.2 4.5.3 7.2.1l7.3-.4c1.7 0 2.1-.6 2-2.3-.2-1.4-1.2-2.4-2.8-2.8-1.9-.4-4.6-4-11.2-14.5L46.3 70.3l-1.8-3.1c9.9-16 13.8-22.2 15.1-24 1.5-2 3.4-3.3 5.1-3.5 2.3-.2 2.8-.7 2.8-2.7 0-2.4-.3-2.5-7-2.8-3.9-.2-8 0-9.3.3-1.4.3-2.2 1.3-2.2 2.5 0 1.1 1 2.3 2 2.8 1.9.7 1.6 1.3-3.8 10.2l-7.4 12c-1.6 2.5-1.6 2.3-2.1-5.5-.3-4.4-.2-9.9.1-12.2.5-3.2 1.2-4.3 2.7-4.5 1.4-.2 2-1 2-2.8 0-2.5-.2-2.5-8.7-2.8-6.4-.2-9 0-9.4 1zm434.3-.5c-3 .2-3.7.7-3.7 2.3 0 1.2.8 2.2 2 2.5 1.1.3 2 .8 2 1.3 0 .4-1.2 2.7-2.7 5.2-1.4 2.5-4.7 7.6-7.2 11.5l-4.6 7c-.4-17-.2-22.5.2-23.2.4-.6 1.7-1.3 2.8-1.5 1.2-.2 2-1 2-2.3 0-1.8-.8-2-9.3-2.3-5.5-.1-9.3.2-9.4.8a11 11 0 0 0-.3 2.2c0 .7 1.4 1.5 3 1.8l3 .5v61c-4.6.4-5.7 1.2-6 2.8-.4 1.2-.3 2.5.2 3 .4.4 4.9.6 9.8.5 8.9-.3 9-.3 9-2.8 0-2-.6-2.5-2.8-2.8l-2.7-.2c0-17 .4-22.9 1-24 .6-1.1 1.4-2 2-2 .6 0 4.4 5.4 8.5 12s7.5 12.5 7.5 13-.9 1-2 1-2.2.3-2.4.8c-.3.4-.2 1.7.2 3 .7 2.2 1 2.3 9.7 2 8.8-.3 9-.3 9-2.8 0-2-.6-2.6-2.7-3-2.3-.4-4.4-3.2-12.8-16.8-5.5-8.9-10-16.8-10-17.5 0-.6 3.6-7 7.9-14.2 7.2-11.9 8.1-13 11-13.3 1.7 0 3.4-.9 3.9-1.7.4-1 .1-2-.6-2.8-.7-.7-3.6-1.2-6.5-1.3-2.9 0-6.9.1-9 .3z"/><path class="shp2" d="M84 158.8a46322 46322 0 0 0-1.4 321L82 686h331V251.5 100H84"/><path class="shp0" d="M88.8 192.8l-.2 96.9c0 5 .3 9.5.7 10 .5.4 1.1.3 1.5-.3.4-.6 2.3-2.2 4.2-3.5a98 98 0 0 0 6.3-4.6l2.7-2.3a64 64 0 0 1-4.5-12.5c-.8-3.7-.7-3.9.9-2.5 1 .8 1.7 2.7 1.6 4.3 0 1.5.8 4.3 1.8 6.1 1.7 3.4 1.8 3.4 4.5 2 1.5-.8 2.7-2 2.7-2.6 0-.7-1.1-3.2-2.5-5.6-1.4-2.3-2.5-5-2.5-6s-1-4-2.3-6.9c-1.5-3.5-2.6-5-3.5-4.5-.9.5-1 1.9-.5 5 .6 3.1.5 4.2-.5 4.2-.6 0-1.5-1.2-1.8-2.8-.3-1.5-.8-4.5-1-6.7-.3-2.2-1-4.8-1.5-5.8s-.7-2.3-.4-3c.2-.6 1.1-1.5 2-2 1.2-.5 1.3-1.7.8-5.7-.8-4.8-.7-5 1.5-5 2 0 2.2-.3 1.7-4.5-.4-3.7-.2-4.6 1.3-5 1-.3 2.7.2 4 1 1.2.8 3.9 1.5 6 1.6 3.6 0 3.6 0 1.2 1.2l-2.8 1.4c0 .2.6 1.7 1.5 3.3 1 1.7 2.1 3 2.5 3 .5 0 .8-1 .8-2.3 0-1.2.4-2.9.9-3.7.7-1.3 1.2-1.2 3 .8 1.1 1.2 2.5 3.9 3 6 .6 2 1.7 4.6 2.5 5.7 1.4 2 1.5 2 4.5-1.3 1.7-1.7 3.5-3.2 4.1-3.2.6 0 1.7 1 2.5 2.3a9.7 9.7 0 0 1 1.5 4.4c0 1.3 1.4 5.1 3 8.6 1.8 3.4 3.4 6.5 3.8 7 .4.4 2.5-.2 4.7-1.2l11-5c3.8-1.6 10-4 13.8-5 3.7-1.2 6.9-2.7 7.1-3.3.3-.7.7-2.5 1-4 .4-1.9 1.8-3.4 4.1-4.6 3.5-1.7 3.5-1.7 6.3 1 2.6 2.7 2.6 3 1.2 5.6-.9 1.5-2.6 2.8-3.8 3-1.4.1-2.6-.6-3.2-1.8-.6-1.1-.7-2-.3-2 .5 0 1.3.4 1.8 1 .7.8 1.4.6 2.3-.5.6-.8 1-2.2.7-3-.3-1-1.6-1.4-3.8-1.3-2.9.3-3.2.6-3.5 3.8-.2 2.3.4 4.1 1.5 5.3 1 1 3 1.7 4.3 1.7 1.4 0 3-.4 3.5-.8.6-.4 1.6-1.4 2.2-2.2a24 24 0 0 0 1.8-8.5 37 37 0 0 1 2.5-11c1.1-2.2 2-4.7 2-5.5 0-1 .4-.9 1.1.5.9 1.6.7 2.9-1 6a27.8 27.8 0 0 0-2.3 11.3c-.3 6.6-.6 7.6-3 9.8-1.6 1.3-3.7 2.4-4.8 2.4-1.1 0-2 .4-2 1 0 .7 1 .7 3.3 0 1.7-.6 4.4-2.3 6-3.8 1.5-1.5 3.2-4.5 3.7-6.7s1-6 1-8.3c0-2.3.4-4.4 1-4.7.6-.3 1.2-.4 1.5-.3.2.2 0 3.9-.6 8.3a37 37 0 0 1-2.8 11c-1 1.7-3.4 4-5.2 5.2-2.8 1.8-3 2.3-1.4 2.3 1.1 0 2.5-.5 3.1-1.2a9 9 0 0 1 3.3-2c1.1-.5 2.1-.6 2.1-.3s-1 1.4-2.3 2.5c-1.2 1-2 2.2-1.7 2.4.3.3 1.6 0 3-.7s3.7-3.6 5.3-6.7a25 25 0 0 0 2.7-8c0-1.4.4-4 1-5.8.5-1.7 1.4-3.2 2-3.2.6 0 1 1 1 2.3a53.3 53.3 0 0 1-5.3 17.5c-.6.7-.9 1.6-.5 2 .5.4 1.7-.4 2.8-1.8 1.1-1.4 2.7-5.7 3.5-9.5.8-3.8 1.5-7.6 1.5-8.3 0-.6.6-1.2 1.3-1.2.9 0 1 1.4.4 5.7l-1.3 8.3c-.3 1.6 0 1.2 1-1 .7-2 1.8-5.7 2.2-8.3.5-2.6 1.3-4.8 1.9-4.7.6 0 .9 2 .8 4.5-.2 2.5-.8 5.6-1.3 7-.7 1.8-.7 2.4.1 2.3.7-.2 1.8-2.3 2.5-4.8.8-2.5 1.4-6 1.4-7.8 0-1.7.4-3.2 1-3.2s1 1 1.1 2.3v6.2l-.1 4c2.4-5.4 3-8.7 3-10.8 0-2 .4-3.7 1-3.7s1.2 1 1.5 2.3c.2 1.2.2 3.3-.1 4.7-.5 2-.3 2.2.5 1 .6-.8 1-3.4 1-5.8 0-2.3.5-4.2 1.1-4.2.6 0 1.2.6 1.4 1.3.3.8 1 .6 2.3-.8a20.3 20.3 0 0 1 9.3-5.8c1.6-.3 4 .2 6.3 1.4 2 1 4.4 3 5.2 4.2a18 18 0 0 1 2.1 5.2c.5 2.2 0 4-1.7 6.5-1.3 2-3 4-3.9 4.8-.9.7-2.9 1-5 .7-2-.3-4.3-1.3-5.3-2.3-1-1-2.2-3.3-2.7-5.2-.6-2.3-.5-4.2.2-5.5.6-1.1 1.8-2.6 2.7-3.2.9-.7 2.5-1.3 3.6-1.3s3.2.8 4.8 2c1.5 1.1 2.7 3 2.7 4.3 0 1.2-1 3.2-2.2 4.4-1.3 1.3-2.8 2.3-3.3 2.3-.6 0-1.9-.9-3-2l-2-2 4.7-4.5c-1 5-.9 5.4.6 5.2 1.2-.1 1.7-1.1 1.7-3.2 0-2.6-.4-3-3-3.3-2-.2-3.4.2-4.2 1.5-.8 1.2-.9 2.9-.2 5.3.5 2 1.4 3.8 2.1 4.2.7.4 2.4.8 3.8.8s3.5-1 4.6-2.2c1.2-1.3 2.4-3.3 2.8-4.6.4-1.3-.1-3.5-1.3-5.4-1-1.8-2.6-3.6-3.5-4-.9-.5-3.5-.8-5.8-.8-3.2 0-4.9.6-6.5 2.2a18 18 0 0 0-3.3 5.3c-.8 2.2-.8 4.2 0 7.3.7 3 1.9 4.7 4.3 6.2 1.7 1 5.2 2 7.7 2.1 2.5.1 5.5-.3 6.8-1a14 14 0 0 0 4.2-4.3c1.3-2.2 2-5 2-8.6 0-3-1-7.7-2.4-11.4A207.8 207.8 0 0 0 252 206l-3.7-7.5c-2.5-5.4-2.7-7-2.7-17.5 0-9.7.3-12.5 2.3-18 1.4-3.6 3.3-7.7 4.3-9.3 1-1.5 1.7-3 1.6-3.2a23 23 0 0 0-5.8-1.4 70 70 0 0 1-10.5-3c-2.8-1-9.4-2.2-15-2.6a304 304 0 0 0-16.4-1h-6.4c-2 7.8-2.6 11.5-2.7 13.3 0 1.7.4 3.4 1 3.7.6.3 1 1.7 1 3.3 0 1.5-.7 3.4-1.6 4.2-.9.8-2.5 3-3.6 5l-5.3 10a88 88 0 0 0-4 8.3c-.3 1 .5 2.7 2 4.2 1.4 1.4 3.3 2.5 4.3 2.5s2.6.6 3.7 1.4c1.7 1.2 1.8 1.6.5 2.1-.8.4-3.9-.5-6.8-2-3.8-1.8-5.3-3.2-5.7-5-.3-1.6.8-5.2 3-10 2-4.1 3.5-8 3.5-8.5 0-.6 1.7-3.1 3.7-5.8 3.5-4.6 3.6-4.8 2.6-9.7-.8-4-.7-6 .5-10 1.2-4.2 1.3-6.2.3-12.5-.7-4.1-2.1-10.9-3.2-15s-3-9.7-4.2-12.3l-2.2-4.8-97.5.1"/><path class="shp3" d="M189.6 106c-.3.5 0 1.3.7 1.6.6.3 2.3.4 3.6.2 1.3-.2 2.6-.9 2.8-1.5.2-.9-.9-1.3-3.1-1.3-2 0-3.8.5-4 1zm12.9.7c-1.7.9-4 2.4-5.3 3.5L195 112c3.4.4 5 1.5 5.5 2.6.5 1.2 1.9 3.1 3 4.3 1.1 1.2 4 2.8 6.3 3.6 2.6 1 4.4 1.1 4.7.5.3-.5-.5-3-1.8-5.6l-2.2-4.6c5-4.5 6.5-6.3 6.5-6.8 0-.6-2.6-1-5.8-1-3.2 0-7 .8-8.7 1.7zm18.5-1c0 .5 1 2.7 2.3 5l2.2 4.2a46.7 46.7 0 0 0-7.5 8.3c0 .5 2.7.8 6 .8 5.4 0 6.3-.3 8.8-3 2.6-2.8 2.9-2.9 6.5-1.7 2.4.8 3.7 1.8 3.7 3 0 1 1 2.8 2.3 4 1.2 1.4 4.1 3.2 6.4 4 3.4 1.3 4.4 1.4 4.8.4.3-.6-.1-3.2-1-5.7l-1.6-4.5c5.5-4.3 7.1-6.4 7.1-7.5 0-1.7-.6-2-4.8-1.8-3.1 0-6.3 1-9.4 3a21.2 21.2 0 0 1-6.6 2.8c-1 0-4.4-2.7-7.7-6-4.4-4.3-6.8-6-8.8-6-1.5 0-2.7.3-2.7.8zm16.7 2.5c-.2 1.8 0 4 .4 5 .5 1 1.5 1.8 2.2 1.8.6 0 2-.7 3-1.7.8-1 2-3.3 2.4-5l.8-3.3c-8 0-8.3.2-8.8 3.3zm14.3-2c-.8.7-1.3 1.6-1.2 2 .1.4 1.6.2 3.3-.5a9.8 9.8 0 0 0 3.5-2c.2-.4-.6-.7-1.9-.7-1.3 0-3 .5-3.7 1.2zm16-.3c0 .6.4 1.1 1 1.1s2.8 1.7 5 3.8c2.2 2 4.3 3.5 4.5 3.2.3-.3 0-2.3-.7-4.5-1.2-3.7-1.6-4-5.5-4.3-2.4-.2-4.2.1-4.2.7zm11 .1l1 6.3 1.1 5.2c7.3-8.6 8.9-9.7 10.1-9.2 1.4.5 1.8 1.9 1.8 5.7 0 3.8.4 5 1.5 5 .8 0 1.6-.4 1.8-.8a46 46 0 0 1 15.3-9.6c4-1.3 5-1.4 5.7-.4.5.7 2 3.8 3.4 6.8 1.6 3.4 2.9 8.1 3.2 12.3.3 3.7 1 6.7 1.4 6.7.4 0 1-.9 1.2-2 .3-1.1 2.2-3.1 4.3-4.5 2-1.3 5.7-2.8 8-3.2 3.6-.6 5.5-1.9 9.8-6.3 2.8-3 6.4-7 7.8-8.8 1.4-1.7 2.6-3.4 2.6-3.7 0-.3-18-.5-40-.5-26 0-40 .3-40 1z"/><path class="shp0" d="M362 105.8c0 .4-3.4 4.3-7.6 8.7a280.3 280.3 0 0 0-17.6 20c-1.6 1.7-2.8 3.6-2.8 4.3 0 .6-.3 1.2-.8 1.2-.4 0-2.8 4.1-5.3 9.2-2.6 5.1-5.6 11.8-6.8 14.8a32 32 0 0 0-2.1 9.3c0 2 1 5.6 2.2 8a118 118 0 0 0 14.2 20.7 66 66 0 0 1 5.6 7.5c2 3.2 2.5 5.4 2.5 10.5 0 3.6-.3 9.2-.7 12.5a46 46 0 0 1-3.8 14.3s1.6.2 3.5.2c2 0 6.8.5 10.8 1a379.7 379.7 0 0 1 29.2 5.6c3.3.8 6.4 1.3 7 1 .6-.2 1-12.5 1-34 0-29.4-.2-33.5-1.5-33-.8.2-2.2-.2-3-1.1a5.4 5.4 0 0 0-3.5-1.6c-1.1 0-2.8.6-3.8 1.3-1 .7-2 3-2.5 5-.6 3.2-.3 4.1 1.8 6.3 1.4 1.4 3.3 2.5 4.3 2.5s1.7.6 1.7 1.3c0 .6-1 1.8-2.5 2.4a23.6 23.6 0 0 0-7.5 13.8 50 50 0 0 0 4 15.5c.7 1.4 2.3 4 3.6 5.8 1.3 1.7 2.2 3.2 1.9 3.2-.3 0-2.6-1.6-5.3-3.6a145.5 145.5 0 0 1-20.7-19.9 70 70 0 0 1-8.2-12.5 98 98 0 0 1-8.3-22.5 57 57 0 0 1-1-9.3 43.8 43.8 0 0 1 11.5-30.3c2.1-2.4 5.6-5.8 7.9-7.5 2.3-1.8 5.4-3.6 7-4 1.6-.5 3-1.2 3.2-1.7.2-.4 1.5-.7 2.9-.7a13 13 0 0 0 4.8-1c1.2-.7 2.9-.9 3.7-.6 1.3.5 1.1 1-.7 2.9a17 17 0 0 0-3.1 7.7c-.6 3-.7 6.2-.3 7 .5.8 2 2.5 3.5 3.8 2 1.7 3 2 4.6 1.2 1.1-.6 2.6-.7 3.3-.3.6.3 1.7-.3 2.4-1.3.8-1.3.9-2.8.2-4.9-.5-1.7-.6-6.9-.1-12.2.6-8 .5-9.4-1-11.2-1.4-1.6-1.6-2.6-.8-4.1.6-1.1.8-2.9.5-4-.3-1.1.2-3.1 1-4.5a14 14 0 0 0 1.5-3c0-.3-6.8-.5-15-.5a76 76 0 0 0-15 .8zm40.3 1c1.1 1 1.7 3 1.6 5.2-.2 2 .2 4.4.8 5.5.9 1.5.8 2.6-.3 4.5-1 1.8-1.3 6.6-1.4 16.8 0 11.8.3 14.7 1.8 17.2 1 1.6 2 3 2.4 3 .5 0 .8-12.2.8-27v-27c-7.4 0-7.4 0-5.7 1.7z"/><path class="shp1" d="M393.6 107c-1.2.7-1.9 2-1.8 3.5.1 1.4.4 3.2.7 4 .3 1 1.7 1.5 3.8 1.5 1.7 0 3.6-.8 4.2-1.6.6-.8.9-3 .8-5-.3-3-.6-3.4-3-3.4-1.6 0-3.7.5-4.7 1zm-178.2 4c-1.6 1.8-1.7 2.4-.7 4.5.7 1.4 1.9 2.5 2.6 2.5.7 0 1.8-.6 2.5-1.3.7-.6 1.2-2.1 1.2-3.2s-.5-2.6-1.2-3.3c-.7-.7-1.6-1.2-1.9-1.2-.3 0-1.5 1-2.5 2z"/><path class="shp3" d="M308.9 112c-3 1.7-6.5 3.8-7.9 5l-2.5 2c9.3-.2 13.2.2 14.8.9 1.5.6 4.1 2.6 5.8 4.3l3.1 3.3c-1-6.6-1.6-9.3-2-10.3l-2.3-4.5c-.8-1.5-2-3-2.5-3.1-.6-.2-3.6 1-6.5 2.5zm-22.9 3.2c-1.7 2.2-3 5-3 6.2 0 1.2.6 3 1.5 4.1 1.5 2 1.5 2 4-.8 2-2.2 2.5-3.7 2.5-8.2 0-3-.4-5.5-1-5.5-.5 0-2.4 1.9-4 4.2zm-21.4-1.2c-.4.5.3 2.8 1.4 5 1.4 2.7 1.7 4.6 1.1 5.8-.5 1-2 2.5-3.5 3.5-1.4 1-2.6 2.4-2.6 3.2 0 1.2 1.4 1.5 6.8 1.5 5.2 0 7.3-.4 9.4-2 2.2-1.6 3.5-1.8 6-1.2 2.6.7 3.5 1.5 4 4 .5 1.8 2 4 3.6 5a30 30 0 0 0 11 4c.1-.2-.7-2.4-1.8-5-1-2.7-2-5.1-2-5.6 0-.4 2-2 4.5-3.4 2.5-1.6 4.5-3.3 4.5-3.8s-1-1-2.3-1.1H300c-1.4 0-3.6.5-5 1.2a135 135 0 0 0-5.3 2.5c-1.8 1-3.4 1.1-5 .5-1.2-.5-3.1-2.4-4.2-4.1a44.3 44.3 0 0 0-14.7-11c-.4 0-1 .5-1.3 1zm-71.6.8a57.5 57.5 0 0 0 3.8 12.4c.4.4 7 1.6 14.7 2.8a331 331 0 0 1 32 6c2.8.6 6.1 1 7.5.7 2.5-.4 2.5-.4-.5-1.5-1.7-.6-4-2.4-5-4a37 37 0 0 1-3.6-6.1c-.8-1.9-2.3-3.7-3.4-4.1-1.5-.6-3 .2-6.3 3.1a17.4 17.4 0 0 1-8 4.5c-2 .4-5.6.4-8 0a26.7 26.7 0 0 1-14.4-8c-1-1.2-2-3.1-2.3-4.3-.4-1.8-1.2-2.3-3.5-2.3-1.7 0-3 .3-3 .8z"/><path class="shp1" d="M259.7 115.7c-.3.5-.4 1.3 0 1.8.2.5-.3 1.6-1.1 2.3-1.4 1-1.4 1.5-.1 4.2.8 1.7 1.8 3 2.3 3 .4 0 1.3-.5 2-1.2.7-.9.9-2.7.4-5.7-.4-2.4-1.2-4.6-1.8-4.8-.5-.2-1.3 0-1.7.4zm-216.7 7a662 662 0 0 1-11.8 15c-4.5 5.7-8.2 10.5-8.2 10.8 0 .3 5.4 7.3 12 15.5 6.6 8.3 12.3 15 12.8 15 .4 0 5.9-6.5 12.2-14.5 6.3-7.9 11.5-14.8 11.5-15.4 0-.5-3.6-5.6-8-11.2a5193 5193 0 0 1-11.8-15c-2-2.7-4-4.9-4.5-4.9-.4 0-2.3 2.2-4.2 4.8zm347-3.7c0 .5.4 1.1 1 1.3h6.5c3-.2 5.5-.8 5.5-1.3 0-.6-2.8-1-6.5-1s-6.5.4-6.5 1zm60.5 3.2a691 691 0 0 1-11.8 15.2c-4.8 6.1-8.7 11.3-8.7 11.6 0 .3 2.6 3.7 5.6 7.5l12 14.8c3.5 4.2 6.8 7.7 7.4 7.7.6 0 6.2-6.5 12.5-14.5s11.5-14.7 11.5-15c0-.3-3.6-5.1-8-10.8a5137 5137 0 0 1-12-15.4 23.7 23.7 0 0 0-4.8-5.3c-.4 0-2 1.9-3.7 4.2zm-317-.5c-1 1.6-7.1 9.5-13.5 17.8a1225 1225 0 0 1-18 22.5c-3.3 4.1-5.9 8-5.6 8.8a804.9 804.9 0 0 0 40.5 49c.6-.2 9.8-11.2 20.5-24.6 12.2-15 19.3-24.7 18.9-25.4-.4-.7-5-6.7-10.3-13.3-5.3-6.6-14-17.7-19.3-24.8-5.3-7-10.1-12.7-10.6-12.7s-1.7 1.2-2.7 2.8z"/><path class="shp3" d="M396 122.7c-.8.3-1.8 1-2.2 1.7-.4.6-.8 7.3-.8 14.8 0 12.3.2 13.9 1.8 14.4a8 8 0 0 0 4 0c2.2-.6 2.2-.8 2-15.8-.3-12.7-.6-15.3-1.8-15.5-.8 0-2.2.1-3 .4zm-87 3.5c0 .7.7 3.1 1.6 5.3 1.2 3 1.3 4.5.5 6.3a9 9 0 0 1-3.6 3.4c-1.4.7-2.4 1.8-2.2 2.3.2.6 3 1.1 6.3 1.3 4.5.1 6.7-.3 9.1-1.8 2-1.2 3.5-1.6 3.8-1 .3.6 1.2 1 2 1s1.5-.7 1.5-1.5-.7-1.5-1.5-1.5-2.1-1.2-3-2.8c-.7-1.5-2.8-4-4.7-5.8a59.9 59.9 0 0 0-5.8-4.8 11 11 0 0 0-3.3-1.6c-.4 0-.7.6-.7 1.3zm25 1.8c-2 1-4.3 3.2-5.3 5-1 1.6-1.5 3.7-1.2 4.5.3.8 1 1.5 1.8 1.5.6 0 2.6-1.6 4.2-3.6l4.8-5.8c1-1.1 1.8-2.4 1.7-2.8 0-.5-.6-.8-1.3-.8-.6 0-2.8 1-4.7 2z"/><path class="shp1" d="M303.4 132c-1.7 1.8-1.7 2.4-.6 4.8l1.3 2.7c4.2-4.4 4.6-5.5 4-7-.5-1.1-1.3-2.1-1.8-2.3-.5-.1-1.8.7-2.9 1.8z"/><path class="shp3" d="M276.4 133.8a27 27 0 0 1-4.9 3.4 13 13 0 0 1-6.3 1.2c-2.2-.3-3.1 0-2.9.8.2.7 1.2 1.4 2.3 1.6 1 .2 3.5.9 5.4 1.6a283.3 283.3 0 0 0 24 7.7 119 119 0 0 1 19.8 6.3l6.2 2.6a69 69 0 0 0 6-13.5c0-.8-.7-1.5-1.5-1.5s-3.2 1.1-5.3 2.5A23.7 23.7 0 0 1 301 149c-3.2-1-6-2.8-9.8-6.6-2.8-3-5.4-6.5-5.7-7.9-.4-2-1-2.5-3.8-2.5-1.8 0-4.2.8-5.3 1.8zm90.6.2c-2.5 1.3-3.7 1.5-4.2.7-.4-.7-.8-.9-.8-.4l-.3 1.5c0 .4-2.7 3.3-5.8 6.3a35.7 35.7 0 0 0-9 13.4c-3 7.3-3.3 8.8-3.3 18 0 6.2.7 12.5 1.8 16.5a86.9 86.9 0 0 0 18.6 33.5c1 1.1 2.2 1.8 2.5 1.5.3-.3-1-2.8-2.8-5.5a95.4 95.4 0 0 1-6.6-13c-1.8-4.4-4.2-11.4-5.3-15.5a72 72 0 0 1-2-16 42 42 0 0 1 2.2-15.5c1.3-3.8 3.4-8.8 4.8-11 1.4-2.2 5.4-6.8 9-10.3 3.6-3.4 6.2-6.1 5.6-6-.5 0-2.5.8-4.4 1.8zm.4 4.8a51 51 0 0 0-14.2 21.7 95.3 95.3 0 0 0 .3 29 76.5 76.5 0 0 0 7.1 20.3c3 6.1 5.7 11 6.1 10.7.5-.3 0-2.4-1-4.7-1.3-3-1.9-6.9-2-13.3 0-7.2.6-10.6 2.7-17a54 54 0 0 0 2.4-8c-.2-.1-1.7-1-3.3-2.2a10.3 10.3 0 0 1-3.8-4.7c-.4-1.6-.2-3.9.6-5.8a9 9 0 0 1 4.3-4.6c2.9-1.2 2.9-1.3 2.9-9.5 0-5.1.6-9.6 1.6-12 .8-2 1.3-3.7 1-3.7-.4 0-2.4 1.7-4.7 3.8z"/><path class="shp4" d="M371.3 151.3c.3 3.4.8 7.1 1.2 8.2.5 1.7 0 2.3-3.5 3.5-2.3.8-4.6 2-5.1 2.8-.5.7-.5 2.4 0 4 .4 1.5 1.4 3 2.2 3.4.8.4 2.6 1 4.1 1.2 1.6.3 2.8 1 2.8 1.6 0 .6-.9 2.2-2 3.8a44 44 0 0 0-3.8 10.2c-1.1 4.1-2.3 9.2-2.6 11.3-.3 2-.2 4 .4 4.2.6.3.8.8.6 1.3-.3.4.3 3.4 1.4 6.7 1 3.3 2.5 7.8 3.4 10 .8 2.2 2 4.1 2.5 4.3.8.1.8-.6.1-2.3a31 31 0 0 1-1-8.5c0-4 .5-6.5 1.5-7.5.8-.8 1.5-1.8 1.5-2.3 0-.4.9-1.8 2-3.2l2-2.5c-3.8-3.9-5.1-6.1-5.5-7.5-.4-1.5 0-4 1-6.3.8-2 2.3-4.1 3.3-4.7 1-.5 2-.6 2.4-.2.4.4 1.5 0 2.3-.8.9-.8 1.6-3 1.5-4.8 0-2.5-.6-3.5-3-4.7-1.6-.8-4.1-1.5-5.5-1.5-1.4 0-3.6-.4-5-1s-2.3-1.4-2-2c.3-.6 1.5-1 2.8-1a24.7 24.7 0 0 0 10.2-2c2.2-.9 2.5-1.6 2.5-6 0-3.3-.4-5-1.3-5-.6 0-3-2-5.2-4.5-2.2-2.4-4.6-4.4-5.4-4.5-1 0-1.2 1.3-.8 6.3z"/><path class="shp2" d="M205 151c-1.5.6-2.3 1.7-2.2 3 .1 1.5.6 1.8 2 1.3 1-.4 4.2-.9 7.2-1 4.3-.4 6.7 0 10.8 1.8 2.9 1.3 5.3 2.7 5.2 3.2 0 .4.7.7 1.5.7s1.5-.4 1.5-1-3.3-2.6-7.3-4.5c-4-2-9.2-3.7-11.7-4-2.5-.3-5.6 0-7 .5z"/><path class="shp0" d="M256.7 152.3c-.8.6-2.9 3.9-4.5 7.2a36.7 36.7 0 0 0-3.9 16.3c-.4 5.7-.6 10.5-.3 10.7.3.2.6 2.2.8 4.4a85 85 0 0 0 8 20.3A210 210 0 0 1 266 232a45 45 0 0 1 1.3 9c0 2.5-.3 5.6-.6 7-.6 2.2-.5 2.2 1-.5 1.2-2 1.8-4.9 1.7-8.5 0-4.3-1.4-8.7-6.3-20.5-3.4-8.3-7.5-18.8-9.2-23.5-2.5-6.9-3-10.2-3.1-17.5-.1-8.7 0-9.3 4-17.5 2.4-4.7 4.1-8.6 4-8.7-.2-.2-1 .3-2 1zm4 2.4c-1 1-3 5-4.7 9-2.1 5.2-3 9-3.1 13.6-.1 3.6.7 9.3 2 13.7 1.1 4.1 3.1 9.8 4.5 12.5 1.3 2.8 4.5 10.4 7.2 17 4.3 10.5 4.9 13 4.9 19.1 0 4.9-.5 7.6-1.5 8.8-1 1.2-1.1 1.7-.3 1.6.7 0 2.1-1.7 3-3.8 1.3-2.4 1.8-5.5 1.6-9-.2-2.8-1.4-8.2-2.9-12a210 210 0 0 0-4.4-10.7 274 274 0 0 1-10.6-30.3c-1-4.4-1.3-8.4-.8-11.7a47.7 47.7 0 0 1 7-17.8c1-1 1.2-1.7.6-1.7-.5 0-1.6.8-2.5 1.8z"/><path class="shp1" d="M386.3 168.8c.1 8.6.5 15.6 1 15.4.4 0 .8-7.2 1-15.7.2-11.8 0-15.5-1-15.5s-1.2 3.7-1 15.8z"/><path class="shp0" d="M262.9 159.3a49.3 49.3 0 0 0-3.5 7.7c-.6 2-1 7.3-1 12 .2 5.1.9 9.9 1.8 12 .9 2 2.3 5.8 3.3 8.5.9 2.8 2 5.9 2.5 7l2.8 6.5a227 227 0 0 1 5.3 13 52.6 52.6 0 0 1 3.1 13c0 2.5-.5 5.6-1.1 7l-1.2 2.5c4-4.7 4.2-6 3.8-13-.2-4.4-.9-8.9-1.5-10A127.5 127.5 0 0 1 270 208a73 73 0 0 0-3-7.5 49 49 0 0 1-2.4-7l-2.7-8.3c-.5-1.2-.9-5-.9-8.4 0-3.5.7-8.8 1.5-11.8s2.1-6.5 2.9-7.8c.7-1.2 1-2.2.6-2.2s-1.8 2-3.1 4.3z"/><path class="shp3" d="M391.2 156.8c-.4 1-.9 4.3-1 7.3-.1 3 0 8.1.4 11.4.4 3.3 1.2 6.3 1.8 6.7.6.4 2.9.5 5.1.2 2.2-.2 4.3-.8 4.7-1.2.4-.4.8-5.9 1-12.2 0-6.3-.1-12-.5-12.8-.4-.7-2.7-1.2-5.7-1.2-3.8 0-5.1.4-5.8 1.8z"/><path class="shp0" d="M266.4 161.5c-2.5 4.9-2.9 6.6-2.8 13.8 0 6 .8 10.4 2.8 16.7 1.5 4.7 3.2 9 3.7 9.5.5.6 1 1.8 1 2.8 0 1 .3 2.5 1 3.4.5 1 3 7.2 5.4 13.8a70 70 0 0 1 4.5 16c0 2.2-.7 5.2-1.5 6.8-.8 1.5-1 2.7-.5 2.7.6 0 2-2 3.4-4.3 2-3.7 2.3-4.9 1.6-9.7a58 58 0 0 0-1.5-7.5l-2.6-6.3a97.6 97.6 0 0 0-5.4-12.8c-2-4-4.8-11.3-6.4-16.2a35.2 35.2 0 0 1-2.5-16.4c.2-4.3.8-8.6 1.3-9.6l2-5c.6-1.7.7-3.2.2-3.2-.5 0-2.1 2.5-3.7 5.5zm6.4-2.3c-.8 1.3-2 4.4-2.6 7a52 52 0 0 0-1.2 10.3c0 3.4 1.1 8.8 3 14.3a240.1 240.1 0 0 0 8.9 22.7 735.8 735.8 0 0 1 4.5 11.5c.9 2.5 1.6 7.2 1.6 10.5 0 4.8-.4 6.8-2.5 9.8-1.4 2-2.2 4-1.8 4.2.5.2 1.6 0 2.6-.5 1-.6 2.6-2.8 3.7-5 1.2-2.4 2-6 2-9.3 0-2.8-.8-7.9-1.9-11.2-1-3.3-3.5-9.2-5.4-13-1.8-3.8-5-11-7-16s-4-11.7-4.6-15c-.6-3.3-.8-7.6-.5-9.5l1.8-8a30 30 0 0 0 1-4.7c0-.2-.7.7-1.6 2zm3.8 2.4c-1.1 2.4-2 6.7-2 11.4-.3 6.1.2 8.9 2.4 15a436 436 0 0 0 10.3 25c1.4 3 3.3 7.8 4.3 10.5 1 2.8 1.8 8 1.8 11.7 0 5.4-.3 7.2-2.1 9.7-1.3 1.7-2 3.4-1.8 3.8.4.5 1.3.4 2.2-.2.8-.6 2.4-2.6 3.5-4.5 1.6-2.8 1.9-4.8 1.4-10-.3-3.6-1.4-9-2.4-12a157.2 157.2 0 0 0-7.7-18.5l-4.2-9.5a83.3 83.3 0 0 1-4.7-15c-1.5-7.6-1.6-9.2-.3-14.4a45 45 0 0 0 1.3-6.4c-.1-.2-1 1.3-2 3.4z"/><path class="shp2" d="M206.1 161.5c1.3 1.3 1.8 2.7 1.4 4-.3 1.1 0 3.3.5 5 .8 2.1.8 3 0 3.3-.5 0-1 .5-1 1 0 .4 2.6.5 5.8.3 3.7-.2 6.4-1 7.7-2.2 1.1-1 4.3-2.2 7-2.7 2.8-.5 3.9-1 2.5-1-1.5-.2-4.5-2.1-7.8-5.2l-5.2-5-12.9.5"/><path class="shp0" d="M214.8 163.5c2.8 1.4 5.4 2.5 5.7 2.5.3 0 .5-.3.5-.8a13.6 13.6 0 0 0-8.7-4.2c-2.4 0-2 .4 2.4 2.5zm74-.9c-1 1.3-1.1 3.2-.6 7.8.5 3.3 1.6 8.3 2.6 11.1a238 238 0 0 0 7.9 17.5c3.4 6.9 7.5 16 9.2 20.3 2.5 6.3 3.1 9.1 3.1 15.4 0 5.8-.5 8.8-2 11.8-1 2.2-1.8 4.2-1.5 4.5.2.3 1.6-.3 3-1.3s3.3-3.4 4.3-5.4c1-2.1 2-5.6 2-7.8.2-2.2-.9-7.5-2.3-11.8-1.4-4.2-3.6-9.8-4.9-12.4-1.3-2.7-4.3-7.7-6.5-11.3-2.3-3.6-5-8.5-6.2-11-1.2-2.5-3.2-7.7-4.4-11.5a33 33 0 0 1-1.8-12.3c.2-2.8.2-5.2 0-5.2-.3 0-1 .7-1.8 1.6z"/><path class="shp3" d="M405.8 165.5a159 159 0 0 0-.3 6.2c0 .9.6 1.8 1.3 2 .9.2 1.2-1.5 1.2-6.2 0-3.7-.4-6.5-1-6.5s-1.1 2-1.3 4.5z"/><path class="shp0" d="M284.6 163.3a38 38 0 0 0-.9 4.2c-.3 1.7.2 6.2 1 10s5.6 16.4 10.5 28c8.5 19.8 9 21.5 9.5 29.5.5 8.3.4 8.6-2.6 12.8-1.7 2.3-2.6 4.2-1.9 4.2.7 0 2-.6 2.9-1.3.9-.6 2.4-2.8 3.4-4.7a32.7 32.7 0 0 0 .6-23c-1.2-3.6-6-14.3-10.6-23.8a190.3 190.3 0 0 1-10.6-24.7c-.4-.6-.6-3.6-.4-6.8.2-3.1.2-5.7 0-5.7-.3 0-.7.6-1 1.3zm8.4 4.7c0 2.8.8 7.4 1.7 10.3 1 2.8 3.7 9.2 6.2 14a601.6 601.6 0 0 0 10.8 19.7c1.7 3 4 8.3 5.2 11.8 1.2 3.6 2.1 8.7 2.1 12.2a21 21 0 0 1-1.7 9.3 36 36 0 0 1-3.3 5c-.8 1-1 1.8-.5 1.8a23.5 23.5 0 0 0 8.5-9.6c.7-1.7 1.2-4.8 1.1-7 0-2.2-1.4-7.8-3.1-12.5-1.7-4.7-6.4-14.1-10.4-21l-8.9-15.5c-.8-1.7-2.2-5-3-7.5-1-2.5-1.7-5.5-1.7-6.8 0-1.2-.4-2.4-1-2.7-.6-.3-.8-1.8-.6-3.5.3-1.7 0-3-.4-3-.6 0-1 2.3-1 5zm5.5-3.3c-.5.3-.8 1.8-.7 3.2.1 1.4.9 5 1.8 8.1a128 128 0 0 0 14.4 29.3c0 .4 1 2.4 2.3 4.4 1.3 2.1 3.8 7.4 5.6 11.8 2.4 5.7 3.4 9.7 3.5 14 0 4.4-.5 7.1-2.2 10.3L321 250c4-2.7 6-4.8 7-6.5 1.1-1.7 2-4 2-5.3 0-1.2-.7-4.8-1.6-8A90 90 0 0 0 319 210c-.4-.3-2-3-3.4-6a32 32 0 0 1-2.7-6.5c0-.6-.7-1.7-1.6-2.5-.9-.8-3-4-4.5-7.3-1.6-3.1-3.7-8.3-4.8-11.4a46 46 0 0 1-2.5-12c-.1-.2-.6 0-1.1.4z"/><path class="shp3" d="M380.5 166.7c-1 .2-1.9.8-1.8 1.1.2.4 1.4 1.3 2.8 2 2.3 1.1 2.5 1 2.5-1.3 0-1.4-.3-2.4-.8-2.4l-2.7.6z"/><path class="shp0" d="M216 168c0 .6-.2 1.7-.5 2.5-.3 1 .2 1.5 1.3 1.5 1 0 2.3-.5 3-1.2.9-1 .9-1.6 0-2.6-.8-.7-1.9-1.2-2.6-1.2-.6 0-1.2.4-1.2 1zm91.5.2c-.3.7.5 4.2 2 7.8 1.4 3.6 4.9 10.6 7.7 15.5 2.8 5 7 12.3 9.5 16.3 2.4 4 5.7 10 7.4 13.4 2.5 5.2 3.1 7.6 3.3 13.6 0 6 .3 7 1.4 5.4.7-1 1.3-3.7 1.3-6.2v-6.5c-.2-1.1-1.6-4.7-3.2-8s-4.3-8.3-6.1-11a748 748 0 0 1-9-14.6c-3.1-5.2-7-12.7-8.7-16.7-1.7-4-3.1-7.7-3.1-8.3 0-.6-.4-1.4-1-1.6-.4-.3-1.1.1-1.5.9zm-27.9 6.3c.5 5 2.2 10.8 6.1 21 3 7.7 6.3 15.8 7.3 18 1 2.2 3 7.2 4.3 11 1.7 4.7 2.4 8.8 2.3 12.6 0 4.4-.7 6.3-2.9 9.2-1.5 2-2.4 3.7-2 3.7.5 0 2-.8 3.6-2s3.1-3.6 3.8-6.3c.6-2.4.8-6.6.5-9.7a107.3 107.3 0 0 0-8.6-24.5 212.7 212.7 0 0 1-11-26c-1.2-3.3-1.9-6.4-1.7-7 .2-.6-.2-2.3-1-4-1.2-2.7-1.2-2.4-.7 4zm23.9-2.3c.4 2.4 2.3 7.7 4.2 11.8 2 4.1 7.3 14.3 11.9 22.5 4.5 8.3 9.2 17.8 10.3 21.3 1.2 3.4 2.1 8.1 2.1 10.4 0 3-.6 5.3-2.2 7.3-1.2 1.7-3 3.6-3.8 4.3-1.3 1.1-1.1 1.2 1 .6 1.4-.3 3.5-1.2 4.8-2 1.5-1 2.5-3 3.2-6.4.6-2.8.7-7.1.4-9.8-.4-2.6-2.2-7.8-4.1-11.7l-6.8-13c-1.8-3.3-4-6.7-5-7.5-.9-.8-1.6-2-1.5-2.5a23 23 0 0 0-3.3-6 90.7 90.7 0 0 1-6.6-12.3c-1.7-4-3.1-8.1-3.1-9.2 0-1.1-.5-2-1.1-2-.8 0-.9 1.4-.4 4.3zm10.2-2.4c-.3.4.1 3 1 5.7.8 2.8 4 9.3 7 14.5 3 5.2 7.7 12.7 10.4 16.5 2.6 3.8 5.9 9.5 7.3 12.5 2.6 5.5 2.6 5.5 2.6 2 0-2-1-5.5-2-8a81 81 0 0 0-7.4-11.5c-2.9-3.8-6.8-9.3-8.7-12a68 68 0 0 1-5.2-9 31.6 31.6 0 0 1-2.6-10.8c0-.4-.5-.7-1-.7-.4 0-1 .3-1.4.8zm91.3 12.4c-1 4.7-1.4 15.5-1.4 41.2l-.1 34.9 4.5 1.7c0-65.1-.4-84-.8-84-.5 0-1.5 2.8-2.2 6.3z"/><path class="shp3" d="M396.3 184.7c-3.2.3-3.3.5-3.4 5l.1 34.8c.1 21.3.5 30.4 1.3 31.3.7.8 2.3 1.2 3.7 1l2.5-.3c.4-56.2.2-72.4-.2-72.3l-4 .5z"/><path class="shp2" d="M202.8 186.5l-.2 4c0 2.1-.7 3-2.1 3.3-1.1.2-3.3-.7-5-1.9-2-1.5-3.4-1.9-4.3-1.3-.8.5-1.4 1.3-1.5 1.9-.1.6 1 1.1 2.3 1.3 1.4.1 3.5.8 4.8 1.5 1.6.9 3 1 5 .2a7.2 7.2 0 0 0 3.7-3.8c.8-2.2.7-3-.8-4.4-1-1-1.8-1.4-1.8-.8zm-2.3 15.3c-1 1-1.8 2.2-1.7 2.5.1.4 1.7 1 3.4 1.3 1.8.4 4.5 1.3 6 2 1.6.8 4.7 3 7 5.2 3.7 3.4 4.3 3.6 8.2 3 2.2-.4 5.1-1.8 6.4-3a8 8 0 0 0 2.2-5.3c0-1.7-.5-3.6-1.2-4.3-.7-.7-2-1.3-2.8-1.3-.8 0-2.2.8-3 1.7-1.4 1.6-1.3 1.7.5 1l3-1c.6 0 1 1.4 1 3.3a6 6 0 0 1-2.7 5.5c-2.5 2-3 2-6 .6-1.7-.8-4.4-3-6-5-1.5-2-3.8-4.5-5-5.8a8 8 0 0 0-4.9-2.2c-1.4 0-3.4.8-4.4 1.8zM195 208c0 1.4.6 3.4 1.4 4.5.8 1.1 1.2 2.9.9 4-.3 1.1-.1 3 .5 4.3 1 2 1.3 2.1 4.1.7 1.7-.8 2.8-2 2.5-2.5-.3-.6-1.2-.5-2.4.3-1.1.6-2.4.9-2.8.5-.4-.5-.5-1.5 0-2.3.4-1 2.1-1.5 4.7-1.5 2.2 0 4-.4 4-1s-1.8-1.9-4-3-4.7-2-5.5-2c-.8 0-2-1-2.4-2.3-1-2.2-1-2.2-1 .3z"/><path class="shp0" d="M102 232.5c0 .8.5 2.4 1 3.5s1.7 2 2.5 2 1.7-1 1.8-2c.2-1.2-.1-2.8-.7-3.6a3.8 3.8 0 0 0-2.8-1.4c-1 0-1.8.7-1.8 1.5z"/><path class="shp2" d="M208.6 237.4c-.5.5-.9 2.7-.8 4.8.1 2-.7 6-1.8 8.8-1.4 3.4-1.6 4.9-.8 4.7.7-.2 2-1.8 3-3.5 1.3-2.3 1.7-5 1.5-9.4-.1-3.7-.6-5.9-1.1-5.4z"/><path class="shp0" d="M107.5 240c-2 2-2 2.2-.2 7.3a70.7 70.7 0 0 1 3 10.4c.4 1.3 1.2 2.3 1.7 2.3s1 1.2.8 2.8c0 1.5 1 5 2.6 7.7 1.5 2.8 3.3 5.6 4 6.3.9 1 1.6 1 3.9 0 1.5-.7 2.7-2 2.7-3s-.3-2-.8-2.2c-.4-.2-2.4-3.2-4.4-6.7-2-3.5-4.9-10-6.3-14.4-1.5-4.4-3.2-9-3.9-10.3l-1.2-2.3m7.3 4.1c-1.4 2.4-1.5 3.8-.7 7 .5 2.2 2 5 3.3 6.3 1.3 1.4 2 3.2 2 4.7-.3 1.6 1 4.4 3.4 7.8 2 2.9 4.1 5.3 4.5 5.2.5 0 1.8-.5 3-1.1l2.6-1.5c0-.2-2.4-4.8-5.6-10.1a123.7 123.7 0 0 1-10.4-21.3 12 12 0 0 0-2 3zm-18-.3c-.3.5-.2 2 .4 3.6.7 2 1.3 2.5 2.6 2 1.4-.7 1.6-.4 1 1.7-.4 1.4 0 5.4 1 9 .8 3.6 1.9 7 2.3 7.5.4.6 1.1 2.6 1.5 4.5.4 2 1.8 5.4 3.1 7.8 1.3 2.3 2.7 4.2 3.2 4.2.4 0 1.5-.5 2.5-1.2 1.8-1.2 1.7-1.6-1.7-7.8-2-3.6-4.7-10.3-6.1-15-1.5-4.7-3.1-9.6-3.8-11-.6-1.4-1.8-3.3-2.7-4.3-.8-1-1.8-1.8-2-1.7-.4 0-1 .3-1.3.8zm31.6 6c-1.2 2-1.5 4-1 6.8.3 2.2 2.3 6.4 4.4 9.3 2.3 3.1 4.4 5.2 5.3 5 .8-.2 1.6-1.3 1.8-2.6 0-1.2-1-4-2.3-6.2-1.8-3-3.2-4-5-4-1.4 0-2.5-.4-2.5-1s.7-1 1.5-1 1.8-1 2.1-2.3c.3-1.2.3-3.2 0-4.4-.3-1.3-1-2.3-1.6-2.3-.5 0-1.7 1.2-2.7 2.8z"/><path class="shp1" d="M338.2 252.8c-1.9 2-6.9 8.9-11 15.2a315.5 315.5 0 0 0-25.9 49.5 318 318 0 0 0-6.2 18 173 173 0 0 0-4.6 19l-2.8 18.5c-.7 5.2-1.2 14.7-1 21 0 6.3.2 14 .3 17 0 3 .6 8 1 11l2.5 15.5c1 5.5 2.3 11.7 3 13.8.9 2 1.3 3.7 1 3.7-.3 0 0 1.7.6 3.8a711.4 711.4 0 0 0 9.4 29.2l5 12.5c2.1 5 5.8 13 8.1 17.8 3.7 7.4 4.7 8.7 6.6 8.5 1.4-.2 2.4-1 2.6-2.3.2-1.1-.9-3.8-2.3-6a224.2 224.2 0 0 1-21.7-49.5 254.4 254.4 0 0 1-11.3-49.5L290 406a89.4 89.4 0 0 1 .5-27 254.1 254.1 0 0 1 9.1-46 382 382 0 0 1 15.1-34.5 183.7 183.7 0 0 1 19.8-32c2.7-3.3 6.7-8 9-10.2 3.9-4.2 4-4.3 2-5.8a8.3 8.3 0 0 0-2.9-1.5c-.5 0-2.4 1.7-4.4 3.8z"/><path class="shp0" d="M97.5 252c-.3.8-.5 2.4-.3 3.5s1 2 1.8 2a2 2 0 0 0 1.8-1.5c.1-.8-.4-2.4-1.2-3.5-1.2-1.7-1.6-1.8-2.1-.5z"/><path class="shp3" d="M345.4 257.8a455 455 0 0 0-8.6 9.7 223.3 223.3 0 0 0-20.5 32.5l-7.6 16a263.8 263.8 0 0 0-10.5 30 122.2 122.2 0 0 0-3.8 23c-.3 3-1 6.4-1.4 7.5-.5 1.1-.7 10.6-.6 21 .2 10.4.5 19.4.9 20 .3.6.8 3.5 1.2 6.5a278.7 278.7 0 0 0 9.4 41.5 231 231 0 0 0 24.5 56l2.1 2.8c12.4-5 16.7-6.9 17.5-7.3l9.3-4.4c4.2-2 7.7-4 7.7-4.6 0-.6-2.8-4.3-6.3-8.3-3.4-4-8.3-10.4-10.8-14.2l-8.4-13a132.8 132.8 0 0 1-11.3-21.5 169.9 169.9 0 0 1-13.5-58c0-3.6 0-8.8.2-11.5.3-2.8 1.2-9 2.2-14a143.8 143.8 0 0 1 10-33.5 269 269 0 0 1 14.6-27.6l7.4-11c2.5-3.8 11.6-14 20.2-22.6 8.6-8.7 15.4-16 15-16.2l-9.3-2-14.5-2.6c-3.3-.6-6.7-1-7.5-1-.8 0-4.3 3-7.6 6.8z"/><path class="shp0" d="M230.9 258.8a87.5 87.5 0 0 1-41.7 17.2c-1.2 0-2.2.6-2.2 1.3a86 86 0 0 0 3.6 10.2l7 19.5 4.5 12.5c.4 1.1 1.3 4.5 1.8 7.5l3.1 14.5a143 143 0 0 1 2.6 14.5l1.4 10.5c.5 2.8 1 9.7 1.2 15.5v19.5c-.2 5-.7 10.4-1.2 12-.5 1.6-1.7 7.7-2.6 13.5a198.2 198.2 0 0 1-8.4 32.3c-.6 1-1 2.1-1 2.7 0 .6-1.1 3.5-2.5 6.5s-2.5 5.7-2.5 6c0 .3-3 6.8-6.8 14.5-3.7 7.6-6.6 14-6.4 14 0 0 2.2-3 4.6-6.8a71 71 0 0 0 6-10.7c.7-2.2 2.7-6.7 4.4-10 1.6-3.3 4-9 5.2-12.5a166.2 166.2 0 0 0 6.4-19 320 320 0 0 0 4-15.5 144.5 144.5 0 0 0 3.2-22.5c.3-2 .5-7.6.5-12.5 0-5-.3-14-.6-20a156.8 156.8 0 0 0-3.1-25l-1-6.5-2.3-11a593.1 593.1 0 0 0-8.1-30.5c-1.2-3.9-3-9-4.1-11.3-1-2.3-1.9-5.6-1.9-7.2 0-2.6.4-3 2.8-3 1.5 0 5.8-1.1 9.7-2.5a89.2 89.2 0 0 0 28.6-16.2c1.6-1.1 2.5-1 5.7 1.2a23 23 0 0 0 7.2 3.2c2 .3 8.4.2 14.5-.2 6-.4 17-.9 24.5-1 7.4 0 16.4.3 20 .7l8.8 1.4c1.2.2 2.9 1 3.7 1.9 1.3 1.3 1.1 2.1-1.6 7.3a115.3 115.3 0 0 1-6.9 11.7 87 87 0 0 0-9 16.5l-4 9.5a244.3 244.3 0 0 0-11.1 32.5c-1.7 6.3-3.8 17.6-4.8 25a142.9 142.9 0 0 0-.9 31c.5 9.6 1.4 21.3 2 26a383.8 383.8 0 0 0 14.5 61l4.5 12.5c.5 1.1.6 2.4.1 2.8-.4.4-3 1.2-5.8 1.8-2.8.5-6.6 1.7-8.5 2.6-2 .9-6.8 3-10.8 5-4 1.8-9.7 5.3-12.7 7.8L259 525c-5.8-4-8.2-5-9-5a117 117 0 0 1-12-1.2c-.8-.1-6.2.1-12 .6s-16.1.9-23 .9c-6.9 0-15-.3-18-.7-3-.4-6.5-1.3-7.8-2-1.2-.6-2.2-1.7-2.2-2.4 0-.6 1-3.1 2.1-5.5 1.2-2.3 1.6-3.8 1-3.2-.5.6-2.6 3.7-4.6 7-2 3.3-3.6 6.2-3.6 6.5 0 .3 4 1.3 8.8 2.4a112.5 112.5 0 0 0 32.8 3.1c5.5-.3 14.3-1 19.5-1.6a43 43 0 0 1 14 0c2.5.6 6.4 2.4 8.8 4 2.3 1.8 4.8 2.8 5.4 2.4.7-.3 3.8-2.5 6.8-4.8 3-2.4 8.2-5.6 11.5-7.3a83 83 0 0 1 25.3-8c3.4-.4 6.4-1.1 6.6-1.7.2-.6-.5-3-1.6-5.5l-3.3-7.5a425.2 425.2 0 0 1-11.6-35.5 387 387 0 0 1-6.4-31.5l-1.1-8-1.5-10c-.6-4.8-.8-13.4-.4-21.5.3-7.4 1-15 1.5-17s1.4-7.8 2-13c.6-5.2 1.5-10.9 2-12.5l3.8-12.5a304 304 0 0 1 6-17 413.4 413.4 0 0 1 27-52.4 130.6 130.6 0 0 0-34.3-4c-7.7 0-20.5.2-28.5.4l-14.5.4c-9-5.7-11.6-7.4-11.8-7.3l-5.8 4.7z"/><path class="shp2" d="M355 254.8c-1.4.2-4.1 2-6.1 4-2.7 2.8-3.5 4.3-3.2 6.2.3 1.8-.6 3.5-3.2 6.3-2 2-4.3 3.7-5.3 3.7s-2.6 1-3.7 2.2a71 71 0 0 0-4.3 5.6 12.8 12.8 0 0 0-2.2 5.7c0 1.4-1.4 5-3 8.3a40.8 40.8 0 0 1-6.2 8.8c-1.8 1.7-4 4.6-5 6.5-1.2 2.5-1.3 4-.6 5.4.7 1.5.4 3.4-1.3 7.5-1.2 3-3.5 6.9-5 8.5-1.9 2-3 4.7-3.6 8.3-.4 2.8-.5 5.6 0 6 .3.4.2 3.4-.4 6.7-.8 4-1.9 6.7-3.5 8.3a7.6 7.6 0 0 0-2.4 6c0 2.1.6 4.3 1.5 5.2 1 1 1.6 3.2 1.5 6.3 0 4-.4 5-2.5 6.2-2 1.2-2.5 2.3-2.5 6 0 2.7.5 4.7 1.3 5 .6.3 1.6 3.4 2 7.2.6 5.6.5 7-.8 8.3-1.2 1.1-1.4 2.5-.8 5.5.4 2.3 1.7 4.9 3 6a6.7 6.7 0 0 1 2.3 4.5c0 1.4.4 4 1 6 .6 2.3.6 3.8 0 4.5-.7.6-.9 3-.4 6 .4 3.3 1.4 5.7 3 7 1.2 1.1 3.2 4.7 4.4 8 1.8 4.9 2 6.5 1 8.5-.8 2-.7 3.3.6 6.5.9 2.2 2.6 5 3.8 6.3 1.1 1.2 2.6 2.3 3.1 2.3.6 0 2.8 3.8 5 8.5 3.3 7 3.8 8.6 2.7 9.6-1.1 1-1.1 2 0 5.1a23 23 0 0 0 9 10.7 94 94 0 0 0 9-4c4.6-2.2 9-4.6 10-5.3a8 8 0 0 0 2.3-3.7c.5-2-.1-3.4-3-7-2.1-2.5-4.5-5-5.4-5.6-.9-.7-2-1-2.6-.7-.6.2-2.4-1.3-4-3.4-1.7-2-3.9-5-4.8-6.6a12 12 0 0 1-1.5-6c.1-2-.8-5-2.4-7.7a26 26 0 0 0-4.2-5.8c-.9-.6-2-1-2.6-.7-.6.3-1.8-.7-2.9-2.3-1-1.5-2-4.3-2.4-6.2-.5-2.6-.2-4 1-5.3 1.6-1.6 1.7-2.3.6-5.7a18 18 0 0 0-4.4-6.8c-2.2-2-3.2-3.9-3.6-7.2-.4-2.9-.2-4.8.6-5.3.6-.4 1.1-2.4 1.1-4.4 0-2.3-1-5.2-2.3-7.3-1.3-2-2.6-5-3-7-.4-2.6 0-4.2 1.4-6 1.1-1.4 2-3.6 2-5a9 9 0 0 0-1.6-4.5 15 15 0 0 1-1.5-7.3c0-3.3.5-5.4 1.3-5.7.6-.3 1.9-2.3 2.7-4.5 1.2-3.4 1.3-4.5.3-6a10 10 0 0 1-1.3-4.8c0-1.5.6-4.4 1.3-6.6.6-2.1 1.9-4.2 2.7-4.6.8-.4 2.3-3 3.4-5.6 1.1-3 1.6-6 1.2-7.9-.4-2.2.2-4.7 2.4-9.3 1.6-3.4 3.6-6.2 4.3-6.2.6 0 2.1-1 3.3-2.2 1.1-1.3 2.6-3.8 3.2-5.6.8-2.1.9-3.7.2-4.7-.7-1.1-.1-3 2.4-7.3 2.8-4.6 4-5.8 6.7-6.4 2.3-.5 4.3-2 6.1-4.5 1.5-2 2.8-5 2.8-6.3 0-1.4 1-4 2.3-6 1.2-1.8 3.1-4 4.2-4.7a9.6 9.6 0 0 1 4.5-1.3c1.6 0 4-1.6 6.8-4.5 2.3-2.5 4-5.3 4-6.3-.2-1-2-2.2-4.3-3a61 61 0 0 0-8.6-2c-2.5-.4-5.6-.6-7-.4z"/><path fill-rule="evenodd" class="shp1" d="M172.8 257.3a38 38 0 0 1 6.3 10.2 520 520 0 0 1 6.4 13 463.2 463.2 0 0 1 7.7 19.5 235.1 235.1 0 0 1 6.1 20 513.5 513.5 0 0 1 9.4 48.5 158.8 158.8 0 0 1 .4 28 230.8 230.8 0 0 1-14 68.5 370.8 370.8 0 0 1-19.7 39.8c-2.4 4-4.4 7.4-4.4 7.7a99.2 99.2 0 0 1-12.8 17.8c-2.8 2.8-4.5 3.7-7 3.7-1.7 0-3.2-.3-3.2-.8 0-.4 2.8-3.6 6.3-7.2 3.4-3.6 9.3-11 13.1-16.5a183.7 183.7 0 0 0 20-36.5c1.3-3.6 3.1-7.9 4-9.5.9-1.6 1.6-3.4 1.6-4 0-.6.7-2.6 1.7-4.5.9-2 2.3-5.8 3-8.5a346.6 346.6 0 0 0 7.3-36 189 189 0 0 0-2.5-58.5l-1.9-10a147 147 0 0 0-7.6-27 567 567 0 0 0-9.3-25.5c-2.4-6-6.9-15.4-10-20.8-5.1-8.7-5.5-9.8-4-10.7 1-.5 2.4-.9 3.1-.7zM390 257c1.2 0 2.3.4 2.6 1 .3.6-1.4 2.7-3.6 4.8-2.3 2-5.1 4.4-6.3 5.2-1.2.8-7.5 7.1-13.9 14a157.3 157.3 0 0 0-12.9 15 181.3 181.3 0 0 0-19.7 35.5 128.5 128.5 0 0 0-10.6 32.5 53 53 0 0 1-2 8.5 238.5 238.5 0 0 0-1.8 16.5 182.5 182.5 0 0 0 3.3 29 54 54 0 0 0 4 14c0 .8 1 4 2.2 7 1.2 3 2.6 5.6 3 5.8.4 0 .8 1 .8 2s.6 2.8 1.4 4.2a2471.7 2471.7 0 0 0 12 22 179.3 179.3 0 0 0 19.4 23.8c2.9 2.8 5 5.6 4.7 6.2-.3.6-1.4 1.4-2.5 2-1.6.8-2.5.5-4.6-1.8a354 354 0 0 1-23.5-32 97.7 97.7 0 0 1-11.3-21.8l-3-7.9a168.5 168.5 0 0 1-8.2-37.5c-1-8.5-1.3-18.6-1-24.3a169 169 0 0 1 2.6-19.4c1-5.4 3.4-13.9 5-18.8a228.4 228.4 0 0 1 20.3-40.2l7.6-10c2.4-3.2 11-12.4 19.2-20.6 9.6-9.6 15.4-14.7 16.8-14.7zm-32.4.4l7.9 1.6c3.3.6 5.8 1.7 5.7 2.3 0 .7-1.2 2.2-2.6 3.4-1.4 1.3-3 2-3.8 1.6a19 19 0 0 0-5.5-.7c-3.4 0-4.8-.7-8.4-5.1l2.3-1.8c1.3-1 3.2-1.6 4.3-1.3z"/><path class="shp3" d="M157 263.7l-16.9 7.2c-4.6 2-8.5 4.2-8.7 4.9-.2.6 2.5 4.7 6 9a224.1 224.1 0 0 1 32.8 54.7c1 2.8 3.5 11 5.5 18.5a244.8 244.8 0 0 1 5.4 26c.7 4 1 9.4.5 14l-1 10-2 11a160.6 160.6 0 0 1-11.6 35.3c0 .4-2.3 4.9-5.1 10l-7.6 13.7c-1.3 2.5-5.5 8.6-9.2 13.5-3.8 5-13 15-20.5 22.3a607.9 607.9 0 0 0-13.6 13.5l4.2 1.4A160 160 0 0 0 143 533c.8-.1 2.8-1.5 4.3-3a251.6 251.6 0 0 0 20-24.4 172.5 172.5 0 0 0 18.7-35.2c0-.3 1-2.6 2-5.3l4-8.7c1.1-2.2 2-4.8 2-5.8s.4-2.5.9-3.4a85.8 85.8 0 0 0 4.6-17.8c.3-2.8 1-7.3 1.5-10a156.8 156.8 0 0 0 1.5-24.5c-.3 0-1.6 1-3 2.3-2 1.7-2.4 3.2-2.5 7.2 0 3.4.4 5.5 1.5 6.5 1.3 1.1 1.5 2.5 1 5.5-.4 2.2-1.4 4.7-2.4 5.5a16 16 0 0 0-3 6.5c-.7 2.8-1 6.4-.6 8 .3 1.6.1 5-.4 7.5-.6 2.5-1.7 5-2.4 5.5-.8.6-2.8 3.8-4.6 7.3-2.4 4.9-3 7-2.5 10 .4 3 0 4.4-1.9 7.2-1.3 2-3.6 4.7-5 6.3-1.5 1.5-2.7 3.1-2.7 3.7 0 .6-1.2 3-2.6 5.3-1.4 2.3-2.3 4.9-2 5.7.4.8-.6 3.3-2 5.5-1.5 2.2-3.6 5-4.8 6.3-1.2 1.2-2.9 2.2-3.8 2.2-1 0-3.4 2-5.4 4.3-2.3 2.7-3.3 4.9-3 6.2.3 1.4-.7 3.2-3.2 5.8-2.8 2.8-4.6 3.8-7.5 4-2.1 0-4-.1-4.3-.5-.2-.5-1.9-.8-3.7-.8-1.7 0-5-.7-7.2-1.4-2.2-.8-4.1-1.8-4.3-2.3-.2-.4 1.8-3 4.5-5.6 3-3 5.6-4.8 7.2-4.7 1.4 0 3.8-1.5 6.2-4 2.8-2.9 3.8-4.6 3.5-6.3-.3-1.4.7-3.8 3-7 2.1-3 4.6-5 6.7-5.8 2.3-.7 4.2-2.6 6.8-6.7 2.7-4.2 3.4-6.2 2.8-7.4-.6-1.2-.2-3.3 1.3-6.6 1.3-2.6 3.4-5.2 4.8-5.9 1.7-.8 3.4-3.3 5.4-8 2.2-5.1 2.7-7.2 1.8-8.3-.8-1-.7-2.6.1-5.4.7-2.2 2.4-5.1 3.8-6.5 1.5-1.5 3.1-4.4 3.8-6.6.6-2.2 1-5.2 1-6.8.1-1.5-.3-2.7-.9-2.7-.6 0-1-1.7-1-3.8 0-2.7.7-4.4 2.5-6.2 2-2 2.5-3.4 2.5-7 0-2.5-.7-5.4-1.6-6.5-.8-1.1-1.4-3.5-1.4-5.3 0-1.8.8-4 2-5.2 1.6-1.6 1.9-2.9 1.5-6-.3-2.4-1.5-5-3-6.5-1.8-1.8-2.5-3.6-2.5-6.5 0-2.2.5-4.8 1.1-5.8.7-1.1.8-3.2.2-6.2-.6-3.1-1.5-4.8-3-5.5-1.3-.6-3-2.8-3.8-5-.8-2.2-1.5-4.6-1.5-5.3 0-.6.9-2.1 2-3.2l2-2c-4-9-5-11.6-5-11.8h-2.2c-1.7.2-3-1-5.6-4.7-2.2-3.3-3.2-6-3-8 0-1.6-.6-4.4-1.4-6-.9-1.6-3-4.8-4.8-7-1.8-2.2-4-4-5-4-1.1 0-3-1.1-4.2-2.5-1.3-1.4-3.3-4-4.6-5.8a12.4 12.4 0 0 1-2.2-4.7c0-.8 1-2.4 2.3-3.6 1.2-1.2 5.8-3.9 10.2-6 4.4-2.1 8.8-3.9 9.8-3.9s3.2 1.9 5 4.2c2.6 3.5 3.2 5.2 3.3 9.8.1 3.7 1.2 7.8 3.2 12.5 2 4.8 3.8 7.4 5.6 8.3 1.5.7 3.5 3.1 4.7 6 1.7 3.6 2 5.7 1.5 9.2-.4 2.5-.3 5 .2 5.5.5.6 1.5 2.8 2.3 5 .7 2.2 2.3 5 3.6 6.3a12 12 0 0 1 2.9 5.4c.3 1.8.2 4.9-.3 6.8a19 19 0 0 0 .4 9c.8 3.4 2.1 6 3.3 6.8 1.6 1 2 2.3 2 6.2 0 2.8-.4 5-1 5s-1 2.8-1 6.3c0 5 .3 6.6 2 8.2 1.1 1.1 2 3 2 4.3 0 1.2.4 2 1 1.7.6-.3.8-4.4.5-10.8a292 292 0 0 0-3.4-30.7l-2.7-12.5c-.9-4.4-3.2-13-5.2-19-1.9-6-5.5-16.4-8-23a176 176 0 0 0-6.3-15.3l-3.9-6.7c-1.1-2-2-4-2-4.5a17 17 0 0 0-2.7-4.8l-3.3-4.4c-.3-.4-4.4 1-9 2.9zm240.2 2.3c-3.4 2.7-7.8 6.7-9.7 8.8-1.9 2-3.5 4-3.5 4.2 0 .3 3.9 3 8.7 6.2 4.9 3.1 10 6.8 11.3 8.3 1.4 1.4 2.8 2.5 3.3 2.5.4 0 .6-2.6.4-5.8l-.2-5.7c-8-4.6-10.4-6.6-10.5-7.3 0-.6 1-2.3 2.3-3.7 1.8-2 2.7-2.3 5.5-1.7l3.3.7c0-8.1-.6-10.5-1.1-10.5-.6 0-1.6-.2-2.3-.5-.7-.3-4 1.7-7.5 4.5z"/><path class="shp1" d="M235.3 264.3c-.7.7-1 2.6-.6 4.7.3 2 .8 3.9 1.2 4.3.3.4 1.7.5 3.1.2 1.8-.4 2.7-1.4 3.2-3.8.5-2.6.2-3.6-1.5-5-1.2-1-2.7-1.8-3.3-1.7-.5 0-1.5.6-2.2 1.3zm38.3 4a40 40 0 0 0-.9 3.7c-.2 1.4-.7 3.3-1 4.3-.6 1.4 0 1.7 3.3 1.7h4c-.9-6.6-1.4-9-1.6-9.8-.2-.6-1-1.2-2-1.2-.8 0-1.6.6-1.8 1.3zm11.5 4c-.7 2.8-1.1 5.3-1 5.3l3.6.8 3.3.6c-1-6.6-1.4-9.3-1.4-10.3s-.8-1.7-1.7-1.7c-1.1 0-2 1.6-2.8 5.3zm13.2-3.6l-2 5.3c-.7 2-1.3 4-1.3 4.8 0 .6 2.6 2.8 5.8 4.7 3.1 2 6 3.5 6.2 3.5a53 53 0 0 0 5.3-7.7c2.6-4.3 4.9-8.5 5-9.3.1-.8-.6-1.6-1.6-1.7-1.1-.2-2.8 1.4-5 4.8-1.7 2.9-4 5.6-5 6-1 .5-2.2.6-2.9.1-.7-.4-1-2.7-.7-6.4.4-5.1.3-5.8-1.3-5.8-1 0-2.1.8-2.5 1.8z"/><path class="shp3" d="M346.4 270.8c-2 2-3.3 4.1-3 4.7.1.6 1.8 1.4 3.6 2 3 1 3.4.8 6.6-3a15 15 0 0 0 3-4.5c-.2-.3-1.8-1-3.6-1.7-3.1-1.2-3.4-1.1-6.6 2.5z"/><path class="shp1" d="M250.4 270c-1 1.3-3 3.4-4.2 4.7-2.2 2.3-2.2 2.3-.2 3.3 1.1.6 3.3 1 5 1h3a72.8 72.8 0 0 0-1.3-10.9c-.2-.1-1.2.7-2.3 2zm10.3 2.8c-1.2 3.6-1.3 4.9-.4 5.5.7.4 2.3.4 3.7.1l2.6-.7-.2-5c-.2-4-.6-4.7-2.2-4.7-1.5 0-2.4 1.2-3.5 4.8zm-102.3-2c-.5.5-2.5 1.5-4.4 2.2-2 .8-5 2.3-6.7 3.4a11.2 11.2 0 0 0-3.8 3.6c-.3.9.8 2.8 2.7 4.7 2.4 2.3 3.7 3 4.6 2.3.6-.6 1.8-.9 2.5-.8.7.2 3.5-.8 6-2.2 2.7-1.4 5.5-3.5 6.3-4.8 1.2-1.9 1.2-2.7-.1-5.7-1-2.6-2.1-3.5-3.8-3.5-1.3 0-2.7.4-3.3.8zm66 .4c-.3.7-.1 2.4.4 3.8.6 1.4 1.3 3.9 1.4 5.5.2 1.6.8 3 1.3 3 .6 0 2.6-1.3 4.5-2.8 3.1-2.4 3.3-2.9 1.8-3.7-1-.6-3-2.4-4.6-4-1.5-1.7-3-3-3.4-3-.4 0-1 .6-1.4 1.3zm-10.3 5.5c-.8.2-.8 1.3-.1 3.8.6 2 .8 4.4.5 5.5-.3 1.1 0 2.3.8 2.6.6.3 2.9 0 5-.5 2-.6 3.9-1.4 4-1.9.3-.4-1.7-2.8-4.3-5.3-2.6-2.5-5.3-4.4-5.9-4.2zm-89.6 1.7c-1.8 1.2-1.8 1.6-.5 3 .8 1 2 1.7 2.8 1.6.6 0 1.6 1.1 2.2 2.5.6 1.4 2.6 3.7 4.5 5.3 2 1.5 3.5 3.1 3.5 3.7 0 .6 2.7 4.4 5.8 8.5a132.7 132.7 0 0 1 16 27.5 194.8 194.8 0 0 1 12.6 35A90.2 90.2 0 0 1 174 400c-.6 6.9-1.3 12.7-1.5 13-.2.3-1.4 4.1-2.5 8.5l-3 11c-.4 1.6-1 3.8-1.4 4.8-.4 1.1 0 1.8 1.2 2 1.3.3 1.2.6-.8 1.4-1.9.8-3 2.5-4.5 7.1-1.1 3.4-2.3 6.2-2.8 6.2-.4 0-.7.3-.7.8 0 .4-1 3-2.2 5.7a30 30 0 0 0-2.3 6.5c0 .8-.6 1.4-1.3 1.3-.7-.2-1.2.1-1.2.7s-1.1 2.7-2.5 4.8c-1.4 2-2.5 4.7-2.5 6 0 1.5-.6 2.2-2 2.2-1.1 0-2 .3-2 .8 0 .4-1.3 2.8-3 5.4-1.6 2.7-3.7 4.8-4.5 4.8-.8 0-1.5.6-1.5 1.3a13 13 0 0 1-2.5 4.4 13.6 13.6 0 0 0-2.5 4.3c0 .6-.6.9-1.3.8-.7-.2-3 1.7-5.2 4.2a55.3 55.3 0 0 1-6 6c-1.1.8-3.1 2.6-4.5 4-1.4 1.3-2.8 2.4-3.3 2.2-.4 0-1.8 1-3.1 2.5-2.3 2.7-2.3 2.8-.5 3.5 1.4.6 3.2-.2 6.7-2.6 2.6-2 8.1-7 12.3-11.3a227.3 227.3 0 0 0 25-29.3 218.4 218.4 0 0 0 24.7-51c1.6-5.8 3.5-13.4 4.1-17a165 165 0 0 0 1.9-18 95 95 0 0 0-1.3-22.5c-1-6-2.1-11.4-2.5-12a67 67 0 0 1-2.9-9.8 134.5 134.5 0 0 0-11.6-30.2 217 217 0 0 0-11-18.3 250 250 0 0 1-8.3-12.8c-.6-1.3-1.5-2.4-2-2.4-.4 0-2.1-1.9-3.8-4.2a80 80 0 0 0-4.8-6c-.9-1-2.2-1.8-2.9-1.8-.7 0-2.1.6-3.2 1.4z"/><path class="shp2" d="M131 278.5a47.3 47.3 0 0 0 8 10.3c.8.8 2 2.2 2.5 3.2a310.4 310.4 0 0 0 14.3 20.5c0-.3-.5-2-1.5-3.8a112 112 0 0 0-6.1-9.7c-2.5-3.6-7-9.8-10.2-13.8-3-4-6-7.2-6.3-7.2-.4 0-.7.2-.7.5z"/><path class="shp1" d="M338.2 279a9.3 9.3 0 0 0-4.7 2.6 7 7 0 0 0-1.4 2.9c0 .6.4 1.7.9 2.5.6 1 2.8 1.6 6.7 1.7 5 .2 6.2-.1 8.3-2.2 2.5-2.5 2.5-2.5.5-4.5-1-1.1-2.6-2-3.5-2-.8 0-2-.3-2.6-.8-.5-.5-2.4-.5-4.2-.1zm-136 2.8c-.7 1.2-1 2.5-.7 3 .2.4 0 2-.5 3.7-.6 2-.5 3.5.3 4.6.7 1 3.2 2 5.7 2.2 2.5.3 5.3.8 6.3 1.1 1.2.4 1.7 0 1.7-1.1 0-1-2-3.9-4.3-6.4-2.3-2.6-5-5.7-5.8-7l-1.6-2.4m87.8 4.3c-1 1.5-2 3.3-2.3 4.1-.2 1.1 1 1.4 5.7 1.2 3.3-.2 6.6-.6 7.3-1 .9-.4-.4-1.7-3.8-3.8l-5-3.2m-57 4.6c-2 2.1-5.7 4.8-8.3 6-3.3 1.6-4.7 2.9-4.7 4.3 0 1.1.7 4 1.4 6.3.8 2.3 2.6 8.7 4 14.2s2.7 10 2.8 10.2l18.3.5 18 .3a181.4 181.4 0 0 1 13.4-35.5c1.6-3 2.8-5.8 2.5-6.3-.2-.4-2.5-.7-5.1-.7-2.7 0-6.3.2-8 .5l-3.3.5c3.1 4.3 4 6.2 4 7 0 .8-1 3-2 4.8-1.1 1.7-2.9 3.4-4 3.7-2 .5-2 .6.5 4.3a14 14 0 0 1 2.5 6.2c0 1.4-.9 3.9-2 5.5a8.8 8.8 0 0 1-4.9 3.8c-2.4.5-3.8.2-6.2-1.6a20 20 0 0 1-5-6 13.3 13.3 0 0 0-5.9-5.7l-4-2c-4.7 4.6-6 7-6 8.3a8 8 0 0 0 2.2 4.5c1.6 1.6 3 2.2 4.6 1.8 1.2-.3 2.2-1.3 2.2-2.1s-.4-1.7-1-2c-.6-.3-1 0-1 .5 0 .6-.7 1-1.5 1s-1.4-.7-1.3-1.6c.2-1 1.1-2.2 2-2.8 1.6-.9 2.2-.7 3.8 1.4 1.6 2.2 1.7 2.8.4 5.3-.8 1.5-2.2 2.8-3.2 2.8H238c-.8-.1-2.5-1.3-3.8-2.7a8.8 8.8 0 0 1-2.2-5.9c0-2.7.8-4.3 3.4-6.8l6.5-6c1.7-1.5 3.4-4 3.7-5.4.4-2 0-3.3-1.3-4.6-1-1-3.3-1.8-5-1.7-2.5 0-3.6.6-4.6 2.4-1 2-1 2.8.3 4 .8 1 2 1.7 2.5 1.7.6 0 1.6-.6 2.2-1.3.7-.7 1-1.6.5-2-.4-.4-1.3 0-2 1-1.1 1.5-1.2 1.4-1-.8.2-1.5 1-2.6 2-2.7 1.2-.2 2 .6 2.4 2.4.5 2.1.2 3.2-1.5 4.6-1.4 1.1-2.8 1.5-4.2 1a6 6 0 0 1-3-2.6c-.5-1-.7-3-.4-4.4a8.5 8.5 0 0 1 2.1-4.3c1-.9 3.4-1.4 5.8-1.4 3 .1 4.6.8 6 2.5a6.5 6.5 0 0 1 1.3 5.4c-.3 1.6-.8 3.7-1.1 4.5-.5 1.3.4 1.4 6.2.9 3.7-.4 8.4-1.4 10.4-2.3 2.1-.9 4.3-2.6 4.9-3.9.8-1.6.8-2.5 0-3.2-.8-.7-1.1-.4-1 1 0 1.1-.8 2.8-1.8 3.8a4 4 0 0 1-4 1.3c-2-.5-2.3-1.3-2.3-4.6 0-2.2.4-4.2 1-4.5.6-.3 1-.8 1-1.3 0-.4-3.3-.7-7.4-.7-6.3 0-7.8-.3-9.8-2.2-1.3-1.3-2.8-2.3-3.3-2.3-.6 0-2.6 1.7-4.5 3.8z"/><path class="shp3" d="M161.4 287.8c-2.6 1.4-4.7 3-4.6 3.6a57.3 57.3 0 0 0 9.4 13.6c.7 0 3-1 5-2.3l3.8-2.2a91 91 0 0 0-7.8-14.9c-.5-.2-3 .8-5.8 2.2z"/><path class="shp4" d="M123 287.9c-2.3 1.2-3 2-2.3 2.5.7.3 1.3.2 1.3-.4 0-.6 1.1-1 2.5-1s2.6-.6 2.8-1.5c.1-.8 0-1.5-.3-1.5s-2 .9-4 1.9zm249 2.5c-2 1.8-4.5 5.2-5.8 7.5a19.1 19.1 0 0 0-2.2 9.6c0 3 .4 5.7 1 6 .6.3 1-1 1-2.8 0-1.7.5-5 1.1-7.2.6-2.2 2-5.1 3.3-6.5 1.2-1.4 3.4-4.2 4.8-6.3 1.4-2 2-3.7 1.4-3.7-.6 0-2.7 1.6-4.6 3.4z"/><path class="shp3" d="M110 290.2a472.2 472.2 0 0 0-9.6 6.3c-1.7 1.1-5.1 3.8-7.7 6-4.6 4-4.7 4.1-4.7 9.8 0 3.1.5 5.7 1 5.7s2.7-1.3 4.8-3a434 434 0 0 1 21-15.2c5-3.3 7.2-5.4 7.2-6.8 0-1.1-.8-2.3-1.8-2.6-1-.3-2.5-1-3.5-1.5s-2-.9-2.5-.9c-.4 0-2.3 1-4.2 2.2z"/><path class="shp4" d="M381.4 290.3a7 7 0 0 0-.2 3.2 3 3 0 0 0 2.5 2.3c1.2.2 3.2-.3 4.5-1.2l2.3-1.5a41.7 41.7 0 0 0-7.8-4.1c-.4 0-1 .6-1.3 1.3z"/><path class="shp3" d="M328.3 293.3c-1 1.8-2.6 4.7-3.4 6.5-.9 2.1-1 3.6-.4 4.1.6.5 2.1 1.1 3.5 1.5 2.1.5 3 0 5-3.1 1.5-2.1 3.4-5 4.3-6.6 1.7-2.6 1.6-2.7-1-3.8-1.6-.7-3.6-1.3-4.5-1.5-1-.2-2.4.9-3.5 2.9z"/><path class="shp1" d="M374.5 293.7c-1.7 2-3.8 5.3-4.7 7.3-1 2-1.8 5.4-1.8 7.8 0 3.4.4 4.2 1.8 4.2 1 0 4.4-1.5 7.6-3.3 3.3-1.8 8.3-5.3 11-7.8 2.8-2.6 4.9-5 4.6-5.2-.3-.3-2.6 0-5.2.6-4.2 1-4.9 1-6.8-.8-1.1-1.1-2-3-2-4.3 0-1.2-.4-2.2-.8-2.2s-2 1.7-3.7 3.7z"/><path class="shp0" d="M294.3 292.8c-.8.5-.1 1.6 2.2 3.4 2 1.6 3.8 2.6 4.3 2.3.4-.3-.3-1.2-1.6-2-1.2-.9-2-2.1-1.7-3 .3-.8 0-1.5-.8-1.5-.6 0-1.7.4-2.4.8z"/><path class="shp1" d="M284.2 296.3c-.6 1.7-.8 3.5-.4 4 .4.3 3.5.3 7 0a21 21 0 0 0 6.2-1.3c0-.3-1.8-1.7-4-3.3a15.5 15.5 0 0 0-5.8-2.7c-1.2 0-2.3 1.2-3 3.3zm-163.2 2c-1.3.5-2.3 1.3-2.2 1.6 0 .3 1.5 2 3.2 3.6 2.7 2.6 3.4 2.9 5.8 2 2-.8 2.7-1.8 2.7-3.5 0-1.8-.8-2.9-3-3.8a15 15 0 0 0-3.5-1.2c-.3 0-1.6.6-3 1.2z"/><path class="shp0" d="M201.4 298.1c-.2.5.7.9 2.1.9 1.4 0 2.8.7 3.3 1.6.4 1 .1 2-1 2.5-1 .5-1.8 1.6-1.8 2.4 0 .8.3 1.5.8 1.5a23 23 0 0 0 4.7-3.5c3-2.5 3.6-3.5 2.5-4a71 71 0 0 0-5.8-1.4c-2.6-.5-4.5-.5-4.8 0z"/><path class="shp1" d="M211.7 304.3c-2 1.7-3.4 3.6-3 4 .5.4 2.9.7 5.4.7 2.5 0 4.8-.3 5.2-.8.3-.4 0-2.2-.6-4-.7-1.8-1.7-3.2-2.3-3.2-.5 0-2.7 1.5-4.7 3.3z"/><path class="shp4" d="M389.9 304.3l-7 6c-1.8 1.4-2.5 2.3-1.5 2 1.8-.8 1.9-.4 1.2 6.7-.7 6.6-.6 7.7 1 9 1.8 1.4 1.8 1.4.4-.4-1.2-1.4-1.3-3-.7-7a18 18 0 0 1 1.5-5.6c.4-.3 1.5-2 2.5-4s2.9-4.9 4.2-6.5a24 24 0 0 0 2.5-3.3s-.1-.2-.3-.2c-.2 0-2 1.5-3.8 3.3z"/><path class="shp1" d="M393.3 304.8a35.6 35.6 0 0 0-8 16c-.7 3.8-.6 4.2 1.2 4.2 1.1 0 3.6-.6 5.5-1.3 2-.7 6.3-3 9.7-5.2 3.5-2.2 6.3-4.6 6.3-5.3 0-.7-1.2-1.2-2.8-1.2-1.5 0-3.8-.7-5-1.7-1.7-1.3-2.4-2.8-2.4-5.6 0-2-.3-3.7-.8-3.7-.4 0-2 1.7-3.7 3.8z"/><path class="shp0" d="M292.5 302.7c-2.2.3-4.4.9-5 1.4-.6.5-.4.9.3.9s2.8 1.2 4.8 2.8c1.9 1.5 3.5 2.3 3.5 1.7 0-.6-1.2-1.6-2.6-2.3-1.4-.6-2.3-1.6-2.1-2.2.2-.6 1.8-1 3.5-1s3.1-.4 3.1-1-.3-1-.8-.8l-4.7.5z"/><path class="shp4" d="M399.3 304.8a4 4 0 0 0 .4 3.2c.6.8 2.5 1.5 4.3 1.5 1.7 0 3.4-.3 3.6-.8.2-.4-1-1.8-2.9-3.2a16.2 16.2 0 0 0-4-2.5c-.4 0-1 .8-1.4 1.8z"/><path class="shp1" d="M246.6 305c-.3.6.1 1.6 1 2.3.9.6 2.6 3 3.8 5 1.1 2.1 3.4 4.5 5.1 5.3 1.6.8 3.4 1.4 4 1.4.6 0 2-.9 3.3-2 1.8-1.6 2-2.6 1.6-5.3-.4-1.7-1-3.5-1.3-3.8-.3-.4-1.6-1-2.9-1.3-1.3-.4-2.8 0-3.7.9-.8.8-1.5 2-1.5 2.5 0 .6.9 1 2 1s2-.7 2-1.5.7-1.5 1.5-1.5c1 0 1.4.9 1.3 2.8-.3 2.4-.7 2.7-3.8 2.7h-3.5V304c-6.5 0-8.7.4-9 1zm33.8.8l-1.5 4a13 13 0 0 0-1 3 66 66 0 0 0 14-1.5c1.1-.4-.2-1.7-3.9-4-3-1.8-5.9-3.3-6.3-3.3-.4 0-1 .8-1.3 1.8zm78 2c0 2.6.6 3.7 1.6 3.7.9 0 1.6-1 1.8-2.5.2-1.6-.4-3-1.6-3.7-1.7-1-1.9-.8-1.8 2.5zm-187.7-.5c-2 1.2-4 3-4.2 4-.3 1 0 2.6.5 3.7.8 1.6 1.8 2 5.7 1.7 3.8-.3 5.2-1 7.5-3.5 2.4-2.7 2.6-3.6 1.8-5.7-.8-2-1.7-2.5-4.3-2.5-1.7 0-4.9 1-7 2.3zm148.8.6a5.6 5.6 0 0 0-2.8 2.7c-.5 1.3-.1 2.5 1 3.6 1 1 2.8 2 4 2.3 1.3.3 3 0 3.8-.5 1-.7 1.7-.7 2 0 .3.6 1.3.3 2.5-.8 1.1-1 2.2-2.5 2.5-3.4.3-1 0-1.8-.8-1.8-.6 0-1.9-.6-2.7-1.5-.8-.9-2.9-1.5-4.5-1.5s-3.9.5-5 1z"/><path class="shp3" d="M104 310.8c-2.6 2.3-3.2 4-4.5 11.2a59 59 0 0 1-6.4 18.5c-4.2 8.2-5 11-5 15.3-.1 2.8.1 5.2.4 5.2a9 9 0 0 0 2.5-2.3c1-1.2 2-2.8 2-3.4 0-.7.6-1.6 1.3-2 .8-.5 2.2-2.2 3.3-3.8 1-1.6 2-3.2 2.4-3.5a317.6 317.6 0 0 0 8.4-23 55 55 0 0 0 1.8-7.5v-4.8c-.1-1.6-.8-2.7-1.7-2.7-.8 0-2.8 1.2-4.5 2.8z"/><path class="shp1" d="M119.8 312.8l-5.8 3.7a58.9 58.9 0 0 0 11.8 9.3A89.5 89.5 0 0 0 137 319a14 14 0 0 0-3.5-2.8c-2-1.2-4-3.3-4.8-4.7-.6-1.4-1.6-2.5-2.2-2.5-.5 0-3.6 1.7-6.7 3.8z"/><path class="shp0" d="M207 312c0 .6.9.8 2 .5 1.1-.3 2.3 0 2.6.8.4.7-.4 2-1.7 2.9-1.3 1-2.2 2-1.9 2.2.3.3 2.3-1.2 4.4-3.4l3.9-4c-7.2 0-9.3.4-9.3 1z"/><path class="shp1" d="M215.5 315.1c-2 1.7-3.5 3.5-3.5 4s2 1 4.3 1.2c2.3.2 4.6.2 5.2 0 .6-.2.7-2 .4-4.4-.3-2.1-1.1-3.9-1.7-3.9-.6 0-2.7 1.4-4.7 3.1z"/><path class="shp3" d="M350.3 320.3A88.3 88.3 0 0 0 342 339c0 .6 2.8 2.4 6.3 4.1 3.4 1.8 7.8 4.3 9.7 5.7a71.7 71.7 0 0 1 14.4 15.2c1.7 2.5 4.3 7 5.8 10.3 1.6 3.1 3.1 5.7 3.6 5.7.4 0 2.5-1.7 4.6-3.8 2.2-2 4.3-4.8 4.6-6.2.4-1.6 1.7-2.8 3.6-3.4 1.6-.5 4-1.4 5.2-2 1.4-.7 2-1.7 1.7-2.6a157.5 157.5 0 0 0-14-21.5c-3-3.9-8.6-9.7-12.3-13a63.9 63.9 0 0 0-13-8.7c-3.4-1.5-6.9-2.8-7.7-2.8-.8 0-2.7 2-4.2 4.3z"/><path class="shp1" d="M376 317.4l-3.5 1.3c4.6 4 6.3 5 6.6 4.5.4-.4.8-2.2 1-4 .3-1.7.3-3.1 0-3l-4.1 1.2zm-100.5 3.2c-.9 2-1.6 4-1.6 4.5s2.2.6 4.9.3c2.6-.4 6-1.2 7.7-1.9l3-1.2c-6.2-3.1-9-4.4-10.2-4.7-1.8-.6-2.4-.1-3.8 3z"/><path class="shp3" d="M177.9 319.9l-2.4 1.9c3.3 8.4 5 10.8 5.9 11 .9 0 2.3-.4 3.1-1a3 3 0 0 0 1-3.3l-2-6.3c-.8-2.3-1.9-4.2-2.4-4.2s-2 .8-3.2 1.9zm135.7 5.4c-1.5 3.4-2.4 6.8-2.1 7.4.3.7 1.5 1.3 2.8 1.3 1.2 0 2.7-.5 3.3-1.2.7-.7 2.2-3.7 3.5-6.6 2-4.6 2.2-5.5.9-6.3-.8-.5-2.4-.9-3.6-.9-1.6 0-2.7 1.4-4.8 6.3z"/><path class="shp4" d="M400.2 322.9c-3.3 2.2-4.8 3.7-3.8 3.9.9 0 1.6.3 1.6.4l-1.5 4.3c-.8 2.2-1.4 5.4-1.4 7 0 2.5.3 2.1 1.3-1.8a38.3 38.3 0 0 1 10-16c1.5-1.2 1.7-1.6.6-1.6-.8 0-3.9 1.8-6.8 3.8z"/><path class="shp3" d="M143 322.2c-.2.2-.4 1.2-.6 2.3l-.7 6.5a146 146 0 0 1-1.2 8.5c-.4 2.2-1 4.4-1.5 5a28 28 0 0 0-1.9 5.8c-.6 2.6-3 8.4-5.4 13-2.4 4.5-5.6 10.2-7.2 12.7a89 89 0 0 1-5.3 7.5l-9.5 10.8a59.7 59.7 0 0 1-11.5 10.4c-1.5 1.6-4.5 4-6.5 5.6-3.3 2.4-3.7 3.2-3.7 7.2 0 2.5.3 4.5.8 4.5.4 0 3.9-2.2 7.7-5a152.2 152.2 0 0 0 27.5-27 178.2 178.2 0 0 0 14.2-22 287.6 287.6 0 0 0 8-20.8l.8-4a61 61 0 0 0 1.5-7.7c.3-2.9-.2-5.3-1.8-8.4a24.7 24.7 0 0 0-2.8-4.8c-.4-.2-.8-.3-1-.1z"/><path class="shp0" d="M214.5 324.3c.4.7-.5 2-2 3-1.3 1-2.3 2-2 2.2.3.3 2.1-.7 4-2.3 2-1.5 3.5-3 3.5-3.2 0-.3-1-.6-2-.7-1.3-.1-1.8.3-1.5 1z"/><path class="shp1" d="M404.3 324.9c-1 1-2.9 4-4.2 6.5a15 15 0 0 0-2 7.8c.4 3.2.5 3.3 4.4 3 2.2-.3 4.3-.6 4.8-.8.4-.2.8-4.2.8-8.8 0-4.9-.3-8.7-1-9-.5-.4-1.8.2-2.8 1.3z"/><path class="shp4" d="M136 325.3c-1.3.6-2.5 1.8-2.7 2.4-.2.7.6 2.2 1.7 3.3 1.1 1.1 2.6 2 3.3 2 .6 0 .2-1-1-2.2a9.5 9.5 0 0 1-2.3-3c0-.5 1.1-1 2.5-1.3 1.4-.3 2.5-1 2.5-1.5 0-.6-.3-1-.8-1-.4 0-1.8.6-3.1 1.3z"/><path class="shp1" d="M218.3 327.2c-2.1 1.8-4 3.4-4.3 3.5-.3.2-.3.5 0 .8.3.2 3 .9 6 1.4 3 .6 5.6 1 5.8.8.1 0-.2-2.3-.7-5-.6-2.6-1.5-4.7-2-4.7-.6 0-2.7 1.4-4.8 3.2z"/><path class="shp2" d="M351 326c-2 1.6-2.3 2.5-1.5 3.7.6.8 1.8 2 2.8 2.7 1.2.8 2.2.8 3.4 0 1-.6 1.8-2.1 1.8-3.4a5 5 0 0 0-2-3.6c-2-1.3-2.4-1.2-4.6.6z"/><path class="shp1" d="M123.9 327.5c-.2.3-3.5 1.5-7.2 2.7l-6.9 2.3c5 5.4 7 7.9 7.8 9 .8 1.1 1.4 2.2 1.4 2.5 0 .3-1 1-2.5 1.8-1.4.6-4.3 1.2-6.5 1.2s-4.2.4-4.5 1c-.3.6.7 3.6 2.1 6.8 1.4 3.1 2.3 6.3 2 7-.4.9-2.4 1-7.8.4l-7.2-.7a31 31 0 0 1 3.2 10.6l.7 6.1-10-.6v14.9a37.4 37.4 0 0 0 11 2.5c.3-.3.2-2-.3-4-.4-2-.7-5.5-.5-8 .4-4 .7-4.6 3.3-5.3 1.8-.4 5.1-.2 8 .6 2.7.6 5.2.9 5.5.4.3-.4.2-1.3-.2-2a58.5 58.5 0 0 1-4.3-13c0-1.5 1-1.7 7.5-1.7 5.3 0 7.5-.4 7.5-1.3 0-.6-1.4-4.1-3-7.7a29 29 0 0 1-2.8-7.3c.2-.4 3-1.9 6.3-3.2 3.3-1.4 6.8-2.5 7.8-2.5s1.7-.2 1.7-.5-2.6-3.2-5.8-6.5c-3.3-3.3-6-5.8-6.3-5.5z"/><path class="shp0" d="M280 329c-1.2.6-.8 1.2 2 3 2 1 4 2 4.5 2 .6 0 .1-.7-1-1.6a19 19 0 0 0-3-1.8c-.6-.3-.3-1 .5-1.5 1.3-1 1.3-1 0-1a7 7 0 0 0-3 .8z"/><path class="shp1" d="M272.1 334.7c-.6 2.7-1 5-.9 5 .2.2 2.6-.2 5.3-.8l6.3-1.5c.6-.2 1.2-.8 1.2-1.4 0-.6-1.5-1.8-3.3-2.8a39 39 0 0 0-5.3-2.6c-1.8-.6-2.2 0-3.3 4.1zm116.4-4c-1 .2-1.9.8-1.8 1.1.1.4 1 1.5 2 2.4 1 1 2.4 1.8 3 1.8.7 0 1.3-.3 1.3-.8l.5-3c.4-1.6 0-2.2-1.3-2-1 0-2.6.2-3.7.5z"/><path class="shp2" d="M361.1 333.5c-.8 1.1-.7 2.1.4 4 1.2 2 1.9 2.3 3.5 1.5a5.5 5.5 0 0 0 2.5-2.5c.3-.8 0-2.2-.8-3-.6-.9-2-1.6-2.8-1.5-1 0-2.2.7-2.8 1.5z"/><path class="shp3" d="M234 333.6c-.8.3-1.3 1.2-1.2 2 .2 1.1 3.2 1.4 16.2 1.4 12.1 0 16-.3 16-1.3 0-.8-2.8-1.3-10.3-1.4a236 236 0 0 1-14.7-.7c-2.5-.3-5.2-.3-6 0z"/><path class="shp1" d="M182.7 337c-1.5 1.1-3.1 2-3.7 2-.6 0-1 1.1-1 2.5 0 2 .4 2.4 1.8 2 1-.3 2.3 0 3 .5.8.7 2 .6 3.4-.1 1.3-.6 3.1-1.9 4-2.8 1-.9 1.9-2 1.8-2.4 0-.4-1.3-1.4-3-2.2l-3.3-1.5c-.2 0-1.6.9-3 2zm126.3.1c-2.4.7-3.3 1.5-3.2 2.7l.7 4c.3 1.5 1.2 2.2 2.8 2.2a16 16 0 0 0 5.4-1.5c2.1-1 3.3-2.2 3.3-3.5 0-1.1-1-2.7-2.3-3.5a8.5 8.5 0 0 0-2.7-1.4l-4 1zm-88.8 2.9c-2.3 1.6-4 3.4-3.7 4 .3.6 1 .8 1.5.5.6-.3 2.7 0 4.8.5 2 .5 4 .6 4.4.2.4-.4.4-2.2 0-4.1-.4-1.9-1.2-3.6-1.7-3.8-.6-.2-3 1-5.3 2.7z"/><path class="shp3" d="M234 340c0 .6 5.7 1 15 1s15-.4 15-1-5.7-1-15-1-15 .4-15 1z"/><path class="shp2" d="M370.1 341.7c-.7 1.3-.7 2.3.2 3.6.7 1.1 2 1.7 3.2 1.5 1.5-.2 2-1.1 2-3.3 0-2.3-.5-3-2.1-3.3-1.3-.2-2.6.4-3.3 1.5z"/><path class="shp1" d="M235.7 343.8c-.3.4.5 2.3 1.9 4.2 1.3 2 2.4 4 2.4 4.8 0 .6.4 1.2 1 1.2s1-.7 1-1.5.9-3 2-4.8l2-3.2a24.3 24.3 0 0 0-7-1.5c-1.5 0-3 .3-3.3.8zm15.3 0c0 .4 1.2 3 2.5 5.7l2.4 5c3.5-7.8 4.7-10.3 4.8-10.8.2-.4-2-.7-4.7-.7-2.8 0-5 .3-5 .8z"/><path class="shp4" d="M150.8 345.2c.7.7 1.2 1.9 1.2 2.6 0 .6-1.8 3.3-3.9 6a55.2 55.2 0 0 0-6.6 11.2l-4.1 9.3a14 14 0 0 0-1.4 5.2c0 1.5-.9 3-2.3 4-2.1 1.3-2.1 1.4-.2 1.9 1.4.4 2.3 1.9 3 4.8.5 2.4 1 5.2 1 6.4 0 1.1.5 2.7 1 3.5.6.8 2 3.1 3 5.2l2 3.7c-4 3.5-5.8 5.4-6.6 6.5-.8 1.1.6.4 3.1-1.6l4.5-3.7c5.4 5 7.7 6.7 8.5 7 1.3.4 1.3 1-.3 3.7-1 1.7-1.7 3.4-1.7 3.9 0 .4 1.1-.7 2.4-2.3 1.7-2 3.3-3 5.3-3 1.5 0 3-.4 3.3-1 .3-.6-1.5-2-4-3.3-2.5-1.2-6.2-4-8.3-6a45 45 0 0 1-7-10.2c-3.1-6.3-3.2-6.8-2.8-17.5.2-6 1-12.4 1.6-14 .7-1.6 4.5-6 8.4-9.8 4-3.7 7.1-7 7.1-7.2 0-.3-1.3-1.9-3-3.5a14 14 0 0 0-3.8-3c-.4 0-.1.5.6 1.2z"/><path class="shp1" d="M269.6 345.5a16 16 0 0 0-.6 4.5c0 2.2.5 3 1.8 3 1 0 3.7-.9 6-1.8 3.5-1.3 4.1-2 3-2.8a32.4 32.4 0 0 0-8.7-4.4c-.5 0-1.2.7-1.5 1.5z"/><path class="shp4" d="M129.3 346c-2 .9-2.2 1.5-1.7 4.8.3 2 1 4.7 1.5 6 .5 1.2 1.3 2.2 1.9 2.2.6 0 1-.2 1-.5l-1.5-4.3c-.9-2-1.5-4.3-1.5-5 0-.6 1.7-1.8 3.8-2.6 3-1.3 3.3-1.5 1.2-1.5-1.4 0-3.5.4-4.8 1z"/><path class="shp1" d="M246 348.7a46 46 0 0 0-2.1 5.8c-.5 1.8-.5 4.4.1 6.5.6 2 1.9 4.6 3 6l1.9 2.5c3.5-8.2 4.1-11.3 3.8-13.5-.2-2-1-4.8-1.8-6.4-.8-1.6-1.9-3.1-2.5-3.3-.6-.2-1.6.9-2.3 2.4z"/><path class="shp3" d="M185.5 347.7c-1.3.3-1.9 1.2-1.7 2.4 0 1 .8 4 1.4 6.4.9 3 1.7 4.4 2.6 4 .6-.3 1.9-.5 2.7-.5 1 0 1.5-1 1.5-3.3 0-1.7-.6-4.7-1.3-6.5-.6-1.8-1.6-3.2-2.2-3.1-.6 0-1.9.3-3 .6z"/><path class="shp1" d="M260.6 349.9c-1.1 2-1.7 5-1.7 8.6 0 3 .4 5.5.9 5.5.4 0 1.3-3.7 2-8.2.6-4.5 1-8.3.9-8.6-.2-.2-1.1 1-2 2.7z"/><path class="shp0" d="M219 349.9c-.8 1-2.2 2-3 2.3-.8.3-1.2 1-.8 1.4.4.5 2.3-.2 4.3-1.6 2-1.4 3.5-2.8 3.5-3.3 0-.4-.6-.7-1.3-.6-.6 0-1.9.8-2.7 1.8z"/><path class="shp1" d="M224.3 351c-1.8 1.1-3.6 1.8-4 1.6-.5-.3-1.5 0-2.3.4-1.2.7-.8 1.2 2 2.4 2 .8 4.8 1.6 6.5 1.8 2 .2 3-.1 3-1l-.3-4.2c0-1.6-.5-3-1-3-.4 0-2.2 1-4 2z"/><path class="shp3" d="M306.4 349.7c-.5.5-1.5 3-2.1 5.8-.6 2.8-.8 5.4-.3 6 .5.6 1.9 1 3.1 1 1.7 0 2.5-.8 3-3 .5-1.6 1-4.6 1.1-6.5.3-2.9 0-3.6-1.7-3.8-1.1-.1-2.5.1-3 .5z"/><path class="shp1" d="M337 351.5a6.7 6.7 0 0 0 0 5c.6 1.4 1.2 2.5 1.5 2.5.3 0 2-1.4 4-3s3.5-3.4 3.5-4c0-.6-1.5-1.5-3.3-2a24 24 0 0 0-4-1c-.4 0-1.2 1.1-1.7 2.5z"/><path class="shp2" d="M377.9 351.5c-.2 1.4 0 3 .6 3.5.6.6 1.7 1 2.5 1s2-.6 2.8-1.5c.8-1 1-2 .2-3.5a4 4 0 0 0-3.4-2c-1.8 0-2.5.6-2.8 2.5z"/><path class="shp1" d="M401 350.2c0 .7 1 2.4 2 3.8 2 2.5 2 2.5 3.5.5.9-1.1 1.4-2.7 1.3-3.5-.2-.9-1.7-1.6-3.5-1.8-2-.2-3.2.1-3.2 1zm-165.5 6.3c.4 3.9.9 7.2 1.2 7.5.2.3.7 0 1.1-.7.4-.6.5-3.4.2-6.2-.3-2.7-1.1-5.6-1.9-6.3-1.1-1-1.2-.2-.6 5.7zm113.4-1.8l-.5 5.8-.4 5c6.6-7.8 6.7-8.1 5.2-9.8-1-1-2.3-1.8-3-1.7-.6 0-1.2.3-1.3.8zm-80.4 3.6c-.3.6-.6 2.8-.7 4.7-.3 3.2 0 3.5 2.2 3.2 1.4-.1 3.8-.8 5.3-1.5 1.5-.6 2.7-1.4 2.7-1.7 0-.3-2.1-1.8-4.6-3.3-3.1-1.9-4.6-2.3-5-1.4z"/><path class="shp2" d="M385.2 359.3c-.6.6-1 2-.9 3 .1 1 1.1 2.3 2.2 2.9 1.6.9 2.3.7 3.3-.8.7-1 1.2-2.7 1.2-3.6 0-1-.7-2-1.5-2.3a10 10 0 0 0-2.4-.5c-.5 0-1.4.6-2 1.3z"/><path class="shp0" d="M220.5 360.3c.5.7-.2 2-1.6 3-1.9 1.4-1.4 1.3 2.1-.3 3.5-1.7 4.2-2.4 3-3-.8-.6-2.1-1-2.8-1-.9 0-1.1.5-.7 1.3z"/><path class="shp1" d="M354.2 362c-1.2 1.6-2 3.3-1.7 3.8.3.4 2.3.1 4.5-.6 2.3-.7 4-1.8 4-2.7 0-.8-.9-2-2-2.5-1.1-.6-2.1-1-2.3-1-.2 0-1.3 1.4-2.5 3zM241 362c0 1.4-.8 3.9-1.6 5.5-.9 1.6-1.6 3.1-1.5 3.3 0 0 1.8.2 4 .2 2.5 0 4-.5 4-1.3 0-.6-.6-1.9-1.5-2.7-1-.8-2-2.9-2.5-4.5-.8-2.8-.8-2.8-1-.5zm13.4 1.2c-.4 1.8-1.3 4-1.9 5-.6 1-.9 2-.6 2.2.3.3 2 .2 3.8-.2 1.8-.4 3.2-1.3 3.2-2 0-.6-.4-1.2-1-1.2s-1-1.3-.9-3c0-1.6-.3-3.1-.9-3.4-.5-.4-1.3.8-1.7 2.6zm-29-.5c-1.7.8-3.8 2.3-4.8 3.2-1.8 1.5-1.6 1.7 3 2.8 2.6.7 5.4 1.3 6 1.3.8 0 1.3-1.3 1.3-3 0-1.6-.2-3.7-.5-4.5-.3-.8-.8-1.5-1.3-1.5-.4 0-2 .8-3.7 1.7zm-39 1.4c-1 .6-1.8 2-1.7 3.2.1 1.2 1.3 2.8 2.7 3.4 2.2 1.1 2.8 1 5-.7 1.4-1.1 3-2 3.5-2 .6 0 .9-1 .8-2.2-.3-1.7-1-2.2-4.3-2.4-2.2-.2-4.9.1-6 .7z"/><path class="shp4" d="M340.7 363.8c-.4.7-1.8 1-3.6.6-2.1-.3-3.1 0-3.5 1-.4 1.2.6 2.1 3.6 3.4 2.4 1 6.3 3.8 8.7 6.3 2.3 2.4 5.2 6 6.2 8.1 1 2.1 2.6 5.8 3.4 8.3 1 2.8 1.4 6.9 1.1 10.8a47 47 0 0 1-2.4 11.7c-1.2 3-2 5.7-1.7 6 .3.3.6.3.8 0l3.2-6.5c1.6-3.3 2.9-7.2 2.7-8.8 0-1.5.3-3 .8-3.2.7-.3.7-1 0-2-.6-.8-1-2-.8-2.8a35 35 0 0 0-3-13.7c-1-1.9-2.3-4-3-4.7-.6-.7-1.2-1.8-1.2-2.3 0-.6 1.6-2.4 3.5-4 2-1.6 3.3-3.2 3-3.5-.3-.3-2.1 1-4 2.8-2.2 1.9-4 2.8-4.3 2.2-.4-.6-2.3-2.3-4.2-3.9-2-1.6-3.7-3.8-4-5-.4-1.4-.8-1.7-1.3-.9z"/><path class="shp3" d="M402.5 365.3a13.8 13.8 0 0 0-3.3 3c0 .3-.8.7-1.5.7-.6 0-6.2 4.8-12.3 10.8-6 5.9-12 12-13 13.7-1 1.6-3.7 5.3-6 8-2.2 2.8-5.4 8-7 11.5l-4.8 10a140.3 140.3 0 0 0-6.2 18l-1.5 6.8c-.5 2.3-.6 5-.3 6 .4 1 1.8 3.2 3 5 1.3 1.7 2.7 3 3.1 2.8.5-.2 1-3.3 1-6.8.2-3.5 1.6-10.8 3.3-16.3a161 161 0 0 1 4.6-13.5 189.3 189.3 0 0 1 14.9-24.4l7.4-8.6c3-3.6 6.7-7.2 8.3-8 1.6-.8 2.9-2 2.8-2.8 0-.6.4-1.2 1-1.2s3-1.5 5.3-3.2c2.3-1.8 4.8-3.8 5.4-4.5.7-.7 1.3-3.1 1.3-5.3 0-2.6-.4-4-1.3-4-.6 0-2.6 1-4.2 2.3z"/><path class="shp4" d="M118 366c-1.3.8-1.3 1.5.3 6.4 1 3.1 2.2 5.8 2.7 6.1.5.3 1 .2 1-.3 0-.4-.6-2-1.5-3.7a14 14 0 0 1-1.5-4.8c0-1 .7-2 1.5-2.2.8-.3 2.8-.5 4.5-.5 1.7 0 3-.4 3-1s-2-1-4.3-1-4.9.4-5.7 1z"/><path class="shp1" d="M300.5 366.4c-1 .7-1.9 1.7-1.7 2.2 0 .5 1.4 1.5 3 2.2 1.7.8 3.8 1 5.6.5 1.6-.4 3-1.4 3.2-2 .2-.8-.2-2-.9-2.9-.7-.8-2.6-1.4-4.2-1.4a11 11 0 0 0-5 1.4zm61.8-.1c.2.6-.5 2.9-1.7 5-1.1 2-1.8 4-1.3 4.4.4.4 2.5-.1 4.7-1.2 2.3-1.1 4-2.4 4-3 0-.6-.9-2.2-2-3.8-1-1.5-2.5-2.7-3.1-2.7-.6 0-1 .6-.6 1.3zm-204.6 5c-1.5 2.3-3 6-3.3 8.2-.3 2.2-.1 5.8.5 8s2.2 5.6 3.6 7.5c1.5 2 3.5 4 4.6 4.8 1.8 1.1 2 .8 2-6.6.1-4.2.2-8.4.1-9.2a546 546 0 0 0-1.6-14.3c-.3-1.5-1.2-2.7-2-2.7-.6 0-2.4 2-4 4.3zm108.8 3.4c-.4 2.7-.4 5 0 5 .2.2 2.9-.7 5.8-2l5.2-2.3-10.2-5.4c-.1 0-.5 2.1-.8 4.8z"/><path class="shp3" d="M237.6 374c-.4.6 3.4 1 10.4 1 6.7 0 11-.4 11-1s-4.2-1-10.4-1c-6 0-10.7.4-11 1zm-48 1c-.3.5-.3 3 .2 5.5.5 3.4 1.1 4.5 2.4 4.5 1 0 2.3-1 3-2.3.7-1.4.7-3.2 0-5.2-.5-1.9-1.6-3.1-3-3.3-1-.2-2.3.2-2.6.7z"/><path class="shp1" d="M224.6 376.2c-2.2 1.2-3.9 2.4-3.8 2.8 0 .3 1.8 1 4 1.7 2 .7 4.5 1.3 5.4 1.3 1.5 0 1.8-.7 1.6-3.7-.2-2.4-.8-3.9-1.8-4-.8-.2-3.3.7-5.4 2z"/><path class="shp3" d="M302.5 375.7c-.5.3-.8 2.8-.7 5.5.2 4.3.4 4.8 2.4 4.6 2-.3 2.3-1 2.5-5.6.2-4.4 0-5.2-1.6-5.2a5 5 0 0 0-2.6.7z"/><path class="shp1" d="M365.5 376.2l-2.5 1.5c-.3.2.2.8 1 1.3.8.6 2.6 1 4 1s3 .5 3.8 1.2c1.1 1 1.2.8.6-1.7l-1-3.8c-.2-.4-1.2-.7-2.1-.7-1 0-2.7.6-3.8 1.2zm2.6 9.9c-2.4 1.7-4.3 3.5-4.2 4 0 .5 1.6.9 3.4.9 2 0 4.1-1 5.5-2.3 1.3-1.3 2-3 1.7-4-.3-1-.9-1.7-1.3-1.7s-2.7 1.4-5.1 3zM265 390.5c0 3.6.2 6.5.5 6.5a118.6 118.6 0 0 0 11.5-5.6c.3-.2-.2-1-1-2-.8-.8-3.3-2.4-5.5-3.5-2.2-1-4.3-1.9-4.8-1.9-.4 0-.7 3-.7 6.5zm65.5-4.8c-.3 1-.3 3.8 0 6.3l1 10a121.5 121.5 0 0 0 2.1 13.3c.2.4 1.5-.3 2.9-1.6 1.8-1.5 2.9-4.1 3.8-8.7 1.1-5.6 1.1-7.1-.2-11-.9-2.4-2.8-5.7-4.4-7.2-1.5-1.5-3.1-2.8-3.6-2.8-.6 0-1.3.8-1.6 1.8z"/><path class="shp4" d="M400.5 385c.6.6 2.3 1.1 3.9 1.3 1.6 0 3-.3 3.2-.8.2-.6-1.5-1-3.9-1.2-2.6 0-3.8.2-3.2.8z"/><path class="shp1" d="M224.1 389.4a30.6 30.6 0 0 0-6.1 3.6c0 .3 2.4 1.9 5.2 3.5l5.8 3.3c.3.1 1-1.2 1.6-3 .7-2 .8-4.8.3-6.9l-.7-3.6m-40.6 2.1c-1.4.6-2.6 1.9-2.6 2.9s1 2.3 2.3 3c1.6 1 3 1 5.2.3a9.9 9.9 0 0 0 3.7-2c.4-.6.8-1.4.8-1.7 0-.3-1.6-1.2-3.4-2-2.5-1.2-4-1.3-6-.5zm112.4.6c0 .6-1 1-2.2 1-1.3 0-2.3.7-2.5 1.8-.2 1-.2 1.7 0 1.7l2.7 1.4c1.8 1 3.4 1 5.5.4 1.6-.5 3.2-1.8 3.5-2.7.2-1-.4-2.3-1.5-3.1-1.1-.8-2.8-1.4-3.8-1.5-1 0-1.7.4-1.7 1zm94.5 2.3c.5 1.7.9 5.7 1 8.7v5.5a203 203 0 0 0-17.5.3l1.9 4c1 2 2.2 5.3 2.6 7.2l.7 3.5a103 103 0 0 1-12.4 1.5c-1.6 0-2.8.2-2.8.5s.7 2.2 1.6 4.3c1 2 2.4 5.4 3.3 7.5l1.6 3.8c9.3-1 12.6-1.8 13.3-2.5 1-.9 1-1.8-.7-4.6-1-2-2.1-4.9-2.3-6.5l-.3-3 14 .5a529 529 0 0 0-2.2-12.3l-.8-3.9 10.6 1.7-.6-15.7c-8-3-10.6-3.8-11-3.8-.4 0-.4 1.5 0 3.3zm-274 4.2c-1.2 2-1.3 3.1-.4 5.8l2.3 5.9c1 2.2 1.5 2.6 3.7 2 1.4-.3 3.3-1.3 4.2-2.2 1-.8 1.7-1.8 1.7-2.3 0-.4-1.6-.7-3.5-.7-2 0-3.5-.4-3.5-1s-.7-1-1.5-1-1.5-.3-1.5-.8c0-.4 1.9-2.4 4.2-4.4l4.3-3.7c-7.7 0-8.7.4-10 2.4z"/><path class="shp0" d="M271.5 397.4c-3.3 2-3.7 2.4-2 2.7 1.2.3 3.1-.7 5-2.3 1.5-1.6 2.4-2.8 2-2.8-.6 0-2.8 1-5 2.4z"/><path class="shp3" d="M189.5 398.6c-.4.4-.8 3-.7 5.6.2 4.3.4 4.8 2.4 4.6 2-.3 2.3-.9 2.3-5.3 0-3.7-.5-5-1.6-5.3-.8-.1-1.9 0-2.4.4z"/><path class="shp4" d="M387.8 399.7c-2.1.2-3.6.8-3.3 1.3.3.6 2 1 4 1 2.3 0 3.6-.5 3.8-1.5.1-.8 0-1.4-.3-1.3l-4.3.5z"/><path class="shp3" d="M300.6 400.8c-.2.4-.1 2.6.2 4.8.4 2.3 1 4.4 1.2 4.8.3.3 1.3.4 2.3.1 1.2-.4 1.7-1.5 1.7-4 0-2-.2-4.2-.5-5-.3-.8-1.4-1.5-2.4-1.5-1.1 0-2.2.3-2.5.8z"/><path class="shp1" d="M264.8 405.6l.2 4.4c7.7-4.3 9.7-5.7 9.4-6-.3-.3-2.7-1-5.2-1.6l-4.6-1"/><path class="shp3" d="M108.4 409.6a33 33 0 0 1-5.7 5.4c-.4 0-2.5 1.4-4.7 3s-4 3.6-4 4.3c0 .6 2.6 5.1 5.8 9.9 3.1 4.8 8.8 12.2 12.7 16.5 3.8 4.3 8.9 9.3 11.2 11 2.4 1.8 6.7 4.4 9.5 5.8a25 25 0 0 0 7.6 2.5c1.3 0 2.2-.6 2.2-1.5a3 3 0 0 1 1.3-2.3c.7-.4 3.2-4.6 5.5-9.4 2.3-4.9 4.2-9.3 4.2-9.8 0-.6-2.6-2.1-5.8-3.6-3.1-1.4-6-2.8-6.2-3.2a45.3 45.3 0 0 1-11.7-9.2c-2.9-3-6.8-8-8.8-11-1.9-3-3.7-6.6-4-8a8.6 8.6 0 0 0-2.3-4.1c-1.7-1.5-2.1-1.3-6.8 3.7z"/><path class="shp1" d="M223 405.8c-2.4.9-4.3 1.9-4.2 2.2 0 .3 1.4 1.2 3 2 1.4.8 3 1.8 3.2 2.1.3.4 1.4.9 2.5 1 1.7.3 2-.2 2.2-4.4.2-3.2-.1-4.7-1-4.6-.6 0-3.2.8-5.6 1.7zm-90.8 3.6c-2.3 1.2-4.1 2.6-4.2 3.1 0 .6.8 2.1 2 3.5 1.3 1.7 2 2 2 1 0-.8 1.2-2.6 2.6-4 1.4-1.4 2.3-3.2 2-4.1-.3-1.4-.8-1.4-4.4.5z"/><path class="shp4" d="M375.6 410.3c.4 1.2.8 3.1.8 4.2 0 1.5-.6 2-2.6 2.3-1.6 0-2.8.6-2.8 1.2s1.7.9 3.7.8c2.9-.2 3.9-.8 4.1-2.3.2-1.1-.3-3.5-1-5.3-.8-1.7-1.7-3.2-2.2-3.2-.4 0-.4 1 0 2.3z"/><path class="shp3" d="M240 410c0 .6 2.3 1 5 1 2.8 0 5-.4 5-1s-2.3-1-5-1c-2.8 0-5 .4-5 1z"/><path class="shp4" d="M403 414.3c0 1.7.5 3.9 1 4.7.8 1.1 1 .5.5-2.3-.4-2.9-.1-4 1.3-4.7 1.5-.8 1.4-1-.6-1-1.8 0-2.2.5-2.2 3.3z"/><path class="shp1" d="M186 413.1l-2.5 1c4.3 3.8 6.3 5 7.3 5s2.6-.7 3.7-1.5c1.6-1.2 1.8-1.8.9-3.3-.6-1-2.4-1.9-4-2a14 14 0 0 0-5.4.8zm51.3 2.6c.8 1.6 1.8 4.2 2.2 5.8l.7 3c2-5.4 2.8-8 3.2-9.3.5-2 .3-2.2-3.4-2.2h-4m16.1 4.1l2.4 4.1c1.9-4.4 2.4-6.3 2.4-7 0-.7-1.3-1.2-3.5-1.2h-3.6m15.2 4.5c0 3.6.3 4.5 1.8 4.4 1 0 3.5-1 5.6-2.2 2.2-1.2 3.7-2.6 3.5-3.2-.2-.6-.7-.9-1.1-.8-.5.2-2.4-.4-4.3-1.2-2-.8-4-1.5-4.5-1.5-.6 0-1 2-1 4.5zm37.2-3.1c-.6.9-1.6 1.4-2.2 1.1-.6-.3-.9.5-.8 1.8.2 1.2.5 2 .8 1.8.3-.3 1.5 0 2.8.7 1.7 1 2.8 1 4.7 0 1.4-.7 2.8-2.2 3.1-3.3.3-1.1.4-2.1.2-2.2-.2-.2-1.9-.6-3.8-.9-2.6-.4-3.9-.2-4.8 1zm-57.5 5a20 20 0 0 0-1.7 7.1c0 2 .8 5.3 1.8 7.5s2.3 4 3 4c.6 0 1.8-2 2.6-4.3l2-6.2c.4-1.1-.4-4-1.7-6.4-1.2-2.5-2.7-4.7-3.3-4.8-.6-.2-1.8 1.2-2.7 3.2zm-106.7-.8c-1.9.8-3.3 1.8-3.2 2.4.1.6 1.2 1.7 2.4 2.5 2.2 1.3 2.4 1.2 4.5-1.8 1.2-1.8 2-3.5 1.8-4-.3-.4-.8-.7-1.3-.6-.4 0-2.3.7-4.2 1.5zm85.7-1c-.3.3-2.2.5-4.1.5-2.3 0-3.6.4-3.6 1.1 0 .7 2.4 2.5 5.3 4 3.9 2.1 5.4 2.5 6 1.5.3-.6.7-2.7.7-4.4 0-2.5-.4-3.3-1.8-3.3-1 0-2.1.3-2.5.6zm-80 5.1c-2 3.8-2.4 5-1.4 6 .6.8 1.9 1.3 2.7 1.3 1 0 1.7-1.5 2.3-4.7l.7-6c0-.7-.4-1.3-.8-1.3s-2 2.1-3.5 4.8z"/><path class="shp2" d="M106.3 420.3c-.6.6-1.3 2-1.6 3-.5 1.1 0 2 1.3 2.7 1.1.6 2.5 1 3 1s1.5-.9 2-2c.7-1.3.7-2.7 0-4-.5-1.1-1.6-2-2.4-2-.8 0-1.8.6-2.3 1.3z"/><path class="shp1" d="M234.5 425c-.4 3.6-1.1 7.4-1.5 8.5a4.8 4.8 0 0 0 0 3.5c.5 1.1 1.2.4 2.4-2.8.9-2.3 1.6-5.7 1.5-7.4 0-1.8-.4-4.4-.8-5.8-.6-2-1-1.1-1.6 4zm23.5-1c0 3 .3 6.5.5 7.8.3 1.2 1 2.2 1.5 2.2.6 0 .8-1.7.4-4.3l-1-7.2c-.3-1.6-.7-3.2-1-3.5-.3-.3-.4 2-.4 5z"/><path class="shp0" d="M274.9 421.3c-1.5.7-2.6 1.6-2.6 2.2 0 .6 1.6 1.6 3.4 2.3 2 .7 3.3.8 3.3.2 0-.6-1-1.2-2.3-1.4-2.2-.5-2.2-.5-.3-2.6 1-1 1.7-2 1.5-2l-3 1.3z"/><path class="shp4" d="M347.5 425a26.2 26.2 0 0 1-5.8 5.4c-1.5.9-2.7 2.3-2.7 3.1 0 .8.6 1.7 1.3 1.9.6.2 3-1 5-2.8 2.2-1.7 4.6-4.3 5.3-5.9a13 13 0 0 0 1.4-4.2c0-.8-.3-1.5-.8-1.4-.4 0-2 1.7-3.7 3.8z"/><path class="shp3" d="M186.1 423.8c-.5 1-1.2 3.8-1.5 6.4-.6 4.8-.6 4.8 2.4 4.8 2.6 0 3.1-.5 4-3.8.5-2 1-5 1-6.4 0-2.3-.4-2.8-2.5-2.8-1.3 0-2.9.8-3.4 1.8zm218.9.9a35 35 0 0 1-3.9 6.3 81.9 81.9 0 0 1-4.1 5c-.8.8-2.4 4.2-3.5 7.5a28 28 0 0 1-2.6 6.5c-.4.3-1 1.6-1.2 3a24 24 0 0 1-1 4l-1.5 5a37.1 37.1 0 0 0 .3 14.8c.3 0 2-.7 4-1.8 2.7-1.5 3.5-2.6 3.5-4.8 0-1.5.9-6.3 2-10.7a97 97 0 0 1 6.5-16.8c3.6-7 4.5-9.8 4.6-14.1 0-3-.4-5.8-1-6.1-.5-.3-1.5.6-2.1 2.2z"/><path class="shp1" d="M154.5 426.5c-2.7 2-4.8 4.2-4.7 5 .1.8 1.2 1.8 2.4 2 1.3.4 3.1.5 4.2.3 1-.2 2.3-1.9 3.2-4.3a27 27 0 0 0 1.4-5.3c0-.6-.3-1.2-.8-1.2-.4 0-3 1.6-5.7 3.5z"/><path class="shp3" d="M306.5 424.2a7 7 0 0 0-2.6 2.2c-.3.6-.1 3.1.5 5.6.9 3.7 1.6 4.6 3.6 4.8 1.4.2 2.8 0 3.2-.5.4-.4.4-3 0-5.7-.4-2.8-1.1-5.5-1.7-6.2-.7-.9-1.6-1-3-.2z"/><path class="shp1" d="M266.4 429.3c.4 1.7 1 3.6 1.4 4 .4.5 2 .2 3.7-.6 1.6-.8 3.6-2 4.2-2.8 1-1.2.4-1.6-3.2-2.6-2.5-.7-5-1.3-5.6-1.3-.8 0-1 1-.5 3.3z"/><path class="shp4" d="M364 426.5c0 .6.4 1.4.9 2a11 11 0 0 1 1.5 3.8c.5 2.1.1 3-1.6 4.2-2.2 1.4-2.2 1.5-.3 1.5a8 8 0 0 0 3.3-.8c.9-.5 1-1.7.6-3.7-.4-1.6-1.5-4.1-2.6-5.5-1-1.4-1.9-2-1.9-1.5zm28.6.5c-.4.6 0 2.4.9 4 .8 1.6 1.7 3 2 3 .3 0 0-1.2-.5-2.8-.7-1.7-.7-3-.1-3.4.5-.4 2.2-.5 3.8-.2 2.3.3 2.5.3.8-.5-1.1-.5-3-1-4.2-1-1.2 0-2.4.3-2.8.9z"/><path class="shp1" d="M89 429.8c-1 2.2-1.2 3.6-.5 4.3.5.5 2 .9 3.4.7 1.3-.2 2.6-.9 2.8-1.6.1-.6-.8-2.4-2-4l-2.4-2.7"/><path class="shp2" d="M112.6 429.5c-1 1-1.7 2-1.7 2.3a9 9 0 0 0 1.3 2.5c.8 1 2.2 1.7 3.3 1.5 1.5-.3 2-1.1 2-3.8 0-2.4-.5-3.6-1.6-3.8-1-.2-2.4.4-3.3 1.3z"/><path class="shp1" d="M237.5 434a70.8 70.8 0 0 0-2.5 6.5c0 .3 2.3.4 5 .3 2.8-.2 5-.6 5-1 0-.5-.8-2-1.7-3.6-1-1.5-2-4-2.5-5.4-.7-2.6-.9-2.4-3.3 3.2zm-17-2.4a13 13 0 0 1-5.8 1c-1-.4-1.6-.1-1.3.6a4 4 0 0 0 1.7 2c.8.5 2.5 1.3 3.9 1.8 1.4.6 3.3 1.6 4.2 2.3 1 .6 1.9 1 2.1.7.3-.3.7-2.6 1-5.3.3-3.1 0-4.7-.7-4.6-.6 0-2.9.7-5.1 1.5zm31.9 2.6l-2.2 5c0 .5 2 .8 4.8.8s4.9-.3 4.8-.8l-1.8-5c-.8-2.3-2-4.2-2.6-4.2-.6 0-2 2-3 4.3z"/><path class="shp2" d="M120.5 438.6c-.9.8-1.6 1.8-1.6 2.2 0 .4 1 1.6 2 2.7 1.8 1.8 2.2 1.8 3.6.5.9-.8 1.6-2.2 1.6-3 0-.8-.6-2-1.3-2.8-.7-.7-1.6-1.2-2-1.2-.3 0-1.4.7-2.3 1.6z"/><path class="shp1" d="M182.9 438.6c-.8.8-2 1.3-2.7 1-.6-.4-1.6.3-2.2 1.4-.8 1.5-.6 2.5.8 4 1 1.3 2.9 2 4.7 2a10 10 0 0 0 4.1-.8c.6-.4 1.6-1.6 2.2-2.7.8-1.5.8-2.5-.3-4.3-.8-1.2-2.3-2.2-3.4-2.2a5 5 0 0 0-3.2 1.6zm85.5 2.6a12 12 0 0 0 1.6 4.3c.6.6 2.3 0 5-2 2.3-1.6 4-3.3 4-3.8 0-.4-.4-.5-1-.2s-1.2.2-1.4-.3c-.2-.4-2.3-.8-4.7-1l-4.2-.2m39 3.5c-1.5 1.4-2.5 3-2.3 3.8.2.6 1.7 1.5 3.5 2a9 9 0 0 0 6.6-1c2-1 3.5-2.6 3.5-3.6s-.3-1.9-.8-2.1c-.4-.2-2.3-.7-4.2-1-2.8-.5-4-.1-6.3 1.9zm63.8-.4c-2.2 1-4.3 2-4.8 2-.4 0-1.8.3-3.2.9l-2.5 1 11.2 11.5c4.9-2.5 7.9-3.6 9.8-4 2-.4 3.8-1 4.3-1.1.4-.2-1.7-3.1-4.6-6.4a43 43 0 0 0-5.7-6c-.3 0-2.3 1-4.5 2z"/><path class="shp4" d="M385.5 440.7c-1.3.3-1.9 1.2-1.7 2.4 0 1 .6 1.9 1.2 1.9s1-.7 1-1.5.7-1.5 1.5-1.5 1.6-.4 1.8-1c.1-.6-.2-1-.8-.9l-3 .6z"/><path class="shp1" d="M88.5 441.6c-.4.4-.8 4.7-.7 9.6.1 5.7.6 8.7 1.3 8.6a21 21 0 0 0 4.4-5.8c1.9-3 3.5-7 3.7-9 .3-3.4.2-3.5-3.7-3.8-2.3-.2-4.5 0-5 .4zm129 2.9c-2.8.7-5.7 1-6.4.6-1.2-.5-1.3-.2-.4 1.4a20 20 0 0 0 6.2 4.8c4.7 2.5 5.2 2.6 6 1 .5-1 1.1-3.5 1.4-5.6.3-2.4 0-3.7-.7-3.6-.6 0-3.3.6-6.1 1.4z"/><path class="shp3" d="M232 444c0 .6 5.7 1 15 1s15-.4 15-1-5.7-1-15-1-15 .4-15 1z"/><path class="shp4" d="M99 447.5c0 1.4-.8 4.2-1.9 6.3-1 2-3.2 5.2-5 7a20.3 20.3 0 0 0-3.1 3.7c0 .3 1 0 2.3-.7 1.2-.6 3.1-2 4.2-3s2.7-1.8 3.5-1.8c1.2 0 1.3-.2.3-1.2s-1-2.2.2-5.8c.9-2.5 1.5-5 1.5-5.8 0-.6-.5-1.2-1-1.2s-1 1.1-1 2.5z"/><path class="shp2" d="M129 446.2c-.8.7-1.3 1.7-1.2 2.3a8 8 0 0 0 2 2.7c1.2 1.3 2.2 1.5 3.4.8 1-.6 1.8-1.8 1.8-2.8a5 5 0 0 0-1.2-3c-.7-.7-1.8-1.2-2.4-1.2a5 5 0 0 0-2.4 1.2z"/><path class="shp3" d="M230.4 447.1c-.2.5-.2 1.3.1 1.9.3.6 6.8 1 16.5 1 13.6 0 16-.2 16-1.5s-2.1-1.5-12.8-1.6c-7 0-14.2-.2-16-.4-1.8-.1-3.5.1-3.8.6z"/><path class="shp1" d="M102.8 450.3a20 20 0 0 0-.4 3.4s1.3 0 2.8-.3c1.6-.2 2.8-1 2.8-1.6 0-.7-1.1-2-2.4-3-2.3-1.7-2.3-1.7-2.8 1.5z"/><path class="shp3" d="M177 453.3c-1.1 1.7-2.5 4.8-3 6.7-.7 2-1 3.6-.8 3.7l3.3.9c3 .6 3 .4 5.8-6 1.5-3.6 2.5-7 2.2-7.6-.3-.6-1.6-1-3-1-1.8 0-3.1 1-4.5 3.3z"/><path class="shp0" d="M211.8 452.9c1.7 1.7 3.6 3.1 4.2 3.1.6 0 1-.4 1-.9s-2-1.9-4.3-3.1l-4.2-2.3"/><path class="shp1" d="M270 450.7l1 4.6c.6 2 1.3 3.7 1.8 3.7.4 0 2.6-1.4 5-3.2 2.4-1.8 4-3.6 3.5-4-.4-.4-3.1-1-6-1.3-2.8-.4-5.2-.3-5.2.2z"/><path class="shp2" d="M139.1 452.5c-.6.9-.8 2.5-.3 4 .4 1.4 1.3 2.8 2 3 .6.3 1.9.3 2.7 0 .8-.3 1.8-1.5 2-2.8a4 4 0 0 0-1.2-4c-1-1-2.3-1.8-3-1.7-.6 0-1.6.7-2.2 1.5z"/><path class="shp3" d="M311.6 452c-1 .6-1.9 1.9-1.8 2.8.1 1 1.1 3.6 2.2 6 1.6 3.3 2.5 4.2 4.5 4.2 1.4 0 2.7-.4 3-1a20 20 0 0 0-1.8-7c-1.2-3.4-2.6-6-3.2-6-.6 0-1.9.5-3 1z"/><path class="shp4" d="M359.2 453.7c1.4 1.4 1.5 2 .5 3-.6.7-1 1.5-.7 1.8.3.3 1.4-.1 2.5-1l2-1.3c-3.1-3.3-4.4-4.3-5-4.3-.6 0-.2.8.7 1.8z"/><path class="shp0" d="M280.4 457.6c-3.1 2.7-3.5 3.4-1.9 3.3 1.1 0 3-1.3 4.3-3 1.2-1.6 2-3 1.9-3.3-.2-.2-2.1 1.1-4.3 3z"/><path class="shp4" d="M382.5 455.5c-2.2.8-4.4 1.8-4.8 2.3-.4.4.3 1.6 1.5 2.7 1.6 1.4 1.9 1.5.8.2-1.4-1.6-1.2-2 2.8-3.5 2.3-1 4.3-2 4.2-2.4 0-.5-.1-.8-.3-.8l-4.2 1.5z"/><path class="shp1" d="M229.4 455.9a15 15 0 0 0-2.2 5.6 216.5 216.5 0 0 1-11.8 29.5c-1.8 3.6-3 6.9-2.6 7.4.4.5 4.5.6 9.2.3 4.7-.4 8.7-.9 9-1.1.3-.3-.4-.7-1.5-1a6.7 6.7 0 0 1-3.4-2.8 7.6 7.6 0 0 1-.7-5c.3-1.7 2-3.6 3.8-4.8 1.8-1 7.4-2.7 12.5-3.7l9.2-1.8a39 39 0 0 1-7-8 13.5 13.5 0 0 0-4.7-4.7c-1.2-.4-2.9-.8-3.7-.8-.8 0-2.4 1-3.5 2.3a6.3 6.3 0 0 0-1.6 5.2c.3 1.6 1.3 3.6 2.3 4.3a7 7 0 0 0 3 1.2c.6 0 1.9-.7 2.7-1.5.9-.8 1.4-2 1.3-2.8-.2-.6-1.1-1.3-2-1.4-1.1-.2-1.6.3-1.4 1.4 0 1-.4 1.8-1.3 1.8-.8 0-1.6-.9-1.8-2-.2-1.1.4-2.7 1.3-3.5 1.3-1.2 2-1.3 4-.3 1.4.7 2.8 2.5 3 4 .5 2 .1 3.3-1.2 4.6a8 8 0 0 1-4.8 1.8c-1.7 0-3.8-.8-4.7-1.8-.9-1-2.1-3-2.7-4.6-.9-2.1-.7-3.4.7-6.2 1-2.1 2.8-4 4.4-4.5 2-.7 3.8-.6 6.3.5 2.2 1 4.8 3.5 7.3 7 3.4 5.1 4 5.6 7.4 5.5 3 0 4.3-.6 5.9-2.8 1.4-1.8 1.8-3.5 1.4-5.2a11 11 0 0 0-1.8-3.8 4 4 0 0 0-2.7-1.2c-.8 0-2.2.4-3 1-1.1.7-1.2 1.2-.4 2.2 1 1 1.3 1 1.8 0 .3-.6 1-1.2 1.6-1.2.6 0 1 .9 1 2 0 1.2-.8 2.2-2 2.5-1.1.3-2.7 0-3.5-.8a4.9 4.9 0 0 1-1.5-3.4c0-1.3 1-3 2.3-3.8a9 9 0 0 1 3.7-1.5c.8 0 2.7 1.2 4.2 2.7 2.1 2.1 2.8 3.8 2.7 6.8 0 3.3-.6 4.5-3 6.5-1.8 1.4-4.7 4-6.5 5.8-2.5 2.3-3.4 4-3.4 6.4 0 1.8.5 3.9 1.2 4.6.7.7 2.2 1.2 3.3 1.2 1.1 0 2.8-.5 3.7-1.2 1-.7 1.8-2.1 2-3.2.2-1-.5-2.3-1.4-3-1.3-.8-2-.8-3 .2s-1 1.2.4.8c1.3-.5 1.8 0 1.8 1.4 0 1.1-.6 2.2-1.3 2.4-.6.2-1.8.2-2.4 0-.7-.2-1.3-1.5-1.3-2.9 0-1.6.9-3 2.5-4 1.8-1 3-1.2 4.5-.5a7 7 0 0 1 2.9 3.3c.6 1.5.4 3.1-.5 5L262 495l11.5-6-9-32.9c-17.8-.3-25.5-.4-28.5-.6-3-.1-6 0-6.6.4zm-15.4 2.6c-3.5 1-4.6 1.1-5.1.2-.5-.9-.8-.8-1.4.3-.4.8-.3 1.8.1 2.2l5.9 3.2c2.8 1.5 5.3 2.3 5.7 1.9l2-4.5c.7-2.3.9-3.9.3-4.3-.6-.3-1.4-.5-2-.5-.6 0-3 .8-5.5 1.5zm-108.6.7a67 67 0 0 0-6.9 2.8c-2.2 1-5.6 3.4-7.5 5.4l-3.5 3.4c5.4.9 8 2.2 9.3 3.4 1.9 1.8 2.2 3 1.8 5.3-.6 2.9-.4 2.8 3.6-2a30.8 30.8 0 0 0 7.9-16.3c0-1.1-.3-2.3-.8-2.5-.5-.2-2.3 0-3.9.5zm259.1 1.7a316 316 0 0 1-5.5 2.8c-.3.2 2 2.6 5.2 5.5l5.7 5.3a59 59 0 0 0 12-7.8c0-.4-2-2-4.4-3.7-2.5-1.6-4.5-3.4-4.5-4 0-.6-.8-1-1.8-.9-1 0-4 1.3-6.7 2.8zm-249 .3c-.3.7-.5 2.5-.3 4 .3 2.6.4 2.6 3.5 1.2 2.8-1.2 3.1-1.6 2-3-.6-1-2-2-3-2.6-1.1-.6-1.8-.5-2.2.4zm158.5 4.3c0 1.4.2 3.2.5 4 .3.8 1 1.5 1.8 1.5.6 0 2.7-1.4 4.4-3.2l3.3-3.3c-5-1.2-7.3-1.5-8.3-1.5-1.1 0-1.7.8-1.7 2.5z"/><path class="shp4" d="M110 471.3l-2.7 6c-.2.4 1.3-.3 3.2-1.6 1.9-1.2 3.4-2.5 3.5-3 0-.4-.5-.7-1-.7-.6 0-.8-1.3-.5-3 .3-1.6.4-3 .1-3-.2 0-1.4 2.4-2.7 5.3z"/><path class="shp0" d="M283 469.5c-3.3 3.3-3.4 3.5-1.3 3.5 1.3 0 2.3-.6 2.3-1.3 0-.6 1-2.2 2.2-3.4 1.1-1.3 1.7-2.3 1.1-2.3-.5 0-2.5 1.6-4.4 3.5z"/><path class="shp1" d="M319.4 467.2c-1 .6-2.3 1.9-2.7 3-.4 1-1.4 1.8-2.2 1.8-.8 0-1.5.6-1.5 1.3 0 .6.6 2.1 1.4 3.2 1.2 1.6 2.2 1.9 5.3 1.5 2-.3 5-1.3 6.6-2.3 1.5-1 2.8-2.6 3-3.8.2-1.2-.5-3-1.5-4.3-1.6-1.8-2-1.9-2.8-.6-.6 1.1-1.2 1.2-2.3.4-.9-.8-2-.8-3.3-.2z"/><path class="shp3" d="M396.5 473.5a451 451 0 0 0-13 10 13.3 13.3 0 0 1-4 2.5c-.6 0-2.1.9-3.5 1.9l-2.5 1.8c7.3 6.5 8.3 7 10 6a257.9 257.9 0 0 0 21.8-14.7c2.5-2.2 2.8-3.2 2.7-8.8 0-3.4-.3-6.2-.8-6.1-.4 0-5.2 3.4-10.7 7.4z"/><path class="shp1" d="M165 469.2c-.5 1-1 2.3-1 2.8 0 .6.7 1 1.5 1s1.5.3 1.5.8c0 .4 1 1.3 2.5 2 2 1 3.2 1 6 0 2-.7 3.5-1.6 3.5-2 0-.5.2-1.4.5-2 .3-.7-.5-2-1.7-2.8-1.3-.8-4.4-1.5-7-1.5-3.6-.1-5 .3-5.8 1.7zm-42.7 2.7a38 38 0 0 0-7.9 4.8c-2.1 1.8-4.1 3-4.4 2.7-.3-.2-2 1.1-3.8 3-1.7 2-3.2 4.4-3.1 5.4 0 1 .3 1.1.5.4.2-.6 2-1.6 3.9-2.2 2-.6 4.2-.6 5.3-.1 1 .5 2.4 2.4 3.3 4.2l1.6 3.4a65.8 65.8 0 0 0 8.1-13 56 56 0 0 0 1.6-6.3c.3-1.7.2-3.4-.2-3.6-.5-.2-2.7.4-4.9 1.3zm85.4-.5c-2.6.6-4.7 1.3-4.7 1.6 0 .3 2.4 2 5.3 3.8 2.9 1.8 5.5 3.3 6 3.2.4 0 1.4-1.8 2.2-4 .8-2.2 1.5-4.4 1.5-5 0-.6-1.2-1-2.8-.9-1.5.1-4.8.7-7.5 1.3z"/><path class="shp4" d="M130 474.5a25 25 0 0 1-1.6 8 45 45 0 0 1-6 9.3c-2.8 3.3-3.9 5.2-2.9 5.2.8 0 2.4-1.1 3.5-2.5 1.6-2 2.6-2.4 5.3-2 3 .6 3.1.5 1.2-1-2-1.5-2-1.5.3-5.8 1.3-2.5 2.2-6 2.3-8.7 0-2.5-.5-5-1-5.5-.8-.7-1.1.2-1 3zm250.6-1.4c-1.6 1.1-2.8 2.7-2.7 3.5 0 .8 1 1.8 2.1 2.4 1.8 1 1.9.8.8-1-1.1-1.6-1-2.3 1.1-4.5 1.3-1.4 2.2-2.5 2-2.5-.4 0-1.8 1-3.3 2z"/><path class="shp1" d="M133.7 472.8c-.3.4-.3 1.8-.2 3.2l.4 2.8s1.3-1 2.7-2.6c2-2 2.3-2.9 1.3-3.4-.8-.4-2-.8-2.6-.8-.7 0-1.4.3-1.6.8z"/><path class="shp4" d="M89 476c0 .6 1 2.2 2.3 3.7 1.2 1.5 2.7 2.3 3.5 2 .6-.4 1.2-2 1.2-3.7 0-2.8-.3-3-3.5-3-2 0-3.5.4-3.5 1z"/><path class="shp0" d="M202.3 477c1.5 1 2.7 2.4 2.7 3 0 .6-2 1-4.3 1-2.8 0-3.7.3-2.7.9.8.5 3.3.5 5.5 0l4.8-.9c.4 0 .5-.4.2-1s-2.4-2-4.8-3l-4.2-2"/><path class="shp1" d="M277.6 476c-.4.6-.4 2.1-.1 3.5.3 1.5 1.2 2.5 2.3 2.5 1 0 3.2-1.6 5-3.5l3.4-3.5c-7.8 0-10.3.4-10.6 1z"/><path class="shp0" d="M286.5 480.5c-2.2 1.9-3.8 3.6-3.5 3.8l5 1.6c3.1.8 4.8.9 5.4.2.7-.8.1-1.1-1.7-1.1-1.5 0-3-.3-3.2-.8-.3-.4.4-1.8 1.6-3.2 1-1.4 2-2.8 2-3.3 0-.4-.4-.7-.9-.7a23 23 0 0 0-4.7 3.5z"/><path class="shp1" d="M367.5 478.2l-2.3 1.4c0 .2 1 2 2.6 4 1.5 1.9 3 3.5 3.4 3.4.5 0 2-.8 3.4-1.8l2.5-1.7c-5.1-5-6.8-6.5-7.1-6.5-.3 0-1.4.6-2.5 1.2z"/><path class="shp3" d="M161.2 484.8c-1.8 3.1-3 6.3-2.8 7 .3.6 2.2 1.2 4.1 1.2 3.1 0 3.8-.5 6.5-5 1.7-2.8 3.1-5.6 3.2-6.4.2-.8-1-1.6-3.2-2l-4-.6c-.3 0-2 2.6-3.8 5.8zm165-4.5c-1.7.7-3.6 1.6-4.1 2.2-.7.7 0 3 1.9 7 1.5 3.3 3.4 6.8 4.2 7.9 1.3 1.8 1.4 1.8 5.6-.3 2.3-1.2 4.5-2.7 4.8-3.4.3-.6-.3-2.7-1.3-4.6l-2.8-5-2.5-3.5c-.8-1-1.7-1.6-2-1.6l-3.7 1.3z"/><path class="shp1" d="M245.9 482.2c-1.9.4-5.4 1-7.9 1.3-2.5.2-5.7 1.4-7.3 2.5-1.5 1-2.7 2.6-2.7 3.3 0 .6.9.2 2-1 1.6-1.8 2.5-2.1 4.3-1.4 1.2.5 2.5 1.8 3 3 .5 1.5 0 2.9-1.3 4.6a10.4 10.4 0 0 0-1.8 2.5l6.8.3c3.6.2 8 1 10 2s4.2 1.7 5 1.7c.8 0 2.3-1.2 3.3-2.5 1-1.4 1.5-2.7 1.2-3-.3-.3-1.3 0-2.3.6-1.1.8-2.6.9-4.7.2a9.2 9.2 0 0 1-4.5-3.5c-1.2-2.1-1.3-3.4-.4-6.7.6-2.3 1-4.2.9-4.4-.1-.1-1.7 0-3.6.5zm-45.8.5c-.8.3-1.4.9-1.3 1.4.1.5 2.1 2.3 4.4 4 2.4 1.6 4.8 3 5.3 3 .6 0 1.6-1.2 2.3-2.6a12 12 0 0 0 1.2-4.3c0-1.4-1-1.7-5.3-1.8-2.8-.1-5.8 0-6.6.3z"/><path class="shp0" d="M401 489c-3 2.3-6.2 4.5-7 5-1.3.7-1.3 1.3.2 5.1 1 2.4 2.4 7.2 3.2 10.6.9 3.5 1.6 7.8 1.6 9.6 0 1.7.6 4.9 1.5 7a21 21 0 0 1 1.5 6c0 1.2-.9 2.8-2 3.5-1.6 1-1.8 1.6-1 3.7a18 18 0 0 1 1 3c0 .3-.4.5-1 .5s-1.4-1.4-2-3c-.7-2-1.5-2.8-2.5-2.5-1.2.4-1.4-.2-.9-3.3.5-2.6 0-5.5-1.7-10a28.6 28.6 0 0 0-3.1-6.8c-.5-.2-.8-1.5-.8-2.9s-1.1-4.8-2.5-7.5c-2.2-4.4-2.7-4.9-4.5-4a7.3 7.3 0 0 0-2.4 1.8c-.3.4.6 2.7 2 5.2a229.4 229.4 0 0 1 6.8 14c.8 2 2 5.8 2.6 8.5.6 2.8 2 6.6 3.2 8.5 1.2 2 2.4 4.4 2.5 5.5l.6 5.4c.1 2-.4 3.7-1.3 4.4-1.1.8-2.3.5-4.8-1.1-2.2-1.5-3.7-2-5-1.3-1 .4-2.3.7-3 .5-.6-.2-2.8-2.5-4.7-5.1a42 42 0 0 1-5.3-10c-1-3-2-5.3-2.4-5.3-.5 0-.8.6-.8 1.3 0 .6-1.2 2.4-2.5 4-1.4 1.5-3.2 2.7-4 2.7-.9 0-1.9-1.5-2.5-3.8-.5-2-1-4.4-1-5.2a32 32 0 0 0-3.3-7.4c-1.8-3.2-3.6-6-4.2-6.3-.6-.2-6.2 1.9-12.5 4.6-6.3 2.7-14.2 5.8-17.5 7-5.2 1.7-6 2.3-6.5 4.8-.3 1.6-1.5 4.1-2.8 5.6-1.2 1.5-2.8 2.7-3.4 2.7-.7 0-2.5-1-4-2.5-2.3-2-2.6-3-2-4.8a7.6 7.6 0 0 1 2.3-3.1c.8-.5 2.2-.6 3.1-.3 1 .4 1.8 1.2 1.8 1.7s-1 .9-2.3.8c-1.5-.2-2.3.3-2.5 1.7-.2 1.1.4 2.6 1.2 3.3 1.3 1 2 1 3.6 0 1.7-1 2-2.2 1.8-5.8-.3-4.4-.4-4.5-3.8-4.8a8 8 0 0 0-6 1.6c-2.3 1.8-2.5 2.7-2.5 9.5 0 5.6-.4 8-1.7 9.3a9 9 0 0 0-2 3.9c0 1.1.6 4 1.6 6.5s1.6 5.6 1.3 7c-.4 1.6.2 3.4 1.5 5 1.3 1.5 1.7 3 1.3 4-.7 1.3-.9 1.3-1.6-.3-.6-1.2-1.7-1.6-3.4-1.2-1.8.4-2.8 0-3.5-1.5a4 4 0 0 0-3.5-2c-1.5 0-2.4-.5-2.2-1.3.2-.6 1.7-1.2 3.3-1.3l4.1-.2c.7-.1 1.3-1.1 1.3-2.2s-.4-2-1-2-1.1.5-1.3 1.2c-.1.7-1 .9-2 .5s-1.7-1-1.7-1.5c0-.4 1.3-1 3-1.5 2.6-.6 2.9-1 2-2.7-.6-1.1-1-3.5-1-5.3 0-1.7 1-5 2-7.2 1.4-2.7 1.8-4.7 1.3-6.2-.5-1.3-.7-3.7-.5-5.5.1-1.8 1.1-4.3 2.2-5.5 1.1-1.3 2-2.5 2-2.8 0-.3-1.1.3-2.6 1.3a15 15 0 0 0-4.2 6.2c-.9 2.5-1.6 6.8-1.7 9.5 0 2.8-.4 5.1-1 5.2-.6.2-1-1.6-1.1-4 0-2.3.4-6.7 1-9.7.8-4 2-6.2 4.6-8.7 2-1.9 4-3.3 4.8-3.3.6 0 1-.5.7-1-.3-.6-1.5-.5-3.3.4-1.5.7-4.1 3-6 5.2-2.4 3-3.3 5.3-3.8 9.4-.4 3-1 6.2-1.5 7-.7 1.2-.9 1.1-1-.5l-.2-4.8c-.1-1.6.1-3 .6-3.3.4-.2.5-.9.2-1.4-.3-.5.4-2.8 1.5-5s3.2-5 4.8-6c1.5-1.1 2.4-2.2 2-2.5-.5-.3-1.6-.1-2.6.4s-3 3.3-4.4 6.2c-1.5 3-3.2 8.1-3.8 11.4a35 35 0 0 1-1.5 6.5c-.3.3-.8.3-1 0a45.8 45.8 0 0 1 3.5-18.3c1-2 1.5-3.7 1.1-3.7-.3 0-1.4.7-2.3 1.7-1 1-2.4 5-3.3 8.8l-2 9.5c-.4 1.7-1 2.2-1.6 1.5-.7-.7-.8-2.1 0-4.5.5-2 .9-4.2.9-5 0-.8.2-2.5.5-3.8.4-1.2.4-2.2 0-2.2-.5 0-1.3 1.9-2 4.2-.7 2.4-1.4 5.8-1.8 7.5-.3 1.8-1 3.3-1.5 3.3-.6 0-.8-1.7-.4-4.3l1.1-7.2c.5-2.2.3-2.8-.5-2.3-.7.5-1.6 2.5-2.2 4.5-.5 2.1-1 5.3-1 7 0 1.8-.5 3.6-1.1 4-.9.6-1-1-.8-6 .2-3.7 0-6.7-.4-6.7s-1.1 1.7-1.7 3.8c-.5 2-1 5.2-1 7 0 1.7-.4 3.2-1 3.2s-1-1.5-1.1-3.3v-4c0-.4-.3-.5-.9-.2-.6.3-1 2.5-1 5s-.4 4.5-1 4.5-1.2-.6-1.4-1.3c-.3-.8-.9-.5-1.8.8-.8 1.1-3 3-4.9 4.3a16 16 0 0 1-6.4 2.4c-1.8.1-4.4-.8-6.4-2.3-2-1.3-4-3.9-4.8-5.6-.7-1.8-1.3-4.4-1.3-5.8 0-1.5 1.4-3.9 3.5-6 2-2 4.4-3.5 5.5-3.5 1.1 0 3 .5 4.3 1.1 1.2.6 3 2 4 3.3.9 1.1 1.6 3.7 1.6 5.6 0 2-.5 4.3-1.2 5.2a8 8 0 0 1-4.2 2.3c-2.2.5-3.7.1-5.8-1.4-1.7-1.3-2.7-3-2.7-4.6 0-1.4.9-3.4 2-4.5s2.6-2 3.3-2c.6 0 1.8.4 2.5.8s1.2 1.8 1 3.2c-.2 1.5-1 2.6-2.3 2.9-1.7.3-1.8.1-.8-1.3.7-.9 1.2-2 1-2.7-.1-.7-1.2-.4-2.6.8-1.6 1.2-2.2 2.4-1.8 3.5a6 6 0 0 0 2.4 2.7c1.2.6 2.7.6 4.3-.2 1.8-1 2.6-2.2 2.8-4.7.2-2.3-.4-4.1-1.5-5.3a7.9 7.9 0 0 0-10.3.3c-1.1 1.1-2.3 3-2.6 4.3-.3 1.2 0 3.6.9 5.2.8 1.6 2 3.5 2.8 4.2.8.7 3 1.5 4.9 1.8 2 .3 4.6 0 6-.7 1.3-.7 3.5-2.9 4.7-4.8a14 14 0 0 0 2.3-6.5c0-1.6-1-4.5-2-6.3a13.4 13.4 0 0 0-5.3-4.6 15.1 15.1 0 0 0-13.8 1.2c-1.3 1-3 3-3.6 4.3a20 20 0 0 0-1.3 7.1c0 2.7.7 7.2 1.6 10A188 188 0 0 0 241 573c3.8 7.4 7.3 15.5 8 18a53 53 0 0 1 1.4 7c.2 1.4.6 3.9 1 5.5.5 1.8.4 4.4-.3 6.5-.6 2-1.3 4.9-1.6 6.5a36 36 0 0 1-5.4 13.8c-1.6 2.4-2.2 4-1.6 4.6.6.4 6 1.7 12 2.8 6 1.2 17.3 3.1 25 4.4a54.1 54.1 0 0 0 15.4 1.3c.7-.5 2-3.1 2.7-5.9.7-2.8 1.3-6.2 1.4-7.8 0-1.5-.5-3.7-1.1-5-1-1.9-.7-3 1.9-7.2 1.6-2.8 5.2-9.4 7.9-14.8 3.8-7.9 4.6-10.2 3.7-11.5-.6-1-2.9-2.2-5-2.8-2.1-.6-4.5-2-5.2-3a6 6 0 0 1-1-3.9c.4-1.8.6-1.7 1.9.8.8 1.6 3 3.3 5.4 4.2a12 12 0 0 1 5.6 4.2c1.3 2 1.4 3.4.7 5.3a7.7 7.7 0 0 1-1.8 3c-.4.3-2 3.2-3.5 6.5-1.4 3.3-4 8-5.6 10.5-2.8 4.2-3 4.9-2.2 10 .6 3.5.4 7.6-.4 11.5-.9 4.4-.9 7.4-.1 11a124.7 124.7 0 0 0 6.7 24.5l2.8 7.5h97.8c.4-151.5.1-195.5-.3-195.5s-3.2 1.8-6.2 4zm-206-2c0 .6.9 1.4 2 2 1.1.6 2 1.4 2 2 0 .6-1.2 1.2-2.8 1.4-1.5.1-.2.4 2.8.4l5.5.1c-6.2-5.4-8.3-7-8.8-7-.4 0-.7.6-.7 1.1z"/><path class="shp3" d="M88 494v6l12 7c-5.2 6.6-6 7-8.8 6.5-3.2-.5-3.2-.5-3.2 3.8 0 2.6.5 4.7 1.5 5.5 1.2 1 2.1.8 5-1 2-1.3 3.5-2.9 3.5-3.5 0-.7 1.6-2 3.5-2.8a13 13 0 0 0 5.3-4.5c1-1.6 2.5-3.2 3.5-3.5 1-.3 1.7-1 1.7-1.8 0-.6-2-2.3-4.3-3.6-2.3-1.3-7.2-4.6-11-7.2A28.3 28.3 0 0 1 90 489c0-.6-.5-1-1-1-.6 0-1 2.7-1 6z"/><path class="shp1" d="M282.1 489.9c0 1.1.2 2.1.6 2.1.5 0 2.8 2.5 5.3 5.5s4.8 5.2 5.1 4.8c.4-.4.8-3.6 1-7 .4-6.1.3-6.3-2.1-6.3a47 47 0 0 1-6.1-.6c-3.2-.6-3.6-.4-3.8 1.5z"/><path class="shp4" d="M106.5 489.7c-.5.3-.8 1-.7 1.5.1.4 1.5 1.5 3.2 2.3 1.7.8 3.5 1.5 4 1.5s1.2-.8 1.4-1.8c.2-1-.1-2.3-.7-3-.7-.7-2.4-1.2-3.8-1.2s-3 .3-3.4.7z"/><path class="shp1" d="M232.2 491.3c.2 1.2.8 2.2 1.3 2.2.6 0 1-1 1.1-2.3.1-1.3-.4-2.2-1.3-2.2-1 0-1.3.8-1.1 2.3zm-30 1.9c-1.3.5-4.3.7-6.7.4-2.7-.4-4.5-.2-4.5.4 0 .6 2.4 2.6 5.3 4.5 2.8 2 5.8 3.5 6.4 3.5.7 0 2-1.6 3-3.5 1.6-3.1 1.6-3.7.3-4.9-1.1-1-2.2-1.1-3.8-.4zm-54.3 3.6c-1.6 1.8-1.7 2.5-.7 4.2a8.2 8.2 0 0 0 4.3 2.9c1.7.4 4.6.6 6.5.4 2.7-.3 3.8-1 5-3.4 1.4-3 1.4-3.2-.5-4.5a9.1 9.1 0 0 0-4-1.5l-5.4-.3c-2.4 0-3.9.6-5.2 2.1zm128.6-1.8a46 46 0 0 1-4 1.4c-1.8.6-1.6 1 2.3 4.6 2.3 2.2 4.2 4.4 4.2 5 0 .6.4 1 1 1s1-2.8 1-6.5c0-4.6-.4-6.5-1.3-6.4-.6 0-2.1.4-3.2.9zm69.2.8c-.4.6-1.8 1.2-3.1 1.2-1.4 0-4 .9-5.8 2-1.8 1-4.3 3-5.6 4.4-1.2 1.4-2 3.4-1.7 4.4.2 1 1.6 2.8 3 4.2l2.4 2.5 14.4-8.1c2-1.3 3.7-2.7 3.7-3.1 0-.5-1.5-2.6-3.3-4.8-2.3-2.7-3.6-3.6-4-2.8zm-162 9a69.8 69.8 0 0 0-4.9 9.2c-.2 1 .4 1.5 1.6 1.5 1 0 2.6-1.3 3.5-3 .9-1.7 3.3-4.5 5.3-6.3l3.8-3.2a23 23 0 0 1 2 6.5c0 .8-.3 1.7-.8 1.9-.4.2-1 1.5-1.2 3-.4 2.2-.2 2.6 1.5 2.4 1.3-.2 2.7-2.2 4.5-6.2 2.5-5.8 2.5-5.9.5-7.3l-5.8-3.8c-2-1.4-4-2.5-4.5-2.5-.4 0-2.9 3.5-5.4 7.8z"/><path class="shp0" d="M387.3 499l-2.3 2a91.2 91.2 0 0 1 7 17.5c.5 2.8 1.6 5.9 2.4 7l1.3 2c1.8-3.4 1.8-6 1-10-.5-3.3-1.3-6.4-1.8-7-.5-.6-1-2.5-1-4.3 0-1.7-.7-4.6-1.6-6.2-1-1.7-2-3-2.3-3-.3 0-1.5 1-2.8 2z"/><path class="shp1" d="M263.4 503l-2.9 2.8c3.9 2 6 3.6 7.2 5 1.7 2.2 2.4 2.4 3.5 1.5 1-1 1-1.5.2-2.5-.7-.7-1.4-3.2-1.6-5.6-.3-2.9-.9-4.2-2-4.2-.8 0-2.8 1.3-4.4 3zm-33.8 2c-.3.6-.2 3.3.4 6 .7 3.3 1.5 5 2.5 5s1.7-1.3 2-3.8c.3-2 1.2-4.4 2-5.2.9-.8 1.6-1.8 1.5-2.3 0-.4-1.8-.7-4-.7-2.1 0-4.2.4-4.4 1zm15.2-.3c-2 .2-2.7.8-2.3 1.8.3.8.5 3.3.5 5.5s.3 4 .8 4a46.1 46.1 0 0 0 7.3-9.5c0-.2-.8-.8-1.8-1.3-1-.4-3-.6-4.6-.5zm-39.3 2c.5 1 1 3.7 1.2 6 .2 3 .8 4.3 1.8 4.3s1.8-1.5 2.3-4.6c.4-2.6 1-4.8 1.4-5 .5-.2.6-.8.3-1.4-.3-.6-2.2-1-4.2-1-3 0-3.5.3-2.8 1.8zm11.7-.2c-.4.9-.1 2.1.6 2.8.7.6 1.2 2.7 1.2 4.4 0 2 .5 3.3 1.3 3.3.6 0 1.7-1.9 2.3-4.2a92 92 0 0 1 1.8-6c.5-1.5 0-1.8-3-1.8-2.1 0-3.7.6-4.2 1.5z"/><path class="shp3" d="M142.5 509.7c-1.7 2-3 4.1-3 4.7 0 .6 1.5 1.5 3.4 2 3.2 1 3.5 1 6.8-2.9 1.8-2.2 3.3-4.6 3.3-5.3 0-.6-.7-1.4-1.5-1.7-.8-.3-2.5-.5-3.8-.5-1.3 0-3.4 1.5-5.2 3.7z"/><path class="shp0" d="M372 508.8l-2.3 1.7a135.3 135.3 0 0 1 16.4 35.3c.5.6 1.4.9 2 .5 1-.6 1-.2.6 1.2-.5 1.4 0 2.7 1.8 4.5 1.4 1.4 2.8 2.3 3 2 .4-.3.4-2 0-3.8-.3-1.7-1.2-3.4-2-3.7-1-.3-1.3-1.3-1-2.8.4-1.3-.1-3.5-1.4-5.7a15 15 0 0 1-2.1-6c0-1.4-.3-3.4-.5-4.5a4.5 4.5 0 0 0-2.5-2.8c-1.5-.5-1.8-1.3-1.4-3 .3-1.2 0-3.6-.7-5.2s-2.2-4.5-3.3-6.2c-1.2-1.8-2.6-3.3-3.2-3.3-.6 0-2.2.8-3.4 1.8z"/><path class="shp1" d="M256.4 510c-1.3.6-2.2 2.2-2.6 4.7-.5 3-.3 4 1 5 1 .7 2.4 1.3 3.2 1.3.8 0 2.2-.6 3-1.5 1.2-1.3 1.3-1.8.2-2.8a5.1 5.1 0 0 1-1.2-3.2c0-1.1-.4-2.5-.9-3.1-.5-.7-1.6-.8-2.7-.4z"/><path class="shp0" d="M364 512.3c-1.5.6-2.3 1.7-2.2 2.9.1 1 1.2 3.3 2.4 5a113.4 113.4 0 0 1 6.9 11.4c1.4 2.7 3.4 7.3 4.5 10.2 1 2.9 2.1 5.2 2.4 5.2.3 0 1-1.8 1.8-4 1-3.3 1-5-.3-9.5-1-3.6-2-5.5-3-5.5-.9 0-1.3-.6-1-1.5a38 38 0 0 0-7.7-14.1c-1-.8-2.2-.8-3.8-.1zm-8.3 4.5c-1.4 1.6-1.4 2.1.9 6.7 1.8 3.7 3 5 4.5 5 1.3 0 2.4.6 2.6 1.3.2.6-.4 1.2-1.2 1.2-.8 0-1.5.7-1.5 1.5s.4 2.6 1 4c.7 1.8 1.4 2.3 2.6 1.8.8-.5 2-2.1 2.5-3.8.5-1.6.6-3.9.3-5a64.4 64.4 0 0 0-9.5-14.5c-.3 0-1.3.8-2.2 1.8z"/><path class="shp1" d="M126.4 519.3c-.9 1.2-1.6 2.7-1.5 3.4 0 .7 1.6 1.5 3.3 1.7 1.8.3 5.1.8 7.3 1.3s4.8.8 5.8.6c1-.2 2-1 2.2-2 .3-1 .2-2.6-.2-3.6-.5-1-2.2-2.2-3.8-2.6-1.7-.5-5-.9-7.3-1-3.2 0-4.6.5-5.8 2.2z"/><path class="shp0" d="M88 544.2l-.3 41.2c-.2 17.6 0 23 1 23.3.8.2 1.5-1.1 1.8-3.5.4-2 1-9.1 1.5-15.7.4-6.6.7-23.5.7-37.5-.2-25.4-.2-25.5-2.4-25.8-2.1-.3-2.1-.2-2.3 18z"/><path class="shp3" d="M95.4 527c-.4.6-.7 3.9-.6 7.3a438.1 438.1 0 0 1 .3 44.2c-.3 9.4-.4 18.3-.1 19.8.4 2.5.9 2.8 3.8 2.5l3.2-.3c1-28.7 1-44.8.8-54.3l-.4-17.3c-5.3-2.4-6.5-2.5-7-1.9z"/><path class="shp0" d="M395.6 527.8c-.3.4-.3 1.7 0 3 .2 1.2 1 2.2 1.9 2.2.8 0 1.7-.6 1.9-1.3.2-.6 0-2-.5-3s-1.3-1.7-1.8-1.7a2 2 0 0 0-1.5.8zm-290.5 37L105 599c3.8-2.3 4.3-2.2 5-.8.6 1 2 1.8 3 1.8 1.2 0 3.2-1.1 4.5-2.5a9 9 0 0 0 2.5-5.3 7.8 7.8 0 0 0-6.8-7.2c-1.2 0-2.2-.5-2.2-1s1.3-1.7 3-2.5 3.9-3.3 5-5.5 2-6 2-8.5-.5-6.9-1.2-9.8c-.7-3-2.5-7-4.5-9.5a20.1 20.1 0 0 1-3.3-5.2c0-.5 2.6 1.1 5.8 3.7l11.5 9.7a82.9 82.9 0 0 1 18.4 24.1c1.7 3.3 4.2 9 5.4 12.5a45 45 0 0 1 2.3 17.5c0 9.1-.4 12-2.3 17a58.8 58.8 0 0 1-5 10 60.6 60.6 0 0 1-16.1 14.7 55.8 55.8 0 0 1-11.2 4.5c-3.7 1-7 1.5-7.3 1-.3-.4.8-2.4 2.4-4.5 1.6-2 3.2-5 3.5-6.7.4-1.8 0-4.5-.8-6.5-.7-2-2.1-4.2-3-5-1.5-1.3-2.3-1.3-4.7-.3-1.6.7-3.6 1-4.4.8-1.3-.4-1.5 1.5-1.5 13.5 0 11.6.3 14 1.5 14.5.8.3 1.5 1.3 1.5 2.3 0 1-.3 2-.7 2.5-.5.5-.7 2.3-.5 4 .2 2-.4 4.2-1.7 6L103 681h28.5a451.5 451.5 0 0 0 23.1-25c3.9-4.7 8-9.9 9-11.5a97.5 97.5 0 0 0 8.8-16.5c.8-2 2.2-5.5 3-8 .9-2.5 1.6-5.9 1.6-7.5 0-1.6-1.3-5.7-2.9-9-1.5-3.3-7-11.6-12-18.5a65 65 0 0 1-9.8-16c-.3-2-.3-6.2 0-9.5l1.1-10.3c.3-2.3 1.2-5.7 2-7.5l1.3-3.2a858 858 0 0 1-28.7-4.1l-11.5-2c-1.7-.3-4.8-.8-7.1-1l-4.1-.7m61.5 4.4a10.9 10.9 0 0 0-5.4 5.6c-1 2.6-1.4 5.7-1.1 9.8.2 3.3 1.3 7.8 2.4 10a303.8 303.8 0 0 0 15.2 27L187 603c.5.8 1.8 4.4 2.9 8 1.7 5.8 2 6.1 2 3 .1-2-1-6.2-2.4-9.5a254 254 0 0 0-10.9-21.5l-2.5-4-5.7-11a73.7 73.7 0 0 1-5.4-14.5c-.7-3.5-1-7.6-.5-9.8.4-2 2-5.3 3.7-7.2l2.6-3.4-4 2zm10.6 2c-3.9 4-3.9 4-3.9 11.7 0 5.8.6 9.2 2.4 13.7a122.1 122.1 0 0 0 10.2 19.5l2.7 5 5.5 10.3c2 3.7 4.4 9.6 5.2 13.2.8 3.6 1.3 7 1 7.5-.3.5-.1 1.8.4 2.8.7 1.4 1 1.1 1.5-1.5a24 24 0 0 0-.5-8 60.4 60.4 0 0 0-5.5-14.8c-1.5-3.3-4.8-9.6-7.4-14a77.3 77.3 0 0 1-10.6-23.8 36.2 36.2 0 0 1-1-12.7c.4-4.7 1.2-7.4 3-9.8 1.3-1.7 2.1-3.2 1.7-3.2-.4 0-2.5 1.8-4.7 4zm16-2.9c-1 .6-2.8 2.7-3.8 4.7a33.2 33.2 0 0 0-.3 24.1c1.4 4.1 5.8 13.8 9.6 21.5 3.8 7.7 7.7 16 8.6 18.5 1 2.5 2.1 7 2.6 10 .6 3 .8 6.6.4 8-.5 2.3-.4 2.4.7.5.6-1.1 1.3-3.6 1.4-5.5.1-2-.7-6.4-1.8-10-1.1-3.6-3.8-10.8-6-16-2.2-5.2-5-11.8-6.3-14.5-1.3-2.8-3.7-9-5.4-13.8a55.2 55.2 0 0 1-3.1-12.5c0-2 .7-5.7 1.5-8.2a23.8 23.8 0 0 1 4.4-8l-2.4 1.2zm-8.5 1.6c-1.3 1-3.2 3.7-4.2 6-1.1 2.8-1.6 6-1.3 9.5.2 2.8 1.6 8.4 3.1 12.2a170 170 0 0 0 8.8 17.5c3.3 5.8 7.5 13.6 9.2 17.5 1.8 3.9 3.8 9.7 4.4 13 .6 3.3.8 7.6.5 9.5-.6 3-.5 3.3.7 2.2 1-.8 1.4-3.3 1.3-7 0-3.1-.8-7.7-1.7-10.2-.8-2.5-3.5-8.8-6-14l-8.5-18a84.1 84.1 0 0 1-5.8-16 27 27 0 0 1-.5-13c.6-3 1.7-6.7 2.4-8.3.6-1.5 1-2.7.6-2.7-.3 0-1.7.8-3 1.8zm12.6 1c-1.1 1-2.5 2.8-3 4.2-.7 1.4-1.3 4.8-1.4 7.5-.2 3.7.7 7.6 3.4 15 2 5.5 5 12.7 6.5 16 1.6 3.3 5 11 7.3 17 4 9.8 4.4 11.8 4.2 18-.1 3.9-.6 8.1-1 9.5-.7 2.1-.6 2.3.6 1.2 1-.8 1.5-4.2 1.8-9.5.2-5.7-.2-10-1.4-14.2a102 102 0 0 0-4.1-11.3 54.3 54.3 0 0 1-2.4-5.7c0-.3-1.4-3.5-3-7.3-1.8-3.7-4.3-10-5.7-14.2-1.4-4.1-2.7-10-3-13a16 16 0 0 1 1.9-10.2c1.3-2.6 2-4.7 1.8-4.7a9 9 0 0 0-2.5 1.7zm30.8.3a32 32 0 0 0-1.8 5.9c-.4 2.3 0 6 1.5 11a92.5 92.5 0 0 0 7.3 19l4.5 10.5c1.6 3.9 3.7 10.1 4.7 14 1.5 6 1.6 8 .5 14.5a57.9 57.9 0 0 1-4.6 14.5 23.1 23.1 0 0 0-2.8 7.5c.3.3 1.2-.4 2-1.5A56 56 0 0 0 247 616c.8-3.5 1-8.7.7-14.5-.3-5-1.3-11-2.1-13.3-.9-2.3-3.3-7.7-5.5-12-2.1-4.2-5.3-11-7.1-15.2-1.8-4.1-3.7-10-4.2-13-.7-3.4-.7-6.8-.1-9 .5-1.8.8-3.5.8-3.8 0-.3-.6.6-1.2 2zm-25.8 1.6a18 18 0 0 0-3.5 6.5c-.7 2.8-.6 5.5.5 10.3.8 3.6 1.9 7.3 2.4 8.3a567.7 567.7 0 0 1 13.8 32.7c3.3 8.4 3.4 9.5 3 17.5-.3 4.7-.9 9.6-1.2 11-.6 2.2-.5 2.3.7 1 .7-1 1.9-4.3 2.6-7.6a27 27 0 0 0-.2-14.1c-.9-4.6-2-9-2.6-10-.5-1-2.6-5.8-4.6-10.8-2-5-4.1-9.9-4.8-11a56.1 56.1 0 0 1-6.2-20.5c-.5-5.2-.3-7.3 1.1-10.5 1-2.2 2-4.3 2.1-4.8.2-.4.1-.7-.1-.7s-1.6 1.2-3 2.8zm6.2-.7c-1 1.1-2.1 3.1-2.7 4.5a26 26 0 0 0-1 7.5 45.9 45.9 0 0 0 6 21.8c1.6 3.4 3 6.4 3 6.7 0 .3 1.4 3.5 3 7.3 1.7 3.7 3.4 7.4 3.9 8.2a74 74 0 0 1 3.2 13 56 56 0 0 1-1 13.5c-.5.5-1.2 2.5-1.5 4.3-.3 1.7-.4 3.2-.1 3.2.3 0 1.4-2.1 2.6-4.8a35 35 0 0 0 2.4-12.2c.3-5.3-.2-9.1-1.5-13a623.7 623.7 0 0 0-7-19.5l-3.3-7.5c-1.3-3-3.2-7.5-4-10-1-2.5-1.8-7-2.1-10-.3-4 0-6.6 1.5-9.8 1-2.3 1.9-4.4 1.9-4.7 0-.3-.4-.5-.8-.5s-1.5.9-2.5 2zm13.7 1.8c-1.1 2.5-1.4 5.2-1 8.2a106.8 106.8 0 0 0 7.1 22 74 74 0 0 1 2.8 6.5l5.1 14a93 93 0 0 1 4.3 15c.4 3.4 0 6.9-1.2 11a65 65 0 0 1-3.4 9l-3 4.8c-1 1-1.2 1.8-.6 1.8s1.8-.8 2.7-1.8c.9-1 2.9-4.5 4.4-7.8 2.5-5.2 2.9-7.2 2.9-15 0-6-.6-10.8-1.8-14.5-1-3-3.6-10-5.9-15.5a6130 6130 0 0 0-7.4-18c-1.8-4.4-3.4-10-3.5-12.5-.1-2.5 0-6 .4-7.8.4-1.7.4-3.2.1-3.2-.2 0-1.2 1.7-2 3.8zm-54 1.5c-2.3 3.5-2.7 4.9-2 8.5.3 2.3 2 7.5 3.6 11.5s4.6 9.9 6.6 13.2c2 3.3 6.9 12.3 10.9 20a56 56 0 0 1 7.8 20.3c.4 3.4 1.1 6.2 1.7 6.2.6 0 .9-2 .8-4.3-.1-2.3-1.3-7.1-2.6-10.7-1.3-3.6-4-9.6-6.1-13.5l-6.5-11.5c-1.5-2.5-4.3-7.8-6.2-11.8-1.8-4-4-10-4.8-13.5-.9-4-1-7.7-.5-10.7l1.2-6.3c.3-1 0-1.7-.4-1.7-.5 0-2 2-3.6 4.3zm49-.5c-1.5 3.1-1.6 4.6-.7 9.7a92 92 0 0 0 4.7 15c2 5 5.8 14.6 8.3 21.5 3.7 10.4 4.5 14 4.8 21 .3 7.3 0 9.4-2.2 14.5l-3 7.5c-.4.8.6.1 2-1.5 1.5-1.6 3.4-5.5 4.3-8.5.9-3 1.9-7 2.2-9a84.8 84.8 0 0 0-6.7-28.8c-.1-.6-1.4-4-3-7.5a244 244 0 0 1-5.8-13.7c-2.3-6-2.8-9-2.8-15.8 0-4.5 0-8.2-.2-8.2 0 0-1 1.7-1.9 3.8zm-3.9-.5c-.8 1.2-1.8 4.2-2.2 6.7a32.3 32.3 0 0 0 2.9 16.5 71 71 0 0 0 5.2 12.8 148 148 0 0 1 7.6 18.2 42.6 42.6 0 0 1 3 13.3 48.7 48.7 0 0 1-5 20.7c0 .3.4.5 1 .5s2-2.1 3.2-4.8c1.4-3 2.3-7.4 2.6-12.7.3-5.4 0-9.8-1.1-13.5a311.6 311.6 0 0 0-10.1-29c-1.5-3.6-3.6-9.2-4.7-12.5-1-3.3-2-8-2-10.3 0-2.3.5-5.1 1-6.2.5-1.1.8-2 .5-2-.2 0-1 1-1.9 2.3zm-57.4 7.2c-.6 2.5-1.1 5.9-1.1 7.5 0 1.6 1.4 5.8 3.1 9.3 1.8 3.4 6 10.5 9.5 15.7 3.5 5.2 6.3 9.8 6.4 10.3 0 .4 1.8 3.5 4 7 2 3.4 4.8 9.1 6 12.7 1.2 3.6 2.6 7 3.1 7.5.6.6 1 .1.9-1.5a34 34 0 0 0-2.5-8.5c-1.4-3.3-7.7-15-14-26-8.9-15.5-11.8-21.5-12.9-26.5a36.6 36.6 0 0 1-1-12c-.2 0-.9 2-1.5 4.5zm225-2.2c-.5 1.6-1 3.3-1 3.8s1 1.5 2.4 2.1c1.4.7 2.7 1 3 .8.4-.3.4-1.6.1-3-.3-1.4-1.2-3.4-2-4.5-1.4-2-1.5-2-2.4.8z"/><path class="shp4" d="M122.5 566.5c0 8.5-.2 9.5-2.8 13.1l-2.7 3.9c3.4 2.5 4.3 4.6 4.7 7.5.5 3.3.2 5.2-1 7.3-1 1.5-3.2 3.3-5 4-2.7 1.2-3.2 2-3.5 5-.2 3.7-.2 3.7 5.5 5.3 3.2.9 7 2 8.3 2.6 2.3 1 2 1.2-4 3-3.6 1-7.2 2.3-8 2.7-.8.4-1.6 2.3-1.8 4.2-.2 2.5.4 4 2 5.9 1.4 1.4 3.6 4.2 5.1 6.3 1.5 2 2.7 4.6 2.7 5.7 0 1.1.5 1.8 1 1.5.5-.3 1.3-3.3 1.6-6.8.4-4.4.1-7.4-1-10.5L122 623c4.3 0 6.5-.7 7.8-1.5a5 5 0 0 0 2.2-4.5 7 7 0 0 0-2.3-5c-1.2-1.1-2.6-2-3.2-2-.5 0-1.7-.4-2.5-1-1.3-.7-1.1-1.4 1.1-5.1a37 37 0 0 0 3.7-10.9l1.6-10.5c.3-2.2.2-4.4-.2-4.8-.4-.5-.7-1.4-.7-2a45.5 45.5 0 0 0-3.8-12c-.6-.9-1-2.3-.7-3 .3-.8-.2-2-1-2.5-1.3-.9-1.5.3-1.5 8.3z"/><path class="shp3" d="M128 558.5c0 .5 1.3 2.8 3 5a61.4 61.4 0 0 1 9 17.3c0 .4.8 2.7 1.9 5.2a50 50 0 0 1 2.8 9c.4 2.5.8 9.9.8 16.5 0 9.4-.4 13-1.9 16.5a61.3 61.3 0 0 1-13 18.8c-2.8 2.9-4.6 5.2-4.1 5.2s2.8-1.1 5-2.6a44.6 44.6 0 0 0 19.8-27c.8-2.7 1.4-8.2 1.2-12.4-.1-4.1-.8-10-1.5-13a87.4 87.4 0 0 0-19-35c-2.1-2.5-4-4-4-3.5z"/><path class="shp0" d="M154 565.8c0 1.2.5 3.4 1 5 .7 1.5 5.3 8.2 10.3 15 5 6.6 9.3 12 9.4 11.7.2-.3-.4-2-1.4-3.8-.9-1.7-5-8.4-9.2-14.8l-8.8-13.5c-1.1-1.8-1.2-1.8-1.2.4z"/><path class="shp1" d="M351.8 574.2l-19.5 24.3a168.9 168.9 0 0 0-11.2 15c0 .5 5.8 8.4 13 17.5 7.3 9 13.9 17.6 14.8 19a170 170 0 0 0 7.1 9.3c4.3 5.4 5.7 6.6 6.6 5.5l11-14.3c5.3-7.1 13.7-17.7 18.4-23.5 4.8-5.8 9-11 9.3-11.8.4-.7-7.1-10.9-19.4-26a633.2 633.2 0 0 0-20.8-25c-.5-.2-4.7 4.3-9.3 10z"/><path class="shp3" d="M130.4 569c.3 2 .9 7.3 1.3 12 .4 5.8.2 10-.7 13.5-.7 2.8-2.1 6.6-3.1 8.5l-1.8 3.5c5.6 3.9 7.6 6.2 8 7.8.7 1.9.4 3.8-.8 6.5-1 2.2-2.6 3.8-3.8 4l-3 .7c-.7.2-.6 2 0 5.2a20 20 0 0 1 0 9.8c-.6 2.8-1.5 5.6-1.8 6.3-.4.6-.3 1.4.3 1.7.5.3 3.5-2.3 6.6-5.8 3.1-3.4 6.6-8 7.7-10.2a52.8 52.8 0 0 0 4.7-21 95.7 95.7 0 0 0-5.3-28.5c-1.4-3.6-4-9-5.7-12-3-5.2-3.1-5.3-2.6-2z"/><path class="shp2" d="M269.5 570a10.5 10.5 0 0 0-5.5 8.3c0 1.2.6 3 1.3 4 .6.9 1.6 1.7 2.2 1.7.6 0 1.8-.9 2.8-2 1-1.1 1.3-2.2.7-2.5-.6-.3-1.4.2-2 1-.6.8-1.4 1.3-2 1-.6-.3-1-1.6-1-3s.4-3.4 1-4.5c.8-1.5 2-2 5.3-2 3.6 0 4.7.6 8 4a18 18 0 0 1 3.7 5c0 .5 1.6 1.9 3.5 3 3 1.7 3.9 1.8 6.2.8 1.5-.7 2.9-2 3-3 .2-1.3-.4-1.8-2.2-1.8-1.4 0-3.5-.6-4.8-1.3-1.2-.6-3.9-2.7-6-4.5-2-1.7-4.8-3.7-6.2-4.2-1.4-.5-3.3-1-4.3-1-1 .1-2.6.5-3.7 1zm22.5 21.2c-1.1 1.2-2 2.6-2 3.2 0 .6.6 1.9 1.3 2.8.6 1 1.4 1.7 1.7 1.8.3 0 .5-1.7.5-3.8 0-3 .4-3.8 2-4 1.1-.2 3.6.9 5.5 2.2 2.8 2 3.8 2.3 4.8 1.3.7-.7 1-1.5.5-1.9a55.5 55.5 0 0 0-11.6-3.8c-.3 0-1.6 1-2.7 2.2z"/><path class="shp1" d="M108 599.2c0 .2-.4 7.6-.6 16.5-.3 10.5 0 16.3.6 16.3.5 0 1.1-.8 1.3-1.8.2-1 .4-8.1.5-16 .2-7.8-.2-14.4-.7-14.7-.5-.4-1-.5-1-.3z"/><path class="shp0" d="M177.5 604.3c1.4 2.8 2.5 6.7 2.5 8.5 0 2.2.5 3.2 1.5 3.2s1.4-.7 1-2.5a49.6 49.6 0 0 0-6.8-14.1c-.4-.2.4 2 1.8 4.9z"/><path class="shp3" d="M93.4 604.3c-.4.6-.6 6.4-.5 12.7.1 6.3.4 11.8.7 12.3.2.4 2.9.7 5.9.7h5.5v-27c-8.8 0-11.2.5-11.6 1.3z"/><path class="shp1" d="M30.2 619a198.4 198.4 0 0 0-11.7 15.5c-.3.9 3.1 6.1 8.3 12.8 4.8 6.1 10 13.1 11.7 15.4 1.6 2.3 3.2 4.3 3.5 4.3.3 0 3.7-4 7.7-9.2a901 901 0 0 1 12.2-15.5L67 636a537.4 537.4 0 0 0-24.9-30.8c-.4-.1-5.8 6-12 13.8zm408.7.2a455 455 0 0 0-12.1 15.5c-.5.8 3.4 6.6 11.2 16.5 6.6 8.4 12.5 15.4 13 15.5.6.2 2.4-1.6 4.2-4l12-15.5L476 636c-19-23.4-24.8-30.4-25.1-30.6-.4-.2-5.8 6-12 13.8z"/><path class="shp2" d="M285.9 609.6c-.3.4-2.3.9-4.4 1-2.2.3-5.4 1.4-7 2.6-2 1.3-3.9 1.9-5.5 1.5-1.4-.3-3-.3-3.8 0-.6.1-1 .8-.7 1.3.3.5 1.7 1 3.3 1 1.9 0 3.6 1.2 5.8 3.8 1.7 2 4.6 4.3 6.5 5.1 2.7 1.2 4 1.2 6.4.3 2.6-1 3.2-1 4.3.5 1.1 1.7 1.2 1.7 1.2-.2a7 7 0 0 0-1.8-3.9c-1-1-1.8-3.1-2-4.7l-.2-5.9c0-1.6-.4-3-.8-3-.5 0-1 .3-1.3.6z"/><path class="shp3" d="M88.5 611.7c-.5.3-.8 3-.7 6 .1 2.9.7 5.5 1.2 5.8.6.3 1-2 1-6 0-3.6-.2-6.5-.3-6.5-.2 0-.7.3-1.2.7z"/><path class="shp0" d="M276.2 614.6c-.4 1-.1 2 .8 2.5.8.5 1.8.9 2.3.9.4 0 .7-.5.7-1s.2-1.7.5-2.5c.3-1-.2-1.5-1.5-1.5-1.1 0-2.4.7-2.8 1.6z"/><path class="shp3" d="M111.6 615.5c-.3.8-.1 1.7.4 2 .5.3 2 .2 3.3-.1 2.2-.6 2.2-.6.2-2a8.2 8.2 0 0 0-2.7-1.4c-.3 0-.9.7-1.2 1.5z"/><path class="shp0" d="M275.6 620.1c.6.8 2.9 2.2 5 3.2 2.8 1.3 4.2 1.6 4.8.8.7-.8.4-1-1-1-1 0-2.3-.4-2.9-.9-.6-.5-2.4-1.4-4-2.1-2.5-1.1-2.8-1.1-1.9 0z"/><path class="shp2" d="M265.1 625.4c0 .3 1.1 1.6 2.6 2.9 1.5 1.2 3.7 2.7 4.8 3.3a53 53 0 0 0 12.5 4c1.4.1 3.7-.2 5.3-.7 2-.7 2.7-1.6 2.7-3.4 0-1.4-.4-2.5-.8-2.5s-1.4.6-2 1.3c-.7.6-3.6 1.2-6.5 1.2-3.7 0-6.9-.8-11.2-3a277 277 0 0 1-6.6-3.3c-.4-.2-.7-.1-.8.2z"/><path class="shp0" d="M87.5 629.3c-.3 1.2-.4 13.2-.3 26.7l.3 24.5 7.5.5c-2.6-5.2-3-7.6-2.6-9.3.4-1.8.1-3.1-1-4-.8-.6-1.5-1.7-1.5-2.2 0-.5.7-1.7 1.6-2.5 1.3-1.3 1.5-3.9 1.4-16-.2-11-.6-15.1-1.8-17.3-.9-1.5-2-2.7-2.3-2.7-.4 0-1 1-1.3 2.3z"/><path class="shp3" d="M175.6 627.6a38 38 0 0 0-3.2 6.3c-2 4-2.3 5.9-1.5 6.6.8.7 1.7.6 2.9-.2l4.7-3a25.9 25.9 0 0 1 17-1.3c2.2.7 6 3 8.4 4.9 2.4 2 5.2 5.5 6.3 7.9 1.3 3.1 2.4 4.2 4 4.2 1.3 0 4.1-1.3 6.3-3a21 21 0 0 1 7.5-3.7c2-.3 5-.3 7 0 2 .4 5.2 1.1 7.3 1.7a20.8 20.8 0 0 1 12.2 12c.8 2.5 1.7 3.6 3.3 3.8 1.3.1 3.8-1.2 6.2-3.3 2.2-2 5.5-3.9 7.3-4.4 2-.5 5.4-.5 8.7.1 3 .6 7 2.1 9 3.4a26 26 0 0 1 6.3 6.9c2 3.4 3.3 4.5 5.2 4.5 1.7 0 2.5-.5 2.5-1.8 0-1-1-4-2.3-7-1.8-4.4-2.7-5.3-5.2-5.7L285 655a514 514 0 0 1-31-6l-14-3.5a1526 1526 0 0 1-28.5-7.6c-9.9-2.7-19.3-5.6-21-6.3l-7.3-3c-2.3-.9-4.8-1.6-5.5-1.6-.8 0-1.7.3-2 .6zm-80 5.6c-.3.7-.7 4.4-1 8.3-.2 3.9-.1 10.3.2 14.3.7 7 .8 7.2 3.5 7.2 1.5 0 2.9-.3 3.1-.8.2-.4.5-7.2.7-15.2l.3-14.5c-5-.5-6.5-.1-6.8.7zm81.2 8.4c-2.8 1.4-5 2-5.3 1.4-.3-.5-1.2-1-2-1s-1.5.5-1.5 1 .8 1.2 1.8 1.5c1 .3 2.9 2.5 4.3 4.8 1.5 2.3 4.8 5.7 7.5 7.4 2.7 1.8 5.2 3 5.7 2.8.4-.3-.2-2.8-1.3-5.5a54 54 0 0 1-2-5.5c0-.3 1.7-2 3.8-4 2-1.8 3.5-3.6 3.2-3.8-.3-.2-2.5-.7-5-1-3.6-.4-5.5 0-9.3 1.9zm18.6 3.1l1.1 6c.4 3 0 3.6-3.5 6-2.1 1.6-4 3.3-4 3.8 0 .6 2.4.7 6.7.2 3.8-.4 8.2-1.6 10-2.7 2.7-1.6 3.7-1.8 5.6-.9 1.2.6 4.2 3.4 6.7 6.2 2.5 2.7 6.3 5.9 8.5 7 2.2 1 4.4 1.5 4.8 1 .5-.4 0-3-1.3-5.8l-2-5c7.8-6.8 8.2-7.6 7-8.5-.8-.5-2.3-1-3.3-1l-3.4-.1c-1-.1-3 0-4.3.4-1.4.4-3.4 1.6-4.5 2.7s-2.8 2-3.8 2-2.8-.6-4.2-1.3c-1.4-.6-2.5-1.8-2.5-2.5 0-.6-.8-2.4-1.8-4-1-1.5-3.8-3.5-6-4.5-2.3-1-4.7-1.7-5.3-1.7-.8 0-1 1-.5 2.8z"/><path class="shp1" d="M189.5 647.5c-.8 1.4-1.3 3.4-1 4.5.3 1.1.8 2 1.3 2 .4 0 1.5-.5 2.5-1.2 1.4-1 1.8-2.2 1.5-4.5-.3-1.8-1-3.3-1.6-3.3-.6 0-1.8 1.1-2.7 2.5z"/><path class="shp3" d="M160.6 652a32.5 32.5 0 0 0-4.3 6.5c0 .3 1.5 0 3.2-.5a22 22 0 0 0 6.3-4.3c1.8-1.8 3.2-4.2 3.2-5.5 0-1.5-.6-2.2-1.9-2.2-1 0-3.7 2.5-6.5 6zm7.4 3.2a20.5 20.5 0 0 1-13.7 6.8c-1.8 0-3.3 1-4.6 2.8l-7.3 9-5.4 6.2h80c-.4-5.6-.8-7.4-1.3-7.6-.4-.2-.5-1-.2-1.9.3-.9-.1-1.5-1-1.5-.8 0-2 1-2.6 2.3-.6 1.2-2.4 3.3-4 4.7-2 1.7-3.4 2.2-4 1.5-.6-.5-1.1-3.4-1.2-6.3-.1-2.8-.6-5.2-1.2-5.2s-1.9.9-3 2a41.8 41.8 0 0 1-14.8 8.9c-3 .9-4 .8-5.2-.4-.8-.8-1.5-2.2-1.5-3 0-.8-.4-1.7-1-2-.6-.3-1.7-2.9-2.5-5.8a45 45 0 0 1-1.6-9.5c0-2.3-.4-4.2-.8-4.1-.3 0-1.7 1.4-3.1 3.1zm71.5-2.1c-.3.5-.2 2.3.3 4 .4 1.7 1 3.3 1.4 3.5.5.2.8 1.2.8 2.1 0 1-2 3.4-4.3 5.4-2.3 2-3.8 4-3.4 4.5.5.5 3 .8 5.5.7 2.8-.1 7.3-1.5 11.2-3.3 6.3-3 6.4-3.2 4.3-4.6-1.3-.8-2.3-2-2.3-2.9 0-.8-1-2.6-2.3-4a22.4 22.4 0 0 0-6.5-4.5c-2.4-1-4.5-1.5-4.7-1z"/><path class="shp1" d="M233.6 658.8c-1.3 1.4-1.4 2.3-.6 4.7l1 3c3.7-3.5 4-4.7 3.6-6.8-.3-1.5-1-2.7-1.4-2.7-.5 0-1.6.8-2.6 1.8z"/><path class="shp3" d="M174.6 661.8c.4 2 1.6 5.5 2.7 7.7 1 2.2 2.3 4.6 2.8 5.3.7 1 1.7.9 4.7-.3 2-.9 5.8-3 8.4-4.8 2.6-1.8 4.8-3.5 4.8-4 0-.4-.8-.5-1.8-.3l-4.2 1.1c-1.4.4-4.3.2-6.5-.4-2.5-.6-5.2-2.3-7.3-4.5-1.7-2-3.4-3.6-3.8-3.6-.3 0-.2 1.7.2 3.8zm32 .2c-1 1.7-1.5 5-1.3 7.5 0 2.5.4 4.5.7 4.5.3 0 1.5-1 2.6-2.2 1.2-1.3 2.7-3.3 3.3-4.5.6-1.3 1.1-3.4 1.1-4.8s-.7-2.7-1.5-3c-.8-.3-2-.5-2.5-.5s-1.6 1.4-2.5 3zm60.6-.6c-1.8.7-3.8 2-4.3 3-.4 1-1.9 2.1-3.1 2.5-2.2.7-2 1.1 4 7 4.8 4.7 6.9 6.1 9.2 6.1h3c-3.1-5.8-4-8.2-4-9 0-.8 1.4-3 3-5 1.7-2 3-3.8 3-4.3 0-.4-1-1-2.3-1.2-1.2-.3-2.9-.5-3.7-.5-.8 0-3 .7-4.8 1.4z"/><path class="shp1" d="M101 663c0 .5-.8 1-1.8.8-1-.1-3 .1-4.7.5-2.4.6-2.7 1-1.7 2 .8.7 3.4 1 6.5.9 2.9-.2 5.6-.6 6-1 .4-.4-.3-1.5-1.7-2.5s-2.5-1.3-2.6-.7z"/><path class="shp3" d="M281 663c0 .5 1.1 2.7 2.4 4.8l2.5 3.7c-5.3 6.2-6.6 8.2-6.3 8.5.3.3 3.2.4 6.5.3 4.3-.2 7-1 9.9-2.8l4-2.5c-5.4-5.4-7-7.5-7-8s-1.8-1.9-4-3-4.9-2-6-2c-1.1 0-2 .5-2 1z"/><path class="shp1" d="M276 667.2c-.8.7-1.3 2.1-1.2 3.3 0 1 .7 2.6 1.4 3.3.7.7 1.9 1.2 2.6 1.2.6 0 1.7-1 2.3-2.3.8-1.6.8-2.8 0-4.5-.6-1.2-1.7-2.2-2.4-2.2a5 5 0 0 0-2.7 1.2zm-177.8 2.5c-1.7.1-3.5 1-4 1.8a7 7 0 0 0 0 4c.5 1.4 1.7 2.7 2.8 3 1.1.3 3.3-.4 5-1.5 1.7-1.1 3-2.8 3-3.8a5 5 0 0 0-1.2-3c-.7-.7-1.5-1.2-1.8-1l-3.8.5z"/><path class="shp3" d="M253.9 671.3a22.8 22.8 0 0 0-4.9 8.2c0 .3 2 .5 4.5.5 3.1 0 4.6-.5 5-1.5.3-.8.5-2.5.5-3.8 0-1.2-.5-2.8-1.2-3.5-.7-.7-1.5-1.2-1.8-1.2-.3 0-1.2.6-2.1 1.3zm-36 2.5c0 1.7.3 3.9.6 4.7.4 1.2 2.2 1.5 8.8 1.4 4.5-.1 6.8-.4 5.2-.6a9.5 9.5 0 0 1-4-1.4c-.6-.5-1.7-1-2.5-1s-3-1.4-4.8-3.2l-3.2-3.2m42.2 7c-.1 1.9.3 2.5 1.8 2.5 1.1 0 2-.6 2-1.3 0-.6-.5-1.8-1.2-2.5s-1.6-1.2-1.9-1.2c-.3 0-.6 1.1-.7 2.5zm39.8.5c-.7 1.5-.7 2 .3 2.1a28.5 28.5 0 0 0 6.7-.7c.3-.2-.2-1-1-2a5 5 0 0 0-3.2-1.4c-1 0-2.2.9-2.8 2z"/><path class="shp1" d="M18.8 678c-.2.5-.3 1.5-.3 2.2 0 .7 1.1 1.5 2.5 1.8 2 .5 4.8 4.4 12.7 17 5.6 9 10.2 17.3 10.2 18.3s-3.4 7.4-7.7 14.5c-7.3 11.7-8.2 12.7-11.3 13.2-2.8.4-3.4 1-3.4 3 0 2.5.1 2.5 9.3 2.8 7.4.2 9.3 0 9.7-1.3.3-.8.3-2.2 0-3a2.3 2.3 0 0 0-2-1.5c-.8 0-1.5-.2-1.5-.5A202.3 202.3 0 0 1 51.3 721c.4 0 .7 5.4.7 12v12c-3.9 0-5.2.7-5.5 1.5-.3.8-.3 2.2 0 3 .4 1.2 2.3 1.5 9.8 1.3 9-.3 9.2-.3 9.2-2.8 0-2-.6-2.6-3-3l-3-.5c0-45 .1-58.8.3-59.8.1-1 1.2-1.8 3-2 2.2-.2 2.7-.7 2.7-2.7 0-2.5-.1-2.5-9.3-2.8L47 677c.4 4.8 1.1 5.6 2.8 5.8 2.1.2 2.2.5 2.2 11.5 0 8.4-.3 11.7-1.5 13.2-1.5 2-1.5 2-3.2-.2-1-1.3-4.7-7-8.3-13-3.6-5.8-6-10.8-5.5-11 .5-.1 1.9-.8 2.9-1.5 1.2-.8 1.7-2 1.3-3-.6-1.5-2-1.8-9.7-1.8-5.2 0-9.1.4-9.3 1z"/><path class="shp3" d="M239 678.3l-3.5 1.1c4.6.6 6.8 0 8-.8 1.4-1.1 1.6-1.6.5-1.5-.8 0-3 .6-5 1.2z"/><path class="shp1" d="M427.4 678.3c-.3.6-.3 2 0 3s1.6 1.7 2.9 1.7c1.4 0 2.8 1 4.1 3.2l10.2 16.8c4.6 7.4 8.4 14 8.4 14.8 0 .6-3.5 7-7.8 14-7.3 11.7-8.2 12.7-11.3 13.2-2.8.4-3.4 1-3.4 3 0 2.5.1 2.5 9.3 2.8 8 .2 9.3 0 9.9-1.5.4-1.2-.1-2.4-1.5-3.5L446 744c10.5-17 13.8-22 14.3-22 .4 0 .7 5.2.7 11.5V745c-5 .5-5.5 1-5.5 3 0 2.5 0 2.5 9.8 2.8 9.1.2 9.7 0 9.7-1.8 0-1.3-1-2.3-3-3l-3-1v-62c5-.5 5.5-1 5.5-3 0-2.5 0-2.5-9.5-2.5s-9.5 0-9.5 2.5c0 2 .6 2.5 2.8 2.8l2.7.2c0 20.6-.2 22.9-1.7 24.8l-1.8 2.3A315 315 0 0 1 442 684c0-.5.9-1 2-1s2.2-.5 2.5-1c.3-.5.3-1.9 0-3-.4-1.8-1.3-2-9.5-2-6.3 0-9.2.4-9.6 1.3z"/></svg>