<svg version="1" xmlns="http://www.w3.org/2000/svg" width="500" height="792" viewBox="0 0 5000 7920"><path d="M0 3960V0h5000v7920H0V3960z" fill="#db0003"/><path d="M0 3960V0h5000v7920H0V3960zm577 3589c48-23 90-83 100-143 5-32 3-36-16-36-16 0-27 11-40 43-23 53-55 82-108 97-36 11-46 10-79-6-21-11-46-30-56-44-60-82-20-179 145-348 140-143 177-194 177-239v-33l-206 2-206 3-4 72c-2 53 1 74 11 83 27 22 45 4 45-43 0-25 6-49 13-55 6-6 67-11 135-11 102-1 122 1 122 13 0 18-34 59-160 191-117 123-151 183-158 275-3 53 0 74 16 106 25 48 40 62 89 80 57 20 130 17 180-7zm4101-26c38-18 67-55 87-114 30-84-13-95-54-15-35 66-69 90-128 90-81 0-133-51-133-131 0-66 47-138 183-282 130-136 171-194 165-234-3-22-5-22-208-22h-205v80c0 75 1 80 22 83 23 3 29-9 35-73l3-30 128-3c93-2 127 1 127 9 0 20-48 78-151 184-104 107-141 164-159 248-38 166 126 285 288 210zM399 6726c13-7 34-30 46-51 20-32 24-34 29-18 13 40 63 76 113 80 44 4 52 2 90-31 34-30 43-45 49-83 14-97-52-228-181-352-84-82-82-82-155-9-121 122-183 235-184 340-1 57 2 70 24 93 14 15 34 31 45 35 31 13 97 11 124-4zm4101-34c14-10 33-33 42-51l16-33 16 30c47 91 179 97 230 12 20-34 21-120 2-173-22-61-76-142-136-205-70-74-103-96-130-87-11 4-57 48-100 98-95 109-140 202-140 292 0 68 19 101 75 127 45 21 87 18 125-10zm-2125-21c70-32 144-125 145-183 0-33 18-18 28 25 14 53 60 109 120 145 39 22 58 27 112 26 79-1 129-24 187-87 113-122 67-361-114-604-101-136-305-320-341-309-28 9-213 200-282 291-72 95-140 224-169 319-26 85-29 212-5 262 51 107 210 165 319 115zm221-4518c123-119 181-188 256-303 88-135 129-239 136-346 6-108-1-143-44-193-105-122-290-122-380 1-20 27-42 68-49 91l-13 42-11-28c-6-16-11-32-11-36s-13-28-29-53c-22-34-44-53-92-77-34-17-76-31-94-31-91 0-203 68-240 147-21 43-23 160-6 237 27 115 133 285 261 420 73 77 217 206 229 206 4 0 43-35 87-77zM568 1655c107-113 162-218 162-310 0-60-1-64-40-99-35-31-47-36-89-36-38 0-56 6-80 25-16 14-33 35-36 45-7 23-25 27-25 6 0-8-16-28-35-45-27-24-45-31-76-31-57 0-114 32-128 71-38 110 12 234 150 372 48 48 94 87 102 87s51-38 95-85zm4073-22c125-130 187-256 173-350-18-124-201-154-248-41l-13 30-20-35c-15-24-35-40-67-52-44-17-48-17-92 0-65 25-86 62-82 145 4 82 37 153 113 240 54 62 140 140 154 140 4 0 41-35 82-77zM651 1030c-3-71-12-94-36-87-5 2-14 26-19 54-7 39-14 53-30 57-37 10-225 6-231-4-9-15 29-64 140-180 56-58 113-125 127-150 98-174 33-328-139-333-107-3-183 55-199 152-6 39-5 41 18 41 20 0 27-7 36-38 17-57 61-94 120-100 87-8 143 42 144 129 1 68-46 141-184 285-134 141-158 174-158 224v30l207-2 208-3-4-75zm4084 37c0-1-2-36-5-77-4-68-7-75-27-78-23-3-29 9-35 73l-3 30-127 3c-71 1-128-1-128-6 0-15 46-70 155-188 112-122 150-184 161-266 11-80-34-166-103-194-39-17-131-18-170-3-56 21-108 92-115 155-3 25 0 29 21 29 18 0 27-8 34-30 17-51 45-83 92-100 119-46 213 69 157 191-29 65-52 95-157 205-129 134-165 186-165 235v37l207-7c114-3 207-8 208-9z" fill="#fff"/></svg>