<svg version="1" xmlns="http://www.w3.org/2000/svg" width="500" height="792" viewBox="0 0 5000 7920"><path d="M0 3960V0h5000v7920H0V3960z" fill="#db0003"/><path d="M0 3960V0h5000v7920H0V3960zm523 3638c56-17 112-73 127-127 15-55 8-71-30-71-24 0-30 4-30 23 0 57-67 117-130 117-43 0-104-33-118-65-36-79 11-157 108-179 51-12 55-14 58-44 3-29 1-32-27-33-90-4-153-51-167-124-10-54 4-103 39-142 80-86 222-41 242 78 6 35 10 39 36 39 27 0 29-3 29-39 0-109-84-185-203-183-124 2-208 78-215 195-4 77 24 137 86 182 22 17 41 33 41 36 1 4-13 12-30 20-18 7-44 32-60 58-95 149 61 314 244 259zm4105-9c51-25 91-81 99-138l6-41h-37c-30 0-36 4-36 20 0 30-25 75-52 92-81 53-208 0-208-87 0-74 41-117 130-136 48-10 50-12 50-45 0-34 0-34-47-34-63 0-105-26-133-85-28-57-23-109 14-165 67-102 229-62 253 62 7 37 12 43 36 46 36 4 42-15 27-79-37-153-239-200-356-84-96 96-79 245 36 321l40 27-46 28c-49 32-84 91-84 144 0 67 52 136 121 164 44 18 140 13 187-10zm-181-814c12-8 31-31 41-51l18-35 24 38c35 53 90 79 139 65 119-36 132-174 30-332-42-66-171-200-192-200-20 0-152 144-192 209-70 117-86 225-39 280 42 50 116 61 171 26zm-4080-5c18-10 41-36 51-56 18-36 19-36 25-13 4 14 20 38 37 54 27 26 39 30 86 30 52 0 58-3 91-38 34-38 35-41 31-110-2-52-11-87-30-127-33-66-118-171-181-223l-46-37-65 61c-81 75-147 173-175 258-25 76-26 100-7 146 29 68 118 95 183 55zm1942-25c67-21 132-82 156-150 10-27 21-53 25-58 3-4 14 18 24 49 34 109 152 187 253 168 84-15 159-69 195-139 32-60 29-185-6-290-58-171-197-355-404-533-49-42-54-44-78-32-37 20-242 235-295 310-127 179-193 368-173 498 14 94 125 184 235 191 8 1 39-6 68-14zm342-2353c237-242 349-460 337-662-3-59-8-74-34-107-74-92-204-129-296-84-61 29-105 78-133 147-19 47-25 55-31 39-37-106-67-145-136-179-67-34-135-34-203-2-100 47-145 121-145 237 0 163 81 335 247 525 71 81 228 224 247 224 6 0 72-62 147-138zm-11-2209c66-65 120-121 120-125s12-20 28-37c42-46 131-194 159-262 60-148 67-288 19-357-118-170-375-137-437 56-17 56-25 58-37 9-14-55-82-133-137-158-109-50-247-2-311 108-24 40-27 56-27 132-1 54 6 109 17 146 39 130 140 289 270 424 75 77 193 181 206 181 6 0 64-53 130-117zm2013-473c135-142 197-294 153-378-22-43-87-76-134-67-34 6-91 52-105 85-6 13-8 13-14 0-14-33-71-79-105-85-46-9-112 23-133 65-36 70-10 183 68 293 44 61 159 177 176 177 5 0 47-40 94-90zm-4097 8c111-115 162-203 178-305 11-73-28-135-96-154-54-14-121 16-145 66l-17 36-19-36c-13-26-32-43-63-57-53-23-91-18-134 18-101 85-37 280 149 451 31 29 61 52 67 53 6 0 42-33 80-72zm4080-532c60-28 98-73 115-139 23-84-20-183-98-229l-33-20 44-30c50-33 86-95 86-149-1-100-123-192-233-175-105 17-177 91-177 183 0 20 5 23 35 23 32 0 35-3 35-29 0-34 31-76 70-96 111-57 235 61 173 165-18 31-80 70-111 70-37 0-52 11-52 40s18 40 70 40c73 0 138 92 125 177-10 66-65 123-126 130-78 9-133-33-154-114-11-43-15-48-41-48-28 0-29 1-27 48 2 68 39 122 106 153s127 31 193 0zm-4077-12c147-74 153-283 9-364l-41-23 29-15c83-42 123-121 102-200-15-55-84-117-147-132-122-29-251 51-251 157 0 41 1 43 30 43 25 0 30-4 36-35 23-126 214-140 254-20 25 75-28 145-125 165-51 11-55 13-55 41 0 30 3 32 84 43 69 9 116 72 116 153 0 180-234 208-283 34-11-39-17-47-40-49-26-3-27-1-27 38 0 147 166 235 309 164z" fill="#fff"/></svg>