<svg version="1" xmlns="http://www.w3.org/2000/svg" width="500" height="792" viewBox="0 0 5000 7920"><path d="M0 3960V0h5000v7920H0V3960z" fill="#db0003"/><g fill="#fff"><path d="M0 3960V0h5000v7920H0V3960zm4607 3375c84-151 122-230 123-252v-32l-127-3-128-3-3-45c-2-24-1-59 3-77 5-28 10-33 34-33 23 0 30-5 33-25 3-13 3-27 0-30s-50-5-104-5h-98v30c0 27 3 30 30 30h30v160h-45c-43 0-45 1-45 30s2 30 45 30h45v451l42-3 42-3 123-220zm-4084-24c70-127 127-241 127-255v-26H390v-160h36c34 0 35-1 32-32l-3-33-97-3-98-3v30c0 25 5 30 30 36l30 7v158h-45c-41 0-45 2-45 24s5 25 43 28l42 3 3 228 2 227h76l127-229zm3921-604c15-11 34-34 41-51l13-31 10 26c13 33 64 76 100 84 44 9 108-20 133-62 33-53 23-138-27-234-40-76-186-239-215-239-20 0-143 130-189 201-46 72-70 142-70 209 0 56 20 86 74 111 47 21 86 17 130-14zm-4097-17c18-10 39-34 49-51l16-32 20 35c50 87 172 92 222 8 21-37 21-127-1-182-9-24-32-67-50-96-36-57-165-192-183-192-36 0-179 159-225 249-13 26-29 75-36 109-11 54-11 66 4 97 33 69 119 95 184 55zm2994-2c80-27 151-102 165-174 9-46 19-43 34 11 16 56 81 132 135 156 107 49 248 0 312-108 23-39 26-55 26-136-1-141-57-281-177-440-79-104-287-307-315-307-20 0-246 231-304 311-109 149-172 292-183 420-9 96 1 134 49 186 75 82 170 112 258 81zm-2073-27c52-27 97-80 119-141 10-27 21-50 24-50 4 0 12 21 18 46 15 60 97 144 157 162 88 26 174 4 242-61 56-53 72-95 72-189 0-134-39-242-140-394-58-87-317-354-344-354-26 0-222 197-302 303-131 174-201 352-192 494 4 70 33 115 105 167 71 50 163 57 241 17zm2347-4474c224-196 361-399 410-607 36-157 6-245-109-310-42-25-63-30-115-30-111 0-191 56-228 160-10 27-20 50-23 50s-14-24-24-52c-12-34-34-68-62-95-91-88-212-93-313-13-68 54-91 106-91 206 0 126 41 243 135 383 71 108 317 361 350 361 6 0 37-24 70-53zm-2032-80c231-231 347-447 347-645 0-85-12-113-70-166-55-49-97-66-165-66-105 0-189 60-226 161-12 32-23 59-24 59s-12-26-23-58c-49-133-191-201-313-149-45 19-115 81-135 119-62 119 6 369 151 558 100 130 286 310 321 310 8 0 69-55 137-123zm3082-470c109-119 170-266 146-348-22-74-123-111-189-70-18 12-40 36-49 55l-16 35-16-32c-20-40-75-77-115-77-38 0-89 30-113 66-12 20-17 45-16 87 2 93 54 189 164 300l88 89 30-21c16-12 55-49 86-84zm-4132 42c66-57 161-188 186-254 28-73 28-154 1-188-11-14-40-33-64-42-42-16-46-16-90 3-33 15-51 31-62 56l-17 35-21-31c-66-98-177-96-229 3-40 76 6 210 116 340 59 68 112 118 128 119 3 0 27-18 52-41zm4172-604c0-27-4-30-33-33l-33-3 3-72 3-72 45-5c40-4 45-8 45-30s-5-25-42-28c-24-2-44-9-45-15-2-7-3-109-3-227V375h-79l-123 225c-94 171-123 232-121 255l3 30 123 3 122 3v148l-32 3c-29 3-33 7-36 36l-3 33 103-3 103-3v-30zm-4065-15c0-27-3-30-30-30h-30V870h46c44 0 45-1 42-27-3-25-7-28-45-31l-43-3V360h-79L376 588c-74 133-126 238-126 254v27l128 3 127 3v150l-33 3c-34 3-48 21-38 47 4 12 26 15 106 15h100v-30z"/><path d="M4472 7275l3-160 88-3c48-1 87 1 87 5 0 13-150 286-166 303-13 13-14-6-12-145zM390 7253v-161l26-5c14-2 55-2 90 1 52 4 64 8 59 20-8 23-156 286-166 297-5 5-9-57-9-152zM4400 817c0-11 151-291 164-305 3-3 6 67 6 156v162h-85c-62 0-85-3-85-13zM330 801c0-12 149-282 166-301 12-12 14 11 14 148v162h-90c-49 0-90-4-90-9z"/></g></svg>