<svg version="1" xmlns="http://www.w3.org/2000/svg" width="500" height="792" viewBox="0 0 5000 7920"><path d="M0 3960V0h5000v7920H0V3960z" fill="#db0003"/><path d="M0 3960V0h5000v7920H0V3960zm620 3571c25-7 27-18 62-316 2-24-2-31-24-39-23-8-32-5-67 27-115 104-271 15-271-154 0-46 44-133 81-160 38-27 100-35 139-19 17 7 45 30 63 50 27 31 36 36 55 29 30-12 28-29-12-75-35-41-108-74-163-74-133 0-245 140-230 287 8 78 50 158 99 190 50 34 128 42 194 19 25-8 50-14 53-11 7 4-7 176-16 185-2 3-62 7-131 10l-127 5-3 28-3 27 138-1c76-1 149-4 163-8zm4096 3c19-5 23-17 33-112 7-59 17-136 23-171 8-51 8-65-3-72-26-16-51-9-91 25-56 48-105 55-166 24-64-33-93-86-94-173-1-54 3-71 28-112 38-62 82-86 149-80 44 4 54 10 90 49 35 39 43 44 63 35 28-13 28-23-4-68-29-42-103-79-156-79-80 0-111 12-164 64-82 80-105 189-64 299 47 124 151 173 285 133l48-15-6 91c-3 49-8 93-11 96s-64 7-136 10l-130 5v57h143c78 0 152-3 163-6zM378 6700c18-11 41-34 51-50l18-31 20 34c39 64 124 83 189 41 55-37 70-132 34-226-26-70-108-178-182-239l-59-49-29 20c-58 41-151 156-190 234-34 66-40 88-40 141 0 71 21 108 74 131 44 19 76 17 114-6zm4075 9c26-7 45-22 64-50l26-39 17 27c31 51 57 67 108 67 156 0 188-167 65-347-40-59-170-187-190-187-22 0-140 120-186 191-21 30-46 80-57 112-39 109-20 184 53 218 49 22 51 22 100 8zm-3155-45c63-31 106-78 128-143l18-48 35 70c41 81 86 118 163 137 107 26 227-31 279-133 21-41 28-150 14-219-35-173-191-400-402-583-40-36-81-65-90-65-39 0-271 254-365 400-91 140-140 319-118 425 30 144 204 226 338 159zm2151-21c50-35 81-81 106-158 5-16 12-8 31 40 41 99 108 152 209 162 67 7 145-26 204-87 52-54 65-101 58-210-10-163-81-301-256-499-62-71-196-192-233-212-14-7-40 13-135 108-273 271-406 552-353 744 12 44 92 122 141 137 61 19 73 21 124 16 36-4 65-15 104-41zm-853-2267c44-41 112-112 150-158 168-200 246-370 247-539 1-64-3-83-26-121-64-109-209-150-325-92-62 31-95 71-121 145-11 31-21 48-24 39-29-86-43-113-77-144-52-47-101-66-169-66-73 0-159 46-205 109-30 42-31 45-31 154 0 98 3 121 29 190 26 72 120 236 149 261 7 6 30 33 52 60 42 52 244 236 260 236 6 0 46-33 91-74zM1542 2146c101-90 168-166 236-267 111-165 155-284 156-421 1-81-1-89-29-129-87-124-268-146-373-46-36 34-64 83-77 132l-7 30-10-25c-6-14-17-41-25-62-19-46-77-102-125-123-115-47-273 20-322 137-48 115 8 330 133 506 87 123 310 342 347 342 7 0 51-33 96-74zm2109-3c149-136 239-248 312-391 54-105 74-169 83-268 8-88-9-144-59-191-109-105-255-104-361 2-20 19-41 54-47 77-17 61-25 65-39 21-20-60-48-101-95-133-97-67-208-59-299 21-59 52-75 84-83 163-20 217 153 509 432 728 33 26 63 48 66 48s43-35 90-77zM563 1648c110-113 177-242 177-339 0-44-4-55-33-84-39-39-72-50-122-41-36 7-95 58-95 82 0 8-4 14-10 14-5 0-10-6-10-14 0-24-59-75-95-82-47-9-101 12-130 50-48 63-28 181 49 296 44 66 163 180 187 180 13 0 46-25 82-62zm4098-21c112-114 179-257 165-351-9-57-54-96-119-103-51-6-103 25-128 74l-16 32-16-34c-9-19-27-41-41-50-94-62-206 10-206 131 0 91 109 266 216 348 55 42 58 42 145-47zM501 1085c170-27 237-300 106-431-63-63-130-77-226-48-29 8-54 14-56 12-6-5 16-173 23-180 8-7 113-17 200-17l62-1v-61l-157 7c-87 3-160 8-161 10-9 7-45 323-39 338 8 20 53 21 61 1 3-9 30-27 60-41 46-21 60-23 95-15 61 13 106 52 125 108 52 154-47 295-189 269-24-5-46-20-71-51-33-39-39-42-60-33-32 15-30 28 9 72 34 39 123 78 162 71 11-2 36-6 56-10zm4102-11c98-33 167-156 153-273-21-176-163-261-324-194l-34 14 5-43c3-24 9-66 12-95 5-36 12-54 23-57 10-3 64-6 122-7 58-2 111-5 118-7 6-2 12-17 12-33v-29l-152 6c-84 3-158 7-165 9-6 2-14 30-18 62-3 32-10 90-15 128-21 157-21 155 7 166 21 8 31 4 65-26 118-100 268-21 271 144 1 43-5 67-23 100-33 58-68 83-128 89-59 5-106-16-130-59-17-29-28-34-56-23-41 16 5 86 78 120 60 28 114 30 179 8z" fill="#fff"/></svg>