<svg version="1" xmlns="http://www.w3.org/2000/svg" width="500" height="792" viewBox="0 0 5000 7920"><path d="M0 3960V0h5000v7920H0V3960z" fill="#db0003"/><path d="M0 3960V0h5000v7920H0V3960zm660 3603c0-16 3-45 6-65 6-37 6-38-24-38-27 0-31 4-34 33l-3 32-147 3c-82 1-148 0-148-4 0-3 32-53 70-111 109-162 200-364 224-495 7-38 7-38-28-38-31 0-35 3-41 33-30 152-139 375-266 548-45 61-60 105-42 122 3 4 102 7 220 7h213v-27zm4078-40l3-63h-31c-28 0-30 3-30 35v35h-150c-118 0-149-3-143-12 4-7 37-56 72-108 106-159 197-364 217-487 7-43 7-43-25-43-17 0-33 6-35 13-48 187-137 377-255 549-67 98-80 126-64 142 4 3 104 5 222 4l216-3 3-62zm-288-781c14-10 33-33 42-51l16-33 12 24c21 39 51 67 87 79 49 16 115-10 144-57 60-97-28-296-192-434l-52-44-87 92c-191 200-225 404-75 445 31 8 77-1 105-21zm-4094 2c22-11 43-32 55-56l20-40 20 40c34 67 113 91 176 52 52-32 66-61 61-133-6-97-51-180-157-289-47-48-92-88-99-88s-38 24-69 53c-153 144-234 343-171 422 41 52 105 67 164 39zm1440-13c60-27 119-92 133-145 45-180-57-422-275-653-77-81-195-183-211-183-21 0-235 220-304 311-70 95-141 235-164 324-19 76-20 197-1 234 20 38 88 97 132 116 49 20 140 19 189-4 55-25 109-88 130-151 19-57 26-56 43 5 6 23 28 60 48 83 75 89 172 110 280 63zm1575 15c20-7 52-25 72-40 36-28 87-114 87-148 0-33 15-18 33 33 38 106 141 177 243 166 59-6 99-24 149-69 58-50 75-94 75-190 0-135-41-248-142-396-54-78-241-276-310-327l-38-27-68 61c-282 249-463 592-412 779 32 122 190 202 311 158zM1583 4383c224-217 357-458 357-647 0-86-10-119-48-159-67-71-169-102-256-77-79 22-150 98-170 184-8 34-19 26-35-26-44-138-197-205-326-144-99 47-145 121-145 234 0 121 44 245 137 385 52 77 228 266 306 329l49 38 26-21c15-11 62-55 105-96zm2044 60c89-78 199-205 267-309 100-149 151-300 144-426-5-84-40-137-119-182-45-26-65-31-119-31-108 1-190 60-227 165-10 27-21 50-24 50-4 0-10-15-13-33-12-64-59-122-127-156-34-17-76-31-94-31-93 0-195 63-234 143-39 81-24 237 35 366 39 87 126 209 215 304 86 93 203 197 220 197 6 0 40-26 76-57zM2610 3355c250-235 381-468 384-679 1-68-3-87-22-117-45-74-128-119-217-119-105 0-189 60-227 163-17 47-23 56-29 41-4-10-13-35-20-54-18-47-74-107-123-132-112-57-272 4-327 127-35 75-20 224 35 346 64 144 213 330 375 465 74 61 59 65 171-41zM1592 2117c187-186 295-353 338-523 35-136 24-217-38-281-123-127-320-103-395 48-14 30-29 63-32 74-5 15-11 7-30-39-29-73-65-111-130-142-98-47-215-19-289 68-105 123-56 367 123 603 80 106 293 315 321 315 5 0 64-55 132-123zm2041 66c132-122 245-258 312-378 73-129 113-282 100-378-19-139-200-230-336-170-54 24-112 87-129 139-13 42-30 67-30 45 0-35-55-124-97-156-95-73-213-67-307 16-59 52-75 84-82 162-19 204 137 480 400 708 43 38 85 69 93 69 7 0 41-26 76-57zm1007-481c118-118 180-236 180-341-1-50-14-74-57-103-57-37-158-11-185 47-14 30-24 32-33 5-3-10-20-31-36-45-24-19-42-25-81-25-45 0-54 4-89 39-36 36-39 43-39 94 0 70 28 142 85 222 45 63 158 175 177 175 5 0 41-30 78-68zm-4094-8c141-142 213-309 172-399-16-36-72-68-119-68-45 0-84 23-107 64-10 16-19 29-22 29s-12-13-22-29c-37-66-119-84-182-40-43 29-56 56-56 119 0 60 25 129 70 196 36 53 175 194 191 194 5 0 39-29 75-66zm3925-644c43-160 113-304 236-483 110-159 117-151-154-155l-223-2v130h30c28 0 30-3 30-34 0-19 4-38 10-41 5-3 73-3 150 1 140 7 140 7 125 28-144 200-263 446-282 584l-6 43 33-3c32-3 35-6 51-68zm-4081-35c48-164 105-279 227-458 42-62 73-118 73-132v-25H240v131l28-3c23-3 27-8 30-41l3-38 150 2c82 0 149 3 149 7 0 3-26 44-59 91-113 167-214 387-236 519l-7 43 33-3c32-3 33-5 59-93z" fill="#fff"/></svg>