<svg version="1" xmlns="http://www.w3.org/2000/svg" width="500" height="792" viewBox="0 0 5000 7920"><path d="M0 3960V0h5000v7920H0V3960z" fill="#db0003"/><g fill="#fff"><path d="M0 3960V0h5000v7920H0V3960zm4588 3644c128-53 156-185 58-271l-43-38 45-39c52-47 72-88 72-150 0-57-11-85-52-132-84-95-249-103-341-16-93 88-87 219 13 305 24 20 39 37 33 37-21 0-84 75-94 112-19 73 25 152 106 188 51 23 153 25 203 4zm-4057-35c48-24 97-81 104-123 9-46-23-115-69-151l-36-27 39-28c86-63 108-198 45-277-83-104-248-123-349-41-101 84-99 241 3 315l40 29-40 34c-41 34-68 82-68 122 0 39 41 108 80 134 68 45 176 51 251 13zm3910-800c14-10 32-32 39-49l13-31 21 38c41 75 130 92 195 37 62-52 62-149-1-267-36-66-184-227-210-227-9 0-51 38-95 84-102 108-154 203-161 295-4 58-1 70 19 95 45 57 120 68 180 25zm-1077-3c60-25 114-83 137-147 12-33 25-56 29-52 3 4 13 27 20 51 53 169 263 216 398 88 48-44 62-78 69-155 10-124-46-286-154-439-49-69-257-285-305-316-27-18-28-18-67 13-72 57-248 249-300 328-102 153-151 285-151 411 0 99 46 169 140 211 53 24 136 27 184 7zm-2997-27c14-13 31-37 38-54l13-29 15 37c41 98 183 101 233 6 49-96-45-297-200-424l-46-37-41 33c-58 46-157 173-187 239-32 73-40 161-18 195 44 67 139 83 193 34zm921 2c54-28 110-93 124-146 7-25 15-45 19-45s15 22 23 48c43 127 179 201 297 160 58-19 117-67 146-115 24-42 27-57 27-133-1-136-46-256-152-405-88-125-300-335-337-335-21 0-203 178-277 271-139 175-208 335-210 486 0 86 7 107 56 161 24 27 86 61 131 73 43 11 109 3 153-20zm1064-1148c59-32 92-72 114-137 9-25 19-46 23-46 3 0 14 23 24 51 38 107 141 177 245 166 87-9 174-72 206-149 20-47 21-174 2-246-35-131-129-281-266-426-120-127-197-189-218-177-40 22-189 171-265 266-139 174-217 352-217 498 0 74 20 116 78 167 83 74 178 85 274 33zm1320-1170c247-241 367-460 368-669 0-61-4-77-28-112-35-53-84-89-147-108-65-19-120-10-187 30-46 27-58 41-90 106-29 59-38 70-44 55-20-62-59-126-89-149-105-80-231-71-326 24-54 54-69 95-69 191 0 158 102 362 275 547 82 88 199 192 216 192 6 0 60-48 121-107zm-2073-41c203-204 315-393 339-572 16-117 1-173-64-230-101-88-218-93-321-14-33 25-83 109-83 138 0 37-19 20-39-33-23-64-77-122-137-147-50-21-136-18-189 7-56 27-120 96-134 145-39 140 23 338 163 525 79 105 289 309 318 309 13 0 67-47 147-128zm1038-1074c138-135 228-252 288-373 54-110 75-190 75-286 0-89-27-142-95-187-143-94-317-37-371 122-17 50-29 52-39 7-3-16-19-49-35-74-33-52-130-107-190-107-94 0-204 73-236 155-13 35-16 65-12 138 11 189 107 359 330 580 76 75 145 137 154 137s67-51 131-112zm1078-1170c240-243 359-472 343-663-9-109-101-193-222-202-57-5-72-2-121 22-62 30-108 83-127 147-6 21-14 38-17 38-4 0-14-23-24-50-36-101-122-163-226-163-88 0-182 57-222 136-26 49-28 173-5 259 17 62 77 186 123 255 83 122 313 353 351 353 9 0 75-60 147-132zm-2104-7c229-228 349-451 349-647 0-64-3-77-32-120-91-133-282-148-386-30-17 20-39 58-49 86-18 50-33 65-33 32 0-10-11-41-25-69-76-151-270-177-394-52-49 48-63 91-62 184 1 177 91 356 277 555 44 46 108 107 143 136 56 46 67 52 85 42 12-6 69-59 127-117zm3091-446c83-98 129-195 131-273 2-55-1-64-28-92-65-68-171-55-214 28-11 20-20 31-21 23 0-29-51-80-89-92-49-15-97 0-137 42-26 27-29 37-28 94 1 97 52 192 164 308l88 90 37-29c21-16 65-60 97-99zm-4076-49c31-38 66-90 79-115 28-57 48-150 39-185-8-35-66-84-107-91-45-9-111 24-132 65-9 17-17 30-19 30s-13-16-25-35c-43-74-131-83-199-20-35 32-37 36-37 98 0 97 52 193 165 310l88 90 46-39c26-21 72-70 102-108zm4063-486c45-23 96-76 110-113 30-77 2-170-68-228l-39-33 43-38c74-65 82-147 22-215-47-53-101-77-177-76-194 0-288 171-158 289l41 37-37 30c-137 110-90 315 83 364 56 15 131 8 180-17zm-4081-31c89-43 134-136 112-231-10-41-23-62-63-101-27-26-48-49-46-51 2-1 18-12 35-24 58-40 81-130 49-191-21-42-67-77-126-96-120-40-261 22-290 127-15 56 9 117 62 160l38 31-43 38c-96 85-103 200-17 292 70 76 187 94 289 46z"/><path d="M4437 7566c-51-19-75-42-89-87-13-46-1-83 43-125 39-37 126-45 178-16 38 20 71 73 71 112 0 41-37 89-83 110-50 23-69 24-120 6zM4412 7244c-96-49-115-173-38-250 69-69 165-67 237 5 67 67 57 175-22 231-43 31-130 38-177 14zM366 7540c-67-20-107-92-86-155 27-81 148-122 220-73 141 94 33 278-134 228zM366 7225c-118-42-149-178-60-262 38-36 84-48 146-40 78 10 132 75 132 158 0 59-38 113-98 140-49 22-68 23-120 4zM4500 1108c-59-30-93-93-87-157 16-146 219-195 303-72 33 48 33 124 1 172-26 39-97 79-142 79-17 0-51-10-75-22zM4501 733c-103-52-87-196 27-234 78-26 171 17 193 90 10 33 9 45-7 77-11 21-31 47-46 57-38 28-123 33-167 10zM420 1078c-60-31-90-77-90-141 0-81 48-140 129-158 96-22 201 61 201 159 0 49-41 113-90 139-54 29-94 29-150 1zM425 706c-86-38-105-146-36-208 86-77 236-27 248 83 4 38 1 50-22 77-50 60-122 78-190 48z"/></g></svg>