<svg version="1" xmlns="http://www.w3.org/2000/svg" width="500" height="792" viewBox="0 0 5000 7920"><path d="M0 3960V0h5000v7920H0V3960z" fill="#db0003"/><g fill="#fff"><path d="M0 3960V0h5000v7920H0V3960zm549 3462c58-47 86-113 86-202 0-94-23-157-75-204-76-68-172-70-254-4l-39 31 5-75c8-128 62-198 154-198 53 0 106 42 124 96 10 30 16 35 38 32 23-3 27-7 24-32-5-45-38-102-74-127-47-34-142-39-202-9-104 50-135 123-143 340-8 213 11 282 98 352 66 54 192 54 258 0zm4023 38c90-25 150-123 149-239-1-100-32-175-89-216-39-27-52-30-115-30-66 0-76 3-121 34l-49 34 5-69c7-97 36-157 87-183 22-12 55-21 73-21 53 0 111 49 123 103 5 22 12 27 36 27 35 0 38-24 10-85-47-102-154-134-268-80-61 28-104 85-124 168-21 82-18 350 4 413 40 115 159 177 279 144zm-3371-672c62-21 118-67 144-118 14-27 25-56 25-64 0-34 19-23 34 20 21 63 58 108 114 141 112 66 272 14 340-111 28-51 21-203-12-293-34-92-83-179-151-268-56-73-239-258-287-289l-28-18-69 61c-190 169-352 403-396 576-8 32-15 96-15 141 0 74 3 85 29 121 66 92 178 133 272 101zm2144-4c61-21 117-77 140-140 26-70 31-72 50-14 45 135 192 205 315 149 66-30 107-65 133-112 18-35 22-57 22-132-1-147-52-269-186-446-59-77-284-299-305-299-19 0-171 148-252 245-141 170-224 340-238 491-8 87 5 132 54 186 73 81 166 106 267 72zM336 6621c17-11 38-33 45-50 8-17 16-31 19-31s11 14 19 31c28 64 115 88 178 49 54-32 66-61 60-136-7-98-52-179-158-286-47-49-91-88-98-88-21 0-154 143-190 205-74 124-90 221-44 275 14 18 36 36 47 40 36 15 90 11 122-9zm4074 6c14-7 36-30 50-50l24-38 18 35c48 93 187 87 232-9 30-62 8-158-57-256-39-59-177-199-197-199-19 0-153 145-189 205-44 73-70 148-71 204 0 37 5 49 39 82 33 34 45 39 82 39 24 0 55-6 69-13zM1236 5166c59-27 106-80 124-139 18-57 28-65 36-31 13 53 43 101 86 138 86 74 191 75 295 4 193-131 102-478-206-788-128-128-173-164-199-156-49 16-277 270-360 401-108 173-147 387-86 481 67 103 199 142 310 90zm2128-1c60-29 103-78 122-140 10-30 20-55 23-55 4 0 15 24 25 53 34 98 131 167 232 167 79 0 190-74 221-147 31-75 21-200-27-325-27-72-103-190-189-292-60-71-246-246-262-246-17 0-199 184-272 276-176 219-258 472-195 602 22 46 82 96 141 119 43 17 133 11 181-12zm-797-887c241-237 364-458 366-658 1-72-2-91-21-122-60-97-180-140-296-106-56 17-131 93-147 149-17 59-26 68-35 33-27-115-122-194-235-194-143 0-250 113-249 263 1 192 155 448 395 658 49 44 96 79 104 79s61-46 118-102zm-1051-811c239-243 354-456 354-655 0-86-12-115-74-169-76-67-172-81-261-39-65 31-104 73-126 138-10 29-21 53-25 53s-13-20-20-45c-28-96-124-170-220-170-93 0-207 78-236 160-18 49-14 174 6 244 49 169 196 372 385 533 41 35 81 63 90 63s66-51 127-113zm2111 11c193-189 323-392 357-560 29-143 14-212-59-277-52-45-98-63-166-64-103-1-190 61-226 163-10 27-20 50-23 50s-13-23-23-50c-51-143-201-205-332-138-54 28-81 54-114 108-17 28-21 51-21 118 0 103 12 155 60 257 45 97 114 195 205 293 77 82 210 202 226 202 6 0 58-46 116-102zM1518 1862c230-231 352-454 352-645 0-79-8-103-52-152-43-50-119-85-183-85-101 0-201 74-228 168-7 24-17 43-22 43s-14-18-21-41c-36-123-172-196-292-156-58 20-133 81-155 128-71 152 12 393 216 628 73 83 235 230 255 230 7 0 66-53 130-118zm2114 3c163-161 269-310 324-457 24-63 28-88 28-185 1-109 0-112-29-148-17-21-55-52-85-69-133-75-300-7-342 138-17 62-23 62-47-4-38-105-116-162-222-163-137-1-250 117-249 261 1 97 60 254 140 372 89 131 318 360 361 360 8 0 63-47 121-105zM509 1599c154-150 223-337 155-418-58-69-170-56-209 25l-18 38-18-37c-44-84-164-90-224-11-17 22-20 112-5 166 16 57 104 181 172 243 34 30 67 55 73 55 7 0 40-27 74-61zm4089-34c123-131 183-271 158-369-8-31-81-76-123-76-39 0-94 37-114 78l-17 32-12-30c-39-94-176-103-230-15-38 61-15 173 57 278 37 55 170 187 187 187 8 0 50-38 94-85zM508 1038c49-23 94-84 114-153 7-24 12-111 13-215 0-158-2-179-21-221-39-84-109-129-199-129-72 0-113 18-157 69-41 48-58 98-58 173 0 106 39 192 103 225 77 39 152 32 223-22 19-15 38-24 41-21 10 9-12 135-30 178-28 67-120 104-183 74-35-16-74-68-74-98 0-13-8-18-30-18-25 0-30 4-30 23 1 30 33 98 58 120 56 50 147 56 230 15zm4085-24c86-59 125-201 114-419-7-165-35-222-131-270-155-78-316 34-316 220 0 28 7 76 16 106 40 134 192 189 304 108 22-16 43-29 46-29 13 0-6 131-25 174-22 52-55 76-110 83-71 10-129-31-146-100-5-20-14-27-30-27-13 0-27 4-30 10-10 17 14 88 42 121 40 47 77 60 156 56 55-4 77-10 110-33z"/><path d="M375 7403c-60-15-104-97-105-193 0-55 5-73 26-107 49-74 114-96 184-61 68 34 93 89 87 191-4 92-21 121-87 155-43 22-65 25-105 15zM4444 7401c-80-34-120-199-71-286 34-60 81-88 140-82 94 8 140 73 139 192-1 84-16 123-63 156-35 24-110 35-145 20zM345 732c-66-42-91-102-81-194 11-111 59-158 160-158 65 0 95 21 123 88 21 48 21 148 1 187-45 84-137 119-203 77zM4425 724c-71-37-95-81-95-179 0-80 17-125 60-155 38-27 109-37 147-21 71 29 115 170 82 258-21 56-95 113-146 113-10 0-31-7-48-16z"/></g></svg>