<svg version="1" xmlns="http://www.w3.org/2000/svg" width="500" height="792" viewBox="0 0 5000 7920"><path d="M0 3960V0h5000v7920H0V3960z"/><g fill="#fff"><path d="M0 3960V0h5000v7920H0V3960zm4554 3603c3-10 34-153 70-318 37-165 68-310 71-322 3-15 13-23 25-23 15 0 20-7 20-25 0-30-23-37-101-33-50 3-54 5-54 28 0 18 6 26 23 28 17 3 21 8 17 25-3 12-9 42-13 67l-8 45h-177l-13-55c-18-76-17-80 11-80 21 0 25-5 25-30v-30h-171l3 28c2 20 9 28 28 30 25 3 27 10 79 235 113 494 99 447 131 447 19 0 30-6 34-17zM536 7227c40-180 76-332 79-337 3-6 12-10 19-10 14 0 28-35 18-44-3-3-41-6-84-6-77 0-79 1-76 23 2 14 11 23 26 25 20 3 21 7 15 45-15 97-9 92-106 95l-86 3-10-38c-25-99-25-103 3-103 21 0 26-5 26-25 0-25-1-25-85-25s-85 0-85 25c0 20 5 25 24 25 14 0 27 4 31 9 3 6 37 148 75 318 38 169 72 318 75 331 5 19 11 23 37 20l31-3 73-328zm4163-697c43-66 65-138 56-181-10-45-60-89-101-89-35 0-94 24-94 38 0 5-7 17-15 28-14 17-15 15-9-31 3-27 15-70 25-94s19-45 19-47c0-1-30-3-66-3-73 0-70-5-40 74 16 43 22 139 6 99-26-65-117-84-171-36-82 73-24 228 149 399l56 55 73-76c41-42 91-103 112-136zm-4173 81c83-96 125-173 132-242 4-46 2-51-36-89-44-44-73-50-122-25-16 8-36 28-44 43l-15 27-1-37c0-21 9-61 20-90s20-54 20-55c0-2-29-3-65-3-63 0-75 6-56 26 10 9 41 117 41 141 0 7-4 13-10 13-5 0-10-6-10-13 0-24-47-59-87-64-29-4-44 0-66 17-88 69-69 169 63 333 33 42 75 87 92 102 39 33 47 28 144-84zm2248-1068c-7-47 18-76 62-71 38 4 65 49 46 78-6 11-12 22-12 25s36 5 80 5c79 0 80-1 70-21-11-19-13-20-30-4-23 21-48 17-67-12-13-19-12-24 6-42 12-12 21-24 21-27 0-4-15-27-34-53-37-51-176-269-176-277 0-2 22-50 49-107 27-56 53-114 56-129 9-33 9-34 46-7 53 38 139 62 224 63 101 1 140-8 130-32-17-41-16-52 7-75 27-27 99-43 128-27 10 5 22 19 25 30s10 20 14 20 38-22 74-50c121-92 213-243 263-435 22-83 26-122 26-230 0-141-13-221-58-345-66-186-145-301-335-495-81-82-171-176-200-207-28-32-56-58-60-58-20 0-20 44 0 71l21 29-30-7c-26-5-36 0-63 29-41 45-65 54-83 31-22-30-17-53 12-53 35 0 26-23-12-30l-29-5 33-14c17-7 32-18 32-23 0-6 6-6 14 1 10 9 19 6 37-14 13-13 30-25 37-25 23 0 12-20-45-83-212-232-434-510-530-663-11-18-12-18-28 5-81 110-398 479-624 724-231 251-217 233-195 258 17 19 28 20 67 4 16-7 16-5 6 19-11 23-9 29 11 51l23 25h-35c-30 0-37 4-42 25-8 33-26 32-26-1 0-19-7-28-30-35l-30-11 22-17c16-14 19-24 14-46l-7-28-29 28c-27 26-28 30-15 49 24 33 18 74-14 107-31 31-59 36-93 18-24-13-28-9-109 111-69 102-133 239-161 340-19 72-23 109-22 240 0 112 5 174 17 222 73 291 242 503 437 547 98 23 251 1 349-48 22-12 44-21 50-21 5 0 18 31 30 69s34 99 51 136c29 64 29 68 14 98-53 105-193 306-248 356-14 14-26 28-26 32 0 9 108 12 598 17l302 4-6-39zm1835-3778c-11-25-22-69-25-98l-6-52 21 33c46 71 141 75 182 8 30-49 25-113-13-185-37-68-137-192-180-222-26-19-29-19-50-3-52 40-151 164-184 228-40 80-44 133-14 182 42 67 135 63 181-8l21-33-6 52c-3 29-14 73-25 98l-20 45h138l-20-45zm-4074 18c-26-61-34-93-34-133l-1-45 16 32c32 64 123 73 171 18 46-53 40-123-20-224-35-59-172-211-190-211s-129 121-175 190c-48 71-74 148-65 191 9 48 54 89 98 89 48 0 93-25 101-55 3-14 11-25 16-25 15 0 0 86-23 139-10 24-19 45-19 47s30 4 66 4c59 0 65-2 59-17zm3953-685c-2-15-11-24-26-26-20-3-21-7-15-45 15-97 9-92 105-95l86-3 12 53c6 29 14 61 17 71 3 13-2 17-21 17-21 0-26 5-26 25 0 26 0 26 83 23 76-3 82-5 85-25 3-19-1-23-26-23-29 0-29-1-55-112-15-62-51-214-80-338l-52-225-31-3-30-3-64 298c-35 164-67 317-72 340-7 32-15 43-31 45-14 2-23 11-25 26-3 21-1 22 83 22s86-1 83-22zm-4078-13c0-18-5-25-20-25-23 0-24-7-9-83l12-57h174l11 51c18 76 16 89-13 89-20 0-25 5-25 25 0 25 1 25 85 25s85 0 85-25c0-20-5-25-25-25-17 0-26-7-30-22l-78-338-73-315h-59l-72 325c-40 179-75 331-78 338-2 6-14 12-25 12-15 0-20 7-20 25 0 25 1 25 80 25s80 0 80-25z"/><path d="M4478 7273c-20-92-34-171-32-175 7-11 132-10 138 1 7 10-55 341-64 341-4 0-23-75-42-167zM391 7268c-19-90-36-169-39-175-3-10 15-13 72-13 42 0 76 3 76 8 1 21-65 342-69 342s-21-73-40-162zM2517 5505c7-53-3-57-53-19-39 30-46 19-9-16 29-27 23-38-27-50l-33-8 43-1c45-1 47-3 32-31-13-24 3-35 20-15 17 21 27 19 34-7 6-23 7-23 21-4 15 19 15 19 45-2 36-27 40-15 5 18-38 36-32 50 20 50 25 0 45 5 45 10 0 6-15 8-39 4-52-8-60 9-22 52 17 19 31 37 31 39 0 14-22 1-48-26-35-37-52-31-52 17 0 19-4 34-10 34s-7-18-3-45zM2030 5517c0-14-7-28-17-32-16-6-15-8 5-16 14-5 22-17 22-31v-23l18 23c12 16 23 21 36 16 16-6 17-4 7 15-7 12-9 30-6 41 5 15 2 17-15 13-11-3-27 0-35 7-13 10-15 8-15-13zM2142 5497c-22-23-28-60-16-92 7-18 55-45 79-45 26 0 75 55 75 85 0 65-93 100-138 52zM2698 5318c-32-60-39-78-30-78 10 0 65 111 58 117-2 3-15-15-28-39zM2364 5311c-191-87-329-437-281-708 43-236 168-335 324-257l52 25 38-25c88-57 169-41 252 50 78 86 96 141 96 304-1 158-15 222-78 350-29 59-62 106-112 159-108 114-196 145-291 102zm215-211c28-22 51-44 51-49s-17-17-37-26c-21-10-42-24-46-31-7-12-13-11-39 2-27 14-38 15-65 5-31-11-36-10-65 14-19 16-37 24-47 20-9-4-22-9-28-12-22-9-14 12 15 39 61 56 105 78 158 78 46 0 59-5 103-40zm120-114c15-18 3-46-19-46-10 0-21 7-24 16-6 16 9 44 24 44 4 0 13-6 19-14zm-424-46c0-16-6-26-18-28-19-4-32 20-23 44 9 25 41 13 41-16zm287-55c15-20 7-50-18-70-26-21-27-25-25-115 2-60 8-104 17-123 12-23 13-28 2-25-21 7-36 77-37 176-1 90 0 93 24 102 34 13 31 27-9 44-33 14-61 47-50 59 6 6 86-34 96-48zm-137-5c-16-17-35-30-42-30-21 0-15-17 10-25 21-7 21-7 2-12-12-3-26 3-37 17-28 35-24 40 52 73 46 19 50 13 15-23zm260-6c3-20 19-69 35-109 15-41 26-76 23-78-2-3-16 1-31 9s-51 14-81 14h-54l20 23c31 33 53 81 60 132 7 54 18 58 28 9zm-382-110c8-17 23-36 31-43 26-22 18-32-21-25-23 3-55 0-83-10-24-8-46-13-49-11-2 3 10 32 28 65s35 83 38 112l7 53 16-55c9-30 24-69 33-86zm402-89c48-20 54-40 19-76-16-17-22-29-14-29 7 0 30 18 52 40 21 23 38 36 38 29 0-21-40-66-69-79-24-9-31-20-36-53-9-52-33-112-42-104-3 4-5 37-4 74 2 71-20 126-54 139-27 11-17 44 18 59 41 18 50 18 92 0zm-361-1c24-9 19-48-10-75-25-23-26-27-21-111 2-49 1-88-3-88-8 0-70 133-70 150 0 5-10 15-22 21-23 12-47 38-48 51 0 14 47 39 91 47 59 12 65 12 83 5zm46-74c-18-35-45-60-66-60-3 0 10 18 30 40s36 47 36 56c0 8 4 12 10 9 6-4 2-21-10-45zm199-13c31-26 38-37 23-37-18 0-72 64-71 84v21l9-21c4-11 22-32 39-47zm-414-7c10-11 26-22 36-25 21-7 26-25 7-25-15 0-78 49-78 61 0 15 16 10 35-11zm585-154c0-21-46-54-93-67-46-12-87 0-87 26 0 13 9 15 48 9 49-6 112 14 112 36 0 6 5 10 10 10 6 0 10-6 10-14zm-535-26c12-12 38-23 58-27 30-4 40-1 62 22 31 30 55 22 36-13-20-37-95-46-151-17-16 9-30 17-30 19 0 3-3 11-6 20-8 22 5 20 31-4z"/><path d="M2415 5106c-16-7-39-23-50-36l-20-22 45 7c25 4 49 11 54 16 5 4 36 6 68 2 65-7 77 6 28 32-35 18-85 19-125 1zM2438 5046c-21-5-38-15-38-23 0-16 5-16 29-1 15 9 28 9 59 0 38-12 72-8 72 7s-85 27-122 17zM2989 4926c-4-4-4-26-2-50 7-56-10-67-48-30-35 34-52 24-19-11 27-29 20-41-25-48-24-3-21-4 13-6 44-1 55-17 27-41-8-7-15-19-15-27 0-11 7-9 31 7 16 12 33 20 36 17s8-26 10-52c7-61 23-57 23 6v51l26-17c27-17 26-7-2 25-14 17-8 34 16 43 12 4 11 6-2 6-26 1-22 21 9 53 14 15 23 31 20 35-4 4-20-8-36-27-32-38-42-32-51 33-3 22-8 36-11 33zM1709 4854c-16-20-1-48 29-52 25-4 39 32 22 53-16 19-34 19-51-1zM1972 4833c-16-18-20-32-15-53 5-26 9-29 32-24 34 8 44 18 47 46 1 14-7 29-20 39-21 16-23 16-44-8zM1822 4828c8-22 36-34 50-20 10 10 10 15-2 22-21 14-52 12-48-2zM1567 4807c-10-15-27-27-38-27-18 0-19-3-10-14s9-20 2-35c-16-29-14-33 10-20 15 8 24 8 32 0 16-16 27-13 27 8 0 10 7 24 16 32 13 10 17 10 25-2 5-8 9-17 9-21 0-17 60-7 70 11 23 44-32 80-70 46-25-23-48-13-52 22l-3 27-18-27zM3119 4810c-23-19-23-19-3-20 20 0 44 17 44 32 0 14-17 9-41-12zM3170 4800c-8-5-12-11-10-14 8-7 60 6 60 15 0 12-31 11-50-1zM1792 4771c-16-10-12-53 6-59 7-2 12 5 12 16s7 23 16 26c8 3 12 10 9 16-8 12-25 13-43 1zM1850 4768c0-7 3-23 6-36 6-22 7-22 25-6s18 18 3 36c-20 21-34 23-34 6zM3290 4761c0-11-10-27-22-36-19-12-20-17-9-24 8-6 12-19 9-35-5-25-4-26 13-10 11 10 25 13 39 9 19-6 21-4 15 15-4 14-1 28 11 41 16 18 16 19-9 19-17 0-27 5-27 14 0 8-4 18-10 21-5 3-10-3-10-14zM3094 4756c-7-19 14-58 29-53 7 2 13 18 15 35 3 27 0 32-18 32-11 0-23-6-26-14zM3175 4730c15-16 32-27 37-24 11 7-33 54-51 54-10 0-5-11 14-30zM2005 4669c-10-29-21-96-25-149-7-106-30-163-67-168-26-4-51 32-31 45 7 4 18 8 23 9 6 0 15 2 22 2 15 2 33 56 33 99v34l-35-36c-33-36-55-41-63-17-2 6 8 14 22 18 33 8 57 35 38 42-27 9-85 67-98 99-8 17-18 34-23 37-13 9-67-81-85-143-20-68-20-130-1-204 44-169 146-261 291-262 62 0 79 4 145 38 65 33 210 137 216 155 2 4-20 8-47 9-62 3-139 42-176 90-50 65-79 155-92 282-4 35-12 66-19 68-6 2-19-19-28-48z"/><path d="M2873 4605c-24-195-157-340-297-323-20 2-36 2-36-2 1-3 52-43 115-90 145-109 206-133 323-126 85 4 100-1 40-13-52-11-43-36 11-34l44 2-28-29c-25-26-27-33-17-55 18-40 14-47-18-30-36 19-36 19-44-1-3-9 1-25 9-37 18-26 19-60 3-90-17-34-39-46-80-47-29 0-42 7-63 32-47 56-18 132 56 147 44 9 49 34 9 51-38 16-39 30-1 30 17 0 33 5 36 11 13 19-3 21-47 5-24-8-54-17-68-18-19-2-32-17-57-63-42-79-63-144-56-178 7-36-13-60-46-53-14 3-48-4-76-14-27-10-63-22-78-25-42-9-27-29 23-33l43-3-33-34c-30-31-31-34-18-60 13-24 12-31-10-73-18-37-22-57-18-94 5-49 32-111 45-106 4 2 54 56 111 121l102 118 24-22c33-31 26-43-27-50l-44-6 48-1c55-2 62-19 22-56-14-13-25-32-25-42 1-14 10-8 41 26 43 50 59 45 59-17 0-17 5-35 10-38 6-4 10 12 10 39 0 51 8 56 35 26 10-11 25-20 34-20 10 0 5 10-17 33-44 45-41 57 13 57 25 0 45-4 45-10 0-5-5-10-11-10-5 0-7-5-4-10 5-8 11-7 21 1 8 7 27 12 43 11 24 0 29 3 29 26 0 14 5 28 11 30 18 6 12 18-10 19-12 1-27 10-34 19-12 17-13 16-19-3-4-12-13-24-21-27s-15-12-15-21c0-10-10-15-33-15-47 0-50 7-20 47 31 40 26 53-7 18s-50-32-50 9c0 19-4 38-10 41-6 4-10-13-10-44 0-28-4-51-8-51-5 0-20 13-35 28l-27 28 128 125c95 93 134 138 155 181 36 76 57 160 57 230 0 54 3 61 35 89 39 34 81 117 91 176l6 40 43-5c37-4 47-1 69 21 66 66-7 176-90 138-33-15-39-10-54 44-14 48-44 95-62 95-14 0-75-65-83-88-3-11-17-24-30-30-14-6-25-15-25-20 0-11 61-47 80-47 21 0 19-39-3-43-10-2-35 12-58 33-23 20-42 35-45 33-7-8 26-111 42-129s13-49-5-49c-21 0-41 47-51 120-25 165-56 270-79 270-4 0-12-38-18-85zM1394 4651c-4-17-12-32-18-34-8-3-11-19-8-41 3-29 7-34 18-25 7 6 21 9 31 7 12-2 24 8 36 29 21 40 21 43 2 43-9 0-21 11-27 25-15 33-27 32-34-4zM1707 4643c-12-11-8-45 5-41 17 6 30 48 14 48-7 0-16-3-19-7zM3503 4640c-37-15-54-69-37-115 9-23 62-48 90-41 73 19 88 118 23 151-32 17-44 18-76 5zM1472 4517c-7-16-21-31-32-34-16-4-18-8-9-19 6-8 8-25 5-40-7-27-7-27 18-11 15 10 27 13 31 7 11-17 26-11 23 9-2 10 6 28 16 40 19 21 19 21-7 21-20 0-26 6-29 28l-4 27-12-28zM3483 4385c-32-22-31-69 2-91 30-19 60-11 82 22 15 24 15 27-4 52-24 33-50 38-80 17zM1550 4344c0-4 5-23 12-41 12-32 11-35-17-58l-30-24 43-1c23 0 42-4 42-9s5-22 11-38l11-28 12 35c10 26 20 36 47 43l34 9-23 19c-21 16-23 24-17 60l7 42-27-21c-34-27-45-27-79-1-14 11-26 17-26 13zM1276 4309c-32-47 32-102 74-64 24 22 26 48 4 69-22 22-60 20-78-5z"/><path d="M3361 4243c-1-28-5-54-9-57-5-3-25 9-45 25-20 17-37 26-37 20s11-18 25-27c40-26 32-44-20-44-25 0-45-4-45-10s18-7 44-4c63 9 66-8 11-72-60-70-52-82 10-15 60 64 75 65 75 7 0-25 5-48 10-51 6-4 10 12 10 39 0 49 16 60 40 31 7-8 20-15 29-15 11 0 4 10-19 30-42 34-34 47 30 53l45 4-52 1c-61 2-64 10-27 59 33 44 26 52-11 13-36-37-45-38-46-2 0 15-4 36-9 47-6 15-9 6-9-32zM3650 4262c0-28-5-36-30-45-37-14-37-20-4-36 24-10 25-15 19-49l-7-37 30 28c25 24 33 27 50 18 35-19 44-13 28 17-14 25-13 29 12 55l27 29-38-3c-32-3-41 1-62 26l-24 30-1-33zM2475 4230c19-165 22-203 18-242-3-23-10-54-17-68-10-22-18-25-61-25s-50-3-53-21c-2-15 5-24 27-33 37-16 60-9 94 27 44 46 54 119 34 240-9 55-23 115-32 134l-15 33 5-45zM2376 4122c-29-58-58-82-99-82-30 0-33-16-6-33 37-23 107 44 129 121 14 53 5 50-24-6zM1575 4075c-65-65 9-173 91-133 37 17 59 57 50 91-16 66-95 89-141 42zM1838 4088c-8-23 5-68 18-68 8 0 19 12 25 27 8 22 7 30-7 40-22 16-31 16-36 1zM2614 4071c18-33 46-47 58-29 12 20 10 28-11 28-10 0-24 7-31 15-21 25-31 17-16-14zM1357 4072c-48-53 19-133 75-89 27 21 30 52 7 80-24 31-59 35-82 9zM1910 4058c0-27 18-41 44-36 32 6 34-6 5-26-17-12-20-21-16-45 6-31 6-31-18-15-32 21-69 3-59-29 9-30 53-117 59-117 3 0 14 9 25 20s29 20 40 20c25 0 60-34 60-57-1-22-18-46-43-60-16-8-6-22 86-107 88-81 253-256 374-395l30-35 13 23c11 21 9 26-14 48-79 73-84 181-11 229 20 13 23 20 14 30-16 20-39 17-66-8-29-27-35-21-23 22 9 32 8 36-22 60l-33 25 40 5c31 4 40 9 40 24 0 14-10 22-34 29-52 13-148 117-198 213-41 79-42 80-77 76-29-3-37 0-52 23-16 25-17 30-3 54l15 26h-60c-34 1-73 4-88 8-20 5-28 4-28-5zm348-399c30 16 33 14 21-15-7-21-6-31 7-45 16-18 16-19-14-19-22 0-32-6-37-20-8-26-25-26-25 0 0 13-10 24-27 31l-28 11 22 15c18 12 21 21 16 46l-6 32 26-23c20-19 29-22 45-13z"/><path d="M3234 3973c4-26 1-35-17-44l-22-12 23-10c12-6 25-22 29-35l6-25 18 22c38 46 36 14-2-51-45-77-60-128-36-128 9 0 29 36 55 101 34 82 39 104 30 119-9 14-9 25 0 44 11 25 0 38-13 16-11-17-42-11-59 13-17 22-17 22-12-10zM3550 3919c0-35-23-64-45-56-25 10-96-25-128-62-74-88-52-212 48-268 22-12 41-20 43-18s-6 25-18 52c-13 28-24 77-27 119-5 58-2 77 16 111 27 53 34 57 70 38 27-13 29-18 24-52l-6-38 29 26c22 20 34 25 49 19 40-17 49-12 30 16-16 25-16 27 4 48 29 31 26 38-14 30-19-3-35-2-35 2 0 5-9 20-20 34l-20 25v-26zM2923 3872c-10-6-10-12 1-28 11-15 17-16 27-7 6 6 9 19 6 27-7 18-16 20-34 8zM1311 3860c-17-10-7-40 14-40 8 0 15 9 15 19 0 24-12 32-29 21zM2847 3863c-4-3-7-14-7-24 0-15 4-16 30-6 22 8 27 14 18 24-11 14-31 17-41 6zM1493 3839c-39-25-73-92-73-144 0-73 51-145 114-161l27-6-23 38c-19 32-23 53-23 124 0 58 6 99 17 128 21 49 12 54-39 21zM1629 3799c-17-33 3-69 39-69 33 0 52 16 52 45s-19 45-52 45c-18 0-31-7-39-21zM2863 3813c-18-7-16-38 3-54 13-10 17-10 25 2 23 37 7 67-28 52zM2920 3780c0-33 11-38 30-15 15 18 6 45-15 45-10 0-15-10-15-30zM1826 3710c-3-8-6-24-8-35-2-12-12-21-26-23-28-4-29-19-1-27 18-6 20-13 16-41-7-39-2-42 29-13 18 17 26 19 42 10 30-16 33-14 20 14-10 22-8 29 13 52l24 26-37-6c-33-5-38-3-52 26-10 22-16 27-20 17zM3165 3640c-4-11-15-20-27-20-17 0-18-3-8-15 7-8 10-24 7-35-4-17-2-20 13-15 11 3 29 1 41-6 20-10 21-9 16 12-4 15 0 27 11 35 16 13 16 13-1 14-10 0-22 11-27 25-11 30-17 31-25 5zM3256 3634c-30-30-8-69 35-62 35 5 47 33 25 57-23 25-39 26-60 5zM3209 3488c-13-47-14-48-51-48-46 0-48-10-7-34 21-13 28-23 24-34-4-10-9-30-12-46l-6-29 38 26 38 26 29-21c36-25 41-21 27 21-11 31-9 34 22 61l34 29-43 1c-37 0-44 3-52 28-26 69-27 70-41 20zM3310 3511c0-26 17-36 35-21s8 40-16 40c-12 0-19-7-19-19zM2104 3446c-60-51-20-146 61-146 25 0 40 8 59 31 34 40 33 74-3 110-37 36-79 38-117 5zM1882 3438c-17-17-15-64 4-82 35-35 94-12 94 37 0 41-15 57-55 57-17 0-36-5-43-12zM1947 3190c-5-25-12-30-34-30l-28-1 22-18c18-15 22-25 16-51l-6-32 27 17c22 15 31 16 53 6 24-11 25-11 19 15-5 20-1 33 15 50l22 24h-31c-25 0-35 6-44 25-15 33-24 32-31-5zM2295 3191c-8-38-30-46-55-21-26 26-52 25-76-1-17-19-17-23-3-47 19-34 52-39 79-12 17 17 21 18 26 5 4-8 3-27 0-41-6-23-5-24 13-14 11 5 23 15 26 21 5 7 15 5 31-5 32-22 35-20 23 11-9 23-7 30 10 44 28 23 26 29-8 29-23 0-31 6-40 30-13 38-18 38-26 1zM2777 3190c-31-24-40-25-72-4-25 16-25 16-25-14 0-16-9-41-20-55s-20-28-20-30c0-3 17-7 38-9 40-3 40-3 31-83-7-53 22-35 46 30 21 55 25 60 55 63l32 3-22 24c-18 19-22 32-17 60 3 19 4 35 3 35-2 0-15-9-29-20zM2527 3038c-25-19-12-56 18-54 39 2 43 65 4 66-3 0-13-6-22-12zM2034 2944c-16-24-16-27 3-52 11-15 28-29 37-30 46-9 77 76 37 98-32 17-60 11-77-16zM2645 2923c-5-16-15-23-33-23-23 0-24-1-9-18 10-11 14-26 10-41-5-21-4-22 15-10 17 11 24 11 34 1 18-18 27-14 21 9-4 15 0 27 12 35 18 13 18 14-2 14-14 0-25 9-31 28-10 26-11 27-17 5zM2732 2898c-28-28 4-77 42-62 25 10 31 46 10 61-22 16-36 17-52 1zM2364 2866c6-24 3-33-15-47l-22-17 21-6c13-4 25-20 30-38l8-30 14 27c11 20 20 25 37 22 25-5 29 3 11 21-9 9-9 18 0 37 16 35 16 36-13 23-22-10-29-8-52 13l-26 24 7-29zM2789 2784c-9-11-9-18-1-26 14-14 42-3 42 16 0 20-27 27-41 10zM2522 2730c-5-14-11-34-13-45-3-15-14-21-44-25l-40-5 28-19c26-18 28-23 22-63-3-24-4-43 0-43 3 0 19 10 35 21l28 22 38-24c32-20 37-20 31-5-20 52-19 63 12 89 17 14 31 28 31 31s-20 6-45 6c-29 0-45 4-45 13-1 6-7 26-14 42l-14 30-10-25zM2450 2480c-8-8-14-24-12-36 2-16 10-21 33-20 18 1 27 5 25 13-3 7-1 15 4 18 6 4 10 11 10 16 0 6-5 7-12 3-6-4-16-1-22 7-10 13-13 13-26-1zM4480 863c0-18 60-326 64-330 2-2 7 4 10 14 11 35 66 293 66 308 0 12-14 15-70 15-38 0-70-3-70-7zM420 860c-11-7-9-34 14-157 15-81 31-157 35-168l8-20 6 20c19 66 68 316 63 324-8 12-107 13-126 1z"/></g></svg>