<svg version="1" xmlns="http://www.w3.org/2000/svg" width="500" height="792" viewBox="0 0 5000 7920"><path d="M0 3960V0h5000v7920H0V3960z"/><g fill="#fff"><path d="M0 3960V0h5000v7920H0V3960zm368 3593c15-10 37-39 50-63 21-42 22-55 22-275 0-201-3-235-19-270-23-51-71-92-117-101-53-10-121 29-151 86-24 44-24 48-21 297 3 237 4 253 24 280 39 52 83 75 137 70 27-2 61-13 75-24zm4170 13c35-18 68-54 81-89 7-17 11-125 11-269l1-241-28-46c-31-49-79-80-127-81-40 0-97 34-126 78-25 37-25 39-28 282-3 239-2 246 20 290 41 79 126 112 196 76zm-3904-6c19-7 26-17 26-35 0-21-5-25-30-25h-30l-2-322-3-323-32-3-33-3v721h39c22 0 51-4 65-10zm4195-1c24-9 31-16 29-33-2-16-11-22-35-24l-33-3v-650l-32 3-33 3v270c-1 149 1 309 3 358l5 87h32c18 0 46-5 64-11zm-3372-706c45-30 231-244 298-343 106-158 155-314 126-403-19-55-67-114-113-138-32-16-54-20-99-17-80 6-133 42-167 116l-27 57-3-54c-4-70 21-180 58-256 16-33 28-61 27-62-2-2-230-5-249-4-4 1 8 34 27 74 18 39 38 97 44 127 23 123 14 208-15 125-37-108-179-159-280-100-54 32-99 100-108 163-20 150 101 373 333 614 62 65 115 118 118 118 2 0 16-8 30-17zm2194-80c204-209 315-382 348-544 40-192-136-341-300-256-35 18-50 35-76 85-17 34-35 58-38 52-18-29 24-229 65-310 10-19 18-39 19-44s-55-9-124-10-125 2-125 5c0 4 14 36 30 71 34 73 60 179 60 251 0 52-14 63-25 20-19-82-100-143-188-143-59 0-94 14-136 53-113 108-89 297 67 517 91 128 294 350 320 350 4 0 51-44 103-97zM528 6629c133-153 165-261 101-334-26-29-38-35-71-35-50 0-74 13-99 53l-21 32 6-52c3-29 14-73 25-98l20-45H351l20 45c11 25 22 69 25 98l6 52-21-32c-25-40-50-53-98-53-93 1-131 104-79 215 30 63 68 115 147 199 74 79 68 81 177-45zm4172-87c93-138 91-237-6-278-50-21-119 7-130 52-3 13-10 24-14 24-12 0 0-79 21-135 11-27 19-51 19-52 0-2-29-3-65-3s-65 1-65 3c0 1 9 26 20 55s20 69 20 90l-1 37-14-26c-8-15-32-34-56-43-39-16-43-16-78 1-117 58-83 204 93 390l79 84 64-63c36-35 86-96 113-136zm-2164-474c67-59 214-231 275-321 74-111 107-183 126-274 13-65 13-78-2-128-32-112-137-181-235-156-82 22-122 57-150 134-5 15-15 27-21 27-25 0 13-204 56-298 13-29 24-55 25-59 0-3-56-7-125-7-69-1-125 0-125 0 0 1 14 31 30 68 37 81 60 174 60 244 0 60-11 67-28 18-25-68-80-113-159-130-77-17-185 52-219 140-46 120 24 305 194 519 73 91 232 255 248 255 8 0 30-15 50-32zm-999-852c215-223 333-416 349-575 16-145-117-276-244-242-75 20-152 92-152 144 0 9-4 17-10 17-15 0-12-108 5-175 9-33 29-89 45-124 17-35 30-64 30-65 0 0-59-1-130-1-72 0-130 1-130 1 0 1 14 31 31 68 17 36 37 89 45 118 16 61 19 178 4 178-5 0-10-7-10-16s-10-34-22-56c-40-71-146-113-223-88-72 24-135 99-150 181-17 91 52 267 165 419 67 90 276 310 294 310 6 0 52-42 103-94zm2119-9c132-136 224-260 286-384 47-95 52-110 55-185 4-78 2-86-27-135-44-76-96-108-176-108-82 0-137 36-174 112-14 29-28 52-32 53-13 0-9-88 8-163 9-40 29-101 45-136s29-64 29-65c0 0-56-1-125-1-69-1-125 2-125 6s14 37 31 73c34 73 68 239 55 271-7 17-11 12-31-31-26-59-72-98-136-115-83-22-157 9-213 89-42 60-48 153-16 253 26 79 103 209 188 314 72 89 233 255 248 255 6 0 56-46 110-103zM1558 3760c1 0-9-22-23-49-35-70-65-186-65-253 0-62 14-78 25-28 22 100 176 166 271 117 43-22 88-77 109-131 56-147-73-399-348-678-48-49-91-88-96-88-18 0-238 238-300 326-118 164-172 314-150 412 19 88 88 161 166 177 39 8 128-17 160-44 28-23 63-81 63-103 0-10 7-18 15-18 32 0-5 201-55 300-16 32-27 59-25 61 2 3 219 2 253-1zm2112-5c0-3-12-28-26-56s-34-85-45-127c-19-75-26-172-11-172 4 0 17 23 30 50 38 84 127 125 228 106 48-10 125-86 142-142 41-140-31-310-236-554-83-99-194-210-210-210-12 0-189 181-244 250-71 88-128 177-166 259-29 62-36 91-40 157-4 76-2 86 24 135 58 106 170 140 275 82 41-22 54-37 79-87 36-76 46-59 31 54-9 65-36 153-78 248-4 9 24 12 121 12 69 0 126-2 126-5zm-1060-788c0-4-8-24-19-45-43-85-85-281-66-312 4-7 20 14 39 51 26 53 39 67 80 88 96 49 205 19 263-72 38-59 44-160 13-251-26-79-99-203-177-299-68-85-242-267-255-267-18 0-209 203-283 301-145 193-198 341-164 462 15 54 93 132 145 146 97 26 203-31 234-125 29-88 41 9 15 128-8 38-28 97-44 132-17 35-31 65-31 67s56 4 125 4 125-4 125-8zm-1050-753c0-1-14-31-30-66-34-73-60-179-60-250 0-59 12-62 30-7 29 86 140 143 231 119 60-16 133-90 149-150 43-158-85-402-354-673l-87-87-29 20c-40 28-200 207-268 298-191 257-214 468-62 568 103 68 248 17 287-100 5-17 15-32 21-34 31-10-2 184-49 286-16 36-29 68-29 71s56 6 125 6 125-1 125-1zm2001-4h109l-25-51c-34-67-65-188-65-256 0-62 11-68 29-15 17 46 46 79 91 102 89 44 162 32 231-39 87-90 89-194 6-365-58-119-142-231-282-374l-114-117-81 80c-166 163-307 361-350 491-31 92-26 194 13 252 61 93 162 121 260 74 47-24 97-88 97-125 0-10 7-17 16-17 34 0-13 237-66 327-19 33-16 47 8 38 7-3 63-5 123-5zM520 1810c0-3-9-29-20-58s-20-69-20-90v-37l20 33c38 62 114 70 166 18 56-56 46-128-32-246-48-72-157-190-176-190-17 0-122 113-170 183-52 77-68 117-68 173 0 39 5 51 34 80 24 24 43 34 65 34 33 0 91-25 91-38 0-5 7-17 16-28 14-18 15-15 10 33-3 28-14 69-25 91s-18 41-16 43c5 6 125 5 125-1zm4079-41c-11-23-23-67-25-98l-5-56 17 32c12 22 31 38 60 49 39 15 45 15 76 0 67-32 86-110 48-195-29-63-99-157-165-221l-56-55-83 86c-146 153-195 291-127 359 16 16 41 32 56 36 37 9 90-17 116-58l21-33-6 52c-3 29-14 73-25 98l-20 45h139l-21-41zM588 1110c22-14 42-39 58-75 25-54 25-57 22-287-3-224-4-234-27-271-65-105-211-96-265 17-13 28-16 73-16 273 0 228 1 240 23 278 45 80 134 108 205 65zm4145 6c41-17 83-66 97-114 8-24 10-119 8-267-3-223-4-231-27-269-63-102-206-94-261 14-18 36-20 60-20 274 0 141 4 246 11 263 20 55 92 112 142 113 10 0 32-6 50-14zm-4471-88c3-51 5-210 4-353l-1-260-25-3c-13-2-41 1-62 7-31 10-38 17-38 36 0 21 5 25 30 25h30v640h57l5-92zm4175-256c1-188-1-350-4-358-7-18-54-15-105 4-37 15-28 52 13 52h29v318c0 175 3 322 7 326s19 6 33 4l25-3 2-343z"/><path d="M237 7509c-43-33-49-74-45-314 3-197 5-223 22-252 11-18 33-38 49-44 24-10 32-9 55 8 54 40 57 57 54 312-3 180-7 241-18 263-26 50-74 62-117 27zM4437 7519c-9-5-25-24-34-42-15-28-18-63-18-262 0-250 3-268 57-309 37-26 74-14 102 34 19 32 21 55 24 240 2 113 1 225-3 249-11 75-75 121-128 90zM483 1078c-13-6-32-30-43-53-18-38-20-61-20-258 0-128 4-227 11-244 33-87 115-98 155-22 22 43 22 485 0 528-26 48-65 67-103 49zM4635 1056c-40-40-47-90-43-326 3-204 4-221 24-247 43-58 107-54 140 9 15 27 19 67 22 223 5 231-5 298-48 338-37 33-64 34-95 3z"/></g></svg>