<svg version="1" xmlns="http://www.w3.org/2000/svg" width="500" height="792" viewBox="0 0 5000 7920"><path d="M0 3960V0h5000v7920H0V3960z"/><g fill="#fff"><path d="M0 3960V0h5000v7920H0V3960zm578 3297c71-129 122-234 122-250 0-31 5-30-147-27l-103 1v-171h35c32 0 35-2 35-30v-30H310v29c0 26 4 30 33 33l32 3v160l-45 5c-42 5-46 8-41 40 0 6 21 10 46 10h45v450h77l121-223zm4087 1c80-147 120-231 120-252v-31l-95-2c-52-1-110-2-127-2l-33-1v-160h33c41 0 45-4 39-35-4-25-6-25-103-25h-99v30c0 27 3 30 30 30h30v159l-42 3c-39 3-43 6-46 31-3 26-2 27 42 27h46v450h85l120-222zM538 6573c82-87 138-173 158-240 14-48 14-60 2-91-18-48-73-86-112-78-42 9-75 33-86 62-5 13-12 24-16 24-11 0 8-104 26-147l19-43h-66c-72 0-70-5-39 75 8 22 15 58 15 80v40l-16-32c-19-38-52-57-100-57-28 0-42 8-69 37-47 51-46 100 2 196 35 70 182 241 207 241 7 0 40-30 75-67zm979 26c190-175 358-412 397-559 28-109 4-204-68-267-69-61-148-67-232-18-36 21-52 39-73 84l-26 56-3-63c-3-74 26-195 64-259 13-23 24-43 24-45 0-3-58-5-130-5-71 0-130 1-130 2 0 2 13 31 30 66 16 35 36 91 45 124 17 67 20 175 5 175-5 0-10-7-10-16 0-32-46-96-85-119-91-54-183-39-253 41-22 24-45 64-52 89-33 118 41 301 204 502 71 88 228 253 241 253 4 0 28-18 52-41zm2173-56c226-240 337-425 347-578 4-63 2-76-24-125-36-67-93-110-157-117-89-10-179 45-206 127-18 55-30 50-30-13 0-67 31-189 64-256 14-28 26-52 26-54 0-3-58-5-129-5h-129l33 72c37 82 51 134 61 229 8 80-4 87-32 19-47-110-188-154-285-89-46 31-90 96-99 148-20 107 43 271 167 434 77 102 269 305 288 305 8 0 55-44 105-97zm942 30c129-132 189-246 168-323-12-46-48-79-91-86-43-6-77 12-107 56l-25 35 6-50c3-27 15-71 26-97l20-48h-138l20 45c11 25 22 69 25 98l5 52-21-37c-38-70-133-74-180-8-37 52-21 146 41 238 33 47 167 192 178 192 4 0 36-30 73-67zM1598 2243c-62-120-90-225-86-312l3-56 23 50c29 63 48 84 97 106 111 51 228 0 280-124 59-143-69-397-339-669-53-54-100-98-105-98-16 0-218 217-286 306-37 49-87 131-113 183-40 84-46 104-50 176-5 85 4 116 50 175 92 118 290 80 338-65 18-54 32-32 24 38-9 90-31 172-65 239l-29 58h131c72 0 129-3 127-7zm2081-58c-37-82-59-173-59-248 0-59 12-69 25-20 26 107 171 166 276 113 46-24 95-87 110-144 40-143-100-403-350-651l-101-100-81 80c-152 151-261 295-327 433-35 72-37 83-37 172 0 88 2 98 29 138 58 86 159 115 251 73 47-21 92-70 101-109 10-39 15-46 25-31 20 33-16 210-62 301l-29 58h259l-30-65zM560 1713c0-5-9-32-20-61s-20-69-19-90v-37l16 32c11 23 30 38 59 49 39 15 44 15 78-1 122-58 67-236-129-425l-47-45-81 86c-112 118-150 184-155 265-4 60-3 65 26 94 24 24 39 30 72 30 52 0 75-12 101-53l21-32-6 52c-3 29-14 73-25 98l-20 45h65c35 0 64-3 64-7zm4079-40c-11-27-23-70-26-98l-5-50 21 32c41 65 113 73 167 19 29-29 34-41 34-81 0-79-64-187-179-299l-60-60-23 20c-72 62-167 181-199 249-33 72-18 169 30 195 50 26 151-4 151-45 0-8 5-17 12-21 18-11 3 87-21 137-12 24-21 44-21 46s31 3 70 3h69l-20-47zM660 1001c0-26-4-30-32-33-32-3-33-4-36-57-5-87 1-99 51-103 37-3 42-6 42-28s-5-25-41-28c-33-2-43-8-48-25-3-12-5-112-4-222l2-200h-77L394 529c-68 123-124 234-124 247 0 22 4 24 53 25 28 1 63 2 77 3s49 3 78 4l52 2v160h-35c-37 0-52 17-41 45 4 12 26 15 106 15h100v-29zm4070-1c0-27-3-30-30-30h-31l3-82 3-82 35-2c19-1 38-2 43-3 4-1 7-12 7-26 0-23-4-25-45-25h-45V299l-41 3-40 3-125 230c-68 127-123 239-122 250 3 19 12 20 131 23l127 3v159h-35c-32 0-35 2-35 30v30h200v-30z"/><path d="M449 7272v-157-75c1-11 181-15 181-4 0 7-148 281-167 309-11 17-13 8-14-73zM4530 7195v-165h191l-63 118c-34 64-74 138-88 164s-28 48-32 48c-5 0-8-74-8-165zM372 752c-18-2-32-7-30-11 17-41 175-321 181-321 4 0 7 74 7 164v164l-62 4c-35 1-78 2-96 0zM4420 737c0-7 4-17 9-22 4-6 26-44 48-85 75-140 115-210 119-210 2 0 4 74 4 165v165h-90c-67 0-90-3-90-13z"/></g></svg>