<svg version="1" xmlns="http://www.w3.org/2000/svg" width="500" height="792" viewBox="0 0 5000 7920"><path d="M0 3960V0h5000v7920H0V3960z"/><path d="M0 3960V0h5000v7920H0V3960zm4722 3647c15-16 54-306 45-331-9-24-40-19-67 9-32 34-102 59-142 51-90-18-142-97-136-207 6-111 69-179 165-179 46 0 98 30 121 69 14 25 19 27 39 18 31-14 29-29-7-71-65-74-200-88-282-30-60 43-100 119-106 205-4 63-2 75 27 134 25 51 42 70 77 91 53 31 138 35 198 10 21-9 40-16 42-16 7 0 4 48-7 125l-11 75-72 1c-39 1-98 4-131 8-52 5-60 9-63 29-3 22-3 22 147 22 112 0 153-3 163-13zm-4051-16c4-3 14-67 23-141s20-149 23-167c4-28 2-33-21-39-21-5-34 1-65 29-117 106-272 17-271-154 1-87 61-169 134-183 70-13 131 20 172 92 3 6 54-22 54-29 0-5-15-25-32-45-67-76-172-95-265-49-143 72-178 295-64 415 57 60 134 74 229 41 29-10 54-15 56-12 4 7-21 181-27 187-3 3-60 8-128 11-124 6-139 11-139 45 0 16 12 17 158 12 86-4 160-9 163-13zm3039-829c321-331 413-592 258-739-37-35-76-53-116-53-83 0-172 61-194 131-31 105-39-24-9-143 11-42 31-99 45-127s26-52 26-53c0-2-56-3-125-4-84 0-124 3-121 10 51 126 67 176 77 249 8 61 9 91 2 98-8 8-14 0-23-25-47-145-236-181-334-65-41 48-56 90-56 156 0 109 56 233 174 390 82 109 251 293 269 293 7 0 64-53 127-118zm-2110 0c134-136 228-262 287-380 42-83 47-101 51-175 4-70 1-90-16-124-41-80-126-130-203-120-69 9-124 50-156 114l-28 58-3-56c-4-72 20-173 58-251 16-33 30-61 30-63 0-1-56-2-125-2s-125 3-125 7 11 32 25 61c35 77 55 164 55 237 0 65-13 76-25 22-20-93-154-156-252-119-38 14-90 65-116 114-61 115 10 315 189 537 74 92 224 248 238 248 6 0 58-48 116-108zm3034-43c87-94 143-181 157-244 10-45 9-57-6-89-18-38-58-66-95-66-33 0-78 28-94 58l-15 27-1-37c0-21 9-61 20-90s20-54 20-55c0-2-29-3-64-3h-65l19 43c19 43 37 137 26 137-3 0-12-13-20-29-32-60-123-66-170-10-42 49-39 107 11 201 36 68 174 228 198 228 7 0 43-32 79-71zm-4078-11c114-124 164-212 164-290 0-114-122-155-196-65l-26 32 7-50c4-27 15-69 25-92l19-43h-65c-35 0-64 2-64 5 0 2 9 27 20 55s20 67 20 88l-1 37-15-27c-27-50-94-71-142-44-85 47-79 163 15 291 54 73 145 165 163 165 10 0 44-28 76-62zm2124-2102c0-2-14-33-30-68-17-36-37-96-45-134-16-74-20-164-7-164 4 0 16 24 27 52 28 73 82 111 168 116 57 4 66 1 112-30 200-135 108-427-252-798l-92-95-86 85c-175 172-316 370-355 498-46 147-8 267 101 322 94 49 218 0 264-103 27-63 40-48 31 36-9 82-31 158-67 229l-29 58h130c71 0 130-2 130-4zm1044-2330c-32-71-64-198-64-258 0-54 15-64 25-18 19 87 142 155 234 130 83-22 161-126 161-215 0-92-55-229-143-359-82-120-279-336-308-336-21 0-207 193-283 295-122 161-176 283-176 396 0 69 21 118 72 166 57 55 132 68 206 38 52-22 81-52 107-110 19-41 24-47 31-31 13 34-22 201-59 281l-36 74 122 3c67 2 125 2 129 0 4-1-4-26-18-56zm-2084 40c0-2-14-33-30-68-17-36-37-96-45-134-16-74-20-164-7-164 4 0 16 24 27 52 27 70 79 108 161 115 96 9 167-39 209-140 61-146-63-400-329-674-54-57-104-103-110-103-15 0-179 171-257 268-127 158-190 288-197 402-6 111 36 192 123 231 54 25 100 23 161-5 53-24 84-59 101-111 26-80 36 35 12 140-6 28-26 83-45 123l-33 72h130c71 0 129-2 129-4zm3031-481c-12-31-21-72-21-93v-37l20 32c23 39 48 53 92 53 91 0 135-105 88-209-28-62-99-157-162-219l-54-53-28 22c-50 39-155 171-186 232-21 43-30 75-30 110 0 43 4 53 35 84 32 32 39 35 78 30 32-4 50-14 76-44l34-38-7 48c-3 27-15 68-25 92l-19 44 61 3c34 2 64 2 65 1 2-1-5-27-17-58zm-4071 26c-1-3-9-31-20-61-19-55-29-149-10-104 14 35 59 64 99 64 94 0 138-103 91-209-29-63-99-157-165-221l-56-55-75 78c-93 96-149 182-165 251-10 46-9 58 6 90 32 67 110 86 164 40 17-14 31-32 31-40s5-14 11-14c16 0 2 83-22 139-10 24-19 44-19 45 0 0 29 1 65 2 36 0 65-2 65-5zm4086-670c148-67 189-296 76-425-46-52-149-69-236-40-26 9-49 14-51 12-4-4 11-133 20-175 5-22 10-23 108-24 133-2 161-8 165-37l3-22h-160c-88 0-162 4-165 8-5 9-46 301-46 332 0 30 46 31 72 2 96-104 262-43 284 106 20 133-79 249-193 227-36-6-95-54-105-85-4-12-9-13-31-3-33 15-33 26-5 65 48 68 179 97 264 59zm-4080-30c80-36 144-144 144-241 0-94-58-198-127-226-43-18-130-18-183 1-24 8-45 14-47 12-2-3 2-48 8-101l12-96h81c45 0 105-3 134-6 49-6 52-9 52-34v-28l-157 6c-87 2-160 6-162 9-3 2-14 80-26 174l-21 171 24 9c21 8 30 5 56-19 43-41 68-52 116-52 97 0 170 86 170 200 0 40-38 127-66 152-30 25-93 39-139 28-37-8-86-49-97-80-5-17-58-1-58 18 0 27 47 79 92 101 54 27 137 28 194 2z" fill="#fff"/></svg>