<svg version="1" xmlns="http://www.w3.org/2000/svg" width="500" height="792" viewBox="0 0 5000 7920"><path d="M0 3960V0h5000v7920H0V3960z"/><g fill="#fff"><path d="M0 3960V0h5000v7920H0V3960zm4551 3649c93-32 140-106 160-253 15-114 7-296-15-356-36-98-119-147-232-137-61 4-69 8-110 48-55 54-79 114-79 199 1 162 85 257 217 248 45-3 68-11 103-36 25-18 48-32 51-32 12 0-9 127-28 172-31 72-106 110-174 88-40-13-83-61-91-101-6-29-25-37-51-20-17 10-3 69 27 118 39 62 138 90 222 62zm-4097-20c24-6 60-24 80-41 67-55 91-130 102-316 17-276-64-402-251-390-77 5-118 32-160 109-27 48-30 63-30 139 0 105 28 169 91 214 75 51 186 43 244-19 31-33 38-25 33 32-13 130-50 191-133 213-65 18-141-28-159-96-8-30-36-43-54-25-15 15 10 93 42 131 26 31 86 59 129 60 13 0 43-5 66-11zm3181-922c327-351 415-579 288-745-88-117-284-81-334 61-18 50-29 47-29-9 0-66 28-180 61-250 16-34 29-65 29-68s-58-6-130-6h-130l20 33c45 72 95 294 75 327-5 8-18-11-36-47-24-49-37-64-78-86-87-48-176-33-242 40-48 53-62 99-57 186 9 151 113 326 336 566l104 111 28-20c15-11 58-53 95-93zm971 4c36-42 81-108 101-148 30-61 35-79 30-118-5-50-34-90-77-107-37-14-102 14-124 55l-17 32 5-56c2-31 14-75 25-98l21-41h-71c-64 0-70 2-64 18 26 59 46 128 42 151l-3 26-12-27c-13-32-46-55-88-63-39-8-86 22-109 70-15 34-16 45-5 92 15 67 86 176 171 260 61 61 62 61 86 45 14-8 54-50 89-91zm-3113 17c315-317 437-581 343-742-88-150-299-133-357 28-18 49-29 45-29-10 0-66 28-180 61-250 16-34 29-64 29-67s-56-7-125-9-125 0-125 3 13 35 29 71c45 97 77 277 53 292-5 3-19-20-31-50-20-46-31-60-75-84-39-23-64-30-104-30-61 0-94 15-139 62-128 133-60 370 191 662 80 94 183 196 196 196 6 0 43-33 83-72zm-1017 0c116-126 164-211 164-294 0-61-23-97-74-114-46-15-99 7-121 49-8 17-18 31-21 31-11 0 7-94 27-139 10-24 19-45 19-47s-29-4-65-4-65 1-65 3c0 1 9 26 20 55s20 71 20 95v42l-17-34c-19-39-71-65-113-56-43 10-82 57-87 108-4 35 1 58 21 103 45 97 181 264 216 264 10 0 44-28 76-62zm3184-2116c0-1-12-25-26-53s-34-85-45-127c-30-118-22-248 9-144 21 68 113 132 191 132 70-1 170-83 190-157 44-157-74-392-333-660-54-57-104-103-110-103-7 0-55 44-107 98-236 241-349 435-349 596 0 52 5 71 33 116 58 99 159 130 260 81 47-23 97-87 97-124 0-10 7-17 15-17 19 0 19 30 0 133-7 44-29 112-48 152-20 40-34 75-32 77 4 4 255 4 255 0zm-2110-11c0-2-12-29-26-59-38-80-54-138-61-224-6-84 6-105 27-44 17 53 48 86 104 112 65 30 100 30 164-2 57-28 107-93 118-151 31-164-107-415-369-672l-76-74-49 41c-118 99-282 305-348 437-93 186-81 320 37 407 92 69 252 15 289-96 20-61 34-44 26 34-7 77-45 208-75 257-11 17-18 33-16 35 5 4 255 4 255-1zm2120-2176c0-1-14-33-31-70-47-104-76-273-50-290 5-3 15 11 21 30 48 144 236 180 334 64 130-154 29-416-288-745l-106-109-112 115c-231 237-341 423-342 580-1 65 3 81 27 123 52 89 141 124 236 92 57-18 102-64 121-119 32-98 41 17 11 136-11 42-31 99-45 127s-26 54-26 59 56 8 125 8 125 0 125-1zm-2100-11s-13-27-30-60c-16-32-36-88-44-124-16-68-21-180-8-180 4 0 16 24 27 52 16 42 29 58 66 81 89 55 162 49 238-19 36-32 54-59 66-95 51-154-71-398-335-670l-101-104-122 126c-123 126-181 199-249 311-63 103-82 162-82 258-1 76 2 89 27 127 63 98 173 127 269 70 36-21 53-40 74-83 36-75 48-59 34 47-11 80-47 191-76 234-8 11-14 22-14 25s59 5 130 5c72 1 130 0 130-1zm3050-519c0-3-9-23-19-44-20-37-39-141-28-141 4 0 13 13 22 30 32 62 117 76 164 26 61-65 43-162-55-292-48-65-135-154-150-154-18 0-138 133-183 203-42 64-67 142-57 181 9 37 53 84 86 91 40 9 94-19 114-58l16-32v45c0 25-9 65-20 89s-20 47-20 52 29 9 65 9 65-2 65-5zm-4090-20c0-3-9-33-21-67-11-33-19-75-17-92l3-31 15 30c8 17 32 38 52 48 32 16 43 17 73 7 80-26 99-122 44-226-46-88-177-244-205-244-17 0-133 126-177 193-71 107-84 192-36 243 50 53 125 46 166-15l23-34v39c-1 21-8 57-16 79-31 80-33 75 35 75 33 0 61-2 61-5zm4090-645c20-5 52-27 72-47 68-70 89-158 63-268-19-82-49-126-108-154-71-34-133-27-210 26-20 14-39 24-42 22-2-3 0-36 6-74 17-126 59-175 153-183 53-4 57-3 91 31 19 19 38 49 41 66 5 24 12 31 30 31 32 0 36-11 19-67-24-82-81-123-172-123-144 1-211 80-234 280-16 145-7 275 24 343 47 102 153 149 267 117zm-4067-21c82-22 147-127 147-234 0-112-47-201-125-236-73-34-145-21-214 37l-34 29 6-74c11-132 68-204 161-204 56 0 91 25 118 84 36 77 83 62 58-18-29-87-84-126-176-124-67 0-113 21-158 72-57 63-70 125-71 334 0 166 2 183 22 220 55 103 154 146 266 114z"/><path d="M4435 7286c-42-18-83-69-91-112-10-52 3-159 21-188 27-41 98-70 153-62 25 3 54 13 64 22 60 55 82 199 39 267-44 72-122 102-186 73zM360 7269c-70-28-104-90-103-186 1-121 56-183 161-183 50 0 58 3 88 35 38 41 54 88 54 164 0 73-34 131-93 160-47 23-69 25-107 10zM4472 1120c-73-45-98-188-48-274s147-107 217-49c43 37 59 80 59 160 0 86-21 129-80 160-53 28-105 29-148 3zM410 1106c-54-31-92-145-76-231 4-20 22-53 42-75 64-70 144-77 208-17 43 41 60 101 52 182-6 63-24 95-69 129-34 25-122 32-157 12z"/></g></svg>