<svg version="1" xmlns="http://www.w3.org/2000/svg" width="500" height="792" viewBox="0 0 5000 7920"><path d="M0 3960V0h5000v7920H0V3960z"/><g fill="#fff"><path d="M0 3960V0h5000v7920H0V3960zm4571 3579c88-30 134-92 127-174-5-55-25-90-70-122l-28-20 41-33c104-83 104-223-1-313-136-116-364-34-378 138-6 74 11 117 67 168l49 43-35 23c-47 30-77 98-68 152 9 50 56 106 110 130 46 21 135 25 186 8zm-4031-39c111-57 130-182 40-264l-40-36 50-49c54-54 66-89 58-172-7-64-46-115-118-151-118-61-258-18-315 95-30 60-31 107-6 162 17 39 76 105 93 105s6 16-26 37c-65 42-86 141-43 203 63 94 199 125 307 70zm3103-899c133-139 225-262 281-376 85-170 81-290-11-377-32-31-91-58-126-58-78 0-161 60-188 134-18 51-29 45-29-16 0-72 24-167 60-240 17-33 30-63 30-68 0-4-56-7-125-6-69 0-125 3-125 7s11 29 25 57c31 62 52 141 61 233 8 83-8 92-35 20-29-78-129-133-214-117-51 9-116 62-143 116-64 125 0 317 183 547 63 80 230 253 243 253 4 0 55-49 113-109zm923 47c77-80 115-129 148-195 46-91 27-183-43-213-43-17-97 4-130 50l-24 35 6-51c5-43 19-87 45-136 2-5-28-8-67-8h-71l21 41c11 23 23 67 25 98l5 56-17-31c-16-30-69-64-100-64-28 0-74 30-89 60-43 84 12 207 167 373 24 26 49 47 54 47s37-28 70-62zm-3023-66c218-222 327-403 334-557 3-73 1-85-24-130-16-27-47-63-71-79-36-26-53-31-100-31-85 1-139 33-176 107-15 32-33 55-38 52-26-16 26-247 72-322 11-18 20-34 20-36s-59-3-130-3c-72 0-129 3-127 6 53 96 87 214 87 304 0 60-13 76-25 30-21-86-114-150-205-141-92 9-160 76-182 180-31 150 100 389 361 656 65 67 85 81 95 72 8-6 57-55 109-108zm-1053 42c149-160 198-271 155-354-20-39-68-64-109-56-39 8-58 23-80 61l-17 30 5-56c2-31 14-75 25-98l21-41H351l20 45c11 25 22 69 25 98l5 52-19-34c-39-70-113-82-168-27-30 30-34 41-34 84 0 75 54 173 152 277 44 47 84 85 88 85s36-30 70-66zm2109-1174c80-82 179-199 208-247 10-16 30-48 45-70 50-75 81-163 86-244 4-66 1-81-21-125-26-51-52-80-77-86-8-2-20-9-26-17-6-7-33-16-60-18-40-4-59 1-104 24-47 24-59 36-84 85-15 32-33 55-38 52-26-16 26-247 72-322 11-18 20-34 20-36 0-1-58-3-130-3-71 1-130 2-130 4s10 23 21 45c12 23 30 67 41 98 22 64 37 220 21 220-6 0-14-12-18-27-13-54-45-92-101-119-100-49-203-16-261 83-24 41-28 58-27 123 0 91 24 161 92 273 61 102 152 216 263 329l89 91 23-19c12-10 55-52 96-94zm1069-937c-52-103-88-229-88-305 0-56 14-63 30-14 31 94 136 151 232 126 55-15 128-89 146-146 38-128-25-296-192-508-71-91-232-256-250-256s-210 203-281 298c-144 192-205 371-161 476 19 46 75 107 113 122 106 45 241-20 268-128 13-53 28-17 21 52-7 82-39 190-72 248l-25 42h131c73 0 130-3 128-7zm-2108-7c0-2-13-32-29-68-43-94-76-270-54-291 3-4 20 21 37 55 26 53 39 67 78 87 102 51 211 18 268-82 68-118 22-291-129-495-71-95-244-287-272-303-27-14-76 26-191 155-255 286-338 497-253 642 56 95 158 127 259 81 57-26 89-64 101-119 11-46 25-31 25 25 0 67-31 189-64 256-14 28-26 53-26 56s56 5 125 5 125-2 125-4zm1060-1037c0-3-13-35-29-70-34-76-50-142-53-223-3-62 15-89 25-39 16 75 104 143 185 143 97 0 189-87 205-195 16-100-55-274-178-436-76-102-251-289-270-289-8 0-59 46-114 103-219 224-331 405-347 565-8 73 21 146 77 196 103 94 263 52 311-80 17-49 28-42 28 19 0 71-25 170-60 241-17 33-30 62-30 65s56 6 125 6 125-3 125-6zm1035-1211c-39-86-55-156-55-239 0-61 12-72 25-22 10 44 54 93 99 114 117 53 243-9 283-140 34-112-37-297-189-493-83-105-236-268-252-268-17 0-176 164-253 261-215 272-261 470-139 602 58 62 141 73 227 30 46-24 58-36 83-85 15-32 32-55 36-53 24 15-17 211-61 298-16 32-29 60-29 62 0 3 58 5 129 5h130l-34-72zm-2096 20c-12-23-30-67-41-98-22-62-41-211-28-223 4-5 19 16 33 46 32 71 85 109 162 115 99 8 183-56 216-166 24-82-29-252-123-390-81-119-298-362-323-362-19 0-219 212-291 308-118 160-184 322-170 415 19 118 125 208 227 194 22-3 60-17 85-32 36-21 52-39 73-84l26-56 3 55c5 73-13 149-54 239-19 41-34 75-34 77s59 4 130 4h130l-21-42zm3071-481c0-1-9-28-20-60-11-31-20-73-20-93v-37l23 34c33 49 70 64 119 50 99-30 104-151 10-288-50-74-150-183-166-183-7 0-44 33-83 73-144 148-194 271-144 353 39 64 134 60 180-6l24-35-6 51c-5 43-19 87-45 137-2 4 26 7 62 7s66-1 66-3zm-4090-22c0-1-9-22-19-46-23-53-38-139-23-139 5 0 13 11 16 25 13 53 120 72 166 30 74-67 34-196-111-363-87-99-88-99-141-48-112 107-185 221-194 304-10 86 53 146 133 126 26-6 44-19 58-41 11-18 23-32 27-33 11 0-4 84-23 129-11 24-19 47-19 50 0 4 29 8 65 8s65-1 65-2zm4088-676c60-12 107-46 144-101 55-81 31-207-51-266l-39-28 35-28c45-36 73-83 73-123 0-191-307-250-411-79-40 65-16 158 52 207l30 21-42 36c-137 117-83 319 96 363 44 10 59 10 113-2zm-4027-46c105-54 148-168 99-267-20-42-63-89-90-98-7-2 11-26 39-54 49-49 51-54 51-105 0-106-72-171-197-177-64-4-80-1-128 23-104 50-135 156-70 241 15 19 38 40 51 46 23 11 23 11-26 55-56 51-83 116-73 180 23 150 198 229 344 156z"/><path d="M4411 7483c-147-73-41-276 121-232 84 22 127 105 91 175-35 68-135 95-212 57zM4408 7170c-102-54-115-175-28-254 74-66 183-54 246 29 99 130-68 304-218 225zM355 7461c-50-22-75-58-75-106 0-52 24-92 70-115 50-25 93-25 145 0 100 48 101 171 2 219-53 26-90 26-142 2zM367 7156c-71-26-107-76-107-149 0-80 64-146 148-155 165-15 249 194 113 283-47 31-105 39-154 21zM4531 1050c-49-12-83-40-109-92-18-35-22-55-16-82 15-83 83-140 165-138 151 3 223 168 117 269-27 25-96 56-118 52-3-1-20-5-39-9zM4504 666c-67-30-97-102-67-163 64-132 283-97 283 45 0 97-118 161-216 118zM415 1016c-37-16-82-68-91-102-18-71 20-150 86-184 152-77 308 91 216 232-38 59-141 85-211 54zM435 645c-124-44-128-190-6-241 43-18 101-12 147 17 38 23 68 89 59 129-8 37-62 86-110 99s-41 13-90-4z"/></g></svg>