<svg version="1" xmlns="http://www.w3.org/2000/svg" width="500" height="792" viewBox="0 0 5000 7920"><path d="M0 3960V0h5000v7920H0V3960z"/><g fill="#fff"><path d="M0 3960V0h5000v7920H0V3960zm4627 3653c68-31 113-120 113-222 0-137-57-226-160-251-60-14-110-2-170 41l-43 31 6-68c12-124 74-204 159-204 56 0 96 27 121 83 17 36 27 47 44 47 30 0 31-38 2-97-56-115-233-126-325-20-45 50-64 118-73 257-9 141 2 248 30 307 49 101 186 146 296 96zm-4088-17c40-21 86-77 106-130 24-62 17-175-15-240-54-112-186-141-296-65l-44 30v-40c0-22 5-64 11-93 20-92 105-154 185-134 37 10 83 58 90 95 6 26 11 31 35 31 23 0 29-4 29-22-1-40-37-104-74-133-104-79-282-12-324 122-24 74-36 273-24 363 15 103 43 155 106 198 43 28 56 32 118 32 41 0 80-6 97-14zm3117-788c219-225 344-438 344-582 0-90-79-194-163-217-90-24-213 45-232 131-4 16-11 30-17 30-32 0 20-255 67-326 8-13 15-27 15-31s-58-8-129-8h-129l23 45c12 25 30 69 39 98 20 60 37 203 26 215-4 5-19-16-33-46-28-62-81-101-153-113-106-17-213 76-230 198-13 95 61 271 180 428 73 95 255 290 272 290 6 0 60-51 120-112zm-2133 19c209-211 333-403 358-555 14-81 3-129-41-190-92-128-289-102-342 44-21 57-31 39-25-43 5-81 22-142 63-229 13-28 24-53 24-55s-57-3-127-2c-71 0-127 4-125 7 26 51 54 123 66 171 20 81 25 177 9 182-7 3-13-3-13-12 0-33-42-91-87-119-64-41-143-42-202-3-52 34-97 103-105 161-16 102 52 266 180 436 88 116 250 290 271 290 8 0 52-37 96-83zm3073-109c127-138 178-241 155-318-6-21-23-48-38-59-48-39-146-17-159 34-3 14-10 25-15 25-13 0 0-75 22-135 11-27 19-51 19-52 0-2-29-3-65-3s-65 2-65 5c0 4 7 20 16 37 18 35 35 136 23 143-4 3-10-6-13-20-14-57-115-73-166-27-57 51-50 132 19 239 45 70 167 203 186 203 7 0 43-33 81-72zm-4106-4c119-128 170-216 170-297 0-42-5-54-34-83-25-25-43-34-68-34-38 0-98 33-98 54 0 8-5 18-12 22-17 11-3-78 21-132l20-44H353l19 38c10 22 21 63 24 93 5 53 5 54-11 27-19-34-63-58-106-58-22 0-41 10-65 34-29 29-34 41-34 83 1 81 52 172 168 294 35 38 68 69 72 69s36-30 70-66zm3181-1462c289-300 393-545 298-699-45-73-135-113-210-93-68 19-115 56-138 111-12 27-25 48-29 45-12-7 4-149 24-208 9-29 27-74 40-100l24-47-128-3c-70-2-128-2-130-1-2 0 6 20 19 44 39 77 60 152 66 237 6 89-6 110-26 43-14-48-74-103-132-120-79-24-154 6-215 87-85 110-40 291 129 517 79 106 264 305 283 305 7 0 63-53 125-118zm-2112-7c137-142 218-251 278-374 38-78 47-106 51-166 5-88-8-134-57-188-66-73-155-88-242-40-41 22-54 37-79 87-37 77-47 58-30-56 12-84 45-186 75-232l17-26h-131c-72 0-131 2-131 4s13 30 29 62c45 93 81 294 52 294-4 0-16-20-25-45-22-55-62-90-127-109-77-23-137-6-196 56-120 125-65 339 156 608 68 82 223 240 236 240 7 0 63-52 124-115zm1061-651c0-1-13-30-29-65s-36-96-45-136c-27-123-17-217 14-123 16 49 51 83 114 111 88 39 177 9 239-79 30-45 32-52 32-137-1-76-5-100-29-155-56-129-202-325-349-469l-65-63-31 23c-17 13-67 62-111 109-218 234-320 414-320 562 0 146 126 252 253 214 68-20 112-58 132-111 26-68 39-57 31 26-9 85-39 188-72 245-13 23-22 43-19 45 3 3 255 6 255 3zm1056-779c-54-118-86-233-86-312 0-55 13-55 34 2 20 52 58 86 121 110 84 33 176-2 232-86 35-53 43-150 19-230-38-131-156-305-322-477l-112-117-38 31c-48 38-193 199-263 290-79 104-151 256-158 331-7 80 1 121 37 174 91 139 300 117 350-37 6-19 16-34 21-34 28 0-9 196-55 293-18 37-31 68-30 70 1 1 59 2 128 2 81 0 125-4 122-10zm-2109-4c-24-43-61-136-72-185-17-70-20-176-5-176 6 0 10 7 10 17 0 9 11 35 25 59 35 59 114 99 186 92 101-10 189-112 189-219 0-114-83-287-220-453-73-90-224-246-238-246-16 0-217 214-284 305-121 160-189 324-174 418 19 120 126 209 230 193 71-12 125-51 153-112 13-30 29-52 34-49 23 15-17 209-62 298-16 32-29 59-29 60s59 3 130 3c72 0 129-2 127-5zm3-1554c0-4-7-22-16-39-46-89-89-297-65-321 7-7 12-5 16 9 16 51 51 106 79 123 83 52 169 48 239-10 123-102 108-276-46-506-68-102-174-229-272-323l-57-55-106 111c-126 129-204 229-267 339-101 178-111 308-29 404 42 49 89 71 151 71 88-1 156-47 185-126 17-49 28-42 28 19 0 70-24 167-60 243-17 34-30 63-30 65s56 4 125 4 125-4 125-8zm2088-54c-16-36-36-96-44-132-25-118-13-214 16-127 16 49 46 83 93 108 140 71 297-36 297-203 0-107-55-233-170-388-71-96-219-262-259-290l-28-21-101 103c-239 243-352 435-352 596 0 173 149 269 299 194 48-23 57-33 81-87 24-51 30-58 36-41 14 35-21 200-59 280l-36 75h258l-31-67zm982-337c0-2-7-17-15-32-19-37-39-134-30-142 4-4 10-2 12 5 11 32 47 63 79 69 70 13 134-44 134-118 0-51-60-163-133-249-96-112-100-114-131-94-80 53-226 270-226 337s53 128 112 128c32 0 85-34 93-59 3-12 10-21 14-21 12 0-5 104-23 138-9 17-16 33-16 37 0 3 29 5 65 5s65-2 65-4zm-4110-16c0-3-9-29-20-58s-20-69-20-90v-37l20 33c38 62 114 70 166 18 29-29 34-41 34-82 0-83-72-204-189-319l-51-49-56 54c-99 98-170 209-189 293-8 38 27 110 61 125 54 25 115 7 142-42l17-31 3 26c3 23-18 95-42 149-5 12 5 15 59 15 36 0 65-2 65-5zm4075-651c58-15 117-67 143-126 48-112 56-392 13-488-28-63-45-82-103-111-89-45-207-24-261 48-75 98-75 270 0 359 71 84 203 90 284 13 15-14 29-22 32-17 8 14-11 138-27 176-27 66-108 109-172 93-37-10-83-58-90-95-6-26-11-31-37-31-29 0-29 1-24 36 9 55 52 113 100 135 48 21 81 23 142 8zm-4038-45c88-55 122-163 123-386 0-178-23-243-109-303-39-27-50-30-120-30-67 0-83 4-117 26-23 16-51 48-69 80-26 46-30 65-30 129 0 129 37 204 120 241 74 34 142 23 223-38 28-21 32-22 32-6 0 47-23 149-41 184-22 44-80 79-131 79-53 0-111-49-123-102-5-23-12-28-36-28-18 0-29 5-29 14 0 23 22 80 43 110 50 71 174 86 264 30z"/><path d="M4429 7539c-32-34-59-113-59-168 1-81 69-166 142-177 46-7 117 31 143 76 15 27 20 53 20 110 0 101-8 125-57 160-35 25-50 30-100 30-54 0-63-3-89-31zM380 7543c-78-40-116-195-68-278 36-62 82-88 146-83 57 5 91 28 120 83 24 44 22 171-4 214-39 66-131 97-194 64zM4494 876c-67-29-101-122-84-228 14-93 67-138 158-138 89 0 141 70 142 189 0 138-105 225-216 177zM390 851c-52-28-80-88-80-175 0-84 19-130 69-163 49-33 129-32 170 2 67 57 87 200 37 275-50 76-125 100-196 61z"/></g></svg>