<svg xmlns="http://www.w3.org/2000/svg" width="500" height="792"><style>.shp0{fill:#fff}.shp1{fill:#db0001}.shp2{fill:#000001}.shp3{fill:#ffd001}.shp4{fill:#0044ba}</style><path class="shp0" d="M0 396v396h500V0H0"/><path class="shp1" d="M39 49c0 12.3-.4 19.8-1.1 21.3a9.4 9.4 0 0 1-2.3 3c-.6.3-2.5.7-4.1.7-1.6 0-3.8-.7-4.7-1.7-.9-1-2-3-2.5-4.6-.6-2.3-1.3-2.8-3.3-2.5-2.1.3-2.5.8-2.5 3.8 0 2 .9 4.7 1.8 6.3a13.8 13.8 0 0 0 13.4 5.3c2.7-.4 5.5-1.7 7.3-3.3 1.9-1.7 3.5-4.4 4-6.8.5-2.2 1-12.2 1-22.3V30h-7M25.5 91.5c-2.2.8-5.5 3-7.4 4.8a29 29 0 0 0-5.2 7.2c-1 2.2-2.1 7-2.5 10.5-.5 5.2-.2 7.6 1.4 12a24 24 0 0 0 15.5 14.8c2.6.6 6 1.2 7.5 1.2s5-.8 7.7-1.7c2.8-1 6.6-3.3 8.6-5.3s4.3-5.7 5.3-9c1.4-4 1.8-7.3 1.4-12.5-.3-4.3-1.3-8.5-2.5-11-1.2-2.2-3.2-5-4.4-6.2a25.3 25.3 0 0 0-25.4-4.8z"/><path class="shp0" d="M28.5 97.1c-1.6.5-4 2-5.4 3.2-1.2 1.2-3 3.5-3.8 5.2-1 1.9-1.6 5.8-1.6 10.5 0 5.2.4 8.5 1.6 10.8 1 1.7 3 4.1 4.4 5.3 1.6 1 4.4 2.5 6.3 3 2 .7 5.2.9 7.3.5 2.2-.3 5.3-2 7.5-4a17 17 0 0 0 5.1-8.2c.8-2.9 1.2-7.2 1-10.4-.3-3-1.5-7-2.6-9-1.2-2-3.9-4.4-6.4-5.7a19.6 19.6 0 0 0-7.4-2.2c-1.6 0-4.4.5-6 1z"/><path class="shp1" d="M250 137.6c-3 .8-8.3 3-11.8 5a122 122 0 0 0-14 9.7c-4.2 3.4-11.4 9.8-16 14.2a162.7 162.7 0 0 0-22.8 28A166.3 166.3 0 0 0 172 224c-1.8 5.2-3.5 9.7-3.7 10-.2.3-1.8-1-3.6-2.6a49 49 0 0 0-32.2-12.4c-4.6 0-8.4.7-11 1.9-2.2 1-6.4 4.2-9.4 7.2s-7 7.7-8.7 10.4c-1.9 2.8-5 8.8-7 13.5a67 67 0 0 0-5 19.5 108 108 0 0 0-1 18c.3 3.9 1.7 11 3.1 16a280.2 280.2 0 0 0 13.6 35.8c1 2 1.8 4.1 1.7 4.7-.2.5-2.3 2-4.8 3.2a20.5 20.5 0 0 0-6.8 5.8c-1.2 2-2.2 5-2.2 6.8a17 17 0 0 0 6.5 12.6 15.3 15.3 0 0 0 14.5 1.3c2-1 4.5-3 5.8-4.7 1.2-1.6 2.5-4.7 2.8-6.8.4-2 .1-5.2-.6-7.2-1.1-3.2-1-4 1.4-8.5 1.4-2.8 3.1-7.5 3.8-10.5.9-4.2.9-7.2 0-13-.7-4.1-1.2-13.8-1.2-21.5 0-9.7.4-15.6 1.5-19 .8-2.8 2.7-6.3 4.3-7.8 2.2-2.2 3.6-2.7 7.2-2.7 3.3 0 5.5.8 8 2.7 2 1.4 5 4 6.6 5.7 2.6 2.5 3.3 2.8 4 1.6.5-1-.6-2.6-3.7-5.3a55 55 0 0 0-8.2-5.7c-2-1.1-5.2-2-7-2-1.7 0-4.5.9-6.2 2a18 18 0 0 0-4.6 4.1c-.9 1.3-2.1 4.6-2.8 7.4-.7 2.8-1.2 8.6-1.2 13a28 28 0 0 1-.4 7.5c-.2-.3-.8-2.5-1.4-5l-4-19.5c-1.6-8.3-3.3-18-3.6-21.5a50 50 0 0 1 4-24.5c1.3-2.8 2.2-5.2 2-5.5-.3-.3-1.4.6-2.5 2s-2 3.3-2 4.3-.3 1.9-.8 2a49.8 49.8 0 0 0-2.8 20.6c.4 4.2 1.1 10.3 1.7 13.6.5 3.3 1.6 7.6 2.4 9.5.8 2 1.2 3.7 1 4-.4.3-.1 2.3.4 4.5s2 9.2 3.1 15.5a1001 1001 0 0 0 3.7 19c.8 4.1 1.3 9.3 1 11.5a46 46 0 0 1-7.5 16.3l-4.4-1.8c-3.1-1.3-4.2-2.6-7-8.5a125 125 0 0 1-3.3-7.5c0-.3-1.5-3.9-3.2-8a209 209 0 0 1-9.3-28 82.5 82.5 0 0 1 8.8-53.5l3.5-6c.7-1 3.7-4.5 6.7-7.7 3.2-3.4 7.6-7 10.5-8.3 2.8-1.3 6.1-2.3 7.5-2.3 1.4 0 6 1 10.3 2a70 70 0 0 1 9.4 2.7l7.3 3.7c3 1.5 7 4.3 9 6.2 3.5 3.4 3.5 3.4 4 1a171 171 0 0 1 20.7-46.8l6.4-8a168.2 168.2 0 0 1 25-24.6 77.6 77.6 0 0 1 23-15c3.5-1.4 8.9-2.9 11.9-3.2 3.9-.3 7.3 0 11.4 1.4 4.5 1.5 6.8 3 9.9 6.4 2.1 2.5 4.6 6 5.3 8 .8 2 1.6 6 1.7 9 .1 3-.3 5.7-.8 6-.6.3-1.1-.8-1.3-2.5-.2-1.7-1-5.3-1.7-8a24 24 0 0 0-4.5-8.3 29.4 29.4 0 0 0-7-5.2c-3-1.4-6.1-2-11.8-2a26.7 26.7 0 0 0-18.8 5.7c-1.1 1-3 3.2-4.1 4.8-1.2 1.7-3.1 6-4.4 9.5-2 5.7-2.3 8.4-2.3 21.5 0 8.3.4 17 .8 19.5a361.7 361.7 0 0 1 2 12.3c.3 2 1.3 5.3 2.1 7.2.8 2 1.3 4 1 4.5-.3.6 0 1.4.8 1.9.6.4 5.3 1.3 10.2 2 5 .6 13.5 2.3 19 4 5.5 1.5 14 4.7 19 7a85.8 85.8 0 0 1 23.4 17l2.5 2.6a72.5 72.5 0 0 1 9.6-15.7c2-2 4.2-3.8 5-3.8 1 0 1.8 1.4 2.3 4.2a266.3 266.3 0 0 0 10 36.8c1.9 5.2 4.9 12.4 6.7 16a170 170 0 0 0 7.6 13.3l4.4 6.7c-4.2 6.3-5 8.9-5 11.8 0 2.3.7 5.7 1.6 7.4.8 1.8 3 4.3 5 5.6 2.1 1.4 5.1 2.3 8.1 2.4 2.8 0 6.2-.6 8-1.5 1.8-1 4.3-3.2 5.5-5 1.2-1.7 2.4-5 2.6-7.2.3-2.8-.2-5.3-1.7-8.3a13.2 13.2 0 0 0-5.6-6c-3.2-1.5-3.5-2.1-3.5-5.7 0-2.2.5-9.6 1-16.5.6-6.9 1.3-21 1.5-31.5.3-14 0-21.2-1-27.3a75.8 75.8 0 0 0-4.6-15 49.8 49.8 0 0 0-34-29.2c-3-.7-7.5-1-10.4-.6-2.8.4-7.8 2-11.3 3.6a52.2 52.2 0 0 0-12.6 9.3c-3.5 3.4-7.4 7.9-8.7 10-1.3 2-2.8 3.4-3.2 3-.4-.5-.8-1.7-.7-2.8 0-1.1-1.1-4.4-2.5-7.3a88.1 88.1 0 0 0-14.3-17.4 209.4 209.4 0 0 1-15-17 28 28 0 0 1-3.8-8c-.4-2.2-.1-4.2.9-5.8.8-1.4 3.2-3.3 5.3-4.4 3.2-1.5 4.5-1.7 7.4-.8 2 .6 6.3 3.6 9.8 6.6 3.4 3.1 6.2 6 6.2 6.3 0 .5-1.5 1.6-3.5 2.6s-4.4 3.2-5.6 5c-1.5 2.4-2 4.4-1.7 8.2.2 3 1.2 6.1 2.3 7.7a20 20 0 0 0 5 4.4c1.6 1 4.8 1.8 7 1.8s5.5-.9 7.4-2c1.9-1 4.3-3.2 5.5-4.7 1.5-2 2.1-4.3 2.1-7.7 0-3.3-.6-5.7-2-7.7a23.8 23.8 0 0 0-5.2-4.8c-2.7-1.8-3.1-2.7-3.5-8-.3-3.3-1.5-8.3-2.7-11-1.2-2.8-4-7-6.4-9.3-2.8-2.9-5.8-4.8-9.2-5.8a38 38 0 0 0-9.5-1.3c-2.5 0-7 .7-10 1.5z"/><path class="shp2" d="M252.5 138.7a88 88 0 0 0-18.5 8.6 236.9 236.9 0 0 0-25.6 21.2 168.2 168.2 0 0 0-20.3 24.6 171 171 0 0 0-18 42.8c-.6 2.3-.6 2.3-4.1-1.1-2-2-6-4.7-9-6.2a672 672 0 0 1-7.3-3.7 70 70 0 0 0-9.4-2.8c-4.3-1-9-1.8-10.3-1.9-1.4 0-4.8 1-7.5 2.3a41.8 41.8 0 0 0-10.5 8.3c-3 3.2-6 6.7-6.7 7.8l-3.6 5.9a73.8 73.8 0 0 0-8.2 22A82.5 82.5 0 0 0 93 298c.6 2.5 2.3 8.1 3.6 12.5a209 209 0 0 0 9 23.5c0 .3 1.4 3.6 3.2 7.5 2.8 5.9 3.9 7.2 7 8.5l4.5 1.8a46 46 0 0 0 7.4-16.3c.3-2.2-.2-7.4-1-11.5a1001 1001 0 0 1-3.7-19 377 377 0 0 0-3.1-15.5c-.5-2.2-.8-4.2-.5-4.5.3-.3-.1-2-.9-4s-1.9-6.2-2.4-9.5c-.6-3.3-1.3-9.4-1.7-13.5-.4-4.8-.1-9.8.8-13.9.7-3.5 1.6-6.5 2-6.7.5-.2.8-1.2.8-2.2 0-1 .8-2.7 2-4 1-1.2 2.5-2 3-1.7.5.3 1.6-.2 2.3-1.1a14 14 0 0 1 4-3c1.5-.8 4.8-1.4 7.4-1.4 2.7 0 6.4.5 8.3 1.1 2 .7 6 2.8 9 4.8s9.1 7.1 13.6 11.5c4.4 4.5 8.8 9.3 9.7 10.8 1.7 2.8 1.6 2.9-1.8 6.8a114.7 114.7 0 0 0-13 20c-.4 1.4-1.4 3.2-2.1 4-1.3 1.3-1 4.2 2.1 21 3.4 18.5 3.6 19.8 2.2 25-1 3.8-1.8 5.4-2.8 5.1l-6.4-1.4a16.3 16.3 0 0 0-15.8 4.4c-2.1 2.3-2.7 3.8-2.7 7.6 0 2.7.6 6.4 1.4 8.3.8 2 2.8 5.3 4.4 7.5a99 99 0 0 0 9.1 10c5 4.7 7.3 8.1 11.2 16a65 65 0 0 0 7.9 13c2.7 2.7 3.4 3 7 2.3 2.8-.6 4.3-.4 4.8.4a520.4 520.4 0 0 1 6.6 46.2c.1 3-.3 3.2-12.4 8a243 243 0 0 1-24 7.8c-8.2 2-15 3-24 3.5a71 71 0 0 1-20.3-1L101 465c0-6.6-.8-10-1.8-12-1-1.8-2.8-4.2-4.2-5.2-1.4-1-4.5-2.2-7-2.5-3-.4-5.5 0-7.5 1-1.7.8-4 2.6-5.2 3.8A19.7 19.7 0 0 0 72 457c-1.1 4-1 5 1 9.3 1.4 3.1 3.2 5.3 5.3 6.4 2.1 1 5.3 1.6 8.8 1.5 5-.2 5.8 0 8.5 2.9a80 80 0 0 0 32.3 18.8 94.3 94.3 0 0 0 33.5 4.2l12.7-.1a203.7 203.7 0 0 0-12.4 39c-.8 4.7-2 12.9-2.5 18.3-.6 5.3-1 13-1 17v7.2c-5.5 2-8 3.9-9.1 5.5a15 15 0 0 0-.4 14.7c1 1.8 3.5 4 5.4 4.9 2.4 1.1 4.8 1.4 7.5 1 2.2-.3 5-1.6 6.3-2.9a23 23 0 0 0 3.8-5c.8-1.5 1.4-4.3 1.4-6.2 0-3 .4-3.7 3.5-5 2-.8 6-3.9 9-6.8 4-3.7 8.6-10 16-22.2l19-32c8.2-14 9-14.8 9.8-12.5l5.7 12.5c2.5 5.5 6.8 13.4 9.4 17.5 2.7 4.1 6.9 10 9.4 13s7.1 7.9 10.1 10.8c3.1 2.8 8 6.9 10.9 9 5 3.6 5.1 3.8 3.7 6-.8 1.2-1.5 4.1-1.5 6.5 0 2.7.6 5.2 2 7 1.2 1.6 3.6 3 6 3.7 2.9.7 5 .7 7.6-.3 2-.6 4.6-2.3 5.6-3.7 1.2-1.5 2-4.1 2-6.5 0-2.2-.7-5.5-1.6-7.3a9 9 0 0 0-5.1-4.5l-3.5-1.2c1.2-12.4 1.4-24.5 1.4-35a189.8 189.8 0 0 0-3.1-36.2c.1-.1 3.8 2.3 8.2 5.4a490.6 490.6 0 0 0 39 24.2c4.4 2.4 12.3 6 17.5 8.2 5.2 2.2 12.2 4.5 15.6 5.2l6 1.2c0 7 .6 9.3 2 11.2a14.5 14.5 0 0 0 12.9 4.8c1.6-.3 4.2-1.5 5.8-2.6 1.7-1.2 3.1-3.5 3.8-6.1.8-3 .8-5.3 0-7.8-.5-2-2.2-4.6-3.6-6-2.2-2-3.7-2.5-8-2.5h-5.2a465.8 465.8 0 0 0-25.4-33.5 763.3 763.3 0 0 0-15.1-16.8 54 54 0 0 1-6.6-7.6c.2-.3 4.8-1.4 10.3-2.5 5.5-1.1 13.1-3.1 17-4.5a112.3 112.3 0 0 0 32.9-17.6c5.5-4.3 6.2-4.5 12.2-4.5 5.6 0 6.6-.3 9.4-3 1.7-1.6 3.6-4.6 4.2-6.5.7-2.5.7-4.5 0-7-.6-2-2.4-4.7-4.1-6.3a16 16 0 0 0-6.9-3.3c-2-.4-5.4-.1-7.4.5-2.6.7-4.6 2.3-6.3 4.9-1.4 2-2.5 4.6-2.5 5.7 0 1.5-1.2 2.4-5.2 3.7-3 1-9.4 2.5-14.3 3.5-7.2 1.4-13.8 1.8-33 1.8-13.2 0-28-.6-33-1.3-5-.7-11.2-1.8-13.9-2.5l-4.9-1.2c1-9.3 1.8-17.9 2.4-25 .5-7.1 1.5-14.8 2-17a22 22 0 0 1 2-5.3c.6-.8 1.5-1 2.9-.2 1.1.6 2.9 1 4 1s3.2-1.5 4.8-3.3c1.5-1.7 4.3-6.8 6.1-11.2 2-4.4 5.6-11.2 8-15.1l8.9-13.5c2.3-3.5 4.6-8.4 5.1-10.9.6-2.6.6-6.4.1-9-.5-2.9-1.8-5.3-3.4-6.8-2-1.8-3.3-2-6.4-1.6-2 .3-6 2-9 3.5a95.7 95.7 0 0 1-5.4 3c-.2 0-.6-3.4-1-7.3-.3-4-1.6-10.2-2.9-13.8-2-5.8-2.1-7.7-1.5-17.5l1.4-21.1.7-10.2c-6.2-6-10-9.3-12.5-11.4-2.5-2-8.6-5.6-13.5-7.9-5-2.3-13.5-5.5-19-7-5.5-1.7-14-3.4-19-4-5-.7-9.6-1.6-10.3-2-.6-.5-1-1.3-.7-1.9.3-.6-.2-2.6-1-4.5-.8-2-1.8-5.2-2-7.3a417.2 417.2 0 0 0-2-12.2c-.5-2.5-.9-11.3-.9-19.5 0-13 .3-15.8 2.3-21.5 1.3-3.6 3.2-7.8 4.4-9.5 1.1-1.7 3-3.8 4.1-4.8a26.7 26.7 0 0 1 18.8-5.8c5.7 0 8.9.7 11.8 2.1 2.2 1.1 5.4 3.5 7 5.3a24 24 0 0 1 4.5 8.2c.8 2.8 1.5 6.3 1.7 8 .2 1.7.8 2.8 1.3 2.5.6-.3 1-3 .8-6-.1-3-.9-7-1.7-9-.7-2-3.2-5.5-5.4-8-2.8-3.3-5.4-5-9.3-6.3a35 35 0 0 0-16.4-1z"/><path class="shp0" d="M253 146c-2.5.3-6.2 1.6-8.3 2.8-3 1.8-3.5 2.4-2.4 3.6.6.8 1.5 1.2 2 1 .4-.2 1.8.3 3.2 1.1 2.3 1.4 2.5 1.3 3-.3.4-1.3 1.7-1.8 6.2-2 3.2-.1 7.2.3 8.8.9l5 2.1c1.1.6 2.6.8 3.3.4.6-.3 1.2-1.2 1.2-1.8 0-.7-1.4-2.7-3-4.3-2.4-2.3-4-3-7-3-2 0-3.6-.3-3.4-.8.2-.4-.6-.6-1.9-.6-1.2 0-4.2.5-6.7.8z"/><path class="shp1" d="M17.6 148.2c-.2.7-.4 12.1-.3 25.3l.2 24h6c.5-17 .5-17 4.5-21 2.5-2.5 4.3-3.6 4.8-3l9 12.8c7.1 10.1 8.6 11.7 11 11.7 1.5 0 3.3-.4 4-.8.8-.5-1.8-4.8-8.8-14.4-5.5-7.6-10-14.3-10-14.8 0-.6 4.3-5.2 9.5-10.3a92 92 0 0 0 9.5-10c0-.4-1.6-.7-3.5-.7-3 0-5 1.3-15.8 11.5a69.2 69.2 0 0 1-13 10.8c-.3-.5-.8-5.5-1-11.3l-.2-10.5c-4.3-.5-5.6 0-5.9.7z"/><path class="shp0" d="M256.4 156.6c-1.7.9-3.8 2.7-4.7 4.1a8.5 8.5 0 0 0-1.2 6c.3 1.8 1.8 5.2 3.4 7.6a135.2 135.2 0 0 0 19.1 20.2c.3-.3-.4-1.4-1.5-2.6-1.3-1.4-2.1-3.8-2.3-7.3-.2-3.8.2-6 1.7-8.3 1.2-1.8 3.7-4 5.6-5 2-1 3.5-2.1 3.5-2.6 0-.4-2.6-3-5.8-5.9a45 45 0 0 0-9-6.5c-1.7-.7-3.8-1.3-4.4-1.3-.7 0-2.7.8-4.4 1.6z"/><path class="shp3" d="M279.2 174.8c-1.9 1-4 3.2-4.8 5.2a9.6 9.6 0 0 0-.9 6 15 15 0 0 0 3.6 5.3c2.1 2 4 2.7 6.6 2.7h3.8c-6.6-6.2-8.3-8.4-8-9 .3-.6 1.4-1 2.5-1s3.8 1.6 6 3.5l4 3.5c2.3-3.5 3-5.5 3-6.8a15 15 0 0 0-1.5-5.2c-.8-1.7-2.5-3.5-3.8-4.2-1.2-.6-3.3-1.3-4.7-1.4-1.4-.2-4 .4-5.8 1.4z"/><path class="shp2" d="M320.3 195.7c-1.3.2-2.3.8-2.3 1.3 0 .6.7 1.2 1.5 1.5.8.3 2.8 3.3 4.4 6.8 1.7 3.4 3.7 9.6 4.6 13.7.9 4.1 2 10.7 2.5 14.5.5 3.8 1.5 10.8 2 15.5.7 4.7 2.3 13.2 3.6 19 1.4 5.8 3.6 13.6 5 17.5 1.5 3.9 4.8 11.3 7.3 16.5a58 58 0 0 0 8.3 13.8c2 3.3 2.2 3.5 2.9 1.7a345.1 345.1 0 0 0 8-41.5 46 46 0 0 1 1.7-9.2c.4-.4.6-5.3.5-11 0-5.7-.5-12.8-.8-15.8a63.8 63.8 0 0 0-8-22.5 49.1 49.1 0 0 0-28-20.9c-2.8-.8-6.4-1.4-8-1.3-1.6 0-4 .2-5.3.4z"/><path class="shp0" d="M308.5 201a73.7 73.7 0 0 0-18.9 21c-.4.8.8-.3 2.6-2.5s5.8-6.6 8.8-9.9c3-3.2 6.9-6.5 8.5-7.2 1.7-.7 4.2-1.1 5.5-.9 1.4.3 3.3 1.5 4.2 2.7.9 1.3 2.1 3.9 2.7 5.8.6 2 2.2 10 3.6 18s3.4 18.8 4.5 24c1 5.2 2.6 11.3 3.5 13.5.9 2.2 1.3 2.9 1 1.5l-2.5-15.5c-1-7.2-2.2-15.5-2.5-18.5a131.2 131.2 0 0 0-5.5-23.5 38 38 0 0 0-4-7.8c-1.5-2-2.9-2.7-5.3-2.7-1.7 0-4.6 1-6.2 2z"/><path class="shp3" d="M307.9 206.3c-2 1.3-6 5.2-8.6 8.8-2.8 3.5-6.3 8.4-8 10.9a44 44 0 0 1-4.7 6c-1 .8-1.7 3-1.6 4.8 0 1.7.7 3.8 1.6 4.4l3.5 3c1 1 2.2 1.8 2.6 1.8.5 0 3.3 2.2 6.3 5 3 2.7 5.8 5 6.3 5 .4 0 .7.7.7 1.5s.3 1.5.8 1.5c.4 0 1.7-1.9 2.9-4.2a45.4 45.4 0 0 1 12.2-13.8 5 5 0 0 0 1.8-.8c1-.5.8-3.4-.7-12.7-1.1-6.6-2.3-12.9-2.6-14-.3-1.1-1.3-3.7-2.2-5.8-1.3-3-2.3-3.8-4.2-3.7-1.4 0-4.1 1-6.1 2.3z"/><path class="shp1" d="M16.8 226.4c-.2 10.7-.2 22 0 25l.2 5.6h37c0-4.7-.5-6-1.3-6l-14.7-.3-13.5-.2L24 234h27v-6H24v-15h29v-6H17"/><path class="shp4" d="M128 225.9c-1.8 1-4.3 3.1-5.5 4.7-1.1 1.6-3 5.4-4 8.4-1.4 4-2 8-1.9 15.5 0 7.2 1 14.3 3.3 25l4 18.5c.7 3.4.8 3.3 1.5-2.5a135 135 0 0 1 1.8-11c.6-2.8 1.8-6 2.7-7.4a18 18 0 0 1 4.6-4.2c1.7-1 4.5-1.8 6.3-1.9 1.7 0 4.7.7 6.4 1.6 1.8 1 5.7 3.6 8.6 6l5.2 4.4c1.6-3.9 2-5.2 2-5.5a114.7 114.7 0 0 1 12.5-18.5c3.4-4 3.5-4 1.8-6.8a109.8 109.8 0 0 0-23.3-22.4c-3-1.9-7-4-9-4.7-2-.6-5.8-1.1-8.5-1.1-3 0-6.4.8-8.4 1.9z"/><path fill-rule="evenodd" class="shp1" d="M236 234.1c3 0 9.6.6 14.5 1.4a145.1 145.1 0 0 1 32 10.3c5.1 2.5 5.4 2.8 4.1 4.7a8.6 8.6 0 0 1-4.5 2.8c-1.7.4-4.5 2.2-6.3 4-3 3-3.2 3.4-2 15.2l-6.1-1.9c-3.4-1-6.3-2-6.4-2.2-.2-.2 1.3-2.4 3.2-4.9 3-3.9 3.4-5 3-8.3-.4-2-2-6-3.8-9-1.8-2.9-4.1-5.5-5.2-5.8-1.5-.4-2.7.3-4.5 2.7a181 181 0 0 0-5.3 7.3 15.7 15.7 0 0 0-2.7 6.3c0 1.3.7 4 1.5 6 .9 2.1 1.5 4 1.5 4 0 .2-3.4.3-15 .3l2.4-4.8c1.4-2.6 2.8-7.2 3.2-10.2.7-5 .5-5.7-2-8.3-2.1-2.2-3.3-2.6-6.3-2.3l-9.8 1.5c-4.3.7-6.5 1.7-7.8 3.3a8 8 0 0 0-1.8 3.8 40.8 40.8 0 0 0 8 18.5l-5.1 1.6c-3 .8-6.3 2-7.6 2.7-2.2 1.2-2.2 1.1.3-2.6 1.4-2 2.6-4.7 2.5-6 0-1.2-1.2-3-2.8-4.2-1.5-1.1-3.7-2-5-2-1.2 0-4.3-1.2-7-2.6-4.3-2.5-5-2.5-8-1.3a6.7 6.7 0 0 0-4.3 4.9c-.6 2-.8 4-.6 4.5.3.6-.3 2.1-1.4 3.5-1 1.4-1.9 3.7-1.9 5.3 0 1.6 1 3.7 2.5 5.2a8 8 0 0 0 6 2.5c2 0 3.7.6 4 1.3.2.6-1.9 3.4-4.6 6.2a72.4 72.4 0 0 0-8.2 10 25.4 25.4 0 0 1-4 5.3c-.3 0-.7.8-.7 1.4 0 .7-.6 2.7-2.8 7.3l-.6-4L165 280l2.7-4.8a88.3 88.3 0 0 1 30.3-30.5 84.2 84.2 0 0 1 27.5-9.7c2.8-.4 7.5-.8 10.5-.9zm-66.3 4.8c.4 0 2.6 2.4 4.9 5.3 2.2 3 4.4 6 4.8 6.8a92.3 92.3 0 0 1-9.8-10.7c-.4-.7-.4-1.3 0-1.3zm62.6 5.1c1 0 2.4 1 3.3 2.3 1.3 1.8 1.3 3.1.5 7.4a30 30 0 0 1-3.3 8.8c-1.3 1.9-3.2 4-4.3 4.6-1.5.8-2.6.8-4.3 0-1.2-.6-3.3-3-4.6-5.4a44.4 44.4 0 0 1-3.4-7.7c-.9-2.8-.7-3.9.5-5.4 1-1.3 3-2 5.7-2.1 2.3 0 5-.7 6.1-1.3a9.6 9.6 0 0 1 3.8-1.2zm25.9 0c.4 0 1.7 1.5 2.7 3.3 1 1.7 2.2 4.3 2.5 5.7.6 2.3.6 2.3-.5.5-.7-1.1-1.7-2.3-2.3-2.7a8 8 0 0 0-3.6-.8c-1.4 0-3.3.8-4.3 1.8s-1.7 2.8-1.7 4.2c0 1.4.4 3 .8 3.6.4.6 1.7 1.6 3 2.3 1.5.8 3 .8 4.7.1 1.4-.6 3-1.8 3.5-2.8.5-1 1-1.3 1-.7 0 .6-1.6 3-3.5 5.3-2 2.3-4 4.2-4.8 4.2-.6 0-2.3-1.9-3.6-4.2a17.2 17.2 0 0 1-2.3-7.1c0-1.6 1.7-5 3.8-7.8 2-2.7 4.1-4.9 4.6-4.9z"/><path class="shp3" d="M223.5 249.3a12 12 0 0 0-2.7 2.2c-.4.6-.8 2.1-.8 3.5s.7 3.3 1.7 4.2c1 1 3 1.8 4.6 1.8 1.5 0 3.6-.9 4.7-2s2-2.8 2-3.8-.7-2.7-1.7-3.9a9.2 9.2 0 0 0-3.8-2.7c-1.1-.3-2.9 0-4 .7zm29 2.5c-1 1-1.8 3-1.7 4.3a9 9 0 0 0 1 3.5c.4.6 1.7 1.6 3 2.3 1.5.8 3 .8 4.7.1 1.4-.6 3-1.9 3.5-3 .6-1.1.8-2.9.5-4a8.9 8.9 0 0 0-2-3.5 7 7 0 0 0-4.4-1.5c-1.5 0-3.6.8-4.6 1.8z"/><path class="shp1" d="M288.8 253.3c-1.2 1.8-2.7 2.7-4.4 2.7-1.5 0-3.7 1.2-5.5 3-2.6 2.7-2.8 3.5-2.3 7.3.4 2.3.7 5.1.8 6.2 0 1.1 1.5 2.8 3.1 3.7 1.6 1 3.3 1.7 3.8 1.8.4 0 1-.9 1.2-2 .3-1.1 1.3-2 2.3-2 1 0 2.6-.8 3.8-1.8 1.2-1 2.4-2.8 2.7-4.2.3-1.4-.2-5-1.3-8-1-3-2-6.4-2.2-7.4-.3-1.8-.5-1.7-2 .7zm7.3 6c1.3 3.8 2 7.3 1.5 9.2-.3 1.6-1.6 4-2.8 5.1a24.3 24.3 0 0 1-4.6 3.3c-1.2.6-2.2 1.7-2.2 2.4a26 26 0 0 0 6 6.4l6 5.3.5-10c.2-1.4.4-7 .5-12.5 0-8.4-.2-10.3-1.7-11.9a17 17 0 0 0-3.6-2.7c-1.5-.8-1.5-.3.4 5.3zM187 258.1c-.8.7-1.3 2.7-1.2 4.5.1 2-.6 4.4-1.8 6-1.2 1.6-1.8 3.5-1.6 4.3.3.8 1.7 2 3 2.8 1.5.6 3.7 1.2 5.1 1.2 1.4 0 2.8.7 3.3 1.5.6 1.2 1.2 1.2 4-.5 1.7-1.1 3.2-2.8 3.2-3.8s1.1-2.8 2.5-4.2c1.4-1.4 2.5-3.5 2.5-4.8a4 4 0 0 0-2-3.2c-1.1-.6-2.9-1-4-1s-3.5-.9-5.3-2c-1.7-1-3.9-2-4.8-2-.8 0-2.1.5-2.9 1.2z"/><path class="shp3" d="M281.6 260c-1.8 1.4-2.8 3-2.7 4.6 0 1.3 1 3.3 2.1 4.4a8 8 0 0 0 5 2 5 5 0 0 0 4.5-2.3 9.7 9.7 0 0 0 1.5-4.4c0-1.3-1.2-3.2-2.8-4.3a10 10 0 0 0-3.8-2c-.6 0-2.3 1-3.8 2zm-92.6 3c-1.1 1.1-2 2.8-2 3.8s.7 2.8 1.7 4a5.6 5.6 0 0 0 4.8 2.4c1.7 0 3.8-.9 4.8-1.9 1-1 1.8-3 1.8-4.3 0-1.4-.8-3.3-1.8-4.2-1-1-3-1.8-4.6-1.8-1.5 0-3.6.9-4.7 2z"/><path class="shp1" d="M16.6 266.6c-.5.4-.9 11.7-.8 25L16 316h7v-22c9 0 12.1.7 14 1.8 1.7 1 5.6 5.8 9 11 6 9 6 9.2 10 9.2 2.2 0 4-.2 4-.5s-2-3.8-4.6-7.8c-2.6-4-6.2-8.8-8-10.7l-3.4-3.5c6.2-2.7 9-5 10-6.8 1.6-2.4 2-4.5 1.8-8.4-.3-4.4-.8-5.8-3.6-8.5l-3.2-3.3a252 252 0 0 0-32.4.1z"/><path class="shp0" d="M23.2 279.8l.3 7.7c20.4 0 20.7 0 23-2.8a9.8 9.8 0 0 0 2.5-5.2c0-1.4-1.1-3.6-2.5-5-2.4-2.4-3.1-2.5-13-2.5H22.9m204.1 3a75 75 0 0 0-23.5 8.6 55.4 55.4 0 0 0-21.4 22.5c-2.1 4-5 10.8-6.6 14.9a95.6 95.6 0 0 0-3.8 16.3l-1.2 8.7a52.1 52.1 0 0 0-14-8.7c-1.7-.3-4.3 0-6 .8-1.6.8-3.6 2.8-4.3 4.4-1.1 2.4-1.2 4-.3 7.5.6 2.5 3.6 8.1 6.7 12.5 3 4.4 7 11 9 14.8 1.9 3.7 4.9 7.8 6.7 9.2 1.7 1.3 4.5 2.7 6.2 3.1 2.4.6 3.5.2 5.8-2 1.5-1.4 3-2.5 3.2-2.4.3.2 1 3.9 1.6 8.3.6 4.4 1.2 8.2 1.4 8.5.2.3 1.3 7.7 2.5 16.5 1.1 8.8 2.5 17.6 3 19.5.5 2 4 8.2 7.7 14a59.6 59.6 0 0 0 8.6 11.3c1 .4 3.5.7 5.7.7s4.2.4 4.5 1c.3.6 0 1-.5 1a1 1 0 0 0-1 1c0 .6 1.2 1.2 2.8 1.5 1.5.3 4.4 2 6.5 3.8 2.7 2.2 3.5 3.5 2.8 4.2-.7.6-1.1 1.8-1.1 2.8 0 1 .9 2.1 2 2.7 1.3.7 2 .7 2 0 0-.6 1.1-2.1 2.4-3.5 1.4-1.4 3.2-2.5 4-2.5.9 0 2.8 1.3 4.3 3 2.8 3 2.8 3 4.8 1 1.7-1.8 1.8-2.4.8-4.5-1.2-2.3-1-2.6 2-4.5 1.7-1.1 4.2-2.4 5.5-2.8 1.2-.4 2.5-1.3 2.7-2 .3-.6 1.4-1.2 2.5-1.2s4.3-1.1 7-2.5c2.8-1.4 6.9-4.2 9.1-6.3 2.3-2 5-5.3 6-7.2 1-2 1.6-3.7 1.3-4-.3-.3.6-6.1 2-13s2.8-15.6 3.1-19.5c.4-4.5 1.7-9.3 3.7-13.5 2.6-5.7 2.9-7.1 2.2-12l-.7-5.5c4.9 3.5 7.6 4.6 9.2 4.8a7 7 0 0 0 5.1-1.8c1.2-1.1 6.1-8.5 11-16.5 4.8-8 9.4-17 10.4-20 1-3.4 1.4-6.9 1-9-.4-2-1.4-4.3-2.3-5.3-.9-1-2.6-1.8-3.9-1.7-1.2 0-3.7.6-5.4 1.4a40 40 0 0 0-7.3 4.5c-3.5 2.7-4.2 3-5.5 1.7-1-1-1.7-4.4-2.2-9.8-.4-4.6-1.4-11-2.3-14.3a74 74 0 0 0-4.6-12 50 50 0 0 0-5.7-9 63 63 0 0 0-30.7-18c-3.3-.8-11.4-1.7-18-2-6.6-.2-14 0-16.5.4zm139.1 26.8l-2.6 13c-.4 1.7 0 2.2 1.5 2.2 1.1 0 2-.3 2-.8a1156.2 1156.2 0 0 1 1.5-18c.3-4 .3-7.2.1-7.2a84 84 0 0 0-2.5 10.8z"/><path class="shp2" d="M253.5 308.1a9.3 9.3 0 0 0-3.8 2c-.4.5.8 1 3 1a33.4 33.4 0 0 1 16.7 4.5c2.5 1.5 4 2 3.8 1.2a12 12 0 0 0-2.7-4 20.9 20.9 0 0 0-6-4.3 17 17 0 0 0-5.8-1.4 26 26 0 0 0-5.2 1zm-43.3 1.3a16 16 0 0 0-5.7 4.8c-1.3 1.8-2.5 3.9-2.5 4.6 0 .6 2.8-.7 6.3-3.1a36 36 0 0 1 10-5c2.1-.5 3.6-1.2 3.3-1.8-.3-.5-2.3-.9-4.3-.9-2.1 0-5.3.7-7 1.4zm152.1 10.3c-1.2.2-3.3 1.6-4.7 3.1a14.6 14.6 0 0 0-3 6.7c-.6 3-.2 4.8 1.3 7.3 1.2 1.7 3.2 3.6 4.6 4.2 1.4.6 4.2 1 6.3 1 3 0 4.4-.7 7.2-3.5 3-3.1 3.5-4.2 3.3-7.8a16 16 0 0 0-.8-4.7c-.2-.3-1.7.4-3.2 1.4a23 23 0 0 0-4.3 4c-.8 1-2 1.6-2.8 1.3-.6-.4-1-1.3-.7-2 .2-.6 2.3-2.6 4.5-4.2 2.3-1.6 4-3.3 4-3.8 0-.4-1.2-1.2-2.8-1.8-1.5-.5-3.6-1.2-4.7-1.3-1.1-.2-3-.2-4.2 0zm-145.8 11.2c-1.7.4-4 1.3-5.2 2-1.1.7-2.8 2.3-3.7 3.7-1.4 2.1-1.4 2.5-.1 2.9.8.3 2.6-.6 4-2 1.8-2 3.4-2.5 6.7-2.5 2.4 0 5.4.7 6.8 1.5 1.4.8 4 1.4 5.8 1.5 1.7 0 3.2-.3 3.2-.8a44.6 44.6 0 0 0-12.5-6.6 14 14 0 0 0-5 .3zm43.3.2a39 39 0 0 0-6.8 2.4c-1.7.8-3 2.2-3 3 0 .8.6 1.6 1.3 1.8.6.2 2.3-.4 3.7-1.4 1.9-1.4 4.7-2 11-2.1 4.7-.2 9.5 0 10.8.4 1.3.5 2.2.4 2.2-.2 0-.6-.9-1.9-2-3-1.6-1.6-3.2-2-7.8-1.9-3.1 0-7.4.5-9.4 1zm-29.3 14.1a644 644 0 0 0-9.7 12.6c-.5.7 0 3 1 5.4a21 21 0 0 0 5.3 7c1.8 1.5 5.7 3.2 8.4 3.9 4 1 6 1 10-.2 2.8-.7 6.3-2.5 7.9-3.9a20 20 0 0 0 4-5c.8-1.4 1.6-3.6 2-5 .4-2-.4-3.8-3.5-8l-9-11.8c-2.7-3.4-5.5-6.2-6.2-6.2-.8 0-5.3 5-10.2 11.3zm89.6-4.4c-2 1-3.6 2.3-3.8 3-.2.8.4 1 1.9.4 2-.6 2-.5 1 1.3-.5 1.1-2.4 3.8-4.2 6a50.8 50.8 0 0 0-4.7 7c-.9 1.6-1.5 5-1.5 7.5 0 2.7-.7 5.8-1.9 7.8-1 1.7-1.4 3.2-.9 3.2.6 0 2.1-1.2 3.5-2.8 1.4-1.5 3-4.7 3.5-7.2.6-3 2.8-6.8 6.5-11.5 3-3.9 6-8.5 6.5-10.3.7-2.3.7-3.6-.3-4.7-.6-.9-1.4-1.6-1.7-1.5-.3 0-2 .8-4 1.8z"/><path class="shp1" d="M236.3 344.8l-6.9 8.5-2.9 3.8c21.4 0 26.5-.5 26.5-1.1 0-.6-2.7-4.4-6-8.5a82 82 0 0 0-6.4-7.5c-.2 0-2.2 2.1-4.3 4.8zm42.2-.8a12 12 0 0 0-6.3 3.4 9.5 9.5 0 0 0-2.2 5.1c0 1.4.9 4.3 2 6.5s3 4.7 4.3 5.5a13.2 13.2 0 0 0 12.5 0c1.2-.8 3.1-2.5 4.2-3.8 1.1-1.2 2-3.3 2-4.7 0-1.4-1-4.4-2-6.8-1.2-2.4-3-4.6-4.5-5.2-1.4-.6-3.3-1-4.3-.9-1 0-3.5.5-5.7 1zm-84.1 3c-1.2.3-3.3 2-4.7 3.6a29 29 0 0 0-4.1 6.6c-.9 2.1-1.6 4.7-1.6 5.8 0 1.1 1.3 3.4 3 5s4 3 5.3 3c1.2 0 3.7-1 5.4-2 2-1.2 4.1-3.9 5.4-6.8 1.6-3.4 2-5.8 1.6-8.7a9 9 0 0 0-2.9-5.8c-1.3-1-3-1.7-3.8-1.7-.8 0-2.5.5-3.6 1z"/><path class="shp2" d="M155 349.5c0 .8.7 3 1.6 4.8 1 1.7 3.4 5.1 5.5 7.4a45.7 45.7 0 0 1 9.3 17.6c.3 1.5 1.3 3 2.1 3.4.8.5 1.7.6 2 .3a74.7 74.7 0 0 0-10.2-22.8L162 356a26 26 0 0 1 6-2c.6 0 1-.3 1-.8a17.3 17.3 0 0 0-10.8-5.2c-2.2 0-3.2.5-3.2 1.5zm-52 4.8c0 1.5 1.1 2.9 3.7 4.4 2.1 1.2 4.6 2.3 5.5 2.3 1 0 1.8-.7 1.8-1.5s-1.8-2.4-4-3.5a15 15 0 0 1-4.5-3c-.3-.6-1-1-1.5-1s-1 1-1 2.3zm161.8 16.4c-3 4.3-7.4 9.5-9.7 11.6a45 45 0 0 1-8.1 5.7 22 22 0 0 1-8.8 2c-3 0-6-.8-8.2-2.1-2-1.2-5-4-7-6.1-2-2.2-4.4-5.7-5.5-7.7a17 17 0 0 0-5.7-5.6c-3-1.6-4.2-1.8-6.4-1-1.7.6-3.7 2.7-5.2 5.5-2.2 4.1-2.3 5.3-1.9 14 .4 6.7 1.6 13.1 4.1 22a112.1 112.1 0 0 0 13.5 31.5c1.9 2.8 5.2 7 7.5 9.3a39 39 0 0 0 8.8 6.8c2.8 1.4 7 2.5 10 2.6 4.8.3 5.2.1 9.2-4.3 2.2-2.5 6.2-8.5 8.7-13.5a221.6 221.6 0 0 0 16.4-44.9c2-8 2.6-12.5 2.3-16.5a25.8 25.8 0 0 0-6.5-15.3c-2-1.8-2.1-1.6-7.5 6z"/><path class="shp1" d="M267.7 373.4a49.3 49.3 0 0 1-18.7 18 24 24 0 0 1-11 2.9 17 17 0 0 1-10-2.5 39.2 39.2 0 0 1-9-8.4l-6.3-8.6c-1.4-2.3-2.3-2.8-5-2.6-2.2.2-3.5 1-4.4 2.8-.7 1.4-1.3 5.3-1.3 8.8 0 3.4.9 10.6 2 16a88.4 88.4 0 0 0 19.7 43.8 54 54 0 0 0 9.8 9.2c3.2 2 6.2 3.3 8.3 3.2 2.2 0 4.3-1 6.8-3.3 2-1.7 4.9-5.7 6.4-8.7a327.3 327.3 0 0 0 15.4-39.5c1.5-5 3-12.1 3.6-16 .4-3.9.5-9.1.2-11.7-.4-2.6-1.4-5.4-2.2-6.3-1.4-1.5-1.8-1.3-4.3 3z"/><path class="shp2" d="M265.8 384.8c-2.1 4.2-5.5 9.4-7.6 11.5a20 20 0 0 1-7.2 4.8c-2 .5-7.1 1.2-11.5 1.5a28.3 28.3 0 0 1-24.3-7.8 29 29 0 0 0-5.2-4.3c0 .3 3 6.1 6.5 13a94.5 94.5 0 0 1 6.5 14.3c0 1 1.6 4.8 3.4 8.7 2 3.9 4.7 8.3 6.3 9.8 1.7 1.6 4.4 3 6.8 3.4 3.7.6 4.3.3 9-3.9 3-2.8 6-6.6 7.4-10 1.3-3 3-9.3 3.5-14.3 1-7.5 1.8-9.8 4.6-14 1.9-2.8 4.2-6.8 5.2-9s1.8-5.7 1.8-7.8c0-2-.3-3.7-.8-3.6-.4 0-2.4 3.5-4.4 7.7z"/><path class="shp0" d="M237.5 407l-14 .5c7 5 11.3 7 14 7.6 2.8.6 6.2.9 7.8.5a19.2 19.2 0 0 0 10.3-7.4c1.3-2.1 1.3-2.2-1.3-2l-16.8.8z"/><path class="shp1" d="M238.5 425.7a20 20 0 0 0-3.4 4.8c-.1.5.6 2 1.6 3.4 1.7 2.2 2.1 2.3 5.6 1.2a9.2 9.2 0 0 0 5.7-4.6c1.7-3 1.8-3.9.8-6-1-1.9-2-2.6-4.2-2.5-2 0-3.8 1-6 3.7z"/><path class="shp4" d="M385.5 447.1a167.2 167.2 0 0 1-50 4.5 331.8 331.8 0 0 1-44-4.2c-3.9-.6-4-.5-7.1 4.2a47.4 47.4 0 0 1-13.8 13.6c-1.4 1-2.6 2.3-2.6 2.8 0 .6.8.8 1.8.5 1-.3 2 0 2.4.7.4.7.8 2.5.8 4 0 2-.4 2.7-1.5 2.3-.8-.3-1.7 0-2 .5-.3.6.3 1.4 1.3 1.9 1.3.7 1.6 1.6 1 4.3-.5 2.2-.3 3.7.5 4.6 1 1 .8 1.3-1 1.2-1.4 0-2.2.5-2 1.3.3.6 0 2-.4 3-.5 1-2.5 2-4.6 2.2-2.5.4-4.3 0-5.3-.8-.8-.8-3-2-4.8-2.8-2.2-1-3.3-2.1-3.4-3.9-.2-1.8-1-2.6-2.6-2.8-1.2 0-2.2-.8-2.2-1.4 0-.7-1 .2-2 2-1.1 1.7-2.9 3.4-4 3.7-1.1.3-2.9 0-4-.5a7.4 7.4 0 0 1-2.9-2.8c-.8-1.5-1-1.5-2 .6-.8 1.5-1.7 2-3.1 1.7-1.3-.3-2 0-2 1 0 .8.6 1.7 1.3 2 .6.1.3.4-.8.4-1.1.1-3.5 1.3-5.3 2.6a12.7 12.7 0 0 1-6 2.5 7 7 0 0 1-5-2.5c-1.2-1.4-1.8-2.7-1.2-3 .6-.3 1-1.2 1-2s-.7-1.5-1.5-1.5-1.6-1-1.6-2.3l-.3-5.4c0-1.8.2-3.3.7-3.3.4 0 .7-.9.7-2s-.4-2-1-2 0-1 1.3-2.2c1.2-1.2 3.5-2.5 5.2-2.9 2.6-.6 2.3-.7-1.8-.8-2.6 0-6.4-.8-8.4-1.7a39 39 0 0 1-8.3-5.4c-4-3.4-4.8-3.7-6.5-2.6a176.4 176.4 0 0 1-32.5 11.2c-5.2 1.3-14.9 2.9-21.5 3.5-8.7.9-14.5.9-21 .1-5-.6-9.1-1-9.3-.9a101 101 0 0 0 24 13c2.4.9 7 2.2 10.3 3.1 3.3 1 6.2 1.4 6.5 1.2.3-.3-.2-1.3-1-2-1.3-1.5-1.3-1.9.5-3.6 1.3-1.3 1.8-2.6 1.3-3.8-.5-1-.3-2.2.4-3 .7-.7 1.9-1.3 2.6-1.2.6 0 2.4 1.1 4 2.5 1.5 1.4 3.5 2.6 4.4 2.5 1 0 2.2.8 2.8 1.8.6 1.1.5 2.1-.2 3-.7.6-2.6 1.2-4.3 1.2-1.6 0-3.6.6-4.3 1.5-1 1.3-.8 1.6 1 2a112.2 112.2 0 0 0 30.3 0l10.8-1.4c.4 0-.8 2.5-2.6 5.6A182.8 182.8 0 0 0 172 544a198 198 0 0 0-2.7 21.3c-.5 7.7-.5 11.7.2 11.8.6 0 3.7-2.8 7-6.3a152.7 152.7 0 0 0 22.5-32.3c3-5.5 6.4-11.8 7.9-14 1.4-2.2 6.2-9 10.7-15 4.4-6 9.4-12.2 11-13.8 1.7-1.5 3.7-2.7 4.5-2.7.8 0 3.5 4.7 6.8 12.2a239.4 239.4 0 0 0 24.7 44.1c4.3 6.1 9.8 12.6 12.1 14.4a18 18 0 0 0 5.6 3.3c1 0 1-3 .4-13.8-.4-7.5-1-14-1.2-14.2-.3-.3-1.1 0-2 .8-.8.6-2.5 1-3.8.8-1.2-.2-4.1.7-6.4 2-3.3 1.9-4.8 2.2-6.3 1.4-1.1-.5-2.3-2-2.6-3.3-.3-1.4.1-2.9 1.4-4.2 1-1.1 1.7-2.7 1.5-3.5a8 8 0 0 1 .1-3.8c.4-1.3 1.4-2.2 2.6-2.2 1.1 0 3.5 1.3 5.3 3 1.7 1.6 4.2 3 5.4 3 1.3 0 3 1 3.9 2.3 1.4 2 1.5 1.8 1-4.8a484 484 0 0 0-5.2-35.3c-1-4.7-1.1-6.7-.3-8.4l1.5-2.6c.2 0 7.4 4.5 15.9 10.3 8.5 5.8 15.7 10.5 16 10.5.3 0 .3-.8 0-1.8s.1-2.4 1-3.2c.7-.8 1.5-3.3 1.7-5.5.3-3.8.5-4 3.3-3.8 1.6.1 3.7 1 4.5 2.1.8 1 3 2.2 4.8 2.6 2 .4 3.5 1.4 4 2.9.7 1.4.6 2.6-.2 3.5-.6.7-2.6 1.3-4.4 1.2-1.9 0-4.6 1-6.7 2.5L314 508a291.5 291.5 0 0 0 46.5 24c2.2.6 4.3 1 4.8.8.4-.1-6-7.5-14.4-16.3-8.3-8.8-21.3-22.3-28.9-30l-13.7-14c22.6-2 29.9-3 30.7-3.6 1.3-.7 1.2-.9-.3-.9-1 0-2.1-.9-2.7-2-.7-1.4-.6-2.5.3-3.7a14 14 0 0 0 1.7-5.2c.4-2.8 1-3.7 2.8-3.9 1.2 0 3.2.8 4.4 2 1.3 1.3 3.6 2.8 5.3 3.3 1.7.6 3.1 1.8 3.3 3 .2 1.1-.4 2.6-1.5 3.4-1.6 1.1-1.4 1.2 1.7.6 2-.4 6.9-2 11-3.7 4.1-1.6 11.3-5 16-7.4a96 96 0 0 0 11.5-6.9c1.7-1.4 2.4-2.4 1.5-2.3-.8 0-4.6.9-8.5 2zm5.5 4a116.3 116.3 0 0 1-24.5 12.2 148.5 148.5 0 0 1-28 7.7c-3.3.6-10.4 1.4-15.8 1.8-5.3.4-9.7 1-9.7 1.2 0 .3 5.7 6.2 12.8 13.2a701.5 701.5 0 0 1 45 48.9c0 .5-1.4.4-3.6-.2a174.8 174.8 0 0 1-29.2-12.2 464.3 464.3 0 0 1-48-29c-6-4.2-11.4-7.7-12-7.7-.6 0-1 .7-1 1.5s.7 4.3 1.5 7.8c.8 3.4 2.3 15 3.4 25.7 1 10.7 2.2 26.1 2.5 34.3.4 9.5.3 14.7-.4 14.7-.6 0-3.3-1.8-6-4-2.8-2.2-7.5-7-10.6-10.8-3-3.7-8-10.8-11.1-15.7a297.6 297.6 0 0 1-19.9-38.8 29.7 29.7 0 0 0-3.4-6.7c-.3 0-2.5 2-4.9 4.3-2.3 2.3-6.9 7.8-10 12.2-3.2 4.4-11.2 17-17.7 28s-14.8 23.6-18.5 28a87.2 87.2 0 0 1-10.2 10.8c-2 1.5-4 2.4-4.4 2.1-.5-.3-.2-7 .4-14.7.7-7.8 1.7-16.9 2.3-20.2.5-3.3 2.5-11.9 4.5-19 2.2-8.2 5.7-17.4 9.3-24.8l5.7-11.8c-10 1.1-17.5 1.5-23 1.6-5.5.1-13.2-.2-17-.7a121.3 121.3 0 0 1-31.8-9.3c-4-1.9-9.9-5.4-13.2-7.9-5-3.7-6.3-4.3-7.8-3.3-1 .7-1.7 1.5-1.7 2a25 25 0 0 0 4.9 5c2.6 2.3 7.5 5.8 10.7 7.7 3.2 2 9.6 5 14.1 6.8 4.6 1.7 12.2 3.9 17 4.7 4.9.8 12.2 1.5 16.3 1.5 4.1 0 10.5-.6 14.2-1.3 6-1 6.7-1 6.2.3l-5 12.5c-2.4 6-5.5 15.5-7 21a205 205 0 0 0-5.5 42.3c.1 6.7.4 9.2 1.3 9.2.7 0 3.1 1.1 5.3 2.5 2.4 1.7 4.8 2.5 6 2.1 1.1-.3 4.7-2.8 8-5.5 3.6-3 8-8 11.2-12.7A741.5 741.5 0 0 0 221 520c4.4-8.1 7-12.1 8.2-12.1 1.1 0 2.1 1.3 2.8 3.8a168 168 0 0 0 16.5 32.8c2.7 4 8 10.7 11.9 15 3.9 4.2 7.1 8 7.3 8.5 0 .5.6.9 1.2.9s2.2 1 3.6 2.3l3.8 3.3 3.6 2.8c1.5 1 3.5 1.6 5 1.2 2-.4 2.7-1.4 3.3-4.3.5-2 1-12.3 1.2-22.8a212.8 212.8 0 0 0-3.8-47.6c-1-4.9-1-5.5.3-5 .8.2 3.3 1.9 5.5 3.7a441.6 441.6 0 0 0 36.8 24.8 169 169 0 0 0 33.3 16 90 90 0 0 0 11.9 3.3c3.3.4 4.3.1 5.8-1.6 1.7-2 1.5-2.4-7-14.4a350.1 350.1 0 0 0-18.7-23.7 764.5 764.5 0 0 0-16.8-18.5 76.7 76.7 0 0 1-6.5-7.2c.1-.2 4.5-1 9.7-1.7 5.2-.8 12.4-2.3 16-3.2a130 130 0 0 0 29.8-12.7c2.9-1.7 7.3-4.9 9.7-7 4.4-3.6 4.4-3.8 3-6.2-.8-1.4-1.8-2.5-2.3-2.5-.4 0-2.7 1.4-5.2 3z"/><path class="shp1" d="M81.5 450.7c-.5.3-.8 1-.7 1.5.1.4 2.2 2 4.7 3.3 2.5 1.4 4.5 3 4.5 3.5 0 .6-.7 1.2-1.5 1.5-.8.3-3.5-.7-6-2.3-2.5-1.5-4.5-3.1-4.5-3.7 0-.6-.5-.3-1 .5s-1 3.2-1 5.3c0 2 .8 4.8 1.8 6.3 1 1.4 3.3 3 5.2 3.5 2 .6 4.7.8 6.3.5 1.5-.3 3.8-2 5.2-3.6 1.8-2.1 2.5-4.2 2.5-7 0-3.1-.7-4.7-3-7-2.4-2.4-3.8-3-7.3-3-2.4 0-4.7.3-5.2.7zm257.5 4.8c0 1.4-.7 3.6-1.5 5-1.2 2-1.3 2.8-.3 4 .7.9 2.3 1.6 3.6 1.5 1.2 0 2.4-.4 2.7-1 .3-.6-.4-1-1.5-1-1.7 0-1.9-.4-1.4-2.8.4-1.5.8-2.8 1-3 .2 0 1.9 1 3.6 2.3 2 1.6 4.3 2.4 5.8 2.3 1.4-.2 2.5-1 2.5-1.8s-1.4-2-3-2.5c-1.7-.6-4-2-5.3-3.3-1.2-1.2-3.1-2.2-4.2-2.2-1.5 0-2 .7-2 2.5z"/><path class="shp3" d="M341 459.5c0 .8-.2 2.2-.5 3-.4 1.1.3 1.5 3 1.5 2 0 3.7-.3 4-.8.2-.4-1-1.7-2.5-3a17 17 0 0 0-3.5-2.2c-.3 0-.5.7-.5 1.5z"/><path class="shp4" d="M343 467l-2.5 1.9c7.4-1.9 9.5-2.7 9.5-3.1 0-.5-1-.8-2.3-.8-1.2 0-3.3.9-4.7 2z"/><path class="shp3" d="M213.2 467.1c-1.7.4-3.5 1.3-4 2-.7 1-.6 2 .1 3.1 1 1.4 1 2 0 3-.8.7-1.3 3.4-1.3 6 0 3.4.4 5 1.5 5.3.8.3 1.5 1.5 1.5 2.8 0 1.2.6 2.8 1.5 3.4.8.7 2 1 2.5.8.6-.3 1-1.2 1-2s.6-1.5 1.3-1.5c.6 0 1.6.4 2.2 1 .7.6 1.7.5 3.3-.5 1.2-.8 2.2-2.2 2.2-3 0-1 .8-1.4 2.3-1.3 1.3.2 3.2-.4 4.1-1.2 1.4-1.2 2.1-1.3 3.7-.3 1 .7 3 1.3 4.2 1.3a6 6 0 0 0 4-2c1.3-1.5 1.5-2.5.7-4a7.9 7.9 0 0 0-3-3 6.8 6.8 0 0 0-4-.5c-1.1.3-2.8 2-3.9 3.8-1.9 3.2-1.9 3.2-3.7 1.2-1-1.1-2.8-2-3.9-1.8-1.4.1-1.5 0-.3-.3 1-.2 1.8-.8 1.8-1.4 0-.6-.8-1.4-1.8-2-1.3-.7-1.4-1-.2-1 .8 0 2 .5 2.6 1.2 1 1 1.3 1 1.8 0 .3-.7-1-2.5-2.9-4.1-1.9-1.6-4.7-3.3-6.2-3.6a9 9 0 0 1-3.4-1.4c-.4-.4-2-.4-3.7 0zm44.3.7c-2.8 1-6.3 2.5-7.8 3.4-2.4 1.6-2.6 2-1.4 4.3 1 2.1 1 2.7-.8 4.4-2 2-2 2 1.3 2.5 2.2.4 3.2 1.1 3.2 2.4a4 4 0 0 0 1.2 2.8c.7.6 2.7.8 4.3.4 2.8-.5 2.9-.6 1-1.8-1.8-1-1.8-1.1-.3-1.2 1 0 2.1 1 2.6 2 .4 1.1 1.3 2.3 2 2.5.6.3 1 1 .7 1.5-.3.6.6 1 2 1 2.1 0 2.5-.5 2.5-3 0-2 .5-3 1.5-3 .8 0 1.7-1 2-2.3.3-1.2.5-2.8.5-3.4 0-.7-.9-1.3-2-1.3s-2.2-.6-2.4-1.3c-.2-.6-.2-1.8 0-2.4.2-.7 1-1.3 1.9-1.3.8 0 1.5.4 1.5 1s.4 1 1 1 1-1.4 1-3c0-2.8-.2-3-3.3-2.8-2.8.3-3.3.7-2.9 2.3.3 1.1 0 2.3-.7 2.8-.7.4-1 0-.9-1.6.2-1.5-.2-2.1-1.2-2-1.2.3-1.1 0 .2-1 1-.6 1.7-2 1.8-3 0-1-.7-1.7-1.8-1.7-1 0-4 .8-6.7 1.8z"/><path class="shp2" d="M206.8 471.6c.6.2 1.2 1.3 1.2 2.4 0 1.1-.3 2-.8 2-.4 0-.6 1.5-.6 3.3l.3 5.4c0 1.3.8 2.3 1.6 2.3s1.5.7 1.5 1.5-.4 1.7-1 2c-.6.3 0 1.6 1.3 3a7 7 0 0 0 5 2.5c1.5 0 4.2-1.1 6-2.5a13 13 0 0 1 5.2-2.6c1.1 0 1.4-.3.8-.5-.7-.2-1.3-1-1.3-1.9 0-1 .7-1.3 2-1 1.1.3 2.2.2 2.4-.3.2-.4-.9-.8-2.5-1-2-.1-2.9.3-2.9 1.3 0 .8-1 2.2-2.3 3-1.5 1-2.5 1.1-3.2.5-.6-.6-1.6-1-2.3-1-.6 0-1.2.4-1.2 1s.7 1 1.5 1 1.5.4 1.5 1-1.2 1-2.8.8a8.5 8.5 0 0 1-4-1.2c-.7-.6-1.3-2.1-1.2-3.4 0-1.2-.7-2.4-1.5-2.7-1-.4-1.5-2-1.5-5.3 0-2.6.5-5.3 1.2-6 .8-.6 1-1.8.6-2.7a2.9 2.9 0 0 0-2.6-1.4c-1 0-1.1.3-.4.5z"/><path class="shp1" d="M146.7 474.8c-.3.4-.4 1.3-.1 2 .2.6-.3 2.4-1.2 4-1.3 2.3-1.4 3-.2 4 .7.8 1.9 1.1 2.6.8.6-.3 1-1.4.7-2.4-.3-1-.1-2.4.4-3.2.8-1.3 1.3-1.2 3.7.7 2 1.5 3.6 2 5.2 1.5 1.2-.4 2.1-1.1 1.9-1.7-.2-.6-1.5-1.3-2.8-1.6-1.3-.3-3.4-1.5-4.7-2.7-1.2-1.2-2.8-2.2-3.5-2.2-.8 0-1.6.3-2 .8z"/><path class="shp2" d="M267.7 475.3c-.2.6-.3 1.8 0 2.4.1.7 1.3 1.3 2.6 1.3 2 0 2-.2.4-1-1.2-.7-1.4-1.4-.7-2.5.7-1 .6-1.5-.4-1.5a2 2 0 0 0-1.9 1.3z"/><path class="shp3" d="M148.5 481.3c-.4 1.2-.3 2.6.2 3 .4.4 2 .2 3.6-.5l2.8-1.3c-3.6-2.7-5-3.5-5.3-3.5-.4 0-1 1-1.3 2.3z"/><path class="shp2" d="M265.8 480.1c.7.8 1.2 1.7 1.2 2.1 0 .5-.9.6-2 .3-1.3-.3-1.9 0-1.7.8.2.6 1.2 1.2 2.3 1.2 1.3 0 1.9-.7 1.9-2.4 0-1.4-.7-2.6-1.5-2.9-1.2-.4-1.3-.2-.2 1zm102 .8c-1.5.5-4 1.5-5.7 2.5-1.7.9-4 1.6-5.1 1.6-1.2 0-1.8.5-1.6 1.3l3.1 7.7c1.5 3.6 3.7 7.5 5 8.8a8.6 8.6 0 0 0 6.3 2.2c2.7 0 4.5-.8 6.5-2.8 2.4-2.3 3-2.5 4.7-1.4 1.8 1 2.2.8 3.9-3 1-2.4 1.7-4.6 1.5-5-.2-.5-1.5-.8-2.9-.8-2.2 0-2.5-.4-2.5-3.8 0-2-.7-4.7-1.5-6-1.1-1.6-2.4-2.2-5.3-2.1-2 0-5 .4-6.4.8zM246 483c0 .6 1 1.1 2.3 1.3 1.5.1 2.3 1 2.4 2.7.2 1.8 1.3 3 3.6 4 1.7.7 3.9 2 4.7 2.7 1 .9 2.8 1.2 5.3.8 2.1-.3 4-1.2 4.6-2.3.4-1 .7-2.3.6-3-.2-.6.5-1.2 1.6-1.2 1 0 1.7-.4 1.4-1-.3-.6-1.4-1-2.5-1-1.6 0-2 .7-2 3 0 1.7-.5 3-1.3 3l-3.4.5c-1.3.3-2.3 0-2.3-.5 0-.6.8-1 1.8-1 1.5 0 1.5-.2.1-1.3-.8-.6-1.8-2-2.2-3-.4-1-1.5-1.7-2.4-1.7-1.6 0-1.6.2.2 1.3 1.9 1 1.8 1.2-1 1.7-1.7.4-3.5.2-4-.3-.6-.5-1-1.7-1-2.7 0-1-1-2-2.5-2.4l-3.3-.6c-.4 0-.7.4-.7 1zm-3.1 1.5c-.8.9-2.6 1.6-4.2 1.5-1.5 0-3-.4-3.2-1-.3-.6-1-1-1.5-1a1 1 0 0 0-1 1c0 .6 1.2 1.8 2.6 2.8 2.1 1.4 2.9 1.5 5 .4a8.5 8.5 0 0 0 3.3-3.2c.5-1.1.8-2 .6-2-.1 0-.9.7-1.6 1.5z"/><path class="shp1" d="M441 486a54 54 0 0 0 5.4 9.3 80.9 80.9 0 0 0 9.6 13c0 .4-.9.7-2 .7s-3.4 1.1-5 2.5a15.7 15.7 0 0 0-4.2 6.3c-.8 2.7-.8 4.7 0 7.7.6 2.2 2.1 5 3.4 6.3a16 16 0 0 0 6.3 3.2c2.2.5 9.7 1 16.8 1H484v-51l-6.5.5-.5 21.5c-12 0-12.8-.2-15.5-3a96.8 96.8 0 0 1-8-10.8c-4.6-7-5.3-7.7-8.7-8-2-.2-3.7.1-3.7.7zm-128.3 5c-.4.5-.5 1.9-.2 3s-.2 3.1-1 4.5-1.3 3.2-1 4c.3.8 1.4 1.7 2.5 2 1.1.3 2.4.3 3 0 .6-.3.2-1.1-.8-2-1.3-1-1.4-1.6-.5-2.7.6-.7 1-1.9.7-2.6-.2-.6 0-1.2.6-1.2s2.2.8 3.8 1.7c1.5 1 3 2.2 3.2 2.6.3.5 1.7.6 3.3.3 1.8-.4 2.6-1.2 2.4-2.3-.1-1-1.7-2.1-3.7-2.7-2-.6-4.2-1.8-5-2.8a9 9 0 0 0-4-2.3c-1.6-.4-3-.2-3.3.4z"/><path class="shp3" d="M315.3 497.3c.3.6 0 1.8-.6 2.4-1 1-1 1.6 0 2.6 1 .9 2.1 1 4.5.2 1.7-.6 3.3-1.4 3.5-2 .1-.6-1-1.8-2.7-2.8-1.6-1-3.5-1.7-4.2-1.7-.6 0-.9.6-.5 1.3z"/><path class="shp1" d="M129.5 517.3c-3 3-4.8 5.8-5.9 9.7-.9 3-1.6 7-1.6 8.8 0 2.6.5 3.4 2.8 4.3 1.5.6 7 1.2 12.2 1.3 7.3 0 10.2-.3 12.8-1.6 2-1.1 3.8-3.3 4.8-5.5 1.4-3.6 1.4-4-.3-6.3-1-1.4-3.4-3.2-5.1-4-2.4-1.1-3.2-2.1-3.2-4 0-1.4-.9-3.5-2-4.8-1.5-1.6-3.1-2.2-6.1-2.2-3.6 0-4.8.6-8.4 4.3z"/><path class="shp0" d="M455.5 515c-1.1.6-2.6 2.1-3.3 3.5-.6 1.4-1.2 3.2-1.2 4 0 .8 1 2.7 2.4 4.3 2.3 2.6 2.9 2.7 13 3l10.6.2v-16a107 107 0 0 0-21.5 1z"/><path class="shp1" d="M263.9 528.8v3.7c.1 1.1-.6 2.8-1.6 3.8-1.4 1.4-1.6 2.2-.7 3.5.6 1 2 1.8 3 2a7 7 0 0 0 3.4-.3c1.2-.6 1.1-.9-.5-1.5-1.5-.6-2-1.6-1.8-3.9.2-1.7.8-3.1 1.3-3.1.6 0 2.4.8 4 1.8s3 2 3 2.5c0 .4 1.4.7 3 .7s3.2-.5 3.5-1c.3-.5 0-1.7-.8-2.5a4.8 4.8 0 0 0-3.2-1.6c-1.1 0-3.5-1.3-5.3-3-1.7-1.6-4.1-2.9-5.2-2.9-1.2 0-2 .7-2.1 1.8zm40.1 1l1.5 12.2c.9 6.3 2 12 2.8 12.6.6.6 5 2.8 9.7 4.7 4.7 2 8.8 3.7 9.3 3.7.4 0 .7-2 .6-4.3 0-2.3-.6-7.5-1.2-11.5l-1.2-7.3a300.3 300.3 0 0 0-20.8-10.9c-.4 0-.7.3-.7.8zm-126.5 5.5c.3 2-.3 4-1.6 5.7-1.5 2-1.7 2.8-.7 3.8.7.7 2.7 1.2 4.3 1.1 1.7 0 2.2-.3 1.3-.5-1.4-.3-1.7-1-1.2-3.6.4-1.8.8-3.5 1-3.8.2-.3 2 .4 3.8 1.5 2 1.1 3.3 2.3 3 2.8-.2.4.8.7 2.3.7 1.6 0 3.5-.5 4.3-1 1.3-.8 1.3-1.1-.3-2.7-1-1.1-1.7-1.3-1.7-.5 0 .6-.4 1.2-1 1.2s-.8-.7-.5-1.5c.4-1.1-.2-1.4-2.4-1.3-1.6.2-2.7 0-2.5-.5.2-.4-.4-1.6-1.3-2.7-1-1.2-3-2-4.5-2-2.4 0-2.6.3-2.3 3.3z"/><path class="shp3" d="M265.9 536c-.2 1.8 0 3.4.6 3.7.6.3 2.5.3 4.3 0 1.7-.4 3.2-1.3 3.2-2 0-.6-1.4-2-3-3s-3.4-1.7-3.9-1.7-1 1.4-1.3 3zm-86 3.3c0 .6-.3 2.3-.7 3.6-.7 2.4-.6 2.5 3.3 1.8 2.2-.4 4.3-1.3 4.7-2 .4-.7-.5-1.9-2.3-3-1.6-1-3.3-1.7-3.9-1.7-.6 0-1 .6-1 1.3z"/><path class="shp2" d="M222 542.3a7.6 7.6 0 0 0-3.2 4.2 12 12 0 0 0-.3 5c.4 1.8.1 2-2.8 1.4a12 12 0 0 0-5.6.4c-1.4.5-2.9 1.9-3.4 3-.5 1.2-.6 3.7-.3 5.5.4 2 1.5 3.6 2.8 4.3 1.3.6 4.2 1 6.6.8 2.9-.3 4.2 0 4.2.9 0 .6-.7 2.6-1.5 4.2s-1.2 3.2-.8 3.4c.5.3 3.2.8 6.2 1.3l5.4.8a79.5 79.5 0 0 1-1.7-8.5c0-.9.5-1.3 1.4-1l5 .8c3 .4 3.9 0 5.8-2.4 1.2-1.6 2.3-4 2.2-5.1 0-1.3-.4-3.2-1-4.3-.6-1.1-2.4-2.2-4.3-2.6-3-.5-3.2-.7-2.8-4.7.3-3.3-.1-4.7-1.8-6.5a7.6 7.6 0 0 0-4.8-2.2 14 14 0 0 0-5.2 1.3zm-32.5.7a30 30 0 0 0-6.3 1.9c-1.2.6-3.2 1.1-4.4 1.1-1.3 0-2.9-.5-3.6-1.2-1-1-1.2-1-1.2.2 0 .8.5 2 1.2 2.8.7.7 2.2 1.2 3.3 1.2 1.1 0 3.5-1 5.3-2 1.7-1.1 3.9-1.8 4.7-1.5.8.3 2.6 0 4-.5s2.5-1.5 2.5-2-.3-1-.8-.9l-4.7.9z"/><path class="shp1" d="M448.5 544.7c-1.5.3-2 1.1-1.7 3.4l.2 2.9h30c0 15.6-.1 16-2.3 16.1l-13.2.3-11 .1-.5 6.5h27l-.5 14.5-28.5.5v6h36c0-48-.1-50-1.8-50.1a744.4 744.4 0 0 0-33.7-.2z"/><path class="shp3" d="M383.5 546c-1.1.6-2.6 2.1-3.3 3.5-.6 1.4-1.2 3.7-1.2 5.3 0 1.5.7 3.7 1.5 5 .8 1.2 3.2 2.6 5.3 3.1 2 .6 4.3.8 5 .5a2 2 0 0 0 1.2-1.6c0-.7-1.1-2.4-2.5-3.8s-2.5-2.8-2.5-3.3c0-.4.6-.7 1.3-.7.6 0 2.6 1.3 4.2 3 2.8 2.9 3 3 4.3 1.3.7-1 1.2-3 1.2-4.5 0-1.8-1.1-4-3-5.8-2.1-2.1-4-3-6.3-3-1.7.1-4.1.6-5.2 1zM153 588.7c-2.6 2.1-3.1 3.3-3 6.5 0 2.4.5 4 1.3 4 .6 0 2.1-1.2 3.3-2.6 1-1.4 2.5-2.5 3.2-2.5.7 0 1.2.8 1.2 1.8s-1.3 2.7-2.8 4c-1.7 1.4-2.3 2.5-1.7 3 .6.6 2.3 1.3 4 1.6 2.1.4 4 0 6.3-1.4 1.7-1.1 3.7-3 4.3-4.3.6-1.2.8-3.4.5-5a13 13 0 0 0-3.1-5.2 8 8 0 0 0-6.4-2.5c-2.8 0-4.9.8-7 2.6z"/><path class="shp1" d="M443 604.8c0 .4 4.7 7.1 10.5 15L464 634a197.6 197.6 0 0 0-20 20c0 .5 2 1 4.3 1 4 0 4.6-.4 16.5-12.3l12.2-12.2V655h7l-.5-50.5-6.5-.5c0 17.4 0 17.5-3.4 21-2 2-4.1 3.2-4.8 2.9-.7-.3-5-5.8-9.6-12.3-8.1-11.5-8.2-11.6-12.2-11.6-2.2 0-4 .3-4 .8zm19 56.1c-2 .4-4.9 1.5-6.5 2.3a26.1 26.1 0 0 0-10.1 10.8c-1.4 2.7-1.9 5.6-1.9 12.5 0 6.8.4 9.8 1.9 12.5 1 2 3.5 5.2 5.5 7.3 2.3 2.5 5.3 4.3 8.6 5.3a36 36 0 0 0 7.5 1.4c1.4 0 4.8-.6 7.5-1.4 3.4-1 6.4-2.8 9.3-5.8 3-3 4.8-5.9 5.8-9.3a47 47 0 0 0 1.4-11 26.7 26.7 0 0 0-6.8-17.8 27.7 27.7 0 0 0-6.2-4.7c-2-1-5.5-2-8-2.3a30 30 0 0 0-8 .2z"/><path class="shp0" d="M463 667c-2 .5-4.6 1.8-6 2.8-1.4 1-3.4 3.4-4.4 5.3-1 1.9-2.1 5.9-2.4 8.9-.2 3 .1 7.5.8 10 .7 2.5 2.6 5.9 4.4 7.6 1.7 1.7 4.9 3.7 7.1 4.4 3.3 1 4.8 1 8.5 0 2.5-.7 5.9-2.7 7.6-4.4 1.7-1.7 3.6-4.9 4.3-7.1.6-2.2 1-6.1 1-8.8.1-2.6-.6-6.4-1.5-8.5-.8-2-2.3-4.5-3.2-5.6a17.4 17.4 0 0 0-9.7-4.9 19 19 0 0 0-6.5.3z"/><path class="shp1" d="M463 723.4c-1.8.7-4 2.3-5 3.5-1.2 1.9-1.6 6.3-1.8 24l-.3 21.6c4.3 1 6 1.1 6.4 1 .4-.3.7-9.4.6-20.3 0-10.8.3-20.5.8-21.5.4-1 2-2.2 3.6-2.7 1.7-.7 3.6-.6 5.2 0 1.4.5 3 1.9 3.5 3 .6 1.1 1 2.9 1 4 0 1.6.6 2 2.8 1.8 2.2-.3 2.8-.8 3-3.3.2-1.7-.4-4.5-1.5-6.3a13 13 0 0 0-5-4.7c-1.8-.8-4.8-1.5-6.6-1.5-1.7 0-4.7.6-6.6 1.4z"/></svg>